<svg width="400" height="400" viewBox="0 0 400 400" fill="none" xmlns="http://www.w3.org/2000/svg">
<path d="M200 385.78C302.603 385.78 385.78 302.603 385.78 200C385.78 97.3963 302.603 14.2197 200 14.2197C97.3965 14.2197 14.22 97.3963 14.22 200C14.22 302.603 97.3965 385.78 200 385.78Z" fill="black"/>
<path d="M200 392.78C93.7 392.78 7.21997 306.3 7.21997 200C7.21997 93.6997 93.7 7.21973 200 7.21973C306.3 7.21973 392.78 93.6997 392.78 200C392.78 306.3 306.3 392.78 200 392.78ZM200 21.2197C101.42 21.2197 21.22 101.42 21.22 200C21.22 298.58 101.42 378.78 200 378.78C298.58 378.78 378.78 298.58 378.78 200C378.78 101.42 298.58 21.2197 200 21.2197Z" fill="#CFAA18"/>
<path d="M308.77 198.76H302.36V205.17H308.77V198.76Z" fill="black"/>
<path d="M308.77 192.42H302.36V198.77H308.77V192.42Z" fill="black"/>
<path d="M302.35 211.52H295.94V217.93H302.35V211.52Z" fill="black"/>
<path d="M302.35 205.18H295.94V211.53H302.35V205.18Z" fill="black"/>
<path d="M302.35 186H295.94V192.41H302.35V186Z" fill="black"/>
<path d="M295.95 243.46H289.6V249.87H295.95V243.46Z" fill="black"/>
<path d="M295.95 217.939H289.6V224.289H295.95V217.939Z" fill="black"/>
<path d="M295.95 211.52H289.6V217.93H295.95V211.52Z" fill="black"/>
<path d="M295.95 179.59H289.6V186H295.95V179.59Z" fill="black"/>
<path d="M295.95 166.83H289.6V173.24H295.95V166.83Z" fill="black"/>
<path d="M289.59 307.32H283.18V313.67H289.59V307.32Z" fill="black"/>
<path d="M289.59 300.91H283.18V307.32H289.59V300.91Z" fill="black"/>
<path d="M289.59 249.87H283.18V256.22H289.59V249.87Z" fill="black"/>
<path d="M289.59 237.05H283.18V243.46H289.59V237.05Z" fill="black"/>
<path d="M289.59 230.7H283.18V237.05H289.59V230.7Z" fill="black"/>
<path d="M289.59 224.28H283.18V230.69H289.59V224.28Z" fill="black"/>
<path d="M289.59 217.939H283.18V224.289H289.59V217.939Z" fill="black"/>
<path d="M289.59 173.24H283.18V179.59H289.59V173.24Z" fill="black"/>
<path d="M289.59 160.479H283.18V166.829H289.59V160.479Z" fill="black"/>
<path d="M283.18 313.68H276.83V320.09H283.18V313.68Z" fill="black"/>
<path d="M283.18 294.56H276.83V300.91H283.18V294.56Z" fill="black"/>
<path d="M283.18 281.74H276.83V288.15H283.18V281.74Z" fill="black"/>
<path d="M283.18 275.38H276.83V281.73H283.18V275.38Z" fill="black"/>
<path d="M283.18 268.979H276.83V275.389H283.18V268.979Z" fill="black"/>
<path d="M283.18 249.87H276.83V256.22H283.18V249.87Z" fill="black"/>
<path d="M283.18 230.7H276.83V237.05H283.18V230.7Z" fill="black"/>
<path d="M283.18 179.59H276.83V186H283.18V179.59Z" fill="black"/>
<path d="M283.18 154.07H276.83V160.48H283.18V154.07Z" fill="black"/>
<path d="M276.83 313.68H270.42V320.09H276.83V313.68Z" fill="black"/>
<path d="M276.83 288.149H270.42V294.559H276.83V288.149Z" fill="black"/>
<path d="M276.83 281.74H270.42V288.15H276.83V281.74Z" fill="black"/>
<path d="M276.83 268.979H270.42V275.389H276.83V268.979Z" fill="black"/>
<path d="M276.83 262.63H270.42V268.98H276.83V262.63Z" fill="black"/>
<path d="M276.83 256.22H270.42V262.63H276.83V256.22Z" fill="black"/>
<path d="M276.83 249.87H270.42V256.22H276.83V249.87Z" fill="black"/>
<path d="M276.83 224.28H270.42V230.69H276.83V224.28Z" fill="black"/>
<path d="M276.83 205.18H270.42V211.53H276.83V205.18Z" fill="black"/>
<path d="M276.83 198.76H270.42V205.17H276.83V198.76Z" fill="black"/>
<path d="M276.83 192.42H270.42V198.77H276.83V192.42Z" fill="black"/>
<path d="M276.83 186H270.42V192.41H276.83V186Z" fill="black"/>
<path d="M276.83 154.07H270.42V160.48H276.83V154.07Z" fill="black"/>
<path d="M276.83 147.72H270.42V154.07H276.83V147.72Z" fill="black"/>
<path d="M270.42 313.68H264.07V320.09H270.42V313.68Z" fill="black"/>
<path d="M270.42 281.74H264.07V288.15H270.42V281.74Z" fill="black"/>
<path d="M270.42 268.979H264.07V275.389H270.42V268.979Z" fill="black"/>
<path d="M270.42 243.46H264.07V249.87H270.42V243.46Z" fill="black"/>
<path d="M270.42 224.28H264.07V230.69H270.42V224.28Z" fill="black"/>
<path d="M270.42 217.939H264.07V224.289H270.42V217.939Z" fill="black"/>
<path d="M270.42 211.52H264.07V217.93H270.42V211.52Z" fill="black"/>
<path d="M270.42 141.31H264.07V147.72H270.42V141.31Z" fill="black"/>
<path d="M264.08 313.68H257.67V320.09H264.08V313.68Z" fill="black"/>
<path d="M264.08 281.74H257.67V288.15H264.08V281.74Z" fill="black"/>
<path d="M264.08 268.979H257.67V275.389H264.08V268.979Z" fill="black"/>
<path d="M264.08 237.05H257.67V243.46H264.08V237.05Z" fill="black"/>
<path d="M264.08 230.7H257.67V237.05H264.08V230.7Z" fill="black"/>
<path d="M264.08 147.72H257.67V154.07H264.08V147.72Z" fill="black"/>
<path d="M257.66 313.68H251.25V320.09H257.66V313.68Z" fill="black"/>
<path d="M257.66 281.74H251.25V288.15H257.66V281.74Z" fill="black"/>
<path d="M257.66 268.979H251.25V275.389H257.66V268.979Z" fill="black"/>
<path d="M257.66 237.05H251.25V243.46H257.66V237.05Z" fill="black"/>
<path d="M257.66 141.31H251.25V147.72H257.66V141.31Z" fill="black"/>
<path d="M251.25 313.68H244.9V320.09H251.25V313.68Z" fill="black"/>
<path d="M251.25 288.149H244.9V294.559H251.25V288.149Z" fill="black"/>
<path d="M251.25 281.74H244.9V288.15H251.25V281.74Z" fill="black"/>
<path d="M251.25 268.979H244.9V275.389H251.25V268.979Z" fill="black"/>
<path d="M251.25 243.46H244.9V249.87H251.25V243.46Z" fill="black"/>
<path d="M251.25 134.899H244.9V141.309H251.25V134.899Z" fill="black"/>
<path d="M251.25 128.55H244.9V134.9H251.25V128.55Z" fill="black"/>
<path d="M251.25 122.14H244.9V128.55H251.25V122.14Z" fill="black"/>
<path d="M244.9 307.32H238.49V313.67H244.9V307.32Z" fill="black"/>
<path d="M244.9 300.91H238.49V307.32H244.9V300.91Z" fill="black"/>
<path d="M244.9 294.56H238.49V300.91H244.9V294.56Z" fill="black"/>
<path d="M244.9 281.74H238.49V288.15H244.9V281.74Z" fill="black"/>
<path d="M244.9 275.38H238.49V281.73H244.9V275.38Z" fill="black"/>
<path d="M244.9 268.979H238.49V275.389H244.9V268.979Z" fill="black"/>
<path d="M244.9 262.63H238.49V268.98H244.9V262.63Z" fill="black"/>
<path d="M244.9 256.22H238.49V262.63H244.9V256.22Z" fill="black"/>
<path d="M244.9 249.87H238.49V256.22H244.9V249.87Z" fill="black"/>
<path d="M244.9 134.899H238.49V141.309H244.9V134.899Z" fill="black"/>
<path d="M244.9 115.79H238.49V122.14H244.9V115.79Z" fill="black"/>
<path d="M238.49 256.22H232.14V262.63H238.49V256.22Z" fill="black"/>
<path d="M238.49 141.31H232.14V147.72H238.49V141.31Z" fill="black"/>
<path d="M238.49 109.38H232.14V115.79H238.49V109.38Z" fill="black"/>
<path d="M232.14 307.32H225.73V313.67H232.14V307.32Z" fill="black"/>
<path d="M232.14 300.91H225.73V307.32H232.14V300.91Z" fill="black"/>
<path d="M232.14 294.56H225.73V300.91H232.14V294.56Z" fill="black"/>
<path d="M232.14 288.149H225.73V294.559H232.14V288.149Z" fill="black"/>
<path d="M232.14 281.74H225.73V288.15H232.14V281.74Z" fill="black"/>
<path d="M232.14 275.38H225.73V281.73H232.14V275.38Z" fill="black"/>
<path d="M232.14 268.979H225.73V275.389H232.14V268.979Z" fill="black"/>
<path d="M232.14 262.63H225.73V268.98H232.14V262.63Z" fill="black"/>
<path d="M232.14 141.31H225.73V147.72H232.14V141.31Z" fill="black"/>
<path d="M232.14 109.38H225.73V115.79H232.14V109.38Z" fill="black"/>
<path d="M225.72 313.68H219.37V320.09H225.72V313.68Z" fill="black"/>
<path d="M225.72 281.74H219.37V288.15H225.72V281.74Z" fill="black"/>
<path d="M225.72 268.979H219.37V275.389H225.72V268.979Z" fill="black"/>
<path d="M225.72 256.22H219.37V262.63H225.72V256.22Z" fill="black"/>
<path d="M225.72 249.87H219.37V256.22H225.72V249.87Z" fill="black"/>
<path d="M225.72 243.46H219.37V249.87H225.72V243.46Z" fill="black"/>
<path d="M225.72 141.31H219.37V147.72H225.72V141.31Z" fill="black"/>
<path d="M225.72 109.38H219.37V115.79H225.72V109.38Z" fill="black"/>
<path d="M219.39 313.68H212.98V320.09H219.39V313.68Z" fill="black"/>
<path d="M219.39 281.74H212.98V288.15H219.39V281.74Z" fill="black"/>
<path d="M219.39 268.979H212.98V275.389H219.39V268.979Z" fill="black"/>
<path d="M219.39 237.05H212.98V243.46H219.39V237.05Z" fill="black"/>
<path d="M219.39 141.31H212.98V147.72H219.39V141.31Z" fill="black"/>
<path d="M219.39 109.38H212.98V115.79H219.39V109.38Z" fill="black"/>
<path d="M212.96 313.68H206.61V320.09H212.96V313.68Z" fill="black"/>
<path d="M212.96 281.74H206.61V288.15H212.96V281.74Z" fill="black"/>
<path d="M212.96 268.979H206.61V275.389H212.96V268.979Z" fill="black"/>
<path d="M212.96 230.7H206.61V237.05H212.96V230.7Z" fill="black"/>
<path d="M212.96 141.31H206.61V147.72H212.96V141.31Z" fill="black"/>
<path d="M212.96 109.38H206.61V115.79H212.96V109.38Z" fill="black"/>
<path d="M206.62 313.68H200.21V320.09H206.62V313.68Z" fill="black"/>
<path d="M206.62 281.74H200.21V288.15H206.62V281.74Z" fill="black"/>
<path d="M206.62 268.979H200.21V275.389H206.62V268.979Z" fill="black"/>
<path d="M206.62 230.7H200.21V237.05H206.62V230.7Z" fill="black"/>
<path d="M206.62 141.31H200.21V147.72H206.62V141.31Z" fill="black"/>
<path d="M206.62 115.79H200.21V122.14H206.62V115.79Z" fill="black"/>
<path d="M200.21 313.68H193.8V320.09H200.21V313.68Z" fill="black"/>
<path d="M200.21 294.56H193.8V300.91H200.21V294.56Z" fill="black"/>
<path d="M200.21 288.149H193.8V294.559H200.21V288.149Z" fill="black"/>
<path d="M200.21 281.74H193.8V288.15H200.21V281.74Z" fill="black"/>
<path d="M200.21 268.979H193.8V275.389H200.21V268.979Z" fill="black"/>
<path d="M200.21 262.63H193.8V268.98H200.21V262.63Z" fill="black"/>
<path d="M200.21 256.22H193.8V262.63H200.21V256.22Z" fill="black"/>
<path d="M200.21 249.87H193.8V256.22H200.21V249.87Z" fill="black"/>
<path d="M200.21 243.46H193.8V249.87H200.21V243.46Z" fill="black"/>
<path d="M200.21 237.05H193.8V243.46H200.21V237.05Z" fill="black"/>
<path d="M200.21 147.72H193.8V154.07H200.21V147.72Z" fill="black"/>
<path d="M200.21 122.14H193.8V128.55H200.21V122.14Z" fill="black"/>
<path d="M193.8 313.68H187.45V320.09H193.8V313.68Z" fill="black"/>
<path d="M193.8 294.56H187.45V300.91H193.8V294.56Z" fill="black"/>
<path d="M193.8 281.74H187.45V288.15H193.8V281.74Z" fill="black"/>
<path d="M193.8 275.38H187.45V281.73H193.8V275.38Z" fill="black"/>
<path d="M193.8 268.979H187.45V275.389H193.8V268.979Z" fill="black"/>
<path d="M193.8 243.46H187.45V249.87H193.8V243.46Z" fill="black"/>
<path d="M193.8 224.28H187.45V230.69H193.8V224.28Z" fill="black"/>
<path d="M193.8 217.939H187.45V224.289H193.8V217.939Z" fill="black"/>
<path d="M193.8 166.83H187.45V173.24H193.8V166.83Z" fill="black"/>
<path d="M193.8 160.479H187.45V166.829H193.8V160.479Z" fill="black"/>
<path d="M193.8 154.07H187.45V160.48H193.8V154.07Z" fill="black"/>
<path d="M193.8 147.72H187.45V154.07H193.8V147.72Z" fill="black"/>
<path d="M193.8 141.31H187.45V147.72H193.8V141.31Z" fill="black"/>
<path d="M193.8 134.899H187.45V141.309H193.8V134.899Z" fill="black"/>
<path d="M193.8 128.55H187.45V134.9H193.8V128.55Z" fill="black"/>
<path d="M187.45 313.68H181.04V320.09H187.45V313.68Z" fill="black"/>
<path d="M187.45 294.56H181.04V300.91H187.45V294.56Z" fill="black"/>
<path d="M187.45 237.05H181.04V243.46H187.45V237.05Z" fill="black"/>
<path d="M187.45 230.7H181.04V237.05H187.45V230.7Z" fill="black"/>
<path d="M187.45 211.52H181.04V217.93H187.45V211.52Z" fill="black"/>
<path d="M187.45 205.18H181.04V211.53H187.45V205.18Z" fill="black"/>
<path d="M187.45 198.76H181.04V205.17H187.45V198.76Z" fill="black"/>
<path d="M187.45 192.42H181.04V198.77H187.45V192.42Z" fill="black"/>
<path d="M187.45 186H181.04V192.41H187.45V186Z" fill="black"/>
<path d="M187.45 179.59H181.04V186H187.45V179.59Z" fill="black"/>
<path d="M187.45 173.24H181.04V179.59H187.45V173.24Z" fill="black"/>
<path d="M187.45 154.07H181.04V160.48H187.45V154.07Z" fill="black"/>
<path d="M181.04 307.32H174.69V313.67H181.04V307.32Z" fill="black"/>
<path d="M181.04 300.91H174.69V307.32H181.04V300.91Z" fill="black"/>
<path d="M181.04 198.76H174.69V205.17H181.04V198.76Z" fill="black"/>
<path d="M181.04 160.479H174.69V166.829H181.04V160.479Z" fill="black"/>
<path d="M174.68 205.18H168.27V211.53H174.68V205.18Z" fill="black"/>
<path d="M174.68 166.83H168.27V173.24H174.68V166.83Z" fill="black"/>
<path d="M168.27 205.18H161.92V211.53H168.27V205.18Z" fill="black"/>
<path d="M168.27 186H161.92V192.41H168.27V186Z" fill="black"/>
<path d="M168.27 179.59H161.92V186H168.27V179.59Z" fill="black"/>
<path d="M168.27 173.24H161.92V179.59H168.27V173.24Z" fill="black"/>
<path d="M168.27 160.479H161.92V166.829H168.27V160.479Z" fill="black"/>
<path d="M168.27 154.07H161.92V160.48H168.27V154.07Z" fill="black"/>
<path d="M168.27 147.72H161.92V154.07H168.27V147.72Z" fill="black"/>
<path d="M168.27 141.31H161.92V147.72H168.27V141.31Z" fill="black"/>
<path d="M168.27 134.899H161.92V141.309H168.27V134.899Z" fill="black"/>
<path d="M168.27 128.55H161.92V134.9H168.27V128.55Z" fill="black"/>
<path d="M161.93 211.52H155.52V217.93H161.93V211.52Z" fill="black"/>
<path d="M161.93 186H155.52V192.41H161.93V186Z" fill="black"/>
<path d="M161.93 166.83H155.52V173.24H161.93V166.83Z" fill="black"/>
<path d="M161.93 122.14H155.52V128.55H161.93V122.14Z" fill="black"/>
<path d="M155.51 211.52H149.1V217.93H155.51V211.52Z" fill="black"/>
<path d="M155.51 192.42H149.1V198.77H155.51V192.42Z" fill="black"/>
<path d="M155.51 160.479H149.1V166.829H155.51V160.479Z" fill="black"/>
<path d="M155.51 128.55H149.1V134.9H155.51V128.55Z" fill="black"/>
<path d="M149.11 268.979H142.76V275.389H149.11V268.979Z" fill="black"/>
<path d="M149.11 262.63H142.76V268.98H149.11V262.63Z" fill="black"/>
<path d="M149.11 217.939H142.76V224.289H149.11V217.939Z" fill="black"/>
<path d="M149.11 198.76H142.76V205.17H149.11V198.76Z" fill="black"/>
<path d="M149.11 154.07H142.76V160.48H149.11V154.07Z" fill="black"/>
<path d="M149.11 134.899H142.76V141.309H149.11V134.899Z" fill="black"/>
<path d="M149.11 115.79H142.76V122.14H149.11V115.79Z" fill="black"/>
<path d="M142.75 275.38H136.34V281.73H142.75V275.38Z" fill="black"/>
<path d="M142.75 256.22H136.34V262.63H142.75V256.22Z" fill="black"/>
<path d="M142.75 249.87H136.34V256.22H142.75V249.87Z" fill="black"/>
<path d="M142.75 243.46H136.34V249.87H142.75V243.46Z" fill="black"/>
<path d="M142.75 237.05H136.34V243.46H142.75V237.05Z" fill="black"/>
<path d="M142.75 230.7H136.34V237.05H142.75V230.7Z" fill="black"/>
<path d="M142.75 224.28H136.34V230.69H142.75V224.28Z" fill="black"/>
<path d="M142.75 192.42H136.34V198.77H142.75V192.42Z" fill="black"/>
<path d="M142.75 186H136.34V192.41H142.75V186Z" fill="black"/>
<path d="M142.75 179.59H136.34V186H142.75V179.59Z" fill="black"/>
<path d="M142.75 173.24H136.34V179.59H142.75V173.24Z" fill="black"/>
<path d="M142.75 166.83H136.34V173.24H142.75V166.83Z" fill="black"/>
<path d="M142.75 160.479H136.34V166.829H142.75V160.479Z" fill="black"/>
<path d="M142.75 154.07H136.34V160.48H142.75V154.07Z" fill="black"/>
<path d="M142.75 147.72H136.34V154.07H142.75V147.72Z" fill="black"/>
<path d="M142.75 141.31H136.34V147.72H142.75V141.31Z" fill="black"/>
<path d="M142.75 134.899H136.34V141.309H142.75V134.899Z" fill="black"/>
<path d="M142.75 128.55H136.34V134.9H142.75V128.55Z" fill="black"/>
<path d="M142.75 122.14H136.34V128.55H142.75V122.14Z" fill="black"/>
<path d="M142.75 109.38H136.34V115.79H142.75V109.38Z" fill="black"/>
<path d="M136.34 281.74H129.99V288.15H136.34V281.74Z" fill="black"/>
<path d="M136.34 224.28H129.99V230.69H136.34V224.28Z" fill="black"/>
<path d="M136.34 186H129.99V192.41H136.34V186Z" fill="black"/>
<path d="M136.34 109.38H129.99V115.79H136.34V109.38Z" fill="black"/>
<path d="M129.99 275.38H123.58V281.73H129.99V275.38Z" fill="black"/>
<path d="M129.99 256.22H123.58V262.63H129.99V256.22Z" fill="black"/>
<path d="M129.99 249.87H123.58V256.22H129.99V249.87Z" fill="black"/>
<path d="M129.99 243.46H123.58V249.87H129.99V243.46Z" fill="black"/>
<path d="M129.99 237.05H123.58V243.46H129.99V237.05Z" fill="black"/>
<path d="M129.99 230.7H123.58V237.05H129.99V230.7Z" fill="black"/>
<path d="M129.99 224.28H123.58V230.69H129.99V224.28Z" fill="black"/>
<path d="M129.99 186H123.58V192.41H129.99V186Z" fill="black"/>
<path d="M129.99 179.59H123.58V186H129.99V179.59Z" fill="black"/>
<path d="M129.99 173.24H123.58V179.59H129.99V173.24Z" fill="black"/>
<path d="M129.99 166.83H123.58V173.24H129.99V166.83Z" fill="black"/>
<path d="M129.99 160.479H123.58V166.829H129.99V160.479Z" fill="black"/>
<path d="M129.99 154.07H123.58V160.48H129.99V154.07Z" fill="black"/>
<path d="M129.99 147.72H123.58V154.07H129.99V147.72Z" fill="black"/>
<path d="M129.99 141.31H123.58V147.72H129.99V141.31Z" fill="black"/>
<path d="M129.99 134.899H123.58V141.309H129.99V134.899Z" fill="black"/>
<path d="M129.99 128.55H123.58V134.9H129.99V128.55Z" fill="black"/>
<path d="M129.99 122.14H123.58V128.55H129.99V122.14Z" fill="black"/>
<path d="M129.99 109.38H123.58V115.79H129.99V109.38Z" fill="black"/>
<path d="M123.58 268.979H117.23V275.389H123.58V268.979Z" fill="black"/>
<path d="M123.58 262.63H117.23V268.98H123.58V262.63Z" fill="black"/>
<path d="M123.58 217.939H117.23V224.289H123.58V217.939Z" fill="black"/>
<path d="M123.58 211.52H117.23V217.93H123.58V211.52Z" fill="black"/>
<path d="M123.58 205.18H117.23V211.53H123.58V205.18Z" fill="black"/>
<path d="M123.58 198.76H117.23V205.17H123.58V198.76Z" fill="black"/>
<path d="M123.58 192.42H117.23V198.77H123.58V192.42Z" fill="black"/>
<path d="M123.58 154.07H117.23V160.48H123.58V154.07Z" fill="black"/>
<path d="M123.58 134.899H117.23V141.309H123.58V134.899Z" fill="black"/>
<path d="M123.58 115.79H117.23V122.14H123.58V115.79Z" fill="black"/>
<path d="M117.23 154.07H110.82V160.48H117.23V154.07Z" fill="black"/>
<path d="M117.23 134.899H110.82V141.309H117.23V134.899Z" fill="black"/>
<path d="M110.82 160.479H104.47V166.829H110.82V160.479Z" fill="black"/>
<path d="M110.82 128.55H104.47V134.9H110.82V128.55Z" fill="black"/>
<path d="M104.47 173.24H98.0601V179.59H104.47V173.24Z" fill="black"/>
<path d="M104.47 166.83H98.0601V173.24H104.47V166.83Z" fill="black"/>
<path d="M104.47 122.14H98.0601V128.55H104.47V122.14Z" fill="black"/>
<path d="M104.47 115.79H98.0601V122.14H104.47V115.79Z" fill="black"/>
<path d="M302.33 198.76H295.98V205.17H302.33V198.76Z" fill="#373370"/>
<path d="M302.33 192.42H295.98V198.77H302.33V192.42Z" fill="#373370"/>
<path d="M295.99 205.18H289.58V211.53H295.99V205.18Z" fill="#373370"/>
<path d="M295.99 198.76H289.58V205.17H295.99V198.76Z" fill="#373370"/>
<path d="M295.99 192.42H289.58V198.77H295.99V192.42Z" fill="#373370"/>
<path d="M295.99 186H289.58V192.41H295.99V186Z" fill="#373370"/>
<path d="M289.57 243.46H283.22V249.87H289.57V243.46Z" fill="#E2A066"/>
<path d="M289.57 211.52H283.22V217.93H289.57V211.52Z" fill="#373370"/>
<path d="M289.57 205.18H283.22V211.53H289.57V205.18Z" fill="#373370"/>
<path d="M289.57 198.76H283.22V205.17H289.57V198.76Z" fill="#453D7C"/>
<path d="M289.57 192.42H283.22V198.77H289.57V192.42Z" fill="#453D7C"/>
<path d="M289.57 186H283.22V192.41H289.57V186Z" fill="#373370"/>
<path d="M289.57 179.59H283.22V186H289.57V179.59Z" fill="#373370"/>
<path d="M289.57 166.829H283.22V173.239H289.57V166.829Z" fill="#CFAA18"/>
<path d="M283.22 307.319H276.81V313.669H283.22V307.319Z" fill="#7C6916"/>
<path d="M283.22 300.909H276.81V307.319H283.22V300.909Z" fill="#7C6916"/>
<path d="M283.22 243.46H276.81V249.87H283.22V243.46Z" fill="#E2A066"/>
<path d="M283.22 237.05H276.81V243.46H283.22V237.05Z" fill="#E2A066"/>
<path d="M283.22 224.279H276.81V230.689H283.22V224.279Z" fill="#453D7C"/>
<path d="M283.22 217.939H276.81V224.289H283.22V217.939Z" fill="#453D7C"/>
<path d="M283.22 211.52H276.81V217.93H283.22V211.52Z" fill="#453D7C"/>
<path d="M283.22 205.18H276.81V211.53H283.22V205.18Z" fill="#453D7C"/>
<path d="M283.22 198.76H276.81V205.17H283.22V198.76Z" fill="#453D7C"/>
<path d="M283.22 192.42H276.81V198.77H283.22V192.42Z" fill="#453D7C"/>
<path d="M283.22 186H276.81V192.41H283.22V186Z" fill="#453D7C"/>
<path d="M283.22 173.239H276.81V179.589H283.22V173.239Z" fill="#CFAA18"/>
<path d="M283.22 166.829H276.81V173.239H283.22V166.829Z" fill="#CFAA18"/>
<path d="M283.22 160.479H276.81V166.829H283.22V160.479Z" fill="#CFAA18"/>
<path d="M276.81 307.319H270.46V313.669H276.81V307.319Z" fill="#7C6916"/>
<path d="M276.81 300.909H270.46V307.319H276.81V300.909Z" fill="#7C6916"/>
<path d="M276.81 294.56H270.46V300.91H276.81V294.56Z" fill="#7C6916"/>
<path d="M276.81 275.38H270.46V281.73H276.81V275.38Z" fill="#7C6916"/>
<path d="M276.81 243.46H270.46V249.87H276.81V243.46Z" fill="#E2A066"/>
<path d="M276.81 237.05H270.46V243.46H276.81V237.05Z" fill="#E2A066"/>
<path d="M276.81 230.699H270.46V237.049H276.81V230.699Z" fill="#E2A066"/>
<path d="M276.81 217.939H270.46V224.289H276.81V217.939Z" fill="#453D7C"/>
<path d="M276.81 211.52H270.46V217.93H276.81V211.52Z" fill="#453D7C"/>
<path d="M276.81 179.59H270.46V186H276.81V179.59Z" fill="#CFAA18"/>
<path d="M276.81 173.239H270.46V179.589H276.81V173.239Z" fill="#B28A0D"/>
<path d="M276.81 166.829H270.46V173.239H276.81V166.829Z" fill="#B28A0D"/>
<path d="M276.81 160.479H270.46V166.829H276.81V160.479Z" fill="#CFAA18"/>
<path d="M270.46 307.319H264.05V313.669H270.46V307.319Z" fill="#A18824"/>
<path d="M270.46 300.909H264.05V307.319H270.46V300.909Z" fill="#7C6916"/>
<path d="M270.46 294.56H264.05V300.91H270.46V294.56Z" fill="#7C6916"/>
<path d="M270.46 288.149H264.05V294.559H270.46V288.149Z" fill="#7C6916"/>
<path d="M270.46 275.38H264.05V281.73H270.46V275.38Z" fill="#7C6916"/>
<path d="M270.46 262.63H264.05V268.98H270.46V262.63Z" fill="#373370"/>
<path d="M270.46 256.22H264.05V262.63H270.46V256.22Z" fill="#373370"/>
<path d="M270.46 249.869H264.05V256.219H270.46V249.869Z" fill="#373370"/>
<path d="M270.46 237.05H264.05V243.46H270.46V237.05Z" fill="#E2A066"/>
<path d="M270.46 230.699H264.05V237.049H270.46V230.699Z" fill="#E2A066"/>
<path d="M270.46 205.18H264.05V211.53H270.46V205.18Z" fill="#CFAA18"/>
<path d="M270.46 198.76H264.05V205.17H270.46V198.76Z" fill="#CFAA18"/>
<path d="M270.46 192.42H264.05V198.77H270.46V192.42Z" fill="#CFAA18"/>
<path d="M270.46 186H264.05V192.41H270.46V186Z" fill="#CFAA18"/>
<path d="M270.46 179.59H264.05V186H270.46V179.59Z" fill="#CFAA18"/>
<path d="M270.46 173.239H264.05V179.589H270.46V173.239Z" fill="#CFAA18"/>
<path d="M270.46 166.829H264.05V173.239H270.46V166.829Z" fill="#B28A0D"/>
<path d="M270.46 160.479H264.05V166.829H270.46V160.479Z" fill="#B28A0D"/>
<path d="M270.46 154.069H264.05V160.479H270.46V154.069Z" fill="#CFAA18"/>
<path d="M270.46 147.72H264.05V154.07H270.46V147.72Z" fill="#CFAA18"/>
<path d="M264.05 307.319H257.64V313.669H264.05V307.319Z" fill="#A18824"/>
<path d="M264.05 300.909H257.64V307.319H264.05V300.909Z" fill="#A18824"/>
<path d="M264.05 294.56H257.64V300.91H264.05V294.56Z" fill="#A18824"/>
<path d="M264.05 288.149H257.64V294.559H264.05V288.149Z" fill="#A18824"/>
<path d="M264.05 275.38H257.64V281.73H264.05V275.38Z" fill="#7C6916"/>
<path d="M264.05 262.63H257.64V268.98H264.05V262.63Z" fill="#373370"/>
<path d="M264.05 256.22H257.64V262.63H264.05V256.22Z" fill="#373370"/>
<path d="M264.05 249.869H257.64V256.219H264.05V249.869Z" fill="#373370"/>
<path d="M264.05 243.46H257.64V249.87H264.05V243.46Z" fill="#373370"/>
<path d="M264.05 224.279H257.64V230.689H264.05V224.279Z" fill="#CFAA18"/>
<path d="M264.05 217.939H257.64V224.289H264.05V217.939Z" fill="#CFAA18"/>
<path d="M264.05 211.52H257.64V217.93H264.05V211.52Z" fill="#CFAA18"/>
<path d="M264.05 205.18H257.64V211.53H264.05V205.18Z" fill="#CFAA18"/>
<path d="M264.05 198.76H257.64V205.17H264.05V198.76Z" fill="#CFAA18"/>
<path d="M264.05 192.42H257.64V198.77H264.05V192.42Z" fill="#B28A0D"/>
<path d="M264.05 186H257.64V192.41H264.05V186Z" fill="#B28A0D"/>
<path d="M264.05 179.59H257.64V186H264.05V179.59Z" fill="#CFAA18"/>
<path d="M264.05 173.239H257.64V179.589H264.05V173.239Z" fill="#CFAA18"/>
<path d="M264.05 166.829H257.64V173.239H264.05V166.829Z" fill="#CFAA18"/>
<path d="M264.05 160.479H257.64V166.829H264.05V160.479Z" fill="#CFAA18"/>
<path d="M264.05 154.069H257.64V160.479H264.05V154.069Z" fill="#CFAA18"/>
<path d="M264.05 109.38H257.64V115.79H264.05V109.38Z" fill="black"/>
<path d="M264.05 103.029H257.64V109.379H264.05V103.029Z" fill="black"/>
<path d="M264.05 96.6191H257.64V103.029H264.05V96.6191Z" fill="black"/>
<path d="M264.05 90.2695H257.64V96.6195H264.05V90.2695Z" fill="black"/>
<path d="M257.63 307.319H251.28V313.669H257.63V307.319Z" fill="#A18824"/>
<path d="M257.63 300.909H251.28V307.319H257.63V300.909Z" fill="#A18824"/>
<path d="M257.63 294.56H251.28V300.91H257.63V294.56Z" fill="#A18824"/>
<path d="M257.63 288.149H251.28V294.559H257.63V288.149Z" fill="#A18824"/>
<path d="M257.63 275.38H251.28V281.73H257.63V275.38Z" fill="#A18824"/>
<path d="M257.63 262.63H251.28V268.98H257.63V262.63Z" fill="#453D7C"/>
<path d="M257.63 256.22H251.28V262.63H257.63V256.22Z" fill="#453D7C"/>
<path d="M257.63 249.869H251.28V256.219H257.63V249.869Z" fill="#453D7C"/>
<path d="M257.63 243.46H251.28V249.87H257.63V243.46Z" fill="#373370"/>
<path d="M257.63 230.699H251.28V237.049H257.63V230.699Z" fill="#CFAA18"/>
<path d="M257.63 224.279H251.28V230.689H257.63V224.279Z" fill="#CFAA18"/>
<path d="M257.63 217.939H251.28V224.289H257.63V217.939Z" fill="#CFAA18"/>
<path d="M257.63 211.52H251.28V217.93H257.63V211.52Z" fill="#CFAA18"/>
<path d="M257.63 205.18H251.28V211.53H257.63V205.18Z" fill="#B28A0D"/>
<path d="M257.63 198.76H251.28V205.17H257.63V198.76Z" fill="#B28A0D"/>
<path d="M257.63 192.42H251.28V198.77H257.63V192.42Z" fill="#CFAA18"/>
<path d="M257.63 186H251.28V192.41H257.63V186Z" fill="#CFAA18"/>
<path d="M257.63 179.59H251.28V186H257.63V179.59Z" fill="#CFAA18"/>
<path d="M257.63 173.239H251.28V179.589H257.63V173.239Z" fill="#CFAA18"/>
<path d="M257.63 166.829H251.28V173.239H257.63V166.829Z" fill="#CFAA18"/>
<path d="M257.63 160.479H251.28V166.829H257.63V160.479Z" fill="#CFAA18"/>
<path d="M257.63 154.069H251.28V160.479H257.63V154.069Z" fill="#CFAA18"/>
<path d="M257.63 147.72H251.28V154.07H257.63V147.72Z" fill="#CFAA18"/>
<path d="M257.63 115.789H251.28V122.139H257.63V115.789Z" fill="black"/>
<path d="M257.63 109.38H251.28V115.79H257.63V109.38Z" fill="#CFAA18"/>
<path d="M257.63 103.029H251.28V109.379H257.63V103.029Z" fill="#CFAA18"/>
<path d="M257.63 96.6191H251.28V103.029H257.63V96.6191Z" fill="black"/>
<path d="M251.29 307.319H244.88V313.669H251.29V307.319Z" fill="#A18824"/>
<path d="M251.29 300.909H244.88V307.319H251.29V300.909Z" fill="#A18824"/>
<path d="M251.29 294.56H244.88V300.91H251.29V294.56Z" fill="#A18824"/>
<path d="M251.29 275.38H244.88V281.73H251.29V275.38Z" fill="#A18824"/>
<path d="M251.29 262.63H244.88V268.98H251.29V262.63Z" fill="#453D7C"/>
<path d="M251.29 256.22H244.88V262.63H251.29V256.22Z" fill="#453D7C"/>
<path d="M251.29 249.869H244.88V256.219H251.29V249.869Z" fill="#453D7C"/>
<path d="M251.29 237.05H244.88V243.46H251.29V237.05Z" fill="#CFAA18"/>
<path d="M251.29 230.699H244.88V237.049H251.29V230.699Z" fill="#CFAA18"/>
<path d="M251.29 224.279H244.88V230.689H251.29V224.279Z" fill="#CFAA18"/>
<path d="M251.29 217.939H244.88V224.289H251.29V217.939Z" fill="#B28A0D"/>
<path d="M251.29 211.52H244.88V217.93H251.29V211.52Z" fill="#CFAA18"/>
<path d="M251.29 205.18H244.88V211.53H251.29V205.18Z" fill="#CFAA18"/>
<path d="M251.29 198.76H244.88V205.17H251.29V198.76Z" fill="#B28A0D"/>
<path d="M251.29 192.42H244.88V198.77H251.29V192.42Z" fill="#B28A0D"/>
<path d="M251.29 186H244.88V192.41H251.29V186Z" fill="#CFAA18"/>
<path d="M251.29 179.59H244.88V186H251.29V179.59Z" fill="#CFAA18"/>
<path d="M251.29 173.239H244.88V179.589H251.29V173.239Z" fill="#B28A0D"/>
<path d="M251.29 166.829H244.88V173.239H251.29V166.829Z" fill="#B28A0D"/>
<path d="M251.29 160.479H244.88V166.829H251.29V160.479Z" fill="#CFAA18"/>
<path d="M251.29 154.069H244.88V160.479H251.29V154.069Z" fill="#B28A0D"/>
<path d="M251.29 147.72H244.88V154.07H251.29V147.72Z" fill="#CFAA18"/>
<path d="M251.29 141.31H244.88V147.72H251.29V141.31Z" fill="#CFAA18"/>
<path d="M251.29 115.789H244.88V122.139H251.29V115.789Z" fill="#CFAA18"/>
<path d="M251.29 109.38H244.88V115.79H251.29V109.38Z" fill="#CFAA18"/>
<path d="M251.29 103.029H244.88V109.379H251.29V103.029Z" fill="black"/>
<path d="M244.88 243.46H238.53V249.87H244.88V243.46Z" fill="#CFAA18"/>
<path d="M244.88 237.05H238.53V243.46H244.88V237.05Z" fill="#CFAA18"/>
<path d="M244.88 230.699H238.53V237.049H244.88V230.699Z" fill="#CFAA18"/>
<path d="M244.88 224.279H238.53V230.689H244.88V224.279Z" fill="#CFAA18"/>
<path d="M244.88 217.939H238.53V224.289H244.88V217.939Z" fill="#CFAA18"/>
<path d="M244.88 211.52H238.53V217.93H244.88V211.52Z" fill="#B28A0D"/>
<path d="M244.88 205.18H238.53V211.53H244.88V205.18Z" fill="#CFAA18"/>
<path d="M244.88 198.76H238.53V205.17H244.88V198.76Z" fill="#CFAA18"/>
<path d="M244.88 192.42H238.53V198.77H244.88V192.42Z" fill="#CFAA18"/>
<path d="M244.88 186H238.53V192.41H244.88V186Z" fill="#CFAA18"/>
<path d="M244.88 179.59H238.53V186H244.88V179.59Z" fill="#CFAA18"/>
<path d="M244.88 173.239H238.53V179.589H244.88V173.239Z" fill="#CFAA18"/>
<path d="M244.88 166.829H238.53V173.239H244.88V166.829Z" fill="#CFAA18"/>
<path d="M244.88 160.479H238.53V166.829H244.88V160.479Z" fill="#B28A0D"/>
<path d="M244.88 154.069H238.53V160.479H244.88V154.069Z" fill="#B28A0D"/>
<path d="M244.88 147.72H238.53V154.07H244.88V147.72Z" fill="#CE8A57"/>
<path d="M244.88 141.31H238.53V147.72H244.88V141.31Z" fill="#CE8A57"/>
<path d="M244.88 128.55H238.53V134.9H244.88V128.55Z" fill="#2C2E3A"/>
<path d="M244.88 122.14H238.53V128.55H244.88V122.14Z" fill="#091442"/>
<path d="M244.88 109.38H238.53V115.79H244.88V109.38Z" fill="black"/>
<path d="M238.53 249.869H232.12V256.219H238.53V249.869Z" fill="#CFAA18"/>
<path d="M238.53 243.46H232.12V249.87H238.53V243.46Z" fill="#B28A0D"/>
<path d="M238.53 237.05H232.12V243.46H238.53V237.05Z" fill="#B28A0D"/>
<path d="M238.53 230.699H232.12V237.049H238.53V230.699Z" fill="#CFAA18"/>
<path d="M238.53 224.279H232.12V230.689H238.53V224.279Z" fill="#CFAA18"/>
<path d="M238.53 217.939H232.12V224.289H238.53V217.939Z" fill="#CFAA18"/>
<path d="M238.53 211.52H232.12V217.93H238.53V211.52Z" fill="#CFAA18"/>
<path d="M238.53 205.18H232.12V211.53H238.53V205.18Z" fill="#B28A0D"/>
<path d="M238.53 198.76H232.12V205.17H238.53V198.76Z" fill="#B28A0D"/>
<path d="M238.53 192.42H232.12V198.77H238.53V192.42Z" fill="#CFAA18"/>
<path d="M238.53 186H232.12V192.41H238.53V186Z" fill="#CFAA18"/>
<path d="M238.53 179.59H232.12V186H238.53V179.59Z" fill="#B28A0D"/>
<path d="M238.53 173.239H232.12V179.589H238.53V173.239Z" fill="#CFAA18"/>
<path d="M238.53 166.829H232.12V173.239H238.53V166.829Z" fill="#CFAA18"/>
<path d="M238.53 160.479H232.12V166.829H238.53V160.479Z" fill="#CFAA18"/>
<path d="M238.53 154.069H232.12V160.479H238.53V154.069Z" fill="#CE8A57"/>
<path d="M238.53 147.72H232.12V154.07H238.53V147.72Z" fill="#E2A066"/>
<path d="M238.53 134.899H232.12V141.309H238.53V134.899Z" fill="#091442"/>
<path d="M238.53 128.55H232.12V134.9H238.53V128.55Z" fill="#091442"/>
<path d="M238.53 122.14H232.12V128.55H238.53V122.14Z" fill="#091442"/>
<path d="M238.53 115.789H232.12V122.139H238.53V115.789Z" fill="#091442"/>
<path d="M232.12 256.22H225.77V262.63H232.12V256.22Z" fill="#CFAA18"/>
<path d="M232.12 249.869H225.77V256.219H232.12V249.869Z" fill="#CFAA18"/>
<path d="M232.12 243.46H225.77V249.87H232.12V243.46Z" fill="#CFAA18"/>
<path d="M232.12 237.05H225.77V243.46H232.12V237.05Z" fill="#CFAA18"/>
<path d="M232.12 230.699H225.77V237.049H232.12V230.699Z" fill="#CFAA18"/>
<path d="M232.12 224.279H225.77V230.689H232.12V224.279Z" fill="#B28A0D"/>
<path d="M232.12 217.939H225.77V224.289H232.12V217.939Z" fill="#CFAA18"/>
<path d="M232.12 211.52H225.77V217.93H232.12V211.52Z" fill="#CFAA18"/>
<path d="M232.12 205.18H225.77V211.53H232.12V205.18Z" fill="#CFAA18"/>
<path d="M232.12 198.76H225.77V205.17H232.12V198.76Z" fill="#B28A0D"/>
<path d="M232.12 192.42H225.77V198.77H232.12V192.42Z" fill="#CFAA18"/>
<path d="M232.12 186H225.77V192.41H232.12V186Z" fill="#CFAA18"/>
<path d="M232.12 179.59H225.77V186H232.12V179.59Z" fill="#B28A0D"/>
<path d="M232.12 173.239H225.77V179.589H232.12V173.239Z" fill="#CFAA18"/>
<path d="M232.12 166.829H225.77V173.239H232.12V166.829Z" fill="#CFAA18"/>
<path d="M232.12 160.479H225.77V166.829H232.12V160.479Z" fill="#FFC78F"/>
<path d="M232.12 154.069H225.77V160.479H232.12V154.069Z" fill="#FFC78F"/>
<path d="M232.12 147.72H225.77V154.07H232.12V147.72Z" fill="#E2A066"/>
<path d="M232.12 134.899H225.77V141.309H232.12V134.899Z" fill="#2C2E3A"/>
<path d="M232.12 128.55H225.77V134.9H232.12V128.55Z" fill="#101A54"/>
<path d="M232.12 122.14H225.77V128.55H232.12V122.14Z" fill="#101A54"/>
<path d="M232.12 115.789H225.77V122.139H232.12V115.789Z" fill="#091442"/>
<path d="M225.77 307.319H219.36V313.669H225.77V307.319Z" fill="#7C6916"/>
<path d="M225.77 300.909H219.36V307.319H225.77V300.909Z" fill="#7C6916"/>
<path d="M225.77 294.56H219.36V300.91H225.77V294.56Z" fill="#7C6916"/>
<path d="M225.77 288.149H219.36V294.559H225.77V288.149Z" fill="#7C6916"/>
<path d="M225.77 275.38H219.36V281.73H225.77V275.38Z" fill="#7C6916"/>
<path d="M225.77 262.63H219.36V268.98H225.77V262.63Z" fill="#373370"/>
<path d="M225.77 237.05H219.36V243.46H225.77V237.05Z" fill="#CFAA18"/>
<path d="M225.77 230.699H219.36V237.049H225.77V230.699Z" fill="#CFAA18"/>
<path d="M225.77 224.279H219.36V230.689H225.77V224.279Z" fill="#B28A0D"/>
<path d="M225.77 217.939H219.36V224.289H225.77V217.939Z" fill="#B28A0D"/>
<path d="M225.77 211.52H219.36V217.93H225.77V211.52Z" fill="#B28A0D"/>
<path d="M225.77 205.18H219.36V211.53H225.77V205.18Z" fill="#CFAA18"/>
<path d="M225.77 198.76H219.36V205.17H225.77V198.76Z" fill="#CFAA18"/>
<path d="M225.77 192.42H219.36V198.77H225.77V192.42Z" fill="#B28A0D"/>
<path d="M225.77 186H219.36V192.41H225.77V186Z" fill="#CFAA18"/>
<path d="M225.77 179.59H219.36V186H225.77V179.59Z" fill="#CFAA18"/>
<path d="M225.77 173.239H219.36V179.589H225.77V173.239Z" fill="#B28A0D"/>
<path d="M225.77 166.829H219.36V173.239H225.77V166.829Z" fill="#CFAA18"/>
<path d="M225.77 160.479H219.36V166.829H225.77V160.479Z" fill="#FFC78F"/>
<path d="M225.77 154.069H219.36V160.479H225.77V154.069Z" fill="#FFC78F"/>
<path d="M225.77 147.72H219.36V154.07H225.77V147.72Z" fill="#E2A066"/>
<path d="M225.77 134.899H219.36V141.309H225.77V134.899Z" fill="#101A54"/>
<path d="M225.77 128.55H219.36V134.9H225.77V128.55Z" fill="#101A54"/>
<path d="M225.77 122.14H219.36V128.55H225.77V122.14Z" fill="#101A54"/>
<path d="M225.77 115.789H219.36V122.139H225.77V115.789Z" fill="#101A54"/>
<path d="M219.36 307.319H212.95V313.669H219.36V307.319Z" fill="#A18824"/>
<path d="M219.36 300.909H212.95V307.319H219.36V300.909Z" fill="#7C6916"/>
<path d="M219.36 294.56H212.95V300.91H219.36V294.56Z" fill="#7C6916"/>
<path d="M219.36 288.149H212.95V294.559H219.36V288.149Z" fill="#7C6916"/>
<path d="M219.36 275.38H212.95V281.73H219.36V275.38Z" fill="#7C6916"/>
<path d="M219.36 262.63H212.95V268.98H219.36V262.63Z" fill="#373370"/>
<path d="M219.36 256.22H212.95V262.63H219.36V256.22Z" fill="#373370"/>
<path d="M219.36 249.869H212.95V256.219H219.36V249.869Z" fill="#373370"/>
<path d="M219.36 243.46H212.95V249.87H219.36V243.46Z" fill="#373370"/>
<path d="M219.36 230.699H212.95V237.049H219.36V230.699Z" fill="#CFAA18"/>
<path d="M219.36 224.279H212.95V230.689H219.36V224.279Z" fill="#CFAA18"/>
<path d="M219.36 217.939H212.95V224.289H219.36V217.939Z" fill="#CFAA18"/>
<path d="M219.36 211.52H212.95V217.93H219.36V211.52Z" fill="#B28A0D"/>
<path d="M219.36 205.18H212.95V211.53H219.36V205.18Z" fill="#CFAA18"/>
<path d="M219.36 198.76H212.95V205.17H219.36V198.76Z" fill="#CFAA18"/>
<path d="M219.36 192.42H212.95V198.77H219.36V192.42Z" fill="#CFAA18"/>
<path d="M219.36 186H212.95V192.41H219.36V186Z" fill="#CFAA18"/>
<path d="M219.36 179.59H212.95V186H219.36V179.59Z" fill="#B28A0D"/>
<path d="M219.36 173.239H212.95V179.589H219.36V173.239Z" fill="#CFAA18"/>
<path d="M219.36 166.829H212.95V173.239H219.36V166.829Z" fill="#CFAA18"/>
<path d="M219.36 160.479H212.95V166.829H219.36V160.479Z" fill="#FFC78F"/>
<path d="M219.36 154.069H212.95V160.479H219.36V154.069Z" fill="#FFC78F"/>
<path d="M219.36 147.72H212.95V154.07H219.36V147.72Z" fill="#E2A066"/>
<path d="M219.36 134.899H212.95V141.309H219.36V134.899Z" fill="#2C2E3A"/>
<path d="M219.36 128.55H212.95V134.9H219.36V128.55Z" fill="#101A54"/>
<path d="M219.36 122.14H212.95V128.55H219.36V122.14Z" fill="#101A54"/>
<path d="M219.36 115.789H212.95V122.139H219.36V115.789Z" fill="#101A54"/>
<path d="M212.95 307.319H206.6V313.669H212.95V307.319Z" fill="#A18824"/>
<path d="M212.95 300.909H206.6V307.319H212.95V300.909Z" fill="#A18824"/>
<path d="M212.95 294.56H206.6V300.91H212.95V294.56Z" fill="#7C6916"/>
<path d="M212.95 288.149H206.6V294.559H212.95V288.149Z" fill="#7C6916"/>
<path d="M212.95 275.38H206.6V281.73H212.95V275.38Z" fill="#7C6916"/>
<path d="M212.95 262.63H206.6V268.98H212.95V262.63Z" fill="#453D7C"/>
<path d="M212.95 256.22H206.6V262.63H212.95V256.22Z" fill="#453D7C"/>
<path d="M212.95 249.869H206.6V256.219H212.95V249.869Z" fill="#453D7C"/>
<path d="M212.95 243.46H206.6V249.87H212.95V243.46Z" fill="#373370"/>
<path d="M212.95 237.05H206.6V243.46H212.95V237.05Z" fill="#373370"/>
<path d="M212.95 224.279H206.6V230.689H212.95V224.279Z" fill="#CFAA18"/>
<path d="M212.95 217.939H206.6V224.289H212.95V217.939Z" fill="#CFAA18"/>
<path d="M212.95 211.52H206.6V217.93H212.95V211.52Z" fill="#CFAA18"/>
<path d="M212.95 205.18H206.6V211.53H212.95V205.18Z" fill="#CFAA18"/>
<path d="M212.95 198.76H206.6V205.17H212.95V198.76Z" fill="#CFAA18"/>
<path d="M212.95 192.42H206.6V198.77H212.95V192.42Z" fill="#CFAA18"/>
<path d="M212.95 186H206.6V192.41H212.95V186Z" fill="#CFAA18"/>
<path d="M212.95 179.59H206.6V186H212.95V179.59Z" fill="#B28A0D"/>
<path d="M212.95 173.239H206.6V179.589H212.95V173.239Z" fill="#CFAA18"/>
<path d="M212.95 166.829H206.6V173.239H212.95V166.829Z" fill="#CFAA18"/>
<path d="M212.95 160.479H206.6V166.829H212.95V160.479Z" fill="#FFC78F"/>
<path d="M212.95 154.069H206.6V160.479H212.95V154.069Z" fill="#FFC78F"/>
<path d="M212.95 147.72H206.6V154.07H212.95V147.72Z" fill="#E2A066"/>
<path d="M212.95 134.899H206.6V141.309H212.95V134.899Z" fill="#101A54"/>
<path d="M212.95 128.55H206.6V134.9H212.95V128.55Z" fill="#101A54"/>
<path d="M212.95 122.14H206.6V128.55H212.95V122.14Z" fill="#101A54"/>
<path d="M212.95 115.789H206.6V122.139H212.95V115.789Z" fill="#101A54"/>
<path d="M206.59 307.319H200.18V313.669H206.59V307.319Z" fill="#A18824"/>
<path d="M206.59 300.909H200.18V307.319H206.59V300.909Z" fill="#A18824"/>
<path d="M206.59 294.56H200.18V300.91H206.59V294.56Z" fill="#A18824"/>
<path d="M206.59 288.149H200.18V294.559H206.59V288.149Z" fill="#A18824"/>
<path d="M206.59 275.38H200.18V281.73H206.59V275.38Z" fill="#7C6916"/>
<path d="M206.59 262.63H200.18V268.98H206.59V262.63Z" fill="#453D7C"/>
<path d="M206.59 256.22H200.18V262.63H206.59V256.22Z" fill="#453D7C"/>
<path d="M206.59 249.869H200.18V256.219H206.59V249.869Z" fill="#453D7C"/>
<path d="M206.59 243.46H200.18V249.87H206.59V243.46Z" fill="#453D7C"/>
<path d="M206.59 237.05H200.18V243.46H206.59V237.05Z" fill="#373370"/>
<path d="M206.59 224.279H200.18V230.689H206.59V224.279Z" fill="#CFAA18"/>
<path d="M206.59 217.939H200.18V224.289H206.59V217.939Z" fill="#CFAA18"/>
<path d="M206.59 211.52H200.18V217.93H206.59V211.52Z" fill="#CFAA18"/>
<path d="M206.59 205.18H200.18V211.53H206.59V205.18Z" fill="#B28A0D"/>
<path d="M206.59 198.76H200.18V205.17H206.59V198.76Z" fill="#B28A0D"/>
<path d="M206.59 192.42H200.18V198.77H206.59V192.42Z" fill="#B28A0D"/>
<path d="M206.59 186H200.18V192.41H206.59V186Z" fill="#B28A0D"/>
<path d="M206.59 179.59H200.18V186H206.59V179.59Z" fill="#CFAA18"/>
<path d="M206.59 173.239H200.18V179.589H206.59V173.239Z" fill="#B28A0D"/>
<path d="M206.59 166.829H200.18V173.239H206.59V166.829Z" fill="#B28A0D"/>
<path d="M206.59 160.479H200.18V166.829H206.59V160.479Z" fill="#CFAA18"/>
<path d="M206.59 154.069H200.18V160.479H206.59V154.069Z" fill="#FFC78F"/>
<path d="M206.59 147.72H200.18V154.07H206.59V147.72Z" fill="#E2A066"/>
<path d="M206.59 134.899H200.18V141.309H206.59V134.899Z" fill="#2C2E3A"/>
<path d="M206.59 128.55H200.18V134.9H206.59V128.55Z" fill="#101A54"/>
<path d="M206.59 122.14H200.18V128.55H206.59V122.14Z" fill="#101A54"/>
<path d="M206.59 109.38H200.18V115.79H206.59V109.38Z" fill="black"/>
<path d="M200.18 307.319H193.83V313.669H200.18V307.319Z" fill="#A18824"/>
<path d="M200.18 300.909H193.83V307.319H200.18V300.909Z" fill="#A18824"/>
<path d="M200.18 275.38H193.83V281.73H200.18V275.38Z" fill="#A18824"/>
<path d="M200.18 230.699H193.83V237.049H200.18V230.699Z" fill="#CFAA18"/>
<path d="M200.18 224.279H193.83V230.689H200.18V224.279Z" fill="#CFAA18"/>
<path d="M200.18 217.939H193.83V224.289H200.18V217.939Z" fill="#CFAA18"/>
<path d="M200.18 211.52H193.83V217.93H200.18V211.52Z" fill="#B28A0D"/>
<path d="M200.18 205.18H193.83V211.53H200.18V205.18Z" fill="#B28A0D"/>
<path d="M200.18 198.76H193.83V205.17H200.18V198.76Z" fill="#CFAA18"/>
<path d="M200.18 192.42H193.83V198.77H200.18V192.42Z" fill="#CFAA18"/>
<path d="M200.18 186H193.83V192.41H200.18V186Z" fill="#B28A0D"/>
<path d="M200.18 179.59H193.83V186H200.18V179.59Z" fill="#B28A0D"/>
<path d="M200.18 173.239H193.83V179.589H200.18V173.239Z" fill="#CFAA18"/>
<path d="M200.18 166.829H193.83V173.239H200.18V166.829Z" fill="#CFAA18"/>
<path d="M200.18 160.479H193.83V166.829H200.18V160.479Z" fill="#CFAA18"/>
<path d="M200.18 154.069H193.83V160.479H200.18V154.069Z" fill="#CFAA18"/>
<path d="M200.18 141.31H193.83V147.72H200.18V141.31Z" fill="#2C2E3A"/>
<path d="M200.18 134.899H193.83V141.309H200.18V134.899Z" fill="#101A54"/>
<path d="M200.18 128.55H193.83V134.9H200.18V128.55Z" fill="#101A54"/>
<path d="M200.18 115.789H193.83V122.139H200.18V115.789Z" fill="#CFAA18"/>
<path d="M200.18 109.38H193.83V115.79H200.18V109.38Z" fill="#CFAA18"/>
<path d="M200.18 103.029H193.83V109.379H200.18V103.029Z" fill="black"/>
<path d="M193.83 307.319H187.42V313.669H193.83V307.319Z" fill="#A18824"/>
<path d="M193.83 300.909H187.42V307.319H193.83V300.909Z" fill="#A18824"/>
<path d="M193.83 237.05H187.42V243.46H193.83V237.05Z" fill="#CFAA18"/>
<path d="M193.83 230.699H187.42V237.049H193.83V230.699Z" fill="#CFAA18"/>
<path d="M193.83 211.52H187.42V217.93H193.83V211.52Z" fill="#CFAA18"/>
<path d="M193.83 205.18H187.42V211.53H193.83V205.18Z" fill="#CFAA18"/>
<path d="M193.83 198.76H187.42V205.17H193.83V198.76Z" fill="#CFAA18"/>
<path d="M193.83 192.42H187.42V198.77H193.83V192.42Z" fill="#CFAA18"/>
<path d="M193.83 186H187.42V192.41H193.83V186Z" fill="#CFAA18"/>
<path d="M193.83 179.59H187.42V186H193.83V179.59Z" fill="#A18824"/>
<path d="M193.83 173.239H187.42V179.589H193.83V173.239Z" fill="#CFAA18"/>
<path d="M193.83 122.14H187.42V128.55H193.83V122.14Z" fill="black"/>
<path d="M193.83 115.789H187.42V122.139H193.83V115.789Z" fill="black"/>
<path d="M193.83 109.38H187.42V115.79H193.83V109.38Z" fill="#CFAA18"/>
<path d="M193.83 103.029H187.42V109.379H193.83V103.029Z" fill="#CFAA18"/>
<path d="M193.83 96.6191H187.42V103.029H193.83V96.6191Z" fill="black"/>
<path d="M187.42 307.319H181.07V313.669H187.42V307.319Z" fill="#A18824"/>
<path d="M187.42 300.909H181.07V307.319H187.42V300.909Z" fill="#A18824"/>
<path d="M187.42 166.829H181.07V173.239H187.42V166.829Z" fill="#373370"/>
<path d="M187.42 160.479H181.07V166.829H187.42V160.479Z" fill="#373370"/>
<path d="M187.42 115.789H181.07V122.139H187.42V115.789Z" fill="black"/>
<path d="M187.42 109.38H181.07V115.79H187.42V109.38Z" fill="black"/>
<path d="M187.42 103.029H181.07V109.379H187.42V103.029Z" fill="black"/>
<path d="M187.42 96.6191H181.07V103.029H187.42V96.6191Z" fill="black"/>
<path d="M187.42 90.2695H181.07V96.6195H187.42V90.2695Z" fill="black"/>
<path d="M181.07 192.42H174.66V198.77H181.07V192.42Z" fill="#373370"/>
<path d="M181.07 186H174.66V192.41H181.07V186Z" fill="#373370"/>
<path d="M181.07 179.59H174.66V186H181.07V179.59Z" fill="#373370"/>
<path d="M181.07 173.239H174.66V179.589H181.07V173.239Z" fill="#373370"/>
<path d="M181.07 166.829H174.66V173.239H181.07V166.829Z" fill="#373370"/>
<path d="M174.66 198.76H168.31V205.17H174.66V198.76Z" fill="#373370"/>
<path d="M174.66 192.42H168.31V198.77H174.66V192.42Z" fill="#373370"/>
<path d="M174.66 186H168.31V192.41H174.66V186Z" fill="#373370"/>
<path d="M174.66 179.59H168.31V186H174.66V179.59Z" fill="#373370"/>
<path d="M174.66 173.239H168.31V179.589H174.66V173.239Z" fill="#373370"/>
<path d="M168.31 198.76H161.9V205.17H168.31V198.76Z" fill="#373370"/>
<path d="M168.31 192.42H161.9V198.77H168.31V192.42Z" fill="#373370"/>
<path d="M161.9 205.18H155.49V211.53H161.9V205.18Z" fill="#373370"/>
<path d="M161.9 198.76H155.49V205.17H161.9V198.76Z" fill="#373370"/>
<path d="M161.9 192.42H155.49V198.77H161.9V192.42Z" fill="#373370"/>
<path d="M161.9 160.479H155.49V166.829H161.9V160.479Z" fill="#5C5C7A"/>
<path d="M161.9 154.069H155.49V160.479H161.9V154.069Z" fill="#5C5C7A"/>
<path d="M161.9 147.72H155.49V154.07H161.9V147.72Z" fill="#5C5C7A"/>
<path d="M161.9 141.31H155.49V147.72H161.9V141.31Z" fill="#5C5C7A"/>
<path d="M161.9 134.899H155.49V141.309H161.9V134.899Z" fill="#5C5C7A"/>
<path d="M161.9 128.55H155.49V134.9H161.9V128.55Z" fill="#5C5C7A"/>
<path d="M155.49 205.18H149.14V211.53H155.49V205.18Z" fill="#373370"/>
<path d="M155.49 198.76H149.14V205.17H155.49V198.76Z" fill="#373370"/>
<path d="M155.49 154.069H149.14V160.479H155.49V154.069Z" fill="#727296"/>
<path d="M155.49 147.72H149.14V154.07H155.49V147.72Z" fill="#727296"/>
<path d="M155.49 141.31H149.14V147.72H155.49V141.31Z" fill="#727296"/>
<path d="M155.49 134.899H149.14V141.309H155.49V134.899Z" fill="#727296"/>
<path d="M149.14 211.52H142.73V217.93H149.14V211.52Z" fill="#242D63"/>
<path d="M149.14 205.18H142.73V211.53H149.14V205.18Z" fill="#242D63"/>
<path d="M149.14 147.72H142.73V154.07H149.14V147.72Z" fill="#727296"/>
<path d="M149.14 141.31H142.73V147.72H149.14V141.31Z" fill="#727296"/>
<path d="M142.73 268.979H136.38V275.389H142.73V268.979Z" fill="#5C5C7A"/>
<path d="M142.73 262.63H136.38V268.98H142.73V262.63Z" fill="#5C5C7A"/>
<path d="M142.73 217.939H136.38V224.289H142.73V217.939Z" fill="#E2A066"/>
<path d="M142.73 211.52H136.38V217.93H142.73V211.52Z" fill="#E2A066"/>
<path d="M142.73 205.18H136.38V211.53H142.73V205.18Z" fill="#E2A066"/>
<path d="M142.73 198.76H136.38V205.17H142.73V198.76Z" fill="#E2A066"/>
<path d="M142.73 115.789H136.38V122.139H142.73V115.789Z" fill="#5C5C7A"/>
<path d="M136.38 275.38H129.97V281.73H136.38V275.38Z" fill="#727296"/>
<path d="M136.38 268.979H129.97V275.389H136.38V268.979Z" fill="#727296"/>
<path d="M136.38 262.63H129.97V268.98H136.38V262.63Z" fill="#5C5C7A"/>
<path d="M136.38 256.22H129.97V262.63H136.38V256.22Z" fill="#773725"/>
<path d="M136.38 249.869H129.97V256.219H136.38V249.869Z" fill="#773725"/>
<path d="M136.38 243.46H129.97V249.87H136.38V243.46Z" fill="#773725"/>
<path d="M136.38 237.05H129.97V243.46H136.38V237.05Z" fill="#773725"/>
<path d="M136.38 230.699H129.97V237.049H136.38V230.699Z" fill="#773725"/>
<path d="M136.38 217.939H129.97V224.289H136.38V217.939Z" fill="#E2A066"/>
<path d="M136.38 211.52H129.97V217.93H136.38V211.52Z" fill="#E2A066"/>
<path d="M136.38 205.18H129.97V211.53H136.38V205.18Z" fill="#E2A066"/>
<path d="M136.38 198.76H129.97V205.17H136.38V198.76Z" fill="#E2A066"/>
<path d="M136.38 192.42H129.97V198.77H136.38V192.42Z" fill="#E2A066"/>
<path d="M136.38 179.59H129.97V186H136.38V179.59Z" fill="#773725"/>
<path d="M136.38 173.239H129.97V179.589H136.38V173.239Z" fill="#773725"/>
<path d="M136.38 166.829H129.97V173.239H136.38V166.829Z" fill="#773725"/>
<path d="M136.38 160.479H129.97V166.829H136.38V160.479Z" fill="#773725"/>
<path d="M136.38 154.069H129.97V160.479H136.38V154.069Z" fill="#773725"/>
<path d="M136.38 147.72H129.97V154.07H136.38V147.72Z" fill="#773725"/>
<path d="M136.38 141.31H129.97V147.72H136.38V141.31Z" fill="#773725"/>
<path d="M136.38 134.899H129.97V141.309H136.38V134.899Z" fill="#773725"/>
<path d="M136.38 128.55H129.97V134.9H136.38V128.55Z" fill="#773725"/>
<path d="M136.38 122.14H129.97V128.55H136.38V122.14Z" fill="#773725"/>
<path d="M136.38 115.789H129.97V122.139H136.38V115.789Z" fill="#5C5C7A"/>
<path d="M129.97 268.979H123.62V275.389H129.97V268.979Z" fill="#727296"/>
<path d="M129.97 262.63H123.62V268.98H129.97V262.63Z" fill="#727296"/>
<path d="M129.97 217.939H123.62V224.289H129.97V217.939Z" fill="#E2A066"/>
<path d="M129.97 211.52H123.62V217.93H129.97V211.52Z" fill="#E2A066"/>
<path d="M129.97 205.18H123.62V211.53H129.97V205.18Z" fill="#E2A066"/>
<path d="M129.97 198.76H123.62V205.17H129.97V198.76Z" fill="#E2A066"/>
<path d="M129.97 192.42H123.62V198.77H129.97V192.42Z" fill="#E2A066"/>
<path d="M129.97 115.789H123.62V122.139H129.97V115.789Z" fill="#727296"/>
<path d="M123.62 147.72H117.21V154.07H123.62V147.72Z" fill="#5C5C7A"/>
<path d="M123.62 141.31H117.21V147.72H123.62V141.31Z" fill="#5C5C7A"/>
<path d="M117.21 147.72H110.8V154.07H117.21V147.72Z" fill="#5C5C7A"/>
<path d="M117.21 141.31H110.8V147.72H117.21V141.31Z" fill="#5C5C7A"/>
<path d="M110.8 154.069H104.45V160.479H110.8V154.069Z" fill="#5C5C7A"/>
<path d="M110.8 147.72H104.45V154.07H110.8V147.72Z" fill="#5C5C7A"/>
<path d="M110.8 141.31H104.45V147.72H110.8V141.31Z" fill="#5C5C7A"/>
<path d="M110.8 134.899H104.45V141.309H110.8V134.899Z" fill="#5C5C7A"/>
<path d="M104.45 160.479H98.04V166.829H104.45V160.479Z" fill="#5C5C7A"/>
<path d="M104.45 154.069H98.04V160.479H104.45V154.069Z" fill="#5C5C7A"/>
<path d="M104.45 147.72H98.04V154.07H104.45V147.72Z" fill="#5C5C7A"/>
<path d="M104.45 141.31H98.04V147.72H104.45V141.31Z" fill="#5C5C7A"/>
<path d="M104.45 134.899H98.04V141.309H104.45V134.899Z" fill="#5C5C7A"/>
<path d="M104.45 128.55H98.04V134.9H104.45V128.55Z" fill="#5C5C7A"/>
<path d="M98.0401 179.59H91.6901V186H98.0401V179.59Z" fill="black"/>
<path d="M98.0401 173.239H91.6901V179.589H98.0401V173.239Z" fill="#727296"/>
<path d="M98.0401 166.829H91.6901V173.239H98.0401V166.829Z" fill="#727296"/>
<path d="M98.0401 160.479H91.6901V166.829H98.0401V160.479Z" fill="#727296"/>
<path d="M98.0401 154.069H91.6901V160.479H98.0401V154.069Z" fill="#5C5C7A"/>
<path d="M98.0401 147.72H91.6901V154.07H98.0401V147.72Z" fill="#5C5C7A"/>
<path d="M98.0401 141.31H91.6901V147.72H98.0401V141.31Z" fill="#5C5C7A"/>
<path d="M98.0401 134.899H91.6901V141.309H98.0401V134.899Z" fill="#5C5C7A"/>
<path d="M98.0401 128.55H91.6901V134.9H98.0401V128.55Z" fill="#727296"/>
<path d="M98.0401 122.14H91.6901V128.55H98.0401V122.14Z" fill="#727296"/>
<path d="M98.0401 115.789H91.6901V122.139H98.0401V115.789Z" fill="#727296"/>
<path d="M98.0401 109.38H91.6901V115.79H98.0401V109.38Z" fill="black"/>
<path d="M91.69 173.239H85.28V179.589H91.69V173.239Z" fill="black"/>
<path d="M91.69 166.829H85.28V173.239H91.69V166.829Z" fill="#727296"/>
<path d="M91.69 160.479H85.28V166.829H91.69V160.479Z" fill="#727296"/>
<path d="M91.69 154.069H85.28V160.479H91.69V154.069Z" fill="#727296"/>
<path d="M91.69 147.72H85.28V154.07H91.69V147.72Z" fill="#727296"/>
<path d="M91.69 141.31H85.28V147.72H91.69V141.31Z" fill="#727296"/>
<path d="M91.69 134.899H85.28V141.309H91.69V134.899Z" fill="#727296"/>
<path d="M91.69 128.55H85.28V134.9H91.69V128.55Z" fill="#727296"/>
<path d="M91.69 122.14H85.28V128.55H91.69V122.14Z" fill="#727296"/>
<path d="M91.69 115.789H85.28V122.139H91.69V115.789Z" fill="black"/>
<path d="M85.2801 166.829H78.9301V173.239H85.2801V166.829Z" fill="black"/>
<path d="M85.2801 160.479H78.9301V166.829H85.2801V160.479Z" fill="#727296"/>
<path d="M85.2801 154.069H78.9301V160.479H85.2801V154.069Z" fill="#727296"/>
<path d="M85.2801 147.72H78.9301V154.07H85.2801V147.72Z" fill="#727296"/>
<path d="M85.2801 141.31H78.9301V147.72H85.2801V141.31Z" fill="#727296"/>
<path d="M85.2801 134.899H78.9301V141.309H85.2801V134.899Z" fill="#727296"/>
<path d="M85.2801 128.55H78.9301V134.9H85.2801V128.55Z" fill="#727296"/>
<path d="M85.2801 122.14H78.9301V128.55H85.2801V122.14Z" fill="black"/>
<path d="M78.93 160.479H72.52V166.829H78.93V160.479Z" fill="black"/>
<path d="M78.93 154.069H72.52V160.479H78.93V154.069Z" fill="black"/>
<path d="M78.93 147.72H72.52V154.07H78.93V147.72Z" fill="black"/>
<path d="M78.93 141.31H72.52V147.72H78.93V141.31Z" fill="black"/>
<path d="M78.93 134.899H72.52V141.309H78.93V134.899Z" fill="black"/>
<path d="M78.93 128.55H72.52V134.9H78.93V128.55Z" fill="black"/>
</svg>
