<svg width="400" height="400" viewBox="0 0 400 400" fill="none" xmlns="http://www.w3.org/2000/svg">
<path d="M200 385.78C302.603 385.78 385.78 302.603 385.78 200C385.78 97.3963 302.603 14.2197 200 14.2197C97.3965 14.2197 14.22 97.3963 14.22 200C14.22 302.603 97.3965 385.78 200 385.78Z" fill="black"/>
<path d="M200 392.78C93.7 392.78 7.21997 306.3 7.21997 200C7.21997 93.6997 93.7 7.21973 200 7.21973C306.3 7.21973 392.78 93.6997 392.78 200C392.78 306.3 306.3 392.78 200 392.78ZM200 21.2197C101.42 21.2197 21.22 101.42 21.22 200C21.22 298.58 101.42 378.78 200 378.78C298.58 378.78 378.78 298.58 378.78 200C378.78 101.42 298.58 21.2197 200 21.2197Z" fill="#C64B1A"/>
<path d="M210.89 293.97H205.11V299.7H210.89V293.97Z" fill="#6B1F01"/>
<path d="M210.89 299.699H205.11V305.479H210.89V299.699Z" fill="#6B1F01"/>
<path d="M210.89 270.97H205.11V276.69H210.89V270.97Z" fill="#6B1F01"/>
<path d="M210.89 265.189H205.11V270.969H210.89V265.189Z" fill="#6B1F01"/>
<path d="M210.89 276.689H205.11V282.469H210.89V276.689Z" fill="#6B1F01"/>
<path d="M210.89 282.47H205.11V288.19H210.89V282.47Z" fill="#6B1F01"/>
<path d="M205.11 288.199H199.39V293.979H205.11V288.199Z" fill="#7C2A05"/>
<path d="M199.39 299.699H193.61V305.479H199.39V299.699Z" fill="#7C2A05"/>
<path d="M205.11 276.689H199.39V282.469H205.11V276.689Z" fill="#6B1F01"/>
<path d="M199.39 293.97H193.61V299.7H199.39V293.97Z" fill="#7C2A05"/>
<path d="M199.39 276.689H193.61V282.469H199.39V276.689Z" fill="#7C2A05"/>
<path d="M205.11 270.97H199.39V276.69H205.11V270.97Z" fill="#7C2A05"/>
<path d="M205.11 282.47H199.39V288.19H205.11V282.47Z" fill="#7C2A05"/>
<path d="M205.11 265.189H199.39V270.969H205.11V265.189Z" fill="#6B1F01"/>
<path d="M199.39 288.199H193.61V293.979H199.39V288.199Z" fill="#7C2A05"/>
<path d="M199.39 282.47H193.61V288.19H199.39V282.47Z" fill="#7C2A05"/>
<path d="M199.39 265.189H193.61V270.969H199.39V265.189Z" fill="#7C2A05"/>
<path d="M199.39 270.97H193.61V276.69H199.39V270.97Z" fill="#7C2A05"/>
<path d="M176.32 299.699H170.6V305.479H176.32V299.699Z" fill="#6B1F01"/>
<path d="M182.1 259.409H176.32V265.189H182.1V259.409Z" fill="#7C2A05"/>
<path d="M182.1 276.689H176.32V282.469H182.1V276.689Z" fill="#7C2A05"/>
<path d="M182.1 265.189H176.32V270.969H182.1V265.189Z" fill="#7C2A05"/>
<path d="M182.1 270.97H176.32V276.69H182.1V270.97Z" fill="#7C2A05"/>
<path d="M182.1 282.47H176.32V288.19H182.1V282.47Z" fill="#6B1F01"/>
<path d="M176.32 265.189H170.6V270.969H176.32V265.189Z" fill="#7C2A05"/>
<path d="M176.32 276.689H170.6V282.469H176.32V276.689Z" fill="#6B1F01"/>
<path d="M176.32 282.47H170.6V288.19H176.32V282.47Z" fill="#6B1F01"/>
<path d="M176.32 270.97H170.6V276.69H176.32V270.97Z" fill="#7C2A05"/>
<path d="M176.32 259.409H170.6V265.189H176.32V259.409Z" fill="#7C2A05"/>
<path d="M187.88 299.699H182.1V305.479H187.88V299.699Z" fill="#6B1F01"/>
<path d="M182.1 293.97H176.32V299.7H182.1V293.97Z" fill="#6B1F01"/>
<path d="M187.88 293.97H182.1V299.7H187.88V293.97Z" fill="#7C2A05"/>
<path d="M187.88 276.689H182.1V282.469H187.88V276.689Z" fill="#7C2A05"/>
<path d="M187.88 288.199H182.1V293.979H187.88V288.199Z" fill="#7C2A05"/>
<path d="M187.88 282.47H182.1V288.19H187.88V282.47Z" fill="#7C2A05"/>
<path d="M187.88 265.189H182.1V270.969H187.88V265.189Z" fill="#7C2A05"/>
<path d="M187.88 270.97H182.1V276.69H187.88V270.97Z" fill="#7C2A05"/>
<path d="M182.1 288.199H176.32V293.979H182.1V288.199Z" fill="#6B1F01"/>
<path d="M268.41 305.479H262.68V311.199H268.41V305.479Z" fill="black"/>
<path d="M268.41 299.699H262.68V305.479H268.41V299.699Z" fill="black"/>
<path d="M268.41 293.97H262.68V299.7H268.41V293.97Z" fill="black"/>
<path d="M268.41 288.199H262.68V293.979H268.41V288.199Z" fill="black"/>
<path d="M268.41 282.47H262.68V288.19H268.41V282.47Z" fill="black"/>
<path d="M268.41 276.689H262.68V282.469H268.41V276.689Z" fill="black"/>
<path d="M268.41 270.97H262.68V276.69H268.41V270.97Z" fill="black"/>
<path d="M268.41 265.189H262.68V270.969H268.41V265.189Z" fill="black"/>
<path d="M268.41 259.409H262.68V265.189H268.41V259.409Z" fill="black"/>
<path d="M268.41 253.68H262.68V259.41H268.41V253.68Z" fill="black"/>
<path d="M268.41 247.909H262.68V253.689H268.41V247.909Z" fill="black"/>
<path d="M268.41 242.18H262.68V247.9H268.41V242.18Z" fill="black"/>
<path d="M268.41 236.399H262.68V242.179H268.41V236.399Z" fill="black"/>
<path d="M268.41 230.68H262.68V236.4H268.41V230.68Z" fill="black"/>
<path d="M268.41 224.899H262.68V230.679H268.41V224.899Z" fill="black"/>
<path d="M268.41 219.119H262.68V224.899H268.41V219.119Z" fill="black"/>
<path d="M268.41 213.39H262.68V219.11H268.41V213.39Z" fill="black"/>
<path d="M268.41 207.609H262.68V213.389H268.41V207.609Z" fill="black"/>
<path d="M268.41 201.89H262.68V207.61H268.41V201.89Z" fill="black"/>
<path d="M268.41 196.109H262.68V201.889H268.41V196.109Z" fill="black"/>
<path d="M268.41 190.39H262.68V196.11H268.41V190.39Z" fill="black"/>
<path d="M268.41 184.609H262.68V190.389H268.41V184.609Z" fill="black"/>
<path d="M268.41 178.88H262.68V184.6H268.41V178.88Z" fill="black"/>
<path d="M262.69 305.479H256.91V311.199H262.69V305.479Z" fill="black"/>
<path d="M262.69 299.699H256.91V305.479H262.69V299.699Z" fill="#DB4B03"/>
<path d="M262.69 293.97H256.91V299.7H262.69V293.97Z" fill="#DB4B03"/>
<path d="M262.69 288.199H256.91V293.979H262.69V288.199Z" fill="#DB4B03"/>
<path d="M262.69 282.47H256.91V288.19H262.69V282.47Z" fill="#DB4B03"/>
<path d="M262.69 276.689H256.91V282.469H262.69V276.689Z" fill="#DB4B03"/>
<path d="M262.69 270.97H256.91V276.69H262.69V270.97Z" fill="#DB4B03"/>
<path d="M262.69 265.189H256.91V270.969H262.69V265.189Z" fill="#DB4B03"/>
<path d="M262.69 259.409H256.91V265.189H262.69V259.409Z" fill="#DB4B03"/>
<path d="M262.69 253.68H256.91V259.41H262.69V253.68Z" fill="#DB4B03"/>
<path d="M262.69 247.909H256.91V253.689H262.69V247.909Z" fill="#FF5A00"/>
<path d="M262.69 242.18H256.91V247.9H262.69V242.18Z" fill="#FF5A00"/>
<path d="M262.69 236.399H256.91V242.179H262.69V236.399Z" fill="#FF5A00"/>
<path d="M262.69 230.68H256.91V236.4H262.69V230.68Z" fill="#FF5A00"/>
<path d="M262.69 224.899H256.91V230.679H262.69V224.899Z" fill="#FF5A00"/>
<path d="M262.69 219.119H256.91V224.899H262.69V219.119Z" fill="#FF5A00"/>
<path d="M262.69 213.39H256.91V219.11H262.69V213.39Z" fill="#FF5A00"/>
<path d="M262.69 207.609H256.91V213.389H262.69V207.609Z" fill="#FF5A00"/>
<path d="M262.69 201.89H256.91V207.61H262.69V201.89Z" fill="#FF5A00"/>
<path d="M262.69 196.109H256.91V201.889H262.69V196.109Z" fill="#FF5A00"/>
<path d="M262.69 190.39H256.91V196.11H262.69V190.39Z" fill="#DB4B03"/>
<path d="M262.69 184.609H256.91V190.389H262.69V184.609Z" fill="#DB4B03"/>
<path d="M262.69 178.88H256.91V184.6H262.69V178.88Z" fill="#DB4B03"/>
<path d="M262.69 173.1H256.91V178.88H262.69V173.1Z" fill="black"/>
<path d="M262.69 167.319H256.91V173.099H262.69V167.319Z" fill="black"/>
<path d="M256.9 299.699H251.18V305.479H256.9V299.699Z" fill="black"/>
<path d="M256.9 293.97H251.18V299.7H256.9V293.97Z" fill="#DB4B03"/>
<path d="M256.9 288.199H251.18V293.979H256.9V288.199Z" fill="#DB4B03"/>
<path d="M256.9 282.47H251.18V288.19H256.9V282.47Z" fill="#DB4B03"/>
<path d="M256.9 276.689H251.18V282.469H256.9V276.689Z" fill="#DB4B03"/>
<path d="M256.9 270.97H251.18V276.69H256.9V270.97Z" fill="#DB4B03"/>
<path d="M256.9 265.189H251.18V270.969H256.9V265.189Z" fill="#FF5A00"/>
<path d="M256.9 259.409H251.18V265.189H256.9V259.409Z" fill="#FF5A00"/>
<path d="M256.9 253.68H251.18V259.41H256.9V253.68Z" fill="#FF5A00"/>
<path d="M256.9 247.909H251.18V253.689H256.9V247.909Z" fill="#FF5A00"/>
<path d="M256.9 242.18H251.18V247.9H256.9V242.18Z" fill="#FF5A00"/>
<path d="M256.9 236.399H251.18V242.179H256.9V236.399Z" fill="#FF5A00"/>
<path d="M256.9 230.68H251.18V236.4H256.9V230.68Z" fill="#FF5A00"/>
<path d="M256.9 224.899H251.18V230.679H256.9V224.899Z" fill="#FF5A00"/>
<path d="M256.9 219.119H251.18V224.899H256.9V219.119Z" fill="#FF5A00"/>
<path d="M256.9 213.39H251.18V219.11H256.9V213.39Z" fill="#FF5A00"/>
<path d="M256.9 207.609H251.18V213.389H256.9V207.609Z" fill="#FF5A00"/>
<path d="M256.9 201.89H251.18V207.61H256.9V201.89Z" fill="#FF5A00"/>
<path d="M256.9 196.109H251.18V201.889H256.9V196.109Z" fill="#FF5A00"/>
<path d="M256.9 190.39H251.18V196.11H256.9V190.39Z" fill="#FF5A00"/>
<path d="M256.9 184.609H251.18V190.389H256.9V184.609Z" fill="#FF5A00"/>
<path d="M256.9 178.88H251.18V184.6H256.9V178.88Z" fill="#DB4B03"/>
<path d="M256.9 173.1H251.18V178.88H256.9V173.1Z" fill="#DB4B03"/>
<path d="M256.9 167.319H251.18V173.099H256.9V167.319Z" fill="black"/>
<path d="M256.9 161.6H251.18V167.32H256.9V161.6Z" fill="black"/>
<path d="M251.18 305.479H245.4V311.199H251.18V305.479Z" fill="black"/>
<path d="M251.18 299.699H245.4V305.479H251.18V299.699Z" fill="#DB4B03"/>
<path d="M251.18 293.97H245.4V299.7H251.18V293.97Z" fill="#DB4B03"/>
<path d="M251.18 288.199H245.4V293.979H251.18V288.199Z" fill="#DB4B03"/>
<path d="M251.18 282.47H245.4V288.19H251.18V282.47Z" fill="#DB4B03"/>
<path d="M251.18 276.689H245.4V282.469H251.18V276.689Z" fill="#DB4B03"/>
<path d="M251.18 270.97H245.4V276.69H251.18V270.97Z" fill="#FF5A00"/>
<path d="M251.18 265.189H245.4V270.969H251.18V265.189Z" fill="#FF5A00"/>
<path d="M251.18 259.409H245.4V265.189H251.18V259.409Z" fill="#FF5A00"/>
<path d="M251.18 253.68H245.4V259.41H251.18V253.68Z" fill="#FF5A00"/>
<path d="M251.18 247.909H245.4V253.689H251.18V247.909Z" fill="#FF5A00"/>
<path d="M251.18 242.18H245.4V247.9H251.18V242.18Z" fill="#FF5A00"/>
<path d="M251.18 236.399H245.4V242.179H251.18V236.399Z" fill="#FF5A00"/>
<path d="M251.18 230.68H245.4V236.4H251.18V230.68Z" fill="#FF5A00"/>
<path d="M251.18 224.899H245.4V230.679H251.18V224.899Z" fill="#FF5A00"/>
<path d="M251.18 219.119H245.4V224.899H251.18V219.119Z" fill="#FF5A00"/>
<path d="M251.18 213.39H245.4V219.11H251.18V213.39Z" fill="#FF5A00"/>
<path d="M251.18 207.609H245.4V213.389H251.18V207.609Z" fill="#FF5A00"/>
<path d="M251.18 201.89H245.4V207.61H251.18V201.89Z" fill="#FF5A00"/>
<path d="M251.18 196.109H245.4V201.889H251.18V196.109Z" fill="#FF5A00"/>
<path d="M251.18 190.39H245.4V196.11H251.18V190.39Z" fill="#FF5A00"/>
<path d="M251.18 184.609H245.4V190.389H251.18V184.609Z" fill="#FF5A00"/>
<path d="M251.18 178.88H245.4V184.6H251.18V178.88Z" fill="#FF5A00"/>
<path d="M251.18 173.1H245.4V178.88H251.18V173.1Z" fill="#DB4B03"/>
<path d="M251.18 167.319H245.4V173.099H251.18V167.319Z" fill="#DB4B03"/>
<path d="M251.18 161.6H245.4V167.32H251.18V161.6Z" fill="black"/>
<path d="M251.18 155.819H245.4V161.599H251.18V155.819Z" fill="black"/>
<path d="M251.18 150.1H245.4V155.82H251.18V150.1Z" fill="black"/>
<path d="M251.18 144.319H245.4V150.099H251.18V144.319Z" fill="black"/>
<path d="M245.4 305.479H239.68V311.199H245.4V305.479Z" fill="black"/>
<path d="M245.4 299.699H239.68V305.479H245.4V299.699Z" fill="#DB4B03"/>
<path d="M245.4 293.97H239.68V299.7H245.4V293.97Z" fill="#DB4B03"/>
<path d="M245.4 288.199H239.68V293.979H245.4V288.199Z" fill="#DB4B03"/>
<path d="M245.4 282.47H239.68V288.19H245.4V282.47Z" fill="#DB4B03"/>
<path d="M245.4 276.689H239.68V282.469H245.4V276.689Z" fill="#FF5A00"/>
<path d="M245.4 270.97H239.68V276.69H245.4V270.97Z" fill="#FF5A00"/>
<path d="M245.4 265.189H239.68V270.969H245.4V265.189Z" fill="#FF5A00"/>
<path d="M245.4 259.409H239.68V265.189H245.4V259.409Z" fill="#FF5A00"/>
<path d="M245.4 253.68H239.68V259.41H245.4V253.68Z" fill="#FF5A00"/>
<path d="M245.4 247.909H239.68V253.689H245.4V247.909Z" fill="#FF5A00"/>
<path d="M245.4 242.18H239.68V247.9H245.4V242.18Z" fill="#FF5A00"/>
<path d="M245.4 236.399H239.68V242.179H245.4V236.399Z" fill="#FF5A00"/>
<path d="M245.4 230.68H239.68V236.4H245.4V230.68Z" fill="#FF5A00"/>
<path d="M245.4 224.899H239.68V230.679H245.4V224.899Z" fill="#FF5A00"/>
<path d="M245.4 219.119H239.68V224.899H245.4V219.119Z" fill="#FF5A00"/>
<path d="M245.4 213.39H239.68V219.11H245.4V213.39Z" fill="#FF5A00"/>
<path d="M245.4 207.609H239.68V213.389H245.4V207.609Z" fill="#FF5A00"/>
<path d="M245.4 201.89H239.68V207.61H245.4V201.89Z" fill="#FF5A00"/>
<path d="M245.4 196.109H239.68V201.889H245.4V196.109Z" fill="#FF5A00"/>
<path d="M245.4 190.39H239.68V196.11H245.4V190.39Z" fill="#FF5A00"/>
<path d="M245.4 184.609H239.68V190.389H245.4V184.609Z" fill="#FF5A00"/>
<path d="M245.4 178.88H239.68V184.6H245.4V178.88Z" fill="#FF5A00"/>
<path d="M245.4 173.1H239.68V178.88H245.4V173.1Z" fill="#FF5A00"/>
<path d="M245.4 167.319H239.68V173.099H245.4V167.319Z" fill="#DB4B03"/>
<path d="M245.4 161.6H239.68V167.32H245.4V161.6Z" fill="#DB4B03"/>
<path d="M245.4 155.819H239.68V161.599H245.4V155.819Z" fill="black"/>
<path d="M245.4 150.1H239.68V155.82H245.4V150.1Z" fill="#DB4B03"/>
<path d="M245.4 144.319H239.68V150.099H245.4V144.319Z" fill="#DB4B03"/>
<path d="M245.4 138.59H239.68V144.31H245.4V138.59Z" fill="black"/>
<path d="M239.68 305.479H233.9V311.199H239.68V305.479Z" fill="black"/>
<path d="M239.68 299.699H233.9V305.479H239.68V299.699Z" fill="#DB4B03"/>
<path d="M239.68 293.97H233.9V299.7H239.68V293.97Z" fill="#DB4B03"/>
<path d="M239.68 288.199H233.9V293.979H239.68V288.199Z" fill="#DB4B03"/>
<path d="M239.68 282.47H233.9V288.19H239.68V282.47Z" fill="#FF5A00"/>
<path d="M239.68 276.689H233.9V282.469H239.68V276.689Z" fill="#FF5A00"/>
<path d="M239.68 270.97H233.9V276.69H239.68V270.97Z" fill="#FF5A00"/>
<path d="M239.68 265.189H233.9V270.969H239.68V265.189Z" fill="#FF5A00"/>
<path d="M239.68 259.409H233.9V265.189H239.68V259.409Z" fill="#FF5A00"/>
<path d="M239.68 253.68H233.9V259.41H239.68V253.68Z" fill="#FF5A00"/>
<path d="M239.68 247.909H233.9V253.689H239.68V247.909Z" fill="#FF5A00"/>
<path d="M239.68 242.18H233.9V247.9H239.68V242.18Z" fill="#FF5A00"/>
<path d="M239.68 236.399H233.9V242.179H239.68V236.399Z" fill="#FF5A00"/>
<path d="M239.68 230.68H233.9V236.4H239.68V230.68Z" fill="#FF5A00"/>
<path d="M239.68 224.899H233.9V230.679H239.68V224.899Z" fill="#FF5A00"/>
<path d="M239.68 219.119H233.9V224.899H239.68V219.119Z" fill="#FF5A00"/>
<path d="M239.68 213.39H233.9V219.11H239.68V213.39Z" fill="#FF5A00"/>
<path d="M239.68 207.609H233.9V213.389H239.68V207.609Z" fill="#FF5A00"/>
<path d="M239.68 201.89H233.9V207.61H239.68V201.89Z" fill="#FF5A00"/>
<path d="M239.68 196.109H233.9V201.889H239.68V196.109Z" fill="#FF5A00"/>
<path d="M239.68 190.39H233.9V196.11H239.68V190.39Z" fill="#FF5A00"/>
<path d="M239.68 184.609H233.9V190.389H239.68V184.609Z" fill="#FF5A00"/>
<path d="M239.68 178.88H233.9V184.6H239.68V178.88Z" fill="#FF5A00"/>
<path d="M239.68 173.1H233.9V178.88H239.68V173.1Z" fill="#FF5A00"/>
<path d="M239.68 167.319H233.9V173.099H239.68V167.319Z" fill="#DB4B03"/>
<path d="M239.68 161.6H233.9V167.32H239.68V161.6Z" fill="black"/>
<path d="M239.68 155.819H233.9V161.599H239.68V155.819Z" fill="#DB4B03"/>
<path d="M239.68 150.1H233.9V155.82H239.68V150.1Z" fill="#FF5A00"/>
<path d="M239.68 144.319H233.9V150.099H239.68V144.319Z" fill="#DB4B03"/>
<path d="M239.68 138.59H233.9V144.31H239.68V138.59Z" fill="#DB4B03"/>
<path d="M239.68 132.81H233.9V138.59H239.68V132.81Z" fill="black"/>
<path d="M239.68 127.029H233.9V132.809H239.68V127.029Z" fill="black"/>
<path d="M233.9 305.479H228.12V311.199H233.9V305.479Z" fill="black"/>
<path d="M233.9 299.699H228.12V305.479H233.9V299.699Z" fill="#DB4B03"/>
<path d="M233.9 293.97H228.12V299.7H233.9V293.97Z" fill="#DB4B03"/>
<path d="M233.9 288.199H228.12V293.979H233.9V288.199Z" fill="#FF5A00"/>
<path d="M233.9 282.47H228.12V288.19H233.9V282.47Z" fill="#FF5A00"/>
<path d="M233.9 276.689H228.12V282.469H233.9V276.689Z" fill="#FF5A00"/>
<path d="M233.9 270.97H228.12V276.69H233.9V270.97Z" fill="#FF5A00"/>
<path d="M233.9 265.189H228.12V270.969H233.9V265.189Z" fill="#FF5A00"/>
<path d="M233.9 259.409H228.12V265.189H233.9V259.409Z" fill="#FF5A00"/>
<path d="M233.9 253.68H228.12V259.41H233.9V253.68Z" fill="#FF5A00"/>
<path d="M233.9 247.909H228.12V253.689H233.9V247.909Z" fill="#FF5A00"/>
<path d="M233.9 242.18H228.12V247.9H233.9V242.18Z" fill="#FF5A00"/>
<path d="M233.9 236.399H228.12V242.179H233.9V236.399Z" fill="#FF5A00"/>
<path d="M233.9 230.68H228.12V236.4H233.9V230.68Z" fill="#FF5A00"/>
<path d="M233.9 224.899H228.12V230.679H233.9V224.899Z" fill="#FF5A00"/>
<path d="M233.9 219.119H228.12V224.899H233.9V219.119Z" fill="#FF5A00"/>
<path d="M233.9 213.39H228.12V219.11H233.9V213.39Z" fill="#FF5A00"/>
<path d="M233.9 207.609H228.12V213.389H233.9V207.609Z" fill="#FF5A00"/>
<path d="M233.9 201.89H228.12V207.61H233.9V201.89Z" fill="#FF5A00"/>
<path d="M233.9 196.109H228.12V201.889H233.9V196.109Z" fill="#FF5A00"/>
<path d="M233.9 190.39H228.12V196.11H233.9V190.39Z" fill="#FF5A00"/>
<path d="M233.9 184.609H228.12V190.389H233.9V184.609Z" fill="#FF5A00"/>
<path d="M233.9 178.88H228.12V184.6H233.9V178.88Z" fill="#DB4B03"/>
<path d="M233.9 173.1H228.12V178.88H233.9V173.1Z" fill="#DB4B03"/>
<path d="M233.9 167.319H228.12V173.099H233.9V167.319Z" fill="black"/>
<path d="M233.9 161.6H228.12V167.32H233.9V161.6Z" fill="#DB4B03"/>
<path d="M233.9 155.819H228.12V161.599H233.9V155.819Z" fill="#FF5A00"/>
<path d="M233.9 150.1H228.12V155.82H233.9V150.1Z" fill="#FF5A00"/>
<path d="M233.9 144.319H228.12V150.099H233.9V144.319Z" fill="#FF5A00"/>
<path d="M233.9 138.59H228.12V144.31H233.9V138.59Z" fill="#DB4B03"/>
<path d="M233.9 132.81H228.12V138.59H233.9V132.81Z" fill="#DB4B03"/>
<path d="M233.9 127.029H228.12V132.809H233.9V127.029Z" fill="#DB4B03"/>
<path d="M233.9 121.31H228.12V127.03H233.9V121.31Z" fill="black"/>
<path d="M233.9 115.529H228.12V121.309H233.9V115.529Z" fill="black"/>
<path d="M228.11 305.479H222.39V311.199H228.11V305.479Z" fill="black"/>
<path d="M228.11 299.699H222.39V305.479H228.11V299.699Z" fill="#DB4B03"/>
<path d="M228.11 293.97H222.39V299.7H228.11V293.97Z" fill="#DB4B03"/>
<path d="M228.11 288.199H222.39V293.979H228.11V288.199Z" fill="#FF5A00"/>
<path d="M228.11 282.47H222.39V288.19H228.11V282.47Z" fill="#FF5A00"/>
<path d="M228.11 276.689H222.39V282.469H228.11V276.689Z" fill="#FF5A00"/>
<path d="M228.11 270.97H222.39V276.69H228.11V270.97Z" fill="#FF5A00"/>
<path d="M228.11 265.189H222.39V270.969H228.11V265.189Z" fill="#FF5A00"/>
<path d="M228.11 259.409H222.39V265.189H228.11V259.409Z" fill="#FF5A00"/>
<path d="M228.11 253.68H222.39V259.41H228.11V253.68Z" fill="#FF5A00"/>
<path d="M228.11 247.909H222.39V253.689H228.11V247.909Z" fill="#FF5A00"/>
<path d="M228.11 242.18H222.39V247.9H228.11V242.18Z" fill="#FF5A00"/>
<path d="M228.11 236.399H222.39V242.179H228.11V236.399Z" fill="#FF5A00"/>
<path d="M228.11 230.68H222.39V236.4H228.11V230.68Z" fill="#FF5A00"/>
<path d="M228.11 224.899H222.39V230.679H228.11V224.899Z" fill="#FF5A00"/>
<path d="M228.11 219.119H222.39V224.899H228.11V219.119Z" fill="#FF5A00"/>
<path d="M228.11 213.39H222.39V219.11H228.11V213.39Z" fill="#FF5A00"/>
<path d="M228.11 207.609H222.39V213.389H228.11V207.609Z" fill="#FF5A00"/>
<path d="M228.11 201.89H222.39V207.61H228.11V201.89Z" fill="#FF5A00"/>
<path d="M228.11 196.109H222.39V201.889H228.11V196.109Z" fill="#FF5A00"/>
<path d="M228.11 190.39H222.39V196.11H228.11V190.39Z" fill="#FF5A00"/>
<path d="M228.11 184.609H222.39V190.389H228.11V184.609Z" fill="#DB4B03"/>
<path d="M228.11 178.88H222.39V184.6H228.11V178.88Z" fill="black"/>
<path d="M228.11 173.1H222.39V178.88H228.11V173.1Z" fill="black"/>
<path d="M228.11 167.319H222.39V173.099H228.11V167.319Z" fill="#FF5A00"/>
<path d="M228.11 161.6H222.39V167.32H228.11V161.6Z" fill="black"/>
<path d="M228.11 155.819H222.39V161.599H228.11V155.819Z" fill="#FF5A00"/>
<path d="M228.11 150.1H222.39V155.82H228.11V150.1Z" fill="#FF5A00"/>
<path d="M228.11 144.319H222.39V150.099H228.11V144.319Z" fill="#FF5A00"/>
<path d="M228.11 138.59H222.39V144.31H228.11V138.59Z" fill="#FF5A00"/>
<path d="M228.11 132.81H222.39V138.59H228.11V132.81Z" fill="#DB4B03"/>
<path d="M228.11 127.029H222.39V132.809H228.11V127.029Z" fill="#DB4B03"/>
<path d="M228.11 121.31H222.39V127.03H228.11V121.31Z" fill="#DB4B03"/>
<path d="M228.11 115.529H222.39V121.309H228.11V115.529Z" fill="black"/>
<path d="M228.11 109.81H222.39V115.53H228.11V109.81Z" fill="black"/>
<path d="M228.11 104.029H222.39V109.809H228.11V104.029Z" fill="black"/>
<path d="M222.39 305.479H216.61V311.199H222.39V305.479Z" fill="black"/>
<path d="M222.39 299.699H216.61V305.479H222.39V299.699Z" fill="#DB4B03"/>
<path d="M222.39 293.97H216.61V299.7H222.39V293.97Z" fill="#FF5A00"/>
<path d="M222.39 288.199H216.61V293.979H222.39V288.199Z" fill="#FF5A00"/>
<path d="M222.39 282.47H216.61V288.19H222.39V282.47Z" fill="#FF5A00"/>
<path d="M222.39 276.689H216.61V282.469H222.39V276.689Z" fill="#FF5A00"/>
<path d="M222.39 270.97H216.61V276.69H222.39V270.97Z" fill="#FF5A00"/>
<path d="M222.39 265.189H216.61V270.969H222.39V265.189Z" fill="#FF5A00"/>
<path d="M222.39 259.409H216.61V265.189H222.39V259.409Z" fill="#FF5A00"/>
<path d="M222.39 253.68H216.61V259.41H222.39V253.68Z" fill="#FF5A00"/>
<path d="M222.39 247.909H216.61V253.689H222.39V247.909Z" fill="#FF5A00"/>
<path d="M222.39 242.18H216.61V247.9H222.39V242.18Z" fill="#FF5A00"/>
<path d="M222.39 236.399H216.61V242.179H222.39V236.399Z" fill="#FF5A00"/>
<path d="M222.39 230.68H216.61V236.4H222.39V230.68Z" fill="#FF5A00"/>
<path d="M222.39 224.899H216.61V230.679H222.39V224.899Z" fill="#FF5A00"/>
<path d="M222.39 219.119H216.61V224.899H222.39V219.119Z" fill="#FF5A00"/>
<path d="M222.39 213.39H216.61V219.11H222.39V213.39Z" fill="#FF5A00"/>
<path d="M222.39 207.609H216.61V213.389H222.39V207.609Z" fill="#DB4B03"/>
<path d="M222.39 201.89H216.61V207.61H222.39V201.89Z" fill="#DB4B03"/>
<path d="M222.39 196.109H216.61V201.889H222.39V196.109Z" fill="#DB4B03"/>
<path d="M222.39 190.39H216.61V196.11H222.39V190.39Z" fill="#DB4B03"/>
<path d="M222.39 184.609H216.61V190.389H222.39V184.609Z" fill="#6B1F01"/>
<path d="M222.39 178.88H216.61V184.6H222.39V178.88Z" fill="#6B1F01"/>
<path d="M222.39 173.1H216.61V178.88H222.39V173.1Z" fill="black"/>
<path d="M222.39 167.319H216.61V173.099H222.39V167.319Z" fill="#FF5A00"/>
<path d="M222.39 161.6H216.61V167.32H222.39V161.6Z" fill="black"/>
<path d="M222.39 155.819H216.61V161.599H222.39V155.819Z" fill="black"/>
<path d="M222.39 150.1H216.61V155.82H222.39V150.1Z" fill="#FF5A00"/>
<path d="M222.39 144.319H216.61V150.099H222.39V144.319Z" fill="#FF5A00"/>
<path d="M222.39 138.59H216.61V144.31H222.39V138.59Z" fill="#FF5A00"/>
<path d="M222.39 132.81H216.61V138.59H222.39V132.81Z" fill="#FF5A00"/>
<path d="M222.39 127.029H216.61V132.809H222.39V127.029Z" fill="#FF5A00"/>
<path d="M222.39 121.31H216.61V127.03H222.39V121.31Z" fill="#DB4B03"/>
<path d="M222.39 115.529H216.61V121.309H222.39V115.529Z" fill="#DB4B03"/>
<path d="M222.39 109.81H216.61V115.53H222.39V109.81Z" fill="#FF5A00"/>
<path d="M222.39 104.029H216.61V109.809H222.39V104.029Z" fill="black"/>
<path d="M216.61 305.479H210.89V311.199H216.61V305.479Z" fill="black"/>
<path d="M216.61 299.699H210.89V305.479H216.61V299.699Z" fill="black"/>
<path d="M216.61 293.97H210.89V299.7H216.61V293.97Z" fill="black"/>
<path d="M216.61 288.199H210.89V293.979H216.61V288.199Z" fill="black"/>
<path d="M216.61 282.47H210.89V288.19H216.61V282.47Z" fill="black"/>
<path d="M216.61 276.689H210.89V282.469H216.61V276.689Z" fill="black"/>
<path d="M216.61 270.97H210.89V276.69H216.61V270.97Z" fill="black"/>
<path d="M216.61 265.189H210.89V270.969H216.61V265.189Z" fill="black"/>
<path d="M216.61 259.409H210.89V265.189H216.61V259.409Z" fill="black"/>
<path d="M216.61 253.68H210.89V259.41H216.61V253.68Z" fill="black"/>
<path d="M216.61 247.909H210.89V253.689H216.61V247.909Z" fill="black"/>
<path d="M216.61 242.18H210.89V247.9H216.61V242.18Z" fill="black"/>
<path d="M216.61 236.399H210.89V242.179H216.61V236.399Z" fill="black"/>
<path d="M216.61 230.68H210.89V236.4H216.61V230.68Z" fill="black"/>
<path d="M216.61 224.899H210.89V230.679H216.61V224.899Z" fill="black"/>
<path d="M216.61 219.119H210.89V224.899H216.61V219.119Z" fill="black"/>
<path d="M216.61 213.39H210.89V219.11H216.61V213.39Z" fill="black"/>
<path d="M216.61 207.609H210.89V213.389H216.61V207.609Z" fill="black"/>
<path d="M216.61 201.89H210.89V207.61H216.61V201.89Z" fill="black"/>
<path d="M216.61 196.109H210.89V201.889H216.61V196.109Z" fill="black"/>
<path d="M216.61 190.39H210.89V196.11H216.61V190.39Z" fill="black"/>
<path d="M216.61 184.609H210.89V190.389H216.61V184.609Z" fill="#200621"/>
<path d="M216.61 178.88H210.89V184.6H216.61V178.88Z" fill="#6B1F01"/>
<path d="M216.61 173.1H210.89V178.88H216.61V173.1Z" fill="black"/>
<path d="M216.61 167.319H210.89V173.099H216.61V167.319Z" fill="black"/>
<path d="M216.61 161.6H210.89V167.32H216.61V161.6Z" fill="#200621"/>
<path d="M216.61 155.819H210.89V161.599H216.61V155.819Z" fill="#200621"/>
<path d="M216.61 150.1H210.89V155.82H216.61V150.1Z" fill="black"/>
<path d="M216.61 144.319H210.89V150.099H216.61V144.319Z" fill="#FF5A00"/>
<path d="M216.61 138.59H210.89V144.31H216.61V138.59Z" fill="#FF5A00"/>
<path d="M216.61 132.81H210.89V138.59H216.61V132.81Z" fill="#FF5A00"/>
<path d="M216.61 127.029H210.89V132.809H216.61V127.029Z" fill="#FF5A00"/>
<path d="M216.61 121.31H210.89V127.03H216.61V121.31Z" fill="#FF5A00"/>
<path d="M216.61 115.529H210.89V121.309H216.61V115.529Z" fill="#DB4B03"/>
<path d="M216.61 109.81H210.89V115.53H216.61V109.81Z" fill="#DB4B03"/>
<path d="M216.61 104.029H210.89V109.809H216.61V104.029Z" fill="#DB4B03"/>
<path d="M216.61 98.3096H210.89V104.03H216.61V98.3096Z" fill="black"/>
<path d="M210.89 305.479H205.11V311.199H210.89V305.479Z" fill="black"/>
<path d="M210.89 288.199H205.11V293.979H210.89V288.199Z" fill="black"/>
<path d="M210.89 259.409H205.11V265.189H210.89V259.409Z" fill="#200621"/>
<path d="M210.89 253.68H205.11V259.41H210.89V253.68Z" fill="#6B1F01"/>
<path d="M210.89 247.909H205.11V253.689H210.89V247.909Z" fill="#6B1F01"/>
<path d="M210.89 242.18H205.11V247.9H210.89V242.18Z" fill="#6B1F01"/>
<path d="M210.89 236.399H205.11V242.179H210.89V236.399Z" fill="#6B1F01"/>
<path d="M210.89 230.68H205.11V236.4H210.89V230.68Z" fill="#6B1F01"/>
<path d="M210.89 224.899H205.11V230.679H210.89V224.899Z" fill="#200621"/>
<path d="M210.89 219.119H205.11V224.899H210.89V219.119Z" fill="#6B1F01"/>
<path d="M210.89 213.39H205.11V219.11H210.89V213.39Z" fill="#6B1F01"/>
<path d="M210.89 207.609H205.11V213.389H210.89V207.609Z" fill="#6B1F01"/>
<path d="M210.89 201.89H205.11V207.61H210.89V201.89Z" fill="#6B1F01"/>
<path d="M210.89 196.109H205.11V201.889H210.89V196.109Z" fill="#6B1F01"/>
<path d="M210.89 190.39H205.11V196.11H210.89V190.39Z" fill="#6B1F01"/>
<path d="M210.89 184.609H205.11V190.389H210.89V184.609Z" fill="#200621"/>
<path d="M210.89 178.88H205.11V184.6H210.89V178.88Z" fill="#6B1F01"/>
<path d="M210.89 173.1H205.11V178.88H210.89V173.1Z" fill="black"/>
<path d="M210.89 167.319H205.11V173.099H210.89V167.319Z" fill="#200621"/>
<path d="M210.89 161.6H205.11V167.32H210.89V161.6Z" fill="#200621"/>
<path d="M210.89 155.819H205.11V161.599H210.89V155.819Z" fill="#200621"/>
<path d="M210.89 150.1H205.11V155.82H210.89V150.1Z" fill="#200621"/>
<path d="M210.89 144.319H205.11V150.099H210.89V144.319Z" fill="black"/>
<path d="M210.89 138.59H205.11V144.31H210.89V138.59Z" fill="#FF5A00"/>
<path d="M210.89 132.81H205.11V138.59H210.89V132.81Z" fill="#FF5A00"/>
<path d="M210.89 127.029H205.11V132.809H210.89V127.029Z" fill="#FF5A00"/>
<path d="M210.89 121.31H205.11V127.03H210.89V121.31Z" fill="#FF5A00"/>
<path d="M210.89 115.529H205.11V121.309H210.89V115.529Z" fill="#FF5A00"/>
<path d="M210.89 109.81H205.11V115.53H210.89V109.81Z" fill="#FF5A00"/>
<path d="M210.89 104.029H205.11V109.809H210.89V104.029Z" fill="#DB4B03"/>
<path d="M210.89 98.3096H205.11V104.03H210.89V98.3096Z" fill="black"/>
<path d="M205.11 305.479H199.39V311.199H205.11V305.479Z" fill="black"/>
<path d="M205.11 299.699H199.39V305.479H205.11V299.699Z" fill="black"/>
<path d="M205.11 293.97H199.39V299.7H205.11V293.97Z" fill="black"/>
<path d="M205.11 259.409H199.39V265.189H205.11V259.409Z" fill="#200621"/>
<path d="M205.11 253.68H199.39V259.41H205.11V253.68Z" fill="#7C2A05"/>
<path d="M205.11 247.909H199.39V253.689H205.11V247.909Z" fill="#6B1F01"/>
<path d="M205.11 242.18H199.39V247.9H205.11V242.18Z" fill="#6B1F01"/>
<path d="M205.11 236.399H199.39V242.179H205.11V236.399Z" fill="#6B1F01"/>
<path d="M205.11 230.68H199.39V236.4H205.11V230.68Z" fill="#6B1F01"/>
<path d="M205.11 224.899H199.39V230.679H205.11V224.899Z" fill="#200621"/>
<path d="M205.11 219.119H199.39V224.899H205.11V219.119Z" fill="#200621"/>
<path d="M205.11 213.39H199.39V219.11H205.11V213.39Z" fill="#7C2A05"/>
<path d="M205.11 207.609H199.39V213.389H205.11V207.609Z" fill="#7C2A05"/>
<path d="M205.11 201.89H199.39V207.61H205.11V201.89Z" fill="#6B1F01"/>
<path d="M205.11 196.109H199.39V201.889H205.11V196.109Z" fill="#6B1F01"/>
<path d="M205.11 190.39H199.39V196.11H205.11V190.39Z" fill="#6B1F01"/>
<path d="M205.11 184.609H199.39V190.389H205.11V184.609Z" fill="#200621"/>
<path d="M205.11 178.88H199.39V184.6H205.11V178.88Z" fill="#7C2A05"/>
<path d="M205.11 173.1H199.39V178.88H205.11V173.1Z" fill="#6B1F01"/>
<path d="M205.11 167.319H199.39V173.099H205.11V167.319Z" fill="#200621"/>
<path d="M205.11 161.6H199.39V167.32H205.11V161.6Z" fill="#200621"/>
<path d="M205.11 155.819H199.39V161.599H205.11V155.819Z" fill="#200621"/>
<path d="M205.11 150.1H199.39V155.82H205.11V150.1Z" fill="#200621"/>
<path d="M205.11 144.319H199.39V150.099H205.11V144.319Z" fill="#200621"/>
<path d="M205.11 138.59H199.39V144.31H205.11V138.59Z" fill="black"/>
<path d="M205.11 132.81H199.39V138.59H205.11V132.81Z" fill="#FF5A00"/>
<path d="M205.11 127.029H199.39V132.809H205.11V127.029Z" fill="#FF5A00"/>
<path d="M205.11 121.31H199.39V127.03H205.11V121.31Z" fill="#FF5A00"/>
<path d="M205.11 115.529H199.39V121.309H205.11V115.529Z" fill="#FF5A00"/>
<path d="M205.11 109.81H199.39V115.53H205.11V109.81Z" fill="#FF5A00"/>
<path d="M205.11 104.029H199.39V109.809H205.11V104.029Z" fill="#FF5A00"/>
<path d="M205.11 98.3096H199.39V104.03H205.11V98.3096Z" fill="black"/>
<path d="M199.39 305.479H193.61V311.199H199.39V305.479Z" fill="black"/>
<path d="M199.39 259.409H193.61V265.189H199.39V259.409Z" fill="#200621"/>
<path d="M199.39 253.68H193.61V259.41H199.39V253.68Z" fill="#7C2A05"/>
<path d="M199.39 247.909H193.61V253.689H199.39V247.909Z" fill="#7C2A05"/>
<path d="M199.39 242.18H193.61V247.9H199.39V242.18Z" fill="#7C2A05"/>
<path d="M199.39 236.399H193.61V242.179H199.39V236.399Z" fill="#6B1F01"/>
<path d="M199.39 230.68H193.61V236.4H199.39V230.68Z" fill="#6B1F01"/>
<path d="M199.39 224.899H193.61V230.679H199.39V224.899Z" fill="#6B1F01"/>
<path d="M199.39 219.119H193.61V224.899H199.39V219.119Z" fill="#200621"/>
<path d="M199.39 213.39H193.61V219.11H199.39V213.39Z" fill="#7C2A05"/>
<path d="M199.39 207.609H193.61V213.389H199.39V207.609Z" fill="#7C2A05"/>
<path d="M199.39 201.89H193.61V207.61H199.39V201.89Z" fill="#7C2A05"/>
<path d="M199.39 196.109H193.61V201.889H199.39V196.109Z" fill="#6B1F01"/>
<path d="M199.39 190.39H193.61V196.11H199.39V190.39Z" fill="#6B1F01"/>
<path d="M199.39 184.609H193.61V190.389H199.39V184.609Z" fill="#200621"/>
<path d="M199.39 178.88H193.61V184.6H199.39V178.88Z" fill="#7C2A05"/>
<path d="M199.39 173.1H193.61V178.88H199.39V173.1Z" fill="#200621"/>
<path d="M199.39 167.319H193.61V173.099H199.39V167.319Z" fill="#200621"/>
<path d="M199.39 161.6H193.61V167.32H199.39V161.6Z" fill="#200621"/>
<path d="M199.39 155.819H193.61V161.599H199.39V155.819Z" fill="#200621"/>
<path d="M199.39 150.1H193.61V155.82H199.39V150.1Z" fill="#200621"/>
<path d="M199.39 144.319H193.61V150.099H199.39V144.319Z" fill="#200621"/>
<path d="M199.39 138.59H193.61V144.31H199.39V138.59Z" fill="#200621"/>
<path d="M199.39 132.81H193.61V138.59H199.39V132.81Z" fill="black"/>
<path d="M199.39 127.029H193.61V132.809H199.39V127.029Z" fill="#FF5A00"/>
<path d="M199.39 121.31H193.61V127.03H199.39V121.31Z" fill="#FF5A00"/>
<path d="M199.39 115.529H193.61V121.309H199.39V115.529Z" fill="#FF5A00"/>
<path d="M199.39 109.81H193.61V115.53H199.39V109.81Z" fill="#FF5A00"/>
<path d="M199.39 104.029H193.61V109.809H199.39V104.029Z" fill="#FF5A00"/>
<path d="M199.39 98.3096H193.61V104.03H199.39V98.3096Z" fill="black"/>
<path d="M193.6 305.479H187.88V311.199H193.6V305.479Z" fill="black"/>
<path d="M193.6 299.699H187.88V305.479H193.6V299.699Z" fill="black"/>
<path d="M193.6 293.97H187.88V299.7H193.6V293.97Z" fill="#200621"/>
<path d="M193.6 288.199H187.88V293.979H193.6V288.199Z" fill="#200621"/>
<path d="M193.6 282.47H187.88V288.19H193.6V282.47Z" fill="#200621"/>
<path d="M193.6 276.689H187.88V282.469H193.6V276.689Z" fill="#200621"/>
<path d="M193.6 270.97H187.88V276.69H193.6V270.97Z" fill="#200621"/>
<path d="M193.6 265.189H187.88V270.969H193.6V265.189Z" fill="#200621"/>
<path d="M193.6 259.409H187.88V265.189H193.6V259.409Z" fill="#7C2A05"/>
<path d="M193.6 253.68H187.88V259.41H193.6V253.68Z" fill="#7C2A05"/>
<path d="M193.6 247.909H187.88V253.689H193.6V247.909Z" fill="#7C2A05"/>
<path d="M193.6 242.18H187.88V247.9H193.6V242.18Z" fill="#7C2A05"/>
<path d="M193.6 236.399H187.88V242.179H193.6V236.399Z" fill="#7C2A05"/>
<path d="M193.6 230.68H187.88V236.4H193.6V230.68Z" fill="#7C2A05"/>
<path d="M193.6 224.899H187.88V230.679H193.6V224.899Z" fill="#6B1F01"/>
<path d="M193.6 219.119H187.88V224.899H193.6V219.119Z" fill="#200621"/>
<path d="M193.6 213.39H187.88V219.11H193.6V213.39Z" fill="#200621"/>
<path d="M193.6 207.609H187.88V213.389H193.6V207.609Z" fill="#7C2A05"/>
<path d="M193.6 201.89H187.88V207.61H193.6V201.89Z" fill="#7C2A05"/>
<path d="M193.6 196.109H187.88V201.889H193.6V196.109Z" fill="#7C2A05"/>
<path d="M193.6 190.39H187.88V196.11H193.6V190.39Z" fill="#6B1F01"/>
<path d="M193.6 184.609H187.88V190.389H193.6V184.609Z" fill="#200621"/>
<path d="M193.6 178.88H187.88V184.6H193.6V178.88Z" fill="#7C2A05"/>
<path d="M193.6 173.1H187.88V178.88H193.6V173.1Z" fill="#200621"/>
<path d="M193.6 167.319H187.88V173.099H193.6V167.319Z" fill="#200621"/>
<path d="M193.6 161.6H187.88V167.32H193.6V161.6Z" fill="#200621"/>
<path d="M193.6 155.819H187.88V161.599H193.6V155.819Z" fill="#200621"/>
<path d="M193.6 150.1H187.88V155.82H193.6V150.1Z" fill="#200621"/>
<path d="M193.6 144.319H187.88V150.099H193.6V144.319Z" fill="#200621"/>
<path d="M193.6 138.59H187.88V144.31H193.6V138.59Z" fill="#200621"/>
<path d="M193.6 132.81H187.88V138.59H193.6V132.81Z" fill="black"/>
<path d="M193.6 127.029H187.88V132.809H193.6V127.029Z" fill="black"/>
<path d="M193.6 121.31H187.88V127.03H193.6V121.31Z" fill="#FF5A00"/>
<path d="M193.6 115.529H187.88V121.309H193.6V115.529Z" fill="#FF5A00"/>
<path d="M193.6 109.81H187.88V115.53H193.6V109.81Z" fill="#FF5A00"/>
<path d="M193.6 104.029H187.88V109.809H193.6V104.029Z" fill="#FF5A00"/>
<path d="M193.6 98.3096H187.88V104.03H193.6V98.3096Z" fill="black"/>
<path d="M187.88 305.479H182.1V311.199H187.88V305.479Z" fill="black"/>
<path d="M187.88 259.409H182.1V265.189H187.88V259.409Z" fill="#200621"/>
<path d="M187.88 253.68H182.1V259.41H187.88V253.68Z" fill="#7C2A05"/>
<path d="M187.88 247.909H182.1V253.689H187.88V247.909Z" fill="#7C2A05"/>
<path d="M187.88 242.18H182.1V247.9H187.88V242.18Z" fill="#7C2A05"/>
<path d="M187.88 236.399H182.1V242.179H187.88V236.399Z" fill="#7C2A05"/>
<path d="M187.88 230.68H182.1V236.4H187.88V230.68Z" fill="#7C2A05"/>
<path d="M187.88 224.899H182.1V230.679H187.88V224.899Z" fill="#7C2A05"/>
<path d="M187.88 219.119H182.1V224.899H187.88V219.119Z" fill="#7C2A05"/>
<path d="M187.88 213.39H182.1V219.11H187.88V213.39Z" fill="#200621"/>
<path d="M187.88 207.609H182.1V213.389H187.88V207.609Z" fill="#6B1F01"/>
<path d="M187.88 201.89H182.1V207.61H187.88V201.89Z" fill="#7C2A05"/>
<path d="M187.88 196.109H182.1V201.889H187.88V196.109Z" fill="#7C2A05"/>
<path d="M187.88 190.39H182.1V196.11H187.88V190.39Z" fill="#7C2A05"/>
<path d="M187.88 184.609H182.1V190.389H187.88V184.609Z" fill="#200621"/>
<path d="M187.88 178.88H182.1V184.6H187.88V178.88Z" fill="#200621"/>
<path d="M187.88 173.1H182.1V178.88H187.88V173.1Z" fill="#200621"/>
<path d="M187.88 167.319H182.1V173.099H187.88V167.319Z" fill="#200621"/>
<path d="M187.88 161.6H182.1V167.32H187.88V161.6Z" fill="#200621"/>
<path d="M187.88 155.819H182.1V161.599H187.88V155.819Z" fill="#200621"/>
<path d="M187.88 150.1H182.1V155.82H187.88V150.1Z" fill="#200621"/>
<path d="M187.88 144.319H182.1V150.099H187.88V144.319Z" fill="#200621"/>
<path d="M187.88 138.59H182.1V144.31H187.88V138.59Z" fill="#200621"/>
<path d="M187.88 132.81H182.1V138.59H187.88V132.81Z" fill="#200621"/>
<path d="M187.88 127.029H182.1V132.809H187.88V127.029Z" fill="black"/>
<path d="M187.88 121.31H182.1V127.03H187.88V121.31Z" fill="#FF5A00"/>
<path d="M187.88 115.529H182.1V121.309H187.88V115.529Z" fill="#FF5A00"/>
<path d="M187.88 109.81H182.1V115.53H187.88V109.81Z" fill="#FF5A00"/>
<path d="M187.88 104.029H182.1V109.809H187.88V104.029Z" fill="black"/>
<path d="M182.1 305.479H176.32V311.199H182.1V305.479Z" fill="black"/>
<path d="M182.1 299.699H176.32V305.479H182.1V299.699Z" fill="black"/>
<path d="M182.1 253.68H176.32V259.41H182.1V253.68Z" fill="#200621"/>
<path d="M182.1 247.909H176.32V253.689H182.1V247.909Z" fill="#6B1F01"/>
<path d="M182.1 242.18H176.32V247.9H182.1V242.18Z" fill="#7C2A05"/>
<path d="M182.1 236.399H176.32V242.179H182.1V236.399Z" fill="#7C2A05"/>
<path d="M182.1 230.68H176.32V236.4H182.1V230.68Z" fill="#7C2A05"/>
<path d="M182.1 224.899H176.32V230.679H182.1V224.899Z" fill="#7C2A05"/>
<path d="M182.1 219.119H176.32V224.899H182.1V219.119Z" fill="#6B1F01"/>
<path d="M182.1 213.39H176.32V219.11H182.1V213.39Z" fill="#200621"/>
<path d="M182.1 207.609H176.32V213.389H182.1V207.609Z" fill="#6B1F01"/>
<path d="M182.1 201.89H176.32V207.61H182.1V201.89Z" fill="#200621"/>
<path d="M182.1 196.109H176.32V201.889H182.1V196.109Z" fill="#200621"/>
<path d="M182.1 190.39H176.32V196.11H182.1V190.39Z" fill="#200621"/>
<path d="M182.1 184.609H176.32V190.389H182.1V184.609Z" fill="#6B1F01"/>
<path d="M182.1 178.88H176.32V184.6H182.1V178.88Z" fill="#200621"/>
<path d="M182.1 173.1H176.32V178.88H182.1V173.1Z" fill="#200621"/>
<path d="M182.1 167.319H176.32V173.099H182.1V167.319Z" fill="#200621"/>
<path d="M182.1 161.6H176.32V167.32H182.1V161.6Z" fill="#200621"/>
<path d="M182.1 155.819H176.32V161.599H182.1V155.819Z" fill="#200621"/>
<path d="M182.1 150.1H176.32V155.82H182.1V150.1Z" fill="#200621"/>
<path d="M182.1 144.319H176.32V150.099H182.1V144.319Z" fill="#200621"/>
<path d="M182.1 138.59H176.32V144.31H182.1V138.59Z" fill="#200621"/>
<path d="M182.1 132.81H176.32V138.59H182.1V132.81Z" fill="#200621"/>
<path d="M182.1 127.029H176.32V132.809H182.1V127.029Z" fill="black"/>
<path d="M182.1 121.31H176.32V127.03H182.1V121.31Z" fill="#FF5A00"/>
<path d="M182.1 115.529H176.32V121.309H182.1V115.529Z" fill="#FF5A00"/>
<path d="M182.1 109.81H176.32V115.53H182.1V109.81Z" fill="#FF5A00"/>
<path d="M182.1 104.029H176.32V109.809H182.1V104.029Z" fill="black"/>
<path d="M176.32 305.479H170.6V311.199H176.32V305.479Z" fill="black"/>
<path d="M176.32 293.97H170.6V299.7H176.32V293.97Z" fill="black"/>
<path d="M176.32 288.199H170.6V293.979H176.32V288.199Z" fill="black"/>
<path d="M176.32 253.68H170.6V259.41H176.32V253.68Z" fill="#200621"/>
<path d="M176.32 247.909H170.6V253.689H176.32V247.909Z" fill="#6B1F01"/>
<path d="M176.32 242.18H170.6V247.9H176.32V242.18Z" fill="#7C2A05"/>
<path d="M176.32 236.399H170.6V242.179H176.32V236.399Z" fill="#7C2A05"/>
<path d="M176.32 230.68H170.6V236.4H176.32V230.68Z" fill="#6B1F01"/>
<path d="M176.32 224.899H170.6V230.679H176.32V224.899Z" fill="#6B1F01"/>
<path d="M176.32 219.119H170.6V224.899H176.32V219.119Z" fill="#6B1F01"/>
<path d="M176.32 213.39H170.6V219.11H176.32V213.39Z" fill="#6B1F01"/>
<path d="M176.32 207.609H170.6V213.389H176.32V207.609Z" fill="#200621"/>
<path d="M176.32 201.89H170.6V207.61H176.32V201.89Z" fill="#7C2A05"/>
<path d="M176.32 196.109H170.6V201.889H176.32V196.109Z" fill="#7C2A05"/>
<path d="M176.32 190.39H170.6V196.11H176.32V190.39Z" fill="#7C2A05"/>
<path d="M176.32 184.609H170.6V190.389H176.32V184.609Z" fill="black"/>
<path d="M176.32 178.88H170.6V184.6H176.32V178.88Z" fill="black"/>
<path d="M176.32 173.1H170.6V178.88H176.32V173.1Z" fill="black"/>
<path d="M176.32 167.319H170.6V173.099H176.32V167.319Z" fill="black"/>
<path d="M176.32 161.6H170.6V167.32H176.32V161.6Z" fill="#200621"/>
<path d="M176.32 155.819H170.6V161.599H176.32V155.819Z" fill="#200621"/>
<path d="M176.32 150.1H170.6V155.82H176.32V150.1Z" fill="#200621"/>
<path d="M176.32 144.319H170.6V150.099H176.32V144.319Z" fill="#200621"/>
<path d="M176.32 138.59H170.6V144.31H176.32V138.59Z" fill="#200621"/>
<path d="M176.32 132.81H170.6V138.59H176.32V132.81Z" fill="#200621"/>
<path d="M176.32 127.029H170.6V132.809H176.32V127.029Z" fill="black"/>
<path d="M176.32 121.31H170.6V127.03H176.32V121.31Z" fill="#DB4B03"/>
<path d="M176.32 115.529H170.6V121.309H176.32V115.529Z" fill="#DB4B03"/>
<path d="M176.32 109.81H170.6V115.53H176.32V109.81Z" fill="black"/>
<path d="M170.6 305.479H164.82V311.199H170.6V305.479Z" fill="black"/>
<path d="M170.6 299.699H164.82V305.479H170.6V299.699Z" fill="black"/>
<path d="M170.6 293.97H164.82V299.7H170.6V293.97Z" fill="black"/>
<path d="M170.6 288.199H164.82V293.979H170.6V288.199Z" fill="black"/>
<path d="M170.6 282.47H164.82V288.19H170.6V282.47Z" fill="black"/>
<path d="M170.6 276.689H164.82V282.469H170.6V276.689Z" fill="black"/>
<path d="M170.6 270.97H164.82V276.69H170.6V270.97Z" fill="black"/>
<path d="M170.6 265.189H164.82V270.969H170.6V265.189Z" fill="black"/>
<path d="M170.6 259.409H164.82V265.189H170.6V259.409Z" fill="black"/>
<path d="M170.6 253.68H164.82V259.41H170.6V253.68Z" fill="black"/>
<path d="M170.6 247.909H164.82V253.689H170.6V247.909Z" fill="black"/>
<path d="M170.6 242.18H164.82V247.9H170.6V242.18Z" fill="black"/>
<path d="M170.6 236.399H164.82V242.179H170.6V236.399Z" fill="black"/>
<path d="M170.6 230.68H164.82V236.4H170.6V230.68Z" fill="black"/>
<path d="M170.6 224.899H164.82V230.679H170.6V224.899Z" fill="black"/>
<path d="M170.6 219.119H164.82V224.899H170.6V219.119Z" fill="black"/>
<path d="M170.6 213.39H164.82V219.11H170.6V213.39Z" fill="black"/>
<path d="M170.6 207.609H164.82V213.389H170.6V207.609Z" fill="black"/>
<path d="M170.6 201.89H164.82V207.61H170.6V201.89Z" fill="black"/>
<path d="M170.6 196.109H164.82V201.889H170.6V196.109Z" fill="#7C2A05"/>
<path d="M170.6 190.39H164.82V196.11H170.6V190.39Z" fill="black"/>
<path d="M170.6 184.609H164.82V190.389H170.6V184.609Z" fill="#DB4B03"/>
<path d="M170.6 178.88H164.82V184.6H170.6V178.88Z" fill="#DB4B03"/>
<path d="M170.6 173.1H164.82V178.88H170.6V173.1Z" fill="black"/>
<path d="M170.6 161.6H164.82V167.32H170.6V161.6Z" fill="black"/>
<path d="M170.6 155.819H164.82V161.599H170.6V155.819Z" fill="black"/>
<path d="M170.6 150.1H164.82V155.82H170.6V150.1Z" fill="#200621"/>
<path d="M170.6 144.319H164.82V150.099H170.6V144.319Z" fill="black"/>
<path d="M170.6 138.59H164.82V144.31H170.6V138.59Z" fill="black"/>
<path d="M170.6 132.81H164.82V138.59H170.6V132.81Z" fill="black"/>
<path d="M170.6 127.029H164.82V132.809H170.6V127.029Z" fill="#DB4B03"/>
<path d="M170.6 121.31H164.82V127.03H170.6V121.31Z" fill="#DB4B03"/>
<path d="M170.6 115.529H164.82V121.309H170.6V115.529Z" fill="black"/>
<path d="M164.82 305.479H159.1V311.199H164.82V305.479Z" fill="black"/>
<path d="M164.82 299.699H159.1V305.479H164.82V299.699Z" fill="#DB4B03"/>
<path d="M164.82 293.97H159.1V299.7H164.82V293.97Z" fill="#DB4B03"/>
<path d="M164.82 288.199H159.1V293.979H164.82V288.199Z" fill="#E54A05"/>
<path d="M164.82 282.47H159.1V288.19H164.82V282.47Z" fill="#E54A05"/>
<path d="M164.82 276.689H159.1V282.469H164.82V276.689Z" fill="#E54A05"/>
<path d="M164.82 270.97H159.1V276.69H164.82V270.97Z" fill="#E54A05"/>
<path d="M164.82 265.189H159.1V270.969H164.82V265.189Z" fill="#E54A05"/>
<path d="M164.82 259.409H159.1V265.189H164.82V259.409Z" fill="#FF5A00"/>
<path d="M164.82 253.68H159.1V259.41H164.82V253.68Z" fill="#FF5A00"/>
<path d="M164.82 247.909H159.1V253.689H164.82V247.909Z" fill="#FF5A00"/>
<path d="M164.82 242.18H159.1V247.9H164.82V242.18Z" fill="#FF5A00"/>
<path d="M164.82 236.399H159.1V242.179H164.82V236.399Z" fill="#FF5A00"/>
<path d="M164.82 230.68H159.1V236.4H164.82V230.68Z" fill="#FF5A00"/>
<path d="M164.82 224.899H159.1V230.679H164.82V224.899Z" fill="#FF5A00"/>
<path d="M164.82 219.119H159.1V224.899H164.82V219.119Z" fill="#FF5A00"/>
<path d="M164.82 213.39H159.1V219.11H164.82V213.39Z" fill="#FF5A00"/>
<path d="M164.82 207.609H159.1V213.389H164.82V207.609Z" fill="#FF5A00"/>
<path d="M164.82 201.89H159.1V207.61H164.82V201.89Z" fill="#FF5A00"/>
<path d="M164.82 196.109H159.1V201.889H164.82V196.109Z" fill="black"/>
<path d="M164.82 190.39H159.1V196.11H164.82V190.39Z" fill="#DB4B03"/>
<path d="M164.82 184.609H159.1V190.389H164.82V184.609Z" fill="#FF5A00"/>
<path d="M164.82 178.88H159.1V184.6H164.82V178.88Z" fill="#DB4B03"/>
<path d="M164.82 173.1H159.1V178.88H164.82V173.1Z" fill="black"/>
<path d="M164.82 150.1H159.1V155.82H164.82V150.1Z" fill="black"/>
<path d="M164.82 144.319H159.1V150.099H164.82V144.319Z" fill="black"/>
<path d="M164.82 138.59H159.1V144.31H164.82V138.59Z" fill="#DB4B03"/>
<path d="M164.82 132.81H159.1V138.59H164.82V132.81Z" fill="#DB4B03"/>
<path d="M164.82 127.029H159.1V132.809H164.82V127.029Z" fill="black"/>
<path d="M164.82 121.31H159.1V127.03H164.82V121.31Z" fill="black"/>
<path d="M159.1 305.479H153.32V311.199H159.1V305.479Z" fill="black"/>
<path d="M159.1 299.699H153.32V305.479H159.1V299.699Z" fill="#DB4B03"/>
<path d="M159.1 293.97H153.32V299.7H159.1V293.97Z" fill="#DB4B03"/>
<path d="M159.1 288.199H153.32V293.979H159.1V288.199Z" fill="#E54A05"/>
<path d="M159.1 282.47H153.32V288.19H159.1V282.47Z" fill="#E54A05"/>
<path d="M159.1 276.689H153.32V282.469H159.1V276.689Z" fill="#FF5A00"/>
<path d="M159.1 270.97H153.32V276.69H159.1V270.97Z" fill="#FF5A00"/>
<path d="M159.1 265.189H153.32V270.969H159.1V265.189Z" fill="#FF5A00"/>
<path d="M159.1 259.409H153.32V265.189H159.1V259.409Z" fill="#FF5A00"/>
<path d="M159.1 253.68H153.32V259.41H159.1V253.68Z" fill="#FF5A00"/>
<path d="M159.1 247.909H153.32V253.689H159.1V247.909Z" fill="#FF5A00"/>
<path d="M159.1 242.18H153.32V247.9H159.1V242.18Z" fill="#FF5A00"/>
<path d="M159.1 236.399H153.32V242.179H159.1V236.399Z" fill="#FF5A00"/>
<path d="M159.1 230.68H153.32V236.4H159.1V230.68Z" fill="#FF5A00"/>
<path d="M159.1 224.899H153.32V230.679H159.1V224.899Z" fill="#FF5A00"/>
<path d="M159.1 219.119H153.32V224.899H159.1V219.119Z" fill="#FF5A00"/>
<path d="M159.1 213.39H153.32V219.11H159.1V213.39Z" fill="#FF5A00"/>
<path d="M159.1 207.609H153.32V213.389H159.1V207.609Z" fill="#FF5A00"/>
<path d="M159.1 201.89H153.32V207.61H159.1V201.89Z" fill="#DB4B03"/>
<path d="M159.1 196.109H153.32V201.889H159.1V196.109Z" fill="#DB4B03"/>
<path d="M159.1 190.39H153.32V196.11H159.1V190.39Z" fill="#DB4B03"/>
<path d="M159.1 184.609H153.32V190.389H159.1V184.609Z" fill="#DB4B03"/>
<path d="M159.1 178.88H153.32V184.6H159.1V178.88Z" fill="black"/>
<path d="M159.1 138.59H153.32V144.31H159.1V138.59Z" fill="black"/>
<path d="M159.1 132.81H153.32V138.59H159.1V132.81Z" fill="black"/>
<path d="M153.31 305.479H147.59V311.199H153.31V305.479Z" fill="black"/>
<path d="M153.31 299.699H147.59V305.479H153.31V299.699Z" fill="black"/>
<path d="M153.31 293.97H147.59V299.7H153.31V293.97Z" fill="black"/>
<path d="M153.31 288.199H147.59V293.979H153.31V288.199Z" fill="black"/>
<path d="M153.31 282.47H147.59V288.19H153.31V282.47Z" fill="black"/>
<path d="M153.31 276.689H147.59V282.469H153.31V276.689Z" fill="black"/>
<path d="M153.31 270.97H147.59V276.69H153.31V270.97Z" fill="black"/>
<path d="M153.31 265.189H147.59V270.969H153.31V265.189Z" fill="black"/>
<path d="M153.31 259.409H147.59V265.189H153.31V259.409Z" fill="black"/>
<path d="M153.31 253.68H147.59V259.41H153.31V253.68Z" fill="black"/>
<path d="M153.31 247.909H147.59V253.689H153.31V247.909Z" fill="black"/>
<path d="M153.31 242.18H147.59V247.9H153.31V242.18Z" fill="black"/>
<path d="M153.31 236.399H147.59V242.179H153.31V236.399Z" fill="black"/>
<path d="M153.31 230.68H147.59V236.4H153.31V230.68Z" fill="black"/>
<path d="M153.31 224.899H147.59V230.679H153.31V224.899Z" fill="black"/>
<path d="M153.31 219.119H147.59V224.899H153.31V219.119Z" fill="black"/>
<path d="M153.31 213.39H147.59V219.11H153.31V213.39Z" fill="black"/>
<path d="M153.31 207.609H147.59V213.389H153.31V207.609Z" fill="black"/>
<path d="M153.31 201.89H147.59V207.61H153.31V201.89Z" fill="black"/>
<path d="M153.31 196.109H147.59V201.889H153.31V196.109Z" fill="black"/>
<path d="M153.31 190.39H147.59V196.11H153.31V190.39Z" fill="black"/>
<path d="M153.31 184.609H147.59V190.389H153.31V184.609Z" fill="black"/>
<path d="M194.9 159.65H191.95V162.6H194.9V159.65Z" fill="#E80037"/>
<path d="M194.9 162.6H191.95V165.49H194.9V162.6Z" fill="#E80037"/>
<path d="M186.17 168.38H183.22V171.33H186.17V168.38Z" fill="#E80037"/>
<path d="M191.95 165.49H189.06V168.38H191.95V165.49Z" fill="#E80037"/>
<path d="M189.06 168.38H186.17V171.33H189.06V168.38Z" fill="#E80037"/>
<path d="M183.22 165.49H180.33V168.38H183.22V165.49Z" fill="#E80037"/>
<path d="M186.17 165.49H183.22V168.38H186.17V165.49Z" fill="#E80037"/>
<path d="M189.06 165.49H186.17V168.38H189.06V165.49Z" fill="#E80037"/>
<path d="M183.22 162.6H180.33V165.49H183.22V162.6Z" fill="#E80037"/>
<path d="M180.33 159.65H177.38V162.6H180.33V159.65Z" fill="#E80037"/>
<path d="M180.33 162.6H177.38V165.49H180.33V162.6Z" fill="#E80037"/>
<path d="M186.17 162.6H183.22V165.49H186.17V162.6Z" fill="#E80037"/>
<path d="M191.95 162.6H189.06V165.49H191.95V162.6Z" fill="#E80037"/>
<path d="M189.06 162.6H186.17V165.49H189.06V162.6Z" fill="#E80037"/>
<path d="M174.49 145.08H171.6V148.03H174.49V145.08Z" fill="#E80037"/>
<path d="M171.6 148.03H168.65V150.92H171.6V148.03Z" fill="#E80037"/>
<path d="M171.6 145.08H168.65V148.03H171.6V145.08Z" fill="#E80037"/>
<path d="M174.49 148.03H171.6V150.92H174.49V148.03Z" fill="#E80037"/>
<path d="M177.38 148.03H174.49V150.92H177.38V148.03Z" fill="#E80037"/>
<path d="M200.74 142.19H197.79V145.08H200.74V142.19Z" fill="#E80037"/>
<path d="M197.79 142.19H194.9V145.08H197.79V142.19Z" fill="#E80037"/>
<path d="M194.9 142.19H191.95V145.08H194.9V142.19Z" fill="#E80037"/>
<path d="M197.79 145.08H194.9V148.03H197.79V145.08Z" fill="#E80037"/>
<path d="M194.9 148.03H191.95V150.92H194.9V148.03Z" fill="#E80037"/>
<path d="M194.9 145.08H191.95V148.03H194.9V145.08Z" fill="#E80037"/>
<path d="M191.95 148.03H189.06V150.92H191.95V148.03Z" fill="#E80037"/>
<path d="M191.95 145.08H189.06V148.03H191.95V145.08Z" fill="#E80037"/>
<path d="M189.06 148.03H186.17V150.92H189.06V148.03Z" fill="#E80037"/>
<path d="M296.83 118.89H293.95V121.78H296.83V118.89Z" fill="#360066"/>
<path d="M293.95 121.78H291V124.73H293.95V121.78Z" fill="#360066"/>
<path d="M291 124.729H288.11V127.619H291V124.729Z" fill="#360066"/>
<path d="M288.11 127.62H285.22V130.57H288.11V127.62Z" fill="#360066"/>
<path d="M285.22 130.57H282.27V133.46H285.22V130.57Z" fill="#360066"/>
<path d="M282.27 133.46H279.38V136.35H282.27V133.46Z" fill="#360066"/>
<path d="M282.27 139.3H279.38V142.19H282.27V139.3Z" fill="#270947"/>
<path d="M299.79 121.78H296.84V124.73H299.79V121.78Z" fill="#270947"/>
<path d="M299.79 116H296.84V118.89H299.79V116Z" fill="#360066"/>
<path d="M299.79 118.89H296.84V121.78H299.79V118.89Z" fill="#360066"/>
<path d="M296.83 124.729H293.95V127.619H296.83V124.729Z" fill="#270947"/>
<path d="M296.83 121.78H293.95V124.73H296.83V121.78Z" fill="#360066"/>
<path d="M293.95 127.62H291V130.57H293.95V127.62Z" fill="#270947"/>
<path d="M293.95 124.729H291V127.619H293.95V124.729Z" fill="#360066"/>
<path d="M291 130.57H288.11V133.46H291V130.57Z" fill="#270947"/>
<path d="M291 127.62H288.11V130.57H291V127.62Z" fill="#360066"/>
<path d="M288.11 130.57H285.22V133.46H288.11V130.57Z" fill="#360066"/>
<path d="M288.11 133.46H285.22V136.35H288.11V133.46Z" fill="#270947"/>
<path d="M285.22 136.35H282.27V139.3H285.22V136.35Z" fill="#270947"/>
<path d="M285.22 133.46H282.27V136.35H285.22V133.46Z" fill="#360066"/>
<path d="M282.27 136.35H279.38V139.3H282.27V136.35Z" fill="#360066"/>
<path d="M279.38 136.35H276.43V139.3H279.38V136.35Z" fill="#360066"/>
<path d="M276.42 139.3H273.54V142.19H276.42V139.3Z" fill="#360066"/>
<path d="M273.54 142.19H270.65V145.08H273.54V142.19Z" fill="#360066"/>
<path d="M270.65 150.92H267.7V153.87H270.65V150.92Z" fill="#270947"/>
<path d="M270.65 145.08H267.7V148.03H270.65V145.08Z" fill="#360066"/>
<path d="M267.7 153.87H264.81V156.76H267.7V153.87Z" fill="#270947"/>
<path d="M279.38 142.19H276.43V145.08H279.38V142.19Z" fill="#270947"/>
<path d="M279.38 139.3H276.43V142.19H279.38V139.3Z" fill="#360066"/>
<path d="M276.42 145.08H273.54V148.03H276.42V145.08Z" fill="#270947"/>
<path d="M276.42 142.19H273.54V145.08H276.42V142.19Z" fill="#360066"/>
<path d="M273.54 145.08H270.65V148.03H273.54V145.08Z" fill="#360066"/>
<path d="M273.54 148.03H270.65V150.92H273.54V148.03Z" fill="#270947"/>
<path d="M270.65 148.03H267.7V150.92H270.65V148.03Z" fill="#360066"/>
<path d="M267.7 148.03H264.81V150.92H267.7V148.03Z" fill="#360066"/>
<path d="M267.7 150.92H264.81V153.87H267.7V150.92Z" fill="#360066"/>
<path d="M264.81 153.87H261.92V156.76H264.81V153.87Z" fill="#360066"/>
<path d="M264.81 150.92H261.92V153.87H264.81V150.92Z" fill="#360066"/>
<path d="M264.81 156.76H261.92V159.65H264.81V156.76Z" fill="#270947"/>
<path d="M261.92 159.65H258.97V162.6H261.92V159.65Z" fill="#270947"/>
<path d="M261.92 156.76H258.97V159.65H261.92V156.76Z" fill="#360066"/>
<path d="M261.92 153.87H258.97V156.76H261.92V153.87Z" fill="#360066"/>
<path d="M258.96 159.65H256.08V162.6H258.96V159.65Z" fill="#360066"/>
<path d="M258.96 156.76H256.08V159.65H258.96V156.76Z" fill="#360066"/>
<path d="M305.57 133.46H302.68V136.35H305.57V133.46Z" fill="black"/>
<path d="M305.57 127.62H302.68V130.57H305.57V127.62Z" fill="black"/>
<path d="M302.68 136.35H299.79V139.3H302.68V136.35Z" fill="black"/>
<path d="M302.68 133.46H299.79V136.35H302.68V133.46Z" fill="black"/>
<path d="M302.68 130.57H299.79V133.46H302.68V130.57Z" fill="black"/>
<path d="M302.68 127.62H299.79V130.57H302.68V127.62Z" fill="black"/>
<path d="M302.68 124.729H299.79V127.619H302.68V124.729Z" fill="black"/>
<path d="M302.68 121.78H299.79V124.73H302.68V121.78Z" fill="black"/>
<path d="M302.68 118.89H299.79V121.78H302.68V118.89Z" fill="black"/>
<path d="M302.68 116H299.79V118.89H302.68V116Z" fill="black"/>
<path d="M302.68 113.05H299.79V116H302.68V113.05Z" fill="black"/>
<path d="M302.68 110.16H299.79V113.05H302.68V110.16Z" fill="black"/>
<path d="M299.79 124.729H296.84V127.619H299.79V124.729Z" fill="black"/>
<path d="M299.79 113.05H296.84V116H299.79V113.05Z" fill="black"/>
<path d="M299.79 110.16H296.84V113.05H299.79V110.16Z" fill="black"/>
<path d="M299.79 107.21H296.84V110.16H299.79V107.21Z" fill="black"/>
<path d="M296.83 142.19H293.95V145.08H296.83V142.19Z" fill="black"/>
<path d="M296.83 133.46H293.95V136.35H296.83V133.46Z" fill="black"/>
<path d="M296.83 127.62H293.95V130.57H296.83V127.62Z" fill="black"/>
<path d="M296.83 116H293.95V118.89H296.83V116Z" fill="black"/>
<path d="M293.95 142.19H291V145.08H293.95V142.19Z" fill="black"/>
<path d="M293.95 139.3H291V142.19H293.95V139.3Z" fill="black"/>
<path d="M293.95 136.35H291V139.3H293.95V136.35Z" fill="black"/>
<path d="M293.95 133.46H291V136.35H293.95V133.46Z" fill="black"/>
<path d="M293.95 130.57H291V133.46H293.95V130.57Z" fill="black"/>
<path d="M293.95 118.89H291V121.78H293.95V118.89Z" fill="black"/>
<path d="M291 133.46H288.11V136.35H291V133.46Z" fill="black"/>
<path d="M291 121.78H288.11V124.73H291V121.78Z" fill="black"/>
<path d="M288.11 148.03H285.22V150.92H288.11V148.03Z" fill="black"/>
<path d="M288.11 142.19H285.22V145.08H288.11V142.19Z" fill="black"/>
<path d="M288.11 136.35H285.22V139.3H288.11V136.35Z" fill="black"/>
<path d="M288.11 124.729H285.22V127.619H288.11V124.729Z" fill="black"/>
<path d="M285.22 276.22H282.27V279.11H285.22V276.22Z" fill="black"/>
<path d="M285.22 273.27H282.27V276.22H285.22V273.27Z" fill="black"/>
<path d="M285.22 150.92H282.27V153.87H285.22V150.92Z" fill="black"/>
<path d="M285.22 148.03H282.27V150.92H285.22V148.03Z" fill="black"/>
<path d="M285.22 145.08H282.27V148.03H285.22V145.08Z" fill="black"/>
<path d="M285.22 142.19H282.27V145.08H285.22V142.19Z" fill="black"/>
<path d="M285.22 139.3H282.27V142.19H285.22V139.3Z" fill="black"/>
<path d="M285.22 127.62H282.27V130.57H285.22V127.62Z" fill="black"/>
<path d="M282.27 276.22H279.38V279.11H282.27V276.22Z" fill="black"/>
<path d="M282.27 273.27H279.38V276.22H282.27V273.27Z" fill="#525D6D"/>
<path d="M282.27 270.38H279.38V273.27H282.27V270.38Z" fill="black"/>
<path d="M282.27 171.33H279.38V174.22H282.27V171.33Z" fill="black"/>
<path d="M282.27 165.49H279.38V168.38H282.27V165.49Z" fill="black"/>
<path d="M282.27 159.65H279.38V162.6H282.27V159.65Z" fill="black"/>
<path d="M282.27 142.19H279.38V145.08H282.27V142.19Z" fill="black"/>
<path d="M282.27 130.57H279.38V133.46H282.27V130.57Z" fill="black"/>
<path d="M279.38 273.27H276.43V276.22H279.38V273.27Z" fill="black"/>
<path d="M279.38 270.38H276.43V273.27H279.38V270.38Z" fill="#525D6D"/>
<path d="M279.38 267.43H276.43V270.38H279.38V267.43Z" fill="black"/>
<path d="M279.38 174.22H276.43V177.17H279.38V174.22Z" fill="black"/>
<path d="M279.38 171.33H276.43V174.22H279.38V171.33Z" fill="black"/>
<path d="M279.38 168.38H276.43V171.33H279.38V168.38Z" fill="black"/>
<path d="M279.38 165.49H276.43V168.38H279.38V165.49Z" fill="black"/>
<path d="M279.38 162.6H276.43V165.49H279.38V162.6Z" fill="black"/>
<path d="M279.38 159.65H276.43V162.6H279.38V159.65Z" fill="black"/>
<path d="M279.38 156.76H276.43V159.65H279.38V156.76Z" fill="black"/>
<path d="M279.38 153.87H276.43V156.76H279.38V153.87Z" fill="black"/>
<path d="M279.38 150.92H276.43V153.87H279.38V150.92Z" fill="black"/>
<path d="M279.38 148.03H276.43V150.92H279.38V148.03Z" fill="black"/>
<path d="M279.38 145.08H276.43V148.03H279.38V145.08Z" fill="black"/>
<path d="M279.38 133.46H276.43V136.35H279.38V133.46Z" fill="black"/>
<path d="M276.42 270.38H273.54V273.27H276.42V270.38Z" fill="black"/>
<path d="M276.42 267.43H273.54V270.38H276.42V267.43Z" fill="#525D6D"/>
<path d="M276.42 264.54H273.54V267.42H276.42V264.54Z" fill="black"/>
<path d="M276.42 148.03H273.54V150.92H276.42V148.03Z" fill="black"/>
<path d="M276.42 136.35H273.54V139.3H276.42V136.35Z" fill="black"/>
<path d="M273.54 267.43H270.65V270.38H273.54V267.43Z" fill="black"/>
<path d="M273.54 264.54H270.65V267.42H273.54V264.54Z" fill="#525D6D"/>
<path d="M273.54 261.65H270.65V264.54H273.54V261.65Z" fill="black"/>
<path d="M273.54 150.92H270.65V153.87H273.54V150.92Z" fill="black"/>
<path d="M273.54 139.3H270.65V142.19H273.54V139.3Z" fill="black"/>
<path d="M270.65 264.54H267.7V267.42H270.65V264.54Z" fill="black"/>
<path d="M270.65 261.65H267.7V264.54H270.65V261.65Z" fill="#525D6D"/>
<path d="M270.65 258.7H267.7V261.65H270.65V258.7Z" fill="black"/>
<path d="M270.65 153.87H267.7V156.76H270.65V153.87Z" fill="black"/>
<path d="M270.65 142.19H267.7V145.08H270.65V142.19Z" fill="black"/>
<path d="M267.7 156.76H264.81V159.65H267.7V156.76Z" fill="black"/>
<path d="M267.7 145.08H264.81V148.03H267.7V145.08Z" fill="black"/>
<path d="M264.81 159.65H261.92V162.6H264.81V159.65Z" fill="black"/>
<path d="M264.81 148.03H261.92V150.92H264.81V148.03Z" fill="black"/>
<path d="M261.92 165.49H258.97V168.38H261.92V165.49Z" fill="black"/>
<path d="M261.92 162.6H258.97V165.49H261.92V162.6Z" fill="black"/>
<path d="M261.92 150.92H258.97V153.87H261.92V150.92Z" fill="black"/>
<path d="M258.96 165.49H256.08V168.38H258.96V165.49Z" fill="black"/>
<path d="M258.96 162.6H256.08V165.49H258.96V162.6Z" fill="black"/>
<path d="M258.96 153.87H256.08V156.76H258.96V153.87Z" fill="black"/>
<path d="M256.08 159.65H253.13V162.6H256.08V159.65Z" fill="black"/>
<path d="M256.08 156.76H253.13V159.65H256.08V156.76Z" fill="black"/>
<path d="M253.13 159.65H250.24V162.6H253.13V159.65Z" fill="black"/>
<path d="M162.87 171.33H159.92V174.22H162.87V171.33Z" fill="black"/>
<path d="M159.92 174.22H157.03V177.17H159.92V174.22Z" fill="black"/>
<path d="M159.92 171.33H157.03V174.22H159.92V171.33Z" fill="#525D6D"/>
<path d="M159.92 168.38H157.03V171.33H159.92V168.38Z" fill="black"/>
<path d="M157.03 171.33H154.08V174.22H157.03V171.33Z" fill="black"/>
<path d="M157.03 168.38H154.08V171.33H157.03V168.38Z" fill="#525D6D"/>
<path d="M157.03 165.49H154.08V168.38H157.03V165.49Z" fill="black"/>
<path d="M154.08 168.38H151.19V171.33H154.08V168.38Z" fill="black"/>
<path d="M154.08 165.49H151.19V168.38H154.08V165.49Z" fill="#525D6D"/>
<path d="M154.08 162.6H151.19V165.49H154.08V162.6Z" fill="black"/>
<path d="M151.19 165.49H148.3V168.38H151.19V165.49Z" fill="black"/>
<path d="M151.19 162.6H148.3V165.49H151.19V162.6Z" fill="#525D6D"/>
<path d="M151.19 159.65H148.3V162.6H151.19V159.65Z" fill="black"/>
<path d="M148.3 276.22H145.35V279.11H148.3V276.22Z" fill="black"/>
<path d="M148.3 273.27H145.35V276.22H148.3V273.27Z" fill="#360066"/>
<path d="M148.3 270.38H145.35V273.27H148.3V270.38Z" fill="#360066"/>
<path d="M148.3 267.43H145.35V270.38H148.3V267.43Z" fill="#360066"/>
<path d="M148.3 264.54H145.35V267.42H148.3V264.54Z" fill="black"/>
<path d="M148.3 162.6H145.35V165.49H148.3V162.6Z" fill="black"/>
<path d="M148.3 159.65H145.35V162.6H148.3V159.65Z" fill="#525D6D"/>
<path d="M148.3 156.76H145.35V159.65H148.3V156.76Z" fill="black"/>
<path d="M145.35 276.22H142.46V279.11H145.35V276.22Z" fill="black"/>
<path d="M145.35 273.27H142.46V276.22H145.35V273.27Z" fill="#360066"/>
<path d="M145.35 270.38H142.46V273.27H145.35V270.38Z" fill="#360066"/>
<path d="M145.35 267.43H142.46V270.38H145.35V267.43Z" fill="#360066"/>
<path d="M145.35 264.54H142.46V267.42H145.35V264.54Z" fill="black"/>
<path d="M145.35 162.6H142.46V165.49H145.35V162.6Z" fill="black"/>
<path d="M145.35 159.65H142.46V162.6H145.35V159.65Z" fill="black"/>
<path d="M145.35 156.76H142.46V159.65H145.35V156.76Z" fill="#525D6D"/>
<path d="M145.35 153.87H142.46V156.76H145.35V153.87Z" fill="black"/>
<path d="M142.46 282H139.57V284.95H142.46V282Z" fill="black"/>
<path d="M142.46 279.11H139.57V282H142.46V279.11Z" fill="black"/>
<path d="M142.46 276.22H139.57V279.11H142.46V276.22Z" fill="black"/>
<path d="M142.46 273.27H139.57V276.22H142.46V273.27Z" fill="#360066"/>
<path d="M142.46 270.38H139.57V273.27H142.46V270.38Z" fill="#360066"/>
<path d="M142.46 267.43H139.57V270.38H142.46V267.43Z" fill="#360066"/>
<path d="M142.46 264.54H139.57V267.42H142.46V264.54Z" fill="black"/>
<path d="M142.46 162.6H139.57V165.49H142.46V162.6Z" fill="black"/>
<path d="M142.46 159.65H139.57V162.6H142.46V159.65Z" fill="#4A535E"/>
<path d="M142.46 156.76H139.57V159.65H142.46V156.76Z" fill="black"/>
<path d="M142.46 153.87H139.57V156.76H142.46V153.87Z" fill="#525D6D"/>
<path d="M142.46 150.92H139.57V153.87H142.46V150.92Z" fill="black"/>
<path d="M139.57 282H136.62V284.95H139.57V282Z" fill="black"/>
<path d="M139.57 279.11H136.62V282H139.57V279.11Z" fill="#360066"/>
<path d="M139.57 276.22H136.62V279.11H139.57V276.22Z" fill="black"/>
<path d="M139.57 273.27H136.62V276.22H139.57V273.27Z" fill="black"/>
<path d="M139.57 270.38H136.62V273.27H139.57V270.38Z" fill="black"/>
<path d="M139.57 267.43H136.62V270.38H139.57V267.43Z" fill="black"/>
<path d="M139.57 264.54H136.62V267.42H139.57V264.54Z" fill="black"/>
<path d="M139.57 244.13H136.62V247.08H139.57V244.13Z" fill="black"/>
<path d="M139.57 162.6H136.62V165.49H139.57V162.6Z" fill="black"/>
<path d="M139.57 159.65H136.62V162.6H139.57V159.65Z" fill="#4A535E"/>
<path d="M139.57 156.76H136.62V159.65H139.57V156.76Z" fill="#5F646D"/>
<path d="M139.57 153.87H136.62V156.76H139.57V153.87Z" fill="black"/>
<path d="M139.57 150.92H136.62V153.87H139.57V150.92Z" fill="#525D6D"/>
<path d="M139.57 148.03H136.62V150.92H139.57V148.03Z" fill="black"/>
<path d="M136.62 282H133.73V284.95H136.62V282Z" fill="black"/>
<path d="M136.62 279.11H133.73V282H136.62V279.11Z" fill="#360066"/>
<path d="M136.62 276.22H133.73V279.11H136.62V276.22Z" fill="#360066"/>
<path d="M136.62 273.27H133.73V276.22H136.62V273.27Z" fill="#360066"/>
<path d="M136.62 270.38H133.73V273.27H136.62V270.38Z" fill="black"/>
<path d="M136.62 244.13H133.73V247.08H136.62V244.13Z" fill="black"/>
<path d="M136.62 241.24H133.73V244.13H136.62V241.24Z" fill="black"/>
<path d="M136.62 165.49H133.73V168.38H136.62V165.49Z" fill="black"/>
<path d="M136.62 162.6H133.73V165.49H136.62V162.6Z" fill="#4A535E"/>
<path d="M136.62 159.65H133.73V162.6H136.62V159.65Z" fill="#4A535E"/>
<path d="M136.62 156.76H133.73V159.65H136.62V156.76Z" fill="#5F646D"/>
<path d="M136.62 153.87H133.73V156.76H136.62V153.87Z" fill="#5F646D"/>
<path d="M136.62 150.92H133.73V153.87H136.62V150.92Z" fill="black"/>
<path d="M136.62 148.03H133.73V150.92H136.62V148.03Z" fill="#525D6D"/>
<path d="M136.62 145.08H133.73V148.03H136.62V145.08Z" fill="black"/>
<path d="M133.73 282H130.78V284.95H133.73V282Z" fill="black"/>
<path d="M133.73 279.11H130.78V282H133.73V279.11Z" fill="black"/>
<path d="M133.73 276.22H130.78V279.11H133.73V276.22Z" fill="black"/>
<path d="M133.73 273.27H130.78V276.22H133.73V273.27Z" fill="black"/>
<path d="M133.73 270.38H130.78V273.27H133.73V270.38Z" fill="black"/>
<path d="M133.73 244.13H130.78V247.08H133.73V244.13Z" fill="black"/>
<path d="M133.73 241.24H130.78V244.13H133.73V241.24Z" fill="#4A535E"/>
<path d="M133.73 238.35H130.78V241.24H133.73V238.35Z" fill="black"/>
<path d="M133.73 165.49H130.78V168.38H133.73V165.49Z" fill="black"/>
<path d="M133.73 162.6H130.78V165.49H133.73V162.6Z" fill="#4A535E"/>
<path d="M133.73 159.65H130.78V162.6H133.73V159.65Z" fill="#5F646D"/>
<path d="M133.73 156.76H130.78V159.65H133.73V156.76Z" fill="#5F646D"/>
<path d="M133.73 153.87H130.78V156.76H133.73V153.87Z" fill="#5F646D"/>
<path d="M133.73 150.92H130.78V153.87H133.73V150.92Z" fill="black"/>
<path d="M133.73 148.03H130.78V150.92H133.73V148.03Z" fill="black"/>
<path d="M133.73 145.08H130.78V148.03H133.73V145.08Z" fill="#525D6D"/>
<path d="M133.73 142.19H130.78V145.08H133.73V142.19Z" fill="black"/>
<path d="M130.78 244.13H127.89V247.08H130.78V244.13Z" fill="black"/>
<path d="M130.78 241.24H127.89V244.13H130.78V241.24Z" fill="#4A535E"/>
<path d="M130.78 238.35H127.89V241.24H130.78V238.35Z" fill="#4A535E"/>
<path d="M130.78 235.4H127.89V238.35H130.78V235.4Z" fill="black"/>
<path d="M130.78 168.38H127.89V171.33H130.78V168.38Z" fill="black"/>
<path d="M130.78 165.49H127.89V168.38H130.78V165.49Z" fill="#4A535E"/>
<path d="M130.78 162.6H127.89V165.49H130.78V162.6Z" fill="#4A535E"/>
<path d="M130.78 159.65H127.89V162.6H130.78V159.65Z" fill="#5F646D"/>
<path d="M130.78 156.76H127.89V159.65H130.78V156.76Z" fill="#5F646D"/>
<path d="M130.78 153.87H127.89V156.76H130.78V153.87Z" fill="#5F646D"/>
<path d="M130.78 150.92H127.89V153.87H130.78V150.92Z" fill="#4A535E"/>
<path d="M130.78 148.03H127.89V150.92H130.78V148.03Z" fill="black"/>
<path d="M130.78 145.08H127.89V148.03H130.78V145.08Z" fill="#525D6D"/>
<path d="M130.78 142.19H127.89V145.08H130.78V142.19Z" fill="black"/>
<path d="M127.89 241.24H125V244.13H127.89V241.24Z" fill="black"/>
<path d="M127.89 238.35H125V241.24H127.89V238.35Z" fill="#4A535E"/>
<path d="M127.89 235.4H125V238.35H127.89V235.4Z" fill="#4A535E"/>
<path d="M127.89 232.51H125V235.4H127.89V232.51Z" fill="black"/>
<path d="M127.89 229.62H125V232.5H127.89V229.62Z" fill="black"/>
<path d="M127.89 168.38H125V171.33H127.89V168.38Z" fill="black"/>
<path d="M127.89 165.49H125V168.38H127.89V165.49Z" fill="#4A535E"/>
<path d="M127.89 162.6H125V165.49H127.89V162.6Z" fill="#5F646D"/>
<path d="M127.89 159.65H125V162.6H127.89V159.65Z" fill="#5F646D"/>
<path d="M127.89 156.76H125V159.65H127.89V156.76Z" fill="#5F646D"/>
<path d="M127.89 153.87H125V156.76H127.89V153.87Z" fill="#5F646D"/>
<path d="M127.89 150.92H125V153.87H127.89V150.92Z" fill="#4A535E"/>
<path d="M127.89 148.03H125V150.92H127.89V148.03Z" fill="black"/>
<path d="M127.89 145.08H125V148.03H127.89V145.08Z" fill="#525D6D"/>
<path d="M127.89 142.19H125V145.08H127.89V142.19Z" fill="black"/>
<path d="M125 241.24H122.05V244.13H125V241.24Z" fill="black"/>
<path d="M125 238.35H122.05V241.24H125V238.35Z" fill="#4A535E"/>
<path d="M125 235.4H122.05V238.35H125V235.4Z" fill="#4A535E"/>
<path d="M125 232.51H122.05V235.4H125V232.51Z" fill="#4A535E"/>
<path d="M125 229.62H122.05V232.5H125V229.62Z" fill="#4A535E"/>
<path d="M125 226.67H122.05V229.62H125V226.67Z" fill="black"/>
<path d="M125 223.78H122.05V226.67H125V223.78Z" fill="black"/>
<path d="M125 171.33H122.05V174.22H125V171.33Z" fill="black"/>
<path d="M125 168.38H122.05V171.33H125V168.38Z" fill="#4A535E"/>
<path d="M125 165.49H122.05V168.38H125V165.49Z" fill="#4A535E"/>
<path d="M125 162.6H122.05V165.49H125V162.6Z" fill="#5F646D"/>
<path d="M125 159.65H122.05V162.6H125V159.65Z" fill="#5F646D"/>
<path d="M125 156.76H122.05V159.65H125V156.76Z" fill="#5F646D"/>
<path d="M125 153.87H122.05V156.76H125V153.87Z" fill="#5F646D"/>
<path d="M125 150.92H122.05V153.87H125V150.92Z" fill="#4A535E"/>
<path d="M125 148.03H122.05V150.92H125V148.03Z" fill="#4A535E"/>
<path d="M125 145.08H122.05V148.03H125V145.08Z" fill="black"/>
<path d="M122.05 241.24H119.16V244.13H122.05V241.24Z" fill="black"/>
<path d="M122.05 238.35H119.16V241.24H122.05V238.35Z" fill="#4A535E"/>
<path d="M122.05 235.4H119.16V238.35H122.05V235.4Z" fill="#4A535E"/>
<path d="M122.05 232.51H119.16V235.4H122.05V232.51Z" fill="#5F646D"/>
<path d="M122.05 229.62H119.16V232.5H122.05V229.62Z" fill="#4A535E"/>
<path d="M122.05 226.67H119.16V229.62H122.05V226.67Z" fill="#4A535E"/>
<path d="M122.05 223.78H119.16V226.67H122.05V223.78Z" fill="#4A535E"/>
<path d="M122.05 220.83H119.16V223.78H122.05V220.83Z" fill="black"/>
<path d="M122.05 217.94H119.16V220.83H122.05V217.94Z" fill="black"/>
<path d="M122.05 174.22H119.16V177.17H122.05V174.22Z" fill="black"/>
<path d="M122.05 171.33H119.16V174.22H122.05V171.33Z" fill="#4A535E"/>
<path d="M122.05 168.38H119.16V171.33H122.05V168.38Z" fill="#4A535E"/>
<path d="M122.05 165.49H119.16V168.38H122.05V165.49Z" fill="#5F646D"/>
<path d="M122.05 162.6H119.16V165.49H122.05V162.6Z" fill="#5F646D"/>
<path d="M122.05 159.65H119.16V162.6H122.05V159.65Z" fill="#5F646D"/>
<path d="M122.05 156.76H119.16V159.65H122.05V156.76Z" fill="#5F646D"/>
<path d="M122.05 153.87H119.16V156.76H122.05V153.87Z" fill="#5F646D"/>
<path d="M122.05 150.92H119.16V153.87H122.05V150.92Z" fill="#4A535E"/>
<path d="M122.05 148.03H119.16V150.92H122.05V148.03Z" fill="#4A535E"/>
<path d="M122.05 145.08H119.16V148.03H122.05V145.08Z" fill="black"/>
<path d="M119.16 238.35H116.21V241.24H119.16V238.35Z" fill="black"/>
<path d="M119.16 235.4H116.21V238.35H119.16V235.4Z" fill="#4A535E"/>
<path d="M119.16 232.51H116.21V235.4H119.16V232.51Z" fill="#5F646D"/>
<path d="M119.16 229.62H116.21V232.5H119.16V229.62Z" fill="#5F646D"/>
<path d="M119.16 226.67H116.21V229.62H119.16V226.67Z" fill="#5F646D"/>
<path d="M119.16 223.78H116.21V226.67H119.16V223.78Z" fill="#4A535E"/>
<path d="M119.16 220.83H116.21V223.78H119.16V220.83Z" fill="#5F646D"/>
<path d="M119.16 217.94H116.21V220.83H119.16V217.94Z" fill="#5F646D"/>
<path d="M119.16 215.05H116.21V217.94H119.16V215.05Z" fill="black"/>
<path d="M119.16 212.1H116.21V215.05H119.16V212.1Z" fill="black"/>
<path d="M119.16 177.17H116.21V180.06H119.16V177.17Z" fill="black"/>
<path d="M119.16 174.22H116.21V177.17H119.16V174.22Z" fill="#4A535E"/>
<path d="M119.16 171.33H116.21V174.22H119.16V171.33Z" fill="#4A535E"/>
<path d="M119.16 168.38H116.21V171.33H119.16V168.38Z" fill="#5F646D"/>
<path d="M119.16 165.49H116.21V168.38H119.16V165.49Z" fill="#5F646D"/>
<path d="M119.16 162.6H116.21V165.49H119.16V162.6Z" fill="#5F646D"/>
<path d="M119.16 159.65H116.21V162.6H119.16V159.65Z" fill="#5F646D"/>
<path d="M119.16 156.76H116.21V159.65H119.16V156.76Z" fill="#4A535E"/>
<path d="M119.16 153.87H116.21V156.76H119.16V153.87Z" fill="#4A535E"/>
<path d="M119.16 150.92H116.21V153.87H119.16V150.92Z" fill="#4A535E"/>
<path d="M119.16 148.03H116.21V150.92H119.16V148.03Z" fill="black"/>
<path d="M116.21 238.35H113.32V241.24H116.21V238.35Z" fill="black"/>
<path d="M116.21 235.4H113.32V238.35H116.21V235.4Z" fill="#4A535E"/>
<path d="M116.21 232.51H113.32V235.4H116.21V232.51Z" fill="#4A535E"/>
<path d="M116.21 229.62H113.32V232.5H116.21V229.62Z" fill="#5F646D"/>
<path d="M116.21 226.67H113.32V229.62H116.21V226.67Z" fill="#5F646D"/>
<path d="M116.21 223.78H113.32V226.67H116.21V223.78Z" fill="#5F646D"/>
<path d="M116.21 220.83H113.32V223.78H116.21V220.83Z" fill="#5F646D"/>
<path d="M116.21 217.94H113.32V220.83H116.21V217.94Z" fill="#5F646D"/>
<path d="M116.21 215.05H113.32V217.94H116.21V215.05Z" fill="#5F646D"/>
<path d="M116.21 212.1H113.32V215.05H116.21V212.1Z" fill="#5F646D"/>
<path d="M116.21 209.21H113.32V212.09H116.21V209.21Z" fill="black"/>
<path d="M116.21 206.26H113.32V209.21H116.21V206.26Z" fill="black"/>
<path d="M116.21 203.37H113.32V206.26H116.21V203.37Z" fill="black"/>
<path d="M116.21 180.06H113.32V182.95H116.21V180.06Z" fill="black"/>
<path d="M116.21 177.17H113.32V180.06H116.21V177.17Z" fill="#4A535E"/>
<path d="M116.21 174.22H113.32V177.17H116.21V174.22Z" fill="#4A535E"/>
<path d="M116.21 171.33H113.32V174.22H116.21V171.33Z" fill="#4A535E"/>
<path d="M116.21 168.38H113.32V171.33H116.21V168.38Z" fill="#5F646D"/>
<path d="M116.21 165.49H113.32V168.38H116.21V165.49Z" fill="#5F646D"/>
<path d="M116.21 162.6H113.32V165.49H116.21V162.6Z" fill="#5F646D"/>
<path d="M116.21 159.65H113.32V162.6H116.21V159.65Z" fill="#5F646D"/>
<path d="M116.21 156.76H113.32V159.65H116.21V156.76Z" fill="#4A535E"/>
<path d="M116.21 153.87H113.32V156.76H116.21V153.87Z" fill="#4A535E"/>
<path d="M116.21 150.92H113.32V153.87H116.21V150.92Z" fill="black"/>
<path d="M113.32 235.4H110.43V238.35H113.32V235.4Z" fill="black"/>
<path d="M113.32 232.51H110.43V235.4H113.32V232.51Z" fill="black"/>
<path d="M113.32 229.62H110.43V232.5H113.32V229.62Z" fill="#4A535E"/>
<path d="M113.32 226.67H110.43V229.62H113.32V226.67Z" fill="#5F646D"/>
<path d="M113.32 223.78H110.43V226.67H113.32V223.78Z" fill="#5F646D"/>
<path d="M113.32 220.83H110.43V223.78H113.32V220.83Z" fill="#5F646D"/>
<path d="M113.32 217.94H110.43V220.83H113.32V217.94Z" fill="#5F646D"/>
<path d="M113.32 215.05H110.43V217.94H113.32V215.05Z" fill="#5F646D"/>
<path d="M113.32 212.1H110.43V215.05H113.32V212.1Z" fill="#5F646D"/>
<path d="M113.32 209.21H110.43V212.09H113.32V209.21Z" fill="#5F646D"/>
<path d="M113.32 206.26H110.43V209.21H113.32V206.26Z" fill="#4A535E"/>
<path d="M113.32 203.37H110.43V206.26H113.32V203.37Z" fill="#5F646D"/>
<path d="M113.32 200.47H110.43V203.36H113.32V200.47Z" fill="black"/>
<path d="M113.32 197.53H110.43V200.48H113.32V197.53Z" fill="black"/>
<path d="M113.32 188.79H110.43V191.74H113.32V188.79Z" fill="black"/>
<path d="M113.32 185.9H110.43V188.79H113.32V185.9Z" fill="black"/>
<path d="M113.32 182.95H110.43V185.9H113.32V182.95Z" fill="black"/>
<path d="M113.32 180.06H110.43V182.95H113.32V180.06Z" fill="#4A535E"/>
<path d="M113.32 177.17H110.43V180.06H113.32V177.17Z" fill="#4A535E"/>
<path d="M113.32 174.22H110.43V177.17H113.32V174.22Z" fill="#5F646D"/>
<path d="M113.32 171.33H110.43V174.22H113.32V171.33Z" fill="#5F646D"/>
<path d="M113.32 168.38H110.43V171.33H113.32V168.38Z" fill="#5F646D"/>
<path d="M113.32 165.49H110.43V168.38H113.32V165.49Z" fill="#5F646D"/>
<path d="M113.32 162.6H110.43V165.49H113.32V162.6Z" fill="#5F646D"/>
<path d="M113.32 159.65H110.43V162.6H113.32V159.65Z" fill="#4A535E"/>
<path d="M113.32 156.76H110.43V159.65H113.32V156.76Z" fill="#4A535E"/>
<path d="M113.32 153.87H110.43V156.76H113.32V153.87Z" fill="#4A535E"/>
<path d="M113.32 150.92H110.43V153.87H113.32V150.92Z" fill="black"/>
<path d="M110.43 232.51H107.48V235.4H110.43V232.51Z" fill="black"/>
<path d="M110.43 229.62H107.48V232.5H110.43V229.62Z" fill="#4A535E"/>
<path d="M110.43 226.67H107.48V229.62H110.43V226.67Z" fill="#4A535E"/>
<path d="M110.43 223.78H107.48V226.67H110.43V223.78Z" fill="#5F646D"/>
<path d="M110.43 220.83H107.48V223.78H110.43V220.83Z" fill="#5F646D"/>
<path d="M110.43 217.94H107.48V220.83H110.43V217.94Z" fill="#5F646D"/>
<path d="M110.43 215.05H107.48V217.94H110.43V215.05Z" fill="#5F646D"/>
<path d="M110.43 212.1H107.48V215.05H110.43V212.1Z" fill="#5F646D"/>
<path d="M110.43 209.21H107.48V212.09H110.43V209.21Z" fill="#5F646D"/>
<path d="M110.43 206.26H107.48V209.21H110.43V206.26Z" fill="#5F646D"/>
<path d="M110.43 203.37H107.48V206.26H110.43V203.37Z" fill="#5F646D"/>
<path d="M110.43 200.47H107.48V203.36H110.43V200.47Z" fill="#4A535E"/>
<path d="M110.43 197.53H107.48V200.48H110.43V197.53Z" fill="#4A535E"/>
<path d="M110.43 194.63H107.48V197.52H110.43V194.63Z" fill="black"/>
<path d="M110.43 191.74H107.48V194.63H110.43V191.74Z" fill="black"/>
<path d="M110.43 188.79H107.48V191.74H110.43V188.79Z" fill="#4A535E"/>
<path d="M110.43 185.9H107.48V188.79H110.43V185.9Z" fill="#4A535E"/>
<path d="M110.43 182.95H107.48V185.9H110.43V182.95Z" fill="#4A535E"/>
<path d="M110.43 180.06H107.48V182.95H110.43V180.06Z" fill="#4A535E"/>
<path d="M110.43 177.17H107.48V180.06H110.43V177.17Z" fill="#5F646D"/>
<path d="M110.43 174.22H107.48V177.17H110.43V174.22Z" fill="#5F646D"/>
<path d="M110.43 171.33H107.48V174.22H110.43V171.33Z" fill="#5F646D"/>
<path d="M110.43 168.38H107.48V171.33H110.43V168.38Z" fill="#5F646D"/>
<path d="M110.43 165.49H107.48V168.38H110.43V165.49Z" fill="#5F646D"/>
<path d="M110.43 162.6H107.48V165.49H110.43V162.6Z" fill="#4A535E"/>
<path d="M110.43 159.65H107.48V162.6H110.43V159.65Z" fill="#4A535E"/>
<path d="M110.43 156.76H107.48V159.65H110.43V156.76Z" fill="black"/>
<path d="M110.43 153.87H107.48V156.76H110.43V153.87Z" fill="black"/>
<path d="M107.48 229.62H104.59V232.5H107.48V229.62Z" fill="black"/>
<path d="M107.48 226.67H104.59V229.62H107.48V226.67Z" fill="black"/>
<path d="M107.48 223.78H104.59V226.67H107.48V223.78Z" fill="#5F646D"/>
<path d="M107.48 220.83H104.59V223.78H107.48V220.83Z" fill="#5F646D"/>
<path d="M107.48 217.94H104.59V220.83H107.48V217.94Z" fill="#5F646D"/>
<path d="M107.48 215.05H104.59V217.94H107.48V215.05Z" fill="#5F646D"/>
<path d="M107.48 212.1H104.59V215.05H107.48V212.1Z" fill="#5F646D"/>
<path d="M107.48 209.21H104.59V212.09H107.48V209.21Z" fill="#5F646D"/>
<path d="M107.48 206.26H104.59V209.21H107.48V206.26Z" fill="#5F646D"/>
<path d="M107.48 203.37H104.59V206.26H107.48V203.37Z" fill="#5F646D"/>
<path d="M107.48 200.47H104.59V203.36H107.48V200.47Z" fill="#5F646D"/>
<path d="M107.48 197.53H104.59V200.48H107.48V197.53Z" fill="#4A535E"/>
<path d="M107.48 194.63H104.59V197.52H107.48V194.63Z" fill="#4A535E"/>
<path d="M107.48 191.74H104.59V194.63H107.48V191.74Z" fill="#4A535E"/>
<path d="M107.48 188.79H104.59V191.74H107.48V188.79Z" fill="#4A535E"/>
<path d="M107.48 185.9H104.59V188.79H107.48V185.9Z" fill="#4A535E"/>
<path d="M107.48 182.95H104.59V185.9H107.48V182.95Z" fill="#5F646D"/>
<path d="M107.48 180.06H104.59V182.95H107.48V180.06Z" fill="#5F646D"/>
<path d="M107.48 177.17H104.59V180.06H107.48V177.17Z" fill="#5F646D"/>
<path d="M107.48 174.22H104.59V177.17H107.48V174.22Z" fill="#5F646D"/>
<path d="M107.48 171.33H104.59V174.22H107.48V171.33Z" fill="#5F646D"/>
<path d="M107.48 168.38H104.59V171.33H107.48V168.38Z" fill="#5F646D"/>
<path d="M107.48 165.49H104.59V168.38H107.48V165.49Z" fill="#4A535E"/>
<path d="M107.48 162.6H104.59V165.49H107.48V162.6Z" fill="#4A535E"/>
<path d="M107.48 159.65H104.59V162.6H107.48V159.65Z" fill="black"/>
<path d="M107.48 156.76H104.59V159.65H107.48V156.76Z" fill="black"/>
<path d="M104.59 226.67H101.7V229.62H104.59V226.67Z" fill="black"/>
<path d="M104.59 223.78H101.7V226.67H104.59V223.78Z" fill="black"/>
<path d="M104.59 220.83H101.7V223.78H104.59V220.83Z" fill="#5F646D"/>
<path d="M104.59 217.94H101.7V220.83H104.59V217.94Z" fill="#5F646D"/>
<path d="M104.59 215.05H101.7V217.94H104.59V215.05Z" fill="#5F646D"/>
<path d="M104.59 212.1H101.7V215.05H104.59V212.1Z" fill="#5F646D"/>
<path d="M104.59 209.21H101.7V212.09H104.59V209.21Z" fill="#5F646D"/>
<path d="M104.59 206.26H101.7V209.21H104.59V206.26Z" fill="#5F646D"/>
<path d="M104.59 203.37H101.7V206.26H104.59V203.37Z" fill="#5F646D"/>
<path d="M104.59 200.47H101.7V203.36H104.59V200.47Z" fill="#5F646D"/>
<path d="M104.59 197.53H101.7V200.48H104.59V197.53Z" fill="#5F646D"/>
<path d="M104.59 194.63H101.7V197.52H104.59V194.63Z" fill="#5F646D"/>
<path d="M104.59 191.74H101.7V194.63H104.59V191.74Z" fill="#5F646D"/>
<path d="M104.59 188.79H101.7V191.74H104.59V188.79Z" fill="#5F646D"/>
<path d="M104.59 185.9H101.7V188.79H104.59V185.9Z" fill="#5F646D"/>
<path d="M104.59 182.95H101.7V185.9H104.59V182.95Z" fill="#5F646D"/>
<path d="M104.59 180.06H101.7V182.95H104.59V180.06Z" fill="#5F646D"/>
<path d="M104.59 177.17H101.7V180.06H104.59V177.17Z" fill="#5F646D"/>
<path d="M104.59 174.22H101.7V177.17H104.59V174.22Z" fill="#5F646D"/>
<path d="M104.59 171.33H101.7V174.22H104.59V171.33Z" fill="#5F646D"/>
<path d="M104.59 168.38H101.7V171.33H104.59V168.38Z" fill="#4A535E"/>
<path d="M104.59 165.49H101.7V168.38H104.59V165.49Z" fill="#4A535E"/>
<path d="M104.59 162.6H101.7V165.49H104.59V162.6Z" fill="black"/>
<path d="M104.59 159.65H101.7V162.6H104.59V159.65Z" fill="black"/>
<path d="M101.7 220.83H98.75V223.78H101.7V220.83Z" fill="black"/>
<path d="M101.7 217.94H98.75V220.83H101.7V217.94Z" fill="#5F646D"/>
<path d="M101.7 215.05H98.75V217.94H101.7V215.05Z" fill="#5F646D"/>
<path d="M101.7 212.1H98.75V215.05H101.7V212.1Z" fill="#5F646D"/>
<path d="M101.7 209.21H98.75V212.09H101.7V209.21Z" fill="#5F646D"/>
<path d="M101.7 206.26H98.75V209.21H101.7V206.26Z" fill="#5F646D"/>
<path d="M101.7 203.37H98.75V206.26H101.7V203.37Z" fill="#5F646D"/>
<path d="M101.7 200.47H98.75V203.36H101.7V200.47Z" fill="#5F646D"/>
<path d="M101.7 197.53H98.75V200.48H101.7V197.53Z" fill="#5F646D"/>
<path d="M101.7 194.63H98.75V197.52H101.7V194.63Z" fill="#5F646D"/>
<path d="M101.7 191.74H98.75V194.63H101.7V191.74Z" fill="#5F646D"/>
<path d="M101.7 188.79H98.75V191.74H101.7V188.79Z" fill="#5F646D"/>
<path d="M101.7 185.9H98.75V188.79H101.7V185.9Z" fill="#5F646D"/>
<path d="M101.7 182.95H98.75V185.9H101.7V182.95Z" fill="#5F646D"/>
<path d="M101.7 180.06H98.75V182.95H101.7V180.06Z" fill="#5F646D"/>
<path d="M101.7 177.17H98.75V180.06H101.7V177.17Z" fill="#5F646D"/>
<path d="M101.7 174.22H98.75V177.17H101.7V174.22Z" fill="#5F646D"/>
<path d="M101.7 171.33H98.75V174.22H101.7V171.33Z" fill="#4A535E"/>
<path d="M101.7 168.38H98.75V171.33H101.7V168.38Z" fill="#4A535E"/>
<path d="M101.7 165.49H98.75V168.38H101.7V165.49Z" fill="black"/>
<path d="M101.7 162.6H98.75V165.49H101.7V162.6Z" fill="black"/>
<path d="M98.7501 220.83H95.8601V223.78H98.7501V220.83Z" fill="black"/>
<path d="M98.7501 217.94H95.8601V220.83H98.7501V217.94Z" fill="black"/>
<path d="M98.7501 215.05H95.8601V217.94H98.7501V215.05Z" fill="black"/>
<path d="M98.7501 212.1H95.8601V215.05H98.7501V212.1Z" fill="black"/>
<path d="M98.7501 209.21H95.8601V212.09H98.7501V209.21Z" fill="#4A535E"/>
<path d="M98.7501 206.26H95.8601V209.21H98.7501V206.26Z" fill="#4A535E"/>
<path d="M98.7501 203.37H95.8601V206.26H98.7501V203.37Z" fill="#4A535E"/>
<path d="M98.7501 200.47H95.8601V203.36H98.7501V200.47Z" fill="#4A535E"/>
<path d="M98.7501 197.53H95.8601V200.48H98.7501V197.53Z" fill="#4A535E"/>
<path d="M98.7501 194.63H95.8601V197.52H98.7501V194.63Z" fill="#5F646D"/>
<path d="M98.7501 191.74H95.8601V194.63H98.7501V191.74Z" fill="#5F646D"/>
<path d="M98.7501 188.79H95.8601V191.74H98.7501V188.79Z" fill="#5F646D"/>
<path d="M98.7501 185.9H95.8601V188.79H98.7501V185.9Z" fill="#5F646D"/>
<path d="M98.7501 182.95H95.8601V185.9H98.7501V182.95Z" fill="#5F646D"/>
<path d="M98.7501 180.06H95.8601V182.95H98.7501V180.06Z" fill="#4A535E"/>
<path d="M98.7501 177.17H95.8601V180.06H98.7501V177.17Z" fill="#4A535E"/>
<path d="M98.7501 174.22H95.8601V177.17H98.7501V174.22Z" fill="#4A535E"/>
<path d="M98.7501 171.33H95.8601V174.22H98.7501V171.33Z" fill="#4A535E"/>
<path d="M98.7501 168.38H95.8601V171.33H98.7501V168.38Z" fill="black"/>
<path d="M98.7501 165.49H95.8601V168.38H98.7501V165.49Z" fill="black"/>
<path d="M95.8599 212.1H92.9099V215.05H95.8599V212.1Z" fill="black"/>
<path d="M95.8599 209.21H92.9099V212.09H95.8599V209.21Z" fill="black"/>
<path d="M95.8599 206.26H92.9099V209.21H95.8599V206.26Z" fill="black"/>
<path d="M95.8599 203.37H92.9099V206.26H95.8599V203.37Z" fill="black"/>
<path d="M95.8599 200.47H92.9099V203.36H95.8599V200.47Z" fill="black"/>
<path d="M95.8599 197.53H92.9099V200.48H95.8599V197.53Z" fill="#4A535E"/>
<path d="M95.8599 194.63H92.9099V197.52H95.8599V194.63Z" fill="#4A535E"/>
<path d="M95.8599 191.74H92.9099V194.63H95.8599V191.74Z" fill="#4A535E"/>
<path d="M95.8599 188.79H92.9099V191.74H95.8599V188.79Z" fill="#4A535E"/>
<path d="M95.8599 185.9H92.9099V188.79H95.8599V185.9Z" fill="#4A535E"/>
<path d="M95.8599 182.95H92.9099V185.9H95.8599V182.95Z" fill="#4A535E"/>
<path d="M95.8599 180.06H92.9099V182.95H95.8599V180.06Z" fill="black"/>
<path d="M95.8599 177.17H92.9099V180.06H95.8599V177.17Z" fill="black"/>
<path d="M95.8599 174.22H92.9099V177.17H95.8599V174.22Z" fill="black"/>
<path d="M95.8599 171.33H92.9099V174.22H95.8599V171.33Z" fill="black"/>
<path d="M95.8599 168.38H92.9099V171.33H95.8599V168.38Z" fill="black"/>
<path d="M92.91 200.47H90.02V203.36H92.91V200.47Z" fill="black"/>
<path d="M92.91 197.53H90.02V200.48H92.91V197.53Z" fill="black"/>
<path d="M92.91 194.63H90.02V197.52H92.91V194.63Z" fill="black"/>
<path d="M92.91 191.74H90.02V194.63H92.91V191.74Z" fill="black"/>
<path d="M92.91 188.79H90.02V191.74H92.91V188.79Z" fill="black"/>
<path d="M92.91 185.9H90.02V188.79H92.91V185.9Z" fill="black"/>
<path d="M92.91 182.95H90.02V185.9H92.91V182.95Z" fill="black"/>
<path d="M92.91 180.06H90.02V182.95H92.91V180.06Z" fill="black"/>
</svg>
