<svg width="400" height="400" viewBox="0 0 400 400" fill="none" xmlns="http://www.w3.org/2000/svg">
<path d="M200 385.78C302.603 385.78 385.78 302.603 385.78 200C385.78 97.3963 302.603 14.2197 200 14.2197C97.3965 14.2197 14.22 97.3963 14.22 200C14.22 302.603 97.3965 385.78 200 385.78Z" fill="black"/>
<path d="M200 392.78C93.7 392.78 7.21997 306.3 7.21997 200C7.21997 93.6997 93.7 7.21973 200 7.21973C306.3 7.21973 392.78 93.6997 392.78 200C392.78 306.3 306.3 392.78 200 392.78ZM200 21.2197C101.42 21.2197 21.22 101.42 21.22 200C21.22 298.58 101.42 378.78 200 378.78C298.58 378.78 378.78 298.58 378.78 200C378.78 101.42 298.58 21.2197 200 21.2197Z" fill="#D35353"/>
<path d="M316.02 252.521H309.43V259.05H316.02V252.521Z" fill="black"/>
<path d="M316.02 245.931H309.43V252.521H316.02V245.931Z" fill="black"/>
<path d="M316.02 239.4H309.43V245.93H316.02V239.4Z" fill="black"/>
<path d="M309.43 252.521H302.9V259.05H309.43V252.521Z" fill="black"/>
<path d="M309.43 245.931H302.9V252.521H309.43V245.931Z" fill="#BC9311"/>
<path d="M309.43 239.4H302.9V245.93H309.43V239.4Z" fill="#BC9311"/>
<path d="M309.43 232.811H302.9V239.401H309.43V232.811Z" fill="black"/>
<path d="M302.89 252.521H296.3V259.05H302.89V252.521Z" fill="black"/>
<path d="M302.89 245.931H296.3V252.521H302.89V245.931Z" fill="#BC9311"/>
<path d="M302.89 239.4H296.3V245.93H302.89V239.4Z" fill="#FFCE17"/>
<path d="M302.89 232.811H296.3V239.401H302.89V232.811Z" fill="#BC9311"/>
<path d="M302.89 226.221H296.3V232.811H302.89V226.221Z" fill="black"/>
<path d="M296.3 252.521H289.77V259.05H296.3V252.521Z" fill="black"/>
<path d="M296.3 245.931H289.77V252.521H296.3V245.931Z" fill="#FFCE17"/>
<path d="M296.3 239.4H289.77V245.93H296.3V239.4Z" fill="#D8B8B8"/>
<path d="M296.3 232.811H289.77V239.401H296.3V232.811Z" fill="#D8B8B8"/>
<path d="M296.3 226.221H289.77V232.811H296.3V226.221Z" fill="#BA9595"/>
<path d="M296.3 219.69H289.77V226.22H296.3V219.69Z" fill="black"/>
<path d="M296.3 213.09H289.77V219.68H296.3V213.09Z" fill="black"/>
<path d="M289.77 285.36H283.18V291.89H289.77V285.36Z" fill="black"/>
<path d="M289.77 278.771H283.18V285.361H289.77V278.771Z" fill="black"/>
<path d="M289.77 272.181H283.18V278.771H289.77V272.181Z" fill="black"/>
<path d="M289.77 265.641H283.18V272.171H289.77V265.641Z" fill="black"/>
<path d="M289.77 259.061H283.18V265.651H289.77V259.061Z" fill="black"/>
<path d="M289.77 252.521H283.18V259.05H289.77V252.521Z" fill="black"/>
<path d="M289.77 245.931H283.18V252.521H289.77V245.931Z" fill="#FFCE17"/>
<path d="M289.77 239.4H283.18V245.93H289.77V239.4Z" fill="#D8B8B8"/>
<path d="M289.77 232.811H283.18V239.401H289.77V232.811Z" fill="#D8B8B8"/>
<path d="M289.77 226.221H283.18V232.811H289.77V226.221Z" fill="#D8B8B8"/>
<path d="M289.77 219.69H283.18V226.22H289.77V219.69Z" fill="#D8B8B8"/>
<path d="M289.77 213.09H283.18V219.68H289.77V213.09Z" fill="#D8B8B8"/>
<path d="M289.77 206.561H283.18V213.091H289.77V206.561Z" fill="black"/>
<path d="M289.77 199.971H283.18V206.561H289.77V199.971Z" fill="black"/>
<path d="M283.18 285.36H276.59V291.89H283.18V285.36Z" fill="black"/>
<path d="M283.18 278.771H276.59V285.361H283.18V278.771Z" fill="#BC9311"/>
<path d="M283.18 272.181H276.59V278.771H283.18V272.181Z" fill="#BC9311"/>
<path d="M283.18 265.641H276.59V272.171H283.18V265.641Z" fill="#BC9311"/>
<path d="M283.18 259.061H276.59V265.651H283.18V259.061Z" fill="#FFCE17"/>
<path d="M283.18 252.521H276.59V259.05H283.18V252.521Z" fill="#FFCE17"/>
<path d="M283.18 245.931H276.59V252.521H283.18V245.931Z" fill="#D8B8B8"/>
<path d="M283.18 239.4H276.59V245.93H283.18V239.4Z" fill="#D8B8B8"/>
<path d="M283.18 232.811H276.59V239.401H283.18V232.811Z" fill="#D8B8B8"/>
<path d="M283.18 226.221H276.59V232.811H283.18V226.221Z" fill="#D8B8B8"/>
<path d="M283.18 219.69H276.59V226.22H283.18V219.69Z" fill="#D8B8B8"/>
<path d="M283.18 213.09H276.59V219.68H283.18V213.09Z" fill="#D8B8B8"/>
<path d="M283.18 206.561H276.59V213.091H283.18V206.561Z" fill="#D8B8B8"/>
<path d="M283.18 199.971H276.59V206.561H283.18V199.971Z" fill="#D8B8B8"/>
<path d="M283.18 193.44H276.59V199.97H283.18V193.44Z" fill="black"/>
<path d="M283.18 186.851H276.59V193.441H283.18V186.851Z" fill="black"/>
<path d="M283.18 167.13H276.59V173.72H283.18V167.13Z" fill="black"/>
<path d="M283.18 160.601H276.59V167.131H283.18V160.601Z" fill="black"/>
<path d="M283.18 154.011H276.59V160.601H283.18V154.011Z" fill="black"/>
<path d="M276.58 291.891H270.05V298.481H276.58V291.891Z" fill="black"/>
<path d="M276.58 285.36H270.05V291.89H276.58V285.36Z" fill="#A05252"/>
<path d="M276.58 278.771H270.05V285.361H276.58V278.771Z" fill="black"/>
<path d="M276.58 272.181H270.05V278.771H276.58V272.181Z" fill="#BC9311"/>
<path d="M276.58 265.641H270.05V272.171H276.58V265.641Z" fill="#FFCE17"/>
<path d="M276.58 259.061H270.05V265.651H276.58V259.061Z" fill="#D8B8B8"/>
<path d="M276.58 252.521H270.05V259.05H276.58V252.521Z" fill="#D8B8B8"/>
<path d="M276.58 245.931H270.05V252.521H276.58V245.931Z" fill="#D8B8B8"/>
<path d="M276.58 239.4H270.05V245.93H276.58V239.4Z" fill="#D8B8B8"/>
<path d="M276.58 232.811H270.05V239.401H276.58V232.811Z" fill="#D8B8B8"/>
<path d="M276.58 226.221H270.05V232.811H276.58V226.221Z" fill="#D8B8B8"/>
<path d="M276.58 219.69H270.05V226.22H276.58V219.69Z" fill="#D8B8B8"/>
<path d="M276.58 213.09H270.05V219.68H276.58V213.09Z" fill="#D8B8B8"/>
<path d="M276.58 206.561H270.05V213.091H276.58V206.561Z" fill="#D8B8B8"/>
<path d="M276.58 199.971H270.05V206.561H276.58V199.971Z" fill="#D8B8B8"/>
<path d="M276.58 193.44H270.05V199.97H276.58V193.44Z" fill="#D8B8B8"/>
<path d="M276.58 186.851H270.05V193.441H276.58V186.851Z" fill="#D8B8B8"/>
<path d="M276.58 180.32H270.05V186.85H276.58V180.32Z" fill="black"/>
<path d="M276.58 173.721H270.05V180.311H276.58V173.721Z" fill="black"/>
<path d="M276.58 167.13H270.05V173.72H276.58V167.13Z" fill="black"/>
<path d="M276.58 160.601H270.05V167.131H276.58V160.601Z" fill="#844141"/>
<path d="M276.58 154.011H270.05V160.601H276.58V154.011Z" fill="#A05252"/>
<path d="M276.58 147.48H270.05V154.01H276.58V147.48Z" fill="black"/>
<path d="M276.58 140.891H270.05V147.481H276.58V140.891Z" fill="black"/>
<path d="M270.06 291.891H263.47V298.481H270.06V291.891Z" fill="black"/>
<path d="M270.06 285.36H263.47V291.89H270.06V285.36Z" fill="#A05252"/>
<path d="M270.06 278.771H263.47V285.361H270.06V278.771Z" fill="#A05252"/>
<path d="M270.06 272.181H263.47V278.771H270.06V272.181Z" fill="black"/>
<path d="M270.06 265.641H263.47V272.171H270.06V265.641Z" fill="#FFCE17"/>
<path d="M270.06 259.061H263.47V265.651H270.06V259.061Z" fill="#D8B8B8"/>
<path d="M270.06 252.521H263.47V259.05H270.06V252.521Z" fill="#D8B8B8"/>
<path d="M270.06 245.931H263.47V252.521H270.06V245.931Z" fill="#D8B8B8"/>
<path d="M270.06 239.4H263.47V245.93H270.06V239.4Z" fill="#D8B8B8"/>
<path d="M270.06 232.811H263.47V239.401H270.06V232.811Z" fill="#D8B8B8"/>
<path d="M270.06 226.221H263.47V232.811H270.06V226.221Z" fill="#D8B8B8"/>
<path d="M270.06 219.69H263.47V226.22H270.06V219.69Z" fill="#D8B8B8"/>
<path d="M270.06 213.09H263.47V219.68H270.06V213.09Z" fill="#D8B8B8"/>
<path d="M270.06 206.561H263.47V213.091H270.06V206.561Z" fill="#D8B8B8"/>
<path d="M270.06 199.971H263.47V206.561H270.06V199.971Z" fill="#D8B8B8"/>
<path d="M270.06 193.44H263.47V199.97H270.06V193.44Z" fill="#D8B8B8"/>
<path d="M270.06 186.851H263.47V193.441H270.06V186.851Z" fill="#D8B8B8"/>
<path d="M270.06 180.32H263.47V186.85H270.06V180.32Z" fill="#D8B8B8"/>
<path d="M270.06 173.721H263.47V180.311H270.06V173.721Z" fill="#BA9595"/>
<path d="M270.06 167.13H263.47V173.72H270.06V167.13Z" fill="#844141"/>
<path d="M270.06 160.601H263.47V167.131H270.06V160.601Z" fill="#844141"/>
<path d="M270.06 154.011H263.47V160.601H270.06V154.011Z" fill="#A05252"/>
<path d="M270.06 147.48H263.47V154.01H270.06V147.48Z" fill="#A05252"/>
<path d="M270.06 140.891H263.47V147.481H270.06V140.891Z" fill="#A05252"/>
<path d="M270.06 134.36H263.47V140.89H270.06V134.36Z" fill="black"/>
<path d="M263.47 298.48H256.94V305.01H263.47V298.48Z" fill="black"/>
<path d="M263.47 291.891H256.94V298.481H263.47V291.891Z" fill="#A05252"/>
<path d="M263.47 285.36H256.94V291.89H263.47V285.36Z" fill="#A05252"/>
<path d="M263.47 278.771H256.94V285.361H263.47V278.771Z" fill="#A05252"/>
<path d="M263.47 272.181H256.94V278.771H263.47V272.181Z" fill="#A05252"/>
<path d="M263.47 265.641H256.94V272.171H263.47V265.641Z" fill="black"/>
<path d="M263.47 259.061H256.94V265.651H263.47V259.061Z" fill="black"/>
<path d="M263.47 252.521H256.94V259.05H263.47V252.521Z" fill="#D8B8B8"/>
<path d="M263.47 245.931H256.94V252.521H263.47V245.931Z" fill="#D8B8B8"/>
<path d="M263.47 239.4H256.94V245.93H263.47V239.4Z" fill="#D8B8B8"/>
<path d="M263.47 232.811H256.94V239.401H263.47V232.811Z" fill="#D8B8B8"/>
<path d="M263.47 226.221H256.94V232.811H263.47V226.221Z" fill="#D8B8B8"/>
<path d="M263.47 219.69H256.94V226.22H263.47V219.69Z" fill="#D8B8B8"/>
<path d="M263.47 213.09H256.94V219.68H263.47V213.09Z" fill="#D8B8B8"/>
<path d="M263.47 206.561H256.94V213.091H263.47V206.561Z" fill="#D8B8B8"/>
<path d="M263.47 199.971H256.94V206.561H263.47V199.971Z" fill="#D8B8B8"/>
<path d="M263.47 193.44H256.94V199.97H263.47V193.44Z" fill="#D8B8B8"/>
<path d="M263.47 186.851H256.94V193.441H263.47V186.851Z" fill="#D8B8B8"/>
<path d="M263.47 180.32H256.94V186.85H263.47V180.32Z" fill="#BA9595"/>
<path d="M263.47 173.721H256.94V180.311H263.47V173.721Z" fill="#BA9595"/>
<path d="M263.47 167.13H256.94V173.72H263.47V167.13Z" fill="#844141"/>
<path d="M263.47 160.601H256.94V167.131H263.47V160.601Z" fill="#A05252"/>
<path d="M263.47 154.011H256.94V160.601H263.47V154.011Z" fill="#A05252"/>
<path d="M263.47 147.48H256.94V154.01H263.47V147.48Z" fill="#A05252"/>
<path d="M263.47 140.891H256.94V147.481H263.47V140.891Z" fill="#A05252"/>
<path d="M263.47 134.36H256.94V140.89H263.47V134.36Z" fill="#BA9595"/>
<path d="M263.47 127.761H256.94V134.351H263.47V127.761Z" fill="black"/>
<path d="M256.93 318.141H250.34V324.731H256.93V318.141Z" fill="black"/>
<path d="M256.93 311.601H250.34V318.131H256.93V311.601Z" fill="black"/>
<path d="M256.93 298.48H250.34V305.01H256.93V298.48Z" fill="black"/>
<path d="M256.93 291.891H250.34V298.481H256.93V291.891Z" fill="#A05252"/>
<path d="M256.93 285.36H250.34V291.89H256.93V285.36Z" fill="#A05252"/>
<path d="M256.93 278.771H250.34V285.361H256.93V278.771Z" fill="black"/>
<path d="M256.93 272.181H250.34V278.771H256.93V272.181Z" fill="black"/>
<path d="M256.93 265.641H250.34V272.171H256.93V265.641Z" fill="#FFCE17"/>
<path d="M256.93 259.061H250.34V265.651H256.93V259.061Z" fill="#FFCE17"/>
<path d="M256.93 252.521H250.34V259.05H256.93V252.521Z" fill="#D8B8B8"/>
<path d="M256.93 245.931H250.34V252.521H256.93V245.931Z" fill="#D8B8B8"/>
<path d="M256.93 239.4H250.34V245.93H256.93V239.4Z" fill="#D8B8B8"/>
<path d="M256.93 232.811H250.34V239.401H256.93V232.811Z" fill="#D8B8B8"/>
<path d="M256.93 226.221H250.34V232.811H256.93V226.221Z" fill="#D8B8B8"/>
<path d="M256.93 219.69H250.34V226.22H256.93V219.69Z" fill="#D8B8B8"/>
<path d="M256.93 213.09H250.34V219.68H256.93V213.09Z" fill="#D8B8B8"/>
<path d="M256.93 206.561H250.34V213.091H256.93V206.561Z" fill="#D8B8B8"/>
<path d="M256.93 199.971H250.34V206.561H256.93V199.971Z" fill="#D8B8B8"/>
<path d="M256.93 193.44H250.34V199.97H256.93V193.44Z" fill="#D8B8B8"/>
<path d="M256.93 186.851H250.34V193.441H256.93V186.851Z" fill="#D8B8B8"/>
<path d="M256.93 180.32H250.34V186.85H256.93V180.32Z" fill="#BA9595"/>
<path d="M256.93 173.721H250.34V180.311H256.93V173.721Z" fill="#844141"/>
<path d="M256.93 167.13H250.34V173.72H256.93V167.13Z" fill="#844141"/>
<path d="M256.93 160.601H250.34V167.131H256.93V160.601Z" fill="#A05252"/>
<path d="M256.93 154.011H250.34V160.601H256.93V154.011Z" fill="#A05252"/>
<path d="M256.93 147.48H250.34V154.01H256.93V147.48Z" fill="#A05252"/>
<path d="M256.93 140.891H250.34V147.481H256.93V140.891Z" fill="#BA9595"/>
<path d="M256.93 134.36H250.34V140.89H256.93V134.36Z" fill="#BA9595"/>
<path d="M256.93 127.761H250.34V134.351H256.93V127.761Z" fill="black"/>
<path d="M250.34 318.141H243.81V324.731H250.34V318.141Z" fill="black"/>
<path d="M250.34 311.601H243.81V318.131H250.34V311.601Z" fill="#7F4E4E"/>
<path d="M250.34 305.021H243.81V311.611H250.34V305.021Z" fill="black"/>
<path d="M250.34 298.48H243.81V305.01H250.34V298.48Z" fill="black"/>
<path d="M250.34 291.891H243.81V298.481H250.34V291.891Z" fill="#A05252"/>
<path d="M250.34 285.36H243.81V291.89H250.34V285.36Z" fill="black"/>
<path d="M250.34 278.771H243.81V285.361H250.34V278.771Z" fill="#BC9311"/>
<path d="M250.34 272.181H243.81V278.771H250.34V272.181Z" fill="#BC9311"/>
<path d="M250.34 265.641H243.81V272.171H250.34V265.641Z" fill="#FFCE17"/>
<path d="M250.34 259.061H243.81V265.651H250.34V259.061Z" fill="#D8B8B8"/>
<path d="M250.34 252.521H243.81V259.05H250.34V252.521Z" fill="#D8B8B8"/>
<path d="M250.34 245.931H243.81V252.521H250.34V245.931Z" fill="#D8B8B8"/>
<path d="M250.34 239.4H243.81V245.93H250.34V239.4Z" fill="#D8B8B8"/>
<path d="M250.34 232.811H243.81V239.401H250.34V232.811Z" fill="#D8B8B8"/>
<path d="M250.34 226.221H243.81V232.811H250.34V226.221Z" fill="#D8B8B8"/>
<path d="M250.34 219.69H243.81V226.22H250.34V219.69Z" fill="#D8B8B8"/>
<path d="M250.34 213.09H243.81V219.68H250.34V213.09Z" fill="#D8B8B8"/>
<path d="M250.34 206.561H243.81V213.091H250.34V206.561Z" fill="#D8B8B8"/>
<path d="M250.34 199.971H243.81V206.561H250.34V199.971Z" fill="#D8B8B8"/>
<path d="M250.34 193.44H243.81V199.97H250.34V193.44Z" fill="#D8B8B8"/>
<path d="M250.34 186.851H243.81V193.441H250.34V186.851Z" fill="#D8B8B8"/>
<path d="M250.34 180.32H243.81V186.85H250.34V180.32Z" fill="#BA9595"/>
<path d="M250.34 173.721H243.81V180.311H250.34V173.721Z" fill="#844141"/>
<path d="M250.34 167.13H243.81V173.72H250.34V167.13Z" fill="#A05252"/>
<path d="M250.34 160.601H243.81V167.131H250.34V160.601Z" fill="#A05252"/>
<path d="M250.34 154.011H243.81V160.601H250.34V154.011Z" fill="#A05252"/>
<path d="M250.34 147.48H243.81V154.01H250.34V147.48Z" fill="#A05252"/>
<path d="M250.34 140.891H243.81V147.481H250.34V140.891Z" fill="#D8B8B8"/>
<path d="M250.34 134.36H243.81V140.89H250.34V134.36Z" fill="#BA9595"/>
<path d="M250.34 127.761H243.81V134.351H250.34V127.761Z" fill="#BA9595"/>
<path d="M250.34 121.17H243.81V127.76H250.34V121.17Z" fill="black"/>
<path d="M243.81 318.141H237.22V324.731H243.81V318.141Z" fill="black"/>
<path d="M243.81 311.601H237.22V318.131H243.81V311.601Z" fill="#7F4E4E"/>
<path d="M243.81 305.021H237.22V311.611H243.81V305.021Z" fill="#7F4E4E"/>
<path d="M243.81 298.48H237.22V305.01H243.81V298.48Z" fill="black"/>
<path d="M243.81 291.891H237.22V298.481H243.81V291.891Z" fill="#A05252"/>
<path d="M243.81 285.36H237.22V291.89H243.81V285.36Z" fill="black"/>
<path d="M243.81 278.771H237.22V285.361H243.81V278.771Z" fill="black"/>
<path d="M243.81 272.181H237.22V278.771H243.81V272.181Z" fill="black"/>
<path d="M243.81 265.641H237.22V272.171H243.81V265.641Z" fill="black"/>
<path d="M243.81 259.061H237.22V265.651H243.81V259.061Z" fill="black"/>
<path d="M243.81 252.521H237.22V259.05H243.81V252.521Z" fill="#FFCE17"/>
<path d="M243.81 245.931H237.22V252.521H243.81V245.931Z" fill="#BA9595"/>
<path d="M243.81 239.4H237.22V245.93H243.81V239.4Z" fill="#BA9595"/>
<path d="M243.81 232.811H237.22V239.401H243.81V232.811Z" fill="#BA9595"/>
<path d="M243.81 226.221H237.22V232.811H243.81V226.221Z" fill="#BA9595"/>
<path d="M243.81 219.69H237.22V226.22H243.81V219.69Z" fill="#BA9595"/>
<path d="M243.81 213.09H237.22V219.68H243.81V213.09Z" fill="#BA9595"/>
<path d="M243.81 206.561H237.22V213.091H243.81V206.561Z" fill="#D8B8B8"/>
<path d="M243.81 199.971H237.22V206.561H243.81V199.971Z" fill="#D8B8B8"/>
<path d="M243.81 193.44H237.22V199.97H243.81V193.44Z" fill="#D8B8B8"/>
<path d="M243.81 186.851H237.22V193.441H243.81V186.851Z" fill="#BA9595"/>
<path d="M243.81 180.32H237.22V186.85H243.81V180.32Z" fill="#BA9595"/>
<path d="M243.81 173.721H237.22V180.311H243.81V173.721Z" fill="#844141"/>
<path d="M243.81 167.13H237.22V173.72H243.81V167.13Z" fill="#A05252"/>
<path d="M243.81 160.601H237.22V167.131H243.81V160.601Z" fill="#A05252"/>
<path d="M243.81 154.011H237.22V160.601H243.81V154.011Z" fill="#A05252"/>
<path d="M243.81 147.48H237.22V154.01H243.81V147.48Z" fill="#A05252"/>
<path d="M243.81 140.891H237.22V147.481H243.81V140.891Z" fill="#D8B8B8"/>
<path d="M243.81 134.36H237.22V140.89H243.81V134.36Z" fill="#D8B8B8"/>
<path d="M243.81 127.761H237.22V134.351H243.81V127.761Z" fill="#BA9595"/>
<path d="M243.81 121.17H237.22V127.76H243.81V121.17Z" fill="black"/>
<path d="M243.81 114.641H237.22V121.171H243.81V114.641Z" fill="black"/>
<path d="M243.81 108.05H237.22V114.64H243.81V108.05Z" fill="black"/>
<path d="M237.22 318.141H230.63V324.731H237.22V318.141Z" fill="black"/>
<path d="M237.22 311.601H230.63V318.131H237.22V311.601Z" fill="#7F4E4E"/>
<path d="M237.22 305.021H230.63V311.611H237.22V305.021Z" fill="black"/>
<path d="M237.22 298.48H230.63V305.01H237.22V298.48Z" fill="#A05252"/>
<path d="M237.22 291.891H230.63V298.481H237.22V291.891Z" fill="#A05252"/>
<path d="M237.22 285.36H230.63V291.89H237.22V285.36Z" fill="#A05252"/>
<path d="M237.22 278.771H230.63V285.361H237.22V278.771Z" fill="#A05252"/>
<path d="M237.22 272.181H230.63V278.771H237.22V272.181Z" fill="black"/>
<path d="M237.22 265.641H230.63V272.171H237.22V265.641Z" fill="#BC9311"/>
<path d="M237.22 259.061H230.63V265.651H237.22V259.061Z" fill="#BC9311"/>
<path d="M237.22 252.521H230.63V259.05H237.22V252.521Z" fill="#FFCE17"/>
<path d="M237.22 245.931H230.63V252.521H237.22V245.931Z" fill="#FFCE17"/>
<path d="M237.22 239.4H230.63V245.93H237.22V239.4Z" fill="#BA9595"/>
<path d="M237.22 232.811H230.63V239.401H237.22V232.811Z" fill="#BA9595"/>
<path d="M237.22 226.221H230.63V232.811H237.22V226.221Z" fill="#BA9595"/>
<path d="M237.22 219.69H230.63V226.22H237.22V219.69Z" fill="#BA9595"/>
<path d="M237.22 213.09H230.63V219.68H237.22V213.09Z" fill="#BA9595"/>
<path d="M237.22 206.561H230.63V213.091H237.22V206.561Z" fill="#BA9595"/>
<path d="M237.22 199.971H230.63V206.561H237.22V199.971Z" fill="#BA9595"/>
<path d="M237.22 193.44H230.63V199.97H237.22V193.44Z" fill="#BA9595"/>
<path d="M237.22 186.851H230.63V193.441H237.22V186.851Z" fill="#BA9595"/>
<path d="M237.22 180.32H230.63V186.85H237.22V180.32Z" fill="#844141"/>
<path d="M237.22 173.721H230.63V180.311H237.22V173.721Z" fill="#844141"/>
<path d="M237.22 167.13H230.63V173.72H237.22V167.13Z" fill="#A05252"/>
<path d="M237.22 160.601H230.63V167.131H237.22V160.601Z" fill="#A05252"/>
<path d="M237.22 154.011H230.63V160.601H237.22V154.011Z" fill="#A05252"/>
<path d="M237.22 147.48H230.63V154.01H237.22V147.48Z" fill="#D8B8B8"/>
<path d="M237.22 140.891H230.63V147.481H237.22V140.891Z" fill="#D8B8B8"/>
<path d="M237.22 134.36H230.63V140.89H237.22V134.36Z" fill="#D8B8B8"/>
<path d="M237.22 127.761H230.63V134.351H237.22V127.761Z" fill="#BA9595"/>
<path d="M237.22 121.17H230.63V127.76H237.22V121.17Z" fill="#BA9595"/>
<path d="M237.22 114.641H230.63V121.171H237.22V114.641Z" fill="#BA9595"/>
<path d="M237.22 108.05H230.63V114.64H237.22V108.05Z" fill="#BA9595"/>
<path d="M237.22 101.521H230.63V108.051H237.22V101.521Z" fill="black"/>
<path d="M237.22 94.9199H230.63V101.51H237.22V94.9199Z" fill="black"/>
<path d="M230.63 318.141H224.1V324.731H230.63V318.141Z" fill="black"/>
<path d="M230.63 311.601H224.1V318.131H230.63V311.601Z" fill="#7F4E4E"/>
<path d="M230.63 305.021H224.1V311.611H230.63V305.021Z" fill="black"/>
<path d="M230.63 298.48H224.1V305.01H230.63V298.48Z" fill="#A05252"/>
<path d="M230.63 291.891H224.1V298.481H230.63V291.891Z" fill="#A05252"/>
<path d="M230.63 285.36H224.1V291.89H230.63V285.36Z" fill="#A05252"/>
<path d="M230.63 278.771H224.1V285.361H230.63V278.771Z" fill="#A05252"/>
<path d="M230.63 272.181H224.1V278.771H230.63V272.181Z" fill="black"/>
<path d="M230.63 265.641H224.1V272.171H230.63V265.641Z" fill="black"/>
<path d="M230.63 259.061H224.1V265.651H230.63V259.061Z" fill="black"/>
<path d="M230.63 252.521H224.1V259.05H230.63V252.521Z" fill="black"/>
<path d="M230.63 245.931H224.1V252.521H230.63V245.931Z" fill="black"/>
<path d="M230.63 239.4H224.1V245.93H230.63V239.4Z" fill="black"/>
<path d="M230.63 232.811H224.1V239.401H230.63V232.811Z" fill="black"/>
<path d="M230.63 226.221H224.1V232.811H230.63V226.221Z" fill="black"/>
<path d="M230.63 219.69H224.1V226.22H230.63V219.69Z" fill="black"/>
<path d="M230.63 213.09H224.1V219.68H230.63V213.09Z" fill="black"/>
<path d="M230.63 206.561H224.1V213.091H230.63V206.561Z" fill="#BA9595"/>
<path d="M230.63 199.971H224.1V206.561H230.63V199.971Z" fill="#BA9595"/>
<path d="M230.63 193.44H224.1V199.97H230.63V193.44Z" fill="#BA9595"/>
<path d="M230.63 186.851H224.1V193.441H230.63V186.851Z" fill="#BA9595"/>
<path d="M230.63 180.32H224.1V186.85H230.63V180.32Z" fill="#844141"/>
<path d="M230.63 173.721H224.1V180.311H230.63V173.721Z" fill="#A05252"/>
<path d="M230.63 167.13H224.1V173.72H230.63V167.13Z" fill="#A05252"/>
<path d="M230.63 160.601H224.1V167.131H230.63V160.601Z" fill="#A05252"/>
<path d="M230.63 154.011H224.1V160.601H230.63V154.011Z" fill="#A05252"/>
<path d="M230.63 147.48H224.1V154.01H230.63V147.48Z" fill="#D8B8B8"/>
<path d="M230.63 140.891H224.1V147.481H230.63V140.891Z" fill="#D8B8B8"/>
<path d="M230.63 134.36H224.1V140.89H230.63V134.36Z" fill="#D8B8B8"/>
<path d="M230.63 127.761H224.1V134.351H230.63V127.761Z" fill="#D8B8B8"/>
<path d="M230.63 121.17H224.1V127.76H230.63V121.17Z" fill="#844141"/>
<path d="M230.63 114.641H224.1V121.171H230.63V114.641Z" fill="#844141"/>
<path d="M230.63 108.05H224.1V114.64H230.63V108.05Z" fill="#844141"/>
<path d="M230.63 101.521H224.1V108.051H230.63V101.521Z" fill="#BA9595"/>
<path d="M230.63 94.9199H224.1V101.51H230.63V94.9199Z" fill="#BA9595"/>
<path d="M230.63 88.4004H224.1V94.9304H230.63V88.4004Z" fill="black"/>
<path d="M224.09 318.141H217.5V324.731H224.09V318.141Z" fill="black"/>
<path d="M224.09 311.601H217.5V318.131H224.09V311.601Z" fill="black"/>
<path d="M224.09 305.021H217.5V311.611H224.09V305.021Z" fill="black"/>
<path d="M224.09 298.48H217.5V305.01H224.09V298.48Z" fill="#A05252"/>
<path d="M224.09 291.891H217.5V298.481H224.09V291.891Z" fill="#A05252"/>
<path d="M224.09 285.36H217.5V291.89H224.09V285.36Z" fill="#A05252"/>
<path d="M224.09 278.771H217.5V285.361H224.09V278.771Z" fill="#BA9595"/>
<path d="M224.09 272.181H217.5V278.771H224.09V272.181Z" fill="#BA9595"/>
<path d="M224.09 265.641H217.5V272.171H224.09V265.641Z" fill="#BA9595"/>
<path d="M224.09 259.061H217.5V265.651H224.09V259.061Z" fill="#BA9595"/>
<path d="M224.09 252.521H217.5V259.05H224.09V252.521Z" fill="#BA9595"/>
<path d="M224.09 245.931H217.5V252.521H224.09V245.931Z" fill="#BA9595"/>
<path d="M224.09 239.4H217.5V245.93H224.09V239.4Z" fill="#BA9595"/>
<path d="M224.09 232.811H217.5V239.401H224.09V232.811Z" fill="#BA9595"/>
<path d="M224.09 226.221H217.5V232.811H224.09V226.221Z" fill="#BA9595"/>
<path d="M224.09 219.69H217.5V226.22H224.09V219.69Z" fill="#BA9595"/>
<path d="M224.09 213.09H217.5V219.68H224.09V213.09Z" fill="#BA9595"/>
<path d="M224.09 206.561H217.5V213.091H224.09V206.561Z" fill="black"/>
<path d="M224.09 199.971H217.5V206.561H224.09V199.971Z" fill="black"/>
<path d="M224.09 193.44H217.5V199.97H224.09V193.44Z" fill="black"/>
<path d="M224.09 186.851H217.5V193.441H224.09V186.851Z" fill="black"/>
<path d="M224.09 180.32H217.5V186.85H224.09V180.32Z" fill="#844141"/>
<path d="M224.09 173.721H217.5V180.311H224.09V173.721Z" fill="#A05252"/>
<path d="M224.09 167.13H217.5V173.72H224.09V167.13Z" fill="#A05252"/>
<path d="M224.09 160.601H217.5V167.131H224.09V160.601Z" fill="#A05252"/>
<path d="M224.09 154.011H217.5V160.601H224.09V154.011Z" fill="#A05252"/>
<path d="M224.09 147.48H217.5V154.01H224.09V147.48Z" fill="#D8B8B8"/>
<path d="M224.09 140.891H217.5V147.481H224.09V140.891Z" fill="#D8B8B8"/>
<path d="M224.09 134.36H217.5V140.89H224.09V134.36Z" fill="#D8B8B8"/>
<path d="M224.09 127.761H217.5V134.351H224.09V127.761Z" fill="#844141"/>
<path d="M224.09 121.17H217.5V127.76H224.09V121.17Z" fill="#A05252"/>
<path d="M224.09 114.641H217.5V121.171H224.09V114.641Z" fill="#A05252"/>
<path d="M224.09 108.05H217.5V114.64H224.09V108.05Z" fill="#A05252"/>
<path d="M224.09 101.521H217.5V108.051H224.09V101.521Z" fill="#844141"/>
<path d="M224.09 94.9199H217.5V101.51H224.09V94.9199Z" fill="#BA9595"/>
<path d="M224.09 88.4004H217.5V94.9304H224.09V88.4004Z" fill="#BA9595"/>
<path d="M224.09 81.7998H217.5V88.3898H224.09V81.7998Z" fill="black"/>
<path d="M217.51 305.021H210.98V311.611H217.51V305.021Z" fill="black"/>
<path d="M217.51 298.48H210.98V305.01H217.51V298.48Z" fill="#A05252"/>
<path d="M217.51 291.891H210.98V298.481H217.51V291.891Z" fill="#A05252"/>
<path d="M217.51 285.36H210.98V291.89H217.51V285.36Z" fill="#A05252"/>
<path d="M217.51 278.771H210.98V285.361H217.51V278.771Z" fill="#D8B8B8"/>
<path d="M217.51 272.181H210.98V278.771H217.51V272.181Z" fill="#D8B8B8"/>
<path d="M217.51 265.641H210.98V272.171H217.51V265.641Z" fill="#D8B8B8"/>
<path d="M217.51 259.061H210.98V265.651H217.51V259.061Z" fill="#D8B8B8"/>
<path d="M217.51 252.521H210.98V259.05H217.51V252.521Z" fill="#D8B8B8"/>
<path d="M217.51 245.931H210.98V252.521H217.51V245.931Z" fill="#D8B8B8"/>
<path d="M217.51 239.4H210.98V245.93H217.51V239.4Z" fill="#D8B8B8"/>
<path d="M217.51 232.811H210.98V239.401H217.51V232.811Z" fill="#D8B8B8"/>
<path d="M217.51 226.221H210.98V232.811H217.51V226.221Z" fill="#D8B8B8"/>
<path d="M217.51 219.69H210.98V226.22H217.51V219.69Z" fill="#D8B8B8"/>
<path d="M217.51 213.09H210.98V219.68H217.51V213.09Z" fill="#D8B8B8"/>
<path d="M217.51 206.561H210.98V213.091H217.51V206.561Z" fill="#BA9595"/>
<path d="M217.51 199.971H210.98V206.561H217.51V199.971Z" fill="#BA9595"/>
<path d="M217.51 193.44H210.98V199.97H217.51V193.44Z" fill="#BA9595"/>
<path d="M217.51 186.851H210.98V193.441H217.51V186.851Z" fill="#BA9595"/>
<path d="M217.51 180.32H210.98V186.85H217.51V180.32Z" fill="#844141"/>
<path d="M217.51 173.721H210.98V180.311H217.51V173.721Z" fill="#A05252"/>
<path d="M217.51 167.13H210.98V173.72H217.51V167.13Z" fill="#A05252"/>
<path d="M217.51 160.601H210.98V167.131H217.51V160.601Z" fill="#A05252"/>
<path d="M217.51 154.011H210.98V160.601H217.51V154.011Z" fill="#D8B8B8"/>
<path d="M217.51 147.48H210.98V154.01H217.51V147.48Z" fill="#D8B8B8"/>
<path d="M217.51 140.891H210.98V147.481H217.51V140.891Z" fill="#D8B8B8"/>
<path d="M217.51 134.36H210.98V140.89H217.51V134.36Z" fill="#844141"/>
<path d="M217.51 127.761H210.98V134.351H217.51V127.761Z" fill="#A05252"/>
<path d="M217.51 121.17H210.98V127.76H217.51V121.17Z" fill="#E5B798"/>
<path d="M217.51 114.641H210.98V121.171H217.51V114.641Z" fill="#603C28"/>
<path d="M217.51 108.05H210.98V114.64H217.51V108.05Z" fill="#603C28"/>
<path d="M217.51 101.521H210.98V108.051H217.51V101.521Z" fill="#A05252"/>
<path d="M217.51 94.9199H210.98V101.51H217.51V94.9199Z" fill="#844141"/>
<path d="M217.51 88.4004H210.98V94.9304H217.51V88.4004Z" fill="#BA9595"/>
<path d="M217.51 81.7998H210.98V88.3898H217.51V81.7998Z" fill="#BA9595"/>
<path d="M217.51 75.2803H210.98V81.8103H217.51V75.2803Z" fill="black"/>
<path d="M210.97 305.021H204.38V311.611H210.97V305.021Z" fill="black"/>
<path d="M210.97 298.48H204.38V305.01H210.97V298.48Z" fill="#A05252"/>
<path d="M210.97 291.891H204.38V298.481H210.97V291.891Z" fill="#A05252"/>
<path d="M210.97 285.36H204.38V291.89H210.97V285.36Z" fill="#A05252"/>
<path d="M210.97 278.771H204.38V285.361H210.97V278.771Z" fill="#FFCE17"/>
<path d="M210.97 272.181H204.38V278.771H210.97V272.181Z" fill="#FFCE17"/>
<path d="M210.97 265.641H204.38V272.171H210.97V265.641Z" fill="#FFCE17"/>
<path d="M210.97 259.061H204.38V265.651H210.97V259.061Z" fill="#FFCE17"/>
<path d="M210.97 252.521H204.38V259.05H210.97V252.521Z" fill="#FFCE17"/>
<path d="M210.97 245.931H204.38V252.521H210.97V245.931Z" fill="#D8B8B8"/>
<path d="M210.97 239.4H204.38V245.93H210.97V239.4Z" fill="#D8B8B8"/>
<path d="M210.97 232.811H204.38V239.401H210.97V232.811Z" fill="#D8B8B8"/>
<path d="M210.97 226.221H204.38V232.811H210.97V226.221Z" fill="#D8B8B8"/>
<path d="M210.97 219.69H204.38V226.22H210.97V219.69Z" fill="#D8B8B8"/>
<path d="M210.97 213.09H204.38V219.68H210.97V213.09Z" fill="#D8B8B8"/>
<path d="M210.97 206.561H204.38V213.091H210.97V206.561Z" fill="#D8B8B8"/>
<path d="M210.97 199.971H204.38V206.561H210.97V199.971Z" fill="#BA9595"/>
<path d="M210.97 193.44H204.38V199.97H210.97V193.44Z" fill="#BA9595"/>
<path d="M210.97 186.851H204.38V193.441H210.97V186.851Z" fill="#BA9595"/>
<path d="M210.97 180.32H204.38V186.85H210.97V180.32Z" fill="#844141"/>
<path d="M210.97 173.721H204.38V180.311H210.97V173.721Z" fill="#A05252"/>
<path d="M210.97 167.13H204.38V173.72H210.97V167.13Z" fill="#A05252"/>
<path d="M210.97 160.601H204.38V167.131H210.97V160.601Z" fill="#A05252"/>
<path d="M210.97 154.011H204.38V160.601H210.97V154.011Z" fill="#D8B8B8"/>
<path d="M210.97 147.48H204.38V154.01H210.97V147.48Z" fill="#D8B8B8"/>
<path d="M210.97 140.891H204.38V147.481H210.97V140.891Z" fill="#D8B8B8"/>
<path d="M210.97 134.36H204.38V140.89H210.97V134.36Z" fill="#844141"/>
<path d="M210.97 127.761H204.38V134.351H210.97V127.761Z" fill="#A05252"/>
<path d="M210.97 121.17H204.38V127.76H210.97V121.17Z" fill="#E5B798"/>
<path d="M210.97 114.641H204.38V121.171H210.97V114.641Z" fill="#B28364"/>
<path d="M210.97 108.05H204.38V114.64H210.97V108.05Z" fill="#603C28"/>
<path d="M210.97 101.521H204.38V108.051H210.97V101.521Z" fill="#A05252"/>
<path d="M210.97 94.9199H204.38V101.51H210.97V94.9199Z" fill="#A05252"/>
<path d="M210.97 88.4004H204.38V94.9304H210.97V88.4004Z" fill="#844141"/>
<path d="M210.97 81.7998H204.38V88.3898H210.97V81.7998Z" fill="#BA9595"/>
<path d="M210.97 75.2803H204.38V81.8103H210.97V75.2803Z" fill="black"/>
<path d="M204.38 305.021H197.85V311.611H204.38V305.021Z" fill="black"/>
<path d="M204.38 298.48H197.85V305.01H204.38V298.48Z" fill="black"/>
<path d="M204.38 291.891H197.85V298.481H204.38V291.891Z" fill="black"/>
<path d="M204.38 285.36H197.85V291.89H204.38V285.36Z" fill="black"/>
<path d="M204.38 278.771H197.85V285.361H204.38V278.771Z" fill="black"/>
<path d="M204.38 272.181H197.85V278.771H204.38V272.181Z" fill="black"/>
<path d="M204.38 265.641H197.85V272.171H204.38V265.641Z" fill="black"/>
<path d="M204.38 259.061H197.85V265.651H204.38V259.061Z" fill="black"/>
<path d="M204.38 252.521H197.85V259.05H204.38V252.521Z" fill="black"/>
<path d="M204.38 245.931H197.85V252.521H204.38V245.931Z" fill="#FFCE17"/>
<path d="M204.38 239.4H197.85V245.93H204.38V239.4Z" fill="#FFCE17"/>
<path d="M204.38 232.811H197.85V239.401H204.38V232.811Z" fill="#FFCE17"/>
<path d="M204.38 226.221H197.85V232.811H204.38V226.221Z" fill="#FFCE17"/>
<path d="M204.38 219.69H197.85V226.22H204.38V219.69Z" fill="#FFCE17"/>
<path d="M204.38 213.09H197.85V219.68H204.38V213.09Z" fill="#FFCE17"/>
<path d="M204.38 206.561H197.85V213.091H204.38V206.561Z" fill="#FFCE17"/>
<path d="M204.38 199.971H197.85V206.561H204.38V199.971Z" fill="#BC9311"/>
<path d="M204.38 193.44H197.85V199.97H204.38V193.44Z" fill="#BC9311"/>
<path d="M204.38 186.851H197.85V193.441H204.38V186.851Z" fill="#BC9311"/>
<path d="M204.38 180.32H197.85V186.85H204.38V180.32Z" fill="#844141"/>
<path d="M204.38 173.721H197.85V180.311H204.38V173.721Z" fill="#A05252"/>
<path d="M204.38 167.13H197.85V173.72H204.38V167.13Z" fill="#A05252"/>
<path d="M204.38 160.601H197.85V167.131H204.38V160.601Z" fill="#A05252"/>
<path d="M204.38 154.011H197.85V160.601H204.38V154.011Z" fill="#D8B8B8"/>
<path d="M204.38 147.48H197.85V154.01H204.38V147.48Z" fill="#D8B8B8"/>
<path d="M204.38 140.891H197.85V147.481H204.38V140.891Z" fill="#D8B8B8"/>
<path d="M204.38 134.36H197.85V140.89H204.38V134.36Z" fill="#844141"/>
<path d="M204.38 127.761H197.85V134.351H204.38V127.761Z" fill="#A05252"/>
<path d="M204.38 121.17H197.85V127.76H204.38V121.17Z" fill="#E5B798"/>
<path d="M204.38 114.641H197.85V121.171H204.38V114.641Z" fill="#B28364"/>
<path d="M204.38 108.05H197.85V114.64H204.38V108.05Z" fill="#603C28"/>
<path d="M204.38 101.521H197.85V108.051H204.38V101.521Z" fill="#A05252"/>
<path d="M204.38 94.9199H197.85V101.51H204.38V94.9199Z" fill="#A05252"/>
<path d="M204.38 88.4004H197.85V94.9304H204.38V88.4004Z" fill="#A05252"/>
<path d="M204.38 81.7998H197.85V88.3898H204.38V81.7998Z" fill="#844141"/>
<path d="M204.38 75.2803H197.85V81.8103H204.38V75.2803Z" fill="black"/>
<path d="M197.85 298.48H191.26V305.01H197.85V298.48Z" fill="black"/>
<path d="M197.85 291.891H191.26V298.481H197.85V291.891Z" fill="#BC9311"/>
<path d="M197.85 285.36H191.26V291.89H197.85V285.36Z" fill="#BC9311"/>
<path d="M197.85 278.771H191.26V285.361H197.85V278.771Z" fill="#BA9595"/>
<path d="M197.85 272.181H191.26V278.771H197.85V272.181Z" fill="#BA9595"/>
<path d="M197.85 265.641H191.26V272.171H197.85V265.641Z" fill="#BA9595"/>
<path d="M197.85 259.061H191.26V265.651H197.85V259.061Z" fill="#BA9595"/>
<path d="M197.85 252.521H191.26V259.05H197.85V252.521Z" fill="#BA9595"/>
<path d="M197.85 245.931H191.26V252.521H197.85V245.931Z" fill="black"/>
<path d="M197.85 239.4H191.26V245.93H197.85V239.4Z" fill="black"/>
<path d="M197.85 232.811H191.26V239.401H197.85V232.811Z" fill="black"/>
<path d="M197.85 226.221H191.26V232.811H197.85V226.221Z" fill="black"/>
<path d="M197.85 219.69H191.26V226.22H197.85V219.69Z" fill="black"/>
<path d="M197.85 213.09H191.26V219.68H197.85V213.09Z" fill="black"/>
<path d="M197.85 206.561H191.26V213.091H197.85V206.561Z" fill="black"/>
<path d="M197.85 199.971H191.26V206.561H197.85V199.971Z" fill="black"/>
<path d="M197.85 193.44H191.26V199.97H197.85V193.44Z" fill="black"/>
<path d="M197.85 186.851H191.26V193.441H197.85V186.851Z" fill="black"/>
<path d="M197.85 180.32H191.26V186.85H197.85V180.32Z" fill="#844141"/>
<path d="M197.85 173.721H191.26V180.311H197.85V173.721Z" fill="#A05252"/>
<path d="M197.85 167.13H191.26V173.72H197.85V167.13Z" fill="#A05252"/>
<path d="M197.85 160.601H191.26V167.131H197.85V160.601Z" fill="#A05252"/>
<path d="M197.85 154.011H191.26V160.601H197.85V154.011Z" fill="#D8B8B8"/>
<path d="M197.85 147.48H191.26V154.01H197.85V147.48Z" fill="#D8B8B8"/>
<path d="M197.85 140.891H191.26V147.481H197.85V140.891Z" fill="#D8B8B8"/>
<path d="M197.85 134.36H191.26V140.89H197.85V134.36Z" fill="#844141"/>
<path d="M197.85 127.761H191.26V134.351H197.85V127.761Z" fill="#A05252"/>
<path d="M197.85 121.17H191.26V127.76H197.85V121.17Z" fill="#E5B798"/>
<path d="M197.85 114.641H191.26V121.171H197.85V114.641Z" fill="#B28364"/>
<path d="M197.85 108.05H191.26V114.64H197.85V108.05Z" fill="#603C28"/>
<path d="M197.85 101.521H191.26V108.051H197.85V101.521Z" fill="#A05252"/>
<path d="M197.85 94.9199H191.26V101.51H197.85V94.9199Z" fill="#A05252"/>
<path d="M197.85 88.4004H191.26V94.9304H197.85V88.4004Z" fill="#844141"/>
<path d="M197.85 81.7998H191.26V88.3898H197.85V81.7998Z" fill="black"/>
<path d="M191.26 318.141H184.73V324.731H191.26V318.141Z" fill="black"/>
<path d="M191.26 311.601H184.73V318.131H191.26V311.601Z" fill="black"/>
<path d="M191.26 305.021H184.73V311.611H191.26V305.021Z" fill="black"/>
<path d="M191.26 298.48H184.73V305.01H191.26V298.48Z" fill="black"/>
<path d="M191.26 291.891H184.73V298.481H191.26V291.891Z" fill="#BC9311"/>
<path d="M191.26 285.36H184.73V291.89H191.26V285.36Z" fill="#BC9311"/>
<path d="M191.26 278.771H184.73V285.361H191.26V278.771Z" fill="#BA9595"/>
<path d="M191.26 272.181H184.73V278.771H191.26V272.181Z" fill="#BA9595"/>
<path d="M191.26 265.641H184.73V272.171H191.26V265.641Z" fill="#BA9595"/>
<path d="M191.26 259.061H184.73V265.651H191.26V259.061Z" fill="#BA9595"/>
<path d="M191.26 252.521H184.73V259.05H191.26V252.521Z" fill="#BA9595"/>
<path d="M191.26 245.931H184.73V252.521H191.26V245.931Z" fill="#BA9595"/>
<path d="M191.26 239.4H184.73V245.93H191.26V239.4Z" fill="#BA9595"/>
<path d="M191.26 232.811H184.73V239.401H191.26V232.811Z" fill="#BA9595"/>
<path d="M191.26 226.221H184.73V232.811H191.26V226.221Z" fill="#BA9595"/>
<path d="M191.26 219.69H184.73V226.22H191.26V219.69Z" fill="#BA9595"/>
<path d="M191.26 213.09H184.73V219.68H191.26V213.09Z" fill="#BA9595"/>
<path d="M191.26 206.561H184.73V213.091H191.26V206.561Z" fill="#BA9595"/>
<path d="M191.26 199.971H184.73V206.561H191.26V199.971Z" fill="#BA9595"/>
<path d="M191.26 193.44H184.73V199.97H191.26V193.44Z" fill="#BA9595"/>
<path d="M191.26 186.851H184.73V193.441H191.26V186.851Z" fill="#BA9595"/>
<path d="M191.26 180.32H184.73V186.85H191.26V180.32Z" fill="#844141"/>
<path d="M191.26 173.721H184.73V180.311H191.26V173.721Z" fill="#A05252"/>
<path d="M191.26 167.13H184.73V173.72H191.26V167.13Z" fill="#A05252"/>
<path d="M191.26 160.601H184.73V167.131H191.26V160.601Z" fill="#A05252"/>
<path d="M191.26 154.011H184.73V160.601H191.26V154.011Z" fill="#D8B8B8"/>
<path d="M191.26 147.48H184.73V154.01H191.26V147.48Z" fill="#D8B8B8"/>
<path d="M191.26 140.891H184.73V147.481H191.26V140.891Z" fill="#D8B8B8"/>
<path d="M191.26 134.36H184.73V140.89H191.26V134.36Z" fill="#844141"/>
<path d="M191.26 127.761H184.73V134.351H191.26V127.761Z" fill="#A05252"/>
<path d="M191.26 121.17H184.73V127.76H191.26V121.17Z" fill="#B28364"/>
<path d="M191.26 114.641H184.73V121.171H191.26V114.641Z" fill="#B28364"/>
<path d="M191.26 108.05H184.73V114.64H191.26V108.05Z" fill="#603C28"/>
<path d="M191.26 101.521H184.73V108.051H191.26V101.521Z" fill="#A05252"/>
<path d="M191.26 94.9199H184.73V101.51H191.26V94.9199Z" fill="#A05252"/>
<path d="M191.26 88.4004H184.73V94.9304H191.26V88.4004Z" fill="#844141"/>
<path d="M191.26 81.7998H184.73V88.3898H191.26V81.7998Z" fill="black"/>
<path d="M184.73 318.141H178.14V324.731H184.73V318.141Z" fill="black"/>
<path d="M184.73 311.601H178.14V318.131H184.73V311.601Z" fill="#7F4E4E"/>
<path d="M184.73 305.021H178.14V311.611H184.73V305.021Z" fill="#7F4E4E"/>
<path d="M184.73 298.48H178.14V305.01H184.73V298.48Z" fill="black"/>
<path d="M184.73 291.891H178.14V298.481H184.73V291.891Z" fill="#BC9311"/>
<path d="M184.73 285.36H178.14V291.89H184.73V285.36Z" fill="#BC9311"/>
<path d="M184.73 278.771H178.14V285.361H184.73V278.771Z" fill="#BA9595"/>
<path d="M184.73 272.181H178.14V278.771H184.73V272.181Z" fill="#BA9595"/>
<path d="M184.73 265.641H178.14V272.171H184.73V265.641Z" fill="#BA9595"/>
<path d="M184.73 259.061H178.14V265.651H184.73V259.061Z" fill="#D8B8B8"/>
<path d="M184.73 252.521H178.14V259.05H184.73V252.521Z" fill="#D8B8B8"/>
<path d="M184.73 245.931H178.14V252.521H184.73V245.931Z" fill="#D8B8B8"/>
<path d="M184.73 239.4H178.14V245.93H184.73V239.4Z" fill="#D8B8B8"/>
<path d="M184.73 232.811H178.14V239.401H184.73V232.811Z" fill="#D8B8B8"/>
<path d="M184.73 226.221H178.14V232.811H184.73V226.221Z" fill="#D8B8B8"/>
<path d="M184.73 219.69H178.14V226.22H184.73V219.69Z" fill="#D8B8B8"/>
<path d="M184.73 213.09H178.14V219.68H184.73V213.09Z" fill="#D8B8B8"/>
<path d="M184.73 206.561H178.14V213.091H184.73V206.561Z" fill="#D8B8B8"/>
<path d="M184.73 199.971H178.14V206.561H184.73V199.971Z" fill="#D8B8B8"/>
<path d="M184.73 193.44H178.14V199.97H184.73V193.44Z" fill="#D8B8B8"/>
<path d="M184.73 186.851H178.14V193.441H184.73V186.851Z" fill="#BA9595"/>
<path d="M184.73 180.32H178.14V186.85H184.73V180.32Z" fill="#844141"/>
<path d="M184.73 173.721H178.14V180.311H184.73V173.721Z" fill="#A05252"/>
<path d="M184.73 167.13H178.14V173.72H184.73V167.13Z" fill="#A05252"/>
<path d="M184.73 160.601H178.14V167.131H184.73V160.601Z" fill="#A05252"/>
<path d="M184.73 154.011H178.14V160.601H184.73V154.011Z" fill="#D8B8B8"/>
<path d="M184.73 147.48H178.14V154.01H184.73V147.48Z" fill="#D8B8B8"/>
<path d="M184.73 140.891H178.14V147.481H184.73V140.891Z" fill="#BA9595"/>
<path d="M184.73 134.36H178.14V140.89H184.73V134.36Z" fill="#844141"/>
<path d="M184.73 127.761H178.14V134.351H184.73V127.761Z" fill="#844141"/>
<path d="M184.73 121.17H178.14V127.76H184.73V121.17Z" fill="#A05252"/>
<path d="M184.73 114.641H178.14V121.171H184.73V114.641Z" fill="#A05252"/>
<path d="M184.73 108.05H178.14V114.64H184.73V108.05Z" fill="#A05252"/>
<path d="M184.73 101.521H178.14V108.051H184.73V101.521Z" fill="#A05252"/>
<path d="M184.73 94.9199H178.14V101.51H184.73V94.9199Z" fill="#844141"/>
<path d="M184.73 88.4004H178.14V94.9304H184.73V88.4004Z" fill="black"/>
<path d="M178.13 318.141H171.54V324.731H178.13V318.141Z" fill="black"/>
<path d="M178.13 311.601H171.54V318.131H178.13V311.601Z" fill="#7F4E4E"/>
<path d="M178.13 305.021H171.54V311.611H178.13V305.021Z" fill="#7F4E4E"/>
<path d="M178.13 298.48H171.54V305.01H178.13V298.48Z" fill="black"/>
<path d="M178.13 291.891H171.54V298.481H178.13V291.891Z" fill="#FFCE17"/>
<path d="M178.13 285.36H171.54V291.89H178.13V285.36Z" fill="#FFCE17"/>
<path d="M178.13 278.771H171.54V285.361H178.13V278.771Z" fill="#D8B8B8"/>
<path d="M178.13 272.181H171.54V278.771H178.13V272.181Z" fill="#D8B8B8"/>
<path d="M178.13 265.641H171.54V272.171H178.13V265.641Z" fill="#D8B8B8"/>
<path d="M178.13 259.061H171.54V265.651H178.13V259.061Z" fill="#D8B8B8"/>
<path d="M178.13 252.521H171.54V259.05H178.13V252.521Z" fill="#D8B8B8"/>
<path d="M178.13 245.931H171.54V252.521H178.13V245.931Z" fill="#D8B8B8"/>
<path d="M178.13 239.4H171.54V245.93H178.13V239.4Z" fill="#D8B8B8"/>
<path d="M178.13 232.811H171.54V239.401H178.13V232.811Z" fill="#D8B8B8"/>
<path d="M178.13 226.221H171.54V232.811H178.13V226.221Z" fill="#D8B8B8"/>
<path d="M178.13 219.69H171.54V226.22H178.13V219.69Z" fill="#D8B8B8"/>
<path d="M178.13 213.09H171.54V219.68H178.13V213.09Z" fill="#D8B8B8"/>
<path d="M178.13 206.561H171.54V213.091H178.13V206.561Z" fill="#D8B8B8"/>
<path d="M178.13 199.971H171.54V206.561H178.13V199.971Z" fill="#D8B8B8"/>
<path d="M178.13 193.44H171.54V199.97H178.13V193.44Z" fill="#D8B8B8"/>
<path d="M178.13 186.851H171.54V193.441H178.13V186.851Z" fill="#BA9595"/>
<path d="M178.13 180.32H171.54V186.85H178.13V180.32Z" fill="#844141"/>
<path d="M178.13 173.721H171.54V180.311H178.13V173.721Z" fill="#A05252"/>
<path d="M178.13 167.13H171.54V173.72H178.13V167.13Z" fill="#A05252"/>
<path d="M178.13 160.601H171.54V167.131H178.13V160.601Z" fill="#A05252"/>
<path d="M178.13 154.011H171.54V160.601H178.13V154.011Z" fill="#D8B8B8"/>
<path d="M178.13 147.48H171.54V154.01H178.13V147.48Z" fill="#BA9595"/>
<path d="M178.13 140.891H171.54V147.481H178.13V140.891Z" fill="#BA9595"/>
<path d="M178.13 134.36H171.54V140.89H178.13V134.36Z" fill="#BA9595"/>
<path d="M178.13 127.761H171.54V134.351H178.13V127.761Z" fill="#844141"/>
<path d="M178.13 121.17H171.54V127.76H178.13V121.17Z" fill="#844141"/>
<path d="M178.13 114.641H171.54V121.171H178.13V114.641Z" fill="#844141"/>
<path d="M178.13 108.05H171.54V114.64H178.13V108.05Z" fill="#844141"/>
<path d="M178.13 101.521H171.54V108.051H178.13V101.521Z" fill="#844141"/>
<path d="M178.13 94.9199H171.54V101.51H178.13V94.9199Z" fill="black"/>
<path d="M171.54 318.141H165.01V324.731H171.54V318.141Z" fill="black"/>
<path d="M171.54 311.601H165.01V318.131H171.54V311.601Z" fill="#7F4E4E"/>
<path d="M171.54 305.021H165.01V311.611H171.54V305.021Z" fill="#7F4E4E"/>
<path d="M171.54 298.48H165.01V305.01H171.54V298.48Z" fill="black"/>
<path d="M171.54 291.891H165.01V298.481H171.54V291.891Z" fill="#FFCE17"/>
<path d="M171.54 285.36H165.01V291.89H171.54V285.36Z" fill="#FFCE17"/>
<path d="M171.54 278.771H165.01V285.361H171.54V278.771Z" fill="#D8B8B8"/>
<path d="M171.54 272.181H165.01V278.771H171.54V272.181Z" fill="#D8B8B8"/>
<path d="M171.54 265.641H165.01V272.171H171.54V265.641Z" fill="#D8B8B8"/>
<path d="M171.54 259.061H165.01V265.651H171.54V259.061Z" fill="#D8B8B8"/>
<path d="M171.54 252.521H165.01V259.05H171.54V252.521Z" fill="#BA9595"/>
<path d="M171.54 245.931H165.01V252.521H171.54V245.931Z" fill="#BA9595"/>
<path d="M171.54 239.4H165.01V245.93H171.54V239.4Z" fill="#BA9595"/>
<path d="M171.54 232.811H165.01V239.401H171.54V232.811Z" fill="#BA9595"/>
<path d="M171.54 226.221H165.01V232.811H171.54V226.221Z" fill="#BA9595"/>
<path d="M171.54 219.69H165.01V226.22H171.54V219.69Z" fill="#BA9595"/>
<path d="M171.54 213.09H165.01V219.68H171.54V213.09Z" fill="#BA9595"/>
<path d="M171.54 206.561H165.01V213.091H171.54V206.561Z" fill="#BA9595"/>
<path d="M171.54 199.971H165.01V206.561H171.54V199.971Z" fill="#BA9595"/>
<path d="M171.54 193.44H165.01V199.97H171.54V193.44Z" fill="#BA9595"/>
<path d="M171.54 186.851H165.01V193.441H171.54V186.851Z" fill="#BA9595"/>
<path d="M171.54 180.32H165.01V186.85H171.54V180.32Z" fill="#BA9595"/>
<path d="M171.54 173.721H165.01V180.311H171.54V173.721Z" fill="#844141"/>
<path d="M171.54 167.13H165.01V173.72H171.54V167.13Z" fill="#A05252"/>
<path d="M171.54 160.601H165.01V167.131H171.54V160.601Z" fill="#A05252"/>
<path d="M171.54 154.011H165.01V160.601H171.54V154.011Z" fill="#BA9595"/>
<path d="M171.54 147.48H165.01V154.01H171.54V147.48Z" fill="#BA9595"/>
<path d="M171.54 140.891H165.01V147.481H171.54V140.891Z" fill="#BA9595"/>
<path d="M171.54 134.36H165.01V140.89H171.54V134.36Z" fill="#BA9595"/>
<path d="M171.54 127.761H165.01V134.351H171.54V127.761Z" fill="#BA9595"/>
<path d="M171.54 121.17H165.01V127.76H171.54V121.17Z" fill="black"/>
<path d="M171.54 114.641H165.01V121.171H171.54V114.641Z" fill="black"/>
<path d="M171.54 108.05H165.01V114.64H171.54V108.05Z" fill="black"/>
<path d="M171.54 101.521H165.01V108.051H171.54V101.521Z" fill="black"/>
<path d="M165.01 318.141H158.42V324.731H165.01V318.141Z" fill="black"/>
<path d="M165.01 311.601H158.42V318.131H165.01V311.601Z" fill="#7F4E4E"/>
<path d="M165.01 305.021H158.42V311.611H165.01V305.021Z" fill="black"/>
<path d="M165.01 298.48H158.42V305.01H165.01V298.48Z" fill="black"/>
<path d="M165.01 291.891H158.42V298.481H165.01V291.891Z" fill="#BC9311"/>
<path d="M165.01 285.36H158.42V291.89H165.01V285.36Z" fill="#BC9311"/>
<path d="M165.01 278.771H158.42V285.361H165.01V278.771Z" fill="#BA9595"/>
<path d="M165.01 272.181H158.42V278.771H165.01V272.181Z" fill="#BA9595"/>
<path d="M165.01 265.641H158.42V272.171H165.01V265.641Z" fill="#BA9595"/>
<path d="M165.01 259.061H158.42V265.651H165.01V259.061Z" fill="#BA9595"/>
<path d="M165.01 252.521H158.42V259.05H165.01V252.521Z" fill="#BA9595"/>
<path d="M165.01 245.931H158.42V252.521H165.01V245.931Z" fill="#BA9595"/>
<path d="M165.01 239.4H158.42V245.93H165.01V239.4Z" fill="#BA9595"/>
<path d="M165.01 232.811H158.42V239.401H165.01V232.811Z" fill="#BC9311"/>
<path d="M165.01 226.221H158.42V232.811H165.01V226.221Z" fill="#BC9311"/>
<path d="M165.01 219.69H158.42V226.22H165.01V219.69Z" fill="#BC9311"/>
<path d="M165.01 213.09H158.42V219.68H165.01V213.09Z" fill="#BC9311"/>
<path d="M165.01 206.561H158.42V213.091H165.01V206.561Z" fill="#BC9311"/>
<path d="M165.01 199.971H158.42V206.561H165.01V199.971Z" fill="#BC9311"/>
<path d="M165.01 193.44H158.42V199.97H165.01V193.44Z" fill="#BC9311"/>
<path d="M165.01 186.851H158.42V193.441H165.01V186.851Z" fill="#BC9311"/>
<path d="M165.01 180.32H158.42V186.85H165.01V180.32Z" fill="#BC9311"/>
<path d="M165.01 173.721H158.42V180.311H165.01V173.721Z" fill="#BC9311"/>
<path d="M165.01 167.13H158.42V173.72H165.01V167.13Z" fill="#844141"/>
<path d="M165.01 160.601H158.42V167.131H165.01V160.601Z" fill="#A05252"/>
<path d="M165.01 154.011H158.42V160.601H165.01V154.011Z" fill="#A05252"/>
<path d="M165.01 147.48H158.42V154.01H165.01V147.48Z" fill="#A05252"/>
<path d="M165.01 140.891H158.42V147.481H165.01V140.891Z" fill="#A05252"/>
<path d="M165.01 134.36H158.42V140.89H165.01V134.36Z" fill="#A05252"/>
<path d="M165.01 127.761H158.42V134.351H165.01V127.761Z" fill="#A05252"/>
<path d="M165.01 121.17H158.42V127.76H165.01V121.17Z" fill="black"/>
<path d="M158.42 318.141H151.89V324.731H158.42V318.141Z" fill="black"/>
<path d="M158.42 311.601H151.89V318.131H158.42V311.601Z" fill="black"/>
<path d="M158.42 298.48H151.89V305.01H158.42V298.48Z" fill="black"/>
<path d="M158.42 291.891H151.89V298.481H158.42V291.891Z" fill="#BC9311"/>
<path d="M158.42 285.36H151.89V291.89H158.42V285.36Z" fill="#BC9311"/>
<path d="M158.42 278.771H151.89V285.361H158.42V278.771Z" fill="#BA9595"/>
<path d="M158.42 272.181H151.89V278.771H158.42V272.181Z" fill="#BA9595"/>
<path d="M158.42 265.641H151.89V272.171H158.42V265.641Z" fill="#BA9595"/>
<path d="M158.42 259.061H151.89V265.651H158.42V259.061Z" fill="#BC9311"/>
<path d="M158.42 252.521H151.89V259.05H158.42V252.521Z" fill="#BC9311"/>
<path d="M158.42 245.931H151.89V252.521H158.42V245.931Z" fill="#BC9311"/>
<path d="M158.42 239.4H151.89V245.93H158.42V239.4Z" fill="#BC9311"/>
<path d="M158.42 232.811H151.89V239.401H158.42V232.811Z" fill="black"/>
<path d="M158.42 226.221H151.89V232.811H158.42V226.221Z" fill="black"/>
<path d="M158.42 219.69H151.89V226.22H158.42V219.69Z" fill="black"/>
<path d="M158.42 213.09H151.89V219.68H158.42V213.09Z" fill="black"/>
<path d="M158.42 206.561H151.89V213.091H158.42V206.561Z" fill="black"/>
<path d="M158.42 199.971H151.89V206.561H158.42V199.971Z" fill="black"/>
<path d="M158.42 193.44H151.89V199.97H158.42V193.44Z" fill="black"/>
<path d="M158.42 186.851H151.89V193.441H158.42V186.851Z" fill="black"/>
<path d="M158.42 180.32H151.89V186.85H158.42V180.32Z" fill="black"/>
<path d="M158.42 173.721H151.89V180.311H158.42V173.721Z" fill="black"/>
<path d="M158.42 167.13H151.89V173.72H158.42V167.13Z" fill="#844141"/>
<path d="M158.42 160.601H151.89V167.131H158.42V160.601Z" fill="#844141"/>
<path d="M158.42 154.011H151.89V160.601H158.42V154.011Z" fill="#844141"/>
<path d="M158.42 147.48H151.89V154.01H158.42V147.48Z" fill="#A05252"/>
<path d="M158.42 140.891H151.89V147.481H158.42V140.891Z" fill="#A05252"/>
<path d="M158.42 134.36H151.89V140.89H158.42V134.36Z" fill="#A05252"/>
<path d="M158.42 127.761H151.89V134.351H158.42V127.761Z" fill="black"/>
<path d="M151.89 298.48H145.3V305.01H151.89V298.48Z" fill="black"/>
<path d="M151.89 291.891H145.3V298.481H151.89V291.891Z" fill="#BC9311"/>
<path d="M151.89 285.36H145.3V291.89H151.89V285.36Z" fill="#BC9311"/>
<path d="M151.89 278.771H145.3V285.361H151.89V278.771Z" fill="#BA9595"/>
<path d="M151.89 272.181H145.3V278.771H151.89V272.181Z" fill="#BC9311"/>
<path d="M151.89 265.641H145.3V272.171H151.89V265.641Z" fill="#BC9311"/>
<path d="M151.89 259.061H145.3V265.651H151.89V259.061Z" fill="black"/>
<path d="M151.89 252.521H145.3V259.05H151.89V252.521Z" fill="black"/>
<path d="M151.89 245.931H145.3V252.521H151.89V245.931Z" fill="black"/>
<path d="M151.89 239.4H145.3V245.93H151.89V239.4Z" fill="black"/>
<path d="M151.89 232.811H145.3V239.401H151.89V232.811Z" fill="#844141"/>
<path d="M151.89 226.221H145.3V232.811H151.89V226.221Z" fill="#844141"/>
<path d="M151.89 219.69H145.3V226.22H151.89V219.69Z" fill="#844141"/>
<path d="M151.89 213.09H145.3V219.68H151.89V213.09Z" fill="#844141"/>
<path d="M151.89 206.561H145.3V213.091H151.89V206.561Z" fill="#844141"/>
<path d="M151.89 199.971H145.3V206.561H151.89V199.971Z" fill="#844141"/>
<path d="M151.89 193.44H145.3V199.97H151.89V193.44Z" fill="black"/>
<path d="M151.89 186.851H145.3V193.441H151.89V186.851Z" fill="black"/>
<path d="M151.89 180.32H145.3V186.85H151.89V180.32Z" fill="#BA9595"/>
<path d="M151.89 173.721H145.3V180.311H151.89V173.721Z" fill="#BA9595"/>
<path d="M151.89 167.13H145.3V173.72H151.89V167.13Z" fill="#BA9595"/>
<path d="M151.89 160.601H145.3V167.131H151.89V160.601Z" fill="#BA9595"/>
<path d="M151.89 154.011H145.3V160.601H151.89V154.011Z" fill="#BA9595"/>
<path d="M151.89 147.48H145.3V154.01H151.89V147.48Z" fill="#844141"/>
<path d="M151.89 140.891H145.3V147.481H151.89V140.891Z" fill="#844141"/>
<path d="M151.89 134.36H145.3V140.89H151.89V134.36Z" fill="black"/>
<path d="M145.3 298.48H138.77V305.01H145.3V298.48Z" fill="black"/>
<path d="M145.3 291.891H138.77V298.481H145.3V291.891Z" fill="#BC9311"/>
<path d="M145.3 285.36H138.77V291.89H145.3V285.36Z" fill="#BC9311"/>
<path d="M145.3 278.771H138.77V285.361H145.3V278.771Z" fill="#BC9311"/>
<path d="M145.3 272.181H138.77V278.771H145.3V272.181Z" fill="black"/>
<path d="M145.3 265.641H138.77V272.171H145.3V265.641Z" fill="black"/>
<path d="M145.3 259.061H138.77V265.651H145.3V259.061Z" fill="#844141"/>
<path d="M145.3 252.521H138.77V259.05H145.3V252.521Z" fill="#844141"/>
<path d="M145.3 245.931H138.77V252.521H145.3V245.931Z" fill="#844141"/>
<path d="M145.3 239.4H138.77V245.93H145.3V239.4Z" fill="#844141"/>
<path d="M145.3 232.811H138.77V239.401H145.3V232.811Z" fill="#844141"/>
<path d="M145.3 226.221H138.77V232.811H145.3V226.221Z" fill="#844141"/>
<path d="M145.3 219.69H138.77V226.22H145.3V219.69Z" fill="#844141"/>
<path d="M145.3 213.09H138.77V219.68H145.3V213.09Z" fill="#844141"/>
<path d="M145.3 206.561H138.77V213.091H145.3V206.561Z" fill="black"/>
<path d="M145.3 199.971H138.77V206.561H145.3V199.971Z" fill="black"/>
<path d="M145.3 193.44H138.77V199.97H145.3V193.44Z" fill="#D8B8B8"/>
<path d="M145.3 186.851H138.77V193.441H145.3V186.851Z" fill="#D8B8B8"/>
<path d="M145.3 180.32H138.77V186.85H145.3V180.32Z" fill="#D8B8B8"/>
<path d="M145.3 173.721H138.77V180.311H145.3V173.721Z" fill="#D8B8B8"/>
<path d="M145.3 167.13H138.77V173.72H145.3V167.13Z" fill="#D8B8B8"/>
<path d="M145.3 160.601H138.77V167.131H145.3V160.601Z" fill="#BA9595"/>
<path d="M145.3 154.011H138.77V160.601H145.3V154.011Z" fill="black"/>
<path d="M145.3 147.48H138.77V154.01H145.3V147.48Z" fill="black"/>
<path d="M145.3 140.891H138.77V147.481H145.3V140.891Z" fill="black"/>
<path d="M138.77 298.48H132.18V305.01H138.77V298.48Z" fill="black"/>
<path d="M138.77 291.891H132.18V298.481H138.77V291.891Z" fill="#BC9311"/>
<path d="M138.77 285.36H132.18V291.89H138.77V285.36Z" fill="black"/>
<path d="M138.77 278.771H132.18V285.361H138.77V278.771Z" fill="black"/>
<path d="M138.77 272.181H132.18V278.771H138.77V272.181Z" fill="black"/>
<path d="M138.77 265.641H132.18V272.171H138.77V265.641Z" fill="#844141"/>
<path d="M138.77 259.061H132.18V265.651H138.77V259.061Z" fill="#844141"/>
<path d="M138.77 252.521H132.18V259.05H138.77V252.521Z" fill="#844141"/>
<path d="M138.77 245.931H132.18V252.521H138.77V245.931Z" fill="#844141"/>
<path d="M138.77 239.4H132.18V245.93H138.77V239.4Z" fill="#844141"/>
<path d="M138.77 232.811H132.18V239.401H138.77V232.811Z" fill="#844141"/>
<path d="M138.77 226.221H132.18V232.811H138.77V226.221Z" fill="#844141"/>
<path d="M138.77 219.69H132.18V226.22H138.77V219.69Z" fill="black"/>
<path d="M138.77 213.09H132.18V219.68H138.77V213.09Z" fill="black"/>
<path d="M138.77 206.561H132.18V213.091H138.77V206.561Z" fill="#D8B8B8"/>
<path d="M138.77 199.971H132.18V206.561H138.77V199.971Z" fill="#D8B8B8"/>
<path d="M138.77 193.44H132.18V199.97H138.77V193.44Z" fill="#D8B8B8"/>
<path d="M138.77 186.851H132.18V193.441H138.77V186.851Z" fill="#D8B8B8"/>
<path d="M138.77 180.32H132.18V186.85H138.77V180.32Z" fill="black"/>
<path d="M138.77 173.721H132.18V180.311H138.77V173.721Z" fill="black"/>
<path d="M138.77 167.13H132.18V173.72H138.77V167.13Z" fill="black"/>
<path d="M138.77 160.601H132.18V167.131H138.77V160.601Z" fill="black"/>
<path d="M132.17 298.48H125.58V305.01H132.17V298.48Z" fill="black"/>
<path d="M132.17 291.891H125.58V298.481H132.17V291.891Z" fill="black"/>
<path d="M132.17 285.36H125.58V291.89H132.17V285.36Z" fill="black"/>
<path d="M132.17 272.181H125.58V278.771H132.17V272.181Z" fill="black"/>
<path d="M132.17 265.641H125.58V272.171H132.17V265.641Z" fill="#844141"/>
<path d="M132.17 259.061H125.58V265.651H132.17V259.061Z" fill="#844141"/>
<path d="M132.17 252.521H125.58V259.05H132.17V252.521Z" fill="#844141"/>
<path d="M132.17 245.931H125.58V252.521H132.17V245.931Z" fill="#844141"/>
<path d="M132.17 239.4H125.58V245.93H132.17V239.4Z" fill="#844141"/>
<path d="M132.17 232.811H125.58V239.401H132.17V232.811Z" fill="black"/>
<path d="M132.17 226.221H125.58V232.811H132.17V226.221Z" fill="black"/>
<path d="M132.17 219.69H125.58V226.22H132.17V219.69Z" fill="#D8B8B8"/>
<path d="M132.17 213.09H125.58V219.68H132.17V213.09Z" fill="#D8B8B8"/>
<path d="M132.17 206.561H125.58V213.091H132.17V206.561Z" fill="#D8B8B8"/>
<path d="M132.17 199.971H125.58V206.561H132.17V199.971Z" fill="#D8B8B8"/>
<path d="M132.17 193.44H125.58V199.97H132.17V193.44Z" fill="#D8B8B8"/>
<path d="M132.17 186.851H125.58V193.441H132.17V186.851Z" fill="black"/>
<path d="M125.58 272.181H119.05V278.771H125.58V272.181Z" fill="black"/>
<path d="M125.58 265.641H119.05V272.171H125.58V265.641Z" fill="#844141"/>
<path d="M125.58 259.061H119.05V265.651H125.58V259.061Z" fill="#844141"/>
<path d="M125.58 252.521H119.05V259.05H125.58V252.521Z" fill="black"/>
<path d="M125.58 245.931H119.05V252.521H125.58V245.931Z" fill="black"/>
<path d="M125.58 239.4H119.05V245.93H125.58V239.4Z" fill="black"/>
<path d="M125.58 232.811H119.05V239.401H125.58V232.811Z" fill="#D8B8B8"/>
<path d="M125.58 226.221H119.05V232.811H125.58V226.221Z" fill="#D8B8B8"/>
<path d="M125.58 219.69H119.05V226.22H125.58V219.69Z" fill="#D8B8B8"/>
<path d="M125.58 213.09H119.05V219.68H125.58V213.09Z" fill="#D8B8B8"/>
<path d="M125.58 206.561H119.05V213.091H125.58V206.561Z" fill="#D8B8B8"/>
<path d="M125.58 199.971H119.05V206.561H125.58V199.971Z" fill="#D8B8B8"/>
<path d="M125.58 193.44H119.05V199.97H125.58V193.44Z" fill="black"/>
<path d="M119.05 272.181H112.46V278.771H119.05V272.181Z" fill="black"/>
<path d="M119.05 265.641H112.46V272.171H119.05V265.641Z" fill="black"/>
<path d="M119.05 259.061H112.46V265.651H119.05V259.061Z" fill="black"/>
<path d="M119.05 252.521H112.46V259.05H119.05V252.521Z" fill="#D8B8B8"/>
<path d="M119.05 245.931H112.46V252.521H119.05V245.931Z" fill="#D8B8B8"/>
<path d="M119.05 239.4H112.46V245.93H119.05V239.4Z" fill="#D8B8B8"/>
<path d="M119.05 232.811H112.46V239.401H119.05V232.811Z" fill="#D8B8B8"/>
<path d="M119.05 226.221H112.46V232.811H119.05V226.221Z" fill="#D8B8B8"/>
<path d="M119.05 219.69H112.46V226.22H119.05V219.69Z" fill="#D8B8B8"/>
<path d="M119.05 213.09H112.46V219.68H119.05V213.09Z" fill="black"/>
<path d="M119.05 206.561H112.46V213.091H119.05V206.561Z" fill="black"/>
<path d="M119.05 199.971H112.46V206.561H119.05V199.971Z" fill="black"/>
<path d="M112.46 285.36H105.93V291.89H112.46V285.36Z" fill="black"/>
<path d="M112.46 278.771H105.93V285.361H112.46V278.771Z" fill="black"/>
<path d="M112.46 272.181H105.93V278.771H112.46V272.181Z" fill="black"/>
<path d="M112.46 265.641H105.93V272.171H112.46V265.641Z" fill="#A05252"/>
<path d="M112.46 259.061H105.93V265.651H112.46V259.061Z" fill="#A05252"/>
<path d="M112.46 252.521H105.93V259.05H112.46V252.521Z" fill="#D8B8B8"/>
<path d="M112.46 245.931H105.93V252.521H112.46V245.931Z" fill="#D8B8B8"/>
<path d="M112.46 239.4H105.93V245.93H112.46V239.4Z" fill="#D8B8B8"/>
<path d="M112.46 232.811H105.93V239.401H112.46V232.811Z" fill="#D8B8B8"/>
<path d="M112.46 226.221H105.93V232.811H112.46V226.221Z" fill="#D8B8B8"/>
<path d="M112.46 219.69H105.93V226.22H112.46V219.69Z" fill="black"/>
<path d="M105.93 285.36H99.3398V291.89H105.93V285.36Z" fill="black"/>
<path d="M105.93 278.771H99.3398V285.361H105.93V278.771Z" fill="#A05252"/>
<path d="M105.93 272.181H99.3398V278.771H105.93V272.181Z" fill="#A05252"/>
<path d="M105.93 265.641H99.3398V272.171H105.93V265.641Z" fill="#A05252"/>
<path d="M105.93 259.061H99.3398V265.651H105.93V259.061Z" fill="#A05252"/>
<path d="M105.93 252.521H99.3398V259.05H105.93V252.521Z" fill="#A05252"/>
<path d="M105.93 245.931H99.3398V252.521H105.93V245.931Z" fill="#D8B8B8"/>
<path d="M105.93 239.4H99.3398V245.93H105.93V239.4Z" fill="#D8B8B8"/>
<path d="M105.93 232.811H99.3398V239.401H105.93V232.811Z" fill="black"/>
<path d="M105.93 226.221H99.3398V232.811H105.93V226.221Z" fill="black"/>
<path d="M99.3401 278.771H92.8101V285.361H99.3401V278.771Z" fill="black"/>
<path d="M99.3401 272.181H92.8101V278.771H99.3401V272.181Z" fill="#A05252"/>
<path d="M99.3401 265.641H92.8101V272.171H99.3401V265.641Z" fill="#A05252"/>
<path d="M99.3401 259.061H92.8101V265.651H99.3401V259.061Z" fill="#A05252"/>
<path d="M99.3401 252.521H92.8101V259.05H99.3401V252.521Z" fill="#A05252"/>
<path d="M99.3401 245.931H92.8101V252.521H99.3401V245.931Z" fill="black"/>
<path d="M99.3401 239.4H92.8101V245.93H99.3401V239.4Z" fill="black"/>
<path d="M92.8 272.181H86.21V278.771H92.8V272.181Z" fill="black"/>
<path d="M92.8 265.641H86.21V272.171H92.8V265.641Z" fill="black"/>
<path d="M92.8 259.061H86.21V265.651H92.8V259.061Z" fill="black"/>
<path d="M92.8 252.521H86.21V259.05H92.8V252.521Z" fill="black"/>
</svg>
