<svg width="400" height="400" viewBox="0 0 400 400" fill="none" xmlns="http://www.w3.org/2000/svg">
<path d="M385.78 200C385.78 302.6 302.6 385.78 200 385.78C97.4 385.78 14.22 302.6 14.22 200C14.22 97.3997 97.39 14.2197 200 14.2197C302.61 14.2197 385.78 97.3997 385.78 200Z" fill="black"/>
<path d="M200 392.78C93.7 392.78 7.22 306.3 7.22 200C7.22 93.6997 93.7 7.21973 200 7.21973C306.3 7.21973 392.78 93.6997 392.78 200C392.78 306.3 306.3 392.78 200 392.78ZM200 21.2197C101.42 21.2197 21.22 101.42 21.22 200C21.22 298.58 101.42 378.78 200 378.78C298.58 378.78 378.78 298.58 378.78 200C378.78 101.42 298.58 21.2197 200 21.2197Z" fill="#B5A518"/>
<path d="M304.46 145.78H297.36V152.88H304.46V145.78Z" fill="black"/>
<path d="M304.46 138.61H297.36V145.78H304.46V138.61Z" fill="black"/>
<path d="M304.46 131.44H297.36V138.61H304.46V131.44Z" fill="black"/>
<path d="M304.46 124.34H297.36V131.44H304.46V124.34Z" fill="black"/>
<path d="M304.46 117.19H297.36V124.36H304.46V117.19Z" fill="black"/>
<path d="M304.46 110.09H297.36V117.19H304.46V110.09Z" fill="black"/>
<path d="M304.46 88.6504H297.36V95.8204H304.46V88.6504Z" fill="black"/>
<path d="M297.36 174.31H290.19V181.41H297.36V174.31Z" fill="black"/>
<path d="M297.36 167.14H290.19V174.31H297.36V167.14Z" fill="black"/>
<path d="M297.36 160.04H290.19V167.14H297.36V160.04Z" fill="black"/>
<path d="M297.36 152.87H290.19V160.04H297.36V152.87Z" fill="black"/>
<path d="M297.36 145.78H290.19V152.88H297.36V145.78Z" fill="#3D3D3B"/>
<path d="M297.36 138.61H290.19V145.78H297.36V138.61Z" fill="#3D3D3B"/>
<path d="M297.36 131.44H290.19V138.61H297.36V131.44Z" fill="#3D3D3B"/>
<path d="M297.36 124.34H290.19V131.44H297.36V124.34Z" fill="#3D3D3B"/>
<path d="M297.36 117.19H290.19V124.36H297.36V117.19Z" fill="#3D3D3B"/>
<path d="M297.36 110.09H290.19V117.19H297.36V110.09Z" fill="#3D3D3B"/>
<path d="M297.36 102.92H290.19V110.09H297.36V102.92Z" fill="black"/>
<path d="M297.36 95.8203H290.19V102.92H297.36V95.8203Z" fill="black"/>
<path d="M297.36 88.6504H290.19V95.8204H297.36V88.6504Z" fill="#3D3D3B"/>
<path d="M297.36 81.5596H290.19V88.6596H297.36V81.5596Z" fill="black"/>
<path d="M290.21 188.56H283.11V195.73H290.21V188.56Z" fill="black"/>
<path d="M290.21 181.39H283.11V188.56H290.21V181.39Z" fill="black"/>
<path d="M290.21 174.31H283.11V181.41H290.21V174.31Z" fill="#3D3D3B"/>
<path d="M290.21 167.14H283.11V174.31H290.21V167.14Z" fill="#3D3D3B"/>
<path d="M290.21 160.04H283.11V167.14H290.21V160.04Z" fill="#3D3D3B"/>
<path d="M290.21 152.87H283.11V160.04H290.21V152.87Z" fill="#3D3D3B"/>
<path d="M290.21 145.78H283.11V152.88H290.21V145.78Z" fill="#2B2B2A"/>
<path d="M290.21 138.61H283.11V145.78H290.21V138.61Z" fill="#2B2B2A"/>
<path d="M290.21 131.44H283.11V138.61H290.21V131.44Z" fill="#2B2B2A"/>
<path d="M290.21 124.34H283.11V131.44H290.21V124.34Z" fill="#2B2B2A"/>
<path d="M290.21 117.19H283.11V124.36H290.21V117.19Z" fill="#2B2B2A"/>
<path d="M290.21 110.09H283.11V117.19H290.21V110.09Z" fill="#2B2B2A"/>
<path d="M290.21 102.92H283.11V110.09H290.21V102.92Z" fill="#3D3D3B"/>
<path d="M290.21 95.8203H283.11V102.92H290.21V95.8203Z" fill="#3D3D3B"/>
<path d="M290.21 88.6504H283.11V95.8204H290.21V88.6504Z" fill="#2B2B2A"/>
<path d="M290.21 81.5596H283.11V88.6596H290.21V81.5596Z" fill="black"/>
<path d="M283.11 202.83H275.94V210H283.11V202.83Z" fill="black"/>
<path d="M283.11 195.73H275.94V202.83H283.11V195.73Z" fill="black"/>
<path d="M283.11 188.56H275.94V195.73H283.11V188.56Z" fill="#3D3D3B"/>
<path d="M283.11 181.39H275.94V188.56H283.11V181.39Z" fill="#2B2B2A"/>
<path d="M283.11 174.31H275.94V181.41H283.11V174.31Z" fill="#2B2B2A"/>
<path d="M283.11 167.14H275.94V174.31H283.11V167.14Z" fill="#2B2B2A"/>
<path d="M283.11 160.04H275.94V167.14H283.11V160.04Z" fill="#2B2B2A"/>
<path d="M283.11 152.87H275.94V160.04H283.11V152.87Z" fill="#2B2B2A"/>
<path d="M283.11 102.92H275.94V110.09H283.11V102.92Z" fill="#2B2B2A"/>
<path d="M283.11 95.8203H275.94V102.92H283.11V95.8203Z" fill="#2B2B2A"/>
<path d="M283.11 88.6504H275.94V95.8204H283.11V88.6504Z" fill="#8A8D8E"/>
<path d="M275.94 217.09H268.77V224.26H275.94V217.09Z" fill="black"/>
<path d="M275.94 210H268.77V217.1H275.94V210Z" fill="black"/>
<path d="M275.94 202.83H268.77V210H275.94V202.83Z" fill="#3D3D3B"/>
<path d="M275.94 195.73H268.77V202.83H275.94V195.73Z" fill="#2B2B2A"/>
<path d="M275.94 188.56H268.77V195.73H275.94V188.56Z" fill="#2B2B2A"/>
<path d="M275.94 95.8203H268.77V102.92H275.94V95.8203Z" fill="#8A8D8E"/>
<path d="M268.77 224.26H261.67V231.36H268.77V224.26Z" fill="black"/>
<path d="M268.77 217.09H261.67V224.26H268.77V217.09Z" fill="#DD8976"/>
<path d="M268.77 210H261.67V217.1H268.77V210Z" fill="#DD8976"/>
<path d="M268.77 202.83H261.67V210H268.77V202.83Z" fill="#2B2B2A"/>
<path d="M268.77 102.92H261.67V110.09H268.77V102.92Z" fill="#8A8D8E"/>
<path d="M261.67 231.36H254.5V238.53H261.67V231.36Z" fill="black"/>
<path d="M261.67 224.26H254.5V231.36H261.67V224.26Z" fill="#DD8976"/>
<path d="M261.67 217.09H254.5V224.26H261.67V217.09Z" fill="#DD8976"/>
<path d="M261.67 210H254.5V217.1H261.67V210Z" fill="#F7AB94"/>
<path d="M261.67 202.83H254.5V210H261.67V202.83Z" fill="black"/>
<path d="M261.67 195.73H254.5V202.83H261.67V195.73Z" fill="black"/>
<path d="M261.67 188.56H254.5V195.73H261.67V188.56Z" fill="black"/>
<path d="M261.67 110.09H254.5V117.19H261.67V110.09Z" fill="#8A8D8E"/>
<path d="M254.51 324.17H247.41V331.27H254.51V324.17Z" fill="black"/>
<path d="M254.51 317H247.41V324.17H254.51V317Z" fill="black"/>
<path d="M254.51 231.36H247.41V238.53H254.51V231.36Z" fill="black"/>
<path d="M254.51 224.26H247.41V231.36H254.51V224.26Z" fill="#F7AB94"/>
<path d="M254.51 217.09H247.41V224.26H254.51V217.09Z" fill="#F7AB94"/>
<path d="M254.51 210H247.41V217.1H254.51V210Z" fill="#373801"/>
<path d="M254.51 202.83H247.41V210H254.51V202.83Z" fill="#373801"/>
<path d="M254.51 195.73H247.41V202.83H254.51V195.73Z" fill="#373801"/>
<path d="M254.51 188.56H247.41V195.73H254.51V188.56Z" fill="#373801"/>
<path d="M254.51 181.39H247.41V188.56H254.51V181.39Z" fill="black"/>
<path d="M254.51 174.31H247.41V181.41H254.51V174.31Z" fill="black"/>
<path d="M254.51 167.14H247.41V174.31H254.51V167.14Z" fill="black"/>
<path d="M254.51 160.04H247.41V167.14H254.51V160.04Z" fill="black"/>
<path d="M254.51 152.87H247.41V160.04H254.51V152.87Z" fill="black"/>
<path d="M254.51 117.19H247.41V124.36H254.51V117.19Z" fill="#8A8D8E"/>
<path d="M247.41 324.17H240.24V331.27H247.41V324.17Z" fill="black"/>
<path d="M247.41 317H240.24V324.17H247.41V317Z" fill="#660801"/>
<path d="M247.41 309.91H240.24V317.01H247.41V309.91Z" fill="black"/>
<path d="M247.41 267.05H240.24V274.22H247.41V267.05Z" fill="black"/>
<path d="M247.41 259.95H240.24V267.05H247.41V259.95Z" fill="black"/>
<path d="M247.41 252.78H240.24V259.95H247.41V252.78Z" fill="black"/>
<path d="M247.41 238.52H240.24V245.62H247.41V238.52Z" fill="black"/>
<path d="M247.41 231.36H240.24V238.53H247.41V231.36Z" fill="#3D3D3B"/>
<path d="M247.41 224.26H240.24V231.36H247.41V224.26Z" fill="black"/>
<path d="M247.41 217.09H240.24V224.26H247.41V217.09Z" fill="#373801"/>
<path d="M247.41 210H240.24V217.1H247.41V210Z" fill="#373801"/>
<path d="M247.41 202.83H240.24V210H247.41V202.83Z" fill="#373801"/>
<path d="M247.41 195.73H240.24V202.83H247.41V195.73Z" fill="#5C6302"/>
<path d="M247.41 188.56H240.24V195.73H247.41V188.56Z" fill="#5C6302"/>
<path d="M247.41 181.39H240.24V188.56H247.41V181.39Z" fill="#5C6302"/>
<path d="M247.41 174.31H240.24V181.41H247.41V174.31Z" fill="#5C6302"/>
<path d="M247.41 167.14H240.24V174.31H247.41V167.14Z" fill="black"/>
<path d="M247.41 160.04H240.24V167.14H247.41V160.04Z" fill="#2B2B2A"/>
<path d="M247.41 152.87H240.24V160.04H247.41V152.87Z" fill="#2B2B2A"/>
<path d="M247.41 145.78H240.24V152.88H247.41V145.78Z" fill="black"/>
<path d="M247.41 138.61H240.24V145.78H247.41V138.61Z" fill="black"/>
<path d="M247.41 124.34H240.24V131.44H247.41V124.34Z" fill="#8A8D8E"/>
<path d="M240.24 324.17H233.14V331.27H240.24V324.17Z" fill="black"/>
<path d="M240.24 317H233.14V324.17H240.24V317Z" fill="#660801"/>
<path d="M240.24 309.91H233.14V317.01H240.24V309.91Z" fill="#3F1401"/>
<path d="M240.24 302.74H233.14V309.91H240.24V302.74Z" fill="black"/>
<path d="M240.24 295.57H233.14V302.74H240.24V295.57Z" fill="black"/>
<path d="M240.24 288.48H233.14V295.58H240.24V288.48Z" fill="black"/>
<path d="M240.24 281.31H233.14V288.48H240.24V281.31Z" fill="black"/>
<path d="M240.24 274.22H233.14V281.32H240.24V274.22Z" fill="black"/>
<path d="M240.24 267.05H233.14V274.22H240.24V267.05Z" fill="#2B2B2A"/>
<path d="M240.24 259.95H233.14V267.05H240.24V259.95Z" fill="#2B2B2A"/>
<path d="M240.24 252.78H233.14V259.95H240.24V252.78Z" fill="#2B2B2A"/>
<path d="M240.24 245.61H233.14V252.78H240.24V245.61Z" fill="black"/>
<path d="M240.24 238.52H233.14V245.62H240.24V238.52Z" fill="black"/>
<path d="M240.24 231.36H233.14V238.53H240.24V231.36Z" fill="#3D3D3B"/>
<path d="M240.24 224.26H233.14V231.36H240.24V224.26Z" fill="#2B2B2A"/>
<path d="M240.24 217.09H233.14V224.26H240.24V217.09Z" fill="black"/>
<path d="M240.24 210H233.14V217.1H240.24V210Z" fill="#373801"/>
<path d="M240.24 202.83H233.14V210H240.24V202.83Z" fill="#5C6302"/>
<path d="M240.24 195.73H233.14V202.83H240.24V195.73Z" fill="#5C6302"/>
<path d="M240.24 188.56H233.14V195.73H240.24V188.56Z" fill="#5C6302"/>
<path d="M240.24 181.39H233.14V188.56H240.24V181.39Z" fill="#5C6302"/>
<path d="M240.24 174.31H233.14V181.41H240.24V174.31Z" fill="black"/>
<path d="M240.24 167.14H233.14V174.31H240.24V167.14Z" fill="#3D3D3B"/>
<path d="M240.24 160.04H233.14V167.14H240.24V160.04Z" fill="#2B2B2A"/>
<path d="M240.24 152.87H233.14V160.04H240.24V152.87Z" fill="#2B2B2A"/>
<path d="M240.24 145.78H233.14V152.88H240.24V145.78Z" fill="#3D3D3B"/>
<path d="M240.24 138.61H233.14V145.78H240.24V138.61Z" fill="black"/>
<path d="M240.24 131.44H233.14V138.61H240.24V131.44Z" fill="#8A8D8E"/>
<path d="M240.24 124.34H233.14V131.44H240.24V124.34Z" fill="black"/>
<path d="M240.24 117.19H233.14V124.36H240.24V117.19Z" fill="black"/>
<path d="M240.24 95.8203H233.14V102.92H240.24V95.8203Z" fill="black"/>
<path d="M240.24 88.6504H233.14V95.8204H240.24V88.6504Z" fill="black"/>
<path d="M240.24 81.5596H233.14V88.6596H240.24V81.5596Z" fill="black"/>
<path d="M233.15 324.17H225.98V331.27H233.15V324.17Z" fill="black"/>
<path d="M233.15 317H225.98V324.17H233.15V317Z" fill="#5B1E00"/>
<path d="M233.15 309.91H225.98V317.01H233.15V309.91Z" fill="#3F1401"/>
<path d="M233.15 302.74H225.98V309.91H233.15V302.74Z" fill="#3F1401"/>
<path d="M233.15 295.57H225.98V302.74H233.15V295.57Z" fill="#3F1401"/>
<path d="M233.15 288.48H225.98V295.58H233.15V288.48Z" fill="#3F1401"/>
<path d="M233.15 281.31H225.98V288.48H233.15V281.31Z" fill="#3F1401"/>
<path d="M233.15 274.22H225.98V281.32H233.15V274.22Z" fill="black"/>
<path d="M233.15 267.05H225.98V274.22H233.15V267.05Z" fill="#B5A518"/>
<path d="M233.15 259.95H225.98V267.05H233.15V259.95Z" fill="#2B2B2A"/>
<path d="M233.15 252.78H225.98V259.95H233.15V252.78Z" fill="#2B2B2A"/>
<path d="M233.15 245.61H225.98V252.78H233.15V245.61Z" fill="#2B2B2A"/>
<path d="M233.15 238.52H225.98V245.62H233.15V238.52Z" fill="black"/>
<path d="M233.15 231.36H225.98V238.53H233.15V231.36Z" fill="black"/>
<path d="M233.15 224.26H225.98V231.36H233.15V224.26Z" fill="black"/>
<path d="M233.15 217.09H225.98V224.26H233.15V217.09Z" fill="black"/>
<path d="M233.15 210H225.98V217.1H233.15V210Z" fill="black"/>
<path d="M233.15 202.83H225.98V210H233.15V202.83Z" fill="black"/>
<path d="M233.15 195.73H225.98V202.83H233.15V195.73Z" fill="black"/>
<path d="M233.15 188.56H225.98V195.73H233.15V188.56Z" fill="black"/>
<path d="M233.15 181.39H225.98V188.56H233.15V181.39Z" fill="black"/>
<path d="M233.15 174.31H225.98V181.41H233.15V174.31Z" fill="#373801"/>
<path d="M233.15 167.14H225.98V174.31H233.15V167.14Z" fill="black"/>
<path d="M233.15 160.04H225.98V167.14H233.15V160.04Z" fill="black"/>
<path d="M233.15 152.87H225.98V160.04H233.15V152.87Z" fill="#2B2B2A"/>
<path d="M233.15 145.78H225.98V152.88H233.15V145.78Z" fill="#2B2B2A"/>
<path d="M233.15 138.61H225.98V145.78H233.15V138.61Z" fill="#3D3D3B"/>
<path d="M233.15 131.44H225.98V138.61H233.15V131.44Z" fill="black"/>
<path d="M233.15 124.34H225.98V131.44H233.15V124.34Z" fill="black"/>
<path d="M233.15 117.19H225.98V124.36H233.15V117.19Z" fill="#2B2B2A"/>
<path d="M233.15 110.09H225.98V117.19H233.15V110.09Z" fill="black"/>
<path d="M233.15 102.92H225.98V110.09H233.15V102.92Z" fill="black"/>
<path d="M233.15 95.8203H225.98V102.92H233.15V95.8203Z" fill="#2B2B2A"/>
<path d="M233.15 88.6504H225.98V95.8204H233.15V88.6504Z" fill="#2B2B2A"/>
<path d="M233.15 81.5596H225.98V88.6596H233.15V81.5596Z" fill="black"/>
<path d="M225.98 324.17H218.81V331.27H225.98V324.17Z" fill="black"/>
<path d="M225.98 317H218.81V324.17H225.98V317Z" fill="#5B1E00"/>
<path d="M225.98 309.91H218.81V317.01H225.98V309.91Z" fill="#660801"/>
<path d="M225.98 302.74H218.81V309.91H225.98V302.74Z" fill="#660801"/>
<path d="M225.98 295.57H218.81V302.74H225.98V295.57Z" fill="#660801"/>
<path d="M225.98 288.48H218.81V295.58H225.98V288.48Z" fill="#3F1401"/>
<path d="M225.98 281.31H218.81V288.48H225.98V281.31Z" fill="#5B1E00"/>
<path d="M225.98 274.22H218.81V281.32H225.98V274.22Z" fill="black"/>
<path d="M225.98 267.05H218.81V274.22H225.98V267.05Z" fill="#B5A518"/>
<path d="M225.98 259.95H218.81V267.05H225.98V259.95Z" fill="#B5A518"/>
<path d="M225.98 252.78H218.81V259.95H225.98V252.78Z" fill="#2B2B2A"/>
<path d="M225.98 245.61H218.81V252.78H225.98V245.61Z" fill="#3D3D3B"/>
<path d="M225.98 238.52H218.81V245.62H225.98V238.52Z" fill="#2B2B2A"/>
<path d="M225.98 231.36H218.81V238.53H225.98V231.36Z" fill="black"/>
<path d="M225.98 224.26H218.81V231.36H225.98V224.26Z" fill="#373801"/>
<path d="M225.98 217.09H218.81V224.26H225.98V217.09Z" fill="#373801"/>
<path d="M225.98 210H218.81V217.1H225.98V210Z" fill="#5C6302"/>
<path d="M225.98 202.83H218.81V210H225.98V202.83Z" fill="#5C6302"/>
<path d="M225.98 195.73H218.81V202.83H225.98V195.73Z" fill="#5C6302"/>
<path d="M225.98 188.56H218.81V195.73H225.98V188.56Z" fill="#373801"/>
<path d="M225.98 181.39H218.81V188.56H225.98V181.39Z" fill="#373801"/>
<path d="M225.98 174.31H218.81V181.41H225.98V174.31Z" fill="#373801"/>
<path d="M225.98 167.14H218.81V174.31H225.98V167.14Z" fill="#2B2B2A"/>
<path d="M225.98 160.04H218.81V167.14H225.98V160.04Z" fill="#3D3D3B"/>
<path d="M225.98 152.87H218.81V160.04H225.98V152.87Z" fill="black"/>
<path d="M225.98 145.78H218.81V152.88H225.98V145.78Z" fill="#2B2B2A"/>
<path d="M225.98 138.61H218.81V145.78H225.98V138.61Z" fill="black"/>
<path d="M225.98 131.44H218.81V138.61H225.98V131.44Z" fill="#2B2B2A"/>
<path d="M225.98 124.34H218.81V131.44H225.98V124.34Z" fill="#2B2B2A"/>
<path d="M225.98 117.19H218.81V124.36H225.98V117.19Z" fill="#2B2B2A"/>
<path d="M225.98 110.09H218.81V117.19H225.98V110.09Z" fill="#2B2B2A"/>
<path d="M225.98 102.92H218.81V110.09H225.98V102.92Z" fill="#2B2B2A"/>
<path d="M225.98 95.8203H218.81V102.92H225.98V95.8203Z" fill="#2B2B2A"/>
<path d="M225.98 88.6504H218.81V95.8204H225.98V88.6504Z" fill="#2B2B2A"/>
<path d="M225.98 81.5596H218.81V88.6596H225.98V81.5596Z" fill="black"/>
<path d="M218.82 324.17H211.72V331.27H218.82V324.17Z" fill="black"/>
<path d="M218.82 317H211.72V324.17H218.82V317Z" fill="#5B1E00"/>
<path d="M218.82 309.91H211.72V317.01H218.82V309.91Z" fill="#5B1E00"/>
<path d="M218.82 302.74H211.72V309.91H218.82V302.74Z" fill="#660801"/>
<path d="M218.82 295.57H211.72V302.74H218.82V295.57Z" fill="#5B1E00"/>
<path d="M218.82 288.48H211.72V295.58H218.82V288.48Z" fill="#5B1E00"/>
<path d="M218.82 281.31H211.72V288.48H218.82V281.31Z" fill="#5B1E00"/>
<path d="M218.82 274.22H211.72V281.32H218.82V274.22Z" fill="black"/>
<path d="M218.82 267.05H211.72V274.22H218.82V267.05Z" fill="#B5A518"/>
<path d="M218.82 259.95H211.72V267.05H218.82V259.95Z" fill="#B5A518"/>
<path d="M218.82 252.78H211.72V259.95H218.82V252.78Z" fill="#B5A518"/>
<path d="M218.82 245.61H211.72V252.78H218.82V245.61Z" fill="#3D3D3B"/>
<path d="M218.82 238.52H211.72V245.62H218.82V238.52Z" fill="#3D3D3B"/>
<path d="M218.82 231.36H211.72V238.53H218.82V231.36Z" fill="#373801"/>
<path d="M218.82 224.26H211.72V231.36H218.82V224.26Z" fill="#373801"/>
<path d="M218.82 217.09H211.72V224.26H218.82V217.09Z" fill="#373801"/>
<path d="M218.82 210H211.72V217.1H218.82V210Z" fill="#5C6302"/>
<path d="M218.82 202.83H211.72V210H218.82V202.83Z" fill="#5C6302"/>
<path d="M218.82 195.73H211.72V202.83H218.82V195.73Z" fill="#5C6302"/>
<path d="M218.82 188.56H211.72V195.73H218.82V188.56Z" fill="#5C6302"/>
<path d="M218.82 181.39H211.72V188.56H218.82V181.39Z" fill="#373801"/>
<path d="M218.82 174.31H211.72V181.41H218.82V174.31Z" fill="#373801"/>
<path d="M218.82 167.14H211.72V174.31H218.82V167.14Z" fill="#2B2B2A"/>
<path d="M218.82 160.04H211.72V167.14H218.82V160.04Z" fill="#2B2B2A"/>
<path d="M218.82 152.87H211.72V160.04H218.82V152.87Z" fill="#2B2B2A"/>
<path d="M218.82 145.78H211.72V152.88H218.82V145.78Z" fill="#2B2B2A"/>
<path d="M218.82 138.61H211.72V145.78H218.82V138.61Z" fill="black"/>
<path d="M218.82 131.44H211.72V138.61H218.82V131.44Z" fill="#2B2B2A"/>
<path d="M218.82 124.34H211.72V131.44H218.82V124.34Z" fill="#2B2B2A"/>
<path d="M218.82 117.19H211.72V124.36H218.82V117.19Z" fill="#2B2B2A"/>
<path d="M218.82 110.09H211.72V117.19H218.82V110.09Z" fill="#2B2B2A"/>
<path d="M218.82 102.92H211.72V110.09H218.82V102.92Z" fill="#2B2B2A"/>
<path d="M218.82 95.8203H211.72V102.92H218.82V95.8203Z" fill="#2B2B2A"/>
<path d="M218.82 88.6504H211.72V95.8204H218.82V88.6504Z" fill="#2B2B2A"/>
<path d="M218.82 81.5596H211.72V88.6596H218.82V81.5596Z" fill="black"/>
<path d="M211.72 317H204.55V324.17H211.72V317Z" fill="black"/>
<path d="M211.72 309.91H204.55V317.01H211.72V309.91Z" fill="black"/>
<path d="M211.72 302.74H204.55V309.91H211.72V302.74Z" fill="black"/>
<path d="M211.72 295.57H204.55V302.74H211.72V295.57Z" fill="black"/>
<path d="M211.72 288.48H204.55V295.58H211.72V288.48Z" fill="black"/>
<path d="M211.72 281.31H204.55V288.48H211.72V281.31Z" fill="black"/>
<path d="M211.72 274.22H204.55V281.32H211.72V274.22Z" fill="black"/>
<path d="M211.72 267.05H204.55V274.22H211.72V267.05Z" fill="black"/>
<path d="M211.72 259.95H204.55V267.05H211.72V259.95Z" fill="black"/>
<path d="M211.72 252.78H204.55V259.95H211.72V252.78Z" fill="#B5A518"/>
<path d="M211.72 245.61H204.55V252.78H211.72V245.61Z" fill="#B5A518"/>
<path d="M211.72 238.52H204.55V245.62H211.72V238.52Z" fill="#B5A518"/>
<path d="M211.72 231.36H204.55V238.53H211.72V231.36Z" fill="#373801"/>
<path d="M211.72 224.26H204.55V231.36H211.72V224.26Z" fill="#B5A518"/>
<path d="M211.72 217.09H204.55V224.26H211.72V217.09Z" fill="#5C6302"/>
<path d="M211.72 210H204.55V217.1H211.72V210Z" fill="#5C6302"/>
<path d="M211.72 202.83H204.55V210H211.72V202.83Z" fill="#5C6302"/>
<path d="M211.72 195.73H204.55V202.83H211.72V195.73Z" fill="#5C6302"/>
<path d="M211.72 188.56H204.55V195.73H211.72V188.56Z" fill="#5C6302"/>
<path d="M211.72 181.39H204.55V188.56H211.72V181.39Z" fill="#B5A518"/>
<path d="M211.72 174.31H204.55V181.41H211.72V174.31Z" fill="#B5A518"/>
<path d="M211.72 167.14H204.55V174.31H211.72V167.14Z" fill="#3D3D3B"/>
<path d="M211.72 160.04H204.55V167.14H211.72V160.04Z" fill="#2B2B2A"/>
<path d="M211.72 152.87H204.55V160.04H211.72V152.87Z" fill="#3D3D3B"/>
<path d="M211.72 145.78H204.55V152.88H211.72V145.78Z" fill="black"/>
<path d="M211.72 138.61H204.55V145.78H211.72V138.61Z" fill="#F7AB94"/>
<path d="M211.72 131.44H204.55V138.61H211.72V131.44Z" fill="#F7AB94"/>
<path d="M211.72 124.34H204.55V131.44H211.72V124.34Z" fill="#F7AB94"/>
<path d="M211.72 117.19H204.55V124.36H211.72V117.19Z" fill="#F7AB94"/>
<path d="M211.72 110.09H204.55V117.19H211.72V110.09Z" fill="#2B2B2A"/>
<path d="M211.72 102.92H204.55V110.09H211.72V102.92Z" fill="#2B2B2A"/>
<path d="M211.72 95.8203H204.55V102.92H211.72V95.8203Z" fill="#2B2B2A"/>
<path d="M211.72 88.6504H204.55V95.8204H211.72V88.6504Z" fill="#3D3D3B"/>
<path d="M211.72 81.5596H204.55V88.6596H211.72V81.5596Z" fill="black"/>
<path d="M204.55 267.05H197.45V274.22H204.55V267.05Z" fill="black"/>
<path d="M204.55 259.95H197.45V267.05H204.55V259.95Z" fill="black"/>
<path d="M204.55 252.78H197.45V259.95H204.55V252.78Z" fill="black"/>
<path d="M204.55 245.61H197.45V252.78H204.55V245.61Z" fill="black"/>
<path d="M204.55 238.52H197.45V245.62H204.55V238.52Z" fill="black"/>
<path d="M204.55 231.36H197.45V238.53H204.55V231.36Z" fill="#373801"/>
<path d="M204.55 224.26H197.45V231.36H204.55V224.26Z" fill="#B5A518"/>
<path d="M204.55 217.09H197.45V224.26H204.55V217.09Z" fill="#B5A518"/>
<path d="M204.55 210H197.45V217.1H204.55V210Z" fill="#5C6302"/>
<path d="M204.55 202.83H197.45V210H204.55V202.83Z" fill="#5C6302"/>
<path d="M204.55 195.73H197.45V202.83H204.55V195.73Z" fill="#B5A518"/>
<path d="M204.55 188.56H197.45V195.73H204.55V188.56Z" fill="#B5A518"/>
<path d="M204.55 181.39H197.45V188.56H204.55V181.39Z" fill="#5C6302"/>
<path d="M204.55 174.31H197.45V181.41H204.55V174.31Z" fill="#2B2B2A"/>
<path d="M204.55 167.14H197.45V174.31H204.55V167.14Z" fill="#3D3D3B"/>
<path d="M204.55 160.04H197.45V167.14H204.55V160.04Z" fill="#3D3D3B"/>
<path d="M204.55 152.87H197.45V160.04H204.55V152.87Z" fill="#3D3D3B"/>
<path d="M204.55 145.78H197.45V152.88H204.55V145.78Z" fill="black"/>
<path d="M204.55 138.61H197.45V145.78H204.55V138.61Z" fill="#F7AB94"/>
<path d="M204.55 131.44H197.45V138.61H204.55V131.44Z" fill="#F7AB94"/>
<path d="M204.55 124.34H197.45V131.44H204.55V124.34Z" fill="#F7AB94"/>
<path d="M204.55 117.19H197.45V124.36H204.55V117.19Z" fill="#F7AB94"/>
<path d="M204.55 110.09H197.45V117.19H204.55V110.09Z" fill="#F7AB94"/>
<path d="M204.55 102.92H197.45V110.09H204.55V102.92Z" fill="#2B2B2A"/>
<path d="M204.55 95.8203H197.45V102.92H204.55V95.8203Z" fill="#3D3D3B"/>
<path d="M204.55 88.6504H197.45V95.8204H204.55V88.6504Z" fill="#3D3D3B"/>
<path d="M204.55 81.5596H197.45V88.6596H204.55V81.5596Z" fill="black"/>
<path d="M197.45 288.48H190.28V295.58H197.45V288.48Z" fill="black"/>
<path d="M197.45 281.31H190.28V288.48H197.45V281.31Z" fill="black"/>
<path d="M197.45 274.22H190.28V281.32H197.45V274.22Z" fill="black"/>
<path d="M197.45 267.05H190.28V274.22H197.45V267.05Z" fill="#B5A518"/>
<path d="M197.45 259.95H190.28V267.05H197.45V259.95Z" fill="#B5A518"/>
<path d="M197.45 252.78H190.28V259.95H197.45V252.78Z" fill="#2B2B2A"/>
<path d="M197.45 245.61H190.28V252.78H197.45V245.61Z" fill="#2B2B2A"/>
<path d="M197.45 238.52H190.28V245.62H197.45V238.52Z" fill="#2B2B2A"/>
<path d="M197.45 231.36H190.28V238.53H197.45V231.36Z" fill="black"/>
<path d="M197.45 224.26H190.28V231.36H197.45V224.26Z" fill="#373801"/>
<path d="M197.45 217.09H190.28V224.26H197.45V217.09Z" fill="#B5A518"/>
<path d="M197.45 210H190.28V217.1H197.45V210Z" fill="#B5A518"/>
<path d="M197.45 202.83H190.28V210H197.45V202.83Z" fill="#5C6302"/>
<path d="M197.45 195.73H190.28V202.83H197.45V195.73Z" fill="#B5A518"/>
<path d="M197.45 188.56H190.28V195.73H197.45V188.56Z" fill="#B5A518"/>
<path d="M197.45 181.39H190.28V188.56H197.45V181.39Z" fill="#5C6302"/>
<path d="M197.45 174.31H190.28V181.41H197.45V174.31Z" fill="#2B2B2A"/>
<path d="M197.45 167.14H190.28V174.31H197.45V167.14Z" fill="#3D3D3B"/>
<path d="M197.45 160.04H190.28V167.14H197.45V160.04Z" fill="#3D3D3B"/>
<path d="M197.45 152.87H190.28V160.04H197.45V152.87Z" fill="#3D3D3B"/>
<path d="M197.45 145.78H190.28V152.88H197.45V145.78Z" fill="black"/>
<path d="M197.45 138.61H190.28V145.78H197.45V138.61Z" fill="#F7AB94"/>
<path d="M197.45 131.44H190.28V138.61H197.45V131.44Z" fill="#F7AB94"/>
<path d="M197.45 124.34H190.28V131.44H197.45V124.34Z" fill="#F7AB94"/>
<path d="M197.45 117.19H190.28V124.36H197.45V117.19Z" fill="#F7AB94"/>
<path d="M197.45 110.09H190.28V117.19H197.45V110.09Z" fill="#F7AB94"/>
<path d="M197.45 102.92H190.28V110.09H197.45V102.92Z" fill="#3D3D3B"/>
<path d="M197.45 95.8203H190.28V102.92H197.45V95.8203Z" fill="#3D3D3B"/>
<path d="M197.45 88.6504H190.28V95.8204H197.45V88.6504Z" fill="#3D3D3B"/>
<path d="M197.45 81.5596H190.28V88.6596H197.45V81.5596Z" fill="black"/>
<path d="M190.29 309.91H183.19V317.01H190.29V309.91Z" fill="black"/>
<path d="M190.29 302.74H183.19V309.91H190.29V302.74Z" fill="black"/>
<path d="M190.29 295.57H183.19V302.74H190.29V295.57Z" fill="black"/>
<path d="M190.29 288.48H183.19V295.58H190.29V288.48Z" fill="#3F1401"/>
<path d="M190.29 281.31H183.19V288.48H190.29V281.31Z" fill="#3F1401"/>
<path d="M190.29 274.22H183.19V281.32H190.29V274.22Z" fill="black"/>
<path d="M190.29 267.05H183.19V274.22H190.29V267.05Z" fill="#B5A518"/>
<path d="M190.29 259.95H183.19V267.05H190.29V259.95Z" fill="#2B2B2A"/>
<path d="M190.29 252.78H183.19V259.95H190.29V252.78Z" fill="#2B2B2A"/>
<path d="M190.29 245.61H183.19V252.78H190.29V245.61Z" fill="#3D3D3B"/>
<path d="M190.29 238.52H183.19V245.62H190.29V238.52Z" fill="#2B2B2A"/>
<path d="M190.29 231.36H183.19V238.53H190.29V231.36Z" fill="black"/>
<path d="M190.29 224.26H183.19V231.36H190.29V224.26Z" fill="#373801"/>
<path d="M190.29 217.09H183.19V224.26H190.29V217.09Z" fill="#373801"/>
<path d="M190.29 210H183.19V217.1H190.29V210Z" fill="#5C6302"/>
<path d="M190.29 202.83H183.19V210H190.29V202.83Z" fill="#5C6302"/>
<path d="M190.29 195.73H183.19V202.83H190.29V195.73Z" fill="#B5A518"/>
<path d="M190.29 188.56H183.19V195.73H190.29V188.56Z" fill="#B5A518"/>
<path d="M190.29 181.39H183.19V188.56H190.29V181.39Z" fill="#373801"/>
<path d="M190.29 174.31H183.19V181.41H190.29V174.31Z" fill="#2B2B2A"/>
<path d="M190.29 167.14H183.19V174.31H190.29V167.14Z" fill="#3D3D3B"/>
<path d="M190.29 160.04H183.19V167.14H190.29V160.04Z" fill="#3D3D3B"/>
<path d="M190.29 152.87H183.19V160.04H190.29V152.87Z" fill="#3D3D3B"/>
<path d="M190.29 145.78H183.19V152.88H190.29V145.78Z" fill="black"/>
<path d="M190.29 138.61H183.19V145.78H190.29V138.61Z" fill="#F7AB94"/>
<path d="M190.29 131.44H183.19V138.61H190.29V131.44Z" fill="#F7AB94"/>
<path d="M190.29 124.34H183.19V131.44H190.29V124.34Z" fill="#F7AB94"/>
<path d="M190.29 117.19H183.19V124.36H190.29V117.19Z" fill="#F7AB94"/>
<path d="M190.29 110.09H183.19V117.19H190.29V110.09Z" fill="#3D3D3B"/>
<path d="M190.29 102.92H183.19V110.09H190.29V102.92Z" fill="#3D3D3B"/>
<path d="M190.29 95.8203H183.19V102.92H190.29V95.8203Z" fill="#3D3D3B"/>
<path d="M190.29 88.6504H183.19V95.8204H190.29V88.6504Z" fill="#3D3D3B"/>
<path d="M190.29 81.5596H183.19V88.6596H190.29V81.5596Z" fill="black"/>
<path d="M183.19 331.27H176.02V338.44H183.19V331.27Z" fill="black"/>
<path d="M183.19 324.17H176.02V331.27H183.19V324.17Z" fill="black"/>
<path d="M183.19 317H176.02V324.17H183.19V317Z" fill="black"/>
<path d="M183.19 309.91H176.02V317.01H183.19V309.91Z" fill="#3F1401"/>
<path d="M183.19 302.74H176.02V309.91H183.19V302.74Z" fill="#3F1401"/>
<path d="M183.19 295.57H176.02V302.74H183.19V295.57Z" fill="#3F1401"/>
<path d="M183.19 288.48H176.02V295.58H183.19V288.48Z" fill="#3F1401"/>
<path d="M183.19 281.31H176.02V288.48H183.19V281.31Z" fill="#3F1401"/>
<path d="M183.19 274.22H176.02V281.32H183.19V274.22Z" fill="#3F1401"/>
<path d="M183.19 267.05H176.02V274.22H183.19V267.05Z" fill="black"/>
<path d="M183.19 259.95H176.02V267.05H183.19V259.95Z" fill="#2B2B2A"/>
<path d="M183.19 252.78H176.02V259.95H183.19V252.78Z" fill="#3D3D3B"/>
<path d="M183.19 245.61H176.02V252.78H183.19V245.61Z" fill="#3D3D3B"/>
<path d="M183.19 238.52H176.02V245.62H183.19V238.52Z" fill="#3D3D3B"/>
<path d="M183.19 231.36H176.02V238.53H183.19V231.36Z" fill="#3D3D3B"/>
<path d="M183.19 224.26H176.02V231.36H183.19V224.26Z" fill="black"/>
<path d="M183.19 217.09H176.02V224.26H183.19V217.09Z" fill="#373801"/>
<path d="M183.19 210H176.02V217.1H183.19V210Z" fill="#5C6302"/>
<path d="M183.19 202.83H176.02V210H183.19V202.83Z" fill="#5C6302"/>
<path d="M183.19 195.73H176.02V202.83H183.19V195.73Z" fill="#5C6302"/>
<path d="M183.19 188.56H176.02V195.73H183.19V188.56Z" fill="#373801"/>
<path d="M183.19 181.39H176.02V188.56H183.19V181.39Z" fill="#B5A518"/>
<path d="M183.19 174.31H176.02V181.41H183.19V174.31Z" fill="#B5A518"/>
<path d="M183.19 167.14H176.02V174.31H183.19V167.14Z" fill="#3D3D3B"/>
<path d="M183.19 160.04H176.02V167.14H183.19V160.04Z" fill="#3D3D3B"/>
<path d="M183.19 152.87H176.02V160.04H183.19V152.87Z" fill="#3D3D3B"/>
<path d="M183.19 145.78H176.02V152.88H183.19V145.78Z" fill="#2B2B2A"/>
<path d="M183.19 138.61H176.02V145.78H183.19V138.61Z" fill="black"/>
<path d="M183.19 131.44H176.02V138.61H183.19V131.44Z" fill="#F7AB94"/>
<path d="M183.19 124.34H176.02V131.44H183.19V124.34Z" fill="#F7AB94"/>
<path d="M183.19 117.19H176.02V124.36H183.19V117.19Z" fill="#F7AB94"/>
<path d="M183.19 110.09H176.02V117.19H183.19V110.09Z" fill="#3D3D3B"/>
<path d="M183.19 102.92H176.02V110.09H183.19V102.92Z" fill="#3D3D3B"/>
<path d="M183.19 95.8203H176.02V102.92H183.19V95.8203Z" fill="#3D3D3B"/>
<path d="M183.19 88.6504H176.02V95.8204H183.19V88.6504Z" fill="black"/>
<path d="M176.03 331.27H168.93V338.44H176.03V331.27Z" fill="black"/>
<path d="M176.03 324.17H168.93V331.27H176.03V324.17Z" fill="#3F1401"/>
<path d="M176.03 317H168.93V324.17H176.03V317Z" fill="#3F1401"/>
<path d="M176.03 309.91H168.93V317.01H176.03V309.91Z" fill="#5B1E00"/>
<path d="M176.03 302.74H168.93V309.91H176.03V302.74Z" fill="#660801"/>
<path d="M176.03 295.57H168.93V302.74H176.03V295.57Z" fill="#660801"/>
<path d="M176.03 288.48H168.93V295.58H176.03V288.48Z" fill="#5B1E00"/>
<path d="M176.03 281.31H168.93V288.48H176.03V281.31Z" fill="#3F1401"/>
<path d="M176.03 274.22H168.93V281.32H176.03V274.22Z" fill="#5B1E00"/>
<path d="M176.03 267.05H168.93V274.22H176.03V267.05Z" fill="black"/>
<path d="M176.03 259.95H168.93V267.05H176.03V259.95Z" fill="#3D3D3B"/>
<path d="M176.03 252.78H168.93V259.95H176.03V252.78Z" fill="#3D3D3B"/>
<path d="M176.03 245.61H168.93V252.78H176.03V245.61Z" fill="#3D3D3B"/>
<path d="M176.03 238.52H168.93V245.62H176.03V238.52Z" fill="#2B2B2A"/>
<path d="M176.03 231.36H168.93V238.53H176.03V231.36Z" fill="#2B2B2A"/>
<path d="M176.03 224.26H168.93V231.36H176.03V224.26Z" fill="black"/>
<path d="M176.03 217.09H168.93V224.26H176.03V217.09Z" fill="#373801"/>
<path d="M176.03 210H168.93V217.1H176.03V210Z" fill="#5C6302"/>
<path d="M176.03 202.83H168.93V210H176.03V202.83Z" fill="#5C6302"/>
<path d="M176.03 195.73H168.93V202.83H176.03V195.73Z" fill="#373801"/>
<path d="M176.03 188.56H168.93V195.73H176.03V188.56Z" fill="#373801"/>
<path d="M176.03 181.39H168.93V188.56H176.03V181.39Z" fill="#373801"/>
<path d="M176.03 174.31H168.93V181.41H176.03V174.31Z" fill="#373801"/>
<path d="M176.03 167.14H168.93V174.31H176.03V167.14Z" fill="#373801"/>
<path d="M176.03 160.04H168.93V167.14H176.03V160.04Z" fill="#3D3D3B"/>
<path d="M176.03 152.87H168.93V160.04H176.03V152.87Z" fill="#2B2B2A"/>
<path d="M176.03 145.78H168.93V152.88H176.03V145.78Z" fill="#2B2B2A"/>
<path d="M176.03 138.61H168.93V145.78H176.03V138.61Z" fill="black"/>
<path d="M176.03 131.44H168.93V138.61H176.03V131.44Z" fill="#F7AB94"/>
<path d="M176.03 124.34H168.93V131.44H176.03V124.34Z" fill="#F7AB94"/>
<path d="M176.03 117.19H168.93V124.36H176.03V117.19Z" fill="#2B2B2A"/>
<path d="M176.03 110.09H168.93V117.19H176.03V110.09Z" fill="#3D3D3B"/>
<path d="M176.03 102.92H168.93V110.09H176.03V102.92Z" fill="#3D3D3B"/>
<path d="M176.03 95.8203H168.93V102.92H176.03V95.8203Z" fill="#3D3D3B"/>
<path d="M176.03 88.6504H168.93V95.8204H176.03V88.6504Z" fill="black"/>
<path d="M168.93 331.27H161.76V338.44H168.93V331.27Z" fill="black"/>
<path d="M168.93 324.17H161.76V331.27H168.93V324.17Z" fill="#660801"/>
<path d="M168.93 317H161.76V324.17H168.93V317Z" fill="#3F1401"/>
<path d="M168.93 309.91H161.76V317.01H168.93V309.91Z" fill="#5B1E00"/>
<path d="M168.93 302.74H161.76V309.91H168.93V302.74Z" fill="#660801"/>
<path d="M168.93 295.57H161.76V302.74H168.93V295.57Z" fill="#5B1E00"/>
<path d="M168.93 288.48H161.76V295.58H168.93V288.48Z" fill="#5B1E00"/>
<path d="M168.93 281.31H161.76V288.48H168.93V281.31Z" fill="#3F1401"/>
<path d="M168.93 274.22H161.76V281.32H168.93V274.22Z" fill="#5B1E00"/>
<path d="M168.93 267.05H161.76V274.22H168.93V267.05Z" fill="black"/>
<path d="M168.93 259.95H161.76V267.05H168.93V259.95Z" fill="#B5A518"/>
<path d="M168.93 252.78H161.76V259.95H168.93V252.78Z" fill="#B5A518"/>
<path d="M168.93 245.61H161.76V252.78H168.93V245.61Z" fill="black"/>
<path d="M168.93 238.52H161.76V245.62H168.93V238.52Z" fill="black"/>
<path d="M168.93 231.36H161.76V238.53H168.93V231.36Z" fill="black"/>
<path d="M168.93 224.26H161.76V231.36H168.93V224.26Z" fill="#3F1401"/>
<path d="M168.93 217.09H161.76V224.26H168.93V217.09Z" fill="black"/>
<path d="M168.93 210H161.76V217.1H168.93V210Z" fill="black"/>
<path d="M168.93 202.83H161.76V210H168.93V202.83Z" fill="black"/>
<path d="M168.93 195.73H161.76V202.83H168.93V195.73Z" fill="black"/>
<path d="M168.93 188.56H161.76V195.73H168.93V188.56Z" fill="black"/>
<path d="M168.93 181.39H161.76V188.56H168.93V181.39Z" fill="#373801"/>
<path d="M168.93 174.31H161.76V181.41H168.93V174.31Z" fill="black"/>
<path d="M168.93 167.14H161.76V174.31H168.93V167.14Z" fill="black"/>
<path d="M168.93 160.04H161.76V167.14H168.93V160.04Z" fill="black"/>
<path d="M168.93 152.87H161.76V160.04H168.93V152.87Z" fill="#2B2B2A"/>
<path d="M168.93 145.78H161.76V152.88H168.93V145.78Z" fill="#2B2B2A"/>
<path d="M168.93 138.61H161.76V145.78H168.93V138.61Z" fill="#2B2B2A"/>
<path d="M168.93 131.44H161.76V138.61H168.93V131.44Z" fill="black"/>
<path d="M168.93 124.34H161.76V131.44H168.93V124.34Z" fill="black"/>
<path d="M168.93 117.19H161.76V124.36H168.93V117.19Z" fill="#2B2B2A"/>
<path d="M168.93 110.09H161.76V117.19H168.93V110.09Z" fill="#3D3D3B"/>
<path d="M168.93 102.92H161.76V110.09H168.93V102.92Z" fill="black"/>
<path d="M168.93 95.8203H161.76V102.92H168.93V95.8203Z" fill="black"/>
<path d="M161.76 331.27H154.59V338.44H161.76V331.27Z" fill="black"/>
<path d="M161.76 324.17H154.59V331.27H161.76V324.17Z" fill="#660801"/>
<path d="M161.76 317H154.59V324.17H161.76V317Z" fill="#660801"/>
<path d="M161.76 309.91H154.59V317.01H161.76V309.91Z" fill="#5B1E00"/>
<path d="M161.76 302.74H154.59V309.91H161.76V302.74Z" fill="black"/>
<path d="M161.76 295.57H154.59V302.74H161.76V295.57Z" fill="black"/>
<path d="M161.76 288.48H154.59V295.58H161.76V288.48Z" fill="black"/>
<path d="M161.76 281.31H154.59V288.48H161.76V281.31Z" fill="black"/>
<path d="M161.76 274.22H154.59V281.32H161.76V274.22Z" fill="black"/>
<path d="M161.76 259.95H154.59V267.05H161.76V259.95Z" fill="black"/>
<path d="M161.76 252.78H154.59V259.95H161.76V252.78Z" fill="black"/>
<path d="M161.76 245.61H154.59V252.78H161.76V245.61Z" fill="#3F1401"/>
<path d="M161.76 238.52H154.59V245.62H161.76V238.52Z" fill="#3F1401"/>
<path d="M161.76 231.36H154.59V238.53H161.76V231.36Z" fill="#3F1401"/>
<path d="M161.76 224.26H154.59V231.36H161.76V224.26Z" fill="black"/>
<path d="M161.76 217.09H154.59V224.26H161.76V217.09Z" fill="black"/>
<path d="M161.76 210H154.59V217.1H161.76V210Z" fill="#B5A518"/>
<path d="M161.76 202.83H154.59V210H161.76V202.83Z" fill="#B5A518"/>
<path d="M161.76 195.73H154.59V202.83H161.76V195.73Z" fill="#B5A518"/>
<path d="M161.76 188.56H154.59V195.73H161.76V188.56Z" fill="black"/>
<path d="M161.76 181.39H154.59V188.56H161.76V181.39Z" fill="black"/>
<path d="M161.76 174.31H154.59V181.41H161.76V174.31Z" fill="black"/>
<path d="M161.76 167.14H154.59V174.31H161.76V167.14Z" fill="#2B2B2A"/>
<path d="M161.76 160.04H154.59V167.14H161.76V160.04Z" fill="#2B2B2A"/>
<path d="M161.76 152.87H154.59V160.04H161.76V152.87Z" fill="#3D3D3B"/>
<path d="M161.76 145.78H154.59V152.88H161.76V145.78Z" fill="#2B2B2A"/>
<path d="M161.76 138.61H154.59V145.78H161.76V138.61Z" fill="black"/>
<path d="M161.76 131.44H154.59V138.61H161.76V131.44Z" fill="black"/>
<path d="M161.76 117.19H154.59V124.36H161.76V117.19Z" fill="black"/>
<path d="M161.76 110.09H154.59V117.19H161.76V110.09Z" fill="black"/>
<path d="M154.6 331.27H147.5V338.44H154.6V331.27Z" fill="black"/>
<path d="M154.6 324.17H147.5V331.27H154.6V324.17Z" fill="#660801"/>
<path d="M154.6 317H147.5V324.17H154.6V317Z" fill="#660801"/>
<path d="M154.6 309.91H147.5V317.01H154.6V309.91Z" fill="black"/>
<path d="M154.6 259.95H147.5V267.05H154.6V259.95Z" fill="black"/>
<path d="M154.6 252.78H147.5V259.95H154.6V252.78Z" fill="#3D3D3B"/>
<path d="M154.6 245.61H147.5V252.78H154.6V245.61Z" fill="#3D3D3B"/>
<path d="M154.6 238.52H147.5V245.62H154.6V238.52Z" fill="#3F1401"/>
<path d="M154.6 231.36H147.5V238.53H154.6V231.36Z" fill="black"/>
<path d="M154.6 224.26H147.5V231.36H154.6V224.26Z" fill="#DD8976"/>
<path d="M154.6 217.09H147.5V224.26H154.6V217.09Z" fill="#373801"/>
<path d="M154.6 210H147.5V217.1H154.6V210Z" fill="#5C6302"/>
<path d="M154.6 202.83H147.5V210H154.6V202.83Z" fill="#5C6302"/>
<path d="M154.6 195.73H147.5V202.83H154.6V195.73Z" fill="#373801"/>
<path d="M154.6 188.56H147.5V195.73H154.6V188.56Z" fill="#373801"/>
<path d="M154.6 181.39H147.5V188.56H154.6V181.39Z" fill="#373801"/>
<path d="M154.6 174.31H147.5V181.41H154.6V174.31Z" fill="black"/>
<path d="M154.6 167.14H147.5V174.31H154.6V167.14Z" fill="#2B2B2A"/>
<path d="M154.6 160.04H147.5V167.14H154.6V160.04Z" fill="#3D3D3B"/>
<path d="M154.6 152.87H147.5V160.04H154.6V152.87Z" fill="#3D3D3B"/>
<path d="M154.6 145.78H147.5V152.88H154.6V145.78Z" fill="#3D3D3B"/>
<path d="M154.6 138.61H147.5V145.78H154.6V138.61Z" fill="black"/>
<path d="M147.5 331.27H140.33V338.44H147.5V331.27Z" fill="black"/>
<path d="M147.5 324.17H140.33V331.27H147.5V324.17Z" fill="black"/>
<path d="M147.5 317H140.33V324.17H147.5V317Z" fill="black"/>
<path d="M147.5 252.78H140.33V259.95H147.5V252.78Z" fill="black"/>
<path d="M147.5 245.61H140.33V252.78H147.5V245.61Z" fill="#3D3D3B"/>
<path d="M147.5 238.52H140.33V245.62H147.5V238.52Z" fill="black"/>
<path d="M147.5 231.36H140.33V238.53H147.5V231.36Z" fill="#DD8976"/>
<path d="M147.5 224.26H140.33V231.36H147.5V224.26Z" fill="#DD8976"/>
<path d="M147.5 217.09H140.33V224.26H147.5V217.09Z" fill="#5C6302"/>
<path d="M147.5 210H140.33V217.1H147.5V210Z" fill="#5C6302"/>
<path d="M147.5 202.83H140.33V210H147.5V202.83Z" fill="#373801"/>
<path d="M147.5 195.73H140.33V202.83H147.5V195.73Z" fill="#373801"/>
<path d="M147.5 188.56H140.33V195.73H147.5V188.56Z" fill="#5C6302"/>
<path d="M147.5 181.39H140.33V188.56H147.5V181.39Z" fill="#5C6302"/>
<path d="M147.5 174.31H140.33V181.41H147.5V174.31Z" fill="black"/>
<path d="M147.5 167.14H140.33V174.31H147.5V167.14Z" fill="#3D3D3B"/>
<path d="M147.5 160.04H140.33V167.14H147.5V160.04Z" fill="#3D3D3B"/>
<path d="M147.5 152.87H140.33V160.04H147.5V152.87Z" fill="#3D3D3B"/>
<path d="M147.5 145.78H140.33V152.88H147.5V145.78Z" fill="#2B2B2A"/>
<path d="M147.5 138.61H140.33V145.78H147.5V138.61Z" fill="black"/>
<path d="M140.33 252.78H133.23V259.95H140.33V252.78Z" fill="black"/>
<path d="M140.33 245.61H133.23V252.78H140.33V245.61Z" fill="#5C6302"/>
<path d="M140.33 238.52H133.23V245.62H140.33V238.52Z" fill="black"/>
<path d="M140.33 231.36H133.23V238.53H140.33V231.36Z" fill="#DD8976"/>
<path d="M140.33 224.26H133.23V231.36H140.33V224.26Z" fill="#F7AB94"/>
<path d="M140.33 217.09H133.23V224.26H140.33V217.09Z" fill="#F7AB94"/>
<path d="M140.33 210H133.23V217.1H140.33V210Z" fill="#373801"/>
<path d="M140.33 202.83H133.23V210H140.33V202.83Z" fill="#373801"/>
<path d="M140.33 195.73H133.23V202.83H140.33V195.73Z" fill="#5C6302"/>
<path d="M140.33 188.56H133.23V195.73H140.33V188.56Z" fill="#5C6302"/>
<path d="M140.33 181.39H133.23V188.56H140.33V181.39Z" fill="#5C6302"/>
<path d="M140.33 174.31H133.23V181.41H140.33V174.31Z" fill="#5C6302"/>
<path d="M140.33 167.14H133.23V174.31H140.33V167.14Z" fill="black"/>
<path d="M140.33 160.04H133.23V167.14H140.33V160.04Z" fill="#2B2B2A"/>
<path d="M140.33 152.87H133.23V160.04H140.33V152.87Z" fill="#2B2B2A"/>
<path d="M140.33 145.78H133.23V152.88H140.33V145.78Z" fill="black"/>
<path d="M133.23 259.95H126.06V267.05H133.23V259.95Z" fill="black"/>
<path d="M133.23 252.78H126.06V259.95H133.23V252.78Z" fill="#5C6302"/>
<path d="M133.23 245.61H126.06V252.78H133.23V245.61Z" fill="#5C6302"/>
<path d="M133.23 238.52H126.06V245.62H133.23V238.52Z" fill="#8A8D8E"/>
<path d="M133.23 231.36H126.06V238.53H133.23V231.36Z" fill="black"/>
<path d="M133.23 224.26H126.06V231.36H133.23V224.26Z" fill="#F7AB94"/>
<path d="M133.23 217.09H126.06V224.26H133.23V217.09Z" fill="black"/>
<path d="M133.23 210H126.06V217.1H133.23V210Z" fill="black"/>
<path d="M133.23 202.83H126.06V210H133.23V202.83Z" fill="black"/>
<path d="M133.23 195.73H126.06V202.83H133.23V195.73Z" fill="black"/>
<path d="M133.23 188.56H126.06V195.73H133.23V188.56Z" fill="black"/>
<path d="M133.23 181.39H126.06V188.56H133.23V181.39Z" fill="black"/>
<path d="M133.23 174.31H126.06V181.41H133.23V174.31Z" fill="black"/>
<path d="M133.23 160.04H126.06V167.14H133.23V160.04Z" fill="black"/>
<path d="M133.23 152.87H126.06V160.04H133.23V152.87Z" fill="black"/>
<path d="M126.07 252.78H118.97V259.95H126.07V252.78Z" fill="black"/>
<path d="M126.07 245.61H118.97V252.78H126.07V245.61Z" fill="black"/>
<path d="M126.07 238.52H118.97V245.62H126.07V238.52Z" fill="#8A8D8E"/>
<path d="M126.07 231.36H118.97V238.53H126.07V231.36Z" fill="#8A8D8E"/>
<path d="M126.07 224.26H118.97V231.36H126.07V224.26Z" fill="black"/>
<path d="M126.07 217.09H118.97V224.26H126.07V217.09Z" fill="#8A8D8E"/>
<path d="M118.98 238.52H111.81V245.62H118.98V238.52Z" fill="black"/>
<path d="M118.98 231.36H111.81V238.53H118.98V231.36Z" fill="#8A8D8E"/>
<path d="M118.98 224.26H111.81V231.36H118.98V224.26Z" fill="black"/>
<path d="M118.98 217.09H111.81V224.26H118.98V217.09Z" fill="#8A8D8E"/>
<path d="M118.98 210H111.81V217.1H118.98V210Z" fill="#8A8D8E"/>
<path d="M111.81 238.52H104.64V245.62H111.81V238.52Z" fill="black"/>
<path d="M111.81 231.36H104.64V238.53H111.81V231.36Z" fill="#8A8D8E"/>
<path d="M111.81 224.26H104.64V231.36H111.81V224.26Z" fill="#8A8D8E"/>
<path d="M111.81 217.09H104.64V224.26H111.81V217.09Z" fill="black"/>
<path d="M111.81 210H104.64V217.1H111.81V210Z" fill="#8A8D8E"/>
<path d="M104.64 231.36H97.54V238.53H104.64V231.36Z" fill="black"/>
<path d="M104.64 224.26H97.54V231.36H104.64V224.26Z" fill="#8A8D8E"/>
<path d="M224.59 200.79H220.93V204.45H224.59V200.79Z" fill="#373801"/>
<path d="M224.59 197.2H220.93V200.78H224.59V197.2Z" fill="#373801"/>
<path d="M224.59 193.62H220.93V197.2H224.59V193.62Z" fill="#373801"/>
<path d="M220.93 197.2H217.35V200.78H220.93V197.2Z" fill="#373801"/>
<path d="M220.93 193.62H217.35V197.2H220.93V193.62Z" fill="#373801"/>
<path d="M220.93 189.96H217.35V193.62H220.93V189.96Z" fill="#373801"/>
<path d="M220.93 186.38H217.35V189.96H220.93V186.38Z" fill="#373801"/>
<path d="M217.34 193.62H213.76V197.2H217.34V193.62Z" fill="#373801"/>
<path d="M217.34 189.96H213.76V193.62H217.34V189.96Z" fill="#373801"/>
<path d="M217.34 186.38H213.76V189.96H217.34V186.38Z" fill="#373801"/>
<path d="M213.77 189.96H210.11V193.62H213.77V189.96Z" fill="#373801"/>
<path d="M213.77 186.38H210.11V189.96H213.77V186.38Z" fill="#373801"/>
<path d="M213.77 182.71H210.11V186.37H213.77V182.71Z" fill="#373801"/>
<path d="M213.77 179.14H210.11V182.72H213.77V179.14Z" fill="#373801"/>
<path d="M213.77 175.55H210.11V179.13H213.77V175.55Z" fill="#373801"/>
<path d="M213.77 171.88H210.11V175.54H213.77V171.88Z" fill="#111110"/>
<path d="M210.1 186.38H206.52V189.96H210.1V186.38Z" fill="#373801"/>
<path d="M210.1 182.71H206.52V186.37H210.1V182.71Z" fill="#373801"/>
<path d="M210.1 179.14H206.52V182.72H210.1V179.14Z" fill="#373801"/>
<path d="M210.1 175.55H206.52V179.13H210.1V175.55Z" fill="#373801"/>
<path d="M210.1 171.88H206.52V175.54H210.1V171.88Z" fill="#111110"/>
<path d="M206.53 200.79H202.87V204.45H206.53V200.79Z" fill="#5C6302"/>
<path d="M206.53 171.88H202.87V175.54H206.53V171.88Z" fill="#111110"/>
<path d="M202.86 124.93H199.28V128.59H202.86V124.93Z" fill="#282728"/>
<path d="M202.86 117.76H199.28V121.34H202.86V117.76Z" fill="#F7AB94"/>
<path d="M202.86 114.11H199.28V117.77H202.86V114.11Z" fill="#F7AB94"/>
<path d="M199.28 193.62H195.7V197.2H199.28V193.62Z" fill="#128986"/>
<path d="M199.28 135.83H195.7V139.41H199.28V135.83Z" fill="#DD0590"/>
<path d="M199.28 124.93H195.7V128.59H199.28V124.93Z" fill="#282728"/>
<path d="M199.28 117.76H195.7V121.34H199.28V117.76Z" fill="#F7AB94"/>
<path d="M195.7 197.2H192.04V200.78H195.7V197.2Z" fill="#128986"/>
<path d="M195.7 193.62H192.04V197.2H195.7V193.62Z" fill="#B5A518"/>
<path d="M195.7 189.96H192.04V193.62H195.7V189.96Z" fill="#128986"/>
<path d="M195.7 135.83H192.04V139.41H195.7V135.83Z" fill="#DD0590"/>
<path d="M192.04 193.62H188.46V197.2H192.04V193.62Z" fill="#128986"/>
<path d="M192.04 135.83H188.46V139.41H192.04V135.83Z" fill="#DD0590"/>
<path d="M188.45 135.83H184.87V139.41H188.45V135.83Z" fill="#DD0590"/>
<path d="M184.88 200.79H181.22V204.45H184.88V200.79Z" fill="#5C6302"/>
<path d="M184.88 171.88H181.22V175.54H184.88V171.88Z" fill="#111110"/>
<path d="M184.88 124.93H181.22V128.59H184.88V124.93Z" fill="#282728"/>
<path d="M181.21 186.38H177.63V189.96H181.21V186.38Z" fill="#373801"/>
<path d="M181.21 182.71H177.63V186.37H181.21V182.71Z" fill="#373801"/>
<path d="M181.21 179.14H177.63V182.72H181.21V179.14Z" fill="#373801"/>
<path d="M181.21 175.55H177.63V179.13H181.21V175.55Z" fill="#373801"/>
<path d="M181.21 171.88H177.63V175.54H181.21V171.88Z" fill="#111110"/>
<path d="M181.21 124.93H177.63V128.59H181.21V124.93Z" fill="#282728"/>
<path d="M181.21 117.76H177.63V121.34H181.21V117.76Z" fill="#F7AB94"/>
<path d="M177.64 186.38H173.98V189.96H177.64V186.38Z" fill="#373801"/>
<path d="M177.64 182.71H173.98V186.37H177.64V182.71Z" fill="#373801"/>
<path d="M177.64 179.14H173.98V182.72H177.64V179.14Z" fill="#373801"/>
<path d="M177.64 175.55H173.98V179.13H177.64V175.55Z" fill="#373801"/>
<path d="M177.64 171.88H173.98V175.54H177.64V171.88Z" fill="#111110"/>
<path d="M177.64 168.31H173.98V171.89H177.64V168.31Z" fill="#111110"/>
<path d="M177.64 164.73H173.98V168.31H177.64V164.73Z" fill="#111110"/>
<path d="M173.97 164.73H170.39V168.31H173.97V164.73Z" fill="#111110"/>
<path d="M170.39 164.73H166.81V168.31H170.39V164.73Z" fill="#111110"/>
<path d="M163.15 128.59H159.57V132.17H163.15V128.59Z" fill="#705E03"/>
<path d="M163.15 124.93H159.57V128.59H163.15V124.93Z" fill="black"/>
<path d="M163.15 121.35H159.57V124.93H163.15V121.35Z" fill="black"/>
<path d="M159.56 128.59H155.9V132.17H159.56V128.59Z" fill="#705E03"/>
<path d="M159.56 124.93H155.9V128.59H159.56V124.93Z" fill="#705E03"/>
<path d="M159.56 121.35H155.9V124.93H159.56V121.35Z" fill="black"/>
<path d="M155.91 135.83H152.33V139.41H155.91V135.83Z" fill="#705E03"/>
<path d="M155.91 132.17H152.33V135.83H155.91V132.17Z" fill="#705E03"/>
<path d="M155.91 128.59H152.33V132.17H155.91V128.59Z" fill="#705E03"/>
<path d="M155.91 124.93H152.33V128.59H155.91V124.93Z" fill="#705E03"/>
<path d="M155.91 121.35H152.33V124.93H155.91V121.35Z" fill="#705E03"/>
<path d="M155.91 117.76H152.33V121.34H155.91V117.76Z" fill="black"/>
<path d="M152.33 135.83H148.75V139.41H152.33V135.83Z" fill="#705E03"/>
<path d="M152.33 132.17H148.75V135.83H152.33V132.17Z" fill="#705E03"/>
<path d="M152.33 128.59H148.75V132.17H152.33V128.59Z" fill="#705E03"/>
<path d="M152.33 124.93H148.75V128.59H152.33V124.93Z" fill="#705E03"/>
<path d="M152.33 121.35H148.75V124.93H152.33V121.35Z" fill="#998304"/>
<path d="M152.33 117.76H148.75V121.34H152.33V117.76Z" fill="#998304"/>
<path d="M152.33 114.11H148.75V117.77H152.33V114.11Z" fill="black"/>
<path d="M148.74 135.83H145.08V139.41H148.74V135.83Z" fill="#705E03"/>
<path d="M148.74 132.17H145.08V135.83H148.74V132.17Z" fill="#705E03"/>
<path d="M148.74 128.59H145.08V132.17H148.74V128.59Z" fill="#998304"/>
<path d="M148.74 124.93H145.08V128.59H148.74V124.93Z" fill="#998304"/>
<path d="M148.74 121.35H145.08V124.93H148.74V121.35Z" fill="#998304"/>
<path d="M148.74 117.76H145.08V121.34H148.74V117.76Z" fill="#BFA908"/>
<path d="M148.74 114.11H145.08V117.77H148.74V114.11Z" fill="#BFA908"/>
<path d="M148.74 110.52H145.08V114.1H148.74V110.52Z" fill="black"/>
<path d="M148.74 106.87H145.08V110.53H148.74V106.87Z" fill="black"/>
<path d="M145.07 135.83H141.49V139.41H145.07V135.83Z" fill="#705E03"/>
<path d="M145.07 132.17H141.49V135.83H145.07V132.17Z" fill="#998304"/>
<path d="M145.07 128.59H141.49V132.17H145.07V128.59Z" fill="#998304"/>
<path d="M145.07 124.93H141.49V128.59H145.07V124.93Z" fill="#BFA908"/>
<path d="M145.07 121.35H141.49V124.93H145.07V121.35Z" fill="#BFA908"/>
<path d="M145.07 117.76H141.49V121.34H145.07V117.76Z" fill="#BFA908"/>
<path d="M145.07 114.11H141.49V117.77H145.07V114.11Z" fill="black"/>
<path d="M145.07 110.52H141.49V114.1H145.07V110.52Z" fill="black"/>
<path d="M141.5 143H137.92V146.66H141.5V143Z" fill="#705E03"/>
<path d="M141.5 139.41H137.92V142.99H141.5V139.41Z" fill="#705E03"/>
<path d="M141.5 135.83H137.92V139.41H141.5V135.83Z" fill="#998304"/>
<path d="M141.5 132.17H137.92V135.83H141.5V132.17Z" fill="#998304"/>
<path d="M141.5 128.59H137.92V132.17H141.5V128.59Z" fill="#BFA908"/>
<path d="M141.5 124.93H137.92V128.59H141.5V124.93Z" fill="#BFA908"/>
<path d="M141.5 121.35H137.92V124.93H141.5V121.35Z" fill="#BFA908"/>
<path d="M141.5 117.76H137.92V121.34H141.5V117.76Z" fill="black"/>
<path d="M141.5 114.11H137.92V117.77H141.5V114.11Z" fill="black"/>
<path d="M137.91 143H134.25V146.66H137.91V143Z" fill="#705E03"/>
<path d="M137.91 139.41H134.25V142.99H137.91V139.41Z" fill="#998304"/>
<path d="M137.91 135.83H134.25V139.41H137.91V135.83Z" fill="#998304"/>
<path d="M137.91 132.17H134.25V135.83H137.91V132.17Z" fill="#BFA908"/>
<path d="M137.91 128.59H134.25V132.17H137.91V128.59Z" fill="#BFA908"/>
<path d="M137.91 124.93H134.25V128.59H137.91V124.93Z" fill="#BFA908"/>
<path d="M137.91 121.35H134.25V124.93H137.91V121.35Z" fill="black"/>
<path d="M137.91 117.76H134.25V121.34H137.91V117.76Z" fill="black"/>
<path d="M137.91 110.52H134.25V114.1H137.91V110.52Z" fill="black"/>
<path d="M134.25 143H130.67V146.66H134.25V143Z" fill="black"/>
<path d="M134.25 139.41H130.67V142.99H134.25V139.41Z" fill="#998304"/>
<path d="M134.25 135.83H130.67V139.41H134.25V135.83Z" fill="#998304"/>
<path d="M134.25 132.17H130.67V135.83H134.25V132.17Z" fill="#BFA908"/>
<path d="M134.25 128.59H130.67V132.17H134.25V128.59Z" fill="#BFA908"/>
<path d="M134.25 124.93H130.67V128.59H134.25V124.93Z" fill="black"/>
<path d="M134.25 121.35H130.67V124.93H134.25V121.35Z" fill="black"/>
<path d="M134.25 106.87H130.67V110.53H134.25V106.87Z" fill="black"/>
<path d="M130.67 139.41H127.01V142.99H130.67V139.41Z" fill="black"/>
<path d="M130.67 135.83H127.01V139.41H130.67V135.83Z" fill="#BFA908"/>
<path d="M130.67 132.17H127.01V135.83H130.67V132.17Z" fill="#BFA908"/>
<path d="M130.67 128.59H127.01V132.17H130.67V128.59Z" fill="black"/>
<path d="M130.67 124.93H127.01V128.59H130.67V124.93Z" fill="black"/>
<path d="M130.67 103.28H127.01V106.86H130.67V103.28Z" fill="black"/>
<path d="M130.67 99.7002H127.01V103.28H130.67V99.7002Z" fill="#545454"/>
<path d="M127.01 135.83H123.43V139.41H127.01V135.83Z" fill="black"/>
<path d="M127.01 132.17H123.43V135.83H127.01V132.17Z" fill="black"/>
<path d="M127.01 128.59H123.43V132.17H127.01V128.59Z" fill="black"/>
<path d="M127.01 121.35H123.43V124.93H127.01V121.35Z" fill="black"/>
<path d="M127.01 103.28H123.43V106.86H127.01V103.28Z" fill="#545454"/>
<path d="M127.01 99.7002H123.43V103.28H127.01V99.7002Z" fill="black"/>
<path d="M127.01 96.04H123.43V99.7H127.01V96.04Z" fill="#545454"/>
<path d="M123.42 135.83H119.84V139.41H123.42V135.83Z" fill="black"/>
<path d="M123.42 132.17H119.84V135.83H123.42V132.17Z" fill="black"/>
<path d="M123.42 117.76H119.84V121.34H123.42V117.76Z" fill="black"/>
<path d="M123.42 99.7002H119.84V103.28H123.42V99.7002Z" fill="#545454"/>
<path d="M123.42 96.04H119.84V99.7H123.42V96.04Z" fill="black"/>
<path d="M123.42 92.46H119.84V96.04H123.42V92.46Z" fill="#545454"/>
<path d="M119.85 114.11H116.19V117.77H119.85V114.11Z" fill="black"/>
<path d="M119.85 110.52H116.19V114.1H119.85V110.52Z" fill="#545454"/>
<path d="M119.85 96.04H116.19V99.7H119.85V96.04Z" fill="#545454"/>
<path d="M119.85 92.46H116.19V96.04H119.85V92.46Z" fill="black"/>
<path d="M119.85 88.8701H116.19V92.4501H119.85V88.8701Z" fill="#545454"/>
<path d="M116.18 114.11H112.6V117.77H116.18V114.11Z" fill="#545454"/>
<path d="M116.18 110.52H112.6V114.1H116.18V110.52Z" fill="black"/>
<path d="M116.18 106.87H112.6V110.53H116.18V106.87Z" fill="#545454"/>
<path d="M116.18 92.46H112.6V96.04H116.18V92.46Z" fill="#545454"/>
<path d="M112.6 110.52H109.02V114.1H112.6V110.52Z" fill="#545454"/>
<path d="M112.6 106.87H109.02V110.53H112.6V106.87Z" fill="black"/>
<path d="M112.6 103.28H109.02V106.86H112.6V103.28Z" fill="#545454"/>
<path d="M109.02 106.87H105.36V110.53H109.02V106.87Z" fill="#545454"/>
<path d="M109.02 103.28H105.36V106.86H109.02V103.28Z" fill="black"/>
<path d="M109.02 99.7002H105.36V103.28H109.02V99.7002Z" fill="#545454"/>
<path d="M105.36 103.28H101.78V106.86H105.36V103.28Z" fill="#545454"/>
</svg>
