<svg width="400" height="400" viewBox="0 0 400 400" fill="none" xmlns="http://www.w3.org/2000/svg">
<path d="M385.78 200C385.78 302.6 302.6 385.78 200 385.78C97.4 385.78 14.22 302.6 14.22 200C14.22 97.3997 97.39 14.2197 200 14.2197C302.61 14.2197 385.78 97.3997 385.78 200Z" fill="black"/>
<path d="M200 385.78C302.603 385.78 385.78 302.603 385.78 200C385.78 97.3963 302.603 14.2197 200 14.2197C97.3965 14.2197 14.22 97.3963 14.22 200C14.22 302.603 97.3965 385.78 200 385.78Z" stroke="#626CA0" stroke-width="14" stroke-miterlimit="10"/>
<path d="M349.07 242.17H342.16V249.02H349.07V242.17Z" fill="black"/>
<path d="M342.17 249.01H335.32V255.92H342.17V249.01Z" fill="black"/>
<path d="M342.17 242.17H335.32V249.02H342.17V242.17Z" fill="#1E2A3F"/>
<path d="M342.17 235.25H335.32V242.16H342.17V235.25Z" fill="black"/>
<path d="M335.31 255.93H328.4V262.78H335.31V255.93Z" fill="black"/>
<path d="M335.31 249.01H328.4V255.92H335.31V249.01Z" fill="#2F384C"/>
<path d="M335.31 242.17H328.4V249.02H335.31V242.17Z" fill="#1E2A3F"/>
<path d="M335.31 235.25H328.4V242.16H335.31V235.25Z" fill="#1E2A3F"/>
<path d="M335.31 228.35H328.4V235.26H335.31V228.35Z" fill="black"/>
<path d="M328.41 249.01H321.56V255.92H328.41V249.01Z" fill="black"/>
<path d="M328.41 242.17H321.56V249.02H328.41V242.17Z" fill="#2F384C"/>
<path d="M328.41 235.25H321.56V242.16H328.41V235.25Z" fill="black"/>
<path d="M321.55 262.77H314.64V269.68H321.55V262.77Z" fill="black"/>
<path d="M321.55 255.93H314.64V262.78H321.55V255.93Z" fill="black"/>
<path d="M321.55 249.01H314.64V255.92H321.55V249.01Z" fill="#2F384C"/>
<path d="M321.55 242.17H314.64V249.02H321.55V242.17Z" fill="#2F384C"/>
<path d="M321.55 235.25H314.64V242.16H321.55V235.25Z" fill="#1E2A3F"/>
<path d="M321.55 228.35H314.64V235.26H321.55V228.35Z" fill="black"/>
<path d="M321.55 221.51H314.64V228.36H321.55V221.51Z" fill="black"/>
<path d="M314.66 269.69H307.81V276.54H314.66V269.69Z" fill="black"/>
<path d="M314.66 262.77H307.81V269.68H314.66V262.77Z" fill="#2F384C"/>
<path d="M314.66 255.93H307.81V262.78H314.66V255.93Z" fill="#2F384C"/>
<path d="M314.66 249.01H307.81V255.92H314.66V249.01Z" fill="#2F384C"/>
<path d="M314.66 242.17H307.81V249.02H314.66V242.17Z" fill="#2F384C"/>
<path d="M314.66 235.25H307.81V242.16H314.66V235.25Z" fill="#2F384C"/>
<path d="M314.66 228.35H307.81V235.26H314.66V228.35Z" fill="#1E2A3F"/>
<path d="M314.66 221.51H307.81V228.36H314.66V221.51Z" fill="#1E2A3F"/>
<path d="M314.66 214.59H307.81V221.5H314.66V214.59Z" fill="black"/>
<path d="M307.81 262.77H300.9V269.68H307.81V262.77Z" fill="black"/>
<path d="M307.81 255.93H300.9V262.78H307.81V255.93Z" fill="black"/>
<path d="M307.81 249.01H300.9V255.92H307.81V249.01Z" fill="black"/>
<path d="M307.81 242.17H300.9V249.02H307.81V242.17Z" fill="#2F384C"/>
<path d="M307.81 235.25H300.9V242.16H307.81V235.25Z" fill="black"/>
<path d="M307.81 228.35H300.9V235.26H307.81V228.35Z" fill="black"/>
<path d="M307.81 221.51H300.9V228.36H307.81V221.51Z" fill="black"/>
<path d="M300.9 249.01H294.05V255.92H300.9V249.01Z" fill="black"/>
<path d="M300.9 242.17H294.05V249.02H300.9V242.17Z" fill="#2F384C"/>
<path d="M300.9 235.25H294.05V242.16H300.9V235.25Z" fill="black"/>
<path d="M294.05 249.01H287.14V255.92H294.05V249.01Z" fill="black"/>
<path d="M294.05 242.17H287.14V249.02H294.05V242.17Z" fill="#2F384C"/>
<path d="M294.05 235.25H287.14V242.16H294.05V235.25Z" fill="black"/>
<path d="M294.05 180.24H287.14V187.09H294.05V180.24Z" fill="black"/>
<path d="M287.13 249.01H280.22V255.92H287.13V249.01Z" fill="black"/>
<path d="M287.13 242.17H280.22V249.02H287.13V242.17Z" fill="#2F384C"/>
<path d="M287.13 235.25H280.22V242.16H287.13V235.25Z" fill="black"/>
<path d="M287.13 187.09H280.22V194H287.13V187.09Z" fill="black"/>
<path d="M287.13 180.24H280.22V187.09H287.13V180.24Z" fill="#B25212"/>
<path d="M287.13 173.33H280.22V180.24H287.13V173.33Z" fill="black"/>
<path d="M287.13 166.41H280.22V173.32H287.13V166.41Z" fill="black"/>
<path d="M287.13 159.57H280.22V166.42H287.13V159.57Z" fill="black"/>
<path d="M280.24 249.01H273.39V255.92H280.24V249.01Z" fill="black"/>
<path d="M280.24 242.17H273.39V249.02H280.24V242.17Z" fill="#2F384C"/>
<path d="M280.24 235.25H273.39V242.16H280.24V235.25Z" fill="black"/>
<path d="M280.24 221.51H273.39V228.36H280.24V221.51Z" fill="black"/>
<path d="M280.24 214.59H273.39V221.5H280.24V214.59Z" fill="black"/>
<path d="M280.24 207.75H273.39V214.6H280.24V207.75Z" fill="black"/>
<path d="M280.24 200.83H273.39V207.74H280.24V200.83Z" fill="black"/>
<path d="M280.24 187.09H273.39V194H280.24V187.09Z" fill="black"/>
<path d="M280.24 180.24H273.39V187.09H280.24V180.24Z" fill="#B25212"/>
<path d="M280.24 173.33H273.39V180.24H280.24V173.33Z" fill="black"/>
<path d="M280.24 166.41H273.39V173.32H280.24V166.41Z" fill="#404E89"/>
<path d="M280.24 159.57H273.39V166.42H280.24V159.57Z" fill="#404E89"/>
<path d="M280.24 152.67H273.39V159.58H280.24V152.67Z" fill="black"/>
<path d="M280.24 145.82H273.39V152.67H280.24V145.82Z" fill="black"/>
<path d="M273.39 249.01H266.48V255.92H273.39V249.01Z" fill="black"/>
<path d="M273.39 242.17H266.48V249.02H273.39V242.17Z" fill="black"/>
<path d="M273.39 235.25H266.48V242.16H273.39V235.25Z" fill="black"/>
<path d="M273.39 228.35H266.48V235.26H273.39V228.35Z" fill="black"/>
<path d="M273.39 221.51H266.48V228.36H273.39V221.51Z" fill="#B25212"/>
<path d="M273.39 214.59H266.48V221.5H273.39V214.59Z" fill="#C1811B"/>
<path d="M273.39 207.75H266.48V214.6H273.39V207.75Z" fill="black"/>
<path d="M273.39 200.83H266.48V207.74H273.39V200.83Z" fill="#626CA0"/>
<path d="M273.39 194H266.48V200.85H273.39V194Z" fill="black"/>
<path d="M273.39 187.09H266.48V194H273.39V187.09Z" fill="#B25212"/>
<path d="M273.39 180.24H266.48V187.09H273.39V180.24Z" fill="#C1811B"/>
<path d="M273.39 173.33H266.48V180.24H273.39V173.33Z" fill="black"/>
<path d="M273.39 166.41H266.48V173.32H273.39V166.41Z" fill="#404E89"/>
<path d="M273.39 159.57H266.48V166.42H273.39V159.57Z" fill="#626CA0"/>
<path d="M273.39 152.67H266.48V159.58H273.39V152.67Z" fill="#626CA0"/>
<path d="M273.39 145.82H266.48V152.67H273.39V145.82Z" fill="#5364AD"/>
<path d="M273.39 138.91H266.48V145.82H273.39V138.91Z" fill="black"/>
<path d="M273.39 132.06H266.48V138.91H273.39V132.06Z" fill="black"/>
<path d="M273.39 125.15H266.48V132.06H273.39V125.15Z" fill="black"/>
<path d="M273.39 118.24H266.48V125.15H273.39V118.24Z" fill="black"/>
<path d="M266.48 249.01H259.63V255.92H266.48V249.01Z" fill="black"/>
<path d="M266.48 242.17H259.63V249.02H266.48V242.17Z" fill="#B25212"/>
<path d="M266.48 235.25H259.63V242.16H266.48V235.25Z" fill="black"/>
<path d="M266.48 228.35H259.63V235.26H266.48V228.35Z" fill="#C1811B"/>
<path d="M266.48 221.51H259.63V228.36H266.48V221.51Z" fill="#B25212"/>
<path d="M266.48 214.59H259.63V221.5H266.48V214.59Z" fill="#C1811B"/>
<path d="M266.48 207.75H259.63V214.6H266.48V207.75Z" fill="black"/>
<path d="M266.48 200.83H259.63V207.74H266.48V200.83Z" fill="#626CA0"/>
<path d="M266.48 194H259.63V200.85H266.48V194Z" fill="black"/>
<path d="M266.48 187.09H259.63V194H266.48V187.09Z" fill="#B25212"/>
<path d="M266.48 180.24H259.63V187.09H266.48V180.24Z" fill="#DBAB65"/>
<path d="M266.48 173.33H259.63V180.24H266.48V173.33Z" fill="#626CA0"/>
<path d="M266.48 166.41H259.63V173.32H266.48V166.41Z" fill="#626CA0"/>
<path d="M266.48 159.57H259.63V166.42H266.48V159.57Z" fill="#626CA0"/>
<path d="M266.48 152.67H259.63V159.58H266.48V152.67Z" fill="#626CA0"/>
<path d="M266.48 145.82H259.63V152.67H266.48V145.82Z" fill="#5364AD"/>
<path d="M266.48 138.91H259.63V145.82H266.48V138.91Z" fill="#5364AD"/>
<path d="M266.48 132.06H259.63V138.91H266.48V132.06Z" fill="#5364AD"/>
<path d="M266.48 125.15H259.63V132.06H266.48V125.15Z" fill="#5364AD"/>
<path d="M266.48 118.24H259.63V125.15H266.48V118.24Z" fill="#626CA0"/>
<path d="M266.48 111.4H259.63V118.25H266.48V111.4Z" fill="black"/>
<path d="M259.63 255.93H252.72V262.78H259.63V255.93Z" fill="black"/>
<path d="M259.63 249.01H252.72V255.92H259.63V249.01Z" fill="#B25212"/>
<path d="M259.63 242.17H252.72V249.02H259.63V242.17Z" fill="#C1811B"/>
<path d="M259.63 235.25H252.72V242.16H259.63V235.25Z" fill="black"/>
<path d="M259.63 228.35H252.72V235.26H259.63V228.35Z" fill="#C1811B"/>
<path d="M259.63 221.51H252.72V228.36H259.63V221.51Z" fill="#C1811B"/>
<path d="M259.63 214.59H252.72V221.5H259.63V214.59Z" fill="#B25212"/>
<path d="M259.63 207.75H252.72V214.6H259.63V207.75Z" fill="black"/>
<path d="M259.63 200.83H252.72V207.74H259.63V200.83Z" fill="#626CA0"/>
<path d="M259.63 194H252.72V200.85H259.63V194Z" fill="black"/>
<path d="M259.63 187.09H252.72V194H259.63V187.09Z" fill="#B25212"/>
<path d="M259.63 180.24H252.72V187.09H259.63V180.24Z" fill="#DBAB65"/>
<path d="M259.63 173.33H252.72V180.24H259.63V173.33Z" fill="black"/>
<path d="M259.63 166.41H252.72V173.32H259.63V166.41Z" fill="#404E89"/>
<path d="M259.63 159.57H252.72V166.42H259.63V159.57Z" fill="#626CA0"/>
<path d="M259.63 152.67H252.72V159.58H259.63V152.67Z" fill="#626CA0"/>
<path d="M259.63 145.82H252.72V152.67H259.63V145.82Z" fill="#626CA0"/>
<path d="M259.63 138.91H252.72V145.82H259.63V138.91Z" fill="#626CA0"/>
<path d="M259.63 132.06H252.72V138.91H259.63V132.06Z" fill="#5364AD"/>
<path d="M259.63 125.15H252.72V132.06H259.63V125.15Z" fill="#626CA0"/>
<path d="M259.63 118.24H252.72V125.15H259.63V118.24Z" fill="#5364AD"/>
<path d="M259.63 111.4H252.72V118.25H259.63V111.4Z" fill="black"/>
<path d="M252.72 255.93H245.87V262.78H252.72V255.93Z" fill="black"/>
<path d="M252.72 249.01H245.87V255.92H252.72V249.01Z" fill="#C1811B"/>
<path d="M252.72 242.17H245.87V249.02H252.72V242.17Z" fill="#DBAB65"/>
<path d="M252.72 235.25H245.87V242.16H252.72V235.25Z" fill="#DBAB65"/>
<path d="M252.72 228.35H245.87V235.26H252.72V228.35Z" fill="black"/>
<path d="M252.72 221.51H245.87V228.36H252.72V221.51Z" fill="#C1811B"/>
<path d="M252.72 214.59H245.87V221.5H252.72V214.59Z" fill="black"/>
<path d="M252.72 207.75H245.87V214.6H252.72V207.75Z" fill="#626CA0"/>
<path d="M252.72 200.83H245.87V207.74H252.72V200.83Z" fill="#626CA0"/>
<path d="M252.72 194H245.87V200.85H252.72V194Z" fill="#5364AD"/>
<path d="M252.72 187.09H245.87V194H252.72V187.09Z" fill="black"/>
<path d="M252.72 180.24H245.87V187.09H252.72V180.24Z" fill="#C1811B"/>
<path d="M252.72 173.33H245.87V180.24H252.72V173.33Z" fill="black"/>
<path d="M252.72 166.41H245.87V173.32H252.72V166.41Z" fill="#404E89"/>
<path d="M252.72 159.57H245.87V166.42H252.72V159.57Z" fill="#404E89"/>
<path d="M252.72 152.67H245.87V159.58H252.72V152.67Z" fill="#626CA0"/>
<path d="M252.72 145.82H245.87V152.67H252.72V145.82Z" fill="#626CA0"/>
<path d="M252.72 138.91H245.87V145.82H252.72V138.91Z" fill="#626CA0"/>
<path d="M252.72 132.06H245.87V138.91H252.72V132.06Z" fill="#626CA0"/>
<path d="M252.72 125.15H245.87V132.06H252.72V125.15Z" fill="#626CA0"/>
<path d="M252.72 118.24H245.87V125.15H252.72V118.24Z" fill="#626CA0"/>
<path d="M252.72 111.4H245.87V118.25H252.72V111.4Z" fill="black"/>
<path d="M245.87 255.93H238.96V262.78H245.87V255.93Z" fill="black"/>
<path d="M245.87 249.01H238.96V255.92H245.87V249.01Z" fill="#DBAB65"/>
<path d="M245.87 242.17H238.96V249.02H245.87V242.17Z" fill="#DBAB65"/>
<path d="M245.87 235.25H238.96V242.16H245.87V235.25Z" fill="#DBAB65"/>
<path d="M245.87 228.35H238.96V235.26H245.87V228.35Z" fill="black"/>
<path d="M245.87 221.51H238.96V228.36H245.87V221.51Z" fill="#C1811B"/>
<path d="M245.87 214.59H238.96V221.5H245.87V214.59Z" fill="black"/>
<path d="M245.87 207.75H238.96V214.6H245.87V207.75Z" fill="#5364AD"/>
<path d="M245.87 200.83H238.96V207.74H245.87V200.83Z" fill="#5364AD"/>
<path d="M245.87 194H238.96V200.85H245.87V194Z" fill="#5364AD"/>
<path d="M245.87 187.09H238.96V194H245.87V187.09Z" fill="black"/>
<path d="M245.87 180.24H238.96V187.09H245.87V180.24Z" fill="#B25212"/>
<path d="M245.87 173.33H238.96V180.24H245.87V173.33Z" fill="#C1811B"/>
<path d="M245.87 166.41H238.96V173.32H245.87V166.41Z" fill="black"/>
<path d="M245.87 159.57H238.96V166.42H245.87V159.57Z" fill="#404E89"/>
<path d="M245.87 152.67H238.96V159.58H245.87V152.67Z" fill="#626CA0"/>
<path d="M245.87 145.82H238.96V152.67H245.87V145.82Z" fill="#626CA0"/>
<path d="M245.87 138.91H238.96V145.82H245.87V138.91Z" fill="#626CA0"/>
<path d="M245.87 132.06H238.96V138.91H245.87V132.06Z" fill="#626CA0"/>
<path d="M245.87 125.15H238.96V132.06H245.87V125.15Z" fill="black"/>
<path d="M245.87 118.24H238.96V125.15H245.87V118.24Z" fill="black"/>
<path d="M245.87 111.4H238.96V118.25H245.87V111.4Z" fill="black"/>
<path d="M238.97 297.19H232.06V304.1H238.97V297.19Z" fill="black"/>
<path d="M238.97 290.35H232.06V297.2H238.97V290.35Z" fill="black"/>
<path d="M238.97 283.43H232.06V290.34H238.97V283.43Z" fill="black"/>
<path d="M238.97 276.52H232.06V283.43H238.97V276.52Z" fill="black"/>
<path d="M238.97 269.69H232.06V276.54H238.97V269.69Z" fill="black"/>
<path d="M238.97 255.93H232.06V262.78H238.97V255.93Z" fill="black"/>
<path d="M238.97 249.01H232.06V255.92H238.97V249.01Z" fill="#B25212"/>
<path d="M238.97 242.17H232.06V249.02H238.97V242.17Z" fill="#DBAB65"/>
<path d="M238.97 235.25H232.06V242.16H238.97V235.25Z" fill="#DBAB65"/>
<path d="M238.97 228.35H232.06V235.26H238.97V228.35Z" fill="#C1811B"/>
<path d="M238.97 221.51H232.06V228.36H238.97V221.51Z" fill="black"/>
<path d="M238.97 214.59H232.06V221.5H238.97V214.59Z" fill="black"/>
<path d="M238.97 207.75H232.06V214.6H238.97V207.75Z" fill="black"/>
<path d="M238.97 200.83H232.06V207.74H238.97V200.83Z" fill="black"/>
<path d="M238.97 194H232.06V200.85H238.97V194Z" fill="#5364AD"/>
<path d="M238.97 187.09H232.06V194H238.97V187.09Z" fill="#5364AD"/>
<path d="M238.97 180.24H232.06V187.09H238.97V180.24Z" fill="black"/>
<path d="M238.97 173.33H232.06V180.24H238.97V173.33Z" fill="#B25212"/>
<path d="M238.97 166.41H232.06V173.32H238.97V166.41Z" fill="#C1811B"/>
<path d="M238.97 159.57H232.06V166.42H238.97V159.57Z" fill="black"/>
<path d="M238.97 152.67H232.06V159.58H238.97V152.67Z" fill="black"/>
<path d="M238.97 145.82H232.06V152.67H238.97V145.82Z" fill="#5364AD"/>
<path d="M238.97 138.91H232.06V145.82H238.97V138.91Z" fill="#5364AD"/>
<path d="M238.97 132.06H232.06V138.91H238.97V132.06Z" fill="black"/>
<path d="M238.97 125.15H232.06V132.06H238.97V125.15Z" fill="black"/>
<path d="M232.06 297.19H225.21V304.1H232.06V297.19Z" fill="black"/>
<path d="M232.06 290.35H225.21V297.2H232.06V290.35Z" fill="#404E89"/>
<path d="M232.06 283.43H225.21V290.34H232.06V283.43Z" fill="#404E89"/>
<path d="M232.06 276.52H225.21V283.43H232.06V276.52Z" fill="#404E89"/>
<path d="M232.06 269.69H225.21V276.54H232.06V269.69Z" fill="black"/>
<path d="M232.06 262.77H225.21V269.68H232.06V262.77Z" fill="black"/>
<path d="M232.06 255.93H225.21V262.78H232.06V255.93Z" fill="black"/>
<path d="M232.06 249.01H225.21V255.92H232.06V249.01Z" fill="black"/>
<path d="M232.06 242.17H225.21V249.02H232.06V242.17Z" fill="#C1811B"/>
<path d="M232.06 235.25H225.21V242.16H232.06V235.25Z" fill="#C1811B"/>
<path d="M232.06 228.35H225.21V235.26H232.06V228.35Z" fill="#C1811B"/>
<path d="M232.06 221.51H225.21V228.36H232.06V221.51Z" fill="black"/>
<path d="M232.06 214.59H225.21V221.5H232.06V214.59Z" fill="#344A91"/>
<path d="M232.06 207.75H225.21V214.6H232.06V207.75Z" fill="#344A91"/>
<path d="M232.06 200.83H225.21V207.74H232.06V200.83Z" fill="#C1811B"/>
<path d="M232.06 194H225.21V200.85H232.06V194Z" fill="black"/>
<path d="M232.06 187.09H225.21V194H232.06V187.09Z" fill="black"/>
<path d="M232.06 180.24H225.21V187.09H232.06V180.24Z" fill="#626CA0"/>
<path d="M232.06 173.33H225.21V180.24H232.06V173.33Z" fill="black"/>
<path d="M232.06 166.41H225.21V173.32H232.06V166.41Z" fill="#B25212"/>
<path d="M232.06 159.57H225.21V166.42H232.06V159.57Z" fill="#C1811B"/>
<path d="M232.06 152.67H225.21V159.58H232.06V152.67Z" fill="#DBAB65"/>
<path d="M232.06 145.82H225.21V152.67H232.06V145.82Z" fill="black"/>
<path d="M232.06 138.91H225.21V145.82H232.06V138.91Z" fill="#5364AD"/>
<path d="M232.06 132.06H225.21V138.91H232.06V132.06Z" fill="black"/>
<path d="M232.06 125.15H225.21V132.06H232.06V125.15Z" fill="black"/>
<path d="M232.06 118.24H225.21V125.15H232.06V118.24Z" fill="black"/>
<path d="M232.06 111.4H225.21V118.25H232.06V111.4Z" fill="black"/>
<path d="M232.06 104.49H225.21V111.4H232.06V104.49Z" fill="black"/>
<path d="M232.06 97.6396H225.21V104.49H232.06V97.6396Z" fill="black"/>
<path d="M232.06 90.7305H225.21V97.6405H232.06V90.7305Z" fill="black"/>
<path d="M225.21 297.19H218.3V304.1H225.21V297.19Z" fill="black"/>
<path d="M225.21 290.35H218.3V297.2H225.21V290.35Z" fill="#404E89"/>
<path d="M225.21 283.43H218.3V290.34H225.21V283.43Z" fill="#626CA0"/>
<path d="M225.21 276.52H218.3V283.43H225.21V276.52Z" fill="#626CA0"/>
<path d="M225.21 269.69H218.3V276.54H225.21V269.69Z" fill="#404E89"/>
<path d="M225.21 262.77H218.3V269.68H225.21V262.77Z" fill="#404E89"/>
<path d="M225.21 255.93H218.3V262.78H225.21V255.93Z" fill="#404E89"/>
<path d="M225.21 249.01H218.3V255.92H225.21V249.01Z" fill="black"/>
<path d="M225.21 242.17H218.3V249.02H225.21V242.17Z" fill="black"/>
<path d="M225.21 235.25H218.3V242.16H225.21V235.25Z" fill="black"/>
<path d="M225.21 228.35H218.3V235.26H225.21V228.35Z" fill="black"/>
<path d="M225.21 221.51H218.3V228.36H225.21V221.51Z" fill="black"/>
<path d="M225.21 214.59H218.3V221.5H225.21V214.59Z" fill="black"/>
<path d="M225.21 207.75H218.3V214.6H225.21V207.75Z" fill="#42578E"/>
<path d="M225.21 200.83H218.3V207.74H225.21V200.83Z" fill="black"/>
<path d="M225.21 194H218.3V200.85H225.21V194Z" fill="#C1811B"/>
<path d="M225.21 187.09H218.3V194H225.21V187.09Z" fill="black"/>
<path d="M225.21 180.24H218.3V187.09H225.21V180.24Z" fill="#626CA0"/>
<path d="M225.21 173.33H218.3V180.24H225.21V173.33Z" fill="#626CA0"/>
<path d="M225.21 166.41H218.3V173.32H225.21V166.41Z" fill="black"/>
<path d="M225.21 159.57H218.3V166.42H225.21V159.57Z" fill="#B25212"/>
<path d="M225.21 152.67H218.3V159.58H225.21V152.67Z" fill="#C1811B"/>
<path d="M225.21 145.82H218.3V152.67H225.21V145.82Z" fill="#B25212"/>
<path d="M225.21 138.91H218.3V145.82H225.21V138.91Z" fill="black"/>
<path d="M225.21 132.06H218.3V138.91H225.21V132.06Z" fill="#404E89"/>
<path d="M225.21 125.15H218.3V132.06H225.21V125.15Z" fill="#404E89"/>
<path d="M225.21 118.24H218.3V125.15H225.21V118.24Z" fill="#626CA0"/>
<path d="M225.21 111.4H218.3V118.25H225.21V111.4Z" fill="#626CA0"/>
<path d="M225.21 104.49H218.3V111.4H225.21V104.49Z" fill="#404E89"/>
<path d="M225.21 97.6396H218.3V104.49H225.21V97.6396Z" fill="#404E89"/>
<path d="M225.21 90.7305H218.3V97.6405H225.21V90.7305Z" fill="#404E89"/>
<path d="M225.21 83.8896H218.3V90.7396H225.21V83.8896Z" fill="black"/>
<path d="M218.3 297.19H211.45V304.1H218.3V297.19Z" fill="black"/>
<path d="M218.3 290.35H211.45V297.2H218.3V290.35Z" fill="#404E89"/>
<path d="M218.3 283.43H211.45V290.34H218.3V283.43Z" fill="#C1811B"/>
<path d="M218.3 276.52H211.45V283.43H218.3V276.52Z" fill="#B25212"/>
<path d="M218.3 269.69H211.45V276.54H218.3V269.69Z" fill="#626CA0"/>
<path d="M218.3 262.77H211.45V269.68H218.3V262.77Z" fill="black"/>
<path d="M218.3 255.93H211.45V262.78H218.3V255.93Z" fill="black"/>
<path d="M218.3 249.01H211.45V255.92H218.3V249.01Z" fill="black"/>
<path d="M218.3 242.17H211.45V249.02H218.3V242.17Z" fill="#2F384C"/>
<path d="M218.3 235.25H211.45V242.16H218.3V235.25Z" fill="black"/>
<path d="M218.3 228.35H211.45V235.26H218.3V228.35Z" fill="#344A91"/>
<path d="M218.3 221.51H211.45V228.36H218.3V221.51Z" fill="#42578E"/>
<path d="M218.3 214.59H211.45V221.5H218.3V214.59Z" fill="black"/>
<path d="M218.3 207.75H211.45V214.6H218.3V207.75Z" fill="#42578E"/>
<path d="M218.3 200.83H211.45V207.74H218.3V200.83Z" fill="black"/>
<path d="M218.3 194H211.45V200.85H218.3V194Z" fill="#B25212"/>
<path d="M218.3 187.09H211.45V194H218.3V187.09Z" fill="black"/>
<path d="M218.3 180.24H211.45V187.09H218.3V180.24Z" fill="#404E89"/>
<path d="M218.3 173.33H211.45V180.24H218.3V173.33Z" fill="black"/>
<path d="M218.3 166.41H211.45V173.32H218.3V166.41Z" fill="#C1811B"/>
<path d="M218.3 159.57H211.45V166.42H218.3V159.57Z" fill="black"/>
<path d="M218.3 152.67H211.45V159.58H218.3V152.67Z" fill="black"/>
<path d="M218.3 145.82H211.45V152.67H218.3V145.82Z" fill="black"/>
<path d="M218.3 138.91H211.45V145.82H218.3V138.91Z" fill="#404E89"/>
<path d="M218.3 132.06H211.45V138.91H218.3V132.06Z" fill="#404E89"/>
<path d="M218.3 125.15H211.45V132.06H218.3V125.15Z" fill="#626CA0"/>
<path d="M218.3 118.24H211.45V125.15H218.3V118.24Z" fill="#626CA0"/>
<path d="M218.3 111.4H211.45V118.25H218.3V111.4Z" fill="#626CA0"/>
<path d="M218.3 104.49H211.45V111.4H218.3V104.49Z" fill="#626CA0"/>
<path d="M218.3 97.6396H211.45V104.49H218.3V97.6396Z" fill="#626CA0"/>
<path d="M218.3 90.7305H211.45V97.6405H218.3V90.7305Z" fill="#404E89"/>
<path d="M218.3 83.8896H211.45V90.7396H218.3V83.8896Z" fill="black"/>
<path d="M211.45 297.19H204.54V304.1H211.45V297.19Z" fill="black"/>
<path d="M211.45 290.35H204.54V297.2H211.45V290.35Z" fill="#404E89"/>
<path d="M211.45 283.43H204.54V290.34H211.45V283.43Z" fill="black"/>
<path d="M211.45 276.52H204.54V283.43H211.45V276.52Z" fill="black"/>
<path d="M211.45 269.69H204.54V276.54H211.45V269.69Z" fill="#B25212"/>
<path d="M211.45 262.77H204.54V269.68H211.45V262.77Z" fill="#B25212"/>
<path d="M211.45 255.93H204.54V262.78H211.45V255.93Z" fill="black"/>
<path d="M211.45 249.01H204.54V255.92H211.45V249.01Z" fill="black"/>
<path d="M211.45 242.17H204.54V249.02H211.45V242.17Z" fill="#2F384C"/>
<path d="M211.45 235.25H204.54V242.16H211.45V235.25Z" fill="black"/>
<path d="M211.45 228.35H204.54V235.26H211.45V228.35Z" fill="#344A91"/>
<path d="M211.45 221.51H204.54V228.36H211.45V221.51Z" fill="#344A91"/>
<path d="M211.45 214.59H204.54V221.5H211.45V214.59Z" fill="#42578E"/>
<path d="M211.45 207.75H204.54V214.6H211.45V207.75Z" fill="black"/>
<path d="M211.45 200.83H204.54V207.74H211.45V200.83Z" fill="#B25212"/>
<path d="M211.45 194H204.54V200.85H211.45V194Z" fill="#B25212"/>
<path d="M211.45 187.09H204.54V194H211.45V187.09Z" fill="black"/>
<path d="M211.45 180.24H204.54V187.09H211.45V180.24Z" fill="#404E89"/>
<path d="M211.45 173.33H204.54V180.24H211.45V173.33Z" fill="black"/>
<path d="M211.45 166.41H204.54V173.32H211.45V166.41Z" fill="#C1811B"/>
<path d="M211.45 159.57H204.54V166.42H211.45V159.57Z" fill="#404E89"/>
<path d="M211.45 152.67H204.54V159.58H211.45V152.67Z" fill="#404E89"/>
<path d="M211.45 145.82H204.54V152.67H211.45V145.82Z" fill="black"/>
<path d="M211.45 138.91H204.54V145.82H211.45V138.91Z" fill="#404E89"/>
<path d="M211.45 132.06H204.54V138.91H211.45V132.06Z" fill="#626CA0"/>
<path d="M211.45 125.15H204.54V132.06H211.45V125.15Z" fill="#626CA0"/>
<path d="M211.45 118.24H204.54V125.15H211.45V118.24Z" fill="#626CA0"/>
<path d="M211.45 111.4H204.54V118.25H211.45V111.4Z" fill="#626CA0"/>
<path d="M211.45 104.49H204.54V111.4H211.45V104.49Z" fill="#626CA0"/>
<path d="M211.45 97.6396H204.54V104.49H211.45V97.6396Z" fill="#626CA0"/>
<path d="M211.45 90.7305H204.54V97.6405H211.45V90.7305Z" fill="#626CA0"/>
<path d="M211.45 83.8896H204.54V90.7396H211.45V83.8896Z" fill="black"/>
<path d="M204.55 297.19H197.7V304.1H204.55V297.19Z" fill="black"/>
<path d="M204.55 290.35H197.7V297.2H204.55V290.35Z" fill="#C1811B"/>
<path d="M204.55 283.43H197.7V290.34H204.55V283.43Z" fill="#DBAB65"/>
<path d="M204.55 276.52H197.7V283.43H204.55V276.52Z" fill="#C1811B"/>
<path d="M204.55 269.69H197.7V276.54H204.55V269.69Z" fill="black"/>
<path d="M204.55 262.77H197.7V269.68H204.55V262.77Z" fill="#C1811B"/>
<path d="M204.55 255.93H197.7V262.78H204.55V255.93Z" fill="#626CA0"/>
<path d="M204.55 249.01H197.7V255.92H204.55V249.01Z" fill="black"/>
<path d="M204.55 242.17H197.7V249.02H204.55V242.17Z" fill="#2F384C"/>
<path d="M204.55 235.25H197.7V242.16H204.55V235.25Z" fill="black"/>
<path d="M204.55 228.35H197.7V235.26H204.55V228.35Z" fill="#344A91"/>
<path d="M204.55 221.51H197.7V228.36H204.55V221.51Z" fill="#42578E"/>
<path d="M204.55 214.59H197.7V221.5H204.55V214.59Z" fill="#42578E"/>
<path d="M204.55 207.75H197.7V214.6H204.55V207.75Z" fill="black"/>
<path d="M204.55 200.83H197.7V207.74H204.55V200.83Z" fill="#B25212"/>
<path d="M204.55 194H197.7V200.85H204.55V194Z" fill="black"/>
<path d="M204.55 187.09H197.7V194H204.55V187.09Z" fill="#404E89"/>
<path d="M204.55 180.24H197.7V187.09H204.55V180.24Z" fill="black"/>
<path d="M204.55 173.33H197.7V180.24H204.55V173.33Z" fill="#C1811B"/>
<path d="M204.55 166.41H197.7V173.32H204.55V166.41Z" fill="#404E89"/>
<path d="M204.55 159.57H197.7V166.42H204.55V159.57Z" fill="#404E89"/>
<path d="M204.55 152.67H197.7V159.58H204.55V152.67Z" fill="#404E89"/>
<path d="M204.55 145.82H197.7V152.67H204.55V145.82Z" fill="black"/>
<path d="M204.55 138.91H197.7V145.82H204.55V138.91Z" fill="#404E89"/>
<path d="M204.55 132.06H197.7V138.91H204.55V132.06Z" fill="#626CA0"/>
<path d="M204.55 125.15H197.7V132.06H204.55V125.15Z" fill="#626CA0"/>
<path d="M204.55 118.24H197.7V125.15H204.55V118.24Z" fill="#5364AD"/>
<path d="M204.55 111.4H197.7V118.25H204.55V111.4Z" fill="#5364AD"/>
<path d="M204.55 104.49H197.7V111.4H204.55V104.49Z" fill="#626CA0"/>
<path d="M204.55 97.6396H197.7V104.49H204.55V97.6396Z" fill="#626CA0"/>
<path d="M204.55 90.7305H197.7V97.6405H204.55V90.7305Z" fill="#626CA0"/>
<path d="M204.55 83.8896H197.7V90.7396H204.55V83.8896Z" fill="black"/>
<path d="M197.7 297.19H190.79V304.1H197.7V297.19Z" fill="black"/>
<path d="M197.7 290.35H190.79V297.2H197.7V290.35Z" fill="#DBAB65"/>
<path d="M197.7 283.43H190.79V290.34H197.7V283.43Z" fill="black"/>
<path d="M197.7 276.52H190.79V283.43H197.7V276.52Z" fill="black"/>
<path d="M197.7 269.69H190.79V276.54H197.7V269.69Z" fill="black"/>
<path d="M197.7 262.77H190.79V269.68H197.7V262.77Z" fill="black"/>
<path d="M197.7 255.93H190.79V262.78H197.7V255.93Z" fill="#626CA0"/>
<path d="M197.7 249.01H190.79V255.92H197.7V249.01Z" fill="black"/>
<path d="M197.7 242.17H190.79V249.02H197.7V242.17Z" fill="#2F384C"/>
<path d="M197.7 235.25H190.79V242.16H197.7V235.25Z" fill="black"/>
<path d="M197.7 228.35H190.79V235.26H197.7V228.35Z" fill="#42578E"/>
<path d="M197.7 221.51H190.79V228.36H197.7V221.51Z" fill="#42578E"/>
<path d="M197.7 214.59H190.79V221.5H197.7V214.59Z" fill="#42578E"/>
<path d="M197.7 207.75H190.79V214.6H197.7V207.75Z" fill="black"/>
<path d="M197.7 200.83H190.79V207.74H197.7V200.83Z" fill="#C1811B"/>
<path d="M197.7 194H190.79V200.85H197.7V194Z" fill="black"/>
<path d="M197.7 187.09H190.79V194H197.7V187.09Z" fill="#404E89"/>
<path d="M197.7 180.24H190.79V187.09H197.7V180.24Z" fill="black"/>
<path d="M197.7 173.33H190.79V180.24H197.7V173.33Z" fill="#404E89"/>
<path d="M197.7 166.41H190.79V173.32H197.7V166.41Z" fill="#404E89"/>
<path d="M197.7 159.57H190.79V166.42H197.7V159.57Z" fill="#626CA0"/>
<path d="M197.7 152.67H190.79V159.58H197.7V152.67Z" fill="black"/>
<path d="M197.7 145.82H190.79V152.67H197.7V145.82Z" fill="#404E89"/>
<path d="M197.7 138.91H190.79V145.82H197.7V138.91Z" fill="#404E89"/>
<path d="M197.7 132.06H190.79V138.91H197.7V132.06Z" fill="#626CA0"/>
<path d="M197.7 125.15H190.79V132.06H197.7V125.15Z" fill="#5364AD"/>
<path d="M197.7 118.24H190.79V125.15H197.7V118.24Z" fill="#5364AD"/>
<path d="M197.7 111.4H190.79V118.25H197.7V111.4Z" fill="black"/>
<path d="M197.7 104.49H190.79V111.4H197.7V104.49Z" fill="#626CA0"/>
<path d="M197.7 97.6396H190.79V104.49H197.7V97.6396Z" fill="#626CA0"/>
<path d="M197.7 90.7305H190.79V97.6405H197.7V90.7305Z" fill="#626CA0"/>
<path d="M197.7 83.8896H190.79V90.7396H197.7V83.8896Z" fill="black"/>
<path d="M190.79 297.19H183.94V304.1H190.79V297.19Z" fill="black"/>
<path d="M190.79 290.35H183.94V297.2H190.79V290.35Z" fill="#C1811B"/>
<path d="M190.79 283.43H183.94V290.34H190.79V283.43Z" fill="black"/>
<path d="M190.79 276.52H183.94V283.43H190.79V276.52Z" fill="#C1811B"/>
<path d="M190.79 269.69H183.94V276.54H190.79V269.69Z" fill="black"/>
<path d="M190.79 262.77H183.94V269.68H190.79V262.77Z" fill="#C1811B"/>
<path d="M190.79 255.93H183.94V262.78H190.79V255.93Z" fill="black"/>
<path d="M190.79 249.01H183.94V255.92H190.79V249.01Z" fill="black"/>
<path d="M190.79 242.17H183.94V249.02H190.79V242.17Z" fill="#2F384C"/>
<path d="M190.79 235.25H183.94V242.16H190.79V235.25Z" fill="black"/>
<path d="M190.79 228.35H183.94V235.26H190.79V228.35Z" fill="#42578E"/>
<path d="M190.79 221.51H183.94V228.36H190.79V221.51Z" fill="#344A91"/>
<path d="M190.79 214.59H183.94V221.5H190.79V214.59Z" fill="black"/>
<path d="M190.79 207.75H183.94V214.6H190.79V207.75Z" fill="black"/>
<path d="M190.79 200.83H183.94V207.74H190.79V200.83Z" fill="#C1811B"/>
<path d="M190.79 194H183.94V200.85H190.79V194Z" fill="black"/>
<path d="M190.79 187.09H183.94V194H190.79V187.09Z" fill="#404E89"/>
<path d="M190.79 180.24H183.94V187.09H190.79V180.24Z" fill="black"/>
<path d="M190.79 173.33H183.94V180.24H190.79V173.33Z" fill="#626CA0"/>
<path d="M190.79 166.41H183.94V173.32H190.79V166.41Z" fill="#404E89"/>
<path d="M190.79 159.57H183.94V166.42H190.79V159.57Z" fill="#626CA0"/>
<path d="M190.79 152.67H183.94V159.58H190.79V152.67Z" fill="black"/>
<path d="M190.79 145.82H183.94V152.67H190.79V145.82Z" fill="#404E89"/>
<path d="M190.79 138.91H183.94V145.82H190.79V138.91Z" fill="#404E89"/>
<path d="M190.79 132.06H183.94V138.91H190.79V132.06Z" fill="#5364AD"/>
<path d="M190.79 125.15H183.94V132.06H190.79V125.15Z" fill="#5364AD"/>
<path d="M190.79 118.24H183.94V125.15H190.79V118.24Z" fill="black"/>
<path d="M190.79 111.4H183.94V118.25H190.79V111.4Z" fill="black"/>
<path d="M190.79 104.49H183.94V111.4H190.79V104.49Z" fill="#626CA0"/>
<path d="M190.79 97.6396H183.94V104.49H190.79V97.6396Z" fill="#626CA0"/>
<path d="M190.79 90.7305H183.94V97.6405H190.79V90.7305Z" fill="#5364AD"/>
<path d="M190.79 83.8896H183.94V90.7396H190.79V83.8896Z" fill="black"/>
<path d="M183.94 297.19H177.03V304.1H183.94V297.19Z" fill="black"/>
<path d="M183.94 290.35H177.03V297.2H183.94V290.35Z" fill="black"/>
<path d="M183.94 283.43H177.03V290.34H183.94V283.43Z" fill="#C1811B"/>
<path d="M183.94 276.52H177.03V283.43H183.94V276.52Z" fill="#DBAB65"/>
<path d="M183.94 269.69H177.03V276.54H183.94V269.69Z" fill="#C1811B"/>
<path d="M183.94 262.77H177.03V269.68H183.94V262.77Z" fill="black"/>
<path d="M183.94 255.93H177.03V262.78H183.94V255.93Z" fill="#5364AD"/>
<path d="M183.94 249.01H177.03V255.92H183.94V249.01Z" fill="black"/>
<path d="M183.94 242.17H177.03V249.02H183.94V242.17Z" fill="#2F384C"/>
<path d="M183.94 235.25H177.03V242.16H183.94V235.25Z" fill="black"/>
<path d="M183.94 228.35H177.03V235.26H183.94V228.35Z" fill="#344A91"/>
<path d="M183.94 221.51H177.03V228.36H183.94V221.51Z" fill="black"/>
<path d="M183.94 214.59H177.03V221.5H183.94V214.59Z" fill="#42578E"/>
<path d="M183.94 207.75H177.03V214.6H183.94V207.75Z" fill="#344A91"/>
<path d="M183.94 200.83H177.03V207.74H183.94V200.83Z" fill="black"/>
<path d="M183.94 194H177.03V200.85H183.94V194Z" fill="#C1811B"/>
<path d="M183.94 187.09H177.03V194H183.94V187.09Z" fill="black"/>
<path d="M183.94 180.24H177.03V187.09H183.94V180.24Z" fill="black"/>
<path d="M183.94 173.33H177.03V180.24H183.94V173.33Z" fill="#626CA0"/>
<path d="M183.94 166.41H177.03V173.32H183.94V166.41Z" fill="#404E89"/>
<path d="M183.94 159.57H177.03V166.42H183.94V159.57Z" fill="#626CA0"/>
<path d="M183.94 152.67H177.03V159.58H183.94V152.67Z" fill="black"/>
<path d="M183.94 145.82H177.03V152.67H183.94V145.82Z" fill="#404E89"/>
<path d="M183.94 138.91H177.03V145.82H183.94V138.91Z" fill="#5364AD"/>
<path d="M183.94 132.06H177.03V138.91H183.94V132.06Z" fill="black"/>
<path d="M183.94 125.15H177.03V132.06H183.94V125.15Z" fill="black"/>
<path d="M183.94 118.24H177.03V125.15H183.94V118.24Z" fill="black"/>
<path d="M183.94 111.4H177.03V118.25H183.94V111.4Z" fill="black"/>
<path d="M183.94 104.49H177.03V111.4H183.94V104.49Z" fill="#5364AD"/>
<path d="M183.94 97.6396H177.03V104.49H183.94V97.6396Z" fill="#5364AD"/>
<path d="M183.94 90.7305H177.03V97.6405H183.94V90.7305Z" fill="#5364AD"/>
<path d="M183.94 83.8896H177.03V90.7396H183.94V83.8896Z" fill="black"/>
<path d="M177.03 297.19H170.12V304.1H177.03V297.19Z" fill="black"/>
<path d="M177.03 290.35H170.12V297.2H177.03V290.35Z" fill="#DBAB65"/>
<path d="M177.03 283.43H170.12V290.34H177.03V283.43Z" fill="#C1811B"/>
<path d="M177.03 276.52H170.12V283.43H177.03V276.52Z" fill="black"/>
<path d="M177.03 269.69H170.12V276.54H177.03V269.69Z" fill="black"/>
<path d="M177.03 262.77H170.12V269.68H177.03V262.77Z" fill="black"/>
<path d="M177.03 255.93H170.12V262.78H177.03V255.93Z" fill="black"/>
<path d="M177.03 249.01H170.12V255.92H177.03V249.01Z" fill="black"/>
<path d="M177.03 242.17H170.12V249.02H177.03V242.17Z" fill="#2F384C"/>
<path d="M177.03 235.25H170.12V242.16H177.03V235.25Z" fill="black"/>
<path d="M177.03 228.35H170.12V235.26H177.03V228.35Z" fill="black"/>
<path d="M177.03 221.51H170.12V228.36H177.03V221.51Z" fill="black"/>
<path d="M177.03 214.59H170.12V221.5H177.03V214.59Z" fill="black"/>
<path d="M177.03 207.75H170.12V214.6H177.03V207.75Z" fill="black"/>
<path d="M177.03 200.83H170.12V207.74H177.03V200.83Z" fill="black"/>
<path d="M177.03 194H170.12V200.85H177.03V194Z" fill="black"/>
<path d="M177.03 187.09H170.12V194H177.03V187.09Z" fill="black"/>
<path d="M177.03 180.24H170.12V187.09H177.03V180.24Z" fill="#404E89"/>
<path d="M177.03 173.33H170.12V180.24H177.03V173.33Z" fill="black"/>
<path d="M177.03 166.41H170.12V173.32H177.03V166.41Z" fill="#626CA0"/>
<path d="M177.03 159.57H170.12V166.42H177.03V159.57Z" fill="#626CA0"/>
<path d="M177.03 152.67H170.12V159.58H177.03V152.67Z" fill="black"/>
<path d="M177.03 145.82H170.12V152.67H177.03V145.82Z" fill="black"/>
<path d="M177.03 138.91H170.12V145.82H177.03V138.91Z" fill="black"/>
<path d="M177.03 132.06H170.12V138.91H177.03V132.06Z" fill="black"/>
<path d="M177.03 125.15H170.12V132.06H177.03V125.15Z" fill="black"/>
<path d="M177.03 118.24H170.12V125.15H177.03V118.24Z" fill="black"/>
<path d="M177.03 111.4H170.12V118.25H177.03V111.4Z" fill="black"/>
<path d="M177.03 104.49H170.12V111.4H177.03V104.49Z" fill="black"/>
<path d="M177.03 97.6396H170.12V104.49H177.03V97.6396Z" fill="black"/>
<path d="M177.03 90.7305H170.12V97.6405H177.03V90.7305Z" fill="black"/>
<path d="M170.12 297.19H163.27V304.1H170.12V297.19Z" fill="black"/>
<path d="M170.12 290.35H163.27V297.2H170.12V290.35Z" fill="#DBAB65"/>
<path d="M170.12 283.43H163.27V290.34H170.12V283.43Z" fill="black"/>
<path d="M170.12 249.01H163.27V255.92H170.12V249.01Z" fill="black"/>
<path d="M170.12 242.17H163.27V249.02H170.12V242.17Z" fill="#2F384C"/>
<path d="M170.12 235.25H163.27V242.16H170.12V235.25Z" fill="black"/>
<path d="M170.12 228.35H163.27V235.26H170.12V228.35Z" fill="#DBAB65"/>
<path d="M170.12 221.51H163.27V228.36H170.12V221.51Z" fill="black"/>
<path d="M170.12 214.59H163.27V221.5H170.12V214.59Z" fill="#DBAB65"/>
<path d="M170.12 207.75H163.27V214.6H170.12V207.75Z" fill="#B25212"/>
<path d="M170.12 200.83H163.27V207.74H170.12V200.83Z" fill="#C1811B"/>
<path d="M170.12 194H163.27V200.85H170.12V194Z" fill="black"/>
<path d="M170.12 187.09H163.27V194H170.12V187.09Z" fill="black"/>
<path d="M170.12 180.24H163.27V187.09H170.12V180.24Z" fill="black"/>
<path d="M170.12 173.33H163.27V180.24H170.12V173.33Z" fill="black"/>
<path d="M170.12 166.41H163.27V173.32H170.12V166.41Z" fill="black"/>
<path d="M170.12 159.57H163.27V166.42H170.12V159.57Z" fill="black"/>
<path d="M170.12 152.67H163.27V159.58H170.12V152.67Z" fill="#404E89"/>
<path d="M170.12 145.82H163.27V152.67H170.12V145.82Z" fill="#404E89"/>
<path d="M170.12 138.91H163.27V145.82H170.12V138.91Z" fill="#626CA0"/>
<path d="M170.12 132.06H163.27V138.91H170.12V132.06Z" fill="#626CA0"/>
<path d="M170.12 125.15H163.27V132.06H170.12V125.15Z" fill="#626CA0"/>
<path d="M170.12 118.24H163.27V125.15H170.12V118.24Z" fill="black"/>
<path d="M163.28 297.19H156.37V304.1H163.28V297.19Z" fill="black"/>
<path d="M163.28 290.35H156.37V297.2H163.28V290.35Z" fill="#C1811B"/>
<path d="M163.28 283.43H156.37V290.34H163.28V283.43Z" fill="black"/>
<path d="M163.28 249.01H156.37V255.92H163.28V249.01Z" fill="black"/>
<path d="M163.28 242.17H156.37V249.02H163.28V242.17Z" fill="#2F384C"/>
<path d="M163.28 235.25H156.37V242.16H163.28V235.25Z" fill="black"/>
<path d="M163.28 228.35H156.37V235.26H163.28V228.35Z" fill="#DBAB65"/>
<path d="M163.28 221.51H156.37V228.36H163.28V221.51Z" fill="#C1811B"/>
<path d="M163.28 214.59H156.37V221.5H163.28V214.59Z" fill="black"/>
<path d="M163.28 207.75H156.37V214.6H163.28V207.75Z" fill="black"/>
<path d="M163.28 200.83H156.37V207.74H163.28V200.83Z" fill="black"/>
<path d="M163.28 194H156.37V200.85H163.28V194Z" fill="black"/>
<path d="M163.28 187.09H156.37V194H163.28V187.09Z" fill="black"/>
<path d="M163.28 180.24H156.37V187.09H163.28V180.24Z" fill="black"/>
<path d="M163.28 173.33H156.37V180.24H163.28V173.33Z" fill="#C1811B"/>
<path d="M163.28 166.41H156.37V173.32H163.28V166.41Z" fill="black"/>
<path d="M163.28 159.57H156.37V166.42H163.28V159.57Z" fill="#404E89"/>
<path d="M163.28 152.67H156.37V159.58H163.28V152.67Z" fill="#404E89"/>
<path d="M163.28 145.82H156.37V152.67H163.28V145.82Z" fill="#626CA0"/>
<path d="M163.28 138.91H156.37V145.82H163.28V138.91Z" fill="#5364AD"/>
<path d="M163.28 132.06H156.37V138.91H163.28V132.06Z" fill="#5364AD"/>
<path d="M163.28 125.15H156.37V132.06H163.28V125.15Z" fill="#626CA0"/>
<path d="M163.28 118.24H156.37V125.15H163.28V118.24Z" fill="black"/>
<path d="M156.37 297.19H149.52V304.1H156.37V297.19Z" fill="black"/>
<path d="M156.37 290.35H149.52V297.2H156.37V290.35Z" fill="black"/>
<path d="M156.37 249.01H149.52V255.92H156.37V249.01Z" fill="black"/>
<path d="M156.37 242.17H149.52V249.02H156.37V242.17Z" fill="#2F384C"/>
<path d="M156.37 235.25H149.52V242.16H156.37V235.25Z" fill="black"/>
<path d="M156.37 228.35H149.52V235.26H156.37V228.35Z" fill="#C1811B"/>
<path d="M156.37 221.51H149.52V228.36H156.37V221.51Z" fill="#C1811B"/>
<path d="M156.37 214.59H149.52V221.5H156.37V214.59Z" fill="black"/>
<path d="M156.37 173.33H149.52V180.24H156.37V173.33Z" fill="black"/>
<path d="M156.37 166.41H149.52V173.32H156.37V166.41Z" fill="#C1811B"/>
<path d="M156.37 159.57H149.52V166.42H156.37V159.57Z" fill="black"/>
<path d="M156.37 152.67H149.52V159.58H156.37V152.67Z" fill="#404E89"/>
<path d="M156.37 145.82H149.52V152.67H156.37V145.82Z" fill="#5364AD"/>
<path d="M156.37 138.91H149.52V145.82H156.37V138.91Z" fill="black"/>
<path d="M156.37 132.06H149.52V138.91H156.37V132.06Z" fill="black"/>
<path d="M156.37 125.15H149.52V132.06H156.37V125.15Z" fill="black"/>
<path d="M149.52 249.01H142.61V255.92H149.52V249.01Z" fill="black"/>
<path d="M149.52 242.17H142.61V249.02H149.52V242.17Z" fill="#2F384C"/>
<path d="M149.52 235.25H142.61V242.16H149.52V235.25Z" fill="black"/>
<path d="M149.52 228.35H142.61V235.26H149.52V228.35Z" fill="black"/>
<path d="M149.52 221.51H142.61V228.36H149.52V221.51Z" fill="black"/>
<path d="M149.52 166.41H142.61V173.32H149.52V166.41Z" fill="black"/>
<path d="M149.52 159.57H142.61V166.42H149.52V159.57Z" fill="black"/>
<path d="M149.52 152.67H142.61V159.58H149.52V152.67Z" fill="black"/>
<path d="M149.52 145.82H142.61V152.67H149.52V145.82Z" fill="black"/>
<path d="M142.62 249.01H135.77V255.92H142.62V249.01Z" fill="black"/>
<path d="M142.62 242.17H135.77V249.02H142.62V242.17Z" fill="#2F384C"/>
<path d="M142.62 235.25H135.77V242.16H142.62V235.25Z" fill="black"/>
<path d="M135.76 249.01H128.85V255.92H135.76V249.01Z" fill="black"/>
<path d="M135.76 242.17H128.85V249.02H135.76V242.17Z" fill="#2F384C"/>
<path d="M135.76 235.25H128.85V242.16H135.76V235.25Z" fill="black"/>
<path d="M128.85 276.52H121.94V283.43H128.85V276.52Z" fill="black"/>
<path d="M128.85 269.69H121.94V276.54H128.85V269.69Z" fill="black"/>
<path d="M128.85 249.01H121.94V255.92H128.85V249.01Z" fill="black"/>
<path d="M128.85 242.17H121.94V249.02H128.85V242.17Z" fill="#2D3D54"/>
<path d="M128.85 235.25H121.94V242.16H128.85V235.25Z" fill="black"/>
<path d="M128.85 214.59H121.94V221.5H128.85V214.59Z" fill="black"/>
<path d="M128.85 207.75H121.94V214.6H128.85V207.75Z" fill="black"/>
<path d="M121.95 283.43H115.1V290.34H121.95V283.43Z" fill="black"/>
<path d="M121.95 276.52H115.1V283.43H121.95V276.52Z" fill="#4A5A7F"/>
<path d="M121.95 269.69H115.1V276.54H121.95V269.69Z" fill="#4A5A7F"/>
<path d="M121.95 262.77H115.1V269.68H121.95V262.77Z" fill="black"/>
<path d="M121.95 255.93H115.1V262.78H121.95V255.93Z" fill="black"/>
<path d="M121.95 249.01H115.1V255.92H121.95V249.01Z" fill="#1C2C3F"/>
<path d="M121.95 242.17H115.1V249.02H121.95V242.17Z" fill="#1C2C3F"/>
<path d="M121.95 235.25H115.1V242.16H121.95V235.25Z" fill="#1C2C3F"/>
<path d="M121.95 228.35H115.1V235.26H121.95V228.35Z" fill="black"/>
<path d="M121.95 221.51H115.1V228.36H121.95V221.51Z" fill="black"/>
<path d="M121.95 214.59H115.1V221.5H121.95V214.59Z" fill="#54679B"/>
<path d="M121.95 207.75H115.1V214.6H121.95V207.75Z" fill="#4A5A7F"/>
<path d="M121.95 200.83H115.1V207.74H121.95V200.83Z" fill="black"/>
<path d="M115.1 290.35H108.19V297.2H115.1V290.35Z" fill="black"/>
<path d="M115.1 283.43H108.19V290.34H115.1V283.43Z" fill="#54679B"/>
<path d="M115.1 276.52H108.19V283.43H115.1V276.52Z" fill="#54679B"/>
<path d="M115.1 269.69H108.19V276.54H115.1V269.69Z" fill="#4A5A7F"/>
<path d="M115.1 262.77H108.19V269.68H115.1V262.77Z" fill="#4A5A7F"/>
<path d="M115.1 255.93H108.19V262.78H115.1V255.93Z" fill="black"/>
<path d="M115.1 249.01H108.19V255.92H115.1V249.01Z" fill="#2D3D54"/>
<path d="M115.1 242.17H108.19V249.02H115.1V242.17Z" fill="#1C2C3F"/>
<path d="M115.1 235.25H108.19V242.16H115.1V235.25Z" fill="#1C2C3F"/>
<path d="M115.1 228.35H108.19V235.26H115.1V228.35Z" fill="black"/>
<path d="M115.1 221.51H108.19V228.36H115.1V221.51Z" fill="#54679B"/>
<path d="M115.1 214.59H108.19V221.5H115.1V214.59Z" fill="#54679B"/>
<path d="M115.1 207.75H108.19V214.6H115.1V207.75Z" fill="#4A5A7F"/>
<path d="M115.1 200.83H108.19V207.74H115.1V200.83Z" fill="#4A5A7F"/>
<path d="M115.1 194H108.19V200.85H115.1V194Z" fill="black"/>
<path d="M108.2 290.35H101.35V297.2H108.2V290.35Z" fill="black"/>
<path d="M108.2 283.43H101.35V290.34H108.2V283.43Z" fill="#54679B"/>
<path d="M108.2 276.52H101.35V283.43H108.2V276.52Z" fill="#54679B"/>
<path d="M108.2 269.69H101.35V276.54H108.2V269.69Z" fill="#54679B"/>
<path d="M108.2 262.77H101.35V269.68H108.2V262.77Z" fill="#4A5A7F"/>
<path d="M108.2 255.93H101.35V262.78H108.2V255.93Z" fill="black"/>
<path d="M108.2 249.01H101.35V255.92H108.2V249.01Z" fill="#2D3D54"/>
<path d="M108.2 242.17H101.35V249.02H108.2V242.17Z" fill="#2D3D54"/>
<path d="M108.2 235.25H101.35V242.16H108.2V235.25Z" fill="#1C2C3F"/>
<path d="M108.2 228.35H101.35V235.26H108.2V228.35Z" fill="black"/>
<path d="M108.2 221.51H101.35V228.36H108.2V221.51Z" fill="#54679B"/>
<path d="M108.2 214.59H101.35V221.5H108.2V214.59Z" fill="#54679B"/>
<path d="M108.2 207.75H101.35V214.6H108.2V207.75Z" fill="#54679B"/>
<path d="M108.2 200.83H101.35V207.74H108.2V200.83Z" fill="#4A5A7F"/>
<path d="M108.2 194H101.35V200.85H108.2V194Z" fill="black"/>
<path d="M101.34 290.35H94.4301V297.2H101.34V290.35Z" fill="black"/>
<path d="M101.34 283.43H94.4301V290.34H101.34V283.43Z" fill="#4A5A7F"/>
<path d="M101.34 276.52H94.4301V283.43H101.34V276.52Z" fill="#54679B"/>
<path d="M101.34 269.69H94.4301V276.54H101.34V269.69Z" fill="black"/>
<path d="M101.34 262.77H94.4301V269.68H101.34V262.77Z" fill="black"/>
<path d="M101.34 255.93H94.4301V262.78H101.34V255.93Z" fill="black"/>
<path d="M101.34 249.01H94.4301V255.92H101.34V249.01Z" fill="#2D3D54"/>
<path d="M101.34 242.17H94.4301V249.02H101.34V242.17Z" fill="#2D3D54"/>
<path d="M101.34 235.25H94.4301V242.16H101.34V235.25Z" fill="#1C2C3F"/>
<path d="M101.34 228.35H94.4301V235.26H101.34V228.35Z" fill="black"/>
<path d="M101.34 221.51H94.4301V228.36H101.34V221.51Z" fill="black"/>
<path d="M101.34 214.59H94.4301V221.5H101.34V214.59Z" fill="black"/>
<path d="M101.34 207.75H94.4301V214.6H101.34V207.75Z" fill="#54679B"/>
<path d="M101.34 200.83H94.4301V207.74H101.34V200.83Z" fill="#4A5A7F"/>
<path d="M101.34 194H94.4301V200.85H101.34V194Z" fill="black"/>
<path d="M94.44 290.35H87.59V297.2H94.44V290.35Z" fill="black"/>
<path d="M94.44 283.43H87.59V290.34H94.44V283.43Z" fill="#4A5A7F"/>
<path d="M94.44 276.52H87.59V283.43H94.44V276.52Z" fill="black"/>
<path d="M94.44 249.01H87.59V255.92H94.44V249.01Z" fill="black"/>
<path d="M94.44 242.17H87.59V249.02H94.44V242.17Z" fill="#1C2C3F"/>
<path d="M94.44 235.25H87.59V242.16H94.44V235.25Z" fill="black"/>
<path d="M94.44 207.75H87.59V214.6H94.44V207.75Z" fill="black"/>
<path d="M94.44 200.83H87.59V207.74H94.44V200.83Z" fill="#4A5A7F"/>
<path d="M94.44 194H87.59V200.85H94.44V194Z" fill="black"/>
<path d="M87.59 290.35H80.6801V297.2H87.59V290.35Z" fill="black"/>
<path d="M87.59 283.43H80.6801V290.34H87.59V283.43Z" fill="black"/>
<path d="M87.59 255.93H80.6801V262.78H87.59V255.93Z" fill="black"/>
<path d="M87.59 249.01H80.6801V255.92H87.59V249.01Z" fill="#2D3D54"/>
<path d="M87.59 242.17H80.6801V249.02H87.59V242.17Z" fill="#2D3D54"/>
<path d="M87.59 235.25H80.6801V242.16H87.59V235.25Z" fill="#1C2C3F"/>
<path d="M87.59 228.35H80.6801V235.26H87.59V228.35Z" fill="black"/>
<path d="M87.59 200.83H80.6801V207.74H87.59V200.83Z" fill="black"/>
<path d="M87.59 194H80.6801V200.85H87.59V194Z" fill="black"/>
<path d="M80.69 249.01H73.84V255.92H80.69V249.01Z" fill="black"/>
<path d="M80.69 242.17H73.84V249.02H80.69V242.17Z" fill="#2D3D54"/>
<path d="M80.69 235.25H73.84V242.16H80.69V235.25Z" fill="black"/>
<path d="M73.84 242.17H66.9301V249.02H73.84V242.17Z" fill="black"/>
</svg>
