<svg width="400" height="400" viewBox="0 0 400 400" fill="none" xmlns="http://www.w3.org/2000/svg">
<path d="M385.78 200C385.78 302.6 302.6 385.78 200 385.78C97.4 385.78 14.22 302.6 14.22 200C14.22 97.3997 97.39 14.2197 200 14.2197C302.61 14.2197 385.78 97.3997 385.78 200Z" fill="black"/>
<path d="M200 392.78C93.7 392.78 7.21997 306.3 7.21997 200C7.21997 93.6997 93.7 7.21973 200 7.21973C306.3 7.21973 392.78 93.6997 392.78 200C392.78 306.3 306.3 392.78 200 392.78ZM200 21.2197C101.42 21.2197 21.22 101.42 21.22 200C21.22 298.58 101.42 378.78 200 378.78C298.58 378.78 378.78 298.58 378.78 200C378.78 101.42 298.58 21.2197 200 21.2197Z" fill="#751545"/>
<path d="M296.61 270.21H289.52V277.3H296.61V270.21Z" fill="black"/>
<path d="M296.61 263.04H289.52V270.2H296.61V263.04Z" fill="black"/>
<path d="M289.5 284.47H282.34V291.56H289.5V284.47Z" fill="black"/>
<path d="M289.5 277.31H282.34V284.47H289.5V277.31Z" fill="black"/>
<path d="M289.5 270.21H282.34V277.3H289.5V270.21Z" fill="#FF5290"/>
<path d="M289.5 263.04H282.34V270.2H289.5V263.04Z" fill="#FF5290"/>
<path d="M289.5 255.95H282.34V263.04H289.5V255.95Z" fill="black"/>
<path d="M282.34 291.57H275.18V298.73H282.34V291.57Z" fill="black"/>
<path d="M282.34 284.47H275.18V291.56H282.34V284.47Z" fill="#FF5290"/>
<path d="M282.34 277.31H275.18V284.47H282.34V277.31Z" fill="#FF5290"/>
<path d="M282.34 270.21H275.18V277.3H282.34V270.21Z" fill="#FF5290"/>
<path d="M282.34 263.04H275.18V270.2H282.34V263.04Z" fill="#FF5290"/>
<path d="M282.34 255.95H275.18V263.04H282.34V255.95Z" fill="black"/>
<path d="M275.18 291.57H268.09V298.73H275.18V291.57Z" fill="black"/>
<path d="M275.18 284.47H268.09V291.56H275.18V284.47Z" fill="#FF5290"/>
<path d="M275.18 277.31H268.09V284.47H275.18V277.31Z" fill="#FF5A8D"/>
<path d="M275.18 270.21H268.09V277.3H275.18V270.21Z" fill="#FF5A8D"/>
<path d="M275.18 263.04H268.09V270.2H275.18V263.04Z" fill="#FF5290"/>
<path d="M275.18 255.95H268.09V263.04H275.18V255.95Z" fill="black"/>
<path d="M275.18 127.45H268.09V134.61H275.18V127.45Z" fill="black"/>
<path d="M275.18 113.19H268.09V120.35H275.18V113.19Z" fill="black"/>
<path d="M268.08 298.73H260.92V305.89H268.08V298.73Z" fill="black"/>
<path d="M268.08 291.57H260.92V298.73H268.08V291.57Z" fill="#FF5290"/>
<path d="M268.08 284.47H260.92V291.56H268.08V284.47Z" fill="#FF5A8D"/>
<path d="M268.08 277.31H260.92V284.47H268.08V277.31Z" fill="#FF5A8D"/>
<path d="M268.08 270.21H260.92V277.3H268.08V270.21Z" fill="#FF5A8D"/>
<path d="M268.08 263.04H260.92V270.2H268.08V263.04Z" fill="#FF5290"/>
<path d="M268.08 255.95H260.92V263.04H268.08V255.95Z" fill="black"/>
<path d="M268.08 170.31H260.92V177.4H268.08V170.31Z" fill="black"/>
<path d="M268.08 163.14H260.92V170.3H268.08V163.14Z" fill="black"/>
<path d="M268.08 134.62H260.92V141.78H268.08V134.62Z" fill="black"/>
<path d="M268.08 127.45H260.92V134.61H268.08V127.45Z" fill="#CCBE58"/>
<path d="M268.08 120.36H260.92V127.45H268.08V120.36Z" fill="black"/>
<path d="M268.08 113.19H260.92V120.35H268.08V113.19Z" fill="#CCBE58"/>
<path d="M268.08 106.1H260.92V113.19H268.08V106.1Z" fill="black"/>
<path d="M260.91 313H253.82V320.16H260.91V313Z" fill="black"/>
<path d="M260.91 305.9H253.82V312.99H260.91V305.9Z" fill="black"/>
<path d="M260.91 298.73H253.82V305.89H260.91V298.73Z" fill="#FF5A8D"/>
<path d="M260.91 291.57H253.82V298.73H260.91V291.57Z" fill="#FF5A8D"/>
<path d="M260.91 284.47H253.82V291.56H260.91V284.47Z" fill="#FF5A8D"/>
<path d="M260.91 277.31H253.82V284.47H260.91V277.31Z" fill="#FF5A8D"/>
<path d="M260.91 270.21H253.82V277.3H260.91V270.21Z" fill="#FF5A8D"/>
<path d="M260.91 263.04H253.82V270.2H260.91V263.04Z" fill="#FF5A8D"/>
<path d="M260.91 255.95H253.82V263.04H260.91V255.95Z" fill="black"/>
<path d="M260.91 177.41H253.82V184.57H260.91V177.41Z" fill="black"/>
<path d="M260.91 170.31H253.82V177.4H260.91V170.31Z" fill="#FF5290"/>
<path d="M260.91 163.14H253.82V170.3H260.91V163.14Z" fill="#FF5290"/>
<path d="M260.91 156.05H253.82V163.14H260.91V156.05Z" fill="black"/>
<path d="M260.91 134.62H253.82V141.78H260.91V134.62Z" fill="black"/>
<path d="M260.91 127.45H253.82V134.61H260.91V127.45Z" fill="#CCBE58"/>
<path d="M260.91 120.36H253.82V127.45H260.91V120.36Z" fill="#CCBB69"/>
<path d="M260.91 113.19H253.82V120.35H260.91V113.19Z" fill="#CCBE58"/>
<path d="M260.91 106.1H253.82V113.19H260.91V106.1Z" fill="#CCBE58"/>
<path d="M260.91 98.9297H253.82V106.09H260.91V98.9297Z" fill="black"/>
<path d="M253.82 320.16H246.66V327.25H253.82V320.16Z" fill="black"/>
<path d="M253.82 313H246.66V320.16H253.82V313Z" fill="#FF5290"/>
<path d="M253.82 305.9H246.66V312.99H253.82V305.9Z" fill="#FF5290"/>
<path d="M253.82 298.73H246.66V305.89H253.82V298.73Z" fill="#FF5A8D"/>
<path d="M253.82 291.57H246.66V298.73H253.82V291.57Z" fill="#FF5A8D"/>
<path d="M253.82 284.47H246.66V291.56H253.82V284.47Z" fill="#FF5A8D"/>
<path d="M253.82 277.31H246.66V284.47H253.82V277.31Z" fill="#FF5A8D"/>
<path d="M253.82 270.21H246.66V277.3H253.82V270.21Z" fill="#FF5A8D"/>
<path d="M253.82 263.04H246.66V270.2H253.82V263.04Z" fill="#FF5A8D"/>
<path d="M253.82 255.95H246.66V263.04H253.82V255.95Z" fill="black"/>
<path d="M253.82 184.57H246.66V191.73H253.82V184.57Z" fill="black"/>
<path d="M253.82 177.41H246.66V184.57H253.82V177.41Z" fill="#FF5A8D"/>
<path d="M253.82 170.31H246.66V177.4H253.82V170.31Z" fill="#FF5A8D"/>
<path d="M253.82 163.14H246.66V170.3H253.82V163.14Z" fill="#FF5290"/>
<path d="M253.82 156.05H246.66V163.14H253.82V156.05Z" fill="black"/>
<path d="M253.82 141.78H246.66V148.87H253.82V141.78Z" fill="black"/>
<path d="M253.82 134.62H246.66V141.78H253.82V134.62Z" fill="#CCBE58"/>
<path d="M253.82 127.45H246.66V134.61H253.82V127.45Z" fill="#DBD38B"/>
<path d="M253.82 120.36H246.66V127.45H253.82V120.36Z" fill="#CCBB69"/>
<path d="M253.82 113.19H246.66V120.35H253.82V113.19Z" fill="#CCBB69"/>
<path d="M253.82 106.1H246.66V113.19H253.82V106.1Z" fill="#CCBE58"/>
<path d="M253.82 98.9297H246.66V106.09H253.82V98.9297Z" fill="#CCBE58"/>
<path d="M253.82 91.8301H246.66V98.9201H253.82V91.8301Z" fill="black"/>
<path d="M246.65 320.16H239.56V327.25H246.65V320.16Z" fill="black"/>
<path d="M246.65 313H239.56V320.16H246.65V313Z" fill="#FF5290"/>
<path d="M246.65 305.9H239.56V312.99H246.65V305.9Z" fill="#FF749A"/>
<path d="M246.65 298.73H239.56V305.89H246.65V298.73Z" fill="#FF749A"/>
<path d="M246.65 291.57H239.56V298.73H246.65V291.57Z" fill="#FF5A8D"/>
<path d="M246.65 284.47H239.56V291.56H246.65V284.47Z" fill="#FF5A8D"/>
<path d="M246.65 277.31H239.56V284.47H246.65V277.31Z" fill="#FF5A8D"/>
<path d="M246.65 270.21H239.56V277.3H246.65V270.21Z" fill="#FF5A8D"/>
<path d="M246.65 263.04H239.56V270.2H246.65V263.04Z" fill="#FF5A8D"/>
<path d="M246.65 255.95H239.56V263.04H246.65V255.95Z" fill="black"/>
<path d="M246.65 184.57H239.56V191.73H246.65V184.57Z" fill="black"/>
<path d="M246.65 177.41H239.56V184.57H246.65V177.41Z" fill="#FF5A8D"/>
<path d="M246.65 170.31H239.56V177.4H246.65V170.31Z" fill="#FF749A"/>
<path d="M246.65 163.14H239.56V170.3H246.65V163.14Z" fill="#FF5A8D"/>
<path d="M246.65 156.05H239.56V163.14H246.65V156.05Z" fill="black"/>
<path d="M246.65 148.88H239.56V156.04H246.65V148.88Z" fill="black"/>
<path d="M246.65 141.78H239.56V148.87H246.65V141.78Z" fill="#CCBE58"/>
<path d="M246.65 134.62H239.56V141.78H246.65V134.62Z" fill="#DBD38B"/>
<path d="M246.65 127.45H239.56V134.61H246.65V127.45Z" fill="#DBD38B"/>
<path d="M246.65 120.36H239.56V127.45H246.65V120.36Z" fill="#DBD38B"/>
<path d="M246.65 113.19H239.56V120.35H246.65V113.19Z" fill="#CCBB69"/>
<path d="M246.65 106.1H239.56V113.19H246.65V106.1Z" fill="#CCBB69"/>
<path d="M246.65 98.9297H239.56V106.09H246.65V98.9297Z" fill="#CCBE58"/>
<path d="M246.65 91.8301H239.56V98.9201H246.65V91.8301Z" fill="black"/>
<path d="M239.56 320.16H232.4V327.25H239.56V320.16Z" fill="black"/>
<path d="M239.56 313H232.4V320.16H239.56V313Z" fill="#FF5A8D"/>
<path d="M239.56 305.9H232.4V312.99H239.56V305.9Z" fill="#FF749A"/>
<path d="M239.56 298.73H232.4V305.89H239.56V298.73Z" fill="#FF749A"/>
<path d="M239.56 291.57H232.4V298.73H239.56V291.57Z" fill="#FF749A"/>
<path d="M239.56 284.47H232.4V291.56H239.56V284.47Z" fill="#FF5A8D"/>
<path d="M239.56 277.31H232.4V284.47H239.56V277.31Z" fill="#FF5A8D"/>
<path d="M239.56 270.21H232.4V277.3H239.56V270.21Z" fill="#FF5A8D"/>
<path d="M239.56 263.04H232.4V270.2H239.56V263.04Z" fill="black"/>
<path d="M239.56 177.41H232.4V184.57H239.56V177.41Z" fill="black"/>
<path d="M239.56 170.31H232.4V177.4H239.56V170.31Z" fill="#FF749A"/>
<path d="M239.56 163.14H232.4V170.3H239.56V163.14Z" fill="#FF5A8D"/>
<path d="M239.56 156.05H232.4V163.14H239.56V156.05Z" fill="black"/>
<path d="M239.56 148.88H232.4V156.04H239.56V148.88Z" fill="#FF5290"/>
<path d="M239.56 141.78H232.4V148.87H239.56V141.78Z" fill="#FF5290"/>
<path d="M239.56 134.62H232.4V141.78H239.56V134.62Z" fill="#DBD38B"/>
<path d="M239.56 127.45H232.4V134.61H239.56V127.45Z" fill="#DBD38B"/>
<path d="M239.56 120.36H232.4V127.45H239.56V120.36Z" fill="#DBD38B"/>
<path d="M239.56 113.19H232.4V120.35H239.56V113.19Z" fill="#DBD38B"/>
<path d="M239.56 106.1H232.4V113.19H239.56V106.1Z" fill="#CCBB69"/>
<path d="M239.56 98.9297H232.4V106.09H239.56V98.9297Z" fill="#CCBE58"/>
<path d="M239.56 91.8301H232.4V98.9201H239.56V91.8301Z" fill="black"/>
<path d="M232.39 327.26H225.23V334.42H232.39V327.26Z" fill="black"/>
<path d="M232.39 320.16H225.23V327.25H232.39V320.16Z" fill="#FF5290"/>
<path d="M232.39 313H225.23V320.16H232.39V313Z" fill="#FF749A"/>
<path d="M232.39 305.9H225.23V312.99H232.39V305.9Z" fill="#FF749A"/>
<path d="M232.39 298.73H225.23V305.89H232.39V298.73Z" fill="#FF749A"/>
<path d="M232.39 291.57H225.23V298.73H232.39V291.57Z" fill="#FF749A"/>
<path d="M232.39 284.47H225.23V291.56H232.39V284.47Z" fill="#FF749A"/>
<path d="M232.39 277.31H225.23V284.47H232.39V277.31Z" fill="#FF5A8D"/>
<path d="M232.39 270.21H225.23V277.3H232.39V270.21Z" fill="black"/>
<path d="M232.39 184.57H225.23V191.73H232.39V184.57Z" fill="black"/>
<path d="M232.39 177.41H225.23V184.57H232.39V177.41Z" fill="#FF749A"/>
<path d="M232.39 170.31H225.23V177.4H232.39V170.31Z" fill="#FF749A"/>
<path d="M232.39 163.14H225.23V170.3H232.39V163.14Z" fill="#FF749A"/>
<path d="M232.39 156.05H225.23V163.14H232.39V156.05Z" fill="#FF5A8D"/>
<path d="M232.39 148.88H225.23V156.04H232.39V148.88Z" fill="#FF5A8D"/>
<path d="M232.39 141.78H225.23V148.87H232.39V141.78Z" fill="#FF5290"/>
<path d="M232.39 134.62H225.23V141.78H232.39V134.62Z" fill="#DBD38B"/>
<path d="M232.39 127.45H225.23V134.61H232.39V127.45Z" fill="#DBD38B"/>
<path d="M232.39 120.36H225.23V127.45H232.39V120.36Z" fill="#DBD38B"/>
<path d="M232.39 113.19H225.23V120.35H232.39V113.19Z" fill="#DBD38B"/>
<path d="M232.39 106.1H225.23V113.19H232.39V106.1Z" fill="#CCBB69"/>
<path d="M232.39 98.9297H225.23V106.09H232.39V98.9297Z" fill="#CCBE58"/>
<path d="M232.39 91.8301H225.23V98.9201H232.39V91.8301Z" fill="black"/>
<path d="M225.22 327.26H218.13V334.42H225.22V327.26Z" fill="black"/>
<path d="M225.22 320.16H218.13V327.25H225.22V320.16Z" fill="#FF5290"/>
<path d="M225.22 313H218.13V320.16H225.22V313Z" fill="#FF749A"/>
<path d="M225.22 305.9H218.13V312.99H225.22V305.9Z" fill="#FF749A"/>
<path d="M225.22 298.73H218.13V305.89H225.22V298.73Z" fill="#FF749A"/>
<path d="M225.22 291.57H218.13V298.73H225.22V291.57Z" fill="#FF749A"/>
<path d="M225.22 284.47H218.13V291.56H225.22V284.47Z" fill="#FF749A"/>
<path d="M225.22 277.31H218.13V284.47H225.22V277.31Z" fill="#FF5A8D"/>
<path d="M225.22 270.21H218.13V277.3H225.22V270.21Z" fill="black"/>
<path d="M225.22 227.36H218.13V234.52H225.22V227.36Z" fill="black"/>
<path d="M225.22 220.26H218.13V227.35H225.22V220.26Z" fill="black"/>
<path d="M225.22 213.09H218.13V220.25H225.22V213.09Z" fill="black"/>
<path d="M225.22 206H218.13V213.09H225.22V206Z" fill="black"/>
<path d="M225.22 184.57H218.13V191.73H225.22V184.57Z" fill="black"/>
<path d="M225.22 177.41H218.13V184.57H225.22V177.41Z" fill="#FF749A"/>
<path d="M225.22 170.31H218.13V177.4H225.22V170.31Z" fill="#FF749A"/>
<path d="M225.22 163.14H218.13V170.3H225.22V163.14Z" fill="#FF749A"/>
<path d="M225.22 156.05H218.13V163.14H225.22V156.05Z" fill="#FF749A"/>
<path d="M225.22 148.88H218.13V156.04H225.22V148.88Z" fill="#FF5A8D"/>
<path d="M225.22 141.78H218.13V148.87H225.22V141.78Z" fill="#FF5A8D"/>
<path d="M225.22 134.62H218.13V141.78H225.22V134.62Z" fill="#DBD38B"/>
<path d="M225.22 127.45H218.13V134.61H225.22V127.45Z" fill="#DBD38B"/>
<path d="M225.22 120.36H218.13V127.45H225.22V120.36Z" fill="#DBD38B"/>
<path d="M225.22 113.19H218.13V120.35H225.22V113.19Z" fill="#DBD38B"/>
<path d="M225.22 106.1H218.13V113.19H225.22V106.1Z" fill="#DBD38B"/>
<path d="M225.22 98.9297H218.13V106.09H225.22V98.9297Z" fill="#CCBB69"/>
<path d="M225.22 91.8301H218.13V98.9201H225.22V91.8301Z" fill="black"/>
<path d="M218.13 327.26H210.97V334.42H218.13V327.26Z" fill="black"/>
<path d="M218.13 320.16H210.97V327.25H218.13V320.16Z" fill="#FF5A8D"/>
<path d="M218.13 313H210.97V320.16H218.13V313Z" fill="#FF749A"/>
<path d="M218.13 305.9H210.97V312.99H218.13V305.9Z" fill="#FF749A"/>
<path d="M218.13 298.73H210.97V305.89H218.13V298.73Z" fill="#FF749A"/>
<path d="M218.13 291.57H210.97V298.73H218.13V291.57Z" fill="#FF749A"/>
<path d="M218.13 284.47H210.97V291.56H218.13V284.47Z" fill="#FF749A"/>
<path d="M218.13 277.31H210.97V284.47H218.13V277.31Z" fill="#FF5A8D"/>
<path d="M218.13 270.21H210.97V277.3H218.13V270.21Z" fill="black"/>
<path d="M218.13 263.04H210.97V270.2H218.13V263.04Z" fill="black"/>
<path d="M218.13 255.95H210.97V263.04H218.13V255.95Z" fill="black"/>
<path d="M218.13 248.79H210.97V255.95H218.13V248.79Z" fill="black"/>
<path d="M218.13 241.61H210.97V248.77H218.13V241.61Z" fill="black"/>
<path d="M218.13 234.52H210.97V241.61H218.13V234.52Z" fill="black"/>
<path d="M218.13 227.36H210.97V234.52H218.13V227.36Z" fill="#FF5A8D"/>
<path d="M218.13 220.26H210.97V227.35H218.13V220.26Z" fill="#FF5A8D"/>
<path d="M218.13 213.09H210.97V220.25H218.13V213.09Z" fill="#FF5A8D"/>
<path d="M218.13 206H210.97V213.09H218.13V206Z" fill="#FF5290"/>
<path d="M218.13 198.84H210.97V206H218.13V198.84Z" fill="black"/>
<path d="M218.13 191.73H210.97V198.82H218.13V191.73Z" fill="black"/>
<path d="M218.13 184.57H210.97V191.73H218.13V184.57Z" fill="black"/>
<path d="M218.13 177.41H210.97V184.57H218.13V177.41Z" fill="#FF749A"/>
<path d="M218.13 170.31H210.97V177.4H218.13V170.31Z" fill="#FF749A"/>
<path d="M218.13 163.14H210.97V170.3H218.13V163.14Z" fill="#FF749A"/>
<path d="M218.13 156.05H210.97V163.14H218.13V156.05Z" fill="#FF5A8D"/>
<path d="M218.13 148.88H210.97V156.04H218.13V148.88Z" fill="#FF5A8D"/>
<path d="M218.13 141.78H210.97V148.87H218.13V141.78Z" fill="black"/>
<path d="M218.13 134.62H210.97V141.78H218.13V134.62Z" fill="black"/>
<path d="M218.13 127.45H210.97V134.61H218.13V127.45Z" fill="#EF997B"/>
<path d="M218.13 120.36H210.97V127.45H218.13V120.36Z" fill="#DBD38B"/>
<path d="M218.13 113.19H210.97V120.35H218.13V113.19Z" fill="#DBD38B"/>
<path d="M218.13 106.1H210.97V113.19H218.13V106.1Z" fill="#DBD38B"/>
<path d="M218.13 98.9297H210.97V106.09H218.13V98.9297Z" fill="#CCBB69"/>
<path d="M218.13 91.8301H210.97V98.9201H218.13V91.8301Z" fill="black"/>
<path d="M210.96 327.26H203.87V334.42H210.96V327.26Z" fill="black"/>
<path d="M210.96 320.16H203.87V327.25H210.96V320.16Z" fill="#FF749A"/>
<path d="M210.96 313H203.87V320.16H210.96V313Z" fill="#FF749A"/>
<path d="M210.96 305.9H203.87V312.99H210.96V305.9Z" fill="#FF749A"/>
<path d="M210.96 298.73H203.87V305.89H210.96V298.73Z" fill="#FF749A"/>
<path d="M210.96 291.57H203.87V298.73H210.96V291.57Z" fill="#FF749A"/>
<path d="M210.96 284.47H203.87V291.56H210.96V284.47Z" fill="#FF749A"/>
<path d="M210.96 277.31H203.87V284.47H210.96V277.31Z" fill="#FF749A"/>
<path d="M210.96 270.21H203.87V277.3H210.96V270.21Z" fill="#FF5A8D"/>
<path d="M210.96 263.04H203.87V270.2H210.96V263.04Z" fill="#FF5A8D"/>
<path d="M210.96 255.95H203.87V263.04H210.96V255.95Z" fill="#FF5A8D"/>
<path d="M210.96 248.79H203.87V255.95H210.96V248.79Z" fill="#FF5A8D"/>
<path d="M210.96 241.61H203.87V248.77H210.96V241.61Z" fill="#FF5A8D"/>
<path d="M210.96 234.52H203.87V241.61H210.96V234.52Z" fill="#FF5A8D"/>
<path d="M210.96 227.36H203.87V234.52H210.96V227.36Z" fill="#FF749A"/>
<path d="M210.96 220.26H203.87V227.35H210.96V220.26Z" fill="#FF749A"/>
<path d="M210.96 213.09H203.87V220.25H210.96V213.09Z" fill="#FF5A8D"/>
<path d="M210.96 206H203.87V213.09H210.96V206Z" fill="#FF5290"/>
<path d="M210.96 198.84H203.87V206H210.96V198.84Z" fill="#FF5290"/>
<path d="M210.96 191.73H203.87V198.82H210.96V191.73Z" fill="#72512D"/>
<path d="M210.96 184.57H203.87V191.73H210.96V184.57Z" fill="#72512D"/>
<path d="M210.96 177.41H203.87V184.57H210.96V177.41Z" fill="#FF749A"/>
<path d="M210.96 170.31H203.87V177.4H210.96V170.31Z" fill="#FF749A"/>
<path d="M210.96 163.14H203.87V170.3H210.96V163.14Z" fill="#FF5A8D"/>
<path d="M210.96 156.05H203.87V163.14H210.96V156.05Z" fill="#EF997B"/>
<path d="M210.96 148.88H203.87V156.04H210.96V148.88Z" fill="#EF997B"/>
<path d="M210.96 141.78H203.87V148.87H210.96V141.78Z" fill="#EF997B"/>
<path d="M210.96 134.62H203.87V141.78H210.96V134.62Z" fill="#EF997B"/>
<path d="M210.96 127.45H203.87V134.61H210.96V127.45Z" fill="#EF997B"/>
<path d="M210.96 120.36H203.87V127.45H210.96V120.36Z" fill="#EF997B"/>
<path d="M210.96 113.19H203.87V120.35H210.96V113.19Z" fill="#DBD38B"/>
<path d="M210.96 106.1H203.87V113.19H210.96V106.1Z" fill="#DBD38B"/>
<path d="M210.96 98.9297H203.87V106.09H210.96V98.9297Z" fill="#DBD38B"/>
<path d="M210.96 91.8301H203.87V98.9201H210.96V91.8301Z" fill="black"/>
<path d="M203.86 327.26H196.7V334.42H203.86V327.26Z" fill="black"/>
<path d="M203.86 320.16H196.7V327.25H203.86V320.16Z" fill="#FF5A8D"/>
<path d="M203.86 313H196.7V320.16H203.86V313Z" fill="#FF749A"/>
<path d="M203.86 305.9H196.7V312.99H203.86V305.9Z" fill="#FF749A"/>
<path d="M203.86 298.73H196.7V305.89H203.86V298.73Z" fill="#FF749A"/>
<path d="M203.86 291.57H196.7V298.73H203.86V291.57Z" fill="#FF749A"/>
<path d="M203.86 284.47H196.7V291.56H203.86V284.47Z" fill="#FF749A"/>
<path d="M203.86 277.31H196.7V284.47H203.86V277.31Z" fill="#FF749A"/>
<path d="M203.86 270.21H196.7V277.3H203.86V270.21Z" fill="#FF749A"/>
<path d="M203.86 263.04H196.7V270.2H203.86V263.04Z" fill="#FF749A"/>
<path d="M203.86 255.95H196.7V263.04H203.86V255.95Z" fill="#FF749A"/>
<path d="M203.86 248.79H196.7V255.95H203.86V248.79Z" fill="#FF749A"/>
<path d="M203.86 241.61H196.7V248.77H203.86V241.61Z" fill="#FF749A"/>
<path d="M203.86 234.52H196.7V241.61H203.86V234.52Z" fill="#FF749A"/>
<path d="M203.86 227.36H196.7V234.52H203.86V227.36Z" fill="#FF749A"/>
<path d="M203.86 220.26H196.7V227.35H203.86V220.26Z" fill="#FF749A"/>
<path d="M203.86 213.09H196.7V220.25H203.86V213.09Z" fill="#FF749A"/>
<path d="M203.86 206H196.7V213.09H203.86V206Z" fill="#FF5A8D"/>
<path d="M203.86 198.84H196.7V206H203.86V198.84Z" fill="#FF5A8D"/>
<path d="M203.86 191.73H196.7V198.82H203.86V191.73Z" fill="#7A5A34"/>
<path d="M203.86 184.57H196.7V191.73H203.86V184.57Z" fill="#72512D"/>
<path d="M203.86 177.41H196.7V184.57H203.86V177.41Z" fill="#FF749A"/>
<path d="M203.86 170.31H196.7V177.4H203.86V170.31Z" fill="#FF5A8D"/>
<path d="M203.86 163.14H196.7V170.3H203.86V163.14Z" fill="#FF5A8D"/>
<path d="M203.86 156.05H196.7V163.14H203.86V156.05Z" fill="#EF997B"/>
<path d="M203.86 148.88H196.7V156.04H203.86V148.88Z" fill="#EF997B"/>
<path d="M203.86 141.78H196.7V148.87H203.86V141.78Z" fill="#EF997B"/>
<path d="M203.86 134.62H196.7V141.78H203.86V134.62Z" fill="#EF997B"/>
<path d="M203.86 127.45H196.7V134.61H203.86V127.45Z" fill="#C6C4C6"/>
<path d="M203.86 120.36H196.7V127.45H203.86V120.36Z" fill="#EF997B"/>
<path d="M203.86 113.19H196.7V120.35H203.86V113.19Z" fill="#DBD38B"/>
<path d="M203.86 106.1H196.7V113.19H203.86V106.1Z" fill="#DBD38B"/>
<path d="M203.86 98.9297H196.7V106.09H203.86V98.9297Z" fill="#DBD38B"/>
<path d="M203.86 91.8301H196.7V98.9201H203.86V91.8301Z" fill="black"/>
<path d="M196.7 327.26H189.61V334.42H196.7V327.26Z" fill="black"/>
<path d="M196.7 320.16H189.61V327.25H196.7V320.16Z" fill="#FF5A8D"/>
<path d="M196.7 313H189.61V320.16H196.7V313Z" fill="#FF5A8D"/>
<path d="M196.7 305.9H189.61V312.99H196.7V305.9Z" fill="#FF749A"/>
<path d="M196.7 298.73H189.61V305.89H196.7V298.73Z" fill="#FF749A"/>
<path d="M196.7 291.57H189.61V298.73H196.7V291.57Z" fill="#FF749A"/>
<path d="M196.7 284.47H189.61V291.56H196.7V284.47Z" fill="#FF749A"/>
<path d="M196.7 277.31H189.61V284.47H196.7V277.31Z" fill="#FF749A"/>
<path d="M196.7 270.21H189.61V277.3H196.7V270.21Z" fill="#FF749A"/>
<path d="M196.7 263.04H189.61V270.2H196.7V263.04Z" fill="#FF749A"/>
<path d="M196.7 255.95H189.61V263.04H196.7V255.95Z" fill="#FF749A"/>
<path d="M196.7 248.79H189.61V255.95H196.7V248.79Z" fill="#FF749A"/>
<path d="M196.7 241.61H189.61V248.77H196.7V241.61Z" fill="#FF749A"/>
<path d="M196.7 234.52H189.61V241.61H196.7V234.52Z" fill="#FF749A"/>
<path d="M196.7 227.36H189.61V234.52H196.7V227.36Z" fill="#FF749A"/>
<path d="M196.7 220.26H189.61V227.35H196.7V220.26Z" fill="#FF749A"/>
<path d="M196.7 213.09H189.61V220.25H196.7V213.09Z" fill="#FF749A"/>
<path d="M196.7 206H189.61V213.09H196.7V206Z" fill="#FF749A"/>
<path d="M196.7 198.84H189.61V206H196.7V198.84Z" fill="#FF5A8D"/>
<path d="M196.7 191.73H189.61V198.82H196.7V191.73Z" fill="#7A5A34"/>
<path d="M196.7 184.57H189.61V191.73H196.7V184.57Z" fill="#7A5A34"/>
<path d="M196.7 177.41H189.61V184.57H196.7V177.41Z" fill="#FF5A8D"/>
<path d="M196.7 170.31H189.61V177.4H196.7V170.31Z" fill="#EF997B"/>
<path d="M196.7 163.14H189.61V170.3H196.7V163.14Z" fill="#FF749A"/>
<path d="M196.7 156.05H189.61V163.14H196.7V156.05Z" fill="#EF997B"/>
<path d="M196.7 148.88H189.61V156.04H196.7V148.88Z" fill="black"/>
<path d="M196.7 141.78H189.61V148.87H196.7V141.78Z" fill="#EF997B"/>
<path d="M196.7 134.62H189.61V141.78H196.7V134.62Z" fill="#EF997B"/>
<path d="M196.7 127.45H189.61V134.61H196.7V127.45Z" fill="#EF997B"/>
<path d="M196.7 120.36H189.61V127.45H196.7V120.36Z" fill="#EF997B"/>
<path d="M196.7 113.19H189.61V120.35H196.7V113.19Z" fill="#DBD38B"/>
<path d="M196.7 106.1H189.61V113.19H196.7V106.1Z" fill="#DBD38B"/>
<path d="M196.7 98.9297H189.61V106.09H196.7V98.9297Z" fill="#DBD38B"/>
<path d="M196.7 91.8301H189.61V98.9201H196.7V91.8301Z" fill="black"/>
<path d="M189.61 320.16H182.45V327.25H189.61V320.16Z" fill="black"/>
<path d="M189.61 313H182.45V320.16H189.61V313Z" fill="#FF5A8D"/>
<path d="M189.61 305.9H182.45V312.99H189.61V305.9Z" fill="#FF749A"/>
<path d="M189.61 298.73H182.45V305.89H189.61V298.73Z" fill="#FF749A"/>
<path d="M189.61 291.57H182.45V298.73H189.61V291.57Z" fill="#FF5A8D"/>
<path d="M189.61 284.47H182.45V291.56H189.61V284.47Z" fill="black"/>
<path d="M189.61 277.31H182.45V284.47H189.61V277.31Z" fill="black"/>
<path d="M189.61 270.21H182.45V277.3H189.61V270.21Z" fill="black"/>
<path d="M189.61 263.04H182.45V270.2H189.61V263.04Z" fill="black"/>
<path d="M189.61 255.95H182.45V263.04H189.61V255.95Z" fill="black"/>
<path d="M189.61 248.79H182.45V255.95H189.61V248.79Z" fill="black"/>
<path d="M189.61 241.61H182.45V248.77H189.61V241.61Z" fill="#FF5A8D"/>
<path d="M189.61 234.52H182.45V241.61H189.61V234.52Z" fill="#FF5A8D"/>
<path d="M189.61 227.36H182.45V234.52H189.61V227.36Z" fill="#FF749A"/>
<path d="M189.61 220.26H182.45V227.35H189.61V220.26Z" fill="#FF749A"/>
<path d="M189.61 213.09H182.45V220.25H189.61V213.09Z" fill="#FF749A"/>
<path d="M189.61 206H182.45V213.09H189.61V206Z" fill="#FF749A"/>
<path d="M189.61 198.84H182.45V206H189.61V198.84Z" fill="#FF5A8D"/>
<path d="M189.61 191.73H182.45V198.82H189.61V191.73Z" fill="#7A5A34"/>
<path d="M189.61 184.57H182.45V191.73H189.61V184.57Z" fill="#7A5A34"/>
<path d="M189.61 177.41H182.45V184.57H189.61V177.41Z" fill="#FF749A"/>
<path d="M189.61 170.31H182.45V177.4H189.61V170.31Z" fill="#EF997B"/>
<path d="M189.61 163.14H182.45V170.3H189.61V163.14Z" fill="#FF749A"/>
<path d="M189.61 156.05H182.45V163.14H189.61V156.05Z" fill="#FF749A"/>
<path d="M189.61 148.88H182.45V156.04H189.61V148.88Z" fill="black"/>
<path d="M189.61 141.78H182.45V148.87H189.61V141.78Z" fill="black"/>
<path d="M189.61 134.62H182.45V141.78H189.61V134.62Z" fill="#EF997B"/>
<path d="M189.61 127.45H182.45V134.61H189.61V127.45Z" fill="#C6C4C6"/>
<path d="M189.61 120.36H182.45V127.45H189.61V120.36Z" fill="#EF997B"/>
<path d="M189.61 113.19H182.45V120.35H189.61V113.19Z" fill="#DBD38B"/>
<path d="M189.61 106.1H182.45V113.19H189.61V106.1Z" fill="#CCBB69"/>
<path d="M189.61 98.9297H182.45V106.09H189.61V98.9297Z" fill="black"/>
<path d="M182.43 320.16H175.34V327.25H182.43V320.16Z" fill="black"/>
<path d="M182.43 313H175.34V320.16H182.43V313Z" fill="#FF5A8D"/>
<path d="M182.43 305.9H175.34V312.99H182.43V305.9Z" fill="#FF749A"/>
<path d="M182.43 298.73H175.34V305.89H182.43V298.73Z" fill="#FF5A8D"/>
<path d="M182.43 291.57H175.34V298.73H182.43V291.57Z" fill="black"/>
<path d="M182.43 241.61H175.34V248.77H182.43V241.61Z" fill="black"/>
<path d="M182.43 234.52H175.34V241.61H182.43V234.52Z" fill="black"/>
<path d="M182.43 227.36H175.34V234.52H182.43V227.36Z" fill="black"/>
<path d="M182.43 220.26H175.34V227.35H182.43V220.26Z" fill="#FF749A"/>
<path d="M182.43 213.09H175.34V220.25H182.43V213.09Z" fill="#FF749A"/>
<path d="M182.43 206H175.34V213.09H182.43V206Z" fill="#FF749A"/>
<path d="M182.43 198.84H175.34V206H182.43V198.84Z" fill="black"/>
<path d="M182.43 191.73H175.34V198.82H182.43V191.73Z" fill="black"/>
<path d="M182.43 184.57H175.34V191.73H182.43V184.57Z" fill="#EF997B"/>
<path d="M182.43 177.41H175.34V184.57H182.43V177.41Z" fill="black"/>
<path d="M182.43 170.31H175.34V177.4H182.43V170.31Z" fill="#EF997B"/>
<path d="M182.43 163.14H175.34V170.3H182.43V163.14Z" fill="#FF749A"/>
<path d="M182.43 156.05H175.34V163.14H182.43V156.05Z" fill="black"/>
<path d="M182.43 134.62H175.34V141.78H182.43V134.62Z" fill="black"/>
<path d="M182.43 127.45H175.34V134.61H182.43V127.45Z" fill="black"/>
<path d="M182.43 120.36H175.34V127.45H182.43V120.36Z" fill="#CCBB69"/>
<path d="M182.43 113.19H175.34V120.35H182.43V113.19Z" fill="#CCBB69"/>
<path d="M182.43 106.1H175.34V113.19H182.43V106.1Z" fill="black"/>
<path d="M175.34 320.16H168.18V327.25H175.34V320.16Z" fill="black"/>
<path d="M175.34 313H168.18V320.16H175.34V313Z" fill="#FF5A8D"/>
<path d="M175.34 305.9H168.18V312.99H175.34V305.9Z" fill="#FF749A"/>
<path d="M175.34 298.73H168.18V305.89H175.34V298.73Z" fill="black"/>
<path d="M175.34 220.26H168.18V227.35H175.34V220.26Z" fill="black"/>
<path d="M175.34 213.09H168.18V220.25H175.34V213.09Z" fill="black"/>
<path d="M175.34 206H168.18V213.09H175.34V206Z" fill="black"/>
<path d="M175.34 198.84H168.18V206H175.34V198.84Z" fill="black"/>
<path d="M175.34 191.73H168.18V198.82H175.34V191.73Z" fill="#EF997B"/>
<path d="M175.34 184.57H168.18V191.73H175.34V184.57Z" fill="#EF997B"/>
<path d="M175.34 177.41H168.18V184.57H175.34V177.41Z" fill="black"/>
<path d="M175.34 170.31H168.18V177.4H175.34V170.31Z" fill="#EF997B"/>
<path d="M175.34 163.14H168.18V170.3H175.34V163.14Z" fill="black"/>
<path d="M175.34 120.36H168.18V127.45H175.34V120.36Z" fill="black"/>
<path d="M175.34 113.19H168.18V120.35H175.34V113.19Z" fill="black"/>
<path d="M168.18 320.16H161.02V327.25H168.18V320.16Z" fill="black"/>
<path d="M168.18 313H161.02V320.16H168.18V313Z" fill="#FF5A8D"/>
<path d="M168.18 305.9H161.02V312.99H168.18V305.9Z" fill="#FF5A8D"/>
<path d="M168.18 298.73H161.02V305.89H168.18V298.73Z" fill="black"/>
<path d="M168.18 198.84H161.02V206H168.18V198.84Z" fill="black"/>
<path d="M168.18 191.73H161.02V198.82H168.18V191.73Z" fill="#EF997B"/>
<path d="M168.18 184.57H161.02V191.73H168.18V184.57Z" fill="black"/>
<path d="M168.18 177.41H161.02V184.57H168.18V177.41Z" fill="black"/>
<path d="M168.18 170.31H161.02V177.4H168.18V170.31Z" fill="#EF997B"/>
<path d="M168.18 163.14H161.02V170.3H168.18V163.14Z" fill="black"/>
<path d="M161.02 313H153.93V320.16H161.02V313Z" fill="black"/>
<path d="M161.02 305.9H153.93V312.99H161.02V305.9Z" fill="black"/>
<path d="M161.02 206H153.93V213.09H161.02V206Z" fill="black"/>
<path d="M161.02 198.84H153.93V206H161.02V198.84Z" fill="#EF997B"/>
<path d="M161.02 191.73H153.93V198.82H161.02V191.73Z" fill="#EF997B"/>
<path d="M161.02 184.57H153.93V191.73H161.02V184.57Z" fill="black"/>
<path d="M161.02 177.41H153.93V184.57H161.02V177.41Z" fill="black"/>
<path d="M161.02 170.31H153.93V177.4H161.02V170.31Z" fill="#EF997B"/>
<path d="M161.02 163.14H153.93V170.3H161.02V163.14Z" fill="#EF997B"/>
<path d="M161.02 156.05H153.93V163.14H161.02V156.05Z" fill="black"/>
<path d="M161.02 113.19H153.93V120.35H161.02V113.19Z" fill="#751545"/>
<path d="M161.02 106.1H153.93V113.19H161.02V106.1Z" fill="#751545"/>
<path d="M161.02 98.9297H153.93V106.09H161.02V98.9297Z" fill="#751545"/>
<path d="M161.02 91.8301H153.93V98.9201H161.02V91.8301Z" fill="#751545"/>
<path d="M153.91 305.9H146.75V312.99H153.91V305.9Z" fill="#751545"/>
<path d="M153.91 298.73H146.75V305.89H153.91V298.73Z" fill="#751545"/>
<path d="M153.91 291.57H146.75V298.73H153.91V291.57Z" fill="#751545"/>
<path d="M153.91 284.47H146.75V291.56H153.91V284.47Z" fill="#751545"/>
<path d="M153.91 277.31H146.75V284.47H153.91V277.31Z" fill="#751545"/>
<path d="M153.91 270.21H146.75V277.3H153.91V270.21Z" fill="#751545"/>
<path d="M153.91 263.04H146.75V270.2H153.91V263.04Z" fill="#751545"/>
<path d="M153.91 255.95H146.75V263.04H153.91V255.95Z" fill="#751545"/>
<path d="M153.91 248.79H146.75V255.95H153.91V248.79Z" fill="#751545"/>
<path d="M153.91 241.61H146.75V248.77H153.91V241.61Z" fill="#751545"/>
<path d="M153.91 234.52H146.75V241.61H153.91V234.52Z" fill="#751545"/>
<path d="M153.91 227.36H146.75V234.52H153.91V227.36Z" fill="#751545"/>
<path d="M153.91 220.26H146.75V227.35H153.91V220.26Z" fill="#751545"/>
<path d="M153.91 213.09H146.75V220.25H153.91V213.09Z" fill="#751545"/>
<path d="M153.91 206H146.75V213.09H153.91V206Z" fill="#751545"/>
<path d="M153.91 198.84H146.75V206H153.91V198.84Z" fill="#751545"/>
<path d="M153.91 191.73H146.75V198.82H153.91V191.73Z" fill="#751545"/>
<path d="M153.91 184.57H146.75V191.73H153.91V184.57Z" fill="#751545"/>
<path d="M153.91 177.41H146.75V184.57H153.91V177.41Z" fill="black"/>
<path d="M153.91 170.31H146.75V177.4H153.91V170.31Z" fill="#EF997B"/>
<path d="M153.91 163.14H146.75V170.3H153.91V163.14Z" fill="#EF997B"/>
<path d="M153.91 156.05H146.75V163.14H153.91V156.05Z" fill="#751545"/>
<path d="M153.91 148.88H146.75V156.04H153.91V148.88Z" fill="#751545"/>
<path d="M153.91 141.78H146.75V148.87H153.91V141.78Z" fill="#751545"/>
<path d="M153.91 134.62H146.75V141.78H153.91V134.62Z" fill="#751545"/>
<path d="M153.91 127.45H146.75V134.61H153.91V127.45Z" fill="#751545"/>
<path d="M153.91 120.36H146.75V127.45H153.91V120.36Z" fill="#751545"/>
<path d="M153.91 113.19H146.75V120.35H153.91V113.19Z" fill="#751545"/>
<path d="M153.91 106.1H146.75V113.19H153.91V106.1Z" fill="#751545"/>
<path d="M153.91 98.9297H146.75V106.09H153.91V98.9297Z" fill="#751545"/>
<path d="M153.91 91.8301H146.75V98.9201H153.91V91.8301Z" fill="#751545"/>
<path d="M153.91 84.6699H146.75V91.8299H153.91V84.6699Z" fill="#751545"/>
<path d="M146.75 198.84H139.66V206H146.75V198.84Z" fill="black"/>
<path d="M146.75 191.73H139.66V198.82H146.75V191.73Z" fill="black"/>
<path d="M146.75 170.31H139.66V177.4H146.75V170.31Z" fill="black"/>
<path d="M146.75 163.14H139.66V170.3H146.75V163.14Z" fill="black"/>
<path d="M146.75 148.88H139.66V156.04H146.75V148.88Z" fill="#751545"/>
<path d="M146.75 141.78H139.66V148.87H146.75V141.78Z" fill="#751545"/>
<path d="M146.75 134.62H139.66V141.78H146.75V134.62Z" fill="#751545"/>
<path d="M146.75 127.45H139.66V134.61H146.75V127.45Z" fill="#751545"/>
<path d="M146.75 120.36H139.66V127.45H146.75V120.36Z" fill="#751545"/>
<path d="M146.75 113.19H139.66V120.35H146.75V113.19Z" fill="#751545"/>
<path d="M146.75 106.1H139.66V113.19H146.75V106.1Z" fill="#06E1F7"/>
<path d="M146.75 98.9297H139.66V106.09H146.75V98.9297Z" fill="#06E1F7"/>
<path d="M146.75 91.8301H139.66V98.9201H146.75V91.8301Z" fill="#751545"/>
<path d="M146.75 84.6699H139.66V91.8299H146.75V84.6699Z" fill="#751545"/>
<path d="M146.75 77.5703H139.66V84.6603H146.75V77.5703Z" fill="#751545"/>
<path d="M139.66 127.45H132.5V134.61H139.66V127.45Z" fill="#751545"/>
<path d="M139.66 120.36H132.5V127.45H139.66V120.36Z" fill="#751545"/>
<path d="M139.66 113.19H132.5V120.35H139.66V113.19Z" fill="#751545"/>
<path d="M139.66 106.1H132.5V113.19H139.66V106.1Z" fill="#06E1F7"/>
<path d="M139.66 98.9297H132.5V106.09H139.66V98.9297Z" fill="#06E1F7"/>
<path d="M139.66 91.8301H132.5V98.9201H139.66V91.8301Z" fill="#751545"/>
<path d="M139.66 84.6699H132.5V91.8299H139.66V84.6699Z" fill="#751545"/>
<path d="M139.66 77.5703H132.5V84.6603H139.66V77.5703Z" fill="#751545"/>
<path d="M132.48 113.19H125.39V120.35H132.48V113.19Z" fill="#751545"/>
<path d="M132.48 106.1H125.39V113.19H132.48V106.1Z" fill="#751545"/>
<path d="M132.48 98.9297H125.39V106.09H132.48V98.9297Z" fill="#751545"/>
<path d="M132.48 91.8301H125.39V98.9201H132.48V91.8301Z" fill="#751545"/>
<path d="M132.48 84.6699H125.39V91.8299H132.48V84.6699Z" fill="#751545"/>
</svg>
