<svg width="400" height="400" viewBox="0 0 400 400" fill="none" xmlns="http://www.w3.org/2000/svg">
<path d="M200 385.78C302.603 385.78 385.78 302.603 385.78 200C385.78 97.3963 302.603 14.2197 200 14.2197C97.3965 14.2197 14.22 97.3963 14.22 200C14.22 302.603 97.3965 385.78 200 385.78Z" fill="black"/>
<path d="M200 392.78C93.7 392.78 7.21997 306.3 7.21997 200C7.21997 93.6997 93.7 7.21973 200 7.21973C306.3 7.21973 392.78 93.6997 392.78 200C392.78 306.3 306.3 392.78 200 392.78ZM200 21.2197C101.42 21.2197 21.22 101.42 21.22 200C21.22 298.58 101.42 378.78 200 378.78C298.58 378.78 378.78 298.58 378.78 200C378.78 101.42 298.58 21.2197 200 21.2197Z" fill="#4CED63"/>
<path d="M280.53 318.86H272.83V326.56H280.53V318.86Z" fill="#28AF5F"/>
<path d="M280.53 311.23H272.83V318.86H280.53V311.23Z" fill="#28AF5F"/>
<path d="M280.53 150.16H272.83V157.79H280.53V150.16Z" fill="#28AF5F"/>
<path d="M280.53 142.45H272.83V150.15H280.53V142.45Z" fill="#28AF5F"/>
<path d="M280.53 134.83H272.83V142.46H280.53V134.83Z" fill="#28AF5F"/>
<path d="M272.83 318.86H265.2V326.56H272.83V318.86Z" fill="#28AF5F"/>
<path d="M272.83 311.23H265.2V318.86H272.83V311.23Z" fill="#28AF5F"/>
<path d="M272.83 303.53H265.2V311.23H272.83V303.53Z" fill="#28AF5F"/>
<path d="M272.83 295.9H265.2V303.53H272.83V295.9Z" fill="#28AF5F"/>
<path d="M272.83 288.2H265.2V295.9H272.83V288.2Z" fill="#28AF5F"/>
<path d="M272.83 157.78H265.2V165.48H272.83V157.78Z" fill="#298E52"/>
<path d="M272.83 150.16H265.2V157.79H272.83V150.16Z" fill="#EA8634"/>
<path d="M272.83 142.45H265.2V150.15H272.83V142.45Z" fill="#E5A870"/>
<path d="M272.83 134.83H265.2V142.46H272.83V134.83Z" fill="#EA8634"/>
<path d="M272.83 127.12H265.2V134.82H272.83V127.12Z" fill="#28AF5F"/>
<path d="M272.83 96.4697H265.2V104.1H272.83V96.4697Z" fill="#4C2501"/>
<path d="M272.83 88.7695H265.2V96.4695H272.83V88.7695Z" fill="#4C2501"/>
<path d="M272.83 81.1396H265.2V88.7696H272.83V81.1396Z" fill="#4C2501"/>
<path d="M265.2 318.86H257.5V326.56H265.2V318.86Z" fill="#28AF5F"/>
<path d="M265.2 311.23H257.5V318.86H265.2V311.23Z" fill="#2ECC71"/>
<path d="M265.2 303.53H257.5V311.23H265.2V303.53Z" fill="#2ECC71"/>
<path d="M265.2 295.9H257.5V303.53H265.2V295.9Z" fill="#2ECC71"/>
<path d="M265.2 288.2H257.5V295.9H265.2V288.2Z" fill="#2ECC71"/>
<path d="M265.2 280.49H257.5V288.19H265.2V280.49Z" fill="#28AF5F"/>
<path d="M265.2 272.87H257.5V280.5H265.2V272.87Z" fill="#28AF5F"/>
<path d="M265.2 265.16H257.5V272.86H265.2V265.16Z" fill="#28AF5F"/>
<path d="M265.2 257.53H257.5V265.16H265.2V257.53Z" fill="#28AF5F"/>
<path d="M265.2 157.78H257.5V165.48H265.2V157.78Z" fill="#298E52"/>
<path d="M265.2 150.16H257.5V157.79H265.2V150.16Z" fill="#E5A870"/>
<path d="M265.2 142.45H257.5V150.15H265.2V142.45Z" fill="#E5A870"/>
<path d="M265.2 134.83H257.5V142.46H265.2V134.83Z" fill="#EA8634"/>
<path d="M265.2 127.12H257.5V134.82H265.2V127.12Z" fill="#EA8634"/>
<path d="M265.2 119.51H257.5V127.14H265.2V119.51Z" fill="#28AF5F"/>
<path d="M265.2 104.1H257.5V111.8H265.2V104.1Z" fill="#4C2501"/>
<path d="M265.2 81.1396H257.5V88.7696H265.2V81.1396Z" fill="#4C2501"/>
<path d="M257.49 318.86H249.79V326.56H257.49V318.86Z" fill="#28AF5F"/>
<path d="M257.49 311.23H249.79V318.86H257.49V311.23Z" fill="#28AF5F"/>
<path d="M257.49 303.53H249.79V311.23H257.49V303.53Z" fill="#28AF5F"/>
<path d="M257.49 295.9H249.79V303.53H257.49V295.9Z" fill="#2ECC71"/>
<path d="M257.49 288.2H249.79V295.9H257.49V288.2Z" fill="#2ECC71"/>
<path d="M257.49 280.49H249.79V288.19H257.49V280.49Z" fill="#2ECC71"/>
<path d="M257.49 272.87H249.79V280.5H257.49V272.87Z" fill="#2ECC71"/>
<path d="M257.49 265.16H249.79V272.86H257.49V265.16Z" fill="#2ECC71"/>
<path d="M257.49 257.53H249.79V265.16H257.49V257.53Z" fill="#2ECC71"/>
<path d="M257.49 249.83H249.79V257.53H257.49V249.83Z" fill="#28AF5F"/>
<path d="M257.49 242.22H249.79V249.85H257.49V242.22Z" fill="#28AF5F"/>
<path d="M257.49 157.78H249.79V165.48H257.49V157.78Z" fill="#298E52"/>
<path d="M257.49 150.16H249.79V157.79H257.49V150.16Z" fill="#E5A870"/>
<path d="M257.49 142.45H249.79V150.15H257.49V142.45Z" fill="#E5A870"/>
<path d="M257.49 134.83H249.79V142.46H257.49V134.83Z" fill="#E5A870"/>
<path d="M257.49 127.12H249.79V134.82H257.49V127.12Z" fill="#E5A870"/>
<path d="M257.49 119.51H249.79V127.14H257.49V119.51Z" fill="#EA8634"/>
<path d="M257.49 111.8H249.79V119.5H257.49V111.8Z" fill="#EA8634"/>
<path d="M257.49 104.1H249.79V111.8H257.49V104.1Z" fill="#EA8634"/>
<path d="M257.49 88.7695H249.79V96.4695H257.49V88.7695Z" fill="#4C2501"/>
<path d="M249.81 318.86H242.18V326.56H249.81V318.86Z" fill="#28AF5F"/>
<path d="M249.81 311.23H242.18V318.86H249.81V311.23Z" fill="#28AF5F"/>
<path d="M249.81 303.53H242.18V311.23H249.81V303.53Z" fill="#28AF5F"/>
<path d="M249.81 295.9H242.18V303.53H249.81V295.9Z" fill="#28AF5F"/>
<path d="M249.81 288.2H242.18V295.9H249.81V288.2Z" fill="#2ECC71"/>
<path d="M249.81 280.49H242.18V288.19H249.81V280.49Z" fill="#2ECC71"/>
<path d="M249.81 272.87H242.18V280.5H249.81V272.87Z" fill="#2ECC71"/>
<path d="M249.81 265.16H242.18V272.86H249.81V265.16Z" fill="#2ECC71"/>
<path d="M249.81 257.53H242.18V265.16H249.81V257.53Z" fill="#2ECC71"/>
<path d="M249.81 249.83H242.18V257.53H249.81V249.83Z" fill="#2ECC71"/>
<path d="M249.81 242.22H242.18V249.85H249.81V242.22Z" fill="#2ECC71"/>
<path d="M249.81 234.5H242.18V242.2H249.81V234.5Z" fill="#28AF5F"/>
<path d="M249.81 226.8H242.18V234.5H249.81V226.8Z" fill="#28AF5F"/>
<path d="M249.81 165.49H242.18V173.19H249.81V165.49Z" fill="#298E52"/>
<path d="M249.81 157.78H242.18V165.48H249.81V157.78Z" fill="#298E52"/>
<path d="M249.81 150.16H242.18V157.79H249.81V150.16Z" fill="#298E52"/>
<path d="M249.81 142.45H242.18V150.15H249.81V142.45Z" fill="#298E52"/>
<path d="M249.81 134.83H242.18V142.46H249.81V134.83Z" fill="#E5A870"/>
<path d="M249.81 127.12H242.18V134.82H249.81V127.12Z" fill="#E5A870"/>
<path d="M249.81 119.51H242.18V127.14H249.81V119.51Z" fill="#E5A870"/>
<path d="M249.81 111.8H242.18V119.5H249.81V111.8Z" fill="#E5A870"/>
<path d="M249.81 104.1H242.18V111.8H249.81V104.1Z" fill="#E5A870"/>
<path d="M249.81 96.4697H242.18V104.1H249.81V96.4697Z" fill="#4C2501"/>
<path d="M242.18 318.86H234.48V326.56H242.18V318.86Z" fill="#28AF5F"/>
<path d="M242.18 311.23H234.48V318.86H242.18V311.23Z" fill="#28AF5F"/>
<path d="M242.18 303.53H234.48V311.23H242.18V303.53Z" fill="#2ECC71"/>
<path d="M242.18 295.9H234.48V303.53H242.18V295.9Z" fill="#28AF5F"/>
<path d="M242.18 288.2H234.48V295.9H242.18V288.2Z" fill="#28AF5F"/>
<path d="M242.18 280.49H234.48V288.19H242.18V280.49Z" fill="#2ECC71"/>
<path d="M242.18 272.87H234.48V280.5H242.18V272.87Z" fill="#2ECC71"/>
<path d="M242.18 265.16H234.48V272.86H242.18V265.16Z" fill="#2ECC71"/>
<path d="M242.18 257.53H234.48V265.16H242.18V257.53Z" fill="#2ECC71"/>
<path d="M242.18 249.83H234.48V257.53H242.18V249.83Z" fill="#2ECC71"/>
<path d="M242.18 242.22H234.48V249.85H242.18V242.22Z" fill="#2ECC71"/>
<path d="M242.18 234.5H234.48V242.2H242.18V234.5Z" fill="#2ECC71"/>
<path d="M242.18 226.8H234.48V234.5H242.18V226.8Z" fill="#2ECC71"/>
<path d="M242.18 219.18H234.48V226.81H242.18V219.18Z" fill="#28AF5F"/>
<path d="M242.18 211.48H234.48V219.18H242.18V211.48Z" fill="#28AF5F"/>
<path d="M242.18 203.85H234.48V211.48H242.18V203.85Z" fill="#28AF5F"/>
<path d="M242.18 173.19H234.48V180.82H242.18V173.19Z" fill="#298E52"/>
<path d="M242.18 165.49H234.48V173.19H242.18V165.49Z" fill="#28AF5F"/>
<path d="M242.18 157.78H234.48V165.48H242.18V157.78Z" fill="#28AF5F"/>
<path d="M242.18 150.16H234.48V157.79H242.18V150.16Z" fill="#298E52"/>
<path d="M242.18 142.45H234.48V150.15H242.18V142.45Z" fill="#298E52"/>
<path d="M242.18 134.83H234.48V142.46H242.18V134.83Z" fill="#298E52"/>
<path d="M242.18 127.12H234.48V134.82H242.18V127.12Z" fill="#4C2501"/>
<path d="M242.18 119.51H234.48V127.14H242.18V119.51Z" fill="#E5A870"/>
<path d="M242.18 111.8H234.48V119.5H242.18V111.8Z" fill="#E5A870"/>
<path d="M242.18 104.1H234.48V111.8H242.18V104.1Z" fill="#E5A870"/>
<path d="M234.48 318.86H226.85V326.56H234.48V318.86Z" fill="#28AF5F"/>
<path d="M234.48 311.23H226.85V318.86H234.48V311.23Z" fill="#28AF5F"/>
<path d="M234.48 303.53H226.85V311.23H234.48V303.53Z" fill="#2ECC71"/>
<path d="M234.48 295.9H226.85V303.53H234.48V295.9Z" fill="#28AF5F"/>
<path d="M234.48 288.2H226.85V295.9H234.48V288.2Z" fill="#28AF5F"/>
<path d="M234.48 280.49H226.85V288.19H234.48V280.49Z" fill="#2ECC71"/>
<path d="M234.48 272.87H226.85V280.5H234.48V272.87Z" fill="#2ECC71"/>
<path d="M234.48 265.16H226.85V272.86H234.48V265.16Z" fill="#2ECC71"/>
<path d="M234.48 257.53H226.85V265.16H234.48V257.53Z" fill="#2ECC71"/>
<path d="M234.48 249.83H226.85V257.53H234.48V249.83Z" fill="#2ECC71"/>
<path d="M234.48 242.22H226.85V249.85H234.48V242.22Z" fill="#2ECC71"/>
<path d="M234.48 234.5H226.85V242.2H234.48V234.5Z" fill="#2ECC71"/>
<path d="M234.48 226.8H226.85V234.5H234.48V226.8Z" fill="#2ECC71"/>
<path d="M234.48 219.18H226.85V226.81H234.48V219.18Z" fill="#2ECC71"/>
<path d="M234.48 211.48H226.85V219.18H234.48V211.48Z" fill="#2ECC71"/>
<path d="M234.48 203.85H226.85V211.48H234.48V203.85Z" fill="#2ECC71"/>
<path d="M234.48 196.15H226.85V203.85H234.48V196.15Z" fill="#298E52"/>
<path d="M234.48 188.52H226.85V196.15H234.48V188.52Z" fill="#025624"/>
<path d="M234.48 180.82H226.85V188.52H234.48V180.82Z" fill="#298E52"/>
<path d="M234.48 173.19H226.85V180.82H234.48V173.19Z" fill="#28AF5F"/>
<path d="M234.48 165.49H226.85V173.19H234.48V165.49Z" fill="#28AF5F"/>
<path d="M234.48 157.78H226.85V165.48H234.48V157.78Z" fill="#28AF5F"/>
<path d="M234.48 150.16H226.85V157.79H234.48V150.16Z" fill="#28AF5F"/>
<path d="M234.48 142.45H226.85V150.15H234.48V142.45Z" fill="#4C2501"/>
<path d="M234.48 134.83H226.85V142.46H234.48V134.83Z" fill="#4C2501"/>
<path d="M234.48 127.12H226.85V134.82H234.48V127.12Z" fill="#298E52"/>
<path d="M234.48 119.51H226.85V127.14H234.48V119.51Z" fill="#298E52"/>
<path d="M234.48 111.8H226.85V119.5H234.48V111.8Z" fill="#298E52"/>
<path d="M226.84 318.86H219.14V326.56H226.84V318.86Z" fill="#28AF5F"/>
<path d="M226.84 311.23H219.14V318.86H226.84V311.23Z" fill="#28AF5F"/>
<path d="M226.84 303.53H219.14V311.23H226.84V303.53Z" fill="#28AF5F"/>
<path d="M226.84 295.9H219.14V303.53H226.84V295.9Z" fill="#2ECC71"/>
<path d="M226.84 288.2H219.14V295.9H226.84V288.2Z" fill="#28AF5F"/>
<path d="M226.84 280.49H219.14V288.19H226.84V280.49Z" fill="#28AF5F"/>
<path d="M226.84 272.87H219.14V280.5H226.84V272.87Z" fill="#2ECC71"/>
<path d="M226.84 265.16H219.14V272.86H226.84V265.16Z" fill="#2ECC71"/>
<path d="M226.84 257.53H219.14V265.16H226.84V257.53Z" fill="#2ECC71"/>
<path d="M226.84 249.83H219.14V257.53H226.84V249.83Z" fill="#2ECC71"/>
<path d="M226.84 242.22H219.14V249.85H226.84V242.22Z" fill="#2ECC71"/>
<path d="M226.84 234.5H219.14V242.2H226.84V234.5Z" fill="#2ECC71"/>
<path d="M226.84 226.8H219.14V234.5H226.84V226.8Z" fill="#2ECC71"/>
<path d="M226.84 219.18H219.14V226.81H226.84V219.18Z" fill="#2ECC71"/>
<path d="M226.84 211.48H219.14V219.18H226.84V211.48Z" fill="#2ECC71"/>
<path d="M226.84 203.85H219.14V211.48H226.84V203.85Z" fill="#2ECC71"/>
<path d="M226.84 196.15H219.14V203.85H226.84V196.15Z" fill="#298E52"/>
<path d="M226.84 188.52H219.14V196.15H226.84V188.52Z" fill="#025624"/>
<path d="M226.84 180.82H219.14V188.52H226.84V180.82Z" fill="#28AF5F"/>
<path d="M226.84 173.19H219.14V180.82H226.84V173.19Z" fill="#28AF5F"/>
<path d="M226.84 165.49H219.14V173.19H226.84V165.49Z" fill="#2ECC71"/>
<path d="M226.84 157.78H219.14V165.48H226.84V157.78Z" fill="#28AF5F"/>
<path d="M226.84 150.16H219.14V157.79H226.84V150.16Z" fill="#28AF5F"/>
<path d="M226.84 142.45H219.14V150.15H226.84V142.45Z" fill="#28AF5F"/>
<path d="M226.84 134.83H219.14V142.46H226.84V134.83Z" fill="#298E52"/>
<path d="M226.84 127.12H219.14V134.82H226.84V127.12Z" fill="#2ECC71"/>
<path d="M226.84 119.51H219.14V127.14H226.84V119.51Z" fill="#28AF5F"/>
<path d="M226.84 111.8H219.14V119.5H226.84V111.8Z" fill="#298E52"/>
<path d="M226.84 96.4697H219.14V104.1H226.84V96.4697Z" fill="#5B5957"/>
<path d="M226.84 88.7695H219.14V96.4695H226.84V88.7695Z" fill="#878481"/>
<path d="M226.84 81.1396H219.14V88.7696H226.84V81.1396Z" fill="#878481"/>
<path d="M219.15 318.86H211.52V326.56H219.15V318.86Z" fill="#28AF5F"/>
<path d="M219.15 311.23H211.52V318.86H219.15V311.23Z" fill="#28AF5F"/>
<path d="M219.15 303.53H211.52V311.23H219.15V303.53Z" fill="#28AF5F"/>
<path d="M219.15 295.9H211.52V303.53H219.15V295.9Z" fill="#2ECC71"/>
<path d="M219.15 288.2H211.52V295.9H219.15V288.2Z" fill="#28AF5F"/>
<path d="M219.15 280.49H211.52V288.19H219.15V280.49Z" fill="#28AF5F"/>
<path d="M219.15 272.87H211.52V280.5H219.15V272.87Z" fill="#2ECC71"/>
<path d="M219.15 265.16H211.52V272.86H219.15V265.16Z" fill="#2ECC71"/>
<path d="M219.15 257.53H211.52V265.16H219.15V257.53Z" fill="#2ECC71"/>
<path d="M219.15 249.83H211.52V257.53H219.15V249.83Z" fill="#2ECC71"/>
<path d="M219.15 242.22H211.52V249.85H219.15V242.22Z" fill="#2ECC71"/>
<path d="M219.15 234.5H211.52V242.2H219.15V234.5Z" fill="#2ECC71"/>
<path d="M219.15 226.8H211.52V234.5H219.15V226.8Z" fill="#2ECC71"/>
<path d="M219.15 219.18H211.52V226.81H219.15V219.18Z" fill="#2ECC71"/>
<path d="M219.15 211.48H211.52V219.18H219.15V211.48Z" fill="#2ECC71"/>
<path d="M219.15 203.85H211.52V211.48H219.15V203.85Z" fill="#28AF5F"/>
<path d="M219.15 196.15H211.52V203.85H219.15V196.15Z" fill="#025624"/>
<path d="M219.15 188.52H211.52V196.15H219.15V188.52Z" fill="#298E52"/>
<path d="M219.15 180.82H211.52V188.52H219.15V180.82Z" fill="#28AF5F"/>
<path d="M219.15 173.19H211.52V180.82H219.15V173.19Z" fill="#2ECC71"/>
<path d="M219.15 165.49H211.52V173.19H219.15V165.49Z" fill="#2ECC71"/>
<path d="M219.15 157.78H211.52V165.48H219.15V157.78Z" fill="#2ECC71"/>
<path d="M219.15 150.16H211.52V157.79H219.15V150.16Z" fill="#28AF5F"/>
<path d="M219.15 142.45H211.52V150.15H219.15V142.45Z" fill="#28AF5F"/>
<path d="M219.15 134.83H211.52V142.46H219.15V134.83Z" fill="#28AF5F"/>
<path d="M219.15 127.12H211.52V134.82H219.15V127.12Z" fill="#2ECC71"/>
<path d="M219.15 119.51H211.52V127.14H219.15V119.51Z" fill="#2ECC71"/>
<path d="M219.15 111.8H211.52V119.5H219.15V111.8Z" fill="#28AF5F"/>
<path d="M219.15 104.1H211.52V111.8H219.15V104.1Z" fill="#EFAD65"/>
<path d="M219.15 96.4697H211.52V104.1H219.15V96.4697Z" fill="#5B5957"/>
<path d="M219.15 88.7695H211.52V96.4695H219.15V88.7695Z" fill="#878481"/>
<path d="M219.15 81.1396H211.52V88.7696H219.15V81.1396Z" fill="#878481"/>
<path d="M219.15 73.4404H211.52V81.1404H219.15V73.4404Z" fill="#EFAD65"/>
<path d="M211.51 318.86H203.81V326.56H211.51V318.86Z" fill="#28AF5F"/>
<path d="M211.51 311.23H203.81V318.86H211.51V311.23Z" fill="#28AF5F"/>
<path d="M211.51 303.53H203.81V311.23H211.51V303.53Z" fill="#28AF5F"/>
<path d="M211.51 295.9H203.81V303.53H211.51V295.9Z" fill="#28AF5F"/>
<path d="M211.51 288.2H203.81V295.9H211.51V288.2Z" fill="#2ECC71"/>
<path d="M211.51 280.49H203.81V288.19H211.51V280.49Z" fill="#28AF5F"/>
<path d="M211.51 272.87H203.81V280.5H211.51V272.87Z" fill="#28AF5F"/>
<path d="M211.51 265.16H203.81V272.86H211.51V265.16Z" fill="#2ECC71"/>
<path d="M211.51 257.53H203.81V265.16H211.51V257.53Z" fill="#025624"/>
<path d="M211.51 249.83H203.81V257.53H211.51V249.83Z" fill="#025624"/>
<path d="M211.51 242.22H203.81V249.85H211.51V242.22Z" fill="#025624"/>
<path d="M211.51 234.5H203.81V242.2H211.51V234.5Z" fill="#2ECC71"/>
<path d="M211.51 226.8H203.81V234.5H211.51V226.8Z" fill="#2ECC71"/>
<path d="M211.51 219.18H203.81V226.81H211.51V219.18Z" fill="#2ECC71"/>
<path d="M211.51 211.48H203.81V219.18H211.51V211.48Z" fill="#2ECC71"/>
<path d="M211.51 203.85H203.81V211.48H211.51V203.85Z" fill="#28AF5F"/>
<path d="M211.51 196.15H203.81V203.85H211.51V196.15Z" fill="#025624"/>
<path d="M211.51 188.52H203.81V196.15H211.51V188.52Z" fill="#28AF5F"/>
<path d="M211.51 180.82H203.81V188.52H211.51V180.82Z" fill="#28AF5F"/>
<path d="M211.51 173.19H203.81V180.82H211.51V173.19Z" fill="#28AF5F"/>
<path d="M211.51 165.49H203.81V173.19H211.51V165.49Z" fill="#28AF5F"/>
<path d="M211.51 157.78H203.81V165.48H211.51V157.78Z" fill="#2ECC71"/>
<path d="M211.51 150.16H203.81V157.79H211.51V150.16Z" fill="#2ECC71"/>
<path d="M211.51 142.45H203.81V150.15H211.51V142.45Z" fill="#2ECC71"/>
<path d="M211.51 134.83H203.81V142.46H211.51V134.83Z" fill="#2ECC71"/>
<path d="M211.51 127.12H203.81V134.82H211.51V127.12Z" fill="#2ECC71"/>
<path d="M211.51 119.51H203.81V127.14H211.51V119.51Z" fill="#28AF5F"/>
<path d="M211.51 111.8H203.81V119.5H211.51V111.8Z" fill="#EFAD65"/>
<path d="M211.51 104.1H203.81V111.8H211.51V104.1Z" fill="#EFAD65"/>
<path d="M211.51 96.4697H203.81V104.1H211.51V96.4697Z" fill="#EFAD65"/>
<path d="M211.51 88.7695H203.81V96.4695H211.51V88.7695Z" fill="#5B5957"/>
<path d="M211.51 81.1396H203.81V88.7696H211.51V81.1396Z" fill="#878481"/>
<path d="M211.51 73.4404H203.81V81.1404H211.51V73.4404Z" fill="#EFAD65"/>
<path d="M203.82 318.86H196.19V326.56H203.82V318.86Z" fill="#28AF5F"/>
<path d="M203.82 311.23H196.19V318.86H203.82V311.23Z" fill="#28AF5F"/>
<path d="M203.82 303.53H196.19V311.23H203.82V303.53Z" fill="#28AF5F"/>
<path d="M203.82 295.9H196.19V303.53H203.82V295.9Z" fill="#28AF5F"/>
<path d="M203.82 288.2H196.19V295.9H203.82V288.2Z" fill="#2ECC71"/>
<path d="M203.82 280.49H196.19V288.19H203.82V280.49Z" fill="#28AF5F"/>
<path d="M203.82 272.87H196.19V280.5H203.82V272.87Z" fill="#28AF5F"/>
<path d="M203.82 265.16H196.19V272.86H203.82V265.16Z" fill="#2ECC71"/>
<path d="M203.82 257.53H196.19V265.16H203.82V257.53Z" fill="#2ECC71"/>
<path d="M203.82 249.83H196.19V257.53H203.82V249.83Z" fill="#2ECC71"/>
<path d="M203.82 242.22H196.19V249.85H203.82V242.22Z" fill="#2ECC71"/>
<path d="M203.82 234.5H196.19V242.2H203.82V234.5Z" fill="#025624"/>
<path d="M203.82 226.8H196.19V234.5H203.82V226.8Z" fill="#025624"/>
<path d="M203.82 219.18H196.19V226.81H203.82V219.18Z" fill="#025624"/>
<path d="M203.82 211.48H196.19V219.18H203.82V211.48Z" fill="#025624"/>
<path d="M203.82 203.85H196.19V211.48H203.82V203.85Z" fill="#28AF5F"/>
<path d="M203.82 196.15H196.19V203.85H203.82V196.15Z" fill="#025624"/>
<path d="M203.82 188.52H196.19V196.15H203.82V188.52Z" fill="#28AF5F"/>
<path d="M203.82 180.82H196.19V188.52H203.82V180.82Z" fill="#28AF5F"/>
<path d="M203.82 173.19H196.19V180.82H203.82V173.19Z" fill="#28AF5F"/>
<path d="M203.82 165.49H196.19V173.19H203.82V165.49Z" fill="#28AF5F"/>
<path d="M203.82 157.78H196.19V165.48H203.82V157.78Z" fill="#28AF5F"/>
<path d="M203.82 150.16H196.19V157.79H203.82V150.16Z" fill="#2ECC71"/>
<path d="M203.82 142.45H196.19V150.15H203.82V142.45Z" fill="#2ECC71"/>
<path d="M203.82 134.83H196.19V142.46H203.82V134.83Z" fill="#2ECC71"/>
<path d="M203.82 127.12H196.19V134.82H203.82V127.12Z" fill="#2ECC71"/>
<path d="M203.82 119.51H196.19V127.14H203.82V119.51Z" fill="#28AF5F"/>
<path d="M203.82 111.8H196.19V119.5H203.82V111.8Z" fill="#EFAD65"/>
<path d="M203.82 104.1H196.19V111.8H203.82V104.1Z" fill="#EFAD65"/>
<path d="M203.82 96.4697H196.19V104.1H203.82V96.4697Z" fill="#EFAD65"/>
<path d="M203.82 88.7695H196.19V96.4695H203.82V88.7695Z" fill="#EFAD65"/>
<path d="M203.82 81.1396H196.19V88.7696H203.82V81.1396Z" fill="#EFAD65"/>
<path d="M203.82 73.4404H196.19V81.1404H203.82V73.4404Z" fill="#EFAD65"/>
<path d="M196.18 318.86H188.48V326.56H196.18V318.86Z" fill="#28AF5F"/>
<path d="M196.18 311.23H188.48V318.86H196.18V311.23Z" fill="#28AF5F"/>
<path d="M196.18 303.53H188.48V311.23H196.18V303.53Z" fill="#28AF5F"/>
<path d="M196.18 295.9H188.48V303.53H196.18V295.9Z" fill="#28AF5F"/>
<path d="M196.18 288.2H188.48V295.9H196.18V288.2Z" fill="#28AF5F"/>
<path d="M196.18 280.49H188.48V288.19H196.18V280.49Z" fill="#2ECC71"/>
<path d="M196.18 272.87H188.48V280.5H196.18V272.87Z" fill="#28AF5F"/>
<path d="M196.18 265.16H188.48V272.86H196.18V265.16Z" fill="#2ECC71"/>
<path d="M196.18 257.53H188.48V265.16H196.18V257.53Z" fill="#2ECC71"/>
<path d="M196.18 249.83H188.48V257.53H196.18V249.83Z" fill="#2ECC71"/>
<path d="M196.18 242.22H188.48V249.85H196.18V242.22Z" fill="#2ECC71"/>
<path d="M196.18 234.5H188.48V242.2H196.18V234.5Z" fill="#2ECC71"/>
<path d="M196.18 226.8H188.48V234.5H196.18V226.8Z" fill="#2ECC71"/>
<path d="M196.18 219.18H188.48V226.81H196.18V219.18Z" fill="#2ECC71"/>
<path d="M196.18 211.48H188.48V219.18H196.18V211.48Z" fill="#28AF5F"/>
<path d="M196.18 203.85H188.48V211.48H196.18V203.85Z" fill="#025624"/>
<path d="M196.18 196.15H188.48V203.85H196.18V196.15Z" fill="#025624"/>
<path d="M196.18 188.52H188.48V196.15H196.18V188.52Z" fill="#28AF5F"/>
<path d="M196.18 180.82H188.48V188.52H196.18V180.82Z" fill="#28AF5F"/>
<path d="M196.18 173.19H188.48V180.82H196.18V173.19Z" fill="#28AF5F"/>
<path d="M196.18 165.49H188.48V173.19H196.18V165.49Z" fill="#28AF5F"/>
<path d="M196.18 157.78H188.48V165.48H196.18V157.78Z" fill="#28AF5F"/>
<path d="M196.18 150.16H188.48V157.79H196.18V150.16Z" fill="#28AF5F"/>
<path d="M196.18 142.45H188.48V150.15H196.18V142.45Z" fill="#2ECC71"/>
<path d="M196.18 134.83H188.48V142.46H196.18V134.83Z" fill="#2ECC71"/>
<path d="M196.18 127.12H188.48V134.82H196.18V127.12Z" fill="#2ECC71"/>
<path d="M196.18 119.51H188.48V127.14H196.18V119.51Z" fill="#28AF5F"/>
<path d="M196.18 111.8H188.48V119.5H196.18V111.8Z" fill="#EFAD65"/>
<path d="M196.18 104.1H188.48V111.8H196.18V104.1Z" fill="#EFAD65"/>
<path d="M196.18 96.4697H188.48V104.1H196.18V96.4697Z" fill="#EFAD65"/>
<path d="M196.18 88.7695H188.48V96.4695H196.18V88.7695Z" fill="#EFAD65"/>
<path d="M196.18 81.1396H188.48V88.7696H196.18V81.1396Z" fill="#EFAD65"/>
<path d="M196.18 73.4404H188.48V81.1404H196.18V73.4404Z" fill="#EFAD65"/>
<path d="M188.48 318.86H180.78V326.56H188.48V318.86Z" fill="#28AF5F"/>
<path d="M188.48 311.23H180.78V318.86H188.48V311.23Z" fill="#28AF5F"/>
<path d="M188.48 303.53H180.78V311.23H188.48V303.53Z" fill="#28AF5F"/>
<path d="M188.48 295.9H180.78V303.53H188.48V295.9Z" fill="#28AF5F"/>
<path d="M188.48 288.2H180.78V295.9H188.48V288.2Z" fill="#28AF5F"/>
<path d="M188.48 280.49H180.78V288.19H188.48V280.49Z" fill="#2ECC71"/>
<path d="M188.48 272.87H180.78V280.5H188.48V272.87Z" fill="#28AF5F"/>
<path d="M188.48 265.16H180.78V272.86H188.48V265.16Z" fill="#2ECC71"/>
<path d="M188.48 257.53H180.78V265.16H188.48V257.53Z" fill="#025624"/>
<path d="M188.48 249.83H180.78V257.53H188.48V249.83Z" fill="#025624"/>
<path d="M188.48 242.22H180.78V249.85H188.48V242.22Z" fill="#025624"/>
<path d="M188.48 234.5H180.78V242.2H188.48V234.5Z" fill="#025624"/>
<path d="M188.48 226.8H180.78V234.5H188.48V226.8Z" fill="#025624"/>
<path d="M188.48 219.18H180.78V226.81H188.48V219.18Z" fill="#025624"/>
<path d="M188.48 211.48H180.78V219.18H188.48V211.48Z" fill="#025624"/>
<path d="M188.48 203.85H180.78V211.48H188.48V203.85Z" fill="#28AF5F"/>
<path d="M188.48 196.15H180.78V203.85H188.48V196.15Z" fill="#28AF5F"/>
<path d="M188.48 188.52H180.78V196.15H188.48V188.52Z" fill="#025624"/>
<path d="M188.48 180.82H180.78V188.52H188.48V180.82Z" fill="#2ECC71"/>
<path d="M188.48 173.19H180.78V180.82H188.48V173.19Z" fill="#2ECC71"/>
<path d="M188.48 165.49H180.78V173.19H188.48V165.49Z" fill="#2ECC71"/>
<path d="M188.48 157.78H180.78V165.48H188.48V157.78Z" fill="#2ECC71"/>
<path d="M188.48 150.16H180.78V157.79H188.48V150.16Z" fill="#2ECC71"/>
<path d="M188.48 142.45H180.78V150.15H188.48V142.45Z" fill="#2ECC71"/>
<path d="M188.48 134.83H180.78V142.46H188.48V134.83Z" fill="#2ECC71"/>
<path d="M188.48 127.12H180.78V134.82H188.48V127.12Z" fill="#28AF5F"/>
<path d="M188.48 119.51H180.78V127.14H188.48V119.51Z" fill="#28AF5F"/>
<path d="M188.48 111.8H180.78V119.5H188.48V111.8Z" fill="#EFAD65"/>
<path d="M188.48 104.1H180.78V111.8H188.48V104.1Z" fill="#EA8634"/>
<path d="M188.48 96.4697H180.78V104.1H188.48V96.4697Z" fill="#EA8634"/>
<path d="M188.48 88.7695H180.78V96.4695H188.48V88.7695Z" fill="#EFAD65"/>
<path d="M188.48 81.1396H180.78V88.7696H188.48V81.1396Z" fill="#EFAD65"/>
<path d="M180.78 318.86H173.15V326.56H180.78V318.86Z" fill="#28AF5F"/>
<path d="M180.78 311.23H173.15V318.86H180.78V311.23Z" fill="#28AF5F"/>
<path d="M180.78 303.53H173.15V311.23H180.78V303.53Z" fill="#28AF5F"/>
<path d="M180.78 295.9H173.15V303.53H180.78V295.9Z" fill="#28AF5F"/>
<path d="M180.78 288.2H173.15V295.9H180.78V288.2Z" fill="#28AF5F"/>
<path d="M180.78 280.49H173.15V288.19H180.78V280.49Z" fill="#28AF5F"/>
<path d="M180.78 272.87H173.15V280.5H180.78V272.87Z" fill="#28AF5F"/>
<path d="M180.78 265.16H173.15V272.86H180.78V265.16Z" fill="#28AF5F"/>
<path d="M180.78 257.53H173.15V265.16H180.78V257.53Z" fill="#28AF5F"/>
<path d="M180.78 249.83H173.15V257.53H180.78V249.83Z" fill="#2ECC71"/>
<path d="M180.78 242.22H173.15V249.85H180.78V242.22Z" fill="#2ECC71"/>
<path d="M180.78 234.5H173.15V242.2H180.78V234.5Z" fill="#2ECC71"/>
<path d="M180.78 226.8H173.15V234.5H180.78V226.8Z" fill="#2ECC71"/>
<path d="M180.78 219.18H173.15V226.81H180.78V219.18Z" fill="#28AF5F"/>
<path d="M180.78 180.82H173.15V188.52H180.78V180.82Z" fill="#28AF5F"/>
<path d="M180.78 173.19H173.15V180.82H180.78V173.19Z" fill="#2ECC71"/>
<path d="M180.78 165.49H173.15V173.19H180.78V165.49Z" fill="#2ECC71"/>
<path d="M180.78 157.78H173.15V165.48H180.78V157.78Z" fill="#2ECC71"/>
<path d="M180.78 150.16H173.15V157.79H180.78V150.16Z" fill="#28AF5F"/>
<path d="M180.78 142.45H173.15V150.15H180.78V142.45Z" fill="#28AF5F"/>
<path d="M180.78 134.83H173.15V142.46H180.78V134.83Z" fill="#28AF5F"/>
<path d="M173.15 318.86H165.45V326.56H173.15V318.86Z" fill="#28AF5F"/>
<path d="M173.15 311.23H165.45V318.86H173.15V311.23Z" fill="#28AF5F"/>
<path d="M173.15 303.53H165.45V311.23H173.15V303.53Z" fill="#28AF5F"/>
<path d="M173.15 295.9H165.45V303.53H173.15V295.9Z" fill="#28AF5F"/>
<path d="M173.15 288.2H165.45V295.9H173.15V288.2Z" fill="#28AF5F"/>
<path d="M173.15 280.49H165.45V288.19H173.15V280.49Z" fill="#28AF5F"/>
<path d="M173.15 272.87H165.45V280.5H173.15V272.87Z" fill="#2ECC71"/>
<path d="M173.15 265.16H165.45V272.86H173.15V265.16Z" fill="#2ECC71"/>
<path d="M173.15 257.53H165.45V265.16H173.15V257.53Z" fill="#2ECC71"/>
<path d="M173.15 249.83H165.45V257.53H173.15V249.83Z" fill="#2ECC71"/>
<path d="M173.15 242.22H165.45V249.85H173.15V242.22Z" fill="#2ECC71"/>
<path d="M173.15 234.5H165.45V242.2H173.15V234.5Z" fill="#28AF5F"/>
<path d="M173.15 226.8H165.45V234.5H173.15V226.8Z" fill="#28AF5F"/>
<path d="M173.15 180.82H165.45V188.52H173.15V180.82Z" fill="#28AF5F"/>
<path d="M173.15 173.19H165.45V180.82H173.15V173.19Z" fill="#28AF5F"/>
<path d="M173.15 165.49H165.45V173.19H173.15V165.49Z" fill="#28AF5F"/>
<path d="M173.15 157.78H165.45V165.48H173.15V157.78Z" fill="#28AF5F"/>
<path d="M173.15 150.16H165.45V157.79H173.15V150.16Z" fill="#28AF5F"/>
<path d="M165.45 318.86H157.82V326.56H165.45V318.86Z" fill="#28AF5F"/>
<path d="M165.45 311.23H157.82V318.86H165.45V311.23Z" fill="#2ECC71"/>
<path d="M165.45 303.53H157.82V311.23H165.45V303.53Z" fill="#2ECC71"/>
<path d="M165.45 295.9H157.82V303.53H165.45V295.9Z" fill="#2ECC71"/>
<path d="M165.45 288.2H157.82V295.9H165.45V288.2Z" fill="#2ECC71"/>
<path d="M165.45 280.49H157.82V288.19H165.45V280.49Z" fill="#2ECC71"/>
<path d="M165.45 272.87H157.82V280.5H165.45V272.87Z" fill="#2ECC71"/>
<path d="M165.45 265.16H157.82V272.86H165.45V265.16Z" fill="#2ECC71"/>
<path d="M165.45 257.53H157.82V265.16H165.45V257.53Z" fill="#28AF5F"/>
<path d="M165.45 249.83H157.82V257.53H165.45V249.83Z" fill="#28AF5F"/>
<path d="M165.45 242.22H157.82V249.85H165.45V242.22Z" fill="#28AF5F"/>
<path d="M165.45 188.52H157.82V196.15H165.45V188.52Z" fill="#28AF5F"/>
<path d="M165.45 180.82H157.82V188.52H165.45V180.82Z" fill="#28AF5F"/>
<path d="M165.45 173.19H157.82V180.82H165.45V173.19Z" fill="#28AF5F"/>
<path d="M165.45 165.49H157.82V173.19H165.45V165.49Z" fill="#28AF5F"/>
<path d="M157.82 318.86H150.12V326.56H157.82V318.86Z" fill="#28AF5F"/>
<path d="M157.82 311.23H150.12V318.86H157.82V311.23Z" fill="#28AF5F"/>
<path d="M157.82 303.53H150.12V311.23H157.82V303.53Z" fill="#28AF5F"/>
<path d="M157.82 295.9H150.12V303.53H157.82V295.9Z" fill="#28AF5F"/>
<path d="M157.82 288.2H150.12V295.9H157.82V288.2Z" fill="#28AF5F"/>
<path d="M157.82 280.49H150.12V288.19H157.82V280.49Z" fill="#28AF5F"/>
<path d="M157.82 272.87H150.12V280.5H157.82V272.87Z" fill="#28AF5F"/>
<path d="M157.82 265.16H150.12V272.86H157.82V265.16Z" fill="#28AF5F"/>
<path d="M157.82 257.53H150.12V265.16H157.82V257.53Z" fill="#28AF5F"/>
<path d="M157.82 188.52H150.12V196.15H157.82V188.52Z" fill="#EFAD65"/>
<path d="M157.82 180.82H150.12V188.52H157.82V180.82Z" fill="#EFAD65"/>
<path d="M157.82 173.19H150.12V180.82H157.82V173.19Z" fill="#EFAD65"/>
<path d="M157.82 165.49H150.12V173.19H157.82V165.49Z" fill="#28AF5F"/>
<path d="M150.13 188.52H142.5V196.15H150.13V188.52Z" fill="#EFAD65"/>
<path d="M150.13 180.82H142.5V188.52H150.13V180.82Z" fill="#EFAD65"/>
<path d="M150.13 173.19H142.5V180.82H150.13V173.19Z" fill="#EFAD65"/>
<path d="M142.5 180.82H134.8V188.52H142.5V180.82Z" fill="#EFAD65"/>
<path d="M142.5 173.19H134.8V180.82H142.5V173.19Z" fill="#EFAD65"/>
<path d="M142.5 165.49H134.8V173.19H142.5V165.49Z" fill="#EFAD65"/>
<path d="M142.5 104.1H134.8V111.8H142.5V104.1Z" fill="#5E320A"/>
<path d="M142.5 96.4697H134.8V104.1H142.5V96.4697Z" fill="#5E320A"/>
<path d="M142.5 88.7695H134.8V96.4695H142.5V88.7695Z" fill="#5E320A"/>
<path d="M142.5 81.1396H134.8V88.7696H142.5V81.1396Z" fill="#5E320A"/>
<path d="M134.8 295.9H127.1V303.53H134.8V295.9Z" fill="#492807"/>
<path d="M134.8 288.2H127.1V295.9H134.8V288.2Z" fill="#492807"/>
<path d="M134.8 280.49H127.1V288.19H134.8V280.49Z" fill="#492807"/>
<path d="M134.8 272.87H127.1V280.5H134.8V272.87Z" fill="#492807"/>
<path d="M134.8 265.16H127.1V272.86H134.8V265.16Z" fill="#492807"/>
<path d="M134.8 257.53H127.1V265.16H134.8V257.53Z" fill="#492807"/>
<path d="M134.8 249.83H127.1V257.53H134.8V249.83Z" fill="#492807"/>
<path d="M134.8 242.22H127.1V249.85H134.8V242.22Z" fill="#492807"/>
<path d="M134.8 234.5H127.1V242.2H134.8V234.5Z" fill="#492807"/>
<path d="M134.8 226.8H127.1V234.5H134.8V226.8Z" fill="#492807"/>
<path d="M134.8 219.18H127.1V226.81H134.8V219.18Z" fill="#492807"/>
<path d="M134.8 211.48H127.1V219.18H134.8V211.48Z" fill="#492807"/>
<path d="M134.8 203.85H127.1V211.48H134.8V203.85Z" fill="#492807"/>
<path d="M134.8 196.15H127.1V203.85H134.8V196.15Z" fill="#492807"/>
<path d="M134.8 188.52H127.1V196.15H134.8V188.52Z" fill="#492807"/>
<path d="M134.8 180.82H127.1V188.52H134.8V180.82Z" fill="#EFAD65"/>
<path d="M134.8 173.19H127.1V180.82H134.8V173.19Z" fill="#EFAD65"/>
<path d="M134.8 165.49H127.1V173.19H134.8V165.49Z" fill="#EFAD65"/>
<path d="M134.8 157.78H127.1V165.48H134.8V157.78Z" fill="#492807"/>
<path d="M134.8 150.16H127.1V157.79H134.8V150.16Z" fill="#492807"/>
<path d="M134.8 142.45H127.1V150.15H134.8V142.45Z" fill="#492807"/>
<path d="M134.8 134.83H127.1V142.46H134.8V134.83Z" fill="#492807"/>
<path d="M134.8 127.12H127.1V134.82H134.8V127.12Z" fill="#492807"/>
<path d="M134.8 119.51H127.1V127.14H134.8V119.51Z" fill="#492807"/>
<path d="M134.8 111.8H127.1V119.5H134.8V111.8Z" fill="#492807"/>
<path d="M134.8 104.1H127.1V111.8H134.8V104.1Z" fill="#5E320A"/>
<path d="M134.8 96.4697H127.1V104.1H134.8V96.4697Z" fill="#723B0E"/>
<path d="M134.8 88.7695H127.1V96.4695H134.8V88.7695Z" fill="#723B0E"/>
<path d="M127.1 173.19H119.47V180.82H127.1V173.19Z" fill="#EFAD65"/>
<path d="M127.1 165.49H119.47V173.19H127.1V165.49Z" fill="#EFAD65"/>
<path d="M127.1 111.8H119.47V119.5H127.1V111.8Z" fill="#5E320A"/>
<path d="M127.1 104.1H119.47V111.8H127.1V104.1Z" fill="#723B0E"/>
<path d="M127.1 96.4697H119.47V104.1H127.1V96.4697Z" fill="#84400D"/>
</svg>
