<svg width="400" height="400" viewBox="0 0 400 400" fill="none" xmlns="http://www.w3.org/2000/svg">
<path d="M200 385.78C302.603 385.78 385.78 302.603 385.78 200C385.78 97.3963 302.603 14.2197 200 14.2197C97.3965 14.2197 14.22 97.3963 14.22 200C14.22 302.603 97.3965 385.78 200 385.78Z" fill="black"/>
<path d="M200 392.78C93.7 392.78 7.21997 306.3 7.21997 200C7.21997 93.6997 93.7 7.21973 200 7.21973C306.3 7.21973 392.78 93.6997 392.78 200C392.78 306.3 306.3 392.78 200 392.78ZM200 21.2197C101.42 21.2197 21.22 101.42 21.22 200C21.22 298.58 101.42 378.78 200 378.78C298.58 378.78 378.78 298.58 378.78 200C378.78 101.42 298.58 21.2197 200 21.2197Z" fill="#FFEF56"/>
<path d="M286.71 314.601H279.13V322.111H286.71V314.601Z" fill="black"/>
<path d="M286.71 307.011H279.13V314.601H286.71V307.011Z" fill="black"/>
<path d="M286.71 299.5H279.13V307.01H286.71V299.5Z" fill="black"/>
<path d="M286.71 291.91H279.13V299.5H286.71V291.91Z" fill="black"/>
<path d="M279.12 314.601H271.6V322.111H279.12V314.601Z" fill="black"/>
<path d="M279.12 307.011H271.6V314.601H279.12V307.011Z" fill="#EAD32D"/>
<path d="M279.12 299.5H271.6V307.01H279.12V299.5Z" fill="#EAD32D"/>
<path d="M279.12 291.91H271.6V299.5H279.12V291.91Z" fill="black"/>
<path d="M279.12 284.33H271.6V291.91H279.12V284.33Z" fill="black"/>
<path d="M279.12 276.801H271.6V284.321H279.12V276.801Z" fill="black"/>
<path d="M271.61 314.601H264.03V322.111H271.61V314.601Z" fill="black"/>
<path d="M271.61 307.011H264.03V314.601H271.61V307.011Z" fill="#FFEF56"/>
<path d="M271.61 299.5H264.03V307.01H271.61V299.5Z" fill="#EAD32D"/>
<path d="M271.61 291.91H264.03V299.5H271.61V291.91Z" fill="#EAD32D"/>
<path d="M271.61 284.33H264.03V291.91H271.61V284.33Z" fill="#EAD32D"/>
<path d="M271.61 276.801H264.03V284.321H271.61V276.801Z" fill="black"/>
<path d="M271.61 269.23H264.03V276.81H271.61V269.23Z" fill="black"/>
<path d="M271.61 261.71H264.03V269.22H271.61V261.71Z" fill="black"/>
<path d="M271.61 254.12H264.03V261.71H271.61V254.12Z" fill="black"/>
<path d="M271.61 246.61H264.03V254.12H271.61V246.61Z" fill="black"/>
<path d="M271.61 239.021H264.03V246.611H271.61V239.021Z" fill="black"/>
<path d="M271.61 231.44H264.03V239.02H271.61V231.44Z" fill="black"/>
<path d="M271.61 223.92H264.03V231.43H271.61V223.92Z" fill="black"/>
<path d="M271.61 216.33H264.03V223.92H271.61V216.33Z" fill="black"/>
<path d="M271.61 208.811H264.03V216.321H271.61V208.811Z" fill="black"/>
<path d="M271.61 201.221H264.03V208.811H271.61V201.221Z" fill="black"/>
<path d="M271.61 193.71H264.03V201.22H271.61V193.71Z" fill="black"/>
<path d="M271.61 186.12H264.03V193.71H271.61V186.12Z" fill="black"/>
<path d="M271.61 178.61H264.03V186.12H271.61V178.61Z" fill="black"/>
<path d="M271.61 171.021H264.03V178.611H271.61V171.021Z" fill="black"/>
<path d="M271.61 163.431H264.03V171.021H271.61V163.431Z" fill="black"/>
<path d="M271.61 155.92H264.03V163.43H271.61V155.92Z" fill="black"/>
<path d="M271.61 148.33H264.03V155.92H271.61V148.33Z" fill="black"/>
<path d="M264.02 314.601H256.51V322.111H264.02V314.601Z" fill="black"/>
<path d="M264.02 307.011H256.51V314.601H264.02V307.011Z" fill="#FFEF56"/>
<path d="M264.02 299.5H256.51V307.01H264.02V299.5Z" fill="#FFEF56"/>
<path d="M264.02 291.91H256.51V299.5H264.02V291.91Z" fill="#EAD32D"/>
<path d="M264.02 284.33H256.51V291.91H264.02V284.33Z" fill="#EAD32D"/>
<path d="M264.02 276.801H256.51V284.321H264.02V276.801Z" fill="#EAD32D"/>
<path d="M264.02 269.23H256.51V276.81H264.02V269.23Z" fill="#EAD32D"/>
<path d="M264.02 261.71H256.51V269.22H264.02V261.71Z" fill="#EAD32D"/>
<path d="M264.02 254.12H256.51V261.71H264.02V254.12Z" fill="black"/>
<path d="M264.02 246.61H256.51V254.12H264.02V246.61Z" fill="black"/>
<path d="M264.02 239.021H256.51V246.611H264.02V239.021Z" fill="black"/>
<path d="M264.02 231.44H256.51V239.02H264.02V231.44Z" fill="#FFEF56"/>
<path d="M264.02 223.92H256.51V231.43H264.02V223.92Z" fill="#FFEF56"/>
<path d="M264.02 216.33H256.51V223.92H264.02V216.33Z" fill="#FFEF56"/>
<path d="M264.02 208.811H256.51V216.321H264.02V208.811Z" fill="#FFEF56"/>
<path d="M264.02 201.221H256.51V208.811H264.02V201.221Z" fill="#FFEF56"/>
<path d="M264.02 193.71H256.51V201.22H264.02V193.71Z" fill="#FFEF56"/>
<path d="M264.02 186.12H256.51V193.71H264.02V186.12Z" fill="#FFEF56"/>
<path d="M264.02 178.61H256.51V186.12H264.02V178.61Z" fill="#EAD32D"/>
<path d="M264.02 171.021H256.51V178.611H264.02V171.021Z" fill="#EAD32D"/>
<path d="M264.02 163.431H256.51V171.021H264.02V163.431Z" fill="#EAD32D"/>
<path d="M264.02 155.92H256.51V163.43H264.02V155.92Z" fill="#EAD32D"/>
<path d="M264.02 148.33H256.51V155.92H264.02V148.33Z" fill="black"/>
<path d="M264.02 140.82H256.51V148.33H264.02V140.82Z" fill="black"/>
<path d="M256.51 314.601H248.92V322.111H256.51V314.601Z" fill="black"/>
<path d="M256.51 307.011H248.92V314.601H256.51V307.011Z" fill="#FFEF56"/>
<path d="M256.51 299.5H248.92V307.01H256.51V299.5Z" fill="#FFEF56"/>
<path d="M256.51 291.91H248.92V299.5H256.51V291.91Z" fill="#FFEF56"/>
<path d="M256.51 284.33H248.92V291.91H256.51V284.33Z" fill="#FFEF56"/>
<path d="M256.51 276.801H248.92V284.321H256.51V276.801Z" fill="#FFEF56"/>
<path d="M256.51 269.23H248.92V276.81H256.51V269.23Z" fill="#EAD32D"/>
<path d="M256.51 261.71H248.92V269.22H256.51V261.71Z" fill="black"/>
<path d="M256.51 254.12H248.92V261.71H256.51V254.12Z" fill="#00F3FF"/>
<path d="M256.51 246.61H248.92V254.12H256.51V246.61Z" fill="#2CF926"/>
<path d="M256.51 239.021H248.92V246.611H256.51V239.021Z" fill="#2CF926"/>
<path d="M256.51 231.44H248.92V239.02H256.51V231.44Z" fill="black"/>
<path d="M256.51 223.92H248.92V231.43H256.51V223.92Z" fill="#FFEF56"/>
<path d="M256.51 216.33H248.92V223.92H256.51V216.33Z" fill="black"/>
<path d="M256.51 208.811H248.92V216.321H256.51V208.811Z" fill="black"/>
<path d="M256.51 201.221H248.92V208.811H256.51V201.221Z" fill="black"/>
<path d="M256.51 193.71H248.92V201.22H256.51V193.71Z" fill="#FFEF56"/>
<path d="M256.51 186.12H248.92V193.71H256.51V186.12Z" fill="#FFEF56"/>
<path d="M256.51 178.61H248.92V186.12H256.51V178.61Z" fill="#FFEF56"/>
<path d="M256.51 171.021H248.92V178.611H256.51V171.021Z" fill="#FFEF56"/>
<path d="M256.51 163.431H248.92V171.021H256.51V163.431Z" fill="#FFEF56"/>
<path d="M256.51 155.92H248.92V163.43H256.51V155.92Z" fill="#EAD32D"/>
<path d="M256.51 148.33H248.92V155.92H256.51V148.33Z" fill="#EAD32D"/>
<path d="M256.51 140.82H248.92V148.33H256.51V140.82Z" fill="black"/>
<path d="M256.51 133.23H248.92V140.82H256.51V133.23Z" fill="black"/>
<path d="M248.92 314.601H241.41V322.111H248.92V314.601Z" fill="black"/>
<path d="M248.92 307.011H241.41V314.601H248.92V307.011Z" fill="#FFEF56"/>
<path d="M248.92 299.5H241.41V307.01H248.92V299.5Z" fill="#FFEF56"/>
<path d="M248.92 291.91H241.41V299.5H248.92V291.91Z" fill="#FFEF56"/>
<path d="M248.92 284.33H241.41V291.91H248.92V284.33Z" fill="#FFEF56"/>
<path d="M248.92 276.801H241.41V284.321H248.92V276.801Z" fill="#FFEF56"/>
<path d="M248.92 269.23H241.41V276.81H248.92V269.23Z" fill="#FFEF56"/>
<path d="M248.92 261.71H241.41V269.22H248.92V261.71Z" fill="black"/>
<path d="M248.92 254.12H241.41V261.71H248.92V254.12Z" fill="#2CF926"/>
<path d="M248.92 246.61H241.41V254.12H248.92V246.61Z" fill="#00F3FF"/>
<path d="M248.92 239.021H241.41V246.611H248.92V239.021Z" fill="#00F3FF"/>
<path d="M248.92 231.44H241.41V239.02H248.92V231.44Z" fill="#EFE4A3"/>
<path d="M248.92 223.92H241.41V231.43H248.92V223.92Z" fill="black"/>
<path d="M248.92 216.33H241.41V223.92H248.92V216.33Z" fill="#F9C6AA"/>
<path d="M248.92 208.811H241.41V216.321H248.92V208.811Z" fill="#F9C6AA"/>
<path d="M248.92 201.221H241.41V208.811H248.92V201.221Z" fill="#DDA487"/>
<path d="M248.92 193.71H241.41V201.22H248.92V193.71Z" fill="black"/>
<path d="M248.92 186.12H241.41V193.71H248.92V186.12Z" fill="#FFEF56"/>
<path d="M248.92 178.61H241.41V186.12H248.92V178.61Z" fill="#FFEF56"/>
<path d="M248.92 171.021H241.41V178.611H248.92V171.021Z" fill="#FFEF56"/>
<path d="M248.92 163.431H241.41V171.021H248.92V163.431Z" fill="#FFEF56"/>
<path d="M248.92 155.92H241.41V163.43H248.92V155.92Z" fill="#FFEF56"/>
<path d="M248.92 148.33H241.41V155.92H248.92V148.33Z" fill="#EAD32D"/>
<path d="M248.92 140.82H241.41V148.33H248.92V140.82Z" fill="#EAD32D"/>
<path d="M248.92 133.23H241.41V140.82H248.92V133.23Z" fill="black"/>
<path d="M248.92 125.721H241.41V133.231H248.92V125.721Z" fill="black"/>
<path d="M241.41 314.601H233.82V322.111H241.41V314.601Z" fill="black"/>
<path d="M241.41 307.011H233.82V314.601H241.41V307.011Z" fill="#EAD32D"/>
<path d="M241.41 299.5H233.82V307.01H241.41V299.5Z" fill="#FFEF56"/>
<path d="M241.41 291.91H233.82V299.5H241.41V291.91Z" fill="#FFEF56"/>
<path d="M241.41 284.33H233.82V291.91H241.41V284.33Z" fill="#FFEF56"/>
<path d="M241.41 276.801H233.82V284.321H241.41V276.801Z" fill="#FFEF56"/>
<path d="M241.41 269.23H233.82V276.81H241.41V269.23Z" fill="#FFEF56"/>
<path d="M241.41 261.71H233.82V269.22H241.41V261.71Z" fill="black"/>
<path d="M241.41 254.12H233.82V261.71H241.41V254.12Z" fill="#00F3FF"/>
<path d="M241.41 246.61H233.82V254.12H241.41V246.61Z" fill="#2CF926"/>
<path d="M241.41 239.021H233.82V246.611H241.41V239.021Z" fill="#2CF926"/>
<path d="M241.41 231.44H233.82V239.02H241.41V231.44Z" fill="#EFE4A3"/>
<path d="M241.41 223.92H233.82V231.43H241.41V223.92Z" fill="black"/>
<path d="M241.41 216.33H233.82V223.92H241.41V216.33Z" fill="#DDA487"/>
<path d="M241.41 208.811H233.82V216.321H241.41V208.811Z" fill="#F9C6AA"/>
<path d="M241.41 201.221H233.82V208.811H241.41V201.221Z" fill="#F9C6AA"/>
<path d="M241.41 193.71H233.82V201.22H241.41V193.71Z" fill="#DDA487"/>
<path d="M241.41 186.12H233.82V193.71H241.41V186.12Z" fill="black"/>
<path d="M241.41 178.61H233.82V186.12H241.41V178.61Z" fill="#FFEF56"/>
<path d="M241.41 171.021H233.82V178.611H241.41V171.021Z" fill="#FFEF56"/>
<path d="M241.41 163.431H233.82V171.021H241.41V163.431Z" fill="#FFEF56"/>
<path d="M241.41 155.92H233.82V163.43H241.41V155.92Z" fill="#FFEF56"/>
<path d="M241.41 148.33H233.82V155.92H241.41V148.33Z" fill="#FFEF56"/>
<path d="M241.41 140.82H233.82V148.33H241.41V140.82Z" fill="#EAD32D"/>
<path d="M241.41 133.23H233.82V140.82H241.41V133.23Z" fill="#EAD32D"/>
<path d="M241.41 125.721H233.82V133.231H241.41V125.721Z" fill="black"/>
<path d="M241.41 118.13H233.82V125.72H241.41V118.13Z" fill="black"/>
<path d="M233.82 314.601H226.24V322.111H233.82V314.601Z" fill="black"/>
<path d="M233.82 307.011H226.24V314.601H233.82V307.011Z" fill="#EAD32D"/>
<path d="M233.82 299.5H226.24V307.01H233.82V299.5Z" fill="#EAD32D"/>
<path d="M233.82 291.91H226.24V299.5H233.82V291.91Z" fill="#FFEF56"/>
<path d="M233.82 284.33H226.24V291.91H233.82V284.33Z" fill="#FFEF56"/>
<path d="M233.82 276.801H226.24V284.321H233.82V276.801Z" fill="#FFEF56"/>
<path d="M233.82 269.23H226.24V276.81H233.82V269.23Z" fill="#FFEF56"/>
<path d="M233.82 261.71H226.24V269.22H233.82V261.71Z" fill="black"/>
<path d="M233.82 254.12H226.24V261.71H233.82V254.12Z" fill="#2CF926"/>
<path d="M233.82 246.61H226.24V254.12H233.82V246.61Z" fill="#00F3FF"/>
<path d="M233.82 239.021H226.24V246.611H233.82V239.021Z" fill="#00F3FF"/>
<path d="M233.82 231.44H226.24V239.02H233.82V231.44Z" fill="#EFE4A3"/>
<path d="M233.82 223.92H226.24V231.43H233.82V223.92Z" fill="black"/>
<path d="M233.82 216.33H226.24V223.92H233.82V216.33Z" fill="#DDA487"/>
<path d="M233.82 208.811H226.24V216.321H233.82V208.811Z" fill="#F9C6AA"/>
<path d="M233.82 201.221H226.24V208.811H233.82V201.221Z" fill="#F9C6AA"/>
<path d="M233.82 193.71H226.24V201.22H233.82V193.71Z" fill="black"/>
<path d="M233.82 186.12H226.24V193.71H233.82V186.12Z" fill="#FFEF56"/>
<path d="M233.82 178.61H226.24V186.12H233.82V178.61Z" fill="#FFEF56"/>
<path d="M233.82 171.021H226.24V178.611H233.82V171.021Z" fill="#FFEF56"/>
<path d="M233.82 163.431H226.24V171.021H233.82V163.431Z" fill="#FFEF56"/>
<path d="M233.82 155.92H226.24V163.43H233.82V155.92Z" fill="#FFEF56"/>
<path d="M233.82 148.33H226.24V155.92H233.82V148.33Z" fill="#FFEF56"/>
<path d="M233.82 140.82H226.24V148.33H233.82V140.82Z" fill="#FFEF56"/>
<path d="M233.82 133.23H226.24V140.82H233.82V133.23Z" fill="#EAD32D"/>
<path d="M233.82 125.721H226.24V133.231H233.82V125.721Z" fill="#EAD32D"/>
<path d="M233.82 118.13H226.24V125.72H233.82V118.13Z" fill="black"/>
<path d="M233.82 110.54H226.24V118.13H233.82V110.54Z" fill="black"/>
<path d="M226.23 314.601H218.72V322.111H226.23V314.601Z" fill="black"/>
<path d="M226.23 307.011H218.72V314.601H226.23V307.011Z" fill="black"/>
<path d="M226.23 299.5H218.72V307.01H226.23V299.5Z" fill="#EAD32D"/>
<path d="M226.23 291.91H218.72V299.5H226.23V291.91Z" fill="#EAD32D"/>
<path d="M226.23 284.33H218.72V291.91H226.23V284.33Z" fill="#FFEF56"/>
<path d="M226.23 276.801H218.72V284.321H226.23V276.801Z" fill="#FFEF56"/>
<path d="M226.23 269.23H218.72V276.81H226.23V269.23Z" fill="#FFEF56"/>
<path d="M226.23 261.71H218.72V269.22H226.23V261.71Z" fill="black"/>
<path d="M226.23 254.12H218.72V261.71H226.23V254.12Z" fill="#00F3FF"/>
<path d="M226.23 246.61H218.72V254.12H226.23V246.61Z" fill="#2CF926"/>
<path d="M226.23 239.021H218.72V246.611H226.23V239.021Z" fill="#2CF926"/>
<path d="M226.23 231.44H218.72V239.02H226.23V231.44Z" fill="black"/>
<path d="M226.23 223.92H218.72V231.43H226.23V223.92Z" fill="#FFEF56"/>
<path d="M226.23 216.33H218.72V223.92H226.23V216.33Z" fill="black"/>
<path d="M226.23 208.811H218.72V216.321H226.23V208.811Z" fill="#F9C6AA"/>
<path d="M226.23 201.221H218.72V208.811H226.23V201.221Z" fill="#F9C6AA"/>
<path d="M226.23 193.71H218.72V201.22H226.23V193.71Z" fill="black"/>
<path d="M226.23 186.12H218.72V193.71H226.23V186.12Z" fill="#FFEF56"/>
<path d="M226.23 178.61H218.72V186.12H226.23V178.61Z" fill="#FFEF56"/>
<path d="M226.23 171.021H218.72V178.611H226.23V171.021Z" fill="#FFEF56"/>
<path d="M226.23 163.431H218.72V171.021H226.23V163.431Z" fill="#FFEF56"/>
<path d="M226.23 155.92H218.72V163.43H226.23V155.92Z" fill="#FFEF56"/>
<path d="M226.23 148.33H218.72V155.92H226.23V148.33Z" fill="#EAD32D"/>
<path d="M226.23 140.82H218.72V148.33H226.23V140.82Z" fill="#FFEF56"/>
<path d="M226.23 133.23H218.72V140.82H226.23V133.23Z" fill="#FFEF56"/>
<path d="M226.23 125.721H218.72V133.231H226.23V125.721Z" fill="#EAD32D"/>
<path d="M226.23 118.13H218.72V125.72H226.23V118.13Z" fill="#EAD32D"/>
<path d="M226.23 110.54H218.72V118.13H226.23V110.54Z" fill="black"/>
<path d="M218.72 314.601H211.13V322.111H218.72V314.601Z" fill="black"/>
<path d="M218.72 307.011H211.13V314.601H218.72V307.011Z" fill="#2B2403"/>
<path d="M218.72 299.5H211.13V307.01H218.72V299.5Z" fill="black"/>
<path d="M218.72 291.91H211.13V299.5H218.72V291.91Z" fill="black"/>
<path d="M218.72 284.33H211.13V291.91H218.72V284.33Z" fill="#EAD32D"/>
<path d="M218.72 276.801H211.13V284.321H218.72V276.801Z" fill="#EAD32D"/>
<path d="M218.72 269.23H211.13V276.81H218.72V269.23Z" fill="#FFEF56"/>
<path d="M218.72 261.71H211.13V269.22H218.72V261.71Z" fill="#FFEF56"/>
<path d="M218.72 254.12H211.13V261.71H218.72V254.12Z" fill="black"/>
<path d="M218.72 246.61H211.13V254.12H218.72V246.61Z" fill="black"/>
<path d="M218.72 239.021H211.13V246.611H218.72V239.021Z" fill="black"/>
<path d="M218.72 231.44H211.13V239.02H218.72V231.44Z" fill="#FFEF56"/>
<path d="M218.72 223.92H211.13V231.43H218.72V223.92Z" fill="#FFEF56"/>
<path d="M218.72 216.33H211.13V223.92H218.72V216.33Z" fill="black"/>
<path d="M218.72 208.811H211.13V216.321H218.72V208.811Z" fill="#F9C6AA"/>
<path d="M218.72 201.221H211.13V208.811H218.72V201.221Z" fill="#F9C6AA"/>
<path d="M218.72 193.71H211.13V201.22H218.72V193.71Z" fill="black"/>
<path d="M218.72 186.12H211.13V193.71H218.72V186.12Z" fill="#FFEF56"/>
<path d="M218.72 178.61H211.13V186.12H218.72V178.61Z" fill="#FFEF56"/>
<path d="M218.72 171.021H211.13V178.611H218.72V171.021Z" fill="#FFEF56"/>
<path d="M218.72 163.431H211.13V171.021H218.72V163.431Z" fill="#FFEF56"/>
<path d="M218.72 155.92H211.13V163.43H218.72V155.92Z" fill="#EAD32D"/>
<path d="M218.72 148.33H211.13V155.92H218.72V148.33Z" fill="#EAD32D"/>
<path d="M218.72 140.82H211.13V148.33H218.72V140.82Z" fill="#212120"/>
<path d="M218.72 133.23H211.13V140.82H218.72V133.23Z" fill="#FFEF56"/>
<path d="M218.72 125.721H211.13V133.231H218.72V125.721Z" fill="#FFEF56"/>
<path d="M218.72 118.13H211.13V125.72H218.72V118.13Z" fill="black"/>
<path d="M218.72 110.54H211.13V118.13H218.72V110.54Z" fill="black"/>
<path d="M218.72 103.021H211.13V110.531H218.72V103.021Z" fill="black"/>
<path d="M218.72 95.4307H211.13V103.021H218.72V95.4307Z" fill="black"/>
<path d="M218.72 87.9199H211.13V95.4299H218.72V87.9199Z" fill="black"/>
<path d="M218.72 80.3301H211.13V87.9201H218.72V80.3301Z" fill="black"/>
<path d="M211.12 314.601H203.61V322.111H211.12V314.601Z" fill="black"/>
<path d="M211.12 307.011H203.61V314.601H211.12V307.011Z" fill="#2B2403"/>
<path d="M211.12 299.5H203.61V307.01H211.12V299.5Z" fill="#2B2403"/>
<path d="M211.12 291.91H203.61V299.5H211.12V291.91Z" fill="#352E07"/>
<path d="M211.12 284.33H203.61V291.91H211.12V284.33Z" fill="black"/>
<path d="M211.12 276.801H203.61V284.321H211.12V276.801Z" fill="black"/>
<path d="M211.12 269.23H203.61V276.81H211.12V269.23Z" fill="#EAD32D"/>
<path d="M211.12 261.71H203.61V269.22H211.12V261.71Z" fill="#EAD32D"/>
<path d="M211.12 254.12H203.61V261.71H211.12V254.12Z" fill="#EAD32D"/>
<path d="M211.12 246.61H203.61V254.12H211.12V246.61Z" fill="#EAD32D"/>
<path d="M211.12 239.021H203.61V246.611H211.12V239.021Z" fill="#EAD32D"/>
<path d="M211.12 231.44H203.61V239.02H211.12V231.44Z" fill="#EAD32D"/>
<path d="M211.12 223.92H203.61V231.43H211.12V223.92Z" fill="black"/>
<path d="M211.12 216.33H203.61V223.92H211.12V216.33Z" fill="black"/>
<path d="M211.12 208.811H203.61V216.321H211.12V208.811Z" fill="black"/>
<path d="M211.12 201.221H203.61V208.811H211.12V201.221Z" fill="black"/>
<path d="M211.12 193.71H203.61V201.22H211.12V193.71Z" fill="black"/>
<path d="M211.12 186.12H203.61V193.71H211.12V186.12Z" fill="black"/>
<path d="M211.12 178.61H203.61V186.12H211.12V178.61Z" fill="#EAD32D"/>
<path d="M211.12 171.021H203.61V178.611H211.12V171.021Z" fill="#EAD32D"/>
<path d="M211.12 163.431H203.61V171.021H211.12V163.431Z" fill="#EAD32D"/>
<path d="M211.12 155.92H203.61V163.43H211.12V155.92Z" fill="#EAD32D"/>
<path d="M211.12 148.33H203.61V155.92H211.12V148.33Z" fill="#212120"/>
<path d="M211.12 140.82H203.61V148.33H211.12V140.82Z" fill="#212120"/>
<path d="M211.12 133.23H203.61V140.82H211.12V133.23Z" fill="#FFEF56"/>
<path d="M211.12 125.721H203.61V133.231H211.12V125.721Z" fill="black"/>
<path d="M211.12 118.13H203.61V125.72H211.12V118.13Z" fill="#A8A8A7"/>
<path d="M211.12 110.54H203.61V118.13H211.12V110.54Z" fill="#CCCCCA"/>
<path d="M211.12 103.021H203.61V110.531H211.12V103.021Z" fill="#CCCCCA"/>
<path d="M211.12 95.4307H203.61V103.021H211.12V95.4307Z" fill="#F9C6AA"/>
<path d="M211.12 87.9199H203.61V95.4299H211.12V87.9199Z" fill="#F9C6AA"/>
<path d="M211.12 80.3301H203.61V87.9201H211.12V80.3301Z" fill="#F9C6AA"/>
<path d="M211.12 72.8203H203.61V80.3303H211.12V72.8203Z" fill="black"/>
<path d="M203.61 314.601H196.02V322.111H203.61V314.601Z" fill="black"/>
<path d="M203.61 307.011H196.02V314.601H203.61V307.011Z" fill="#2B2403"/>
<path d="M203.61 299.5H196.02V307.01H203.61V299.5Z" fill="#2B2403"/>
<path d="M203.61 291.91H196.02V299.5H203.61V291.91Z" fill="#352E07"/>
<path d="M203.61 284.33H196.02V291.91H203.61V284.33Z" fill="#352E07"/>
<path d="M203.61 276.801H196.02V284.321H203.61V276.801Z" fill="black"/>
<path d="M203.61 269.23H196.02V276.81H203.61V269.23Z" fill="black"/>
<path d="M203.61 261.71H196.02V269.22H203.61V261.71Z" fill="black"/>
<path d="M203.61 254.12H196.02V261.71H203.61V254.12Z" fill="black"/>
<path d="M203.61 246.61H196.02V254.12H203.61V246.61Z" fill="black"/>
<path d="M203.61 239.021H196.02V246.611H203.61V239.021Z" fill="black"/>
<path d="M203.61 231.44H196.02V239.02H203.61V231.44Z" fill="black"/>
<path d="M203.61 223.92H196.02V231.43H203.61V223.92Z" fill="black"/>
<path d="M203.61 216.33H196.02V223.92H203.61V216.33Z" fill="#352E07"/>
<path d="M203.61 208.811H196.02V216.321H203.61V208.811Z" fill="#352E07"/>
<path d="M203.61 201.221H196.02V208.811H203.61V201.221Z" fill="#352E07"/>
<path d="M203.61 193.71H196.02V201.22H203.61V193.71Z" fill="#352E07"/>
<path d="M203.61 186.12H196.02V193.71H203.61V186.12Z" fill="black"/>
<path d="M203.61 178.61H196.02V186.12H203.61V178.61Z" fill="black"/>
<path d="M203.61 171.021H196.02V178.611H203.61V171.021Z" fill="black"/>
<path d="M203.61 163.431H196.02V171.021H203.61V163.431Z" fill="black"/>
<path d="M203.61 155.92H196.02V163.43H203.61V155.92Z" fill="black"/>
<path d="M203.61 148.33H196.02V155.92H203.61V148.33Z" fill="#212120"/>
<path d="M203.61 140.82H196.02V148.33H203.61V140.82Z" fill="#212120"/>
<path d="M203.61 133.23H196.02V140.82H203.61V133.23Z" fill="#212120"/>
<path d="M203.61 125.721H196.02V133.231H203.61V125.721Z" fill="#A8A8A7"/>
<path d="M203.61 118.13H196.02V125.72H203.61V118.13Z" fill="#CCCCCA"/>
<path d="M203.61 110.54H196.02V118.13H203.61V110.54Z" fill="#CCCCCA"/>
<path d="M203.61 103.021H196.02V110.531H203.61V103.021Z" fill="#F9C6AA"/>
<path d="M203.61 95.4307H196.02V103.021H203.61V95.4307Z" fill="#2D2D2D"/>
<path d="M203.61 87.9199H196.02V95.4299H203.61V87.9199Z" fill="#F9C6AA"/>
<path d="M203.61 80.3301H196.02V87.9201H203.61V80.3301Z" fill="#F9C6AA"/>
<path d="M203.61 72.8203H196.02V80.3303H203.61V72.8203Z" fill="black"/>
<path d="M196.02 314.601H188.51V322.111H196.02V314.601Z" fill="black"/>
<path d="M196.02 307.011H188.51V314.601H196.02V307.011Z" fill="#2B2403"/>
<path d="M196.02 299.5H188.51V307.01H196.02V299.5Z" fill="#514911"/>
<path d="M196.02 291.91H188.51V299.5H196.02V291.91Z" fill="#2B2403"/>
<path d="M196.02 284.33H188.51V291.91H196.02V284.33Z" fill="#352E07"/>
<path d="M196.02 276.801H188.51V284.321H196.02V276.801Z" fill="#352E07"/>
<path d="M196.02 269.23H188.51V276.81H196.02V269.23Z" fill="#352E07"/>
<path d="M196.02 261.71H188.51V269.22H196.02V261.71Z" fill="#352E07"/>
<path d="M196.02 254.12H188.51V261.71H196.02V254.12Z" fill="#352E07"/>
<path d="M196.02 246.61H188.51V254.12H196.02V246.61Z" fill="#352E07"/>
<path d="M196.02 239.021H188.51V246.611H196.02V239.021Z" fill="#352E07"/>
<path d="M196.02 231.44H188.51V239.02H196.02V231.44Z" fill="#352E07"/>
<path d="M196.02 223.92H188.51V231.43H196.02V223.92Z" fill="#352E07"/>
<path d="M196.02 216.33H188.51V223.92H196.02V216.33Z" fill="black"/>
<path d="M196.02 208.811H188.51V216.321H196.02V208.811Z" fill="#60561B"/>
<path d="M196.02 201.221H188.51V208.811H196.02V201.221Z" fill="#352E07"/>
<path d="M196.02 193.71H188.51V201.22H196.02V193.71Z" fill="#352E07"/>
<path d="M196.02 186.12H188.51V193.71H196.02V186.12Z" fill="black"/>
<path d="M196.02 178.61H188.51V186.12H196.02V178.61Z" fill="#352E07"/>
<path d="M196.02 171.021H188.51V178.611H196.02V171.021Z" fill="#352E07"/>
<path d="M196.02 163.431H188.51V171.021H196.02V163.431Z" fill="#352E07"/>
<path d="M196.02 155.92H188.51V163.43H196.02V155.92Z" fill="#352E07"/>
<path d="M196.02 148.33H188.51V155.92H196.02V148.33Z" fill="#352E07"/>
<path d="M196.02 140.82H188.51V148.33H196.02V140.82Z" fill="#212120"/>
<path d="M196.02 133.23H188.51V140.82H196.02V133.23Z" fill="#212120"/>
<path d="M196.02 125.721H188.51V133.231H196.02V125.721Z" fill="#A8A8A7"/>
<path d="M196.02 118.13H188.51V125.72H196.02V118.13Z" fill="#CCCCCA"/>
<path d="M196.02 110.54H188.51V118.13H196.02V110.54Z" fill="#CCCCCA"/>
<path d="M196.02 103.021H188.51V110.531H196.02V103.021Z" fill="#F9C6AA"/>
<path d="M196.02 95.4307H188.51V103.021H196.02V95.4307Z" fill="#2D2D2D"/>
<path d="M196.02 87.9199H188.51V95.4299H196.02V87.9199Z" fill="#F9C6AA"/>
<path d="M196.02 80.3301H188.51V87.9201H196.02V80.3301Z" fill="#F9C6AA"/>
<path d="M196.02 72.8203H188.51V80.3303H196.02V72.8203Z" fill="black"/>
<path d="M188.51 314.601H180.92V322.111H188.51V314.601Z" fill="black"/>
<path d="M188.51 307.011H180.92V314.601H188.51V307.011Z" fill="#2B2403"/>
<path d="M188.51 299.5H180.92V307.01H188.51V299.5Z" fill="#514911"/>
<path d="M188.51 291.91H180.92V299.5H188.51V291.91Z" fill="#514911"/>
<path d="M188.51 284.33H180.92V291.91H188.51V284.33Z" fill="#514911"/>
<path d="M188.51 276.801H180.92V284.321H188.51V276.801Z" fill="#514911"/>
<path d="M188.51 269.23H180.92V276.81H188.51V269.23Z" fill="#514911"/>
<path d="M188.51 261.71H180.92V269.22H188.51V261.71Z" fill="#514911"/>
<path d="M188.51 254.12H180.92V261.71H188.51V254.12Z" fill="#514911"/>
<path d="M188.51 246.61H180.92V254.12H188.51V246.61Z" fill="#514911"/>
<path d="M188.51 239.021H180.92V246.611H188.51V239.021Z" fill="#514911"/>
<path d="M188.51 231.44H180.92V239.02H188.51V231.44Z" fill="#514911"/>
<path d="M188.51 223.92H180.92V231.43H188.51V223.92Z" fill="#514911"/>
<path d="M188.51 216.33H180.92V223.92H188.51V216.33Z" fill="#514911"/>
<path d="M188.51 208.811H180.92V216.321H188.51V208.811Z" fill="black"/>
<path d="M188.51 201.221H180.92V208.811H188.51V201.221Z" fill="#60561B"/>
<path d="M188.51 193.71H180.92V201.22H188.51V193.71Z" fill="#352E07"/>
<path d="M188.51 186.12H180.92V193.71H188.51V186.12Z" fill="black"/>
<path d="M188.51 178.61H180.92V186.12H188.51V178.61Z" fill="black"/>
<path d="M188.51 171.021H180.92V178.611H188.51V171.021Z" fill="#514911"/>
<path d="M188.51 163.431H180.92V171.021H188.51V163.431Z" fill="#514911"/>
<path d="M188.51 155.92H180.92V163.43H188.51V155.92Z" fill="#514911"/>
<path d="M188.51 148.33H180.92V155.92H188.51V148.33Z" fill="#514911"/>
<path d="M188.51 140.82H180.92V148.33H188.51V140.82Z" fill="#212120"/>
<path d="M188.51 133.23H180.92V140.82H188.51V133.23Z" fill="#212120"/>
<path d="M188.51 125.721H180.92V133.231H188.51V125.721Z" fill="#A8A8A7"/>
<path d="M188.51 118.13H180.92V125.72H188.51V118.13Z" fill="#CCCCCA"/>
<path d="M188.51 110.54H180.92V118.13H188.51V110.54Z" fill="#CCCCCA"/>
<path d="M188.51 103.021H180.92V110.531H188.51V103.021Z" fill="#EA9E78"/>
<path d="M188.51 95.4307H180.92V103.021H188.51V95.4307Z" fill="#F9C6AA"/>
<path d="M188.51 87.9199H180.92V95.4299H188.51V87.9199Z" fill="#F9C6AA"/>
<path d="M188.51 80.3301H180.92V87.9201H188.51V80.3301Z" fill="#F9C6AA"/>
<path d="M188.51 72.8203H180.92V80.3303H188.51V72.8203Z" fill="black"/>
<path d="M180.92 314.601H173.41V322.111H180.92V314.601Z" fill="black"/>
<path d="M180.92 307.011H173.41V314.601H180.92V307.011Z" fill="#2B2403"/>
<path d="M180.92 299.5H173.41V307.01H180.92V299.5Z" fill="#514911"/>
<path d="M180.92 291.91H173.41V299.5H180.92V291.91Z" fill="#514911"/>
<path d="M180.92 284.33H173.41V291.91H180.92V284.33Z" fill="black"/>
<path d="M180.92 276.801H173.41V284.321H180.92V276.801Z" fill="black"/>
<path d="M180.92 269.23H173.41V276.81H180.92V269.23Z" fill="black"/>
<path d="M180.92 261.71H173.41V269.22H180.92V261.71Z" fill="black"/>
<path d="M180.92 254.12H173.41V261.71H180.92V254.12Z" fill="black"/>
<path d="M180.92 246.61H173.41V254.12H180.92V246.61Z" fill="black"/>
<path d="M180.92 239.021H173.41V246.611H180.92V239.021Z" fill="black"/>
<path d="M180.92 231.44H173.41V239.02H180.92V231.44Z" fill="black"/>
<path d="M180.92 223.92H173.41V231.43H180.92V223.92Z" fill="black"/>
<path d="M180.92 216.33H173.41V223.92H180.92V216.33Z" fill="black"/>
<path d="M180.92 208.811H173.41V216.321H180.92V208.811Z" fill="black"/>
<path d="M180.92 201.221H173.41V208.811H180.92V201.221Z" fill="black"/>
<path d="M180.92 193.71H173.41V201.22H180.92V193.71Z" fill="black"/>
<path d="M180.92 186.12H173.41V193.71H180.92V186.12Z" fill="black"/>
<path d="M180.92 178.61H173.41V186.12H180.92V178.61Z" fill="black"/>
<path d="M180.92 171.021H173.41V178.611H180.92V171.021Z" fill="black"/>
<path d="M180.92 163.431H173.41V171.021H180.92V163.431Z" fill="black"/>
<path d="M180.92 155.92H173.41V163.43H180.92V155.92Z" fill="black"/>
<path d="M180.92 148.33H173.41V155.92H180.92V148.33Z" fill="#212120"/>
<path d="M180.92 140.82H173.41V148.33H180.92V140.82Z" fill="#212120"/>
<path d="M180.92 133.23H173.41V140.82H180.92V133.23Z" fill="#212120"/>
<path d="M180.92 125.721H173.41V133.231H180.92V125.721Z" fill="#A8A8A7"/>
<path d="M180.92 118.13H173.41V125.72H180.92V118.13Z" fill="#CCCCCA"/>
<path d="M180.92 110.54H173.41V118.13H180.92V110.54Z" fill="#CCCCCA"/>
<path d="M180.92 103.021H173.41V110.531H180.92V103.021Z" fill="#F9C6AA"/>
<path d="M180.92 95.4307H173.41V103.021H180.92V95.4307Z" fill="#2D2D2D"/>
<path d="M180.92 87.9199H173.41V95.4299H180.92V87.9199Z" fill="#F9C6AA"/>
<path d="M180.92 80.3301H173.41V87.9201H180.92V80.3301Z" fill="#F9C6AA"/>
<path d="M180.92 72.8203H173.41V80.3303H180.92V72.8203Z" fill="black"/>
<path d="M173.41 314.601H165.82V322.111H173.41V314.601Z" fill="black"/>
<path d="M173.41 307.011H165.82V314.601H173.41V307.011Z" fill="#2B2403"/>
<path d="M173.41 299.5H165.82V307.01H173.41V299.5Z" fill="black"/>
<path d="M173.41 291.91H165.82V299.5H173.41V291.91Z" fill="black"/>
<path d="M173.41 284.33H165.82V291.91H173.41V284.33Z" fill="#FFEF56"/>
<path d="M173.41 276.801H165.82V284.321H173.41V276.801Z" fill="#FFEF56"/>
<path d="M173.41 269.23H165.82V276.81H173.41V269.23Z" fill="#FFEF56"/>
<path d="M173.41 261.71H165.82V269.22H173.41V261.71Z" fill="#FFEF56"/>
<path d="M173.41 254.12H165.82V261.71H173.41V254.12Z" fill="#FFEF56"/>
<path d="M173.41 246.61H165.82V254.12H173.41V246.61Z" fill="#FFEF56"/>
<path d="M173.41 239.021H165.82V246.611H173.41V239.021Z" fill="#FFEF56"/>
<path d="M173.41 231.44H165.82V239.02H173.41V231.44Z" fill="#FFEF56"/>
<path d="M173.41 223.92H165.82V231.43H173.41V223.92Z" fill="#FFEF56"/>
<path d="M173.41 216.33H165.82V223.92H173.41V216.33Z" fill="#FFEF56"/>
<path d="M173.41 208.811H165.82V216.321H173.41V208.811Z" fill="#FFEF56"/>
<path d="M173.41 201.221H165.82V208.811H173.41V201.221Z" fill="#FFEF56"/>
<path d="M173.41 193.71H165.82V201.22H173.41V193.71Z" fill="#FFEF56"/>
<path d="M173.41 186.12H165.82V193.71H173.41V186.12Z" fill="#EAD32D"/>
<path d="M173.41 178.61H165.82V186.12H173.41V178.61Z" fill="#EAD32D"/>
<path d="M173.41 171.021H165.82V178.611H173.41V171.021Z" fill="#EAD32D"/>
<path d="M173.41 163.431H165.82V171.021H173.41V163.431Z" fill="#EAD32D"/>
<path d="M173.41 155.92H165.82V163.43H173.41V155.92Z" fill="#EAD32D"/>
<path d="M173.41 148.33H165.82V155.92H173.41V148.33Z" fill="#212120"/>
<path d="M173.41 140.82H165.82V148.33H173.41V140.82Z" fill="#212120"/>
<path d="M173.41 133.23H165.82V140.82H173.41V133.23Z" fill="#EAD32D"/>
<path d="M173.41 125.721H165.82V133.231H173.41V125.721Z" fill="black"/>
<path d="M173.41 118.13H165.82V125.72H173.41V118.13Z" fill="black"/>
<path d="M173.41 110.54H165.82V118.13H173.41V110.54Z" fill="black"/>
<path d="M173.41 103.021H165.82V110.531H173.41V103.021Z" fill="black"/>
<path d="M173.41 95.4307H165.82V103.021H173.41V95.4307Z" fill="black"/>
<path d="M173.41 87.9199H165.82V95.4299H173.41V87.9199Z" fill="black"/>
<path d="M173.41 80.3301H165.82V87.9201H173.41V80.3301Z" fill="black"/>
<path d="M165.82 314.601H158.23V322.111H165.82V314.601Z" fill="black"/>
<path d="M165.82 307.011H158.23V314.601H165.82V307.011Z" fill="black"/>
<path d="M165.82 299.5H158.23V307.01H165.82V299.5Z" fill="#EAD32D"/>
<path d="M165.82 291.91H158.23V299.5H165.82V291.91Z" fill="#FFEF56"/>
<path d="M165.82 284.33H158.23V291.91H165.82V284.33Z" fill="#FFEF56"/>
<path d="M165.82 276.801H158.23V284.321H165.82V276.801Z" fill="#FFEF56"/>
<path d="M165.82 269.23H158.23V276.81H165.82V269.23Z" fill="#FFEF56"/>
<path d="M165.82 261.71H158.23V269.22H165.82V261.71Z" fill="#FFEF56"/>
<path d="M165.82 254.12H158.23V261.71H165.82V254.12Z" fill="#FFEF56"/>
<path d="M165.82 246.61H158.23V254.12H165.82V246.61Z" fill="#FFEF56"/>
<path d="M165.82 239.021H158.23V246.611H165.82V239.021Z" fill="#FFEF56"/>
<path d="M165.82 231.44H158.23V239.02H165.82V231.44Z" fill="#FFEF56"/>
<path d="M165.82 223.92H158.23V231.43H165.82V223.92Z" fill="#FFEF56"/>
<path d="M165.82 216.33H158.23V223.92H165.82V216.33Z" fill="#FFEF56"/>
<path d="M165.82 208.811H158.23V216.321H165.82V208.811Z" fill="#FFEF56"/>
<path d="M165.82 201.221H158.23V208.811H165.82V201.221Z" fill="#FFEF56"/>
<path d="M165.82 193.71H158.23V201.22H165.82V193.71Z" fill="#FFEF56"/>
<path d="M165.82 186.12H158.23V193.71H165.82V186.12Z" fill="#FFEF56"/>
<path d="M165.82 178.61H158.23V186.12H165.82V178.61Z" fill="#FFEF56"/>
<path d="M165.82 171.021H158.23V178.611H165.82V171.021Z" fill="#EAD32D"/>
<path d="M165.82 163.431H158.23V171.021H165.82V163.431Z" fill="#EAD32D"/>
<path d="M165.82 155.92H158.23V163.43H165.82V155.92Z" fill="#EAD32D"/>
<path d="M165.82 148.33H158.23V155.92H165.82V148.33Z" fill="#EAD32D"/>
<path d="M165.82 140.82H158.23V148.33H165.82V140.82Z" fill="#EAD32D"/>
<path d="M165.82 133.23H158.23V140.82H165.82V133.23Z" fill="#EAD32D"/>
<path d="M165.82 125.721H158.23V133.231H165.82V125.721Z" fill="#EAD32D"/>
<path d="M165.82 118.13H158.23V125.72H165.82V118.13Z" fill="black"/>
<path d="M158.23 314.601H150.72V322.111H158.23V314.601Z" fill="black"/>
<path d="M158.23 307.011H150.72V314.601H158.23V307.011Z" fill="#EAD32D"/>
<path d="M158.23 299.5H150.72V307.01H158.23V299.5Z" fill="#EAD32D"/>
<path d="M158.23 291.91H150.72V299.5H158.23V291.91Z" fill="#EAD32D"/>
<path d="M158.23 284.33H150.72V291.91H158.23V284.33Z" fill="#FFEF56"/>
<path d="M158.23 276.801H150.72V284.321H158.23V276.801Z" fill="#FFEF56"/>
<path d="M158.23 269.23H150.72V276.81H158.23V269.23Z" fill="#FFEF56"/>
<path d="M158.23 261.71H150.72V269.22H158.23V261.71Z" fill="#FFEF56"/>
<path d="M158.23 254.12H150.72V261.71H158.23V254.12Z" fill="#FFEF56"/>
<path d="M158.23 246.61H150.72V254.12H158.23V246.61Z" fill="#FFEF56"/>
<path d="M158.23 239.021H150.72V246.611H158.23V239.021Z" fill="#FFEF56"/>
<path d="M158.23 231.44H150.72V239.02H158.23V231.44Z" fill="#FFEF56"/>
<path d="M158.23 223.92H150.72V231.43H158.23V223.92Z" fill="#FFEF56"/>
<path d="M158.23 216.33H150.72V223.92H158.23V216.33Z" fill="#FFEF56"/>
<path d="M158.23 208.811H150.72V216.321H158.23V208.811Z" fill="#FFEF56"/>
<path d="M158.23 201.221H150.72V208.811H158.23V201.221Z" fill="#FFEF56"/>
<path d="M158.23 193.71H150.72V201.22H158.23V193.71Z" fill="#FFEF56"/>
<path d="M158.23 186.12H150.72V193.71H158.23V186.12Z" fill="#FFEF56"/>
<path d="M158.23 178.61H150.72V186.12H158.23V178.61Z" fill="#FFEF56"/>
<path d="M158.23 171.021H150.72V178.611H158.23V171.021Z" fill="#FFEF56"/>
<path d="M158.23 163.431H150.72V171.021H158.23V163.431Z" fill="#FFEF56"/>
<path d="M158.23 155.92H150.72V163.43H158.23V155.92Z" fill="#EAD32D"/>
<path d="M158.23 148.33H150.72V155.92H158.23V148.33Z" fill="#EAD32D"/>
<path d="M158.23 140.82H150.72V148.33H158.23V140.82Z" fill="#EAD32D"/>
<path d="M158.23 133.23H150.72V140.82H158.23V133.23Z" fill="black"/>
<path d="M158.23 125.721H150.72V133.231H158.23V125.721Z" fill="black"/>
<path d="M150.72 314.601H143.13V322.111H150.72V314.601Z" fill="black"/>
<path d="M150.72 307.011H143.13V314.601H150.72V307.011Z" fill="#EAD32D"/>
<path d="M150.72 299.5H143.13V307.01H150.72V299.5Z" fill="#EAD32D"/>
<path d="M150.72 291.91H143.13V299.5H150.72V291.91Z" fill="#EAD32D"/>
<path d="M150.72 284.33H143.13V291.91H150.72V284.33Z" fill="#EAD32D"/>
<path d="M150.72 276.801H143.13V284.321H150.72V276.801Z" fill="#EAD32D"/>
<path d="M150.72 269.23H143.13V276.81H150.72V269.23Z" fill="#FFEF56"/>
<path d="M150.72 261.71H143.13V269.22H150.72V261.71Z" fill="#FFEF56"/>
<path d="M150.72 254.12H143.13V261.71H150.72V254.12Z" fill="#FFEF56"/>
<path d="M150.72 246.61H143.13V254.12H150.72V246.61Z" fill="#FFEF56"/>
<path d="M150.72 239.021H143.13V246.611H150.72V239.021Z" fill="#FFEF56"/>
<path d="M150.72 231.44H143.13V239.02H150.72V231.44Z" fill="#FFEF56"/>
<path d="M150.72 223.92H143.13V231.43H150.72V223.92Z" fill="#FFEF56"/>
<path d="M150.72 216.33H143.13V223.92H150.72V216.33Z" fill="#FFEF56"/>
<path d="M150.72 208.811H143.13V216.321H150.72V208.811Z" fill="#FFEF56"/>
<path d="M150.72 201.221H143.13V208.811H150.72V201.221Z" fill="#FFEF56"/>
<path d="M150.72 193.71H143.13V201.22H150.72V193.71Z" fill="#FFEF56"/>
<path d="M150.72 186.12H143.13V193.71H150.72V186.12Z" fill="#FFEF56"/>
<path d="M150.72 178.61H143.13V186.12H150.72V178.61Z" fill="#FFEF56"/>
<path d="M150.72 171.021H143.13V178.611H150.72V171.021Z" fill="#FFEF56"/>
<path d="M150.72 163.431H143.13V171.021H150.72V163.431Z" fill="#FFEF56"/>
<path d="M150.72 155.92H143.13V163.43H150.72V155.92Z" fill="#FFEF56"/>
<path d="M150.72 148.33H143.13V155.92H150.72V148.33Z" fill="#EAD32D"/>
<path d="M150.72 140.82H143.13V148.33H150.72V140.82Z" fill="black"/>
<path d="M143.13 314.601H135.62V322.111H143.13V314.601Z" fill="black"/>
<path d="M143.13 307.011H135.62V314.601H143.13V307.011Z" fill="#EAD32D"/>
<path d="M143.13 299.5H135.62V307.01H143.13V299.5Z" fill="#EAD32D"/>
<path d="M143.13 291.91H135.62V299.5H143.13V291.91Z" fill="#EAD32D"/>
<path d="M143.13 284.33H135.62V291.91H143.13V284.33Z" fill="#EAD32D"/>
<path d="M143.13 276.801H135.62V284.321H143.13V276.801Z" fill="#EAD32D"/>
<path d="M143.13 269.23H135.62V276.81H143.13V269.23Z" fill="#EAD32D"/>
<path d="M143.13 261.71H135.62V269.22H143.13V261.71Z" fill="#FFEF56"/>
<path d="M143.13 254.12H135.62V261.71H143.13V254.12Z" fill="#FFEF56"/>
<path d="M143.13 246.61H135.62V254.12H143.13V246.61Z" fill="#FFEF56"/>
<path d="M143.13 239.021H135.62V246.611H143.13V239.021Z" fill="#FFEF56"/>
<path d="M143.13 231.44H135.62V239.02H143.13V231.44Z" fill="#FFEF56"/>
<path d="M143.13 223.92H135.62V231.43H143.13V223.92Z" fill="#FFEF56"/>
<path d="M143.13 216.33H135.62V223.92H143.13V216.33Z" fill="#FFEF56"/>
<path d="M143.13 208.811H135.62V216.321H143.13V208.811Z" fill="#FFEF56"/>
<path d="M143.13 201.221H135.62V208.811H143.13V201.221Z" fill="#FFEF56"/>
<path d="M143.13 193.71H135.62V201.22H143.13V193.71Z" fill="#FFEF56"/>
<path d="M143.13 186.12H135.62V193.71H143.13V186.12Z" fill="#FFEF56"/>
<path d="M143.13 178.61H135.62V186.12H143.13V178.61Z" fill="#FFEF56"/>
<path d="M143.13 171.021H135.62V178.611H143.13V171.021Z" fill="#FFEF56"/>
<path d="M143.13 163.431H135.62V171.021H143.13V163.431Z" fill="#FFEF56"/>
<path d="M143.13 155.92H135.62V163.43H143.13V155.92Z" fill="#EAD32D"/>
<path d="M143.13 148.33H135.62V155.92H143.13V148.33Z" fill="black"/>
<path d="M143.13 140.82H135.62V148.33H143.13V140.82Z" fill="black"/>
<path d="M135.62 314.601H128.03V322.111H135.62V314.601Z" fill="black"/>
<path d="M135.62 307.011H128.03V314.601H135.62V307.011Z" fill="black"/>
<path d="M135.62 299.5H128.03V307.01H135.62V299.5Z" fill="black"/>
<path d="M135.62 291.91H128.03V299.5H135.62V291.91Z" fill="black"/>
<path d="M135.62 284.33H128.03V291.91H135.62V284.33Z" fill="black"/>
<path d="M135.62 276.801H128.03V284.321H135.62V276.801Z" fill="black"/>
<path d="M135.62 269.23H128.03V276.81H135.62V269.23Z" fill="black"/>
<path d="M135.62 261.71H128.03V269.22H135.62V261.71Z" fill="black"/>
<path d="M135.62 254.12H128.03V261.71H135.62V254.12Z" fill="black"/>
<path d="M135.62 246.61H128.03V254.12H135.62V246.61Z" fill="black"/>
<path d="M135.62 239.021H128.03V246.611H135.62V239.021Z" fill="black"/>
<path d="M135.62 231.44H128.03V239.02H135.62V231.44Z" fill="black"/>
<path d="M135.62 223.92H128.03V231.43H135.62V223.92Z" fill="black"/>
<path d="M135.62 216.33H128.03V223.92H135.62V216.33Z" fill="black"/>
<path d="M135.62 208.811H128.03V216.321H135.62V208.811Z" fill="black"/>
<path d="M135.62 201.221H128.03V208.811H135.62V201.221Z" fill="black"/>
<path d="M135.62 193.71H128.03V201.22H135.62V193.71Z" fill="black"/>
<path d="M135.62 186.12H128.03V193.71H135.62V186.12Z" fill="black"/>
<path d="M135.62 178.61H128.03V186.12H135.62V178.61Z" fill="black"/>
<path d="M135.62 171.021H128.03V178.611H135.62V171.021Z" fill="black"/>
<path d="M135.62 163.431H128.03V171.021H135.62V163.431Z" fill="black"/>
<path d="M135.62 155.92H128.03V163.43H135.62V155.92Z" fill="black"/>
</svg>
