<svg width="400" height="400" viewBox="0 0 400 400" fill="none" xmlns="http://www.w3.org/2000/svg">
<path d="M200 385.78C302.603 385.78 385.78 302.603 385.78 200C385.78 97.3963 302.603 14.2197 200 14.2197C97.3965 14.2197 14.22 97.3963 14.22 200C14.22 302.603 97.3965 385.78 200 385.78Z" fill="black"/>
<path d="M200 392.78C93.7 392.78 7.21997 306.3 7.21997 200C7.21997 93.6997 93.7 7.21973 200 7.21973C306.3 7.21973 392.78 93.6997 392.78 200C392.78 306.3 306.3 392.78 200 392.78ZM200 21.2197C101.42 21.2197 21.22 101.42 21.22 200C21.22 298.58 101.42 378.78 200 378.78C298.58 378.78 378.78 298.58 378.78 200C378.78 101.42 298.58 21.2197 200 21.2197Z" fill="#24DCEA"/>
<path d="M285.36 133.681H278.42V140.691H285.36V133.681Z" fill="black"/>
<path d="M285.36 126.74H278.42V133.68H285.36V126.74Z" fill="black"/>
<path d="M278.42 133.681H271.41V140.691H278.42V133.681Z" fill="black"/>
<path d="M278.42 126.74H271.41V133.68H278.42V126.74Z" fill="#0404BF"/>
<path d="M278.42 119.73H271.41V126.74H278.42V119.73Z" fill="black"/>
<path d="M271.4 133.681H264.4V140.691H271.4V133.681Z" fill="black"/>
<path d="M271.4 126.74H264.4V133.68H271.4V126.74Z" fill="#0404BF"/>
<path d="M271.4 119.73H264.4V126.74H271.4V119.73Z" fill="black"/>
<path d="M264.4 315.181H257.46V322.131H264.4V315.181Z" fill="black"/>
<path d="M264.4 308.181H257.46V315.181H264.4V308.181Z" fill="black"/>
<path d="M264.4 301.24H257.46V308.18H264.4V301.24Z" fill="black"/>
<path d="M264.4 294.221H257.46V301.231H264.4V294.221Z" fill="black"/>
<path d="M264.4 287.28H257.46V294.22H264.4V287.28Z" fill="black"/>
<path d="M264.4 238.42H257.46V245.36H264.4V238.42Z" fill="black"/>
<path d="M264.4 231.41H257.46V238.42H264.4V231.41Z" fill="black"/>
<path d="M264.4 224.4H257.46V231.4H264.4V224.4Z" fill="black"/>
<path d="M264.4 217.46H257.46V224.4H264.4V217.46Z" fill="black"/>
<path d="M264.4 210.45H257.46V217.46H264.4V210.45Z" fill="black"/>
<path d="M264.4 203.511H257.46V210.451H264.4V203.511Z" fill="black"/>
<path d="M264.4 196.49H257.46V203.5H264.4V196.49Z" fill="black"/>
<path d="M264.4 189.551H257.46V196.491H264.4V189.551Z" fill="black"/>
<path d="M264.4 182.54H257.46V189.55H264.4V182.54Z" fill="black"/>
<path d="M264.4 175.601H257.46V182.541H264.4V175.601Z" fill="black"/>
<path d="M264.4 168.591H257.46V175.601H264.4V168.591Z" fill="black"/>
<path d="M264.4 133.681H257.46V140.691H264.4V133.681Z" fill="black"/>
<path d="M264.4 126.74H257.46V133.68H264.4V126.74Z" fill="#0404BF"/>
<path d="M264.4 119.73H257.46V126.74H264.4V119.73Z" fill="#0404BF"/>
<path d="M264.4 112.721H257.46V119.731H264.4V112.721Z" fill="black"/>
<path d="M257.46 315.181H250.45V322.131H257.46V315.181Z" fill="#030384"/>
<path d="M257.46 308.181H250.45V315.181H257.46V308.181Z" fill="#030384"/>
<path d="M257.46 301.24H250.45V308.18H257.46V301.24Z" fill="#030384"/>
<path d="M257.46 294.221H250.45V301.231H257.46V294.221Z" fill="#030384"/>
<path d="M257.46 287.28H250.45V294.22H257.46V287.28Z" fill="#030384"/>
<path d="M257.46 280.271H250.45V287.281H257.46V280.271Z" fill="black"/>
<path d="M257.46 273.271H250.45V280.271H257.46V273.271Z" fill="black"/>
<path d="M257.46 266.311H250.45V273.261H257.46V266.311Z" fill="black"/>
<path d="M257.46 259.32H250.45V266.32H257.46V259.32Z" fill="black"/>
<path d="M257.46 252.37H250.45V259.31H257.46V252.37Z" fill="black"/>
<path d="M257.46 245.36H250.45V252.37H257.46V245.36Z" fill="black"/>
<path d="M257.46 238.42H250.45V245.36H257.46V238.42Z" fill="#E5A070"/>
<path d="M257.46 231.41H250.45V238.42H257.46V231.41Z" fill="#0404BF"/>
<path d="M257.46 224.4H250.45V231.4H257.46V224.4Z" fill="#0404BF"/>
<path d="M257.46 217.46H250.45V224.4H257.46V217.46Z" fill="#0404BF"/>
<path d="M257.46 210.45H250.45V217.46H257.46V210.45Z" fill="#0404BF"/>
<path d="M257.46 203.511H250.45V210.451H257.46V203.511Z" fill="#0404BF"/>
<path d="M257.46 196.49H250.45V203.5H257.46V196.49Z" fill="#0404BF"/>
<path d="M257.46 189.551H250.45V196.491H257.46V189.551Z" fill="#0404BF"/>
<path d="M257.46 182.54H250.45V189.55H257.46V182.54Z" fill="#0404BF"/>
<path d="M257.46 175.601H250.45V182.541H257.46V175.601Z" fill="#0404BF"/>
<path d="M257.46 168.591H250.45V175.601H257.46V168.591Z" fill="#0404BF"/>
<path d="M257.46 161.58H250.45V168.59H257.46V161.58Z" fill="black"/>
<path d="M257.46 147.63H250.45V154.64H257.46V147.63Z" fill="black"/>
<path d="M257.46 140.69H250.45V147.63H257.46V140.69Z" fill="black"/>
<path d="M257.46 133.681H250.45V140.691H257.46V133.681Z" fill="black"/>
<path d="M257.46 126.74H250.45V133.68H257.46V126.74Z" fill="#0404BF"/>
<path d="M257.46 119.73H250.45V126.74H257.46V119.73Z" fill="#0404BF"/>
<path d="M257.46 112.721H250.45V119.731H257.46V112.721Z" fill="#030384"/>
<path d="M257.46 105.78H250.45V112.72H257.46V105.78Z" fill="black"/>
<path d="M257.46 98.7607H250.45V105.771H257.46V98.7607Z" fill="black"/>
<path d="M257.46 91.8203H250.45V98.7603H257.46V91.8203Z" fill="black"/>
<path d="M257.46 84.8105H250.45V91.8205H257.46V84.8105Z" fill="black"/>
<path d="M250.45 315.181H243.51V322.131H250.45V315.181Z" fill="#030384"/>
<path d="M250.45 308.181H243.51V315.181H250.45V308.181Z" fill="#030384"/>
<path d="M250.45 301.24H243.51V308.18H250.45V301.24Z" fill="#030384"/>
<path d="M250.45 294.221H243.51V301.231H250.45V294.221Z" fill="#030384"/>
<path d="M250.45 287.28H243.51V294.22H250.45V287.28Z" fill="#030384"/>
<path d="M250.45 280.271H243.51V287.281H250.45V280.271Z" fill="#030384"/>
<path d="M250.45 273.271H243.51V280.271H250.45V273.271Z" fill="#030384"/>
<path d="M250.45 266.311H243.51V273.261H250.45V266.311Z" fill="#030384"/>
<path d="M250.45 259.32H243.51V266.32H250.45V259.32Z" fill="#030384"/>
<path d="M250.45 252.37H243.51V259.31H250.45V252.37Z" fill="#030384"/>
<path d="M250.45 245.36H243.51V252.37H250.45V245.36Z" fill="#0707A5"/>
<path d="M250.45 238.42H243.51V245.36H250.45V238.42Z" fill="#EDB58C"/>
<path d="M250.45 231.41H243.51V238.42H250.45V231.41Z" fill="#0404BF"/>
<path d="M250.45 224.4H243.51V231.4H250.45V224.4Z" fill="#0404BF"/>
<path d="M250.45 217.46H243.51V224.4H250.45V217.46Z" fill="#0404BF"/>
<path d="M250.45 210.45H243.51V217.46H250.45V210.45Z" fill="#0404BF"/>
<path d="M250.45 203.511H243.51V210.451H250.45V203.511Z" fill="#0404BF"/>
<path d="M250.45 196.49H243.51V203.5H250.45V196.49Z" fill="#0404BF"/>
<path d="M250.45 189.551H243.51V196.491H250.45V189.551Z" fill="#0404BF"/>
<path d="M250.45 182.54H243.51V189.55H250.45V182.54Z" fill="#0404BF"/>
<path d="M250.45 175.601H243.51V182.541H250.45V175.601Z" fill="#0404BF"/>
<path d="M250.45 168.591H243.51V175.601H250.45V168.591Z" fill="#0404BF"/>
<path d="M250.45 161.58H243.51V168.59H250.45V161.58Z" fill="black"/>
<path d="M250.45 154.641H243.51V161.581H250.45V154.641Z" fill="black"/>
<path d="M250.45 147.63H243.51V154.64H250.45V147.63Z" fill="#D8D7D6"/>
<path d="M250.45 140.69H243.51V147.63H250.45V140.69Z" fill="#9E9B98"/>
<path d="M250.45 133.681H243.51V140.691H250.45V133.681Z" fill="black"/>
<path d="M250.45 126.74H243.51V133.68H250.45V126.74Z" fill="#030384"/>
<path d="M250.45 119.73H243.51V126.74H250.45V119.73Z" fill="#0404BF"/>
<path d="M250.45 112.721H243.51V119.731H250.45V112.721Z" fill="#030384"/>
<path d="M250.45 105.78H243.51V112.72H250.45V105.78Z" fill="black"/>
<path d="M250.45 98.7607H243.51V105.771H250.45V98.7607Z" fill="#030384"/>
<path d="M250.45 91.8203H243.51V98.7603H250.45V91.8203Z" fill="#030384"/>
<path d="M250.45 84.8105H243.51V91.8205H250.45V84.8105Z" fill="#030384"/>
<path d="M250.45 77.8701H243.51V84.8101H250.45V77.8701Z" fill="black"/>
<path d="M243.5 315.181H236.49V322.131H243.5V315.181Z" fill="#0404BF"/>
<path d="M243.5 308.181H236.49V315.181H243.5V308.181Z" fill="#0404BF"/>
<path d="M243.5 301.24H236.49V308.18H243.5V301.24Z" fill="#0404BF"/>
<path d="M243.5 294.221H236.49V301.231H243.5V294.221Z" fill="#0404BF"/>
<path d="M243.5 287.28H236.49V294.22H243.5V287.28Z" fill="#0404BF"/>
<path d="M243.5 280.271H236.49V287.281H243.5V280.271Z" fill="#0404BF"/>
<path d="M243.5 273.271H236.49V280.271H243.5V273.271Z" fill="#0404BF"/>
<path d="M243.5 266.311H236.49V273.261H243.5V266.311Z" fill="#0404BF"/>
<path d="M243.5 259.32H236.49V266.32H243.5V259.32Z" fill="#0404BF"/>
<path d="M243.5 252.37H236.49V259.31H243.5V252.37Z" fill="#030384"/>
<path d="M243.5 245.36H236.49V252.37H243.5V245.36Z" fill="#0707A5"/>
<path d="M243.5 238.42H236.49V245.36H243.5V238.42Z" fill="#EDB58C"/>
<path d="M243.5 231.41H236.49V238.42H243.5V231.41Z" fill="#0404BF"/>
<path d="M243.5 224.4H236.49V231.4H243.5V224.4Z" fill="#0404BF"/>
<path d="M243.5 217.46H236.49V224.4H243.5V217.46Z" fill="#0404BF"/>
<path d="M243.5 210.45H236.49V217.46H243.5V210.45Z" fill="#0404BF"/>
<path d="M243.5 203.511H236.49V210.451H243.5V203.511Z" fill="#0404BF"/>
<path d="M243.5 196.49H236.49V203.5H243.5V196.49Z" fill="#0404BF"/>
<path d="M243.5 189.551H236.49V196.491H243.5V189.551Z" fill="#0404BF"/>
<path d="M243.5 182.54H236.49V189.55H243.5V182.54Z" fill="#0404BF"/>
<path d="M243.5 175.601H236.49V182.541H243.5V175.601Z" fill="#0404BF"/>
<path d="M243.5 168.591H236.49V175.601H243.5V168.591Z" fill="#030384"/>
<path d="M243.5 161.58H236.49V168.59H243.5V161.58Z" fill="black"/>
<path d="M243.5 154.641H236.49V161.581H243.5V154.641Z" fill="#D8D7D6"/>
<path d="M243.5 147.63H236.49V154.64H243.5V147.63Z" fill="#D8D7D6"/>
<path d="M243.5 140.69H236.49V147.63H243.5V140.69Z" fill="#D8D7D6"/>
<path d="M243.5 133.681H236.49V140.691H243.5V133.681Z" fill="black"/>
<path d="M243.5 126.74H236.49V133.68H243.5V126.74Z" fill="#030384"/>
<path d="M243.5 119.73H236.49V126.74H243.5V119.73Z" fill="#0404BF"/>
<path d="M243.5 112.721H236.49V119.731H243.5V112.721Z" fill="#0404BF"/>
<path d="M243.5 105.78H236.49V112.72H243.5V105.78Z" fill="#030384"/>
<path d="M243.5 98.7607H236.49V105.771H243.5V98.7607Z" fill="#030384"/>
<path d="M243.5 91.8203H236.49V98.7603H243.5V91.8203Z" fill="#030384"/>
<path d="M243.5 84.8105H236.49V91.8205H243.5V84.8105Z" fill="#030384"/>
<path d="M243.5 77.8701H236.49V84.8101H243.5V77.8701Z" fill="#030384"/>
<path d="M243.5 70.8604H236.49V77.8704H243.5V70.8604Z" fill="black"/>
<path d="M236.49 315.181H229.55V322.131H236.49V315.181Z" fill="#0404BF"/>
<path d="M236.49 308.181H229.55V315.181H236.49V308.181Z" fill="#0404BF"/>
<path d="M236.49 301.24H229.55V308.18H236.49V301.24Z" fill="#0404BF"/>
<path d="M236.49 294.221H229.55V301.231H236.49V294.221Z" fill="#0404BF"/>
<path d="M236.49 287.28H229.55V294.22H236.49V287.28Z" fill="#0404BF"/>
<path d="M236.49 280.271H229.55V287.281H236.49V280.271Z" fill="#0404BF"/>
<path d="M236.49 273.271H229.55V280.271H236.49V273.271Z" fill="#0404BF"/>
<path d="M236.49 266.311H229.55V273.261H236.49V266.311Z" fill="#0404BF"/>
<path d="M236.49 259.32H229.55V266.32H236.49V259.32Z" fill="#0404BF"/>
<path d="M236.49 252.37H229.55V259.31H236.49V252.37Z" fill="#0404BF"/>
<path d="M236.49 245.36H229.55V252.37H236.49V245.36Z" fill="#030384"/>
<path d="M236.49 238.42H229.55V245.36H236.49V238.42Z" fill="#0707A5"/>
<path d="M236.49 231.41H229.55V238.42H236.49V231.41Z" fill="black"/>
<path d="M236.49 224.4H229.55V231.4H236.49V224.4Z" fill="black"/>
<path d="M236.49 217.46H229.55V224.4H236.49V217.46Z" fill="black"/>
<path d="M236.49 210.45H229.55V217.46H236.49V210.45Z" fill="black"/>
<path d="M236.49 203.511H229.55V210.451H236.49V203.511Z" fill="black"/>
<path d="M236.49 196.49H229.55V203.5H236.49V196.49Z" fill="black"/>
<path d="M236.49 189.551H229.55V196.491H236.49V189.551Z" fill="#0404BF"/>
<path d="M236.49 182.54H229.55V189.55H236.49V182.54Z" fill="#030384"/>
<path d="M236.49 175.601H229.55V182.541H236.49V175.601Z" fill="#030384"/>
<path d="M236.49 168.591H229.55V175.601H236.49V168.591Z" fill="black"/>
<path d="M236.49 161.58H229.55V168.59H236.49V161.58Z" fill="#9E9B98"/>
<path d="M236.49 154.641H229.55V161.581H236.49V154.641Z" fill="#9E9B98"/>
<path d="M236.49 147.63H229.55V154.64H236.49V147.63Z" fill="#D8D7D6"/>
<path d="M236.49 140.69H229.55V147.63H236.49V140.69Z" fill="#9E9B98"/>
<path d="M236.49 133.681H229.55V140.691H236.49V133.681Z" fill="#9E9B98"/>
<path d="M236.49 126.74H229.55V133.68H236.49V126.74Z" fill="black"/>
<path d="M236.49 119.73H229.55V126.74H236.49V119.73Z" fill="#0404BF"/>
<path d="M236.49 112.721H229.55V119.731H236.49V112.721Z" fill="#0404BF"/>
<path d="M236.49 105.78H229.55V112.72H236.49V105.78Z" fill="#030384"/>
<path d="M236.49 98.7607H229.55V105.771H236.49V98.7607Z" fill="#030384"/>
<path d="M236.49 91.8203H229.55V98.7603H236.49V91.8203Z" fill="#030384"/>
<path d="M236.49 84.8105H229.55V91.8205H236.49V84.8105Z" fill="#030384"/>
<path d="M236.49 77.8701H229.55V84.8101H236.49V77.8701Z" fill="#030384"/>
<path d="M236.49 70.8604H229.55V77.8704H236.49V70.8604Z" fill="black"/>
<path d="M229.55 315.181H222.54V322.131H229.55V315.181Z" fill="#0404BF"/>
<path d="M229.55 308.181H222.54V315.181H229.55V308.181Z" fill="#0404BF"/>
<path d="M229.55 301.24H222.54V308.18H229.55V301.24Z" fill="#0404BF"/>
<path d="M229.55 294.221H222.54V301.231H229.55V294.221Z" fill="#0404BF"/>
<path d="M229.55 287.28H222.54V294.22H229.55V287.28Z" fill="#0404BF"/>
<path d="M229.55 280.271H222.54V287.281H229.55V280.271Z" fill="#0404BF"/>
<path d="M229.55 273.271H222.54V280.271H229.55V273.271Z" fill="#0404BF"/>
<path d="M229.55 266.311H222.54V273.261H229.55V266.311Z" fill="#0404BF"/>
<path d="M229.55 259.32H222.54V266.32H229.55V259.32Z" fill="#0404BF"/>
<path d="M229.55 252.37H222.54V259.31H229.55V252.37Z" fill="#0404BF"/>
<path d="M229.55 245.36H222.54V252.37H229.55V245.36Z" fill="#0404BF"/>
<path d="M229.55 238.42H222.54V245.36H229.55V238.42Z" fill="#030384"/>
<path d="M229.55 231.41H222.54V238.42H229.55V231.41Z" fill="#D6B409"/>
<path d="M229.55 224.4H222.54V231.4H229.55V224.4Z" fill="#0404BF"/>
<path d="M229.55 217.46H222.54V224.4H229.55V217.46Z" fill="#0404BF"/>
<path d="M229.55 210.45H222.54V217.46H229.55V210.45Z" fill="#0404BF"/>
<path d="M229.55 203.511H222.54V210.451H229.55V203.511Z" fill="#0404BF"/>
<path d="M229.55 196.49H222.54V203.5H229.55V196.49Z" fill="#0404BF"/>
<path d="M229.55 189.551H222.54V196.491H229.55V189.551Z" fill="#0404BF"/>
<path d="M229.55 182.54H222.54V189.55H229.55V182.54Z" fill="#030384"/>
<path d="M229.55 175.601H222.54V182.541H229.55V175.601Z" fill="black"/>
<path d="M229.55 168.591H222.54V175.601H229.55V168.591Z" fill="#D8D7D6"/>
<path d="M229.55 161.58H222.54V168.59H229.55V161.58Z" fill="#D8D7D6"/>
<path d="M229.55 154.641H222.54V161.581H229.55V154.641Z" fill="#D8D7D6"/>
<path d="M229.55 147.63H222.54V154.64H229.55V147.63Z" fill="#9E9B98"/>
<path d="M229.55 140.69H222.54V147.63H229.55V140.69Z" fill="#EFB589"/>
<path d="M229.55 133.681H222.54V140.691H229.55V133.681Z" fill="#EFB589"/>
<path d="M229.55 126.74H222.54V133.68H229.55V126.74Z" fill="black"/>
<path d="M229.55 119.73H222.54V126.74H229.55V119.73Z" fill="#0404BF"/>
<path d="M229.55 112.721H222.54V119.731H229.55V112.721Z" fill="#0404BF"/>
<path d="M229.55 105.78H222.54V112.72H229.55V105.78Z" fill="#0404BF"/>
<path d="M229.55 98.7607H222.54V105.771H229.55V98.7607Z" fill="#030384"/>
<path d="M229.55 91.8203H222.54V98.7603H229.55V91.8203Z" fill="#030384"/>
<path d="M229.55 84.8105H222.54V91.8205H229.55V84.8105Z" fill="#030384"/>
<path d="M229.55 77.8701H222.54V84.8101H229.55V77.8701Z" fill="#030384"/>
<path d="M229.55 70.8604H222.54V77.8704H229.55V70.8604Z" fill="black"/>
<path d="M222.54 315.181H215.6V322.131H222.54V315.181Z" fill="#0404BF"/>
<path d="M222.54 308.181H215.6V315.181H222.54V308.181Z" fill="#0404BF"/>
<path d="M222.54 301.24H215.6V308.18H222.54V301.24Z" fill="#0404BF"/>
<path d="M222.54 294.221H215.6V301.231H222.54V294.221Z" fill="#0404BF"/>
<path d="M222.54 287.28H215.6V294.22H222.54V287.28Z" fill="#0404BF"/>
<path d="M222.54 280.271H215.6V287.281H222.54V280.271Z" fill="#0404BF"/>
<path d="M222.54 273.271H215.6V280.271H222.54V273.271Z" fill="#0404BF"/>
<path d="M222.54 266.311H215.6V273.261H222.54V266.311Z" fill="#0404BF"/>
<path d="M222.54 259.32H215.6V266.32H222.54V259.32Z" fill="#0404BF"/>
<path d="M222.54 252.37H215.6V259.31H222.54V252.37Z" fill="#0404BF"/>
<path d="M222.54 245.36H215.6V252.37H222.54V245.36Z" fill="#0404BF"/>
<path d="M222.54 238.42H215.6V245.36H222.54V238.42Z" fill="#0404BF"/>
<path d="M222.54 231.41H215.6V238.42H222.54V231.41Z" fill="#F9C126"/>
<path d="M222.54 224.4H215.6V231.4H222.54V224.4Z" fill="#0404BF"/>
<path d="M222.54 217.46H215.6V224.4H222.54V217.46Z" fill="#0404BF"/>
<path d="M222.54 210.45H215.6V217.46H222.54V210.45Z" fill="#0404BF"/>
<path d="M222.54 203.511H215.6V210.451H222.54V203.511Z" fill="#0404BF"/>
<path d="M222.54 196.49H215.6V203.5H222.54V196.49Z" fill="#0404BF"/>
<path d="M222.54 189.551H215.6V196.491H222.54V189.551Z" fill="black"/>
<path d="M222.54 182.54H215.6V189.55H222.54V182.54Z" fill="black"/>
<path d="M222.54 175.601H215.6V182.541H222.54V175.601Z" fill="#9E9B98"/>
<path d="M222.54 168.591H215.6V175.601H222.54V168.591Z" fill="#D8D7D6"/>
<path d="M222.54 161.58H215.6V168.59H222.54V161.58Z" fill="#D8D7D6"/>
<path d="M222.54 154.641H215.6V161.581H222.54V154.641Z" fill="#9E9B98"/>
<path d="M222.54 147.63H215.6V154.64H222.54V147.63Z" fill="#EFB589"/>
<path d="M222.54 140.69H215.6V147.63H222.54V140.69Z" fill="#EFB589"/>
<path d="M222.54 133.681H215.6V140.691H222.54V133.681Z" fill="#EFB589"/>
<path d="M222.54 126.74H215.6V133.68H222.54V126.74Z" fill="black"/>
<path d="M222.54 119.73H215.6V126.74H222.54V119.73Z" fill="#0404BF"/>
<path d="M222.54 112.721H215.6V119.731H222.54V112.721Z" fill="#0404BF"/>
<path d="M222.54 105.78H215.6V112.72H222.54V105.78Z" fill="#0404BF"/>
<path d="M222.54 98.7607H215.6V105.771H222.54V98.7607Z" fill="#030384"/>
<path d="M222.54 91.8203H215.6V98.7603H222.54V91.8203Z" fill="#030384"/>
<path d="M222.54 84.8105H215.6V91.8205H222.54V84.8105Z" fill="#030384"/>
<path d="M222.54 77.8701H215.6V84.8101H222.54V77.8701Z" fill="black"/>
<path d="M215.6 315.181H208.59V322.131H215.6V315.181Z" fill="#0404BF"/>
<path d="M215.6 308.181H208.59V315.181H215.6V308.181Z" fill="#0404BF"/>
<path d="M215.6 301.24H208.59V308.18H215.6V301.24Z" fill="#0404BF"/>
<path d="M215.6 294.221H208.59V301.231H215.6V294.221Z" fill="#0404BF"/>
<path d="M215.6 287.28H208.59V294.22H215.6V287.28Z" fill="#0404BF"/>
<path d="M215.6 280.271H208.59V287.281H215.6V280.271Z" fill="#0404BF"/>
<path d="M215.6 273.271H208.59V280.271H215.6V273.271Z" fill="#0404BF"/>
<path d="M215.6 266.311H208.59V273.261H215.6V266.311Z" fill="#0404BF"/>
<path d="M215.6 259.32H208.59V266.32H215.6V259.32Z" fill="#0404BF"/>
<path d="M215.6 252.37H208.59V259.31H215.6V252.37Z" fill="#0404BF"/>
<path d="M215.6 245.36H208.59V252.37H215.6V245.36Z" fill="#0404BF"/>
<path d="M215.6 238.42H208.59V245.36H215.6V238.42Z" fill="#0404BF"/>
<path d="M215.6 231.41H208.59V238.42H215.6V231.41Z" fill="#F9C126"/>
<path d="M215.6 224.4H208.59V231.4H215.6V224.4Z" fill="#0404BF"/>
<path d="M215.6 217.46H208.59V224.4H215.6V217.46Z" fill="#0404BF"/>
<path d="M215.6 210.45H208.59V217.46H215.6V210.45Z" fill="#0404BF"/>
<path d="M215.6 203.511H208.59V210.451H215.6V203.511Z" fill="#0404BF"/>
<path d="M215.6 196.49H208.59V203.5H215.6V196.49Z" fill="black"/>
<path d="M215.6 189.551H208.59V196.491H215.6V189.551Z" fill="#9E9B98"/>
<path d="M215.6 182.54H208.59V189.55H215.6V182.54Z" fill="#D8D7D6"/>
<path d="M215.6 175.601H208.59V182.541H215.6V175.601Z" fill="#D8D7D6"/>
<path d="M215.6 168.591H208.59V175.601H215.6V168.591Z" fill="#D8D7D6"/>
<path d="M215.6 161.58H208.59V168.59H215.6V161.58Z" fill="#D8D7D6"/>
<path d="M215.6 154.641H208.59V161.581H215.6V154.641Z" fill="#D8D7D6"/>
<path d="M215.6 147.63H208.59V154.64H215.6V147.63Z" fill="#9E9B98"/>
<path d="M215.6 140.69H208.59V147.63H215.6V140.69Z" fill="#D8D7D6"/>
<path d="M215.6 133.681H208.59V140.691H215.6V133.681Z" fill="#EFB589"/>
<path d="M215.6 126.74H208.59V133.68H215.6V126.74Z" fill="black"/>
<path d="M215.6 119.73H208.59V126.74H215.6V119.73Z" fill="#0404BF"/>
<path d="M215.6 112.721H208.59V119.731H215.6V112.721Z" fill="#0404BF"/>
<path d="M215.6 105.78H208.59V112.72H215.6V105.78Z" fill="#0404BF"/>
<path d="M215.6 98.7607H208.59V105.771H215.6V98.7607Z" fill="#030384"/>
<path d="M215.6 91.8203H208.59V98.7603H215.6V91.8203Z" fill="#030384"/>
<path d="M215.6 84.8105H208.59V91.8205H215.6V84.8105Z" fill="black"/>
<path d="M208.59 315.181H201.58V322.131H208.59V315.181Z" fill="#0404BF"/>
<path d="M208.59 308.181H201.58V315.181H208.59V308.181Z" fill="#0404BF"/>
<path d="M208.59 301.24H201.58V308.18H208.59V301.24Z" fill="#0404BF"/>
<path d="M208.59 294.221H201.58V301.231H208.59V294.221Z" fill="#0404BF"/>
<path d="M208.59 287.28H201.58V294.22H208.59V287.28Z" fill="#0404BF"/>
<path d="M208.59 280.271H201.58V287.281H208.59V280.271Z" fill="#0404BF"/>
<path d="M208.59 273.271H201.58V280.271H208.59V273.271Z" fill="#0404BF"/>
<path d="M208.59 266.311H201.58V273.261H208.59V266.311Z" fill="#0404BF"/>
<path d="M208.59 259.32H201.58V266.32H208.59V259.32Z" fill="#0404BF"/>
<path d="M208.59 252.37H201.58V259.31H208.59V252.37Z" fill="#0404BF"/>
<path d="M208.59 245.36H201.58V252.37H208.59V245.36Z" fill="#0404BF"/>
<path d="M208.59 238.42H201.58V245.36H208.59V238.42Z" fill="#0404BF"/>
<path d="M208.59 231.41H201.58V238.42H208.59V231.41Z" fill="#F9C126"/>
<path d="M208.59 224.4H201.58V231.4H208.59V224.4Z" fill="#0404BF"/>
<path d="M208.59 217.46H201.58V224.4H208.59V217.46Z" fill="#0404BF"/>
<path d="M208.59 210.45H201.58V217.46H208.59V210.45Z" fill="#0404BF"/>
<path d="M208.59 203.511H201.58V210.451H208.59V203.511Z" fill="#0404BF"/>
<path d="M208.59 196.49H201.58V203.5H208.59V196.49Z" fill="#0404BF"/>
<path d="M208.59 189.551H201.58V196.491H208.59V189.551Z" fill="black"/>
<path d="M208.59 182.54H201.58V189.55H208.59V182.54Z" fill="#D8D7D6"/>
<path d="M208.59 175.601H201.58V182.541H208.59V175.601Z" fill="#D8D7D6"/>
<path d="M208.59 168.591H201.58V175.601H208.59V168.591Z" fill="#D8D7D6"/>
<path d="M208.59 161.58H201.58V168.59H208.59V161.58Z" fill="#D8D7D6"/>
<path d="M208.59 154.641H201.58V161.581H208.59V154.641Z" fill="#D8D7D6"/>
<path d="M208.59 147.63H201.58V154.64H208.59V147.63Z" fill="#9E9B98"/>
<path d="M208.59 140.69H201.58V147.63H208.59V140.69Z" fill="#D8D7D6"/>
<path d="M208.59 133.681H201.58V140.691H208.59V133.681Z" fill="#EFB589"/>
<path d="M208.59 126.74H201.58V133.68H208.59V126.74Z" fill="black"/>
<path d="M208.59 119.73H201.58V126.74H208.59V119.73Z" fill="#0404BF"/>
<path d="M208.59 112.721H201.58V119.731H208.59V112.721Z" fill="#0404BF"/>
<path d="M208.59 105.78H201.58V112.72H208.59V105.78Z" fill="#0404BF"/>
<path d="M208.59 98.7607H201.58V105.771H208.59V98.7607Z" fill="#0404BF"/>
<path d="M208.59 91.8203H201.58V98.7603H208.59V91.8203Z" fill="black"/>
<path d="M201.58 315.181H194.64V322.131H201.58V315.181Z" fill="#0404BF"/>
<path d="M201.58 308.181H194.64V315.181H201.58V308.181Z" fill="#0404BF"/>
<path d="M201.58 301.24H194.64V308.18H201.58V301.24Z" fill="#0404BF"/>
<path d="M201.58 294.221H194.64V301.231H201.58V294.221Z" fill="#0404BF"/>
<path d="M201.58 287.28H194.64V294.22H201.58V287.28Z" fill="#0404BF"/>
<path d="M201.58 280.271H194.64V287.281H201.58V280.271Z" fill="#0404BF"/>
<path d="M201.58 273.271H194.64V280.271H201.58V273.271Z" fill="#0404BF"/>
<path d="M201.58 266.311H194.64V273.261H201.58V266.311Z" fill="#0404BF"/>
<path d="M201.58 259.32H194.64V266.32H201.58V259.32Z" fill="#0404BF"/>
<path d="M201.58 252.37H194.64V259.31H201.58V252.37Z" fill="#0404BF"/>
<path d="M201.58 245.36H194.64V252.37H201.58V245.36Z" fill="#0404BF"/>
<path d="M201.58 238.42H194.64V245.36H201.58V238.42Z" fill="#0404BF"/>
<path d="M201.58 231.41H194.64V238.42H201.58V231.41Z" fill="#F9C126"/>
<path d="M201.58 224.4H194.64V231.4H201.58V224.4Z" fill="#0404BF"/>
<path d="M201.58 217.46H194.64V224.4H201.58V217.46Z" fill="#0404BF"/>
<path d="M201.58 210.45H194.64V217.46H201.58V210.45Z" fill="#0404BF"/>
<path d="M201.58 203.511H194.64V210.451H201.58V203.511Z" fill="#0404BF"/>
<path d="M201.58 196.49H194.64V203.5H201.58V196.49Z" fill="#0404BF"/>
<path d="M201.58 189.551H194.64V196.491H201.58V189.551Z" fill="#0404BF"/>
<path d="M201.58 182.54H194.64V189.55H201.58V182.54Z" fill="black"/>
<path d="M201.58 175.601H194.64V182.541H201.58V175.601Z" fill="#D8D7D6"/>
<path d="M201.58 168.591H194.64V175.601H201.58V168.591Z" fill="#D8D7D6"/>
<path d="M201.58 161.58H194.64V168.59H201.58V161.58Z" fill="#D8D7D6"/>
<path d="M201.58 154.641H194.64V161.581H201.58V154.641Z" fill="#D8D7D6"/>
<path d="M201.58 147.63H194.64V154.64H201.58V147.63Z" fill="#9E9B98"/>
<path d="M201.58 140.69H194.64V147.63H201.58V140.69Z" fill="#D8D7D6"/>
<path d="M201.58 133.681H194.64V140.691H201.58V133.681Z" fill="#EFB589"/>
<path d="M201.58 126.74H194.64V133.68H201.58V126.74Z" fill="black"/>
<path d="M201.58 119.73H194.64V126.74H201.58V119.73Z" fill="#0404BF"/>
<path d="M201.58 112.721H194.64V119.731H201.58V112.721Z" fill="#0404BF"/>
<path d="M201.58 105.78H194.64V112.72H201.58V105.78Z" fill="black"/>
<path d="M201.58 98.7607H194.64V105.771H201.58V98.7607Z" fill="black"/>
<path d="M194.64 315.181H187.63V322.131H194.64V315.181Z" fill="#0404BF"/>
<path d="M194.64 308.181H187.63V315.181H194.64V308.181Z" fill="#0404BF"/>
<path d="M194.64 301.24H187.63V308.18H194.64V301.24Z" fill="#0404BF"/>
<path d="M194.64 294.221H187.63V301.231H194.64V294.221Z" fill="#0404BF"/>
<path d="M194.64 287.28H187.63V294.22H194.64V287.28Z" fill="#0404BF"/>
<path d="M194.64 280.271H187.63V287.281H194.64V280.271Z" fill="#0404BF"/>
<path d="M194.64 273.271H187.63V280.271H194.64V273.271Z" fill="#0404BF"/>
<path d="M194.64 266.311H187.63V273.261H194.64V266.311Z" fill="#0404BF"/>
<path d="M194.64 259.32H187.63V266.32H194.64V259.32Z" fill="#0404BF"/>
<path d="M194.64 252.37H187.63V259.31H194.64V252.37Z" fill="#030384"/>
<path d="M194.64 245.36H187.63V252.37H194.64V245.36Z" fill="black"/>
<path d="M194.64 238.42H187.63V245.36H194.64V238.42Z" fill="black"/>
<path d="M194.64 231.41H187.63V238.42H194.64V231.41Z" fill="black"/>
<path d="M194.64 224.4H187.63V231.4H194.64V224.4Z" fill="black"/>
<path d="M194.64 217.46H187.63V224.4H194.64V217.46Z" fill="black"/>
<path d="M194.64 210.45H187.63V217.46H194.64V210.45Z" fill="black"/>
<path d="M194.64 203.511H187.63V210.451H194.64V203.511Z" fill="black"/>
<path d="M194.64 196.49H187.63V203.5H194.64V196.49Z" fill="black"/>
<path d="M194.64 189.551H187.63V196.491H194.64V189.551Z" fill="black"/>
<path d="M194.64 182.54H187.63V189.55H194.64V182.54Z" fill="black"/>
<path d="M194.64 175.601H187.63V182.541H194.64V175.601Z" fill="black"/>
<path d="M194.64 168.591H187.63V175.601H194.64V168.591Z" fill="#9E9B98"/>
<path d="M194.64 161.58H187.63V168.59H194.64V161.58Z" fill="#9E9B98"/>
<path d="M194.64 154.641H187.63V161.581H194.64V154.641Z" fill="black"/>
<path d="M194.64 147.63H187.63V154.64H194.64V147.63Z" fill="black"/>
<path d="M194.64 140.69H187.63V147.63H194.64V140.69Z" fill="black"/>
<path d="M194.64 133.681H187.63V140.691H194.64V133.681Z" fill="black"/>
<path d="M194.64 126.74H187.63V133.68H194.64V126.74Z" fill="#030384"/>
<path d="M194.64 119.73H187.63V126.74H194.64V119.73Z" fill="#0404BF"/>
<path d="M194.64 112.721H187.63V119.731H194.64V112.721Z" fill="#0404BF"/>
<path d="M194.64 105.78H187.63V112.72H194.64V105.78Z" fill="black"/>
<path d="M187.63 315.181H180.69V322.131H187.63V315.181Z" fill="black"/>
<path d="M187.63 308.181H180.69V315.181H187.63V308.181Z" fill="black"/>
<path d="M187.63 301.24H180.69V308.18H187.63V301.24Z" fill="black"/>
<path d="M187.63 294.221H180.69V301.231H187.63V294.221Z" fill="black"/>
<path d="M187.63 287.28H180.69V294.22H187.63V287.28Z" fill="black"/>
<path d="M187.63 280.271H180.69V287.281H187.63V280.271Z" fill="black"/>
<path d="M187.63 273.271H180.69V280.271H187.63V273.271Z" fill="black"/>
<path d="M187.63 266.311H180.69V273.261H187.63V266.311Z" fill="black"/>
<path d="M187.63 259.32H180.69V266.32H187.63V259.32Z" fill="black"/>
<path d="M187.63 252.37H180.69V259.31H187.63V252.37Z" fill="black"/>
<path d="M187.63 217.46H180.69V224.4H187.63V217.46Z" fill="black"/>
<path d="M187.63 210.45H180.69V217.46H187.63V210.45Z" fill="#030384"/>
<path d="M187.63 203.511H180.69V210.451H187.63V203.511Z" fill="#030384"/>
<path d="M187.63 196.49H180.69V203.5H187.63V196.49Z" fill="#030384"/>
<path d="M187.63 189.551H180.69V196.491H187.63V189.551Z" fill="black"/>
<path d="M187.63 168.591H180.69V175.601H187.63V168.591Z" fill="black"/>
<path d="M187.63 161.58H180.69V168.59H187.63V161.58Z" fill="black"/>
<path d="M187.63 133.681H180.69V140.691H187.63V133.681Z" fill="black"/>
<path d="M187.63 126.74H180.69V133.68H187.63V126.74Z" fill="#030384"/>
<path d="M187.63 119.73H180.69V126.74H187.63V119.73Z" fill="#0404BF"/>
<path d="M187.63 112.721H180.69V119.731H187.63V112.721Z" fill="black"/>
<path d="M180.69 217.46H173.68V224.4H180.69V217.46Z" fill="black"/>
<path d="M180.69 210.45H173.68V217.46H180.69V210.45Z" fill="#030384"/>
<path d="M180.69 203.511H173.68V210.451H180.69V203.511Z" fill="#030384"/>
<path d="M180.69 196.49H173.68V203.5H180.69V196.49Z" fill="#030384"/>
<path d="M180.69 189.551H173.68V196.491H180.69V189.551Z" fill="black"/>
<path d="M180.69 133.681H173.68V140.691H180.69V133.681Z" fill="black"/>
<path d="M180.69 126.74H173.68V133.68H180.69V126.74Z" fill="#030384"/>
<path d="M180.69 119.73H173.68V126.74H180.69V119.73Z" fill="black"/>
<path d="M173.68 217.46H166.74V224.4H173.68V217.46Z" fill="black"/>
<path d="M173.68 210.45H166.74V217.46H173.68V210.45Z" fill="#030384"/>
<path d="M173.68 203.511H166.74V210.451H173.68V203.511Z" fill="#030384"/>
<path d="M173.68 196.49H166.74V203.5H173.68V196.49Z" fill="#030384"/>
<path d="M173.68 189.551H166.74V196.491H173.68V189.551Z" fill="black"/>
<path d="M173.68 147.63H166.74V154.64H173.68V147.63Z" fill="black"/>
<path d="M173.68 140.69H166.74V147.63H173.68V140.69Z" fill="black"/>
<path d="M173.68 133.681H166.74V140.691H173.68V133.681Z" fill="black"/>
<path d="M173.68 126.74H166.74V133.68H173.68V126.74Z" fill="#030384"/>
<path d="M173.68 119.73H166.74V126.74H173.68V119.73Z" fill="black"/>
<path d="M166.74 217.46H159.73V224.4H166.74V217.46Z" fill="black"/>
<path d="M166.74 210.45H159.73V217.46H166.74V210.45Z" fill="black"/>
<path d="M166.74 203.511H159.73V210.451H166.74V203.511Z" fill="black"/>
<path d="M166.74 196.49H159.73V203.5H166.74V196.49Z" fill="black"/>
<path d="M166.74 189.551H159.73V196.491H166.74V189.551Z" fill="black"/>
<path d="M166.74 154.641H159.73V161.581H166.74V154.641Z" fill="black"/>
<path d="M166.74 147.63H159.73V154.64H166.74V147.63Z" fill="#FCB029"/>
<path d="M166.74 140.69H159.73V147.63H166.74V140.69Z" fill="#FCB029"/>
<path d="M166.74 133.681H159.73V140.691H166.74V133.681Z" fill="black"/>
<path d="M166.74 126.74H159.73V133.68H166.74V126.74Z" fill="black"/>
<path d="M166.74 119.73H159.73V126.74H166.74V119.73Z" fill="black"/>
<path d="M159.73 210.45H152.72V217.46H159.73V210.45Z" fill="black"/>
<path d="M159.73 203.511H152.72V210.451H159.73V203.511Z" fill="black"/>
<path d="M159.73 196.49H152.72V203.5H159.73V196.49Z" fill="black"/>
<path d="M159.73 189.551H152.72V196.491H159.73V189.551Z" fill="#EDB58C"/>
<path d="M159.73 182.54H152.72V189.55H159.73V182.54Z" fill="black"/>
<path d="M159.73 161.58H152.72V168.59H159.73V161.58Z" fill="black"/>
<path d="M159.73 154.641H152.72V161.581H159.73V154.641Z" fill="#FCB029"/>
<path d="M159.73 147.63H152.72V154.64H159.73V147.63Z" fill="#FCB029"/>
<path d="M159.73 140.69H152.72V147.63H159.73V140.69Z" fill="#2BE1F9"/>
<path d="M159.73 133.681H152.72V140.691H159.73V133.681Z" fill="#2BE1F9"/>
<path d="M159.73 126.74H152.72V133.68H159.73V126.74Z" fill="#2BE1F9"/>
<path d="M152.72 308.181H145.78V315.181H152.72V308.181Z" fill="black"/>
<path d="M152.72 301.24H145.78V308.18H152.72V301.24Z" fill="black"/>
<path d="M152.72 294.221H145.78V301.231H152.72V294.221Z" fill="black"/>
<path d="M152.72 287.28H145.78V294.22H152.72V287.28Z" fill="black"/>
<path d="M152.72 280.271H145.78V287.281H152.72V280.271Z" fill="black"/>
<path d="M152.72 273.271H145.78V280.271H152.72V273.271Z" fill="black"/>
<path d="M152.72 266.311H145.78V273.261H152.72V266.311Z" fill="black"/>
<path d="M152.72 259.32H145.78V266.32H152.72V259.32Z" fill="black"/>
<path d="M152.72 252.37H145.78V259.31H152.72V252.37Z" fill="black"/>
<path d="M152.72 245.36H145.78V252.37H152.72V245.36Z" fill="black"/>
<path d="M152.72 238.42H145.78V245.36H152.72V238.42Z" fill="black"/>
<path d="M152.72 231.41H145.78V238.42H152.72V231.41Z" fill="black"/>
<path d="M152.72 224.4H145.78V231.4H152.72V224.4Z" fill="black"/>
<path d="M152.72 217.46H145.78V224.4H152.72V217.46Z" fill="black"/>
<path d="M152.72 210.45H145.78V217.46H152.72V210.45Z" fill="black"/>
<path d="M152.72 203.511H145.78V210.451H152.72V203.511Z" fill="black"/>
<path d="M152.72 196.49H145.78V203.5H152.72V196.49Z" fill="#EDB58C"/>
<path d="M152.72 189.551H145.78V196.491H152.72V189.551Z" fill="#EDB58C"/>
<path d="M152.72 182.54H145.78V189.55H152.72V182.54Z" fill="black"/>
<path d="M152.72 175.601H145.78V182.541H152.72V175.601Z" fill="black"/>
<path d="M152.72 168.591H145.78V175.601H152.72V168.591Z" fill="black"/>
<path d="M152.72 161.58H145.78V168.59H152.72V161.58Z" fill="black"/>
<path d="M152.72 154.641H145.78V161.581H152.72V154.641Z" fill="black"/>
<path d="M152.72 147.63H145.78V154.64H152.72V147.63Z" fill="#2BE1F9"/>
<path d="M152.72 140.69H145.78V147.63H152.72V140.69Z" fill="#2BE1F9"/>
<path d="M152.72 133.681H145.78V140.691H152.72V133.681Z" fill="#2BE1F9"/>
<path d="M152.72 126.74H145.78V133.68H152.72V126.74Z" fill="#2BE1F9"/>
<path d="M152.72 119.73H145.78V126.74H152.72V119.73Z" fill="#2BE1F9"/>
<path d="M145.77 315.181H138.76V322.131H145.77V315.181Z" fill="black"/>
<path d="M145.77 308.181H138.76V315.181H145.77V308.181Z" fill="#823D27"/>
<path d="M145.77 301.24H138.76V308.18H145.77V301.24Z" fill="#823D27"/>
<path d="M145.77 294.221H138.76V301.231H145.77V294.221Z" fill="#823D27"/>
<path d="M145.77 287.28H138.76V294.22H145.77V287.28Z" fill="#823D27"/>
<path d="M145.77 280.271H138.76V287.281H145.77V280.271Z" fill="#823D27"/>
<path d="M145.77 273.271H138.76V280.271H145.77V273.271Z" fill="#823D27"/>
<path d="M145.77 266.311H138.76V273.261H145.77V266.311Z" fill="#823D27"/>
<path d="M145.77 259.32H138.76V266.32H145.77V259.32Z" fill="#823D27"/>
<path d="M145.77 252.37H138.76V259.31H145.77V252.37Z" fill="#823D27"/>
<path d="M145.77 245.36H138.76V252.37H145.77V245.36Z" fill="#823D27"/>
<path d="M145.77 238.42H138.76V245.36H145.77V238.42Z" fill="#823D27"/>
<path d="M145.77 231.41H138.76V238.42H145.77V231.41Z" fill="#823D27"/>
<path d="M145.77 224.4H138.76V231.4H145.77V224.4Z" fill="#823D27"/>
<path d="M145.77 217.46H138.76V224.4H145.77V217.46Z" fill="#823D27"/>
<path d="M145.77 210.45H138.76V217.46H145.77V210.45Z" fill="#823D27"/>
<path d="M145.77 203.511H138.76V210.451H145.77V203.511Z" fill="#823D27"/>
<path d="M145.77 196.49H138.76V203.5H145.77V196.49Z" fill="black"/>
<path d="M145.77 189.551H138.76V196.491H145.77V189.551Z" fill="#823D27"/>
<path d="M145.77 182.54H138.76V189.55H145.77V182.54Z" fill="black"/>
<path d="M145.77 175.601H138.76V182.541H145.77V175.601Z" fill="#823D27"/>
<path d="M145.77 168.591H138.76V175.601H145.77V168.591Z" fill="#823D27"/>
<path d="M145.77 161.58H138.76V168.59H145.77V161.58Z" fill="#823D27"/>
<path d="M145.77 154.641H138.76V161.581H145.77V154.641Z" fill="#FCB029"/>
<path d="M145.77 147.63H138.76V154.64H145.77V147.63Z" fill="#FCB029"/>
<path d="M145.77 140.69H138.76V147.63H145.77V140.69Z" fill="#FCB029"/>
<path d="M145.77 133.681H138.76V140.691H145.77V133.681Z" fill="#2BE1F9"/>
<path d="M145.77 126.74H138.76V133.68H145.77V126.74Z" fill="#2BE1F9"/>
<path d="M145.77 119.73H138.76V126.74H145.77V119.73Z" fill="#2BE1F9"/>
<path d="M145.77 112.721H138.76V119.731H145.77V112.721Z" fill="#2BE1F9"/>
<path d="M138.76 308.181H131.82V315.181H138.76V308.181Z" fill="black"/>
<path d="M138.76 301.24H131.82V308.18H138.76V301.24Z" fill="black"/>
<path d="M138.76 294.221H131.82V301.231H138.76V294.221Z" fill="black"/>
<path d="M138.76 287.28H131.82V294.22H138.76V287.28Z" fill="black"/>
<path d="M138.76 280.271H131.82V287.281H138.76V280.271Z" fill="black"/>
<path d="M138.76 273.271H131.82V280.271H138.76V273.271Z" fill="black"/>
<path d="M138.76 266.311H131.82V273.261H138.76V266.311Z" fill="black"/>
<path d="M138.76 259.32H131.82V266.32H138.76V259.32Z" fill="black"/>
<path d="M138.76 252.37H131.82V259.31H138.76V252.37Z" fill="black"/>
<path d="M138.76 245.36H131.82V252.37H138.76V245.36Z" fill="black"/>
<path d="M138.76 238.42H131.82V245.36H138.76V238.42Z" fill="black"/>
<path d="M138.76 231.41H131.82V238.42H138.76V231.41Z" fill="black"/>
<path d="M138.76 224.4H131.82V231.4H138.76V224.4Z" fill="black"/>
<path d="M138.76 217.46H131.82V224.4H138.76V217.46Z" fill="black"/>
<path d="M138.76 210.45H131.82V217.46H138.76V210.45Z" fill="black"/>
<path d="M138.76 203.511H131.82V210.451H138.76V203.511Z" fill="#EDB58C"/>
<path d="M138.76 196.49H131.82V203.5H138.76V196.49Z" fill="#823D27"/>
<path d="M138.76 189.551H131.82V196.491H138.76V189.551Z" fill="#EDB58C"/>
<path d="M138.76 182.54H131.82V189.55H138.76V182.54Z" fill="black"/>
<path d="M138.76 175.601H131.82V182.541H138.76V175.601Z" fill="black"/>
<path d="M138.76 168.591H131.82V175.601H138.76V168.591Z" fill="black"/>
<path d="M138.76 161.58H131.82V168.59H138.76V161.58Z" fill="black"/>
<path d="M138.76 154.641H131.82V161.581H138.76V154.641Z" fill="#2BE1F9"/>
<path d="M138.76 147.63H131.82V154.64H138.76V147.63Z" fill="#2BE1F9"/>
<path d="M138.76 140.69H131.82V147.63H138.76V140.69Z" fill="#2BE1F9"/>
<path d="M138.76 133.681H131.82V140.691H138.76V133.681Z" fill="#2BE1F9"/>
<path d="M138.76 126.74H131.82V133.68H138.76V126.74Z" fill="#2BE1F9"/>
<path d="M138.76 119.73H131.82V126.74H138.76V119.73Z" fill="#2BE1F9"/>
<path d="M138.76 112.721H131.82V119.731H138.76V112.721Z" fill="#2BE1F9"/>
<path d="M131.82 210.45H124.81V217.46H131.82V210.45Z" fill="black"/>
<path d="M131.82 203.511H124.81V210.451H131.82V203.511Z" fill="black"/>
<path d="M131.82 196.49H124.81V203.5H131.82V196.49Z" fill="black"/>
<path d="M131.82 189.551H124.81V196.491H131.82V189.551Z" fill="black"/>
<path d="M131.82 182.54H124.81V189.55H131.82V182.54Z" fill="black"/>
<path d="M131.82 161.58H124.81V168.59H131.82V161.58Z" fill="black"/>
<path d="M131.82 154.641H124.81V161.581H131.82V154.641Z" fill="#FCB029"/>
<path d="M131.82 147.63H124.81V154.64H131.82V147.63Z" fill="#2BE1F9"/>
<path d="M131.82 140.69H124.81V147.63H131.82V140.69Z" fill="#2BE1F9"/>
<path d="M131.82 133.681H124.81V140.691H131.82V133.681Z" fill="#2BE1F9"/>
<path d="M131.82 126.74H124.81V133.68H131.82V126.74Z" fill="#2BE1F9"/>
<path d="M131.82 119.73H124.81V126.74H131.82V119.73Z" fill="#2BE1F9"/>
<path d="M124.81 161.58H117.87V168.59H124.81V161.58Z" fill="black"/>
<path d="M124.81 154.641H117.87V161.581H124.81V154.641Z" fill="#FCB029"/>
<path d="M124.81 147.63H117.87V154.64H124.81V147.63Z" fill="#FCB029"/>
<path d="M124.81 140.69H117.87V147.63H124.81V140.69Z" fill="#2BE1F9"/>
<path d="M124.81 133.681H117.87V140.691H124.81V133.681Z" fill="#2BE1F9"/>
<path d="M124.81 126.74H117.87V133.68H124.81V126.74Z" fill="#2BE1F9"/>
<path d="M117.87 154.641H110.86V161.581H117.87V154.641Z" fill="black"/>
<path d="M117.87 147.63H110.86V154.64H117.87V147.63Z" fill="#FCB029"/>
<path d="M117.87 140.69H110.86V147.63H117.87V140.69Z" fill="#FCB029"/>
<path d="M110.86 147.63H103.92V154.64H110.86V147.63Z" fill="black"/>
<path d="M110.86 140.69H103.92V147.63H110.86V140.69Z" fill="black"/>
</svg>
