<svg width="400" height="400" viewBox="0 0 400 400" fill="none" xmlns="http://www.w3.org/2000/svg">
<path d="M200 385.78C302.603 385.78 385.78 302.603 385.78 200C385.78 97.3963 302.603 14.2197 200 14.2197C97.3965 14.2197 14.22 97.3963 14.22 200C14.22 302.603 97.3965 385.78 200 385.78Z" fill="black"/>
<path d="M200 392.78C93.7 392.78 7.22 306.3 7.22 200C7.22 93.6997 93.7 7.21973 200 7.21973C306.3 7.21973 392.78 93.6997 392.78 200C392.78 306.3 306.3 392.78 200 392.78ZM200 21.2197C101.42 21.2197 21.22 101.42 21.22 200C21.22 298.58 101.42 378.78 200 378.78C298.58 378.78 378.78 298.58 378.78 200C378.78 101.42 298.58 21.2197 200 21.2197Z" fill="#455360"/>
<path d="M315.35 236.771H309.11V242.951H315.35V236.771Z" fill="#455360"/>
<path d="M315.35 230.53H309.11V236.77H315.35V230.53Z" fill="#455360"/>
<path d="M315.35 224.29H309.11V230.53H315.35V224.29Z" fill="#455360"/>
<path d="M315.35 218.101H309.11V224.281H315.35V218.101Z" fill="#455360"/>
<path d="M309.11 242.96H302.93V249.2H309.11V242.96Z" fill="#455379"/>
<path d="M309.11 211.86H302.93V218.1H309.11V211.86Z" fill="black"/>
<path d="M302.93 236.771H296.69V242.951H302.93V236.771Z" fill="#455360"/>
<path d="M302.93 230.53H296.69V236.77H302.93V230.53Z" fill="#455360"/>
<path d="M302.93 224.29H296.69V230.53H302.93V224.29Z" fill="#455360"/>
<path d="M302.93 218.101H296.69V224.281H302.93V218.101Z" fill="black"/>
<path d="M302.93 211.86H296.69V218.1H302.93V211.86Z" fill="black"/>
<path d="M302.93 205.681H296.69V211.861H302.93V205.681Z" fill="black"/>
<path d="M296.69 242.96H290.45V249.2H296.69V242.96Z" fill="#455379"/>
<path d="M296.69 218.101H290.45V224.281H296.69V218.101Z" fill="black"/>
<path d="M296.69 211.86H290.45V218.1H296.69V211.86Z" fill="black"/>
<path d="M296.69 205.681H290.45V211.861H296.69V205.681Z" fill="black"/>
<path d="M290.44 211.86H284.25V218.1H290.44V211.86Z" fill="black"/>
<path d="M290.44 205.681H284.25V211.861H290.44V205.681Z" fill="black"/>
<path d="M284.26 230.53H278.02V236.77H284.26V230.53Z" fill="#455360"/>
<path d="M284.26 224.29H278.02V230.53H284.26V224.29Z" fill="#455360"/>
<path d="M284.26 218.101H278.02V224.281H284.26V218.101Z" fill="#455360"/>
<path d="M284.26 211.86H278.02V218.1H284.26V211.86Z" fill="black"/>
<path d="M284.26 205.681H278.02V211.861H284.26V205.681Z" fill="black"/>
<path d="M284.26 199.431H278.02V205.671H284.26V199.431Z" fill="black"/>
<path d="M284.26 193.25H278.02V199.43H284.26V193.25Z" fill="black"/>
<path d="M284.26 187.011H278.02V193.251H284.26V187.011Z" fill="black"/>
<path d="M278.01 236.771H271.83V242.951H278.01V236.771Z" fill="#455379"/>
<path d="M278.01 205.681H271.83V211.861H278.01V205.681Z" fill="black"/>
<path d="M278.01 199.431H271.83V205.671H278.01V199.431Z" fill="#2D1212"/>
<path d="M278.01 193.25H271.83V199.43H278.01V193.25Z" fill="#2D1212"/>
<path d="M278.01 187.011H271.83V193.251H278.01V187.011Z" fill="#2D1212"/>
<path d="M278.01 180.83H271.83V187.01H278.01V180.83Z" fill="black"/>
<path d="M278.01 174.58H271.83V180.82H278.01V174.58Z" fill="black"/>
<path d="M278.01 168.341H271.83V174.581H278.01V168.341Z" fill="black"/>
<path d="M271.83 199.431H265.59V205.671H271.83V199.431Z" fill="black"/>
<path d="M271.83 193.25H265.59V199.43H271.83V193.25Z" fill="#2D1212"/>
<path d="M271.83 187.011H265.59V193.251H271.83V187.011Z" fill="#2D1212"/>
<path d="M271.83 180.83H265.59V187.01H271.83V180.83Z" fill="#2D1212"/>
<path d="M271.83 174.58H265.59V180.82H271.83V174.58Z" fill="#2D1212"/>
<path d="M271.83 168.341H265.59V174.581H271.83V168.341Z" fill="#2D1212"/>
<path d="M271.83 162.16H265.59V168.34H271.83V162.16Z" fill="black"/>
<path d="M265.59 193.25H259.41V199.43H265.59V193.25Z" fill="black"/>
<path d="M265.59 187.011H259.41V193.251H265.59V187.011Z" fill="#2D1212"/>
<path d="M265.59 180.83H259.41V187.01H265.59V180.83Z" fill="#2D1212"/>
<path d="M265.59 174.58H259.41V180.82H265.59V174.58Z" fill="#2D1212"/>
<path d="M265.59 168.341H259.41V174.581H265.59V168.341Z" fill="#2D1212"/>
<path d="M265.59 162.16H259.41V168.34H265.59V162.16Z" fill="#2D1212"/>
<path d="M265.59 155.91H259.41V162.15H265.59V155.91Z" fill="black"/>
<path d="M259.4 317.57H253.16V323.75H259.4V317.57Z" fill="#CE0505"/>
<path d="M259.4 311.341H253.16V317.581H259.4V311.341Z" fill="#CE0505"/>
<path d="M259.4 305.141H253.16V311.331H259.4V305.141Z" fill="#CE0505"/>
<path d="M259.4 298.91H253.16V305.15H259.4V298.91Z" fill="#E80C0C"/>
<path d="M259.4 292.721H253.16V298.901H259.4V292.721Z" fill="#E80C0C"/>
<path d="M259.4 286.48H253.16V292.72H259.4V286.48Z" fill="#E80C0C"/>
<path d="M259.4 280.301H253.16V286.481H259.4V280.301Z" fill="black"/>
<path d="M259.4 267.811H253.16V274.051H259.4V267.811Z" fill="black"/>
<path d="M259.4 261.62H253.16V267.81H259.4V261.62Z" fill="black"/>
<path d="M259.4 211.86H253.16V218.1H259.4V211.86Z" fill="black"/>
<path d="M259.4 205.681H253.16V211.861H259.4V205.681Z" fill="black"/>
<path d="M259.4 199.431H253.16V205.671H259.4V199.431Z" fill="black"/>
<path d="M259.4 193.25H253.16V199.43H259.4V193.25Z" fill="black"/>
<path d="M259.4 187.011H253.16V193.251H259.4V187.011Z" fill="black"/>
<path d="M259.4 180.83H253.16V187.01H259.4V180.83Z" fill="#2D1212"/>
<path d="M259.4 174.58H253.16V180.82H259.4V174.58Z" fill="#2D1212"/>
<path d="M259.4 168.341H253.16V174.581H259.4V168.341Z" fill="#2D1212"/>
<path d="M259.4 162.16H253.16V168.34H259.4V162.16Z" fill="#2D1212"/>
<path d="M259.4 155.91H253.16V162.15H259.4V155.91Z" fill="black"/>
<path d="M259.4 143.48H253.16V149.72H259.4V143.48Z" fill="black"/>
<path d="M259.4 137.301H253.16V143.481H259.4V137.301Z" fill="black"/>
<path d="M259.4 131.061H253.16V137.301H259.4V131.061Z" fill="black"/>
<path d="M259.4 124.811H253.16V131.051H259.4V124.811Z" fill="black"/>
<path d="M259.4 118.63H253.16V124.81H259.4V118.63Z" fill="black"/>
<path d="M253.16 292.721H246.92V298.901H253.16V292.721Z" fill="#E80C0C"/>
<path d="M253.16 286.48H246.92V292.72H253.16V286.48Z" fill="#E80C0C"/>
<path d="M253.16 280.301H246.92V286.481H253.16V280.301Z" fill="#FF0000"/>
<path d="M253.16 274.051H246.92V280.291H253.16V274.051Z" fill="black"/>
<path d="M253.16 267.811H246.92V274.051H253.16V267.811Z" fill="#2D1212"/>
<path d="M253.16 261.62H246.92V267.81H253.16V261.62Z" fill="black"/>
<path d="M253.16 255.391H246.92V261.631H253.16V255.391Z" fill="black"/>
<path d="M253.16 249.2H246.92V255.38H253.16V249.2Z" fill="black"/>
<path d="M253.16 242.96H246.92V249.2H253.16V242.96Z" fill="black"/>
<path d="M253.16 236.771H246.92V242.951H253.16V236.771Z" fill="black"/>
<path d="M253.16 180.83H246.92V187.01H253.16V180.83Z" fill="black"/>
<path d="M253.16 174.58H246.92V180.82H253.16V174.58Z" fill="#2D1212"/>
<path d="M253.16 168.341H246.92V174.581H253.16V168.341Z" fill="#2D1212"/>
<path d="M253.16 162.16H246.92V168.34H253.16V162.16Z" fill="#2D1212"/>
<path d="M253.16 155.91H246.92V162.15H253.16V155.91Z" fill="#2D1212"/>
<path d="M253.16 149.73H246.92V155.91H253.16V149.73Z" fill="black"/>
<path d="M253.16 137.301H246.92V143.481H253.16V137.301Z" fill="black"/>
<path d="M253.16 131.061H246.92V137.301H253.16V131.061Z" fill="#2D1212"/>
<path d="M253.16 124.811H246.92V131.051H253.16V124.811Z" fill="#2D1212"/>
<path d="M253.16 118.63H246.92V124.81H253.16V118.63Z" fill="#2D1212"/>
<path d="M253.16 112.391H246.92V118.631H253.16V112.391Z" fill="black"/>
<path d="M253.16 106.21H246.92V112.39H253.16V106.21Z" fill="black"/>
<path d="M246.92 305.141H240.74V311.331H246.92V305.141Z" fill="#C40505"/>
<path d="M246.92 298.91H240.74V305.15H246.92V298.91Z" fill="#CE0505"/>
<path d="M246.92 292.721H240.74V298.901H246.92V292.721Z" fill="#CE0505"/>
<path d="M246.92 286.48H240.74V292.72H246.92V286.48Z" fill="#2D1212"/>
<path d="M246.92 280.301H240.74V286.481H246.92V280.301Z" fill="#2D1212"/>
<path d="M246.92 274.051H240.74V280.291H246.92V274.051Z" fill="#FF0000"/>
<path d="M246.92 267.811H240.74V274.051H246.92V267.811Z" fill="#2D1212"/>
<path d="M246.92 261.62H240.74V267.81H246.92V261.62Z" fill="#2D1212"/>
<path d="M246.92 255.391H240.74V261.631H246.92V255.391Z" fill="#2D1212"/>
<path d="M246.92 249.2H240.74V255.38H246.92V249.2Z" fill="#2D1212"/>
<path d="M246.92 242.96H240.74V249.2H246.92V242.96Z" fill="#2D1212"/>
<path d="M246.92 236.771H240.74V242.951H246.92V236.771Z" fill="#2D1212"/>
<path d="M246.92 230.53H240.74V236.77H246.92V230.53Z" fill="black"/>
<path d="M246.92 224.29H240.74V230.53H246.92V224.29Z" fill="black"/>
<path d="M246.92 218.101H240.74V224.281H246.92V218.101Z" fill="black"/>
<path d="M246.92 211.86H240.74V218.1H246.92V211.86Z" fill="black"/>
<path d="M246.92 205.681H240.74V211.861H246.92V205.681Z" fill="black"/>
<path d="M246.92 199.431H240.74V205.671H246.92V199.431Z" fill="black"/>
<path d="M246.92 193.25H240.74V199.43H246.92V193.25Z" fill="black"/>
<path d="M246.92 187.011H240.74V193.251H246.92V187.011Z" fill="black"/>
<path d="M246.92 180.83H240.74V187.01H246.92V180.83Z" fill="#2D1212"/>
<path d="M246.92 174.58H240.74V180.82H246.92V174.58Z" fill="#2D1212"/>
<path d="M246.92 168.341H240.74V174.581H246.92V168.341Z" fill="#2D1212"/>
<path d="M246.92 162.16H240.74V168.34H246.92V162.16Z" fill="#2D1212"/>
<path d="M246.92 155.91H240.74V162.15H246.92V155.91Z" fill="#2D1212"/>
<path d="M246.92 149.73H240.74V155.91H246.92V149.73Z" fill="#2D1212"/>
<path d="M246.92 143.48H240.74V149.72H246.92V143.48Z" fill="black"/>
<path d="M246.92 131.061H240.74V137.301H246.92V131.061Z" fill="black"/>
<path d="M246.92 124.811H240.74V131.051H246.92V124.811Z" fill="#321E1E"/>
<path d="M246.92 118.63H240.74V124.81H246.92V118.63Z" fill="#321E1E"/>
<path d="M246.92 112.391H240.74V118.631H246.92V112.391Z" fill="#321E1E"/>
<path d="M246.92 106.21H240.74V112.39H246.92V106.21Z" fill="#321E1E"/>
<path d="M246.92 99.96H240.74V106.2H246.92V99.96Z" fill="black"/>
<path d="M240.73 292.721H234.49V298.901H240.73V292.721Z" fill="#C40505"/>
<path d="M240.73 286.48H234.49V292.72H240.73V286.48Z" fill="#321E1E"/>
<path d="M240.73 280.301H234.49V286.481H240.73V280.301Z" fill="#321E1E"/>
<path d="M240.73 274.051H234.49V280.291H240.73V274.051Z" fill="#2D1212"/>
<path d="M240.73 267.811H234.49V274.051H240.73V267.811Z" fill="#321E1E"/>
<path d="M240.73 261.62H234.49V267.81H240.73V261.62Z" fill="#321E1E"/>
<path d="M240.73 255.391H234.49V261.631H240.73V255.391Z" fill="#321E1E"/>
<path d="M240.73 249.2H234.49V255.38H240.73V249.2Z" fill="#321E1E"/>
<path d="M240.73 242.96H234.49V249.2H240.73V242.96Z" fill="#321E1E"/>
<path d="M240.73 236.771H234.49V242.951H240.73V236.771Z" fill="#2D1212"/>
<path d="M240.73 230.53H234.49V236.77H240.73V230.53Z" fill="#2D1212"/>
<path d="M240.73 224.29H234.49V230.53H240.73V224.29Z" fill="#2D1212"/>
<path d="M240.73 218.101H234.49V224.281H240.73V218.101Z" fill="#2D1212"/>
<path d="M240.73 211.86H234.49V218.1H240.73V211.86Z" fill="#2D1212"/>
<path d="M240.73 205.681H234.49V211.861H240.73V205.681Z" fill="#2D1212"/>
<path d="M240.73 199.431H234.49V205.671H240.73V199.431Z" fill="#2D1212"/>
<path d="M240.73 193.25H234.49V199.43H240.73V193.25Z" fill="#2D1212"/>
<path d="M240.73 187.011H234.49V193.251H240.73V187.011Z" fill="#2D1212"/>
<path d="M240.73 180.83H234.49V187.01H240.73V180.83Z" fill="#2D1212"/>
<path d="M240.73 174.58H234.49V180.82H240.73V174.58Z" fill="#321E1E"/>
<path d="M240.73 168.341H234.49V174.581H240.73V168.341Z" fill="#2D1212"/>
<path d="M240.73 162.16H234.49V168.34H240.73V162.16Z" fill="#321E1E"/>
<path d="M240.73 155.91H234.49V162.15H240.73V155.91Z" fill="#2D1212"/>
<path d="M240.73 149.73H234.49V155.91H240.73V149.73Z" fill="#2D1212"/>
<path d="M240.73 143.48H234.49V149.72H240.73V143.48Z" fill="#2D1212"/>
<path d="M240.73 137.301H234.49V143.481H240.73V137.301Z" fill="black"/>
<path d="M240.73 131.061H234.49V137.301H240.73V131.061Z" fill="#321E1E"/>
<path d="M240.73 124.811H234.49V131.051H240.73V124.811Z" fill="#321E1E"/>
<path d="M240.73 118.63H234.49V124.81H240.73V118.63Z" fill="#321E1E"/>
<path d="M240.73 112.391H234.49V118.631H240.73V112.391Z" fill="#321E1E"/>
<path d="M240.73 106.21H234.49V112.39H240.73V106.21Z" fill="#321E1E"/>
<path d="M240.73 99.96H234.49V106.2H240.73V99.96Z" fill="#321E1E"/>
<path d="M240.73 93.7803H234.49V99.9603H240.73V93.7803Z" fill="black"/>
<path d="M234.49 298.91H228.31V305.15H234.49V298.91Z" fill="#C60606"/>
<path d="M234.49 292.721H228.31V298.901H234.49V292.721Z" fill="#CE0505"/>
<path d="M234.49 286.48H228.31V292.72H234.49V286.48Z" fill="#321E1E"/>
<path d="M234.49 280.301H228.31V286.481H234.49V280.301Z" fill="#CE0505"/>
<path d="M234.49 274.051H228.31V280.291H234.49V274.051Z" fill="#E80C0C"/>
<path d="M234.49 267.811H228.31V274.051H234.49V267.811Z" fill="#321E1E"/>
<path d="M234.49 261.62H228.31V267.81H234.49V261.62Z" fill="#321E1E"/>
<path d="M234.49 255.391H228.31V261.631H234.49V255.391Z" fill="#321E1E"/>
<path d="M234.49 249.2H228.31V255.38H234.49V249.2Z" fill="#321E1E"/>
<path d="M234.49 242.96H228.31V249.2H234.49V242.96Z" fill="#321E1E"/>
<path d="M234.49 236.771H228.31V242.951H234.49V236.771Z" fill="#321E1E"/>
<path d="M234.49 230.53H228.31V236.77H234.49V230.53Z" fill="#321E1E"/>
<path d="M234.49 224.29H228.31V230.53H234.49V224.29Z" fill="#321E1E"/>
<path d="M234.49 218.101H228.31V224.281H234.49V218.101Z" fill="#321E1E"/>
<path d="M234.49 211.86H228.31V218.1H234.49V211.86Z" fill="#321E1E"/>
<path d="M234.49 205.681H228.31V211.861H234.49V205.681Z" fill="#321E1E"/>
<path d="M234.49 199.431H228.31V205.671H234.49V199.431Z" fill="#321E1E"/>
<path d="M234.49 193.25H228.31V199.43H234.49V193.25Z" fill="#321E1E"/>
<path d="M234.49 187.011H228.31V193.251H234.49V187.011Z" fill="#321E1E"/>
<path d="M234.49 180.83H228.31V187.01H234.49V180.83Z" fill="#321E1E"/>
<path d="M234.49 174.58H228.31V180.82H234.49V174.58Z" fill="#321E1E"/>
<path d="M234.49 168.341H228.31V174.581H234.49V168.341Z" fill="#321E1E"/>
<path d="M234.49 162.16H228.31V168.34H234.49V162.16Z" fill="#321E1E"/>
<path d="M234.49 155.91H228.31V162.15H234.49V155.91Z" fill="#321E1E"/>
<path d="M234.49 149.73H228.31V155.91H234.49V149.73Z" fill="#2D1212"/>
<path d="M234.49 143.48H228.31V149.72H234.49V143.48Z" fill="#2D1212"/>
<path d="M234.49 137.301H228.31V143.481H234.49V137.301Z" fill="#321E1E"/>
<path d="M234.49 131.061H228.31V137.301H234.49V131.061Z" fill="#321E1E"/>
<path d="M234.49 124.811H228.31V131.051H234.49V124.811Z" fill="#0C0C0C"/>
<path d="M234.49 118.63H228.31V124.81H234.49V118.63Z" fill="#0C0C0C"/>
<path d="M234.49 112.391H228.31V118.631H234.49V112.391Z" fill="#FF0000"/>
<path d="M234.49 106.21H228.31V112.39H234.49V106.21Z" fill="#0C0C0C"/>
<path d="M234.49 99.96H228.31V106.2H234.49V99.96Z" fill="#321E1E"/>
<path d="M234.49 93.7803H228.31V99.9603H234.49V93.7803Z" fill="#321E1E"/>
<path d="M234.49 87.54H228.31V93.78H234.49V87.54Z" fill="black"/>
<path d="M228.31 311.341H222.07V317.581H228.31V311.341Z" fill="#C40505"/>
<path d="M228.31 305.141H222.07V311.331H228.31V305.141Z" fill="#C60606"/>
<path d="M228.31 298.91H222.07V305.15H228.31V298.91Z" fill="#C60606"/>
<path d="M228.31 292.721H222.07V298.901H228.31V292.721Z" fill="#E50000"/>
<path d="M228.31 286.48H222.07V292.72H228.31V286.48Z" fill="#E80C0C"/>
<path d="M228.31 280.301H222.07V286.481H228.31V280.301Z" fill="#E80C0C"/>
<path d="M228.31 274.051H222.07V280.291H228.31V274.051Z" fill="#321E1E"/>
<path d="M228.31 267.811H222.07V274.051H228.31V267.811Z" fill="#321E1E"/>
<path d="M228.31 261.62H222.07V267.81H228.31V261.62Z" fill="#321E1E"/>
<path d="M228.31 255.391H222.07V261.631H228.31V255.391Z" fill="#321E1E"/>
<path d="M228.31 249.2H222.07V255.38H228.31V249.2Z" fill="#321E1E"/>
<path d="M228.31 242.96H222.07V249.2H228.31V242.96Z" fill="#321E1E"/>
<path d="M228.31 236.771H222.07V242.951H228.31V236.771Z" fill="#321E1E"/>
<path d="M228.31 230.53H222.07V236.77H228.31V230.53Z" fill="#321E1E"/>
<path d="M228.31 224.29H222.07V230.53H228.31V224.29Z" fill="#321E1E"/>
<path d="M228.31 218.101H222.07V224.281H228.31V218.101Z" fill="#321E1E"/>
<path d="M228.31 211.86H222.07V218.1H228.31V211.86Z" fill="#321E1E"/>
<path d="M228.31 205.681H222.07V211.861H228.31V205.681Z" fill="#321E1E"/>
<path d="M228.31 199.431H222.07V205.671H228.31V199.431Z" fill="#321E1E"/>
<path d="M228.31 193.25H222.07V199.43H228.31V193.25Z" fill="#321E1E"/>
<path d="M228.31 187.011H222.07V193.251H228.31V187.011Z" fill="#321E1E"/>
<path d="M228.31 180.83H222.07V187.01H228.31V180.83Z" fill="#321E1E"/>
<path d="M228.31 174.58H222.07V180.82H228.31V174.58Z" fill="#321E1E"/>
<path d="M228.31 168.341H222.07V174.581H228.31V168.341Z" fill="#321E1E"/>
<path d="M228.31 162.16H222.07V168.34H228.31V162.16Z" fill="#321E1E"/>
<path d="M228.31 155.91H222.07V162.15H228.31V155.91Z" fill="#321E1E"/>
<path d="M228.31 149.73H222.07V155.91H228.31V149.73Z" fill="#321E1E"/>
<path d="M228.31 143.48H222.07V149.72H228.31V143.48Z" fill="#2D1212"/>
<path d="M228.31 137.301H222.07V143.481H228.31V137.301Z" fill="#321E1E"/>
<path d="M228.31 131.061H222.07V137.301H228.31V131.061Z" fill="#0C0C0C"/>
<path d="M228.31 124.811H222.07V131.051H228.31V124.811Z" fill="#0C0C0C"/>
<path d="M228.31 118.63H222.07V124.81H228.31V118.63Z" fill="#0C0C0C"/>
<path d="M228.31 112.391H222.07V118.631H228.31V112.391Z" fill="#FF0000"/>
<path d="M228.31 106.21H222.07V112.39H228.31V106.21Z" fill="#0C0C0C"/>
<path d="M228.31 99.96H222.07V106.2H228.31V99.96Z" fill="#0C0C0C"/>
<path d="M228.31 93.7803H222.07V99.9603H228.31V93.7803Z" fill="#321E1E"/>
<path d="M228.31 87.54H222.07V93.78H228.31V87.54Z" fill="black"/>
<path d="M228.31 81.3604H222.07V87.5404H228.31V81.3604Z" fill="black"/>
<path d="M222.07 311.341H215.89V317.581H222.07V311.341Z" fill="#C40505"/>
<path d="M222.07 305.141H215.89V311.331H222.07V305.141Z" fill="#E50000"/>
<path d="M222.07 298.91H215.89V305.15H222.07V298.91Z" fill="#E50000"/>
<path d="M222.07 292.721H215.89V298.901H222.07V292.721Z" fill="#E50000"/>
<path d="M222.07 286.48H215.89V292.72H222.07V286.48Z" fill="black"/>
<path d="M222.07 280.301H215.89V286.481H222.07V280.301Z" fill="#E80C0C"/>
<path d="M222.07 274.051H215.89V280.291H222.07V274.051Z" fill="#E80C0C"/>
<path d="M222.07 267.811H215.89V274.051H222.07V267.811Z" fill="#321E1E"/>
<path d="M222.07 261.62H215.89V267.81H222.07V261.62Z" fill="#321E1E"/>
<path d="M222.07 255.391H215.89V261.631H222.07V255.391Z" fill="#321E1E"/>
<path d="M222.07 249.2H215.89V255.38H222.07V249.2Z" fill="#321E1E"/>
<path d="M222.07 242.96H215.89V249.2H222.07V242.96Z" fill="#321E1E"/>
<path d="M222.07 236.771H215.89V242.951H222.07V236.771Z" fill="#321E1E"/>
<path d="M222.07 230.53H215.89V236.77H222.07V230.53Z" fill="#321E1E"/>
<path d="M222.07 224.29H215.89V230.53H222.07V224.29Z" fill="#321E1E"/>
<path d="M222.07 218.101H215.89V224.281H222.07V218.101Z" fill="#321E1E"/>
<path d="M222.07 211.86H215.89V218.1H222.07V211.86Z" fill="#321E1E"/>
<path d="M222.07 205.681H215.89V211.861H222.07V205.681Z" fill="#321E1E"/>
<path d="M222.07 199.431H215.89V205.671H222.07V199.431Z" fill="#321E1E"/>
<path d="M222.07 193.25H215.89V199.43H222.07V193.25Z" fill="#321E1E"/>
<path d="M222.07 187.011H215.89V193.251H222.07V187.011Z" fill="#321E1E"/>
<path d="M222.07 180.83H215.89V187.01H222.07V180.83Z" fill="#321E1E"/>
<path d="M222.07 174.58H215.89V180.82H222.07V174.58Z" fill="#321E1E"/>
<path d="M222.07 168.341H215.89V174.581H222.07V168.341Z" fill="#321E1E"/>
<path d="M222.07 162.16H215.89V168.34H222.07V162.16Z" fill="#321E1E"/>
<path d="M222.07 155.91H215.89V162.15H222.07V155.91Z" fill="#321E1E"/>
<path d="M222.07 149.73H215.89V155.91H222.07V149.73Z" fill="#321E1E"/>
<path d="M222.07 143.48H215.89V149.72H222.07V143.48Z" fill="#2D1212"/>
<path d="M222.07 137.301H215.89V143.481H222.07V137.301Z" fill="#321E1E"/>
<path d="M222.07 131.061H215.89V137.301H222.07V131.061Z" fill="#0C0C0C"/>
<path d="M222.07 124.811H215.89V131.051H222.07V124.811Z" fill="#0C0C0C"/>
<path d="M222.07 118.63H215.89V124.81H222.07V118.63Z" fill="#0C0C0C"/>
<path d="M222.07 112.391H215.89V118.631H222.07V112.391Z" fill="#0C0C0C"/>
<path d="M222.07 106.21H215.89V112.39H222.07V106.21Z" fill="#0C0C0C"/>
<path d="M222.07 99.96H215.89V106.2H222.07V99.96Z" fill="#0C0C0C"/>
<path d="M222.07 93.7803H215.89V99.9603H222.07V93.7803Z" fill="black"/>
<path d="M222.07 87.54H215.89V93.78H222.07V87.54Z" fill="#321E1E"/>
<path d="M222.07 81.3604H215.89V87.5404H222.07V81.3604Z" fill="black"/>
<path d="M215.88 323.761H209.64V330.001H215.88V323.761Z" fill="#C40505"/>
<path d="M215.88 317.57H209.64V323.75H215.88V317.57Z" fill="#C40505"/>
<path d="M215.88 311.341H209.64V317.581H215.88V311.341Z" fill="#E50000"/>
<path d="M215.88 305.141H209.64V311.331H215.88V305.141Z" fill="#E50000"/>
<path d="M215.88 298.91H209.64V305.15H215.88V298.91Z" fill="black"/>
<path d="M215.88 292.721H209.64V298.901H215.88V292.721Z" fill="black"/>
<path d="M215.88 274.051H209.64V280.291H215.88V274.051Z" fill="#2D1212"/>
<path d="M215.88 267.811H209.64V274.051H215.88V267.811Z" fill="#2D1212"/>
<path d="M215.88 261.62H209.64V267.81H215.88V261.62Z" fill="#321E1E"/>
<path d="M215.88 255.391H209.64V261.631H215.88V255.391Z" fill="#321E1E"/>
<path d="M215.88 249.2H209.64V255.38H215.88V249.2Z" fill="#321E1E"/>
<path d="M215.88 242.96H209.64V249.2H215.88V242.96Z" fill="#321E1E"/>
<path d="M215.88 236.771H209.64V242.951H215.88V236.771Z" fill="#321E1E"/>
<path d="M215.88 230.53H209.64V236.77H215.88V230.53Z" fill="#321E1E"/>
<path d="M215.88 224.29H209.64V230.53H215.88V224.29Z" fill="#321E1E"/>
<path d="M215.88 218.101H209.64V224.281H215.88V218.101Z" fill="#321E1E"/>
<path d="M215.88 211.86H209.64V218.1H215.88V211.86Z" fill="#321E1E"/>
<path d="M215.88 205.681H209.64V211.861H215.88V205.681Z" fill="#321E1E"/>
<path d="M215.88 199.431H209.64V205.671H215.88V199.431Z" fill="#321E1E"/>
<path d="M215.88 193.25H209.64V199.43H215.88V193.25Z" fill="#321E1E"/>
<path d="M215.88 187.011H209.64V193.251H215.88V187.011Z" fill="#321E1E"/>
<path d="M215.88 180.83H209.64V187.01H215.88V180.83Z" fill="#321E1E"/>
<path d="M215.88 174.58H209.64V180.82H215.88V174.58Z" fill="#321E1E"/>
<path d="M215.88 168.341H209.64V174.581H215.88V168.341Z" fill="#321E1E"/>
<path d="M215.88 162.16H209.64V168.34H215.88V162.16Z" fill="#321E1E"/>
<path d="M215.88 155.91H209.64V162.15H215.88V155.91Z" fill="#321E1E"/>
<path d="M215.88 149.73H209.64V155.91H215.88V149.73Z" fill="#321E1E"/>
<path d="M215.88 143.48H209.64V149.72H215.88V143.48Z" fill="#2D1212"/>
<path d="M215.88 137.301H209.64V143.481H215.88V137.301Z" fill="#321E1E"/>
<path d="M215.88 131.061H209.64V137.301H215.88V131.061Z" fill="#0C0C0C"/>
<path d="M215.88 124.811H209.64V131.051H215.88V124.811Z" fill="#0C0C0C"/>
<path d="M215.88 118.63H209.64V124.81H215.88V118.63Z" fill="#0C0C0C"/>
<path d="M215.88 112.391H209.64V118.631H215.88V112.391Z" fill="black"/>
<path d="M215.88 106.21H209.64V112.39H215.88V106.21Z" fill="#0C0C0C"/>
<path d="M215.88 99.96H209.64V106.2H215.88V99.96Z" fill="#0C0C0C"/>
<path d="M215.88 93.7803H209.64V99.9603H215.88V93.7803Z" fill="black"/>
<path d="M215.88 87.54H209.64V93.78H215.88V87.54Z" fill="#321E1E"/>
<path d="M215.88 81.3604H209.64V87.5404H215.88V81.3604Z" fill="black"/>
<path d="M209.64 280.301H203.46V286.481H209.64V280.301Z" fill="black"/>
<path d="M209.64 274.051H203.46V280.291H209.64V274.051Z" fill="#2D1212"/>
<path d="M209.64 267.811H203.46V274.051H209.64V267.811Z" fill="#321E1E"/>
<path d="M209.64 261.62H203.46V267.81H209.64V261.62Z" fill="#321E1E"/>
<path d="M209.64 255.391H203.46V261.631H209.64V255.391Z" fill="#321E1E"/>
<path d="M209.64 249.2H203.46V255.38H209.64V249.2Z" fill="#321E1E"/>
<path d="M209.64 242.96H203.46V249.2H209.64V242.96Z" fill="#321E1E"/>
<path d="M209.64 236.771H203.46V242.951H209.64V236.771Z" fill="#321E1E"/>
<path d="M209.64 230.53H203.46V236.77H209.64V230.53Z" fill="#321E1E"/>
<path d="M209.64 224.29H203.46V230.53H209.64V224.29Z" fill="#321E1E"/>
<path d="M209.64 218.101H203.46V224.281H209.64V218.101Z" fill="#321E1E"/>
<path d="M209.64 211.86H203.46V218.1H209.64V211.86Z" fill="#321E1E"/>
<path d="M209.64 205.681H203.46V211.861H209.64V205.681Z" fill="#321E1E"/>
<path d="M209.64 199.431H203.46V205.671H209.64V199.431Z" fill="#321E1E"/>
<path d="M209.64 193.25H203.46V199.43H209.64V193.25Z" fill="#321E1E"/>
<path d="M209.64 187.011H203.46V193.251H209.64V187.011Z" fill="#321E1E"/>
<path d="M209.64 180.83H203.46V187.01H209.64V180.83Z" fill="#321E1E"/>
<path d="M209.64 174.58H203.46V180.82H209.64V174.58Z" fill="#321E1E"/>
<path d="M209.64 168.341H203.46V174.581H209.64V168.341Z" fill="#321E1E"/>
<path d="M209.64 162.16H203.46V168.34H209.64V162.16Z" fill="#321E1E"/>
<path d="M209.64 155.91H203.46V162.15H209.64V155.91Z" fill="#321E1E"/>
<path d="M209.64 149.73H203.46V155.91H209.64V149.73Z" fill="#321E1E"/>
<path d="M209.64 143.48H203.46V149.72H209.64V143.48Z" fill="#2D1212"/>
<path d="M209.64 137.301H203.46V143.481H209.64V137.301Z" fill="black"/>
<path d="M209.64 131.061H203.46V137.301H209.64V131.061Z" fill="#321E1E"/>
<path d="M209.64 124.811H203.46V131.051H209.64V124.811Z" fill="#0C0C0C"/>
<path d="M209.64 118.63H203.46V124.81H209.64V118.63Z" fill="#0C0C0C"/>
<path d="M209.64 112.391H203.46V118.631H209.64V112.391Z" fill="#FF0000"/>
<path d="M209.64 106.21H203.46V112.39H209.64V106.21Z" fill="#0C0C0C"/>
<path d="M209.64 99.96H203.46V106.2H209.64V99.96Z" fill="black"/>
<path d="M209.64 93.7803H203.46V99.9603H209.64V93.7803Z" fill="#321E1E"/>
<path d="M209.64 87.54H203.46V93.78H209.64V87.54Z" fill="black"/>
<path d="M203.45 311.341H197.21V317.581H203.45V311.341Z" fill="#CE0505"/>
<path d="M203.45 305.141H197.21V311.331H203.45V305.141Z" fill="#CE0505"/>
<path d="M203.45 298.91H197.21V305.15H203.45V298.91Z" fill="#CE0505"/>
<path d="M203.45 292.721H197.21V298.901H203.45V292.721Z" fill="black"/>
<path d="M203.45 286.48H197.21V292.72H203.45V286.48Z" fill="black"/>
<path d="M203.45 280.301H197.21V286.481H203.45V280.301Z" fill="#2D1212"/>
<path d="M203.45 274.051H197.21V280.291H203.45V274.051Z" fill="#E80C0C"/>
<path d="M203.45 267.811H197.21V274.051H203.45V267.811Z" fill="#E80C0C"/>
<path d="M203.45 261.62H197.21V267.81H203.45V261.62Z" fill="#321E1E"/>
<path d="M203.45 255.391H197.21V261.631H203.45V255.391Z" fill="#321E1E"/>
<path d="M203.45 249.2H197.21V255.38H203.45V249.2Z" fill="#321E1E"/>
<path d="M203.45 242.96H197.21V249.2H203.45V242.96Z" fill="#321E1E"/>
<path d="M203.45 236.771H197.21V242.951H203.45V236.771Z" fill="#321E1E"/>
<path d="M203.45 230.53H197.21V236.77H203.45V230.53Z" fill="#321E1E"/>
<path d="M203.45 224.29H197.21V230.53H203.45V224.29Z" fill="#321E1E"/>
<path d="M203.45 218.101H197.21V224.281H203.45V218.101Z" fill="#321E1E"/>
<path d="M203.45 211.86H197.21V218.1H203.45V211.86Z" fill="#321E1E"/>
<path d="M203.45 205.681H197.21V211.861H203.45V205.681Z" fill="#321E1E"/>
<path d="M203.45 199.431H197.21V205.671H203.45V199.431Z" fill="#321E1E"/>
<path d="M203.45 193.25H197.21V199.43H203.45V193.25Z" fill="#321E1E"/>
<path d="M203.45 187.011H197.21V193.251H203.45V187.011Z" fill="#321E1E"/>
<path d="M203.45 180.83H197.21V187.01H203.45V180.83Z" fill="#321E1E"/>
<path d="M203.45 174.58H197.21V180.82H203.45V174.58Z" fill="#321E1E"/>
<path d="M203.45 168.341H197.21V174.581H203.45V168.341Z" fill="#321E1E"/>
<path d="M203.45 162.16H197.21V168.34H203.45V162.16Z" fill="#2D1212"/>
<path d="M203.45 155.91H197.21V162.15H203.45V155.91Z" fill="#2D1212"/>
<path d="M203.45 149.73H197.21V155.91H203.45V149.73Z" fill="#2D1212"/>
<path d="M203.45 143.48H197.21V149.72H203.45V143.48Z" fill="black"/>
<path d="M203.45 131.061H197.21V137.301H203.45V131.061Z" fill="black"/>
<path d="M203.45 124.811H197.21V131.051H203.45V124.811Z" fill="#321E1E"/>
<path d="M203.45 118.63H197.21V124.81H203.45V118.63Z" fill="#321E1E"/>
<path d="M203.45 112.391H197.21V118.631H203.45V112.391Z" fill="#321E1E"/>
<path d="M203.45 106.21H197.21V112.39H203.45V106.21Z" fill="#321E1E"/>
<path d="M203.45 99.96H197.21V106.2H203.45V99.96Z" fill="#321E1E"/>
<path d="M203.45 93.7803H197.21V99.9603H203.45V93.7803Z" fill="black"/>
<path d="M203.45 87.54H197.21V93.78H203.45V87.54Z" fill="black"/>
<path d="M197.21 298.91H190.97V305.15H197.21V298.91Z" fill="#CE0505"/>
<path d="M197.21 292.721H190.97V298.901H197.21V292.721Z" fill="#2D1212"/>
<path d="M197.21 286.48H190.97V292.72H197.21V286.48Z" fill="#2D1212"/>
<path d="M197.21 280.301H190.97V286.481H197.21V280.301Z" fill="#E80C0C"/>
<path d="M197.21 274.051H190.97V280.291H197.21V274.051Z" fill="#E80C0C"/>
<path d="M197.21 267.811H190.97V274.051H197.21V267.811Z" fill="#321E1E"/>
<path d="M197.21 261.62H190.97V267.81H197.21V261.62Z" fill="#321E1E"/>
<path d="M197.21 255.391H190.97V261.631H197.21V255.391Z" fill="#321E1E"/>
<path d="M197.21 249.2H190.97V255.38H197.21V249.2Z" fill="black"/>
<path d="M197.21 242.96H190.97V249.2H197.21V242.96Z" fill="black"/>
<path d="M197.21 236.771H190.97V242.951H197.21V236.771Z" fill="black"/>
<path d="M197.21 230.53H190.97V236.77H197.21V230.53Z" fill="#2D1212"/>
<path d="M197.21 224.29H190.97V230.53H197.21V224.29Z" fill="#2D1212"/>
<path d="M197.21 218.101H190.97V224.281H197.21V218.101Z" fill="#2D1212"/>
<path d="M197.21 211.86H190.97V218.1H197.21V211.86Z" fill="#2D1212"/>
<path d="M197.21 205.681H190.97V211.861H197.21V205.681Z" fill="#2D1212"/>
<path d="M197.21 199.431H190.97V205.671H197.21V199.431Z" fill="#2D1212"/>
<path d="M197.21 193.25H190.97V199.43H197.21V193.25Z" fill="#2D1212"/>
<path d="M197.21 187.011H190.97V193.251H197.21V187.011Z" fill="#2D1212"/>
<path d="M197.21 180.83H190.97V187.01H197.21V180.83Z" fill="#2D1212"/>
<path d="M197.21 174.58H190.97V180.82H197.21V174.58Z" fill="#2D1212"/>
<path d="M197.21 168.341H190.97V174.581H197.21V168.341Z" fill="#2D1212"/>
<path d="M197.21 162.16H190.97V168.34H197.21V162.16Z" fill="#2D1212"/>
<path d="M197.21 155.91H190.97V162.15H197.21V155.91Z" fill="#2D1212"/>
<path d="M197.21 149.73H190.97V155.91H197.21V149.73Z" fill="black"/>
<path d="M197.21 124.811H190.97V131.051H197.21V124.811Z" fill="black"/>
<path d="M197.21 118.63H190.97V124.81H197.21V118.63Z" fill="black"/>
<path d="M197.21 112.391H190.97V118.631H197.21V112.391Z" fill="black"/>
<path d="M197.21 106.21H190.97V112.39H197.21V106.21Z" fill="black"/>
<path d="M197.21 99.96H190.97V106.2H197.21V99.96Z" fill="black"/>
<path d="M190.97 305.141H184.79V311.331H190.97V305.141Z" fill="#CE0505"/>
<path d="M190.97 298.91H184.79V305.15H190.97V298.91Z" fill="#C60606"/>
<path d="M190.97 292.721H184.79V298.901H190.97V292.721Z" fill="#C60606"/>
<path d="M190.97 286.48H184.79V292.72H190.97V286.48Z" fill="#E80C0C"/>
<path d="M190.97 280.301H184.79V286.481H190.97V280.301Z" fill="#E80C0C"/>
<path d="M190.97 274.051H184.79V280.291H190.97V274.051Z" fill="#E80C0C"/>
<path d="M190.97 267.811H184.79V274.051H190.97V267.811Z" fill="#E80C0C"/>
<path d="M190.97 261.62H184.79V267.81H190.97V261.62Z" fill="black"/>
<path d="M190.97 255.391H184.79V261.631H190.97V255.391Z" fill="black"/>
<path d="M190.97 249.2H184.79V255.38H190.97V249.2Z" fill="black"/>
<path d="M190.97 236.771H184.79V242.951H190.97V236.771Z" fill="black"/>
<path d="M190.97 230.53H184.79V236.77H190.97V230.53Z" fill="black"/>
<path d="M190.97 224.29H184.79V230.53H190.97V224.29Z" fill="black"/>
<path d="M190.97 218.101H184.79V224.281H190.97V218.101Z" fill="black"/>
<path d="M190.97 211.86H184.79V218.1H190.97V211.86Z" fill="black"/>
<path d="M190.97 205.681H184.79V211.861H190.97V205.681Z" fill="black"/>
<path d="M190.97 199.431H184.79V205.671H190.97V199.431Z" fill="black"/>
<path d="M190.97 193.25H184.79V199.43H190.97V193.25Z" fill="#2D1212"/>
<path d="M190.97 187.011H184.79V193.251H190.97V187.011Z" fill="#2D1212"/>
<path d="M190.97 180.83H184.79V187.01H190.97V180.83Z" fill="#2D1212"/>
<path d="M190.97 174.58H184.79V180.82H190.97V174.58Z" fill="#2D1212"/>
<path d="M190.97 168.341H184.79V174.581H190.97V168.341Z" fill="#2D1212"/>
<path d="M190.97 162.16H184.79V168.34H190.97V162.16Z" fill="#2D1212"/>
<path d="M190.97 155.91H184.79V162.15H190.97V155.91Z" fill="black"/>
<path d="M184.78 311.341H178.54V317.581H184.78V311.341Z" fill="#C60606"/>
<path d="M184.78 305.141H178.54V311.331H184.78V305.141Z" fill="#C60606"/>
<path d="M184.78 298.91H178.54V305.15H184.78V298.91Z" fill="#C60606"/>
<path d="M184.78 292.721H178.54V298.901H184.78V292.721Z" fill="#C60606"/>
<path d="M184.78 286.48H178.54V292.72H184.78V286.48Z" fill="#C60606"/>
<path d="M184.78 280.301H178.54V286.481H184.78V280.301Z" fill="#C60606"/>
<path d="M184.78 193.25H178.54V199.43H184.78V193.25Z" fill="black"/>
<path d="M184.78 187.011H178.54V193.251H184.78V187.011Z" fill="#2D1212"/>
<path d="M184.78 180.83H178.54V187.01H184.78V180.83Z" fill="#2D1212"/>
<path d="M184.78 174.58H178.54V180.82H184.78V174.58Z" fill="#2D1212"/>
<path d="M184.78 168.341H178.54V174.581H184.78V168.341Z" fill="#2D1212"/>
<path d="M184.78 162.16H178.54V168.34H184.78V162.16Z" fill="#2D1212"/>
<path d="M184.78 155.91H178.54V162.15H184.78V155.91Z" fill="black"/>
<path d="M178.54 211.86H172.36V218.1H178.54V211.86Z" fill="black"/>
<path d="M178.54 205.681H172.36V211.861H178.54V205.681Z" fill="black"/>
<path d="M178.54 199.431H172.36V205.671H178.54V199.431Z" fill="black"/>
<path d="M178.54 193.25H172.36V199.43H178.54V193.25Z" fill="#2D1212"/>
<path d="M178.54 187.011H172.36V193.251H178.54V187.011Z" fill="#2D1212"/>
<path d="M178.54 180.83H172.36V187.01H178.54V180.83Z" fill="#2D1212"/>
<path d="M178.54 174.58H172.36V180.82H178.54V174.58Z" fill="#301918"/>
<path d="M178.54 168.341H172.36V174.581H178.54V168.341Z" fill="black"/>
<path d="M178.54 162.16H172.36V168.34H178.54V162.16Z" fill="black"/>
<path d="M172.36 199.431H166.12V205.671H172.36V199.431Z" fill="black"/>
<path d="M172.36 193.25H166.12V199.43H172.36V193.25Z" fill="black"/>
<path d="M172.36 187.011H166.12V193.251H172.36V187.011Z" fill="#2D1212"/>
<path d="M172.36 180.83H166.12V187.01H172.36V180.83Z" fill="#301918"/>
<path d="M172.36 174.58H166.12V180.82H172.36V174.58Z" fill="#301918"/>
<path d="M172.36 168.341H166.12V174.581H172.36V168.341Z" fill="black"/>
<path d="M166.12 193.25H159.94V199.43H166.12V193.25Z" fill="black"/>
<path d="M166.12 187.011H159.94V193.251H166.12V187.011Z" fill="#301918"/>
<path d="M166.12 180.83H159.94V187.01H166.12V180.83Z" fill="#301918"/>
<path d="M166.12 174.58H159.94V180.82H166.12V174.58Z" fill="#301918"/>
<path d="M166.12 168.341H159.94V174.581H166.12V168.341Z" fill="black"/>
<path d="M159.93 211.86H153.69V218.1H159.93V211.86Z" fill="black"/>
<path d="M159.93 205.681H153.69V211.861H159.93V205.681Z" fill="black"/>
<path d="M159.93 199.431H153.69V205.671H159.93V199.431Z" fill="black"/>
<path d="M159.93 193.25H153.69V199.43H159.93V193.25Z" fill="#301918"/>
<path d="M159.93 187.011H153.69V193.251H159.93V187.011Z" fill="#301918"/>
<path d="M159.93 180.83H153.69V187.01H159.93V180.83Z" fill="#301918"/>
<path d="M159.93 174.58H153.69V180.82H159.93V174.58Z" fill="black"/>
<path d="M153.69 193.25H147.45V199.43H153.69V193.25Z" fill="black"/>
<path d="M153.69 187.011H147.45V193.251H153.69V187.011Z" fill="#301918"/>
<path d="M153.69 180.83H147.45V187.01H153.69V180.83Z" fill="#301918"/>
<path d="M153.69 174.58H147.45V180.82H153.69V174.58Z" fill="#301918"/>
<path d="M153.69 168.341H147.45V174.581H153.69V168.341Z" fill="black"/>
<path d="M147.45 187.011H141.27V193.251H147.45V187.011Z" fill="black"/>
<path d="M147.45 180.83H141.27V187.01H147.45V180.83Z" fill="#301918"/>
<path d="M147.45 174.58H141.27V180.82H147.45V174.58Z" fill="#301918"/>
<path d="M147.45 168.341H141.27V174.581H147.45V168.341Z" fill="black"/>
<path d="M147.45 162.16H141.27V168.34H147.45V162.16Z" fill="black"/>
<path d="M147.45 112.391H141.27V118.631H147.45V112.391Z" fill="#939393"/>
<path d="M147.45 106.21H141.27V112.39H147.45V106.21Z" fill="#939393"/>
<path d="M147.45 99.96H141.27V106.2H147.45V99.96Z" fill="#939393"/>
<path d="M141.26 187.011H135.02V193.251H141.26V187.011Z" fill="black"/>
<path d="M141.26 180.83H135.02V187.01H141.26V180.83Z" fill="black"/>
<path d="M141.26 174.58H135.02V180.82H141.26V174.58Z" fill="black"/>
<path d="M141.26 168.341H135.02V174.581H141.26V168.341Z" fill="black"/>
<path d="M141.26 118.63H135.02V124.81H141.26V118.63Z" fill="#939393"/>
<path d="M141.26 112.391H135.02V118.631H141.26V112.391Z" fill="#A7A7A8"/>
<path d="M141.26 106.21H135.02V112.39H141.26V106.21Z" fill="#FF0000"/>
<path d="M141.26 99.96H135.02V106.2H141.26V99.96Z" fill="black"/>
<path d="M141.26 93.7803H135.02V99.9603H141.26V93.7803Z" fill="#939393"/>
<path d="M135.02 280.301H128.84V286.481H135.02V280.301Z" fill="#E50000"/>
<path d="M135.02 274.051H128.84V280.291H135.02V274.051Z" fill="#E50000"/>
<path d="M135.02 267.811H128.84V274.051H135.02V267.811Z" fill="#E50000"/>
<path d="M135.02 261.62H128.84V267.81H135.02V261.62Z" fill="#E50000"/>
<path d="M135.02 255.391H128.84V261.631H135.02V255.391Z" fill="#E50000"/>
<path d="M135.02 249.2H128.84V255.38H135.02V249.2Z" fill="#7A370A"/>
<path d="M135.02 242.96H128.84V249.2H135.02V242.96Z" fill="#7A370A"/>
<path d="M135.02 236.771H128.84V242.951H135.02V236.771Z" fill="#7A370A"/>
<path d="M135.02 230.53H128.84V236.77H135.02V230.53Z" fill="#7A370A"/>
<path d="M135.02 224.29H128.84V230.53H135.02V224.29Z" fill="#E50000"/>
<path d="M135.02 218.101H128.84V224.281H135.02V218.101Z" fill="#E50000"/>
<path d="M135.02 211.86H128.84V218.1H135.02V211.86Z" fill="#7A370A"/>
<path d="M135.02 205.681H128.84V211.861H135.02V205.681Z" fill="#7A370A"/>
<path d="M135.02 199.431H128.84V205.671H135.02V199.431Z" fill="#7A370A"/>
<path d="M135.02 193.25H128.84V199.43H135.02V193.25Z" fill="#7A370A"/>
<path d="M135.02 187.011H128.84V193.251H135.02V187.011Z" fill="#293D4C"/>
<path d="M135.02 180.83H128.84V187.01H135.02V180.83Z" fill="#293D4C"/>
<path d="M135.02 174.58H128.84V180.82H135.02V174.58Z" fill="#7A370A"/>
<path d="M135.02 168.341H128.84V174.581H135.02V168.341Z" fill="#293D4C"/>
<path d="M135.02 162.16H128.84V168.34H135.02V162.16Z" fill="#E50000"/>
<path d="M135.02 155.91H128.84V162.15H135.02V155.91Z" fill="#7A370A"/>
<path d="M135.02 149.73H128.84V155.91H135.02V149.73Z" fill="#7A370A"/>
<path d="M135.02 143.48H128.84V149.72H135.02V143.48Z" fill="#7A370A"/>
<path d="M135.02 137.301H128.84V143.481H135.02V137.301Z" fill="#7A370A"/>
<path d="M135.02 131.061H128.84V137.301H135.02V131.061Z" fill="#7A370A"/>
<path d="M135.02 124.811H128.84V131.051H135.02V124.811Z" fill="#E50000"/>
<path d="M135.02 118.63H128.84V124.81H135.02V118.63Z" fill="#E50000"/>
<path d="M135.02 112.391H128.84V118.631H135.02V112.391Z" fill="black"/>
<path d="M135.02 106.21H128.84V112.39H135.02V106.21Z" fill="#A7A7A8"/>
<path d="M135.02 99.96H128.84V106.2H135.02V99.96Z" fill="#A7A7A8"/>
<path d="M135.02 93.7803H128.84V99.9603H135.02V93.7803Z" fill="#A7A7A8"/>
<path d="M135.02 87.54H128.84V93.78H135.02V87.54Z" fill="#FF0000"/>
<path d="M128.84 298.91H122.6V305.15H128.84V298.91Z" fill="#E50000"/>
<path d="M128.84 286.48H122.6V292.72H128.84V286.48Z" fill="#E50000"/>
<path d="M128.84 280.301H122.6V286.481H128.84V280.301Z" fill="#E50000"/>
<path d="M128.84 274.051H122.6V280.291H128.84V274.051Z" fill="#E50000"/>
<path d="M128.84 267.811H122.6V274.051H128.84V267.811Z" fill="#E50000"/>
<path d="M128.84 261.62H122.6V267.81H128.84V261.62Z" fill="#7A370A"/>
<path d="M128.84 255.391H122.6V261.631H128.84V255.391Z" fill="#7A370A"/>
<path d="M128.84 249.2H122.6V255.38H128.84V249.2Z" fill="#7A370A"/>
<path d="M128.84 242.96H122.6V249.2H128.84V242.96Z" fill="#7A370A"/>
<path d="M128.84 236.771H122.6V242.951H128.84V236.771Z" fill="#7A370A"/>
<path d="M128.84 230.53H122.6V236.77H128.84V230.53Z" fill="#E50000"/>
<path d="M128.84 224.29H122.6V230.53H128.84V224.29Z" fill="#E50000"/>
<path d="M128.84 218.101H122.6V224.281H128.84V218.101Z" fill="#7A370A"/>
<path d="M128.84 211.86H122.6V218.1H128.84V211.86Z" fill="#7A370A"/>
<path d="M128.84 205.681H122.6V211.861H128.84V205.681Z" fill="#7A370A"/>
<path d="M128.84 199.431H122.6V205.671H128.84V199.431Z" fill="#7A370A"/>
<path d="M128.84 193.25H122.6V199.43H128.84V193.25Z" fill="black"/>
<path d="M128.84 187.011H122.6V193.251H128.84V187.011Z" fill="#293D4C"/>
<path d="M128.84 180.83H122.6V187.01H128.84V180.83Z" fill="#293D4C"/>
<path d="M128.84 174.58H122.6V180.82H128.84V174.58Z" fill="#293D4C"/>
<path d="M128.84 168.341H122.6V174.581H128.84V168.341Z" fill="#293D4C"/>
<path d="M128.84 162.16H122.6V168.34H128.84V162.16Z" fill="black"/>
<path d="M128.84 155.91H122.6V162.15H128.84V155.91Z" fill="#E50000"/>
<path d="M128.84 149.73H122.6V155.91H128.84V149.73Z" fill="#7A370A"/>
<path d="M128.84 143.48H122.6V149.72H128.84V143.48Z" fill="#7A370A"/>
<path d="M128.84 137.301H122.6V143.481H128.84V137.301Z" fill="#7A370A"/>
<path d="M128.84 131.061H122.6V137.301H128.84V131.061Z" fill="#7A370A"/>
<path d="M128.84 124.811H122.6V131.051H128.84V124.811Z" fill="#939393"/>
<path d="M128.84 118.63H122.6V124.81H128.84V118.63Z" fill="#A7A7A8"/>
<path d="M128.84 112.391H122.6V118.631H128.84V112.391Z" fill="black"/>
<path d="M128.84 106.21H122.6V112.39H128.84V106.21Z" fill="#A7A7A8"/>
<path d="M128.84 99.96H122.6V106.2H128.84V99.96Z" fill="#A7A7A8"/>
<path d="M128.84 93.7803H122.6V99.9603H128.84V93.7803Z" fill="#A7A7A8"/>
<path d="M128.84 87.54H122.6V93.78H128.84V87.54Z" fill="#FF0000"/>
<path d="M122.59 187.011H116.41V193.251H122.59V187.011Z" fill="#455360"/>
<path d="M122.59 180.83H116.41V187.01H122.59V180.83Z" fill="#455360"/>
<path d="M122.59 174.58H116.41V180.82H122.59V174.58Z" fill="#455360"/>
<path d="M122.59 168.341H116.41V174.581H122.59V168.341Z" fill="#455360"/>
<path d="M122.59 118.63H116.41V124.81H122.59V118.63Z" fill="#939393"/>
<path d="M122.59 112.391H116.41V118.631H122.59V112.391Z" fill="#A7A7A8"/>
<path d="M122.59 106.21H116.41V112.39H122.59V106.21Z" fill="#A7A7A8"/>
<path d="M122.59 99.96H116.41V106.2H122.59V99.96Z" fill="black"/>
<path d="M122.59 93.7803H116.41V99.9603H122.59V93.7803Z" fill="#939393"/>
<path d="M116.41 112.391H110.17V118.631H116.41V112.391Z" fill="#939393"/>
<path d="M116.41 106.21H110.17V112.39H116.41V106.21Z" fill="#939393"/>
<path d="M116.41 99.96H110.17V106.2H116.41V99.96Z" fill="#939393"/>
</svg>
