<svg width="400" height="400" viewBox="0 0 400 400" fill="none" xmlns="http://www.w3.org/2000/svg">
<path d="M200 385.78C302.603 385.78 385.78 302.603 385.78 200C385.78 97.3963 302.603 14.2197 200 14.2197C97.3965 14.2197 14.22 97.3963 14.22 200C14.22 302.603 97.3965 385.78 200 385.78Z" fill="black"/>
<path d="M200 392.78C93.7 392.78 7.21997 306.3 7.21997 200C7.21997 93.6997 93.7 7.21973 200 7.21973C306.3 7.21973 392.78 93.6997 392.78 200C392.78 306.3 306.3 392.78 200 392.78ZM200 21.2197C101.42 21.2197 21.22 101.42 21.22 200C21.22 298.58 101.42 378.78 200 378.78C298.58 378.78 378.78 298.58 378.78 200C378.78 101.42 298.58 21.2197 200 21.2197Z" fill="#0D561B"/>
<path d="M308.74 76.2402H302.29V82.7602H308.74V76.2402Z" fill="black"/>
<path d="M308.74 69.79H302.29V76.24H308.74V69.79Z" fill="black"/>
<path d="M302.28 82.7598H295.77V89.2098H302.28V82.7598Z" fill="black"/>
<path d="M302.28 76.2402H295.77V82.7602H302.28V76.2402Z" fill="#416072"/>
<path d="M302.28 69.79H295.77V76.24H302.28V69.79Z" fill="black"/>
<path d="M295.77 219.01H289.31V225.52H295.77V219.01Z" fill="black"/>
<path d="M295.77 89.2197H289.31V95.7397H295.77V89.2197Z" fill="black"/>
<path d="M295.77 82.7598H289.31V89.2098H295.77V82.7598Z" fill="#2E4851"/>
<path d="M295.77 76.2402H289.31V82.7602H295.77V76.2402Z" fill="#416072"/>
<path d="M295.77 69.79H289.31V76.24H295.77V69.79Z" fill="black"/>
<path d="M289.31 225.521H282.8V232.04H289.31V225.521Z" fill="black"/>
<path d="M289.31 219.01H282.8V225.52H289.31V219.01Z" fill="#E7BD00"/>
<path d="M289.31 212.55H282.8V219H289.31V212.55Z" fill="black"/>
<path d="M289.31 95.7402H282.8V102.19H289.31V95.7402Z" fill="black"/>
<path d="M289.31 89.2197H282.8V95.7397H289.31V89.2197Z" fill="#416072"/>
<path d="M289.31 82.7598H282.8V89.2098H289.31V82.7598Z" fill="#2E4851"/>
<path d="M289.31 76.2402H282.8V82.7602H289.31V76.2402Z" fill="#607C89"/>
<path d="M289.31 69.79H282.8V76.24H289.31V69.79Z" fill="black"/>
<path d="M282.79 225.521H276.34V232.04H282.79V225.521Z" fill="black"/>
<path d="M282.79 219.01H276.34V225.52H282.79V219.01Z" fill="#E7BD00"/>
<path d="M282.79 212.55H276.34V219H282.79V212.55Z" fill="black"/>
<path d="M282.79 102.19H276.34V108.71H282.79V102.19Z" fill="black"/>
<path d="M282.79 95.7402H276.34V102.19H282.79V95.7402Z" fill="#416072"/>
<path d="M282.79 89.2197H276.34V95.7397H282.79V89.2197Z" fill="#416072"/>
<path d="M282.79 82.7598H276.34V89.2098H282.79V82.7598Z" fill="#2E4851"/>
<path d="M282.79 76.2402H276.34V82.7602H282.79V76.2402Z" fill="#607C89"/>
<path d="M282.79 69.79H276.34V76.24H282.79V69.79Z" fill="black"/>
<path d="M276.34 225.521H269.82V232.04H276.34V225.521Z" fill="black"/>
<path d="M276.34 219.01H269.82V225.52H276.34V219.01Z" fill="black"/>
<path d="M276.34 193.06H269.82V199.58H276.34V193.06Z" fill="black"/>
<path d="M276.34 186.61H269.82V193.06H276.34V186.61Z" fill="black"/>
<path d="M276.34 180.09H269.82V186.61H276.34V180.09Z" fill="black"/>
<path d="M276.34 173.64H269.82V180.09H276.34V173.64Z" fill="black"/>
<path d="M276.34 102.19H269.82V108.71H276.34V102.19Z" fill="black"/>
<path d="M276.34 95.7402H269.82V102.19H276.34V95.7402Z" fill="#416072"/>
<path d="M276.34 89.2197H269.82V95.7397H276.34V89.2197Z" fill="#2E4851"/>
<path d="M276.34 82.7598H269.82V89.2098H276.34V82.7598Z" fill="#416072"/>
<path d="M276.34 76.2402H269.82V82.7602H276.34V76.2402Z" fill="#607C89"/>
<path d="M276.34 69.79H269.82V76.24H276.34V69.79Z" fill="black"/>
<path d="M269.82 232.04H263.37V238.49H269.82V232.04Z" fill="black"/>
<path d="M269.82 225.521H263.37V232.04H269.82V225.521Z" fill="#0D561B"/>
<path d="M269.82 219.01H263.37V225.52H269.82V219.01Z" fill="#0D561B"/>
<path d="M269.82 212.55H263.37V219H269.82V212.55Z" fill="black"/>
<path d="M269.82 206.03H263.37V212.55H269.82V206.03Z" fill="black"/>
<path d="M269.82 199.58H263.37V206.03H269.82V199.58Z" fill="black"/>
<path d="M269.82 193.06H263.37V199.58H269.82V193.06Z" fill="#0D561B"/>
<path d="M269.82 186.61H263.37V193.06H269.82V186.61Z" fill="#0D561B"/>
<path d="M269.82 180.09H263.37V186.61H269.82V180.09Z" fill="#5DA34B"/>
<path d="M269.82 173.64H263.37V180.09H269.82V173.64Z" fill="#0C4913"/>
<path d="M269.82 167.12H263.37V173.64H269.82V167.12Z" fill="black"/>
<path d="M269.82 102.19H263.37V108.71H269.82V102.19Z" fill="black"/>
<path d="M269.82 95.7402H263.37V102.19H269.82V95.7402Z" fill="#416072"/>
<path d="M269.82 89.2197H263.37V95.7397H269.82V89.2197Z" fill="#2E4851"/>
<path d="M269.82 82.7598H263.37V89.2098H269.82V82.7598Z" fill="#416072"/>
<path d="M269.82 76.2402H263.37V82.7602H269.82V76.2402Z" fill="#607C89"/>
<path d="M269.82 69.79H263.37V76.24H269.82V69.79Z" fill="black"/>
<path d="M263.37 322.85H256.85V329.37H263.37V322.85Z" fill="black"/>
<path d="M263.37 238.5H256.85V245.02H263.37V238.5Z" fill="black"/>
<path d="M263.37 232.04H256.85V238.49H263.37V232.04Z" fill="#0D561B"/>
<path d="M263.37 225.521H256.85V232.04H263.37V225.521Z" fill="#0D561B"/>
<path d="M263.37 219.01H256.85V225.52H263.37V219.01Z" fill="#0D561B"/>
<path d="M263.37 212.55H256.85V219H263.37V212.55Z" fill="#0D561B"/>
<path d="M263.37 206.03H256.85V212.55H263.37V206.03Z" fill="#0D561B"/>
<path d="M263.37 199.58H256.85V206.03H263.37V199.58Z" fill="#0D561B"/>
<path d="M263.37 193.06H256.85V199.58H263.37V193.06Z" fill="#0D561B"/>
<path d="M263.37 186.61H256.85V193.06H263.37V186.61Z" fill="#0D561B"/>
<path d="M263.37 180.09H256.85V186.61H263.37V180.09Z" fill="#5DA34B"/>
<path d="M263.37 173.64H256.85V180.09H263.37V173.64Z" fill="#0C4913"/>
<path d="M263.37 167.12H256.85V173.64H263.37V167.12Z" fill="#429331"/>
<path d="M263.37 160.6H256.85V167.12H263.37V160.6Z" fill="black"/>
<path d="M263.37 154.14H256.85V160.59H263.37V154.14Z" fill="black"/>
<path d="M263.37 102.19H256.85V108.71H263.37V102.19Z" fill="black"/>
<path d="M263.37 95.7402H256.85V102.19H263.37V95.7402Z" fill="#416072"/>
<path d="M263.37 89.2197H256.85V95.7397H263.37V89.2197Z" fill="#2E4851"/>
<path d="M263.37 82.7598H256.85V89.2098H263.37V82.7598Z" fill="#607C89"/>
<path d="M263.37 76.2402H256.85V82.7602H263.37V76.2402Z" fill="#607C89"/>
<path d="M263.37 69.79H256.85V76.24H263.37V69.79Z" fill="black"/>
<path d="M256.85 322.85H250.34V329.37H256.85V322.85Z" fill="#429331"/>
<path d="M256.85 316.4H250.34V322.85H256.85V316.4Z" fill="black"/>
<path d="M256.85 238.5H250.34V245.02H256.85V238.5Z" fill="black"/>
<path d="M256.85 232.04H250.34V238.49H256.85V232.04Z" fill="#0D561B"/>
<path d="M256.85 225.521H250.34V232.04H256.85V225.521Z" fill="#0D561B"/>
<path d="M256.85 219.01H250.34V225.52H256.85V219.01Z" fill="#0D561B"/>
<path d="M256.85 212.55H250.34V219H256.85V212.55Z" fill="#0D561B"/>
<path d="M256.85 206.03H250.34V212.55H256.85V206.03Z" fill="#0D561B"/>
<path d="M256.85 199.58H250.34V206.03H256.85V199.58Z" fill="#0D561B"/>
<path d="M256.85 193.06H250.34V199.58H256.85V193.06Z" fill="#0D561B"/>
<path d="M256.85 186.61H250.34V193.06H256.85V186.61Z" fill="#5DA34B"/>
<path d="M256.85 180.09H250.34V186.61H256.85V180.09Z" fill="#0C4913"/>
<path d="M256.85 173.64H250.34V180.09H256.85V173.64Z" fill="#429331"/>
<path d="M256.85 167.12H250.34V173.64H256.85V167.12Z" fill="#429331"/>
<path d="M256.85 160.6H250.34V167.12H256.85V160.6Z" fill="#5DA34B"/>
<path d="M256.85 154.14H250.34V160.59H256.85V154.14Z" fill="#0C4913"/>
<path d="M256.85 147.62H250.34V154.14H256.85V147.62Z" fill="black"/>
<path d="M256.85 141.17H250.34V147.62H256.85V141.17Z" fill="black"/>
<path d="M256.85 108.71H250.34V115.16H256.85V108.71Z" fill="black"/>
<path d="M256.85 102.19H250.34V108.71H256.85V102.19Z" fill="#416072"/>
<path d="M256.85 95.7402H250.34V102.19H256.85V95.7402Z" fill="#2E4851"/>
<path d="M256.85 89.2197H250.34V95.7397H256.85V89.2197Z" fill="#416072"/>
<path d="M256.85 82.7598H250.34V89.2098H256.85V82.7598Z" fill="#607C89"/>
<path d="M256.85 76.2402H250.34V82.7602H256.85V76.2402Z" fill="black"/>
<path d="M250.33 322.85H243.87V329.37H250.33V322.85Z" fill="#5BAF43"/>
<path d="M250.33 316.4H243.87V322.85H250.33V316.4Z" fill="#429331"/>
<path d="M250.33 309.88H243.87V316.39H250.33V309.88Z" fill="black"/>
<path d="M250.33 303.42H243.87V309.88H250.33V303.42Z" fill="black"/>
<path d="M250.33 296.91H243.87V303.42H250.33V296.91Z" fill="black"/>
<path d="M250.33 238.5H243.87V245.02H250.33V238.5Z" fill="black"/>
<path d="M250.33 232.04H243.87V238.49H250.33V232.04Z" fill="black"/>
<path d="M250.33 225.521H243.87V232.04H250.33V225.521Z" fill="#0D561B"/>
<path d="M250.33 219.01H243.87V225.52H250.33V219.01Z" fill="black"/>
<path d="M250.33 212.55H243.87V219H250.33V212.55Z" fill="black"/>
<path d="M250.33 206.03H243.87V212.55H250.33V206.03Z" fill="black"/>
<path d="M250.33 199.58H243.87V206.03H250.33V199.58Z" fill="black"/>
<path d="M250.33 193.06H243.87V199.58H250.33V193.06Z" fill="black"/>
<path d="M250.33 186.61H243.87V193.06H250.33V186.61Z" fill="#0C4913"/>
<path d="M250.33 180.09H243.87V186.61H250.33V180.09Z" fill="#429331"/>
<path d="M250.33 173.64H243.87V180.09H250.33V173.64Z" fill="#429331"/>
<path d="M250.33 167.12H243.87V173.64H250.33V167.12Z" fill="#5DA34B"/>
<path d="M250.33 160.6H243.87V167.12H250.33V160.6Z" fill="#5DA34B"/>
<path d="M250.33 154.14H243.87V160.59H250.33V154.14Z" fill="#0C4913"/>
<path d="M250.33 147.62H243.87V154.14H250.33V147.62Z" fill="#429331"/>
<path d="M250.33 141.17H243.87V147.62H250.33V141.17Z" fill="#429331"/>
<path d="M250.33 134.65H243.87V141.17H250.33V134.65Z" fill="black"/>
<path d="M250.33 108.71H243.87V115.16H250.33V108.71Z" fill="black"/>
<path d="M250.33 102.19H243.87V108.71H250.33V102.19Z" fill="#416072"/>
<path d="M250.33 95.7402H243.87V102.19H250.33V95.7402Z" fill="#2E4851"/>
<path d="M250.33 89.2197H243.87V95.7397H250.33V89.2197Z" fill="#416072"/>
<path d="M250.33 82.7598H243.87V89.2098H250.33V82.7598Z" fill="#607C89"/>
<path d="M250.33 76.2402H243.87V82.7602H250.33V76.2402Z" fill="black"/>
<path d="M243.88 322.85H237.37V329.37H243.88V322.85Z" fill="#5BAF43"/>
<path d="M243.88 316.4H237.37V322.85H243.88V316.4Z" fill="#429331"/>
<path d="M243.88 309.88H237.37V316.39H243.88V309.88Z" fill="#0C4913"/>
<path d="M243.88 303.42H237.37V309.88H243.88V303.42Z" fill="#429331"/>
<path d="M243.88 296.91H237.37V303.42H243.88V296.91Z" fill="#429331"/>
<path d="M243.88 290.45H237.37V296.9H243.88V290.45Z" fill="black"/>
<path d="M243.88 283.93H237.37V290.45H243.88V283.93Z" fill="black"/>
<path d="M243.88 277.48H237.37V283.93H243.88V277.48Z" fill="black"/>
<path d="M243.88 270.96H237.37V277.48H243.88V270.96Z" fill="black"/>
<path d="M243.88 264.45H237.37V270.96H243.88V264.45Z" fill="black"/>
<path d="M243.88 245.021H237.37V251.471H243.88V245.021Z" fill="black"/>
<path d="M243.88 238.5H237.37V245.02H243.88V238.5Z" fill="#E7BD00"/>
<path d="M243.88 232.04H237.37V238.49H243.88V232.04Z" fill="#E7BD00"/>
<path d="M243.88 225.521H237.37V232.04H243.88V225.521Z" fill="black"/>
<path d="M243.88 193.06H237.37V199.58H243.88V193.06Z" fill="black"/>
<path d="M243.88 186.61H237.37V193.06H243.88V186.61Z" fill="black"/>
<path d="M243.88 180.09H237.37V186.61H243.88V180.09Z" fill="black"/>
<path d="M243.88 173.64H237.37V180.09H243.88V173.64Z" fill="#5DA34B"/>
<path d="M243.88 167.12H237.37V173.64H243.88V167.12Z" fill="#5DA34B"/>
<path d="M243.88 160.6H237.37V167.12H243.88V160.6Z" fill="#0C4913"/>
<path d="M243.88 154.14H237.37V160.59H243.88V154.14Z" fill="#5DA34B"/>
<path d="M243.88 147.62H237.37V154.14H243.88V147.62Z" fill="#429331"/>
<path d="M243.88 141.17H237.37V147.62H243.88V141.17Z" fill="#429331"/>
<path d="M243.88 134.65H237.37V141.17H243.88V134.65Z" fill="#0C4913"/>
<path d="M243.88 128.2H237.37V134.65H243.88V128.2Z" fill="black"/>
<path d="M243.88 108.71H237.37V115.16H243.88V108.71Z" fill="black"/>
<path d="M243.88 102.19H237.37V108.71H243.88V102.19Z" fill="#416072"/>
<path d="M243.88 95.7402H237.37V102.19H243.88V95.7402Z" fill="#2E4851"/>
<path d="M243.88 89.2197H237.37V95.7397H243.88V89.2197Z" fill="#416072"/>
<path d="M243.88 82.7598H237.37V89.2098H243.88V82.7598Z" fill="#607C89"/>
<path d="M243.88 76.2402H237.37V82.7602H243.88V76.2402Z" fill="black"/>
<path d="M237.36 322.85H230.91V329.37H237.36V322.85Z" fill="#429331"/>
<path d="M237.36 316.4H230.91V322.85H237.36V316.4Z" fill="#0C4913"/>
<path d="M237.36 309.88H230.91V316.39H237.36V309.88Z" fill="#429331"/>
<path d="M237.36 303.42H230.91V309.88H237.36V303.42Z" fill="#429331"/>
<path d="M237.36 296.91H230.91V303.42H237.36V296.91Z" fill="#429331"/>
<path d="M237.36 290.45H230.91V296.9H237.36V290.45Z" fill="#0C4913"/>
<path d="M237.36 283.93H230.91V290.45H237.36V283.93Z" fill="#0C4913"/>
<path d="M237.36 277.48H230.91V283.93H237.36V277.48Z" fill="#0C4913"/>
<path d="M237.36 270.96H230.91V277.48H237.36V270.96Z" fill="#5BAF43"/>
<path d="M237.36 264.45H230.91V270.96H237.36V264.45Z" fill="#429331"/>
<path d="M237.36 257.98H230.91V264.44H237.36V257.98Z" fill="black"/>
<path d="M237.36 251.47H230.91V257.98H237.36V251.47Z" fill="black"/>
<path d="M237.36 245.021H230.91V251.471H237.36V245.021Z" fill="#416072"/>
<path d="M237.36 238.5H230.91V245.02H237.36V238.5Z" fill="#416072"/>
<path d="M237.36 232.04H230.91V238.49H237.36V232.04Z" fill="#E7BD00"/>
<path d="M237.36 225.521H230.91V232.04H237.36V225.521Z" fill="black"/>
<path d="M237.36 173.64H230.91V180.09H237.36V173.64Z" fill="black"/>
<path d="M237.36 167.12H230.91V173.64H237.36V167.12Z" fill="#0C4913"/>
<path d="M237.36 160.6H230.91V167.12H237.36V160.6Z" fill="#5DA34B"/>
<path d="M237.36 154.14H230.91V160.59H237.36V154.14Z" fill="#429331"/>
<path d="M237.36 147.62H230.91V154.14H237.36V147.62Z" fill="#429331"/>
<path d="M237.36 141.17H230.91V147.62H237.36V141.17Z" fill="#429331"/>
<path d="M237.36 134.65H230.91V141.17H237.36V134.65Z" fill="#429331"/>
<path d="M237.36 128.2H230.91V134.65H237.36V128.2Z" fill="black"/>
<path d="M237.36 115.16H230.91V121.68H237.36V115.16Z" fill="black"/>
<path d="M237.36 108.71H230.91V115.16H237.36V108.71Z" fill="#416072"/>
<path d="M237.36 102.19H230.91V108.71H237.36V102.19Z" fill="#2E4851"/>
<path d="M237.36 95.7402H230.91V102.19H237.36V95.7402Z" fill="#416072"/>
<path d="M237.36 89.2197H230.91V95.7397H237.36V89.2197Z" fill="#607C89"/>
<path d="M237.36 82.7598H230.91V89.2098H237.36V82.7598Z" fill="black"/>
<path d="M230.91 322.85H224.39V329.37H230.91V322.85Z" fill="black"/>
<path d="M230.91 316.4H224.39V322.85H230.91V316.4Z" fill="black"/>
<path d="M230.91 309.88H224.39V316.39H230.91V309.88Z" fill="#429331"/>
<path d="M230.91 303.42H224.39V309.88H230.91V303.42Z" fill="#429331"/>
<path d="M230.91 296.91H224.39V303.42H230.91V296.91Z" fill="#429331"/>
<path d="M230.91 290.45H224.39V296.9H230.91V290.45Z" fill="#5BAF43"/>
<path d="M230.91 283.93H224.39V290.45H230.91V283.93Z" fill="#0C4913"/>
<path d="M230.91 277.48H224.39V283.93H230.91V277.48Z" fill="#5BAF43"/>
<path d="M230.91 270.96H224.39V277.48H230.91V270.96Z" fill="#5BAF43"/>
<path d="M230.91 264.45H224.39V270.96H230.91V264.45Z" fill="#429331"/>
<path d="M230.91 257.98H224.39V264.44H230.91V257.98Z" fill="#429331"/>
<path d="M230.91 251.47H224.39V257.98H230.91V251.47Z" fill="black"/>
<path d="M230.91 245.021H224.39V251.471H230.91V245.021Z" fill="#416072"/>
<path d="M230.91 238.5H224.39V245.02H230.91V238.5Z" fill="#416072"/>
<path d="M230.91 232.04H224.39V238.49H230.91V232.04Z" fill="black"/>
<path d="M230.91 225.521H224.39V232.04H230.91V225.521Z" fill="#0C4913"/>
<path d="M230.91 219.01H224.39V225.52H230.91V219.01Z" fill="black"/>
<path d="M230.91 212.55H224.39V219H230.91V212.55Z" fill="black"/>
<path d="M230.91 206.03H224.39V212.55H230.91V206.03Z" fill="black"/>
<path d="M230.91 199.58H224.39V206.03H230.91V199.58Z" fill="black"/>
<path d="M230.91 167.12H224.39V173.64H230.91V167.12Z" fill="black"/>
<path d="M230.91 160.6H224.39V167.12H230.91V160.6Z" fill="#0C4913"/>
<path d="M230.91 154.14H224.39V160.59H230.91V154.14Z" fill="#0C4913"/>
<path d="M230.91 147.62H224.39V154.14H230.91V147.62Z" fill="#0C4913"/>
<path d="M230.91 141.17H224.39V147.62H230.91V141.17Z" fill="#429331"/>
<path d="M230.91 134.65H224.39V141.17H230.91V134.65Z" fill="#429331"/>
<path d="M230.91 128.2H224.39V134.65H230.91V128.2Z" fill="black"/>
<path d="M230.91 115.16H224.39V121.68H230.91V115.16Z" fill="black"/>
<path d="M230.91 108.71H224.39V115.16H230.91V108.71Z" fill="#416072"/>
<path d="M230.91 102.19H224.39V108.71H230.91V102.19Z" fill="#2E4851"/>
<path d="M230.91 95.7402H224.39V102.19H230.91V95.7402Z" fill="#416072"/>
<path d="M230.91 89.2197H224.39V95.7397H230.91V89.2197Z" fill="#607C89"/>
<path d="M230.91 82.7598H224.39V89.2098H230.91V82.7598Z" fill="black"/>
<path d="M224.38 309.88H217.93V316.39H224.38V309.88Z" fill="black"/>
<path d="M224.38 303.42H217.93V309.88H224.38V303.42Z" fill="black"/>
<path d="M224.38 296.91H217.93V303.42H224.38V296.91Z" fill="black"/>
<path d="M224.38 290.45H217.93V296.9H224.38V290.45Z" fill="#5BAF43"/>
<path d="M224.38 283.93H217.93V290.45H224.38V283.93Z" fill="#5BAF43"/>
<path d="M224.38 277.48H217.93V283.93H224.38V277.48Z" fill="#5BAF43"/>
<path d="M224.38 270.96H217.93V277.48H224.38V270.96Z" fill="#429331"/>
<path d="M224.38 264.45H217.93V270.96H224.38V264.45Z" fill="#429331"/>
<path d="M224.38 257.98H217.93V264.44H224.38V257.98Z" fill="black"/>
<path d="M224.38 251.47H217.93V257.98H224.38V251.47Z" fill="#416072"/>
<path d="M224.38 245.021H217.93V251.471H224.38V245.021Z" fill="#416072"/>
<path d="M224.38 238.5H217.93V245.02H224.38V238.5Z" fill="#2E4851"/>
<path d="M224.38 232.04H217.93V238.49H224.38V232.04Z" fill="black"/>
<path d="M224.38 225.521H217.93V232.04H224.38V225.521Z" fill="#0C4913"/>
<path d="M224.38 219.01H217.93V225.52H224.38V219.01Z" fill="#0D561B"/>
<path d="M224.38 212.55H217.93V219H224.38V212.55Z" fill="#14661E"/>
<path d="M224.38 206.03H217.93V212.55H224.38V206.03Z" fill="#1F7227"/>
<path d="M224.38 199.58H217.93V206.03H224.38V199.58Z" fill="black"/>
<path d="M224.38 193.06H217.93V199.58H224.38V193.06Z" fill="black"/>
<path d="M224.38 180.09H217.93V186.61H224.38V180.09Z" fill="black"/>
<path d="M224.38 173.64H217.93V180.09H224.38V173.64Z" fill="black"/>
<path d="M224.38 167.12H217.93V173.64H224.38V167.12Z" fill="#0C4913"/>
<path d="M224.38 160.6H217.93V167.12H224.38V160.6Z" fill="#0C4913"/>
<path d="M224.38 154.14H217.93V160.59H224.38V154.14Z" fill="#0C4913"/>
<path d="M224.38 147.62H217.93V154.14H224.38V147.62Z" fill="#429331"/>
<path d="M224.38 141.17H217.93V147.62H224.38V141.17Z" fill="#429331"/>
<path d="M224.38 134.65H217.93V141.17H224.38V134.65Z" fill="#0C4913"/>
<path d="M224.38 128.2H217.93V134.65H224.38V128.2Z" fill="#429331"/>
<path d="M224.38 121.68H217.93V128.2H224.38V121.68Z" fill="black"/>
<path d="M224.38 115.16H217.93V121.68H224.38V115.16Z" fill="black"/>
<path d="M224.38 108.71H217.93V115.16H224.38V108.71Z" fill="#416072"/>
<path d="M224.38 102.19H217.93V108.71H224.38V102.19Z" fill="#2E4851"/>
<path d="M224.38 95.7402H217.93V102.19H224.38V95.7402Z" fill="#416072"/>
<path d="M224.38 89.2197H217.93V95.7397H224.38V89.2197Z" fill="#607C89"/>
<path d="M224.38 82.7598H217.93V89.2098H224.38V82.7598Z" fill="black"/>
<path d="M217.94 290.45H211.42V296.9H217.94V290.45Z" fill="black"/>
<path d="M217.94 283.93H211.42V290.45H217.94V283.93Z" fill="black"/>
<path d="M217.94 277.48H211.42V283.93H217.94V277.48Z" fill="black"/>
<path d="M217.94 270.96H211.42V277.48H217.94V270.96Z" fill="#429331"/>
<path d="M217.94 264.45H211.42V270.96H217.94V264.45Z" fill="#429331"/>
<path d="M217.94 257.98H211.42V264.44H217.94V257.98Z" fill="black"/>
<path d="M217.94 251.47H211.42V257.98H217.94V251.47Z" fill="#416072"/>
<path d="M217.94 245.021H211.42V251.471H217.94V245.021Z" fill="#2E4851"/>
<path d="M217.94 238.5H211.42V245.02H217.94V238.5Z" fill="black"/>
<path d="M217.94 232.04H211.42V238.49H217.94V232.04Z" fill="#0C4913"/>
<path d="M217.94 225.521H211.42V232.04H217.94V225.521Z" fill="#0D561B"/>
<path d="M217.94 219.01H211.42V225.52H217.94V219.01Z" fill="#0D561B"/>
<path d="M217.94 212.55H211.42V219H217.94V212.55Z" fill="#14661E"/>
<path d="M217.94 206.03H211.42V212.55H217.94V206.03Z" fill="#14661E"/>
<path d="M217.94 199.58H211.42V206.03H217.94V199.58Z" fill="black"/>
<path d="M217.94 193.06H211.42V199.58H217.94V193.06Z" fill="#0C4913"/>
<path d="M217.94 186.61H211.42V193.06H217.94V186.61Z" fill="black"/>
<path d="M217.94 180.09H211.42V186.61H217.94V180.09Z" fill="#0C4913"/>
<path d="M217.94 173.64H211.42V180.09H217.94V173.64Z" fill="#0C4913"/>
<path d="M217.94 167.12H211.42V173.64H217.94V167.12Z" fill="#0C4913"/>
<path d="M217.94 160.6H211.42V167.12H217.94V160.6Z" fill="#0C4913"/>
<path d="M217.94 154.14H211.42V160.59H217.94V154.14Z" fill="#429331"/>
<path d="M217.94 147.62H211.42V154.14H217.94V147.62Z" fill="#429331"/>
<path d="M217.94 141.17H211.42V147.62H217.94V141.17Z" fill="#0C4913"/>
<path d="M217.94 134.65H211.42V141.17H217.94V134.65Z" fill="#429331"/>
<path d="M217.94 128.2H211.42V134.65H217.94V128.2Z" fill="#429331"/>
<path d="M217.94 121.68H211.42V128.2H217.94V121.68Z" fill="black"/>
<path d="M217.94 115.16H211.42V121.68H217.94V115.16Z" fill="black"/>
<path d="M217.94 108.71H211.42V115.16H217.94V108.71Z" fill="black"/>
<path d="M217.94 102.19H211.42V108.71H217.94V102.19Z" fill="black"/>
<path d="M217.94 95.7402H211.42V102.19H217.94V95.7402Z" fill="black"/>
<path d="M217.94 89.2197H211.42V95.7397H217.94V89.2197Z" fill="black"/>
<path d="M211.41 270.96H204.9V277.48H211.41V270.96Z" fill="black"/>
<path d="M211.41 264.45H204.9V270.96H211.41V264.45Z" fill="black"/>
<path d="M211.41 257.98H204.9V264.44H211.41V257.98Z" fill="black"/>
<path d="M211.41 251.47H204.9V257.98H211.41V251.47Z" fill="#416072"/>
<path d="M211.41 245.021H204.9V251.471H211.41V245.021Z" fill="#2E4851"/>
<path d="M211.41 238.5H204.9V245.02H211.41V238.5Z" fill="black"/>
<path d="M211.41 232.04H204.9V238.49H211.41V232.04Z" fill="#0C4913"/>
<path d="M211.41 225.521H204.9V232.04H211.41V225.521Z" fill="#0D561B"/>
<path d="M211.41 219.01H204.9V225.52H211.41V219.01Z" fill="#0D561B"/>
<path d="M211.41 212.55H204.9V219H211.41V212.55Z" fill="#0D561B"/>
<path d="M211.41 206.03H204.9V212.55H211.41V206.03Z" fill="#14661E"/>
<path d="M211.41 199.58H204.9V206.03H211.41V199.58Z" fill="black"/>
<path d="M211.41 193.06H204.9V199.58H211.41V193.06Z" fill="#0C4913"/>
<path d="M211.41 186.61H204.9V193.06H211.41V186.61Z" fill="#0C4913"/>
<path d="M211.41 180.09H204.9V186.61H211.41V180.09Z" fill="#0C4913"/>
<path d="M211.41 173.64H204.9V180.09H211.41V173.64Z" fill="#0C4913"/>
<path d="M211.41 167.12H204.9V173.64H211.41V167.12Z" fill="#429331"/>
<path d="M211.41 160.6H204.9V167.12H211.41V160.6Z" fill="#429331"/>
<path d="M211.41 154.14H204.9V160.59H211.41V154.14Z" fill="#0C4913"/>
<path d="M211.41 147.62H204.9V154.14H211.41V147.62Z" fill="#0C4913"/>
<path d="M211.41 141.17H204.9V147.62H211.41V141.17Z" fill="#0C4913"/>
<path d="M211.41 134.65H204.9V141.17H211.41V134.65Z" fill="#429331"/>
<path d="M211.41 128.2H204.9V134.65H211.41V128.2Z" fill="#0C4913"/>
<path d="M211.41 121.68H204.9V128.2H211.41V121.68Z" fill="#0C4913"/>
<path d="M211.41 115.16H204.9V121.68H211.41V115.16Z" fill="#0C4913"/>
<path d="M211.41 108.71H204.9V115.16H211.41V108.71Z" fill="black"/>
<path d="M211.41 102.19H204.9V108.71H211.41V102.19Z" fill="#0C4913"/>
<path d="M211.41 95.7402H204.9V102.19H211.41V95.7402Z" fill="black"/>
<path d="M211.41 89.2197H204.9V95.7397H211.41V89.2197Z" fill="#429331"/>
<path d="M211.41 82.7598H204.9V89.2098H211.41V82.7598Z" fill="black"/>
<path d="M204.89 264.45H198.44V270.96H204.89V264.45Z" fill="black"/>
<path d="M204.89 257.98H198.44V264.44H204.89V257.98Z" fill="#416072"/>
<path d="M204.89 251.47H198.44V257.98H204.89V251.47Z" fill="#2E4851"/>
<path d="M204.89 245.021H198.44V251.471H204.89V245.021Z" fill="#416072"/>
<path d="M204.89 238.5H198.44V245.02H204.89V238.5Z" fill="black"/>
<path d="M204.89 232.04H198.44V238.49H204.89V232.04Z" fill="#0C4913"/>
<path d="M204.89 225.521H198.44V232.04H204.89V225.521Z" fill="#0D561B"/>
<path d="M204.89 219.01H198.44V225.52H204.89V219.01Z" fill="#0D561B"/>
<path d="M204.89 212.55H198.44V219H204.89V212.55Z" fill="#14661E"/>
<path d="M204.89 206.03H198.44V212.55H204.89V206.03Z" fill="black"/>
<path d="M204.89 199.58H198.44V206.03H204.89V199.58Z" fill="#429331"/>
<path d="M204.89 193.06H198.44V199.58H204.89V193.06Z" fill="#429331"/>
<path d="M204.89 186.61H198.44V193.06H204.89V186.61Z" fill="#0C4913"/>
<path d="M204.89 180.09H198.44V186.61H204.89V180.09Z" fill="#0C4913"/>
<path d="M204.89 173.64H198.44V180.09H204.89V173.64Z" fill="#0C4913"/>
<path d="M204.89 167.12H198.44V173.64H204.89V167.12Z" fill="#5DA34B"/>
<path d="M204.89 160.6H198.44V167.12H204.89V160.6Z" fill="#429331"/>
<path d="M204.89 154.14H198.44V160.59H204.89V154.14Z" fill="#0C4913"/>
<path d="M204.89 147.62H198.44V154.14H204.89V147.62Z" fill="#0C4913"/>
<path d="M204.89 141.17H198.44V147.62H204.89V141.17Z" fill="#0C4913"/>
<path d="M204.89 134.65H198.44V141.17H204.89V134.65Z" fill="#0C4913"/>
<path d="M204.89 128.2H198.44V134.65H204.89V128.2Z" fill="#0C4913"/>
<path d="M204.89 121.68H198.44V128.2H204.89V121.68Z" fill="#429331"/>
<path d="M204.89 115.16H198.44V121.68H204.89V115.16Z" fill="#429331"/>
<path d="M204.89 108.71H198.44V115.16H204.89V108.71Z" fill="#429331"/>
<path d="M204.89 102.19H198.44V108.71H204.89V102.19Z" fill="#429331"/>
<path d="M204.89 95.7402H198.44V102.19H204.89V95.7402Z" fill="#429331"/>
<path d="M204.89 89.2197H198.44V95.7397H204.89V89.2197Z" fill="#429331"/>
<path d="M204.89 82.7598H198.44V89.2098H204.89V82.7598Z" fill="black"/>
<path d="M198.44 264.45H191.92V270.96H198.44V264.45Z" fill="black"/>
<path d="M198.44 257.98H191.92V264.44H198.44V257.98Z" fill="#416072"/>
<path d="M198.44 251.47H191.92V257.98H198.44V251.47Z" fill="#2E4851"/>
<path d="M198.44 245.021H191.92V251.471H198.44V245.021Z" fill="black"/>
<path d="M198.44 238.5H191.92V245.02H198.44V238.5Z" fill="#0C4913"/>
<path d="M198.44 232.04H191.92V238.49H198.44V232.04Z" fill="#0D561B"/>
<path d="M198.44 225.521H191.92V232.04H198.44V225.521Z" fill="#0D561B"/>
<path d="M198.44 219.01H191.92V225.52H198.44V219.01Z" fill="#0D561B"/>
<path d="M198.44 212.55H191.92V219H198.44V212.55Z" fill="#14661E"/>
<path d="M198.44 206.03H191.92V212.55H198.44V206.03Z" fill="black"/>
<path d="M198.44 199.58H191.92V206.03H198.44V199.58Z" fill="#429331"/>
<path d="M198.44 193.06H191.92V199.58H198.44V193.06Z" fill="#429331"/>
<path d="M198.44 186.61H191.92V193.06H198.44V186.61Z" fill="#429331"/>
<path d="M198.44 180.09H191.92V186.61H198.44V180.09Z" fill="#0C4913"/>
<path d="M198.44 173.64H191.92V180.09H198.44V173.64Z" fill="#0C4913"/>
<path d="M198.44 167.12H191.92V173.64H198.44V167.12Z" fill="#5DA34B"/>
<path d="M198.44 160.6H191.92V167.12H198.44V160.6Z" fill="#429331"/>
<path d="M198.44 154.14H191.92V160.59H198.44V154.14Z" fill="#0C4913"/>
<path d="M198.44 147.62H191.92V154.14H198.44V147.62Z" fill="#073A0F"/>
<path d="M198.44 141.17H191.92V147.62H198.44V141.17Z" fill="#073A0F"/>
<path d="M198.44 134.65H191.92V141.17H198.44V134.65Z" fill="#429331"/>
<path d="M198.44 128.2H191.92V134.65H198.44V128.2Z" fill="#429331"/>
<path d="M198.44 121.68H191.92V128.2H198.44V121.68Z" fill="#0C4913"/>
<path d="M198.44 115.16H191.92V121.68H198.44V115.16Z" fill="#429331"/>
<path d="M198.44 108.71H191.92V115.16H198.44V108.71Z" fill="black"/>
<path d="M198.44 102.19H191.92V108.71H198.44V102.19Z" fill="#429331"/>
<path d="M198.44 95.7402H191.92V102.19H198.44V95.7402Z" fill="black"/>
<path d="M198.44 89.2197H191.92V95.7397H198.44V89.2197Z" fill="#5BAF43"/>
<path d="M198.44 82.7598H191.92V89.2098H198.44V82.7598Z" fill="black"/>
<path d="M191.92 303.42H185.47V309.88H191.92V303.42Z" fill="black"/>
<path d="M191.92 296.91H185.47V303.42H191.92V296.91Z" fill="black"/>
<path d="M191.92 290.45H185.47V296.9H191.92V290.45Z" fill="black"/>
<path d="M191.92 283.93H185.47V290.45H191.92V283.93Z" fill="black"/>
<path d="M191.92 277.48H185.47V283.93H191.92V277.48Z" fill="black"/>
<path d="M191.92 270.96H185.47V277.48H191.92V270.96Z" fill="black"/>
<path d="M191.92 264.45H185.47V270.96H191.92V264.45Z" fill="black"/>
<path d="M191.92 257.98H185.47V264.44H191.92V257.98Z" fill="#416072"/>
<path d="M191.92 251.47H185.47V257.98H191.92V251.47Z" fill="#2E4851"/>
<path d="M191.92 245.021H185.47V251.471H191.92V245.021Z" fill="black"/>
<path d="M191.92 238.5H185.47V245.02H191.92V238.5Z" fill="#0C4913"/>
<path d="M191.92 232.04H185.47V238.49H191.92V232.04Z" fill="#0D561B"/>
<path d="M191.92 225.521H185.47V232.04H191.92V225.521Z" fill="#0D561B"/>
<path d="M191.92 219.01H185.47V225.52H191.92V219.01Z" fill="#0D561B"/>
<path d="M191.92 212.55H185.47V219H191.92V212.55Z" fill="#14661E"/>
<path d="M191.92 206.03H185.47V212.55H191.92V206.03Z" fill="black"/>
<path d="M191.92 199.58H185.47V206.03H191.92V199.58Z" fill="#0C4913"/>
<path d="M191.92 193.06H185.47V199.58H191.92V193.06Z" fill="#429331"/>
<path d="M191.92 186.61H185.47V193.06H191.92V186.61Z" fill="#429331"/>
<path d="M191.92 180.09H185.47V186.61H191.92V180.09Z" fill="#429331"/>
<path d="M191.92 173.64H185.47V180.09H191.92V173.64Z" fill="#0C4913"/>
<path d="M191.92 167.12H185.47V173.64H191.92V167.12Z" fill="#5DA34B"/>
<path d="M191.92 160.6H185.47V167.12H191.92V160.6Z" fill="#5DA34B"/>
<path d="M191.92 154.14H185.47V160.59H191.92V154.14Z" fill="#0C4913"/>
<path d="M191.92 147.62H185.47V154.14H191.92V147.62Z" fill="#073A0F"/>
<path d="M191.92 141.17H185.47V147.62H191.92V141.17Z" fill="#073A0F"/>
<path d="M191.92 134.65H185.47V141.17H191.92V134.65Z" fill="#429331"/>
<path d="M191.92 128.2H185.47V134.65H191.92V128.2Z" fill="#429331"/>
<path d="M191.92 121.68H185.47V128.2H191.92V121.68Z" fill="#0C4913"/>
<path d="M191.92 115.16H185.47V121.68H191.92V115.16Z" fill="#429331"/>
<path d="M191.92 108.71H185.47V115.16H191.92V108.71Z" fill="black"/>
<path d="M191.92 102.19H185.47V108.71H191.92V102.19Z" fill="#429331"/>
<path d="M191.92 95.7402H185.47V102.19H191.92V95.7402Z" fill="black"/>
<path d="M191.92 89.2197H185.47V95.7397H191.92V89.2197Z" fill="#5BAF43"/>
<path d="M191.92 82.7598H185.47V89.2098H191.92V82.7598Z" fill="black"/>
<path d="M185.47 322.85H178.95V329.37H185.47V322.85Z" fill="black"/>
<path d="M185.47 316.4H178.95V322.85H185.47V316.4Z" fill="black"/>
<path d="M185.47 309.88H178.95V316.39H185.47V309.88Z" fill="black"/>
<path d="M185.47 303.42H178.95V309.88H185.47V303.42Z" fill="#429331"/>
<path d="M185.47 296.91H178.95V303.42H185.47V296.91Z" fill="#429331"/>
<path d="M185.47 290.45H178.95V296.9H185.47V290.45Z" fill="#429331"/>
<path d="M185.47 283.93H178.95V290.45H185.47V283.93Z" fill="#429331"/>
<path d="M185.47 277.48H178.95V283.93H185.47V277.48Z" fill="#0C4913"/>
<path d="M185.47 270.96H178.95V277.48H185.47V270.96Z" fill="black"/>
<path d="M185.47 264.45H178.95V270.96H185.47V264.45Z" fill="#416072"/>
<path d="M185.47 257.98H178.95V264.44H185.47V257.98Z" fill="#2E4851"/>
<path d="M185.47 251.47H178.95V257.98H185.47V251.47Z" fill="#416072"/>
<path d="M185.47 245.021H178.95V251.471H185.47V245.021Z" fill="black"/>
<path d="M185.47 238.5H178.95V245.02H185.47V238.5Z" fill="#0C4913"/>
<path d="M185.47 232.04H178.95V238.49H185.47V232.04Z" fill="#0D561B"/>
<path d="M185.47 225.521H178.95V232.04H185.47V225.521Z" fill="#0D561B"/>
<path d="M185.47 219.01H178.95V225.52H185.47V219.01Z" fill="#0D561B"/>
<path d="M185.47 212.55H178.95V219H185.47V212.55Z" fill="#0D561B"/>
<path d="M185.47 206.03H178.95V212.55H185.47V206.03Z" fill="#14661E"/>
<path d="M185.47 199.58H178.95V206.03H185.47V199.58Z" fill="black"/>
<path d="M185.47 193.06H178.95V199.58H185.47V193.06Z" fill="#429331"/>
<path d="M185.47 186.61H178.95V193.06H185.47V186.61Z" fill="#429331"/>
<path d="M185.47 180.09H178.95V186.61H185.47V180.09Z" fill="#0C4913"/>
<path d="M185.47 173.64H178.95V180.09H185.47V173.64Z" fill="#0C4913"/>
<path d="M185.47 167.12H178.95V173.64H185.47V167.12Z" fill="#429331"/>
<path d="M185.47 160.6H178.95V167.12H185.47V160.6Z" fill="#0C4913"/>
<path d="M185.47 154.14H178.95V160.59H185.47V154.14Z" fill="#0C4913"/>
<path d="M185.47 147.62H178.95V154.14H185.47V147.62Z" fill="#5DA34B"/>
<path d="M185.47 141.17H178.95V147.62H185.47V141.17Z" fill="#073A0F"/>
<path d="M185.47 134.65H178.95V141.17H185.47V134.65Z" fill="#429331"/>
<path d="M185.47 128.2H178.95V134.65H185.47V128.2Z" fill="#429331"/>
<path d="M185.47 121.68H178.95V128.2H185.47V121.68Z" fill="#0C4913"/>
<path d="M185.47 115.16H178.95V121.68H185.47V115.16Z" fill="#0C4913"/>
<path d="M185.47 108.71H178.95V115.16H185.47V108.71Z" fill="#0C4913"/>
<path d="M185.47 102.19H178.95V108.71H185.47V102.19Z" fill="#0C4913"/>
<path d="M185.47 95.7402H178.95V102.19H185.47V95.7402Z" fill="#0C4913"/>
<path d="M185.47 89.2197H178.95V95.7397H185.47V89.2197Z" fill="#5BAF43"/>
<path d="M185.47 82.7598H178.95V89.2098H185.47V82.7598Z" fill="black"/>
<path d="M178.95 322.85H172.5V329.37H178.95V322.85Z" fill="#429331"/>
<path d="M178.95 316.4H172.5V322.85H178.95V316.4Z" fill="#0C4913"/>
<path d="M178.95 309.88H172.5V316.39H178.95V309.88Z" fill="#429331"/>
<path d="M178.95 303.42H172.5V309.88H178.95V303.42Z" fill="#429331"/>
<path d="M178.95 296.91H172.5V303.42H178.95V296.91Z" fill="#429331"/>
<path d="M178.95 290.45H172.5V296.9H178.95V290.45Z" fill="#429331"/>
<path d="M178.95 283.93H172.5V290.45H178.95V283.93Z" fill="#0C4913"/>
<path d="M178.95 277.48H172.5V283.93H178.95V277.48Z" fill="#0C4913"/>
<path d="M178.95 270.96H172.5V277.48H178.95V270.96Z" fill="black"/>
<path d="M178.95 264.45H172.5V270.96H178.95V264.45Z" fill="#416072"/>
<path d="M178.95 257.98H172.5V264.44H178.95V257.98Z" fill="#2E4851"/>
<path d="M178.95 251.47H172.5V257.98H178.95V251.47Z" fill="#416072"/>
<path d="M178.95 245.021H172.5V251.471H178.95V245.021Z" fill="black"/>
<path d="M178.95 238.5H172.5V245.02H178.95V238.5Z" fill="#0C4913"/>
<path d="M178.95 232.04H172.5V238.49H178.95V232.04Z" fill="#0D561B"/>
<path d="M178.95 225.521H172.5V232.04H178.95V225.521Z" fill="#0D561B"/>
<path d="M178.95 219.01H172.5V225.52H178.95V219.01Z" fill="#0D561B"/>
<path d="M178.95 212.55H172.5V219H178.95V212.55Z" fill="#14661E"/>
<path d="M178.95 206.03H172.5V212.55H178.95V206.03Z" fill="black"/>
<path d="M178.95 199.58H172.5V206.03H178.95V199.58Z" fill="#0C4913"/>
<path d="M178.95 193.06H172.5V199.58H178.95V193.06Z" fill="#0C4913"/>
<path d="M178.95 186.61H172.5V193.06H178.95V186.61Z" fill="#0C4913"/>
<path d="M178.95 180.09H172.5V186.61H178.95V180.09Z" fill="#0C4913"/>
<path d="M178.95 173.64H172.5V180.09H178.95V173.64Z" fill="#0C4913"/>
<path d="M178.95 167.12H172.5V173.64H178.95V167.12Z" fill="#429331"/>
<path d="M178.95 160.6H172.5V167.12H178.95V160.6Z" fill="#0C4913"/>
<path d="M178.95 154.14H172.5V160.59H178.95V154.14Z" fill="#0C4913"/>
<path d="M178.95 147.62H172.5V154.14H178.95V147.62Z" fill="#5DA34B"/>
<path d="M178.95 141.17H172.5V147.62H178.95V141.17Z" fill="#429331"/>
<path d="M178.95 134.65H172.5V141.17H178.95V134.65Z" fill="#0C4913"/>
<path d="M178.95 128.2H172.5V134.65H178.95V128.2Z" fill="#429331"/>
<path d="M178.95 121.68H172.5V128.2H178.95V121.68Z" fill="black"/>
<path d="M178.95 115.16H172.5V121.68H178.95V115.16Z" fill="black"/>
<path d="M178.95 108.71H172.5V115.16H178.95V108.71Z" fill="black"/>
<path d="M178.95 102.19H172.5V108.71H178.95V102.19Z" fill="black"/>
<path d="M178.95 95.7402H172.5V102.19H178.95V95.7402Z" fill="black"/>
<path d="M178.95 89.2197H172.5V95.7397H178.95V89.2197Z" fill="black"/>
<path d="M172.5 322.85H165.98V329.37H172.5V322.85Z" fill="#429331"/>
<path d="M172.5 316.4H165.98V322.85H172.5V316.4Z" fill="#429331"/>
<path d="M172.5 309.88H165.98V316.39H172.5V309.88Z" fill="#0C4913"/>
<path d="M172.5 303.42H165.98V309.88H172.5V303.42Z" fill="#5BAF43"/>
<path d="M172.5 296.91H165.98V303.42H172.5V296.91Z" fill="#429331"/>
<path d="M172.5 290.45H165.98V296.9H172.5V290.45Z" fill="#429331"/>
<path d="M172.5 283.93H165.98V290.45H172.5V283.93Z" fill="#0C4913"/>
<path d="M172.5 277.48H165.98V283.93H172.5V277.48Z" fill="#5BAF43"/>
<path d="M172.5 270.96H165.98V277.48H172.5V270.96Z" fill="black"/>
<path d="M172.5 264.45H165.98V270.96H172.5V264.45Z" fill="#416072"/>
<path d="M172.5 257.98H165.98V264.44H172.5V257.98Z" fill="#2E4851"/>
<path d="M172.5 251.47H165.98V257.98H172.5V251.47Z" fill="black"/>
<path d="M172.5 245.021H165.98V251.471H172.5V245.021Z" fill="#0C4913"/>
<path d="M172.5 238.5H165.98V245.02H172.5V238.5Z" fill="#0D561B"/>
<path d="M172.5 232.04H165.98V238.49H172.5V232.04Z" fill="#0D561B"/>
<path d="M172.5 225.521H165.98V232.04H172.5V225.521Z" fill="#0D561B"/>
<path d="M172.5 219.01H165.98V225.52H172.5V219.01Z" fill="#14661E"/>
<path d="M172.5 212.55H165.98V219H172.5V212.55Z" fill="black"/>
<path d="M172.5 206.03H165.98V212.55H172.5V206.03Z" fill="black"/>
<path d="M172.5 199.58H165.98V206.03H172.5V199.58Z" fill="black"/>
<path d="M172.5 193.06H165.98V199.58H172.5V193.06Z" fill="black"/>
<path d="M172.5 186.61H165.98V193.06H172.5V186.61Z" fill="#0C4913"/>
<path d="M172.5 180.09H165.98V186.61H172.5V180.09Z" fill="black"/>
<path d="M172.5 173.64H165.98V180.09H172.5V173.64Z" fill="#429331"/>
<path d="M172.5 167.12H165.98V173.64H172.5V167.12Z" fill="#0C4913"/>
<path d="M172.5 160.6H165.98V167.12H172.5V160.6Z" fill="#0C4913"/>
<path d="M172.5 154.14H165.98V160.59H172.5V154.14Z" fill="#0C4913"/>
<path d="M172.5 147.62H165.98V154.14H172.5V147.62Z" fill="#0C4913"/>
<path d="M172.5 141.17H165.98V147.62H172.5V141.17Z" fill="#0C4913"/>
<path d="M172.5 134.65H165.98V141.17H172.5V134.65Z" fill="#0C4913"/>
<path d="M172.5 128.2H165.98V134.65H172.5V128.2Z" fill="black"/>
<path d="M172.5 121.68H165.98V128.2H172.5V121.68Z" fill="#102126"/>
<path d="M172.5 115.16H165.98V121.68H172.5V115.16Z" fill="#102126"/>
<path d="M172.5 108.71H165.98V115.16H172.5V108.71Z" fill="#416072"/>
<path d="M172.5 102.19H165.98V108.71H172.5V102.19Z" fill="black"/>
<path d="M165.98 322.85H159.53V329.37H165.98V322.85Z" fill="#429331"/>
<path d="M165.98 316.4H159.53V322.85H165.98V316.4Z" fill="#0C4913"/>
<path d="M165.98 309.88H159.53V316.39H165.98V309.88Z" fill="#5BAF43"/>
<path d="M165.98 303.42H159.53V309.88H165.98V303.42Z" fill="black"/>
<path d="M165.98 296.91H159.53V303.42H165.98V296.91Z" fill="black"/>
<path d="M165.98 290.45H159.53V296.9H165.98V290.45Z" fill="black"/>
<path d="M165.98 283.93H159.53V290.45H165.98V283.93Z" fill="black"/>
<path d="M165.98 277.48H159.53V283.93H165.98V277.48Z" fill="black"/>
<path d="M165.98 270.96H159.53V277.48H165.98V270.96Z" fill="black"/>
<path d="M165.98 264.45H159.53V270.96H165.98V264.45Z" fill="#2E4851"/>
<path d="M165.98 257.98H159.53V264.44H165.98V257.98Z" fill="#416072"/>
<path d="M165.98 251.47H159.53V257.98H165.98V251.47Z" fill="black"/>
<path d="M165.98 245.021H159.53V251.471H165.98V245.021Z" fill="black"/>
<path d="M165.98 238.5H159.53V245.02H165.98V238.5Z" fill="#0C4913"/>
<path d="M165.98 232.04H159.53V238.49H165.98V232.04Z" fill="#0D561B"/>
<path d="M165.98 225.521H159.53V232.04H165.98V225.521Z" fill="#0D561B"/>
<path d="M165.98 219.01H159.53V225.52H165.98V219.01Z" fill="black"/>
<path d="M165.98 212.55H159.53V219H165.98V212.55Z" fill="black"/>
<path d="M165.98 186.61H159.53V193.06H165.98V186.61Z" fill="black"/>
<path d="M165.98 180.09H159.53V186.61H165.98V180.09Z" fill="black"/>
<path d="M165.98 173.64H159.53V180.09H165.98V173.64Z" fill="black"/>
<path d="M165.98 167.12H159.53V173.64H165.98V167.12Z" fill="#0C4913"/>
<path d="M165.98 160.6H159.53V167.12H165.98V160.6Z" fill="#0C4913"/>
<path d="M165.98 154.14H159.53V160.59H165.98V154.14Z" fill="#0C4913"/>
<path d="M165.98 147.62H159.53V154.14H165.98V147.62Z" fill="#429331"/>
<path d="M165.98 141.17H159.53V147.62H165.98V141.17Z" fill="#429331"/>
<path d="M165.98 134.65H159.53V141.17H165.98V134.65Z" fill="black"/>
<path d="M165.98 128.2H159.53V134.65H165.98V128.2Z" fill="#102126"/>
<path d="M165.98 121.68H159.53V128.2H165.98V121.68Z" fill="#102126"/>
<path d="M165.98 115.16H159.53V121.68H165.98V115.16Z" fill="#2E4851"/>
<path d="M165.98 108.71H159.53V115.16H165.98V108.71Z" fill="#416072"/>
<path d="M165.98 102.19H159.53V108.71H165.98V102.19Z" fill="black"/>
<path d="M159.53 322.85H153.01V329.37H159.53V322.85Z" fill="#429331"/>
<path d="M159.53 316.4H153.01V322.85H159.53V316.4Z" fill="black"/>
<path d="M159.53 309.88H153.01V316.39H159.53V309.88Z" fill="black"/>
<path d="M159.53 277.48H153.01V283.93H159.53V277.48Z" fill="black"/>
<path d="M159.53 270.96H153.01V277.48H159.53V270.96Z" fill="#416072"/>
<path d="M159.53 264.45H153.01V270.96H159.53V264.45Z" fill="#2E4851"/>
<path d="M159.53 257.98H153.01V264.44H159.53V257.98Z" fill="#416072"/>
<path d="M159.53 251.47H153.01V257.98H159.53V251.47Z" fill="black"/>
<path d="M159.53 238.5H153.01V245.02H159.53V238.5Z" fill="black"/>
<path d="M159.53 232.04H153.01V238.49H159.53V232.04Z" fill="black"/>
<path d="M159.53 225.521H153.01V232.04H159.53V225.521Z" fill="black"/>
<path d="M159.53 193.06H153.01V199.58H159.53V193.06Z" fill="black"/>
<path d="M159.53 186.61H153.01V193.06H159.53V186.61Z" fill="#429331"/>
<path d="M159.53 180.09H153.01V186.61H159.53V180.09Z" fill="#429331"/>
<path d="M159.53 173.64H153.01V180.09H159.53V173.64Z" fill="#0C4913"/>
<path d="M159.53 167.12H153.01V173.64H159.53V167.12Z" fill="#0C4913"/>
<path d="M159.53 160.6H153.01V167.12H159.53V160.6Z" fill="#0C4913"/>
<path d="M159.53 154.14H153.01V160.59H159.53V154.14Z" fill="#429331"/>
<path d="M159.53 147.62H153.01V154.14H159.53V147.62Z" fill="#429331"/>
<path d="M159.53 141.17H153.01V147.62H159.53V141.17Z" fill="black"/>
<path d="M159.53 134.65H153.01V141.17H159.53V134.65Z" fill="#102126"/>
<path d="M159.53 128.2H153.01V134.65H159.53V128.2Z" fill="#102126"/>
<path d="M159.53 121.68H153.01V128.2H159.53V121.68Z" fill="#2E4851"/>
<path d="M159.53 115.16H153.01V121.68H159.53V115.16Z" fill="#416072"/>
<path d="M159.53 108.71H153.01V115.16H159.53V108.71Z" fill="black"/>
<path d="M153.01 322.85H146.49V329.37H153.01V322.85Z" fill="#5BAF43"/>
<path d="M153.01 316.4H146.49V322.85H153.01V316.4Z" fill="black"/>
<path d="M153.01 283.93H146.49V290.45H153.01V283.93Z" fill="black"/>
<path d="M153.01 277.48H146.49V283.93H153.01V277.48Z" fill="#416072"/>
<path d="M153.01 270.96H146.49V277.48H153.01V270.96Z" fill="#2E4851"/>
<path d="M153.01 264.45H146.49V270.96H153.01V264.45Z" fill="#416072"/>
<path d="M153.01 257.98H146.49V264.44H153.01V257.98Z" fill="#416072"/>
<path d="M153.01 251.47H146.49V257.98H153.01V251.47Z" fill="black"/>
<path d="M153.01 186.61H146.49V193.06H153.01V186.61Z" fill="black"/>
<path d="M153.01 180.09H146.49V186.61H153.01V180.09Z" fill="black"/>
<path d="M153.01 173.64H146.49V180.09H153.01V173.64Z" fill="#429331"/>
<path d="M153.01 167.12H146.49V173.64H153.01V167.12Z" fill="#429331"/>
<path d="M153.01 160.6H146.49V167.12H153.01V160.6Z" fill="#429331"/>
<path d="M153.01 154.14H146.49V160.59H153.01V154.14Z" fill="#429331"/>
<path d="M153.01 147.62H146.49V154.14H153.01V147.62Z" fill="black"/>
<path d="M153.01 141.17H146.49V147.62H153.01V141.17Z" fill="#102126"/>
<path d="M153.01 134.65H146.49V141.17H153.01V134.65Z" fill="#102126"/>
<path d="M153.01 128.2H146.49V134.65H153.01V128.2Z" fill="#102126"/>
<path d="M153.01 121.68H146.49V128.2H153.01V121.68Z" fill="#2E4851"/>
<path d="M153.01 115.16H146.49V121.68H153.01V115.16Z" fill="#416072"/>
<path d="M153.01 108.71H146.49V115.16H153.01V108.71Z" fill="black"/>
<path d="M146.49 322.85H140.04V329.37H146.49V322.85Z" fill="black"/>
<path d="M146.49 283.93H140.04V290.45H146.49V283.93Z" fill="black"/>
<path d="M146.49 277.48H140.04V283.93H146.49V277.48Z" fill="#416072"/>
<path d="M146.49 270.96H140.04V277.48H146.49V270.96Z" fill="#2E4851"/>
<path d="M146.49 264.45H140.04V270.96H146.49V264.45Z" fill="#416072"/>
<path d="M146.49 257.98H140.04V264.44H146.49V257.98Z" fill="black"/>
<path d="M146.49 193.06H140.04V199.58H146.49V193.06Z" fill="black"/>
<path d="M146.49 186.61H140.04V193.06H146.49V186.61Z" fill="black"/>
<path d="M146.49 180.09H140.04V186.61H146.49V180.09Z" fill="#0C4913"/>
<path d="M146.49 173.64H140.04V180.09H146.49V173.64Z" fill="#0C4913"/>
<path d="M146.49 167.12H140.04V173.64H146.49V167.12Z" fill="#0C4913"/>
<path d="M146.49 160.6H140.04V167.12H146.49V160.6Z" fill="#0C4913"/>
<path d="M146.49 154.14H140.04V160.59H146.49V154.14Z" fill="black"/>
<path d="M146.49 147.62H140.04V154.14H146.49V147.62Z" fill="#102126"/>
<path d="M146.49 141.17H140.04V147.62H146.49V141.17Z" fill="#102126"/>
<path d="M146.49 134.65H140.04V141.17H146.49V134.65Z" fill="#102126"/>
<path d="M146.49 128.2H140.04V134.65H146.49V128.2Z" fill="#2F4B5B"/>
<path d="M146.49 121.68H140.04V128.2H146.49V121.68Z" fill="#2E4851"/>
<path d="M146.49 115.16H140.04V121.68H146.49V115.16Z" fill="#416072"/>
<path d="M146.49 108.71H140.04V115.16H146.49V108.71Z" fill="black"/>
<path d="M140.04 283.93H133.52V290.45H140.04V283.93Z" fill="black"/>
<path d="M140.04 277.48H133.52V283.93H140.04V277.48Z" fill="#416072"/>
<path d="M140.04 270.96H133.52V277.48H140.04V270.96Z" fill="#2E4851"/>
<path d="M140.04 264.45H133.52V270.96H140.04V264.45Z" fill="#416072"/>
<path d="M140.04 257.98H133.52V264.44H140.04V257.98Z" fill="black"/>
<path d="M140.04 193.06H133.52V199.58H140.04V193.06Z" fill="black"/>
<path d="M140.04 186.61H133.52V193.06H140.04V186.61Z" fill="#0C4913"/>
<path d="M140.04 180.09H133.52V186.61H140.04V180.09Z" fill="#0C4913"/>
<path d="M140.04 173.64H133.52V180.09H140.04V173.64Z" fill="#0C4913"/>
<path d="M140.04 167.12H133.52V173.64H140.04V167.12Z" fill="#429331"/>
<path d="M140.04 160.6H133.52V167.12H140.04V160.6Z" fill="#0D561B"/>
<path d="M140.04 154.14H133.52V160.59H140.04V154.14Z" fill="#0D561B"/>
<path d="M140.04 147.62H133.52V154.14H140.04V147.62Z" fill="black"/>
<path d="M140.04 141.17H133.52V147.62H140.04V141.17Z" fill="#102126"/>
<path d="M140.04 134.65H133.52V141.17H140.04V134.65Z" fill="#2F4B5B"/>
<path d="M140.04 128.2H133.52V134.65H140.04V128.2Z" fill="#E7BD00"/>
<path d="M140.04 121.68H133.52V128.2H140.04V121.68Z" fill="#2E4851"/>
<path d="M140.04 115.16H133.52V121.68H140.04V115.16Z" fill="black"/>
<path d="M133.51 283.93H127.06V290.45H133.51V283.93Z" fill="black"/>
<path d="M133.51 277.48H127.06V283.93H133.51V277.48Z" fill="#416072"/>
<path d="M133.51 270.96H127.06V277.48H133.51V270.96Z" fill="#2E4851"/>
<path d="M133.51 264.45H127.06V270.96H133.51V264.45Z" fill="#416072"/>
<path d="M133.51 257.98H127.06V264.44H133.51V257.98Z" fill="black"/>
<path d="M133.51 193.06H127.06V199.58H133.51V193.06Z" fill="black"/>
<path d="M133.51 186.61H127.06V193.06H133.51V186.61Z" fill="#0C4913"/>
<path d="M133.51 180.09H127.06V186.61H133.51V180.09Z" fill="#0C4913"/>
<path d="M133.51 173.64H127.06V180.09H133.51V173.64Z" fill="#429331"/>
<path d="M133.51 167.12H127.06V173.64H133.51V167.12Z" fill="#0D561B"/>
<path d="M133.51 160.6H127.06V167.12H133.51V160.6Z" fill="#0D561B"/>
<path d="M133.51 154.14H127.06V160.59H133.51V154.14Z" fill="#0D561B"/>
<path d="M133.51 147.62H127.06V154.14H133.51V147.62Z" fill="#0D561B"/>
<path d="M133.51 141.17H127.06V147.62H133.51V141.17Z" fill="black"/>
<path d="M133.51 134.65H127.06V141.17H133.51V134.65Z" fill="#102126"/>
<path d="M133.51 128.2H127.06V134.65H133.51V128.2Z" fill="#E7BD00"/>
<path d="M133.51 121.68H127.06V128.2H133.51V121.68Z" fill="#E7BD00"/>
<path d="M133.51 115.16H127.06V121.68H133.51V115.16Z" fill="black"/>
<path d="M127.06 283.93H120.54V290.45H127.06V283.93Z" fill="black"/>
<path d="M127.06 277.48H120.54V283.93H127.06V277.48Z" fill="#416072"/>
<path d="M127.06 270.96H120.54V277.48H127.06V270.96Z" fill="#2E4851"/>
<path d="M127.06 264.45H120.54V270.96H127.06V264.45Z" fill="#416072"/>
<path d="M127.06 257.98H120.54V264.44H127.06V257.98Z" fill="black"/>
<path d="M127.06 186.61H120.54V193.06H127.06V186.61Z" fill="black"/>
<path d="M127.06 180.09H120.54V186.61H127.06V180.09Z" fill="#0C4913"/>
<path d="M127.06 173.64H120.54V180.09H127.06V173.64Z" fill="#429331"/>
<path d="M127.06 167.12H120.54V173.64H127.06V167.12Z" fill="#0D561B"/>
<path d="M127.06 160.6H120.54V167.12H127.06V160.6Z" fill="#0D561B"/>
<path d="M127.06 154.14H120.54V160.59H127.06V154.14Z" fill="#0D561B"/>
<path d="M127.06 147.62H120.54V154.14H127.06V147.62Z" fill="#0D561B"/>
<path d="M127.06 141.17H120.54V147.62H127.06V141.17Z" fill="black"/>
<path d="M127.06 134.65H120.54V141.17H127.06V134.65Z" fill="black"/>
<path d="M127.06 128.2H120.54V134.65H127.06V128.2Z" fill="black"/>
<path d="M127.06 121.68H120.54V128.2H127.06V121.68Z" fill="black"/>
<path d="M120.54 283.93H114.09V290.45H120.54V283.93Z" fill="black"/>
<path d="M120.54 277.48H114.09V283.93H120.54V277.48Z" fill="#416072"/>
<path d="M120.54 270.96H114.09V277.48H120.54V270.96Z" fill="#2E4851"/>
<path d="M120.54 264.45H114.09V270.96H120.54V264.45Z" fill="#416072"/>
<path d="M120.54 257.98H114.09V264.44H120.54V257.98Z" fill="black"/>
<path d="M120.54 180.09H114.09V186.61H120.54V180.09Z" fill="black"/>
<path d="M120.54 173.64H114.09V180.09H120.54V173.64Z" fill="black"/>
<path d="M120.54 167.12H114.09V173.64H120.54V167.12Z" fill="black"/>
<path d="M120.54 160.6H114.09V167.12H120.54V160.6Z" fill="black"/>
<path d="M120.54 154.14H114.09V160.59H120.54V154.14Z" fill="#0D561B"/>
<path d="M120.54 147.62H114.09V154.14H120.54V147.62Z" fill="#0D561B"/>
<path d="M120.54 141.17H114.09V147.62H120.54V141.17Z" fill="black"/>
<path d="M120.54 134.65H114.09V141.17H120.54V134.65Z" fill="black"/>
<path d="M120.54 128.2H114.09V134.65H120.54V128.2Z" fill="black"/>
<path d="M120.54 121.68H114.09V128.2H120.54V121.68Z" fill="black"/>
<path d="M114.09 277.48H107.57V283.93H114.09V277.48Z" fill="black"/>
<path d="M114.09 270.96H107.57V277.48H114.09V270.96Z" fill="#416072"/>
<path d="M114.09 264.45H107.57V270.96H114.09V264.45Z" fill="#416072"/>
<path d="M114.09 257.98H107.57V264.44H114.09V257.98Z" fill="black"/>
<path d="M114.09 160.6H107.57V167.12H114.09V160.6Z" fill="black"/>
<path d="M114.09 154.14H107.57V160.59H114.09V154.14Z" fill="black"/>
<path d="M114.09 147.62H107.57V154.14H114.09V147.62Z" fill="black"/>
<path d="M114.09 141.17H107.57V147.62H114.09V141.17Z" fill="black"/>
<path d="M114.09 134.65H107.57V141.17H114.09V134.65Z" fill="#0D561B"/>
<path d="M114.09 128.2H107.57V134.65H114.09V128.2Z" fill="#0D561B"/>
<path d="M114.09 121.68H107.57V128.2H114.09V121.68Z" fill="black"/>
<path d="M107.57 270.96H101.05V277.48H107.57V270.96Z" fill="black"/>
<path d="M107.57 264.45H101.05V270.96H107.57V264.45Z" fill="#416072"/>
<path d="M107.57 257.98H101.05V264.44H107.57V257.98Z" fill="black"/>
<path d="M107.57 154.14H101.05V160.59H107.57V154.14Z" fill="black"/>
<path d="M107.57 147.62H101.05V154.14H107.57V147.62Z" fill="black"/>
<path d="M107.57 141.17H101.05V147.62H107.57V141.17Z" fill="#0D561B"/>
<path d="M107.57 134.65H101.05V141.17H107.57V134.65Z" fill="#0D561B"/>
<path d="M107.57 128.2H101.05V134.65H107.57V128.2Z" fill="#0D561B"/>
<path d="M107.57 121.68H101.05V128.2H107.57V121.68Z" fill="black"/>
<path d="M101.05 264.45H94.6V270.96H101.05V264.45Z" fill="black"/>
<path d="M101.05 257.98H94.6V264.44H101.05V257.98Z" fill="black"/>
<path d="M101.05 154.14H94.6V160.59H101.05V154.14Z" fill="black"/>
<path d="M101.05 147.62H94.6V154.14H101.05V147.62Z" fill="black"/>
<path d="M101.05 141.17H94.6V147.62H101.05V141.17Z" fill="#0D561B"/>
<path d="M101.05 134.65H94.6V141.17H101.05V134.65Z" fill="#0D561B"/>
<path d="M101.05 128.2H94.6V134.65H101.05V128.2Z" fill="black"/>
<path d="M94.6 154.14H88.08V160.59H94.6V154.14Z" fill="black"/>
<path d="M94.6 147.62H88.08V154.14H94.6V147.62Z" fill="#E7BD00"/>
<path d="M94.6 141.17H88.08V147.62H94.6V141.17Z" fill="black"/>
<path d="M94.6 134.65H88.08V141.17H94.6V134.65Z" fill="black"/>
<path d="M88.08 160.6H81.63V167.12H88.08V160.6Z" fill="black"/>
<path d="M88.08 154.14H81.63V160.59H88.08V154.14Z" fill="#E7BD00"/>
<path d="M88.08 147.62H81.63V154.14H88.08V147.62Z" fill="black"/>
<path d="M81.63 160.6H75.11V167.12H81.63V160.6Z" fill="black"/>
<path d="M81.63 154.14H75.11V160.59H81.63V154.14Z" fill="black"/>
<path d="M81.63 147.62H75.11V154.14H81.63V147.62Z" fill="black"/>
</svg>
