<svg width="400" height="400" viewBox="0 0 400 400" fill="none" xmlns="http://www.w3.org/2000/svg">
<path d="M385.78 200C385.78 302.6 302.6 385.78 200 385.78C97.4 385.78 14.22 302.6 14.22 200C14.22 97.3997 97.39 14.2197 200 14.2197C302.61 14.2197 385.78 97.3997 385.78 200Z" fill="black"/>
<path d="M200 392.78C93.7 392.78 7.21997 306.3 7.21997 200C7.21997 93.6997 93.7 7.21973 200 7.21973C306.3 7.21973 392.78 93.6997 392.78 200C392.78 306.3 306.3 392.78 200 392.78ZM200 21.2197C101.42 21.2197 21.22 101.42 21.22 200C21.22 298.58 101.42 378.78 200 378.78C298.58 378.78 378.78 298.58 378.78 200C378.78 101.42 298.58 21.2197 200 21.2197Z" fill="#439B3E"/>
<path d="M287.93 206.27H281.45V212.75H287.93V206.27Z" fill="#754807"/>
<path d="M281.45 219.29H274.91V225.77H281.45V219.29Z" fill="#968E8B"/>
<path d="M281.45 212.75H274.91V219.29H281.45V212.75Z" fill="#754807"/>
<path d="M281.45 206.27H274.91V212.75H281.45V206.27Z" fill="#754807"/>
<path d="M281.45 199.72H274.91V206.26H281.45V199.72Z" fill="#754807"/>
<path d="M274.9 225.76H268.36V232.3H274.9V225.76Z" fill="#754807"/>
<path d="M274.9 219.29H268.36V225.77H274.9V219.29Z" fill="#754807"/>
<path d="M274.9 212.75H268.36V219.29H274.9V212.75Z" fill="#968E8B"/>
<path d="M274.9 206.27H268.36V212.75H274.9V206.27Z" fill="#754807"/>
<path d="M274.9 199.72H268.36V206.26H274.9V199.72Z" fill="#754807"/>
<path d="M274.9 193.25H268.36V199.73H274.9V193.25Z" fill="#754807"/>
<path d="M274.9 160.67H268.36V167.15H274.9V160.67Z" fill="#020000"/>
<path d="M274.9 154.13H268.36V160.67H274.9V154.13Z" fill="#020000"/>
<path d="M274.9 147.65H268.36V154.13H274.9V147.65Z" fill="#020000"/>
<path d="M274.9 141.11H268.36V147.65H274.9V141.11Z" fill="#020000"/>
<path d="M268.36 232.3H261.88V238.84H268.36V232.3Z" fill="#968E8B"/>
<path d="M268.36 225.76H261.88V232.3H268.36V225.76Z" fill="#754807"/>
<path d="M268.36 219.29H261.88V225.77H268.36V219.29Z" fill="#754807"/>
<path d="M268.36 212.75H261.88V219.29H268.36V212.75Z" fill="#754807"/>
<path d="M268.36 206.27H261.88V212.75H268.36V206.27Z" fill="#968E8B"/>
<path d="M268.36 199.72H261.88V206.26H268.36V199.72Z" fill="#754807"/>
<path d="M268.36 193.25H261.88V199.73H268.36V193.25Z" fill="#754807"/>
<path d="M268.36 173.69H261.88V180.23H268.36V173.69Z" fill="#020000"/>
<path d="M268.36 167.14H261.88V173.68H268.36V167.14Z" fill="#020000"/>
<path d="M268.36 160.67H261.88V167.15H268.36V160.67Z" fill="#586689"/>
<path d="M268.36 154.13H261.88V160.67H268.36V154.13Z" fill="#586689"/>
<path d="M268.36 147.65H261.88V154.13H268.36V147.65Z" fill="#586689"/>
<path d="M268.36 141.11H261.88V147.65H268.36V141.11Z" fill="#586689"/>
<path d="M268.36 134.64H261.88V141.12H268.36V134.64Z" fill="#020000"/>
<path d="M261.88 238.85H255.34V245.33H261.88V238.85Z" fill="#754807"/>
<path d="M261.88 232.3H255.34V238.84H261.88V232.3Z" fill="#754807"/>
<path d="M261.88 225.76H255.34V232.3H261.88V225.76Z" fill="#968E8B"/>
<path d="M261.88 219.29H255.34V225.77H261.88V219.29Z" fill="#754807"/>
<path d="M261.88 212.75H255.34V219.29H261.88V212.75Z" fill="#754807"/>
<path d="M261.88 206.27H255.34V212.75H261.88V206.27Z" fill="#754807"/>
<path d="M261.88 199.72H255.34V206.26H261.88V199.72Z" fill="#968E8B"/>
<path d="M261.88 180.23H255.34V186.71H261.88V180.23Z" fill="#020000"/>
<path d="M261.88 173.69H255.34V180.23H261.88V173.69Z" fill="#439B3E"/>
<path d="M261.88 167.14H255.34V173.68H261.88V167.14Z" fill="#439B3E"/>
<path d="M261.88 160.67H255.34V167.15H261.88V160.67Z" fill="#717A97"/>
<path d="M261.88 154.13H255.34V160.67H261.88V154.13Z" fill="#717A97"/>
<path d="M261.88 147.65H255.34V154.13H261.88V147.65Z" fill="#586689"/>
<path d="M261.88 141.11H255.34V147.65H261.88V141.11Z" fill="#586689"/>
<path d="M261.88 134.64H255.34V141.12H261.88V134.64Z" fill="#586689"/>
<path d="M261.88 128.09H255.34V134.63H261.88V128.09Z" fill="#020000"/>
<path d="M255.35 329.98H248.87V336.52H255.35V329.98Z" fill="#020000"/>
<path d="M255.35 323.5H248.87V329.98H255.35V323.5Z" fill="#020000"/>
<path d="M255.35 316.96H248.87V323.5H255.35V316.96Z" fill="#020000"/>
<path d="M255.35 310.49H248.87V316.97H255.35V310.49Z" fill="#020000"/>
<path d="M255.35 303.94H248.87V310.48H255.35V303.94Z" fill="#020100"/>
<path d="M255.35 297.46H248.87V303.94H255.35V297.46Z" fill="#020100"/>
<path d="M255.35 290.92H248.87V297.46H255.35V290.92Z" fill="#020000"/>
<path d="M255.35 284.45H248.87V290.93H255.35V284.45Z" fill="#020000"/>
<path d="M255.35 277.91H248.87V284.45H255.35V277.91Z" fill="#020000"/>
<path d="M255.35 271.36H248.87V277.9H255.35V271.36Z" fill="#020000"/>
<path d="M255.35 264.88H248.87V271.36H255.35V264.88Z" fill="#020000"/>
<path d="M255.35 258.34H248.87V264.88H255.35V258.34Z" fill="#020000"/>
<path d="M255.35 251.87H248.87V258.35H255.35V251.87Z" fill="#020000"/>
<path d="M255.35 245.33H248.87V251.87H255.35V245.33Z" fill="#020000"/>
<path d="M255.35 238.85H248.87V245.33H255.35V238.85Z" fill="#020000"/>
<path d="M255.35 232.3H248.87V238.84H255.35V232.3Z" fill="#754807"/>
<path d="M255.35 225.76H248.87V232.3H255.35V225.76Z" fill="#754807"/>
<path d="M255.35 219.29H248.87V225.77H255.35V219.29Z" fill="#968E8B"/>
<path d="M255.35 212.75H248.87V219.29H255.35V212.75Z" fill="#754807"/>
<path d="M255.35 206.27H248.87V212.75H255.35V206.27Z" fill="#49302B"/>
<path d="M255.35 199.72H248.87V206.26H255.35V199.72Z" fill="#49302B"/>
<path d="M255.35 193.25H248.87V199.73H255.35V193.25Z" fill="#968E8B"/>
<path d="M255.35 186.71H248.87V193.25H255.35V186.71Z" fill="#020000"/>
<path d="M255.35 180.23H248.87V186.71H255.35V180.23Z" fill="#439B3E"/>
<path d="M255.35 173.69H248.87V180.23H255.35V173.69Z" fill="#439B3E"/>
<path d="M255.35 167.14H248.87V173.68H255.35V167.14Z" fill="#439B3E"/>
<path d="M255.35 160.67H248.87V167.15H255.35V160.67Z" fill="#439B3E"/>
<path d="M255.35 154.13H248.87V160.67H255.35V154.13Z" fill="#717A97"/>
<path d="M255.35 147.65H248.87V154.13H255.35V147.65Z" fill="#717A97"/>
<path d="M255.35 141.11H248.87V147.65H255.35V141.11Z" fill="#586689"/>
<path d="M255.35 134.64H248.87V141.12H255.35V134.64Z" fill="#586689"/>
<path d="M255.35 128.09H248.87V134.63H255.35V128.09Z" fill="#586689"/>
<path d="M255.35 121.55H248.87V128.09H255.35V121.55Z" fill="#020000"/>
<path d="M248.87 329.98H242.33V336.52H248.87V329.98Z" fill="#020000"/>
<path d="M248.87 323.5H242.33V329.98H248.87V323.5Z" fill="#2B1910"/>
<path d="M248.87 316.96H242.33V323.5H248.87V316.96Z" fill="#2B1910"/>
<path d="M248.87 310.49H242.33V316.97H248.87V310.49Z" fill="#2B1910"/>
<path d="M248.87 303.94H242.33V310.48H248.87V303.94Z" fill="#2B1910"/>
<path d="M248.87 297.46H242.33V303.94H248.87V297.46Z" fill="#2B1910"/>
<path d="M248.87 290.92H242.33V297.46H248.87V290.92Z" fill="#2B1910"/>
<path d="M248.87 284.45H242.33V290.93H248.87V284.45Z" fill="#381D18"/>
<path d="M248.87 277.91H242.33V284.45H248.87V277.91Z" fill="#381D18"/>
<path d="M248.87 271.36H242.33V277.9H248.87V271.36Z" fill="#381D18"/>
<path d="M248.87 264.88H242.33V271.36H248.87V264.88Z" fill="#381D18"/>
<path d="M248.87 258.34H242.33V264.88H248.87V258.34Z" fill="#381D18"/>
<path d="M248.87 251.87H242.33V258.35H248.87V251.87Z" fill="#381D18"/>
<path d="M248.87 245.33H242.33V251.87H248.87V245.33Z" fill="#381D18"/>
<path d="M248.87 238.85H242.33V245.33H248.87V238.85Z" fill="#381D18"/>
<path d="M248.87 232.3H242.33V238.84H248.87V232.3Z" fill="#020000"/>
<path d="M248.87 225.76H242.33V232.3H248.87V225.76Z" fill="#754807"/>
<path d="M248.87 219.29H242.33V225.77H248.87V219.29Z" fill="#968E8B"/>
<path d="M248.87 212.75H242.33V219.29H248.87V212.75Z" fill="#49302B"/>
<path d="M248.87 206.27H242.33V212.75H248.87V206.27Z" fill="#49302B"/>
<path d="M248.87 199.72H242.33V206.26H248.87V199.72Z" fill="#968E8B"/>
<path d="M248.87 193.25H242.33V199.73H248.87V193.25Z" fill="#020000"/>
<path d="M248.87 186.71H242.33V193.25H248.87V186.71Z" fill="#439B3E"/>
<path d="M248.87 180.23H242.33V186.71H248.87V180.23Z" fill="#439B3E"/>
<path d="M248.87 173.69H242.33V180.23H248.87V173.69Z" fill="#34872D"/>
<path d="M248.87 167.14H242.33V173.68H248.87V167.14Z" fill="#34872D"/>
<path d="M248.87 160.67H242.33V167.15H248.87V160.67Z" fill="#439B3E"/>
<path d="M248.87 154.13H242.33V160.67H248.87V154.13Z" fill="#717A97"/>
<path d="M248.87 147.65H242.33V154.13H248.87V147.65Z" fill="#717A97"/>
<path d="M248.87 141.11H242.33V147.65H248.87V141.11Z" fill="#717A97"/>
<path d="M248.87 134.64H242.33V141.12H248.87V134.64Z" fill="#586689"/>
<path d="M248.87 128.09H242.33V134.63H248.87V128.09Z" fill="#586689"/>
<path d="M248.87 121.55H242.33V128.09H248.87V121.55Z" fill="#020000"/>
<path d="M242.33 323.5H235.85V329.98H242.33V323.5Z" fill="#020100"/>
<path d="M242.33 316.96H235.85V323.5H242.33V316.96Z" fill="#2B1910"/>
<path d="M242.33 310.49H235.85V316.97H242.33V310.49Z" fill="#2B1910"/>
<path d="M242.33 303.94H235.85V310.48H242.33V303.94Z" fill="#2B1910"/>
<path d="M242.33 297.46H235.85V303.94H242.33V297.46Z" fill="#2B1910"/>
<path d="M242.33 290.92H235.85V297.46H242.33V290.92Z" fill="#2B1910"/>
<path d="M242.33 284.45H235.85V290.93H242.33V284.45Z" fill="#49302B"/>
<path d="M242.33 277.91H235.85V284.45H242.33V277.91Z" fill="#381D18"/>
<path d="M242.33 271.36H235.85V277.9H242.33V271.36Z" fill="#381D18"/>
<path d="M242.33 264.88H235.85V271.36H242.33V264.88Z" fill="#381D18"/>
<path d="M242.33 258.34H235.85V264.88H242.33V258.34Z" fill="#020100"/>
<path d="M242.33 251.87H235.85V258.35H242.33V251.87Z" fill="#020000"/>
<path d="M242.33 245.33H235.85V251.87H242.33V245.33Z" fill="#020000"/>
<path d="M242.33 238.85H235.85V245.33H242.33V238.85Z" fill="#020000"/>
<path d="M242.33 232.3H235.85V238.84H242.33V232.3Z" fill="#020000"/>
<path d="M242.33 225.76H235.85V232.3H242.33V225.76Z" fill="#020000"/>
<path d="M242.33 219.29H235.85V225.77H242.33V219.29Z" fill="#00FFE2"/>
<path d="M242.33 212.75H235.85V219.29H242.33V212.75Z" fill="#968E8B"/>
<path d="M242.33 206.27H235.85V212.75H242.33V206.27Z" fill="#968E8B"/>
<path d="M242.33 199.72H235.85V206.26H242.33V199.72Z" fill="#020000"/>
<path d="M242.33 193.25H235.85V199.73H242.33V193.25Z" fill="#439B3E"/>
<path d="M242.33 186.71H235.85V193.25H242.33V186.71Z" fill="#439B3E"/>
<path d="M242.33 180.23H235.85V186.71H242.33V180.23Z" fill="#34872D"/>
<path d="M242.33 173.69H235.85V180.23H242.33V173.69Z" fill="#34872D"/>
<path d="M242.33 167.14H235.85V173.68H242.33V167.14Z" fill="#439B3E"/>
<path d="M242.33 160.67H235.85V167.15H242.33V160.67Z" fill="#439B3E"/>
<path d="M242.33 154.13H235.85V160.67H242.33V154.13Z" fill="#439B3E"/>
<path d="M242.33 147.65H235.85V154.13H242.33V147.65Z" fill="#717A97"/>
<path d="M242.33 141.11H235.85V147.65H242.33V141.11Z" fill="#717A97"/>
<path d="M242.33 134.64H235.85V141.12H242.33V134.64Z" fill="#717A97"/>
<path d="M242.33 128.09H235.85V134.63H242.33V128.09Z" fill="#586689"/>
<path d="M242.33 121.55H235.85V128.09H242.33V121.55Z" fill="#020000"/>
<path d="M235.84 329.98H229.3V336.52H235.84V329.98Z" fill="#020000"/>
<path d="M235.84 323.5H229.3V329.98H235.84V323.5Z" fill="#2B1910"/>
<path d="M235.84 316.96H229.3V323.5H235.84V316.96Z" fill="#2B1910"/>
<path d="M235.84 310.49H229.3V316.97H235.84V310.49Z" fill="#2B1910"/>
<path d="M235.84 303.94H229.3V310.48H235.84V303.94Z" fill="#2B1910"/>
<path d="M235.84 297.46H229.3V303.94H235.84V297.46Z" fill="#2B1910"/>
<path d="M235.84 290.92H229.3V297.46H235.84V290.92Z" fill="#2B1910"/>
<path d="M235.84 284.45H229.3V290.93H235.84V284.45Z" fill="#49302B"/>
<path d="M235.84 277.91H229.3V284.45H235.84V277.91Z" fill="#49302B"/>
<path d="M235.84 271.36H229.3V277.9H235.84V271.36Z" fill="#49302B"/>
<path d="M235.84 264.88H229.3V271.36H235.84V264.88Z" fill="#381D18"/>
<path d="M235.84 258.34H229.3V264.88H235.84V258.34Z" fill="#020100"/>
<path d="M235.84 251.87H229.3V258.35H235.84V251.87Z" fill="#05D6B8"/>
<path d="M235.84 245.33H229.3V251.87H235.84V245.33Z" fill="#05D6B8"/>
<path d="M235.84 238.85H229.3V245.33H235.84V238.85Z" fill="#05D6B8"/>
<path d="M235.84 232.3H229.3V238.84H235.84V232.3Z" fill="#05D6B8"/>
<path d="M235.84 225.76H229.3V232.3H235.84V225.76Z" fill="#05D6B8"/>
<path d="M235.84 219.29H229.3V225.77H235.84V219.29Z" fill="#05D6B8"/>
<path d="M235.84 212.75H229.3V219.29H235.84V212.75Z" fill="#05D6B8"/>
<path d="M235.84 206.27H229.3V212.75H235.84V206.27Z" fill="#05D6B8"/>
<path d="M235.84 199.72H229.3V206.26H235.84V199.72Z" fill="#020000"/>
<path d="M235.84 193.25H229.3V199.73H235.84V193.25Z" fill="#439B3E"/>
<path d="M235.84 186.71H229.3V193.25H235.84V186.71Z" fill="#439B3E"/>
<path d="M235.84 180.23H229.3V186.71H235.84V180.23Z" fill="#439B3E"/>
<path d="M235.84 173.69H229.3V180.23H235.84V173.69Z" fill="#439B3E"/>
<path d="M235.84 167.14H229.3V173.68H235.84V167.14Z" fill="#439B3E"/>
<path d="M235.84 160.67H229.3V167.15H235.84V160.67Z" fill="#439B3E"/>
<path d="M235.84 154.13H229.3V160.67H235.84V154.13Z" fill="#439B3E"/>
<path d="M235.84 147.65H229.3V154.13H235.84V147.65Z" fill="#717A97"/>
<path d="M235.84 141.11H229.3V147.65H235.84V141.11Z" fill="#717A97"/>
<path d="M235.84 134.64H229.3V141.12H235.84V134.64Z" fill="#717A97"/>
<path d="M235.84 128.09H229.3V134.63H235.84V128.09Z" fill="#717A97"/>
<path d="M235.84 121.55H229.3V128.09H235.84V121.55Z" fill="#05D6B8"/>
<path d="M235.84 102.06H229.3V108.54H235.84V102.06Z" fill="black"/>
<path d="M235.84 95.5098H229.3V102.05H235.84V95.5098Z" fill="black"/>
<path d="M235.84 89.0303H229.3V95.5103H235.84V89.0303Z" fill="black"/>
<path d="M229.3 329.98H222.76V336.52H229.3V329.98Z" fill="#020000"/>
<path d="M229.3 323.5H222.76V329.98H229.3V323.5Z" fill="#2B1910"/>
<path d="M229.3 316.96H222.76V323.5H229.3V316.96Z" fill="#020100"/>
<path d="M229.3 310.49H222.76V316.97H229.3V310.49Z" fill="#020100"/>
<path d="M229.3 303.94H222.76V310.48H229.3V303.94Z" fill="#020000"/>
<path d="M229.3 297.46H222.76V303.94H229.3V297.46Z" fill="#020000"/>
<path d="M229.3 290.92H222.76V297.46H229.3V290.92Z" fill="#020000"/>
<path d="M229.3 284.45H222.76V290.93H229.3V284.45Z" fill="#49302B"/>
<path d="M229.3 277.91H222.76V284.45H229.3V277.91Z" fill="#49302B"/>
<path d="M229.3 271.36H222.76V277.9H229.3V271.36Z" fill="#49302B"/>
<path d="M229.3 264.88H222.76V271.36H229.3V264.88Z" fill="#49302B"/>
<path d="M229.3 258.34H222.76V264.88H229.3V258.34Z" fill="#020100"/>
<path d="M229.3 251.87H222.76V258.35H229.3V251.87Z" fill="#05D6B8"/>
<path d="M229.3 245.33H222.76V251.87H229.3V245.33Z" fill="#05D6B8"/>
<path d="M229.3 238.85H222.76V245.33H229.3V238.85Z" fill="#00FFE2"/>
<path d="M229.3 232.3H222.76V238.84H229.3V232.3Z" fill="#00FFE2"/>
<path d="M229.3 225.76H222.76V232.3H229.3V225.76Z" fill="#00FFE2"/>
<path d="M229.3 219.29H222.76V225.77H229.3V219.29Z" fill="#05D6B8"/>
<path d="M229.3 212.75H222.76V219.29H229.3V212.75Z" fill="#05D6B8"/>
<path d="M229.3 206.27H222.76V212.75H229.3V206.27Z" fill="#05D6B8"/>
<path d="M229.3 199.72H222.76V206.26H229.3V199.72Z" fill="#020000"/>
<path d="M229.3 193.25H222.76V199.73H229.3V193.25Z" fill="#439B3E"/>
<path d="M229.3 186.71H222.76V193.25H229.3V186.71Z" fill="#439B3E"/>
<path d="M229.3 180.23H222.76V186.71H229.3V180.23Z" fill="#439B3E"/>
<path d="M229.3 173.69H222.76V180.23H229.3V173.69Z" fill="#439B3E"/>
<path d="M229.3 167.14H222.76V173.68H229.3V167.14Z" fill="#439B3E"/>
<path d="M229.3 160.67H222.76V167.15H229.3V160.67Z" fill="#439B3E"/>
<path d="M229.3 154.13H222.76V160.67H229.3V154.13Z" fill="#439B3E"/>
<path d="M229.3 147.65H222.76V154.13H229.3V147.65Z" fill="#717A97"/>
<path d="M229.3 141.11H222.76V147.65H229.3V141.11Z" fill="#717A97"/>
<path d="M229.3 134.64H222.76V141.12H229.3V134.64Z" fill="#717A97"/>
<path d="M229.3 128.09H222.76V134.63H229.3V128.09Z" fill="#05D6B8"/>
<path d="M229.3 121.55H222.76V128.09H229.3V121.55Z" fill="#050100"/>
<path d="M229.3 108.54H222.76V115.08H229.3V108.54Z" fill="black"/>
<path d="M229.3 102.06H222.76V108.54H229.3V102.06Z" fill="#439B3E"/>
<path d="M229.3 95.5098H222.76V102.05H229.3V95.5098Z" fill="#439B3E"/>
<path d="M229.3 89.0303H222.76V95.5103H229.3V89.0303Z" fill="#439B3E"/>
<path d="M229.3 82.4902H222.76V89.0302H229.3V82.4902Z" fill="black"/>
<path d="M229.3 76.0195H222.76V82.4995H229.3V76.0195Z" fill="black"/>
<path d="M222.77 329.98H216.29V336.52H222.77V329.98Z" fill="#020000"/>
<path d="M222.77 323.5H216.29V329.98H222.77V323.5Z" fill="#2B1910"/>
<path d="M222.77 316.96H216.29V323.5H222.77V316.96Z" fill="#020100"/>
<path d="M222.77 290.92H216.29V297.46H222.77V290.92Z" fill="#020000"/>
<path d="M222.77 284.45H216.29V290.93H222.77V284.45Z" fill="#020000"/>
<path d="M222.77 277.91H216.29V284.45H222.77V277.91Z" fill="#49302B"/>
<path d="M222.77 271.36H216.29V277.9H222.77V271.36Z" fill="#49302B"/>
<path d="M222.77 264.88H216.29V271.36H222.77V264.88Z" fill="#49302B"/>
<path d="M222.77 258.34H216.29V264.88H222.77V258.34Z" fill="#020100"/>
<path d="M222.77 251.87H216.29V258.35H222.77V251.87Z" fill="#05D6B8"/>
<path d="M222.77 245.33H216.29V251.87H222.77V245.33Z" fill="#00FFE2"/>
<path d="M222.77 238.85H216.29V245.33H222.77V238.85Z" fill="#00FFE2"/>
<path d="M222.77 232.3H216.29V238.84H222.77V232.3Z" fill="#00FFE2"/>
<path d="M222.77 225.76H216.29V232.3H222.77V225.76Z" fill="#00FFE2"/>
<path d="M222.77 219.29H216.29V225.77H222.77V219.29Z" fill="#00FFE2"/>
<path d="M222.77 212.75H216.29V219.29H222.77V212.75Z" fill="#05D6B8"/>
<path d="M222.77 206.27H216.29V212.75H222.77V206.27Z" fill="#05D6B8"/>
<path d="M222.77 199.72H216.29V206.26H222.77V199.72Z" fill="#020000"/>
<path d="M222.77 193.25H216.29V199.73H222.77V193.25Z" fill="#020000"/>
<path d="M222.77 186.71H216.29V193.25H222.77V186.71Z" fill="#439B3E"/>
<path d="M222.77 180.23H216.29V186.71H222.77V180.23Z" fill="#439B3E"/>
<path d="M222.77 173.69H216.29V180.23H222.77V173.69Z" fill="#439B3E"/>
<path d="M222.77 167.14H216.29V173.68H222.77V167.14Z" fill="#439B3E"/>
<path d="M222.77 160.67H216.29V167.15H222.77V160.67Z" fill="#020000"/>
<path d="M222.77 154.13H216.29V160.67H222.77V154.13Z" fill="#05D6B8"/>
<path d="M222.77 147.65H216.29V154.13H222.77V147.65Z" fill="#05D6B8"/>
<path d="M222.77 141.11H216.29V147.65H222.77V141.11Z" fill="#717A97"/>
<path d="M222.77 134.64H216.29V141.12H222.77V134.64Z" fill="#05D6B8"/>
<path d="M222.77 128.09H216.29V134.63H222.77V128.09Z" fill="#717A97"/>
<path d="M222.77 121.55H216.29V128.09H222.77V121.55Z" fill="#050100"/>
<path d="M222.77 115.07H216.29V121.55H222.77V115.07Z" fill="black"/>
<path d="M222.77 108.54H216.29V115.08H222.77V108.54Z" fill="#439B3E"/>
<path d="M222.77 102.06H216.29V108.54H222.77V102.06Z" fill="#439B3E"/>
<path d="M222.77 95.5098H216.29V102.05H222.77V95.5098Z" fill="#439B3E"/>
<path d="M222.77 89.0303H216.29V95.5103H222.77V89.0303Z" fill="#439B3E"/>
<path d="M222.77 82.4902H216.29V89.0302H222.77V82.4902Z" fill="#439B3E"/>
<path d="M222.77 76.0195H216.29V82.4995H222.77V76.0195Z" fill="#439B3E"/>
<path d="M222.77 69.4805H216.29V76.0205H222.77V69.4805Z" fill="black"/>
<path d="M216.29 329.98H209.75V336.52H216.29V329.98Z" fill="#020000"/>
<path d="M216.29 323.5H209.75V329.98H216.29V323.5Z" fill="#020000"/>
<path d="M216.29 316.96H209.75V323.5H216.29V316.96Z" fill="#020100"/>
<path d="M216.29 284.45H209.75V290.93H216.29V284.45Z" fill="#020000"/>
<path d="M216.29 277.91H209.75V284.45H216.29V277.91Z" fill="#020000"/>
<path d="M216.29 271.36H209.75V277.9H216.29V271.36Z" fill="#49302B"/>
<path d="M216.29 264.88H209.75V271.36H216.29V264.88Z" fill="#49302B"/>
<path d="M216.29 258.34H209.75V264.88H216.29V258.34Z" fill="#020000"/>
<path d="M216.29 251.87H209.75V258.35H216.29V251.87Z" fill="#00FFE2"/>
<path d="M216.29 245.33H209.75V251.87H216.29V245.33Z" fill="#00FFE2"/>
<path d="M216.29 238.85H209.75V245.33H216.29V238.85Z" fill="#00FFE2"/>
<path d="M216.29 232.3H209.75V238.84H216.29V232.3Z" fill="#00FFE2"/>
<path d="M216.29 225.76H209.75V232.3H216.29V225.76Z" fill="#00FFE2"/>
<path d="M216.29 219.29H209.75V225.77H216.29V219.29Z" fill="#00FFE2"/>
<path d="M216.29 212.75H209.75V219.29H216.29V212.75Z" fill="#00FFE2"/>
<path d="M216.29 206.27H209.75V212.75H216.29V206.27Z" fill="#00FFE2"/>
<path d="M216.29 199.72H209.75V206.26H216.29V199.72Z" fill="#00FFE2"/>
<path d="M216.29 193.25H209.75V199.73H216.29V193.25Z" fill="#020000"/>
<path d="M216.29 186.71H209.75V193.25H216.29V186.71Z" fill="#439B3E"/>
<path d="M216.29 180.23H209.75V186.71H216.29V180.23Z" fill="#439B3E"/>
<path d="M216.29 173.69H209.75V180.23H216.29V173.69Z" fill="#439B3E"/>
<path d="M216.29 167.14H209.75V173.68H216.29V167.14Z" fill="#020000"/>
<path d="M216.29 160.67H209.75V167.15H216.29V160.67Z" fill="#00FFE2"/>
<path d="M216.29 154.13H209.75V160.67H216.29V154.13Z" fill="#00FFE2"/>
<path d="M216.29 147.65H209.75V154.13H216.29V147.65Z" fill="#05D6B8"/>
<path d="M216.29 141.11H209.75V147.65H216.29V141.11Z" fill="#05D6B8"/>
<path d="M216.29 134.64H209.75V141.12H216.29V134.64Z" fill="#717A97"/>
<path d="M216.29 128.09H209.75V134.63H216.29V128.09Z" fill="#717A97"/>
<path d="M216.29 121.55H209.75V128.09H216.29V121.55Z" fill="#586689"/>
<path d="M216.29 115.07H209.75V121.55H216.29V115.07Z" fill="#8E4E38"/>
<path d="M216.29 108.54H209.75V115.08H216.29V108.54Z" fill="#8E4E38"/>
<path d="M216.29 102.06H209.75V108.54H216.29V102.06Z" fill="#8E4E38"/>
<path d="M216.29 95.5098H209.75V102.05H216.29V95.5098Z" fill="#439B3E"/>
<path d="M216.29 89.0303H209.75V95.5103H216.29V89.0303Z" fill="#FF0031"/>
<path d="M216.29 82.4902H209.75V89.0302H216.29V82.4902Z" fill="black"/>
<path d="M216.29 76.0195H209.75V82.4995H216.29V76.0195Z" fill="#439B3E"/>
<path d="M216.29 69.4805H209.75V76.0205H216.29V69.4805Z" fill="black"/>
<path d="M209.75 277.91H203.27V284.45H209.75V277.91Z" fill="#020000"/>
<path d="M209.75 271.36H203.27V277.9H209.75V271.36Z" fill="#020000"/>
<path d="M209.75 264.88H203.27V271.36H209.75V264.88Z" fill="#020000"/>
<path d="M209.75 258.34H203.27V264.88H209.75V258.34Z" fill="#020000"/>
<path d="M209.75 251.87H203.27V258.35H209.75V251.87Z" fill="#00FFE2"/>
<path d="M209.75 245.33H203.27V251.87H209.75V245.33Z" fill="#00FFE2"/>
<path d="M209.75 238.85H203.27V245.33H209.75V238.85Z" fill="#00FFE2"/>
<path d="M209.75 232.3H203.27V238.84H209.75V232.3Z" fill="#00FFE2"/>
<path d="M209.75 225.76H203.27V232.3H209.75V225.76Z" fill="#00FFE2"/>
<path d="M209.75 219.29H203.27V225.77H209.75V219.29Z" fill="#020000"/>
<path d="M209.75 212.75H203.27V219.29H209.75V212.75Z" fill="#00FFE2"/>
<path d="M209.75 206.27H203.27V212.75H209.75V206.27Z" fill="#00FFE2"/>
<path d="M209.75 199.72H203.27V206.26H209.75V199.72Z" fill="#00FFE2"/>
<path d="M209.75 193.25H203.27V199.73H209.75V193.25Z" fill="#020000"/>
<path d="M209.75 186.71H203.27V193.25H209.75V186.71Z" fill="#439B3E"/>
<path d="M209.75 180.23H203.27V186.71H209.75V180.23Z" fill="#439B3E"/>
<path d="M209.75 173.69H203.27V180.23H209.75V173.69Z" fill="#439B3E"/>
<path d="M209.75 167.14H203.27V173.68H209.75V167.14Z" fill="#020000"/>
<path d="M209.75 160.67H203.27V167.15H209.75V160.67Z" fill="#00FFE2"/>
<path d="M209.75 154.13H203.27V160.67H209.75V154.13Z" fill="#00FFE2"/>
<path d="M209.75 147.65H203.27V154.13H209.75V147.65Z" fill="#00FFE2"/>
<path d="M209.75 141.11H203.27V147.65H209.75V141.11Z" fill="#717A97"/>
<path d="M209.75 134.64H203.27V141.12H209.75V134.64Z" fill="#717A97"/>
<path d="M209.75 128.09H203.27V134.63H209.75V128.09Z" fill="#717A97"/>
<path d="M209.75 121.55H203.27V128.09H209.75V121.55Z" fill="#8E4E38"/>
<path d="M209.75 115.07H203.27V121.55H209.75V115.07Z" fill="#8E4E38"/>
<path d="M209.75 108.54H203.27V115.08H209.75V108.54Z" fill="#439B3E"/>
<path d="M209.75 102.06H203.27V108.54H209.75V102.06Z" fill="#8E4E38"/>
<path d="M209.75 95.5098H203.27V102.05H209.75V95.5098Z" fill="#439B3E"/>
<path d="M209.75 89.0303H203.27V95.5103H209.75V89.0303Z" fill="black"/>
<path d="M209.75 82.4902H203.27V89.0302H209.75V82.4902Z" fill="#439B3E"/>
<path d="M209.75 76.0195H203.27V82.4995H209.75V76.0195Z" fill="#439B3E"/>
<path d="M209.75 69.4805H203.27V76.0205H209.75V69.4805Z" fill="black"/>
<path d="M203.26 323.5H196.72V329.98H203.26V323.5Z" fill="#020000"/>
<path d="M203.26 316.96H196.72V323.5H203.26V316.96Z" fill="#020000"/>
<path d="M203.26 310.49H196.72V316.97H203.26V310.49Z" fill="#020000"/>
<path d="M203.26 303.94H196.72V310.48H203.26V303.94Z" fill="#020000"/>
<path d="M203.26 297.46H196.72V303.94H203.26V297.46Z" fill="#020000"/>
<path d="M203.26 290.92H196.72V297.46H203.26V290.92Z" fill="#020000"/>
<path d="M203.26 284.45H196.72V290.93H203.26V284.45Z" fill="#020000"/>
<path d="M203.26 277.91H196.72V284.45H203.26V277.91Z" fill="#020000"/>
<path d="M203.26 271.36H196.72V277.9H203.26V271.36Z" fill="#381D18"/>
<path d="M203.26 264.88H196.72V271.36H203.26V264.88Z" fill="#381D18"/>
<path d="M203.26 258.34H196.72V264.88H203.26V258.34Z" fill="#020000"/>
<path d="M203.26 251.87H196.72V258.35H203.26V251.87Z" fill="#00FFE2"/>
<path d="M203.26 245.33H196.72V251.87H203.26V245.33Z" fill="#00FFE2"/>
<path d="M203.26 238.85H196.72V245.33H203.26V238.85Z" fill="#00FFE2"/>
<path d="M203.26 232.3H196.72V238.84H203.26V232.3Z" fill="#00FFE2"/>
<path d="M203.26 225.76H196.72V232.3H203.26V225.76Z" fill="#00FFE2"/>
<path d="M203.26 219.29H196.72V225.77H203.26V219.29Z" fill="#020000"/>
<path d="M203.26 212.75H196.72V219.29H203.26V212.75Z" fill="#00FFE2"/>
<path d="M203.26 206.27H196.72V212.75H203.26V206.27Z" fill="#00FFE2"/>
<path d="M203.26 199.72H196.72V206.26H203.26V199.72Z" fill="#00FFE2"/>
<path d="M203.26 193.25H196.72V199.73H203.26V193.25Z" fill="#020000"/>
<path d="M203.26 186.71H196.72V193.25H203.26V186.71Z" fill="#34872D"/>
<path d="M203.26 180.23H196.72V186.71H203.26V180.23Z" fill="#34872D"/>
<path d="M203.26 173.69H196.72V180.23H203.26V173.69Z" fill="#34872D"/>
<path d="M203.26 167.14H196.72V173.68H203.26V167.14Z" fill="#020000"/>
<path d="M203.26 160.67H196.72V167.15H203.26V160.67Z" fill="#00FFE2"/>
<path d="M203.26 154.13H196.72V160.67H203.26V154.13Z" fill="#00FFE2"/>
<path d="M203.26 147.65H196.72V154.13H203.26V147.65Z" fill="#00FFE2"/>
<path d="M203.26 141.11H196.72V147.65H203.26V141.11Z" fill="#717A97"/>
<path d="M203.26 134.64H196.72V141.12H203.26V134.64Z" fill="#717A97"/>
<path d="M203.26 128.09H196.72V134.63H203.26V128.09Z" fill="#717A97"/>
<path d="M203.26 121.55H196.72V128.09H203.26V121.55Z" fill="#8E4E38"/>
<path d="M203.26 115.07H196.72V121.55H203.26V115.07Z" fill="#8E4E38"/>
<path d="M203.26 108.54H196.72V115.08H203.26V108.54Z" fill="#439B3E"/>
<path d="M203.26 102.06H196.72V108.54H203.26V102.06Z" fill="#439B3E"/>
<path d="M203.26 95.5098H196.72V102.05H203.26V95.5098Z" fill="#439B3E"/>
<path d="M203.26 89.0303H196.72V95.5103H203.26V89.0303Z" fill="#439B3E"/>
<path d="M203.26 82.4902H196.72V89.0302H203.26V82.4902Z" fill="#439B3E"/>
<path d="M203.26 76.0195H196.72V82.4995H203.26V76.0195Z" fill="#439B3E"/>
<path d="M203.26 69.4805H196.72V76.0205H203.26V69.4805Z" fill="black"/>
<path d="M196.73 323.5H190.25V329.98H196.73V323.5Z" fill="#020000"/>
<path d="M196.73 316.96H190.25V323.5H196.73V316.96Z" fill="#2B1910"/>
<path d="M196.73 310.49H190.25V316.97H196.73V310.49Z" fill="#2B1910"/>
<path d="M196.73 303.94H190.25V310.48H196.73V303.94Z" fill="#2B1910"/>
<path d="M196.73 297.46H190.25V303.94H196.73V297.46Z" fill="#2B1910"/>
<path d="M196.73 290.92H190.25V297.46H196.73V290.92Z" fill="#2B1910"/>
<path d="M196.73 284.45H190.25V290.93H196.73V284.45Z" fill="#381D18"/>
<path d="M196.73 277.91H190.25V284.45H196.73V277.91Z" fill="#381D18"/>
<path d="M196.73 271.36H190.25V277.9H196.73V271.36Z" fill="#381D18"/>
<path d="M196.73 264.88H190.25V271.36H196.73V264.88Z" fill="#381D18"/>
<path d="M196.73 258.34H190.25V264.88H196.73V258.34Z" fill="#020000"/>
<path d="M196.73 251.87H190.25V258.35H196.73V251.87Z" fill="#00FFE2"/>
<path d="M196.73 245.33H190.25V251.87H196.73V245.33Z" fill="#00FFE2"/>
<path d="M196.73 238.85H190.25V245.33H196.73V238.85Z" fill="#00FFE2"/>
<path d="M196.73 232.3H190.25V238.84H196.73V232.3Z" fill="#00FFE2"/>
<path d="M196.73 225.76H190.25V232.3H196.73V225.76Z" fill="#00FFE2"/>
<path d="M196.73 219.29H190.25V225.77H196.73V219.29Z" fill="#020000"/>
<path d="M196.73 212.75H190.25V219.29H196.73V212.75Z" fill="#00FFE2"/>
<path d="M196.73 206.27H190.25V212.75H196.73V206.27Z" fill="#05D6B8"/>
<path d="M196.73 199.72H190.25V206.26H196.73V199.72Z" fill="#05D6B8"/>
<path d="M196.73 193.25H190.25V199.73H196.73V193.25Z" fill="#05D6B8"/>
<path d="M196.73 186.71H190.25V193.25H196.73V186.71Z" fill="#020000"/>
<path d="M196.73 180.23H190.25V186.71H196.73V180.23Z" fill="#439B3E"/>
<path d="M196.73 173.69H190.25V180.23H196.73V173.69Z" fill="#439B3E"/>
<path d="M196.73 167.14H190.25V173.68H196.73V167.14Z" fill="#020000"/>
<path d="M196.73 160.67H190.25V167.15H196.73V160.67Z" fill="#00FFE2"/>
<path d="M196.73 154.13H190.25V160.67H196.73V154.13Z" fill="#00FFE2"/>
<path d="M196.73 147.65H190.25V154.13H196.73V147.65Z" fill="#00FFE2"/>
<path d="M196.73 141.11H190.25V147.65H196.73V141.11Z" fill="#717A97"/>
<path d="M196.73 134.64H190.25V141.12H196.73V134.64Z" fill="#717A97"/>
<path d="M196.73 128.09H190.25V134.63H196.73V128.09Z" fill="#717A97"/>
<path d="M196.73 121.55H190.25V128.09H196.73V121.55Z" fill="#8E4E38"/>
<path d="M196.73 115.07H190.25V121.55H196.73V115.07Z" fill="#8E4E38"/>
<path d="M196.73 108.54H190.25V115.08H196.73V108.54Z" fill="#439B3E"/>
<path d="M196.73 102.06H190.25V108.54H196.73V102.06Z" fill="#8E4E38"/>
<path d="M196.73 95.5098H190.25V102.05H196.73V95.5098Z" fill="#439B3E"/>
<path d="M196.73 89.0303H190.25V95.5103H196.73V89.0303Z" fill="black"/>
<path d="M196.73 82.4902H190.25V89.0302H196.73V82.4902Z" fill="#439B3E"/>
<path d="M196.73 76.0195H190.25V82.4995H196.73V76.0195Z" fill="#439B3E"/>
<path d="M196.73 69.4805H190.25V76.0205H196.73V69.4805Z" fill="black"/>
<path d="M190.25 316.96H183.71V323.5H190.25V316.96Z" fill="#020000"/>
<path d="M190.25 310.49H183.71V316.97H190.25V310.49Z" fill="#2B1910"/>
<path d="M190.25 303.94H183.71V310.48H190.25V303.94Z" fill="#2B1910"/>
<path d="M190.25 297.46H183.71V303.94H190.25V297.46Z" fill="#2B1910"/>
<path d="M190.25 290.92H183.71V297.46H190.25V290.92Z" fill="#2B1910"/>
<path d="M190.25 284.45H183.71V290.93H190.25V284.45Z" fill="#49302B"/>
<path d="M190.25 277.91H183.71V284.45H190.25V277.91Z" fill="#49302B"/>
<path d="M190.25 271.36H183.71V277.9H190.25V271.36Z" fill="#381D18"/>
<path d="M190.25 264.88H183.71V271.36H190.25V264.88Z" fill="#381D18"/>
<path d="M190.25 258.34H183.71V264.88H190.25V258.34Z" fill="#020000"/>
<path d="M190.25 251.87H183.71V258.35H190.25V251.87Z" fill="#00FFE2"/>
<path d="M190.25 245.33H183.71V251.87H190.25V245.33Z" fill="#00FFE2"/>
<path d="M190.25 238.85H183.71V245.33H190.25V238.85Z" fill="#00FFE2"/>
<path d="M190.25 232.3H183.71V238.84H190.25V232.3Z" fill="#00FFE2"/>
<path d="M190.25 225.76H183.71V232.3H190.25V225.76Z" fill="#00FFE2"/>
<path d="M190.25 219.29H183.71V225.77H190.25V219.29Z" fill="#020000"/>
<path d="M190.25 212.75H183.71V219.29H190.25V212.75Z" fill="#00FFE2"/>
<path d="M190.25 206.27H183.71V212.75H190.25V206.27Z" fill="#00FFE2"/>
<path d="M190.25 199.72H183.71V206.26H190.25V199.72Z" fill="#05D6B8"/>
<path d="M190.25 193.25H183.71V199.73H190.25V193.25Z" fill="#020000"/>
<path d="M190.25 186.71H183.71V193.25H190.25V186.71Z" fill="#439B3E"/>
<path d="M190.25 180.23H183.71V186.71H190.25V180.23Z" fill="#439B3E"/>
<path d="M190.25 173.69H183.71V180.23H190.25V173.69Z" fill="#439B3E"/>
<path d="M190.25 167.14H183.71V173.68H190.25V167.14Z" fill="#439B3E"/>
<path d="M190.25 160.67H183.71V167.15H190.25V160.67Z" fill="#020000"/>
<path d="M190.25 154.13H183.71V160.67H190.25V154.13Z" fill="#00FFE2"/>
<path d="M190.25 147.65H183.71V154.13H190.25V147.65Z" fill="#00FFE2"/>
<path d="M190.25 141.11H183.71V147.65H190.25V141.11Z" fill="#717A97"/>
<path d="M190.25 134.64H183.71V141.12H190.25V134.64Z" fill="#717A97"/>
<path d="M190.25 128.09H183.71V134.63H190.25V128.09Z" fill="#717A97"/>
<path d="M190.25 121.55H183.71V128.09H190.25V121.55Z" fill="#586689"/>
<path d="M190.25 115.07H183.71V121.55H190.25V115.07Z" fill="#8E4E38"/>
<path d="M190.25 108.54H183.71V115.08H190.25V108.54Z" fill="#8E4E38"/>
<path d="M190.25 102.06H183.71V108.54H190.25V102.06Z" fill="#8E4E38"/>
<path d="M190.25 95.5098H183.71V102.05H190.25V95.5098Z" fill="#439B3E"/>
<path d="M190.25 89.0303H183.71V95.5103H190.25V89.0303Z" fill="#FF0031"/>
<path d="M190.25 82.4902H183.71V89.0302H190.25V82.4902Z" fill="black"/>
<path d="M190.25 76.0195H183.71V82.4995H190.25V76.0195Z" fill="black"/>
<path d="M183.71 323.5H177.23V329.98H183.71V323.5Z" fill="#020000"/>
<path d="M183.71 316.96H177.23V323.5H183.71V316.96Z" fill="#2B1910"/>
<path d="M183.71 310.49H177.23V316.97H183.71V310.49Z" fill="#2B1910"/>
<path d="M183.71 303.94H177.23V310.48H183.71V303.94Z" fill="#2B1910"/>
<path d="M183.71 297.46H177.23V303.94H183.71V297.46Z" fill="#2B1910"/>
<path d="M183.71 290.92H177.23V297.46H183.71V290.92Z" fill="#2B1910"/>
<path d="M183.71 284.45H177.23V290.93H183.71V284.45Z" fill="#49302B"/>
<path d="M183.71 277.91H177.23V284.45H183.71V277.91Z" fill="#49302B"/>
<path d="M183.71 271.36H177.23V277.9H183.71V271.36Z" fill="#49302B"/>
<path d="M183.71 264.88H177.23V271.36H183.71V264.88Z" fill="#381D18"/>
<path d="M183.71 258.34H177.23V264.88H183.71V258.34Z" fill="#020000"/>
<path d="M183.71 251.87H177.23V258.35H183.71V251.87Z" fill="#00FFE2"/>
<path d="M183.71 245.33H177.23V251.87H183.71V245.33Z" fill="#00FFE2"/>
<path d="M183.71 238.85H177.23V245.33H183.71V238.85Z" fill="#00FFE2"/>
<path d="M183.71 232.3H177.23V238.84H183.71V232.3Z" fill="#00FFE2"/>
<path d="M183.71 225.76H177.23V232.3H183.71V225.76Z" fill="#00FFE2"/>
<path d="M183.71 219.29H177.23V225.77H183.71V219.29Z" fill="#E5DAD4"/>
<path d="M183.71 212.75H177.23V219.29H183.71V212.75Z" fill="#E5DAD4"/>
<path d="M183.71 206.27H177.23V212.75H183.71V206.27Z" fill="#E5DAD4"/>
<path d="M183.71 199.72H177.23V206.26H183.71V199.72Z" fill="#05D6B8"/>
<path d="M183.71 193.25H177.23V199.73H183.71V193.25Z" fill="#020000"/>
<path d="M183.71 186.71H177.23V193.25H183.71V186.71Z" fill="#439B3E"/>
<path d="M183.71 180.23H177.23V186.71H183.71V180.23Z" fill="#439B3E"/>
<path d="M183.71 173.69H177.23V180.23H183.71V173.69Z" fill="black"/>
<path d="M183.71 167.14H177.23V173.68H183.71V167.14Z" fill="#E5DAD4"/>
<path d="M183.71 160.67H177.23V167.15H183.71V160.67Z" fill="#020000"/>
<path d="M183.71 154.13H177.23V160.67H183.71V154.13Z" fill="#00FFE2"/>
<path d="M183.71 147.65H177.23V154.13H183.71V147.65Z" fill="#00FFE2"/>
<path d="M183.71 141.11H177.23V147.65H183.71V141.11Z" fill="#717A97"/>
<path d="M183.71 134.64H177.23V141.12H183.71V134.64Z" fill="#717A97"/>
<path d="M183.71 128.09H177.23V134.63H183.71V128.09Z" fill="#717A97"/>
<path d="M183.71 121.55H177.23V128.09H183.71V121.55Z" fill="#00FFE2"/>
<path d="M183.71 115.07H177.23V121.55H183.71V115.07Z" fill="black"/>
<path d="M183.71 108.54H177.23V115.08H183.71V108.54Z" fill="black"/>
<path d="M183.71 102.06H177.23V108.54H183.71V102.06Z" fill="black"/>
<path d="M183.71 95.5098H177.23V102.05H183.71V95.5098Z" fill="black"/>
<path d="M183.71 89.0303H177.23V95.5103H183.71V89.0303Z" fill="black"/>
<path d="M183.71 82.4902H177.23V89.0302H183.71V82.4902Z" fill="black"/>
<path d="M177.23 323.5H170.69V329.98H177.23V323.5Z" fill="#020000"/>
<path d="M177.23 316.96H170.69V323.5H177.23V316.96Z" fill="#2B1910"/>
<path d="M177.23 310.49H170.69V316.97H177.23V310.49Z" fill="#2B1910"/>
<path d="M177.23 303.94H170.69V310.48H177.23V303.94Z" fill="#2B1910"/>
<path d="M177.23 297.46H170.69V303.94H177.23V297.46Z" fill="#2B1910"/>
<path d="M177.23 290.92H170.69V297.46H177.23V290.92Z" fill="#2B1910"/>
<path d="M177.23 284.45H170.69V290.93H177.23V284.45Z" fill="#49302B"/>
<path d="M177.23 277.91H170.69V284.45H177.23V277.91Z" fill="#49302B"/>
<path d="M177.23 271.36H170.69V277.9H177.23V271.36Z" fill="#49302B"/>
<path d="M177.23 264.88H170.69V271.36H177.23V264.88Z" fill="#49302B"/>
<path d="M177.23 258.34H170.69V264.88H177.23V258.34Z" fill="#020000"/>
<path d="M177.23 251.87H170.69V258.35H177.23V251.87Z" fill="#00FFE2"/>
<path d="M177.23 245.33H170.69V251.87H177.23V245.33Z" fill="#00FFE2"/>
<path d="M177.23 238.85H170.69V245.33H177.23V238.85Z" fill="#00FFE2"/>
<path d="M177.23 232.3H170.69V238.84H177.23V232.3Z" fill="#00FFE2"/>
<path d="M177.23 225.76H170.69V232.3H177.23V225.76Z" fill="#00FFE2"/>
<path d="M177.23 219.29H170.69V225.77H177.23V219.29Z" fill="#E5DAD4"/>
<path d="M177.23 212.75H170.69V219.29H177.23V212.75Z" fill="#E5DAD4"/>
<path d="M177.23 206.27H170.69V212.75H177.23V206.27Z" fill="#E5DAD4"/>
<path d="M177.23 199.72H170.69V206.26H177.23V199.72Z" fill="#E5DAD4"/>
<path d="M177.23 193.25H170.69V199.73H177.23V193.25Z" fill="#E5DAD4"/>
<path d="M177.23 186.71H170.69V193.25H177.23V186.71Z" fill="black"/>
<path d="M177.23 180.23H170.69V186.71H177.23V180.23Z" fill="#E5DAD4"/>
<path d="M177.23 173.69H170.69V180.23H177.23V173.69Z" fill="#E5DAD4"/>
<path d="M177.23 167.14H170.69V173.68H177.23V167.14Z" fill="#E5DAD4"/>
<path d="M177.23 160.67H170.69V167.15H177.23V160.67Z" fill="#E5DAD4"/>
<path d="M177.23 154.13H170.69V160.67H177.23V154.13Z" fill="#05D6B8"/>
<path d="M177.23 147.65H170.69V154.13H177.23V147.65Z" fill="#00FFE2"/>
<path d="M177.23 141.11H170.69V147.65H177.23V141.11Z" fill="#00FFE2"/>
<path d="M177.23 134.64H170.69V141.12H177.23V134.64Z" fill="#00FFE2"/>
<path d="M177.23 128.09H170.69V134.63H177.23V128.09Z" fill="#00FFE2"/>
<path d="M177.23 121.55H170.69V128.09H177.23V121.55Z" fill="#050100"/>
<path d="M170.68 323.5H164.14V329.98H170.68V323.5Z" fill="#020000"/>
<path d="M170.68 316.96H164.14V323.5H170.68V316.96Z" fill="#2B1910"/>
<path d="M170.68 310.49H164.14V316.97H170.68V310.49Z" fill="#2B1910"/>
<path d="M170.68 303.94H164.14V310.48H170.68V303.94Z" fill="#020000"/>
<path d="M170.68 297.46H164.14V303.94H170.68V297.46Z" fill="#020000"/>
<path d="M170.68 290.92H164.14V297.46H170.68V290.92Z" fill="#020000"/>
<path d="M170.68 284.45H164.14V290.93H170.68V284.45Z" fill="#49302B"/>
<path d="M170.68 277.91H164.14V284.45H170.68V277.91Z" fill="#49302B"/>
<path d="M170.68 271.36H164.14V277.9H170.68V271.36Z" fill="#49302B"/>
<path d="M170.68 264.88H164.14V271.36H170.68V264.88Z" fill="#49302B"/>
<path d="M170.68 258.34H164.14V264.88H170.68V258.34Z" fill="#020000"/>
<path d="M170.68 251.87H164.14V258.35H170.68V251.87Z" fill="#00FFE2"/>
<path d="M170.68 245.33H164.14V251.87H170.68V245.33Z" fill="#05D6B8"/>
<path d="M170.68 238.85H164.14V245.33H170.68V238.85Z" fill="#00FFE2"/>
<path d="M170.68 232.3H164.14V238.84H170.68V232.3Z" fill="#00FFE2"/>
<path d="M170.68 225.76H164.14V232.3H170.68V225.76Z" fill="#00FFE2"/>
<path d="M170.68 219.29H164.14V225.77H170.68V219.29Z" fill="#E5DAD4"/>
<path d="M170.68 212.75H164.14V219.29H170.68V212.75Z" fill="#E5DAD4"/>
<path d="M170.68 206.27H164.14V212.75H170.68V206.27Z" fill="#E5DAD4"/>
<path d="M170.68 199.72H164.14V206.26H170.68V199.72Z" fill="#E5DAD4"/>
<path d="M170.68 193.25H164.14V199.73H170.68V193.25Z" fill="#E5DAD4"/>
<path d="M170.68 186.71H164.14V193.25H170.68V186.71Z" fill="#E5DAD4"/>
<path d="M170.68 180.23H164.14V186.71H170.68V180.23Z" fill="#E5DAD4"/>
<path d="M170.68 173.69H164.14V180.23H170.68V173.69Z" fill="#E5DAD4"/>
<path d="M170.68 167.14H164.14V173.68H170.68V167.14Z" fill="black"/>
<path d="M170.68 160.67H164.14V167.15H170.68V160.67Z" fill="black"/>
<path d="M170.68 154.13H164.14V160.67H170.68V154.13Z" fill="#05D6B8"/>
<path d="M170.68 147.65H164.14V154.13H170.68V147.65Z" fill="#05D6B8"/>
<path d="M170.68 141.11H164.14V147.65H170.68V141.11Z" fill="#00FFE2"/>
<path d="M170.68 134.64H164.14V141.12H170.68V134.64Z" fill="#00FFE2"/>
<path d="M170.68 128.09H164.14V134.63H170.68V128.09Z" fill="#586689"/>
<path d="M170.68 121.55H164.14V128.09H170.68V121.55Z" fill="#586689"/>
<path d="M170.68 115.07H164.14V121.55H170.68V115.07Z" fill="#050100"/>
<path d="M164.15 323.5H157.67V329.98H164.15V323.5Z" fill="#020000"/>
<path d="M164.15 316.96H157.67V323.5H164.15V316.96Z" fill="#2B1910"/>
<path d="M164.15 310.49H157.67V316.97H164.15V310.49Z" fill="#2B1910"/>
<path d="M164.15 290.92H157.67V297.46H164.15V290.92Z" fill="#020000"/>
<path d="M164.15 284.45H157.67V290.93H164.15V284.45Z" fill="#020000"/>
<path d="M164.15 277.91H157.67V284.45H164.15V277.91Z" fill="#020100"/>
<path d="M164.15 271.36H157.67V277.9H164.15V271.36Z" fill="#49302B"/>
<path d="M164.15 264.88H157.67V271.36H164.15V264.88Z" fill="#49302B"/>
<path d="M164.15 258.34H157.67V264.88H164.15V258.34Z" fill="#020000"/>
<path d="M164.15 251.87H157.67V258.35H164.15V251.87Z" fill="#05D6B8"/>
<path d="M164.15 245.33H157.67V251.87H164.15V245.33Z" fill="#00FFE2"/>
<path d="M164.15 238.85H157.67V245.33H164.15V238.85Z" fill="#00FFE2"/>
<path d="M164.15 232.3H157.67V238.84H164.15V232.3Z" fill="#00FFE2"/>
<path d="M164.15 225.76H157.67V232.3H164.15V225.76Z" fill="#05D6B8"/>
<path d="M164.15 219.29H157.67V225.77H164.15V219.29Z" fill="#020000"/>
<path d="M164.15 212.75H157.67V219.29H164.15V212.75Z" fill="#00FFE2"/>
<path d="M164.15 206.27H157.67V212.75H164.15V206.27Z" fill="#E5DAD4"/>
<path d="M164.15 199.72H157.67V206.26H164.15V199.72Z" fill="#E5DAD4"/>
<path d="M164.15 193.25H157.67V199.73H164.15V193.25Z" fill="#E5DAD4"/>
<path d="M164.15 186.71H157.67V193.25H164.15V186.71Z" fill="#E5DAD4"/>
<path d="M164.15 180.23H157.67V186.71H164.15V180.23Z" fill="#E5DAD4"/>
<path d="M164.15 173.69H157.67V180.23H164.15V173.69Z" fill="black"/>
<path d="M164.15 167.14H157.67V173.68H164.15V167.14Z" fill="#439B3E"/>
<path d="M164.15 160.67H157.67V167.15H164.15V160.67Z" fill="#439B3E"/>
<path d="M164.15 154.13H157.67V160.67H164.15V154.13Z" fill="#020000"/>
<path d="M164.15 147.65H157.67V154.13H164.15V147.65Z" fill="#020000"/>
<path d="M164.15 141.11H157.67V147.65H164.15V141.11Z" fill="#020000"/>
<path d="M164.15 134.64H157.67V141.12H164.15V134.64Z" fill="#586689"/>
<path d="M164.15 128.09H157.67V134.63H164.15V128.09Z" fill="#586689"/>
<path d="M164.15 121.55H157.67V128.09H164.15V121.55Z" fill="#586689"/>
<path d="M164.15 115.07H157.67V121.55H164.15V115.07Z" fill="#050100"/>
<path d="M157.67 323.5H151.13V329.98H157.67V323.5Z" fill="#020000"/>
<path d="M157.67 316.96H151.13V323.5H157.67V316.96Z" fill="#020000"/>
<path d="M157.67 310.49H151.13V316.97H157.67V310.49Z" fill="#020000"/>
<path d="M157.67 271.36H151.13V277.9H157.67V271.36Z" fill="#020100"/>
<path d="M157.67 264.88H151.13V271.36H157.67V264.88Z" fill="#020000"/>
<path d="M157.67 258.34H151.13V264.88H157.67V258.34Z" fill="#020000"/>
<path d="M157.67 251.87H151.13V258.35H157.67V251.87Z" fill="#05D6B8"/>
<path d="M157.67 245.33H151.13V251.87H157.67V245.33Z" fill="#05D6B8"/>
<path d="M157.67 238.85H151.13V245.33H157.67V238.85Z" fill="#00FFE2"/>
<path d="M157.67 232.3H151.13V238.84H157.67V232.3Z" fill="#05D6B8"/>
<path d="M157.67 225.76H151.13V232.3H157.67V225.76Z" fill="#05D6B8"/>
<path d="M157.67 219.29H151.13V225.77H157.67V219.29Z" fill="black"/>
<path d="M157.67 212.75H151.13V219.29H157.67V212.75Z" fill="#020000"/>
<path d="M157.67 206.27H151.13V212.75H157.67V206.27Z" fill="#00FFE2"/>
<path d="M157.67 199.72H151.13V206.26H157.67V199.72Z" fill="#E5DAD4"/>
<path d="M157.67 193.25H151.13V199.73H157.67V193.25Z" fill="#E5DAD4"/>
<path d="M157.67 186.71H151.13V193.25H157.67V186.71Z" fill="#020000"/>
<path d="M157.67 180.23H151.13V186.71H157.67V180.23Z" fill="#439B3E"/>
<path d="M157.67 173.69H151.13V180.23H157.67V173.69Z" fill="#439B3E"/>
<path d="M157.67 167.14H151.13V173.68H157.67V167.14Z" fill="#439B3E"/>
<path d="M157.67 160.67H151.13V167.15H157.67V160.67Z" fill="#439B3E"/>
<path d="M157.67 154.13H151.13V160.67H157.67V154.13Z" fill="#020000"/>
<path d="M157.67 147.65H151.13V154.13H157.67V147.65Z" fill="#439B3E"/>
<path d="M157.67 141.11H151.13V147.65H157.67V141.11Z" fill="#439B3E"/>
<path d="M157.67 134.64H151.13V141.12H157.67V134.64Z" fill="#439B3E"/>
<path d="M157.67 128.09H151.13V134.63H157.67V128.09Z" fill="#586689"/>
<path d="M157.67 121.55H151.13V128.09H157.67V121.55Z" fill="#020000"/>
<path d="M151.13 258.34H144.65V264.88H151.13V258.34Z" fill="#020000"/>
<path d="M151.13 251.87H144.65V258.35H151.13V251.87Z" fill="#020000"/>
<path d="M151.13 245.33H144.65V251.87H151.13V245.33Z" fill="#020000"/>
<path d="M151.13 238.85H144.65V245.33H151.13V238.85Z" fill="#020000"/>
<path d="M151.13 232.3H144.65V238.84H151.13V232.3Z" fill="#020000"/>
<path d="M151.13 225.76H144.65V232.3H151.13V225.76Z" fill="#020000"/>
<path d="M151.13 219.29H144.65V225.77H151.13V219.29Z" fill="#020000"/>
<path d="M151.13 212.75H144.65V219.29H151.13V212.75Z" fill="black"/>
<path d="M151.13 206.27H144.65V212.75H151.13V206.27Z" fill="#020000"/>
<path d="M151.13 199.72H144.65V206.26H151.13V199.72Z" fill="#020000"/>
<path d="M151.13 193.25H144.65V199.73H151.13V193.25Z" fill="#020000"/>
<path d="M151.13 186.71H144.65V193.25H151.13V186.71Z" fill="#020000"/>
<path d="M151.13 180.23H144.65V186.71H151.13V180.23Z" fill="#439B3E"/>
<path d="M151.13 173.69H144.65V180.23H151.13V173.69Z" fill="#439B3E"/>
<path d="M151.13 167.14H144.65V173.68H151.13V167.14Z" fill="#439B3E"/>
<path d="M151.13 160.67H144.65V167.15H151.13V160.67Z" fill="#439B3E"/>
<path d="M151.13 154.13H144.65V160.67H151.13V154.13Z" fill="#020000"/>
<path d="M151.13 147.65H144.65V154.13H151.13V147.65Z" fill="#439B3E"/>
<path d="M151.13 141.11H144.65V147.65H151.13V141.11Z" fill="#439B3E"/>
<path d="M151.13 134.64H144.65V141.12H151.13V134.64Z" fill="#439B3E"/>
<path d="M151.13 128.09H144.65V134.63H151.13V128.09Z" fill="#020000"/>
<path d="M144.65 186.71H138.11V193.25H144.65V186.71Z" fill="#020000"/>
<path d="M144.65 180.23H138.11V186.71H144.65V180.23Z" fill="#020000"/>
<path d="M144.65 173.69H138.11V180.23H144.65V173.69Z" fill="#020000"/>
<path d="M144.65 167.14H138.11V173.68H144.65V167.14Z" fill="#439B3E"/>
<path d="M144.65 160.67H138.11V167.15H144.65V160.67Z" fill="#439B3E"/>
<path d="M144.65 154.13H138.11V160.67H144.65V154.13Z" fill="#439B3E"/>
<path d="M144.65 147.65H138.11V154.13H144.65V147.65Z" fill="#439B3E"/>
<path d="M144.65 141.11H138.11V147.65H144.65V141.11Z" fill="#34872D"/>
<path d="M144.65 134.64H138.11V141.12H144.65V134.64Z" fill="#439B3E"/>
<path d="M144.65 128.09H138.11V134.63H144.65V128.09Z" fill="#020000"/>
<path d="M138.12 173.69H131.64V180.23H138.12V173.69Z" fill="#020000"/>
<path d="M138.12 167.14H131.64V173.68H138.12V167.14Z" fill="#439B3E"/>
<path d="M138.12 160.67H131.64V167.15H138.12V160.67Z" fill="#439B3E"/>
<path d="M138.12 154.13H131.64V160.67H138.12V154.13Z" fill="#439B3E"/>
<path d="M138.12 147.65H131.64V154.13H138.12V147.65Z" fill="#34872D"/>
<path d="M138.12 141.11H131.64V147.65H138.12V141.11Z" fill="#439B3E"/>
<path d="M138.12 134.64H131.64V141.12H138.12V134.64Z" fill="#020000"/>
<path d="M131.63 173.69H125.09V180.23H131.63V173.69Z" fill="#020000"/>
<path d="M131.63 167.14H125.09V173.68H131.63V167.14Z" fill="#439B3E"/>
<path d="M131.63 160.67H125.09V167.15H131.63V160.67Z" fill="#439B3E"/>
<path d="M131.63 154.13H125.09V160.67H131.63V154.13Z" fill="#439B3E"/>
<path d="M131.63 147.65H125.09V154.13H131.63V147.65Z" fill="#439B3E"/>
<path d="M131.63 141.11H125.09V147.65H131.63V141.11Z" fill="#439B3E"/>
<path d="M131.63 134.64H125.09V141.12H131.63V134.64Z" fill="#050100"/>
<path d="M125.09 167.14H118.55V173.68H125.09V167.14Z" fill="#020000"/>
<path d="M125.09 160.67H118.55V167.15H125.09V160.67Z" fill="#439B3E"/>
<path d="M125.09 154.13H118.55V160.67H125.09V154.13Z" fill="#439B3E"/>
<path d="M125.09 147.65H118.55V154.13H125.09V147.65Z" fill="#439B3E"/>
<path d="M125.09 141.11H118.55V147.65H125.09V141.11Z" fill="#020000"/>
<path d="M118.55 160.67H112.07V167.15H118.55V160.67Z" fill="#020000"/>
<path d="M118.55 154.13H112.07V160.67H118.55V154.13Z" fill="#020000"/>
<path d="M118.55 147.65H112.07V154.13H118.55V147.65Z" fill="#020000"/>
</svg>
