<svg width="400" height="400" viewBox="0 0 400 400" fill="none" xmlns="http://www.w3.org/2000/svg">
<path d="M200 385.78C302.603 385.78 385.78 302.603 385.78 200C385.78 97.3963 302.603 14.2197 200 14.2197C97.3965 14.2197 14.22 97.3963 14.22 200C14.22 302.603 97.3965 385.78 200 385.78Z" fill="black"/>
<path d="M200 392.78C93.7 392.78 7.21997 306.3 7.21997 200C7.21997 93.6997 93.7 7.21973 200 7.21973C306.3 7.21973 392.78 93.6997 392.78 200C392.78 306.3 306.3 392.78 200 392.78ZM200 21.2197C101.42 21.2197 21.22 101.42 21.22 200C21.22 298.58 101.42 378.78 200 378.78C298.58 378.78 378.78 298.58 378.78 200C378.78 101.42 298.58 21.2197 200 21.2197Z" fill="#668466"/>
<path d="M292.09 258.96H285.11V266.02H292.09V258.96Z" fill="black"/>
<path d="M292.09 251.979H285.11V258.959H292.09V251.979Z" fill="black"/>
<path d="M292.09 244.92H285.11V251.98H292.09V244.92Z" fill="black"/>
<path d="M292.09 237.87H285.11V244.92H292.09V237.87Z" fill="black"/>
<path d="M292.09 230.88H285.11V237.86H292.09V230.88Z" fill="black"/>
<path d="M292.09 223.83H285.11V230.89H292.09V223.83Z" fill="black"/>
<path d="M292.09 216.85H285.11V223.83H292.09V216.85Z" fill="black"/>
<path d="M292.09 209.79H285.11V216.85H292.09V209.79Z" fill="black"/>
<path d="M292.09 202.81H285.11V209.79H292.09V202.81Z" fill="black"/>
<path d="M292.09 195.75H285.11V202.81H292.09V195.75Z" fill="black"/>
<path d="M292.09 188.77H285.11V195.75H292.09V188.77Z" fill="black"/>
<path d="M292.09 181.71H285.11V188.77H292.09V181.71Z" fill="black"/>
<path d="M292.09 174.66H285.11V181.72H292.09V174.66Z" fill="black"/>
<path d="M292.09 146.58H285.11V153.64H292.09V146.58Z" fill="black"/>
<path d="M292.09 139.6H285.11V146.58H292.09V139.6Z" fill="black"/>
<path d="M292.09 132.54H285.11V139.6H292.09V132.54Z" fill="black"/>
<path d="M292.09 125.489H285.11V132.549H292.09V125.489Z" fill="black"/>
<path d="M285.12 266.02H278.06V273H285.12V266.02Z" fill="black"/>
<path d="M285.12 258.96H278.06V266.02H285.12V258.96Z" fill="#577C57"/>
<path d="M285.12 251.979H278.06V258.959H285.12V251.979Z" fill="#577C57"/>
<path d="M285.12 244.92H278.06V251.98H285.12V244.92Z" fill="#577C57"/>
<path d="M285.12 237.87H278.06V244.92H285.12V237.87Z" fill="#577C57"/>
<path d="M285.12 230.88H278.06V237.86H285.12V230.88Z" fill="#577C57"/>
<path d="M285.12 223.83H278.06V230.89H285.12V223.83Z" fill="#668466"/>
<path d="M285.12 216.85H278.06V223.83H285.12V216.85Z" fill="#668466"/>
<path d="M285.12 209.79H278.06V216.85H285.12V209.79Z" fill="#668466"/>
<path d="M285.12 202.81H278.06V209.79H285.12V202.81Z" fill="#577C57"/>
<path d="M285.12 195.75H278.06V202.81H285.12V195.75Z" fill="#577C57"/>
<path d="M285.12 188.77H278.06V195.75H285.12V188.77Z" fill="#577C57"/>
<path d="M285.12 181.71H278.06V188.77H285.12V181.71Z" fill="#577C57"/>
<path d="M285.12 174.66H278.06V181.72H285.12V174.66Z" fill="#577C57"/>
<path d="M285.12 167.68H278.06V174.66H285.12V167.68Z" fill="black"/>
<path d="M285.12 160.62H278.06V167.68H285.12V160.62Z" fill="black"/>
<path d="M285.12 153.64H278.06V160.62H285.12V153.64Z" fill="black"/>
<path d="M285.12 146.58H278.06V153.64H285.12V146.58Z" fill="#668466"/>
<path d="M285.12 139.6H278.06V146.58H285.12V139.6Z" fill="#446644"/>
<path d="M285.12 132.54H278.06V139.6H285.12V132.54Z" fill="#446644"/>
<path d="M285.12 125.489H278.06V132.549H285.12V125.489Z" fill="#668466"/>
<path d="M285.12 118.51H278.06V125.49H285.12V118.51Z" fill="black"/>
<path d="M285.12 111.449H278.06V118.509H285.12V111.449Z" fill="black"/>
<path d="M278.06 266.02H271.01V273H278.06V266.02Z" fill="black"/>
<path d="M278.06 258.96H271.01V266.02H278.06V258.96Z" fill="#446644"/>
<path d="M278.06 251.979H271.01V258.959H278.06V251.979Z" fill="#668466"/>
<path d="M278.06 244.92H271.01V251.98H278.06V244.92Z" fill="#668466"/>
<path d="M278.06 237.87H271.01V244.92H278.06V237.87Z" fill="#668466"/>
<path d="M278.06 230.88H271.01V237.86H278.06V230.88Z" fill="#668466"/>
<path d="M278.06 223.83H271.01V230.89H278.06V223.83Z" fill="#668466"/>
<path d="M278.06 216.85H271.01V223.83H278.06V216.85Z" fill="#668466"/>
<path d="M278.06 209.79H271.01V216.85H278.06V209.79Z" fill="#668466"/>
<path d="M278.06 202.81H271.01V209.79H278.06V202.81Z" fill="#668466"/>
<path d="M278.06 195.75H271.01V202.81H278.06V195.75Z" fill="#668466"/>
<path d="M278.06 188.77H271.01V195.75H278.06V188.77Z" fill="#668466"/>
<path d="M278.06 181.71H271.01V188.77H278.06V181.71Z" fill="#668466"/>
<path d="M278.06 174.66H271.01V181.72H278.06V174.66Z" fill="#577C57"/>
<path d="M278.06 167.68H271.01V174.66H278.06V167.68Z" fill="#446644"/>
<path d="M278.06 160.62H271.01V167.68H278.06V160.62Z" fill="#668466"/>
<path d="M278.06 153.64H271.01V160.62H278.06V153.64Z" fill="#668466"/>
<path d="M278.06 146.58H271.01V153.64H278.06V146.58Z" fill="#446644"/>
<path d="M278.06 139.6H271.01V146.58H278.06V139.6Z" fill="#668466"/>
<path d="M278.06 132.54H271.01V139.6H278.06V132.54Z" fill="#668466"/>
<path d="M278.06 125.489H271.01V132.549H278.06V125.489Z" fill="#446644"/>
<path d="M278.06 118.51H271.01V125.49H278.06V118.51Z" fill="#668466"/>
<path d="M278.06 111.449H271.01V118.509H278.06V111.449Z" fill="black"/>
<path d="M271 266.02H264.01V273H271V266.02Z" fill="black"/>
<path d="M271 258.96H264.01V266.02H271V258.96Z" fill="#446644"/>
<path d="M271 251.979H264.01V258.959H271V251.979Z" fill="#446644"/>
<path d="M271 244.92H264.01V251.98H271V244.92Z" fill="#446644"/>
<path d="M271 237.87H264.01V244.92H271V237.87Z" fill="#668466"/>
<path d="M271 230.88H264.01V237.86H271V230.88Z" fill="#668466"/>
<path d="M271 223.83H264.01V230.89H271V223.83Z" fill="#668466"/>
<path d="M271 216.85H264.01V223.83H271V216.85Z" fill="#668466"/>
<path d="M271 209.79H264.01V216.85H271V209.79Z" fill="#668466"/>
<path d="M271 202.81H264.01V209.79H271V202.81Z" fill="#668466"/>
<path d="M271 195.75H264.01V202.81H271V195.75Z" fill="#668466"/>
<path d="M271 188.77H264.01V195.75H271V188.77Z" fill="#668466"/>
<path d="M271 181.71H264.01V188.77H271V181.71Z" fill="#668466"/>
<path d="M271 174.66H264.01V181.72H271V174.66Z" fill="#668466"/>
<path d="M271 167.68H264.01V174.66H271V167.68Z" fill="#446644"/>
<path d="M271 160.62H264.01V167.68H271V160.62Z" fill="#668466"/>
<path d="M271 153.64H264.01V160.62H271V153.64Z" fill="#668466"/>
<path d="M271 146.58H264.01V153.64H271V146.58Z" fill="#668466"/>
<path d="M271 139.6H264.01V146.58H271V139.6Z" fill="#446644"/>
<path d="M271 132.54H264.01V139.6H271V132.54Z" fill="#668466"/>
<path d="M271 125.489H264.01V132.549H271V125.489Z" fill="#446644"/>
<path d="M271 118.51H264.01V125.49H271V118.51Z" fill="#668466"/>
<path d="M271 111.449H264.01V118.509H271V111.449Z" fill="black"/>
<path d="M264.02 266.02H256.97V273H264.02V266.02Z" fill="black"/>
<path d="M264.02 258.96H256.97V266.02H264.02V258.96Z" fill="#446644"/>
<path d="M264.02 251.979H256.97V258.959H264.02V251.979Z" fill="#446644"/>
<path d="M264.02 244.92H256.97V251.98H264.02V244.92Z" fill="#446644"/>
<path d="M264.02 237.87H256.97V244.92H264.02V237.87Z" fill="#446644"/>
<path d="M264.02 230.88H256.97V237.86H264.02V230.88Z" fill="#668466"/>
<path d="M264.02 223.83H256.97V230.89H264.02V223.83Z" fill="#668466"/>
<path d="M264.02 216.85H256.97V223.83H264.02V216.85Z" fill="#668466"/>
<path d="M264.02 209.79H256.97V216.85H264.02V209.79Z" fill="black"/>
<path d="M264.02 202.81H256.97V209.79H264.02V202.81Z" fill="black"/>
<path d="M264.02 195.75H256.97V202.81H264.02V195.75Z" fill="black"/>
<path d="M264.02 188.77H256.97V195.75H264.02V188.77Z" fill="black"/>
<path d="M264.02 181.71H256.97V188.77H264.02V181.71Z" fill="black"/>
<path d="M264.02 174.66H256.97V181.72H264.02V174.66Z" fill="#668466"/>
<path d="M264.02 167.68H256.97V174.66H264.02V167.68Z" fill="#446644"/>
<path d="M264.02 160.62H256.97V167.68H264.02V160.62Z" fill="black"/>
<path d="M264.02 153.64H256.97V160.62H264.02V153.64Z" fill="black"/>
<path d="M264.02 146.58H256.97V153.64H264.02V146.58Z" fill="black"/>
<path d="M264.02 139.6H256.97V146.58H264.02V139.6Z" fill="black"/>
<path d="M264.02 132.54H256.97V139.6H264.02V132.54Z" fill="#668466"/>
<path d="M264.02 125.489H256.97V132.549H264.02V125.489Z" fill="#668466"/>
<path d="M264.02 118.51H256.97V125.49H264.02V118.51Z" fill="#668466"/>
<path d="M264.02 111.449H256.97V118.509H264.02V111.449Z" fill="black"/>
<path d="M256.96 315.189H249.98V322.169H256.96V315.189Z" fill="black"/>
<path d="M256.96 308.13H249.98V315.19H256.96V308.13Z" fill="black"/>
<path d="M256.96 266.02H249.98V273H256.96V266.02Z" fill="black"/>
<path d="M256.96 258.96H249.98V266.02H256.96V258.96Z" fill="#446644"/>
<path d="M256.96 251.979H249.98V258.959H256.96V251.979Z" fill="#446644"/>
<path d="M256.96 244.92H249.98V251.98H256.96V244.92Z" fill="#446644"/>
<path d="M256.96 237.87H249.98V244.92H256.96V237.87Z" fill="#446644"/>
<path d="M256.96 230.88H249.98V237.86H256.96V230.88Z" fill="#446644"/>
<path d="M256.96 223.83H249.98V230.89H256.96V223.83Z" fill="#446644"/>
<path d="M256.96 216.85H249.98V223.83H256.96V216.85Z" fill="black"/>
<path d="M256.96 209.79H249.98V216.85H256.96V209.79Z" fill="#8ABC8A"/>
<path d="M256.96 202.81H249.98V209.79H256.96V202.81Z" fill="#8ABC8A"/>
<path d="M256.96 195.75H249.98V202.81H256.96V195.75Z" fill="#8ABC8A"/>
<path d="M256.96 188.77H249.98V195.75H256.96V188.77Z" fill="#8ABC8A"/>
<path d="M256.96 181.71H249.98V188.77H256.96V181.71Z" fill="#8ABC8A"/>
<path d="M256.96 174.66H249.98V181.72H256.96V174.66Z" fill="black"/>
<path d="M256.96 167.68H249.98V174.66H256.96V167.68Z" fill="#446644"/>
<path d="M256.96 160.62H249.98V167.68H256.96V160.62Z" fill="black"/>
<path d="M256.96 153.64H249.98V160.62H256.96V153.64Z" fill="#969696"/>
<path d="M256.96 146.58H249.98V153.64H256.96V146.58Z" fill="#969696"/>
<path d="M256.96 139.6H249.98V146.58H256.96V139.6Z" fill="black"/>
<path d="M256.96 132.54H249.98V139.6H256.96V132.54Z" fill="#668466"/>
<path d="M256.96 125.489H249.98V132.549H256.96V125.489Z" fill="#668466"/>
<path d="M256.96 118.51H249.98V125.49H256.96V118.51Z" fill="black"/>
<path d="M249.98 315.189H242.92V322.169H249.98V315.189Z" fill="black"/>
<path d="M249.98 308.13H242.92V315.19H249.98V308.13Z" fill="#724107"/>
<path d="M249.98 301.149H242.92V308.129H249.98V301.149Z" fill="black"/>
<path d="M249.98 294.09H242.92V301.15H249.98V294.09Z" fill="black"/>
<path d="M249.98 258.96H242.92V266.02H249.98V258.96Z" fill="black"/>
<path d="M249.98 251.979H242.92V258.959H249.98V251.979Z" fill="#446644"/>
<path d="M249.98 244.92H242.92V251.98H249.98V244.92Z" fill="#446644"/>
<path d="M249.98 237.87H242.92V244.92H249.98V237.87Z" fill="#446644"/>
<path d="M249.98 230.88H242.92V237.86H249.98V230.88Z" fill="#446644"/>
<path d="M249.98 223.83H242.92V230.89H249.98V223.83Z" fill="black"/>
<path d="M249.98 216.85H242.92V223.83H249.98V216.85Z" fill="#9DCF9D"/>
<path d="M249.98 209.79H242.92V216.85H249.98V209.79Z" fill="#9DCF9D"/>
<path d="M249.98 202.81H242.92V209.79H249.98V202.81Z" fill="#9DCF9D"/>
<path d="M249.98 195.75H242.92V202.81H249.98V195.75Z" fill="#9DCF9D"/>
<path d="M249.98 188.77H242.92V195.75H249.98V188.77Z" fill="#9DCF9D"/>
<path d="M249.98 181.71H242.92V188.77H249.98V181.71Z" fill="#8ABC8A"/>
<path d="M249.98 174.66H242.92V181.72H249.98V174.66Z" fill="#73C6C6"/>
<path d="M249.98 167.68H242.92V174.66H249.98V167.68Z" fill="black"/>
<path d="M249.98 160.62H242.92V167.68H249.98V160.62Z" fill="black"/>
<path d="M249.98 153.64H242.92V160.62H249.98V153.64Z" fill="#969696"/>
<path d="M249.98 146.58H242.92V153.64H249.98V146.58Z" fill="#969696"/>
<path d="M249.98 139.6H242.92V146.58H249.98V139.6Z" fill="#969696"/>
<path d="M249.98 132.54H242.92V139.6H249.98V132.54Z" fill="black"/>
<path d="M249.98 125.489H242.92V132.549H249.98V125.489Z" fill="black"/>
<path d="M242.92 315.189H235.94V322.169H242.92V315.189Z" fill="black"/>
<path d="M242.92 308.13H235.94V315.19H242.92V308.13Z" fill="#724107"/>
<path d="M242.92 301.149H235.94V308.129H242.92V301.149Z" fill="#4C3A1F"/>
<path d="M242.92 294.09H235.94V301.15H242.92V294.09Z" fill="#4C3A1F"/>
<path d="M242.92 287.04H235.94V294.09H242.92V287.04Z" fill="black"/>
<path d="M242.92 280.05H235.94V287.04H242.92V280.05Z" fill="black"/>
<path d="M242.92 273.01H235.94V280.06H242.92V273.01Z" fill="black"/>
<path d="M242.92 266.02H235.94V273H242.92V266.02Z" fill="black"/>
<path d="M242.92 258.96H235.94V266.02H242.92V258.96Z" fill="black"/>
<path d="M242.92 251.979H235.94V258.959H242.92V251.979Z" fill="black"/>
<path d="M242.92 244.92H235.94V251.98H242.92V244.92Z" fill="black"/>
<path d="M242.92 237.87H235.94V244.92H242.92V237.87Z" fill="#446644"/>
<path d="M242.92 230.88H235.94V237.86H242.92V230.88Z" fill="black"/>
<path d="M242.92 223.83H235.94V230.89H242.92V223.83Z" fill="#668466"/>
<path d="M242.92 216.85H235.94V223.83H242.92V216.85Z" fill="#668466"/>
<path d="M242.92 209.79H235.94V216.85H242.92V209.79Z" fill="#668466"/>
<path d="M242.92 202.81H235.94V209.79H242.92V202.81Z" fill="#668466"/>
<path d="M242.92 195.75H235.94V202.81H242.92V195.75Z" fill="#9DCF9D"/>
<path d="M242.92 188.77H235.94V195.75H242.92V188.77Z" fill="#9DCF9D"/>
<path d="M242.92 181.71H235.94V188.77H242.92V181.71Z" fill="#8ABC8A"/>
<path d="M242.92 174.66H235.94V181.72H242.92V174.66Z" fill="#9FF5F7"/>
<path d="M242.92 167.68H235.94V174.66H242.92V167.68Z" fill="#73C6C6"/>
<path d="M242.92 160.62H235.94V167.68H242.92V160.62Z" fill="#969696"/>
<path d="M242.92 153.64H235.94V160.62H242.92V153.64Z" fill="#969696"/>
<path d="M242.92 146.58H235.94V153.64H242.92V146.58Z" fill="#969696"/>
<path d="M242.92 139.6H235.94V146.58H242.92V139.6Z" fill="#FFD8AE"/>
<path d="M242.92 132.54H235.94V139.6H242.92V132.54Z" fill="#969696"/>
<path d="M242.92 125.489H235.94V132.549H242.92V125.489Z" fill="black"/>
<path d="M242.92 118.51H235.94V125.49H242.92V118.51Z" fill="black"/>
<path d="M242.92 111.449H235.94V118.509H242.92V111.449Z" fill="black"/>
<path d="M235.95 315.189H228.89V322.169H235.95V315.189Z" fill="black"/>
<path d="M235.95 308.13H228.89V315.19H235.95V308.13Z" fill="#724107"/>
<path d="M235.95 301.149H228.89V308.129H235.95V301.149Z" fill="#4C3A1F"/>
<path d="M235.95 294.09H228.89V301.15H235.95V294.09Z" fill="#4C3A1F"/>
<path d="M235.95 287.04H228.89V294.09H235.95V287.04Z" fill="#4C3A1F"/>
<path d="M235.95 280.05H228.89V287.04H235.95V280.05Z" fill="#4C3A1F"/>
<path d="M235.95 273.01H228.89V280.06H235.95V273.01Z" fill="#4C3A1F"/>
<path d="M235.95 266.02H228.89V273H235.95V266.02Z" fill="#634D27"/>
<path d="M235.95 258.96H228.89V266.02H235.95V258.96Z" fill="#634D27"/>
<path d="M235.95 251.979H228.89V258.959H235.95V251.979Z" fill="#634D27"/>
<path d="M235.95 244.92H228.89V251.98H235.95V244.92Z" fill="#634D27"/>
<path d="M235.95 237.87H228.89V244.92H235.95V237.87Z" fill="black"/>
<path d="M235.95 230.88H228.89V237.86H235.95V230.88Z" fill="black"/>
<path d="M235.95 223.83H228.89V230.89H235.95V223.83Z" fill="#FFD8AE"/>
<path d="M235.95 216.85H228.89V223.83H235.95V216.85Z" fill="#FFD8AE"/>
<path d="M235.95 209.79H228.89V216.85H235.95V209.79Z" fill="#FFD8AE"/>
<path d="M235.95 202.81H228.89V209.79H235.95V202.81Z" fill="#668466"/>
<path d="M235.95 195.75H228.89V202.81H235.95V195.75Z" fill="#9DCF9D"/>
<path d="M235.95 188.77H228.89V195.75H235.95V188.77Z" fill="#8ABC8A"/>
<path d="M235.95 181.71H228.89V188.77H235.95V181.71Z" fill="#9FF5F7"/>
<path d="M235.95 174.66H228.89V181.72H235.95V174.66Z" fill="#9FF5F7"/>
<path d="M235.95 167.68H228.89V174.66H235.95V167.68Z" fill="#9FF5F7"/>
<path d="M235.95 160.62H228.89V167.68H235.95V160.62Z" fill="#73C6C6"/>
<path d="M235.95 153.64H228.89V160.62H235.95V153.64Z" fill="#73C6C6"/>
<path d="M235.95 146.58H228.89V153.64H235.95V146.58Z" fill="#DBAB7B"/>
<path d="M235.95 139.6H228.89V146.58H235.95V139.6Z" fill="#DBAB7B"/>
<path d="M235.95 132.54H228.89V139.6H235.95V132.54Z" fill="#969696"/>
<path d="M235.95 125.489H228.89V132.549H235.95V125.489Z" fill="#969696"/>
<path d="M235.95 118.51H228.89V125.49H235.95V118.51Z" fill="#969696"/>
<path d="M235.95 111.449H228.89V118.509H235.95V111.449Z" fill="black"/>
<path d="M235.95 104.47H228.89V111.45H235.95V104.47Z" fill="black"/>
<path d="M228.89 315.189H221.84V322.169H228.89V315.189Z" fill="black"/>
<path d="M228.89 308.13H221.84V315.19H228.89V308.13Z" fill="black"/>
<path d="M228.89 301.149H221.84V308.129H228.89V301.149Z" fill="black"/>
<path d="M228.89 294.09H221.84V301.15H228.89V294.09Z" fill="#4C3A1F"/>
<path d="M228.89 287.04H221.84V294.09H228.89V287.04Z" fill="#4C3A1F"/>
<path d="M228.89 280.05H221.84V287.04H228.89V280.05Z" fill="#634D27"/>
<path d="M228.89 273.01H221.84V280.06H228.89V273.01Z" fill="#634D27"/>
<path d="M228.89 266.02H221.84V273H228.89V266.02Z" fill="#634D27"/>
<path d="M228.89 258.96H221.84V266.02H228.89V258.96Z" fill="#634D27"/>
<path d="M228.89 251.979H221.84V258.959H228.89V251.979Z" fill="#634D27"/>
<path d="M228.89 244.92H221.84V251.98H228.89V244.92Z" fill="#634D27"/>
<path d="M228.89 237.87H221.84V244.92H228.89V237.87Z" fill="#4C3A1F"/>
<path d="M228.89 230.88H221.84V237.86H228.89V230.88Z" fill="#8ABC8A"/>
<path d="M228.89 223.83H221.84V230.89H228.89V223.83Z" fill="#FFD8AE"/>
<path d="M228.89 216.85H221.84V223.83H228.89V216.85Z" fill="#FFD8AE"/>
<path d="M228.89 209.79H221.84V216.85H228.89V209.79Z" fill="#FFD8AE"/>
<path d="M228.89 202.81H221.84V209.79H228.89V202.81Z" fill="#9DCF9D"/>
<path d="M228.89 195.75H221.84V202.81H228.89V195.75Z" fill="#9DCF9D"/>
<path d="M228.89 188.77H221.84V195.75H228.89V188.77Z" fill="#9FF5F7"/>
<path d="M228.89 181.71H221.84V188.77H228.89V181.71Z" fill="#9FF5F7"/>
<path d="M228.89 174.66H221.84V181.72H228.89V174.66Z" fill="#73C6C6"/>
<path d="M228.89 167.68H221.84V174.66H228.89V167.68Z" fill="#9FF5F7"/>
<path d="M228.89 160.62H221.84V167.68H228.89V160.62Z" fill="#9FF5F7"/>
<path d="M228.89 153.64H221.84V160.62H228.89V153.64Z" fill="#73C6C6"/>
<path d="M228.89 146.58H221.84V153.64H228.89V146.58Z" fill="#FFD8AE"/>
<path d="M228.89 139.6H221.84V146.58H228.89V139.6Z" fill="#FFD8AE"/>
<path d="M228.89 132.54H221.84V139.6H228.89V132.54Z" fill="#FFD8AE"/>
<path d="M228.89 125.489H221.84V132.549H228.89V125.489Z" fill="#AFAFAF"/>
<path d="M228.89 118.51H221.84V125.49H228.89V118.51Z" fill="#AFAFAF"/>
<path d="M228.89 111.449H221.84V118.509H228.89V111.449Z" fill="#969696"/>
<path d="M228.89 104.47H221.84V111.45H228.89V104.47Z" fill="#969696"/>
<path d="M228.89 97.4102H221.84V104.47H228.89V97.4102Z" fill="black"/>
<path d="M221.83 294.09H214.85V301.15H221.83V294.09Z" fill="black"/>
<path d="M221.83 287.04H214.85V294.09H221.83V287.04Z" fill="black"/>
<path d="M221.83 280.05H214.85V287.04H221.83V280.05Z" fill="#634D27"/>
<path d="M221.83 273.01H214.85V280.06H221.83V273.01Z" fill="#634D27"/>
<path d="M221.83 266.02H214.85V273H221.83V266.02Z" fill="#634D27"/>
<path d="M221.83 258.96H214.85V266.02H221.83V258.96Z" fill="#634D27"/>
<path d="M221.83 251.979H214.85V258.959H221.83V251.979Z" fill="#634D27"/>
<path d="M221.83 244.92H214.85V251.98H221.83V244.92Z" fill="#634D27"/>
<path d="M221.83 237.87H214.85V244.92H221.83V237.87Z" fill="#4C3A1F"/>
<path d="M221.83 230.88H214.85V237.86H221.83V230.88Z" fill="#8ABC8A"/>
<path d="M221.83 223.83H214.85V230.89H221.83V223.83Z" fill="#9DCF9D"/>
<path d="M221.83 216.85H214.85V223.83H221.83V216.85Z" fill="#9DCF9D"/>
<path d="M221.83 209.79H214.85V216.85H221.83V209.79Z" fill="#FFD8AE"/>
<path d="M221.83 202.81H214.85V209.79H221.83V202.81Z" fill="#9DCF9D"/>
<path d="M221.83 195.75H214.85V202.81H221.83V195.75Z" fill="#73C6C6"/>
<path d="M221.83 188.77H214.85V195.75H221.83V188.77Z" fill="#9FF5F7"/>
<path d="M221.83 181.71H214.85V188.77H221.83V181.71Z" fill="#9FF5F7"/>
<path d="M221.83 174.66H214.85V181.72H221.83V174.66Z" fill="#9FF5F7"/>
<path d="M221.83 167.68H214.85V174.66H221.83V167.68Z" fill="#73C6C6"/>
<path d="M221.83 160.62H214.85V167.68H221.83V160.62Z" fill="#73C6C6"/>
<path d="M221.83 153.64H214.85V160.62H221.83V153.64Z" fill="#FFD8AE"/>
<path d="M221.83 146.58H214.85V153.64H221.83V146.58Z" fill="#FFD8AE"/>
<path d="M221.83 139.6H214.85V146.58H221.83V139.6Z" fill="black"/>
<path d="M221.83 132.54H214.85V139.6H221.83V132.54Z" fill="#FFD8AE"/>
<path d="M221.83 125.489H214.85V132.549H221.83V125.489Z" fill="#AFAFAF"/>
<path d="M221.83 118.51H214.85V125.49H221.83V118.51Z" fill="#AFAFAF"/>
<path d="M221.83 111.449H214.85V118.509H221.83V111.449Z" fill="#AFAFAF"/>
<path d="M221.83 104.47H214.85V111.45H221.83V104.47Z" fill="#969696"/>
<path d="M221.83 97.4102H214.85V104.47H221.83V97.4102Z" fill="black"/>
<path d="M214.85 287.04H207.79V294.09H214.85V287.04Z" fill="black"/>
<path d="M214.85 280.05H207.79V287.04H214.85V280.05Z" fill="black"/>
<path d="M214.85 273.01H207.79V280.06H214.85V273.01Z" fill="black"/>
<path d="M214.85 266.02H207.79V273H214.85V266.02Z" fill="#634D27"/>
<path d="M214.85 258.96H207.79V266.02H214.85V258.96Z" fill="#634D27"/>
<path d="M214.85 251.979H207.79V258.959H214.85V251.979Z" fill="#634D27"/>
<path d="M214.85 244.92H207.79V251.98H214.85V244.92Z" fill="#634D27"/>
<path d="M214.85 237.87H207.79V244.92H214.85V237.87Z" fill="#4C3A1F"/>
<path d="M214.85 230.88H207.79V237.86H214.85V230.88Z" fill="#8ABC8A"/>
<path d="M214.85 223.83H207.79V230.89H214.85V223.83Z" fill="#9DCF9D"/>
<path d="M214.85 216.85H207.79V223.83H214.85V216.85Z" fill="#9DCF9D"/>
<path d="M214.85 209.79H207.79V216.85H214.85V209.79Z" fill="#9DCF9D"/>
<path d="M214.85 202.81H207.79V209.79H214.85V202.81Z" fill="#9DCF9D"/>
<path d="M214.85 195.75H207.79V202.81H214.85V195.75Z" fill="#8ABC8A"/>
<path d="M214.85 188.77H207.79V195.75H214.85V188.77Z" fill="#73C6C6"/>
<path d="M214.85 181.71H207.79V188.77H214.85V181.71Z" fill="#9FF5F7"/>
<path d="M214.85 174.66H207.79V181.72H214.85V174.66Z" fill="#9FF5F7"/>
<path d="M214.85 167.68H207.79V174.66H214.85V167.68Z" fill="#9FF5F7"/>
<path d="M214.85 160.62H207.79V167.68H214.85V160.62Z" fill="#73C6C6"/>
<path d="M214.85 153.64H207.79V160.62H214.85V153.64Z" fill="#FFD8AE"/>
<path d="M214.85 146.58H207.79V153.64H214.85V146.58Z" fill="#FFD8AE"/>
<path d="M214.85 139.6H207.79V146.58H214.85V139.6Z" fill="#FFD8AE"/>
<path d="M214.85 132.54H207.79V139.6H214.85V132.54Z" fill="#FFD8AE"/>
<path d="M214.85 125.489H207.79V132.549H214.85V125.489Z" fill="#AFAFAF"/>
<path d="M214.85 118.51H207.79V125.49H214.85V118.51Z" fill="#AFAFAF"/>
<path d="M214.85 111.449H207.79V118.509H214.85V111.449Z" fill="#AFAFAF"/>
<path d="M214.85 104.47H207.79V111.45H214.85V104.47Z" fill="#969696"/>
<path d="M214.85 97.4102H207.79V104.47H214.85V97.4102Z" fill="black"/>
<path d="M207.79 315.189H200.81V322.169H207.79V315.189Z" fill="black"/>
<path d="M207.79 308.13H200.81V315.19H207.79V308.13Z" fill="black"/>
<path d="M207.79 301.149H200.81V308.129H207.79V301.149Z" fill="black"/>
<path d="M207.79 294.09H200.81V301.15H207.79V294.09Z" fill="black"/>
<path d="M207.79 287.04H200.81V294.09H207.79V287.04Z" fill="#4C3A1F"/>
<path d="M207.79 280.05H200.81V287.04H207.79V280.05Z" fill="#634D27"/>
<path d="M207.79 273.01H200.81V280.06H207.79V273.01Z" fill="#634D27"/>
<path d="M207.79 266.02H200.81V273H207.79V266.02Z" fill="#634D27"/>
<path d="M207.79 258.96H200.81V266.02H207.79V258.96Z" fill="#634D27"/>
<path d="M207.79 251.979H200.81V258.959H207.79V251.979Z" fill="#634D27"/>
<path d="M207.79 244.92H200.81V251.98H207.79V244.92Z" fill="#4C3A1F"/>
<path d="M207.79 237.87H200.81V244.92H207.79V237.87Z" fill="#8ABC8A"/>
<path d="M207.79 230.88H200.81V237.86H207.79V230.88Z" fill="#8ABC8A"/>
<path d="M207.79 223.83H200.81V230.89H207.79V223.83Z" fill="#9DCF9D"/>
<path d="M207.79 216.85H200.81V223.83H207.79V216.85Z" fill="#9DCF9D"/>
<path d="M207.79 209.79H200.81V216.85H207.79V209.79Z" fill="#9DCF9D"/>
<path d="M207.79 202.81H200.81V209.79H207.79V202.81Z" fill="#9DCF9D"/>
<path d="M207.79 195.75H200.81V202.81H207.79V195.75Z" fill="#8ABC8A"/>
<path d="M207.79 188.77H200.81V195.75H207.79V188.77Z" fill="#8ABC8A"/>
<path d="M207.79 181.71H200.81V188.77H207.79V181.71Z" fill="#73C6C6"/>
<path d="M207.79 174.66H200.81V181.72H207.79V174.66Z" fill="#9FF5F7"/>
<path d="M207.79 167.68H200.81V174.66H207.79V167.68Z" fill="#9FF5F7"/>
<path d="M207.79 160.62H200.81V167.68H207.79V160.62Z" fill="#73C6C6"/>
<path d="M207.79 153.64H200.81V160.62H207.79V153.64Z" fill="#FFD8AE"/>
<path d="M207.79 146.58H200.81V153.64H207.79V146.58Z" fill="#FFD8AE"/>
<path d="M207.79 139.6H200.81V146.58H207.79V139.6Z" fill="#FFD8AE"/>
<path d="M207.79 132.54H200.81V139.6H207.79V132.54Z" fill="#FFD8AE"/>
<path d="M207.79 125.489H200.81V132.549H207.79V125.489Z" fill="#AFAFAF"/>
<path d="M207.79 118.51H200.81V125.49H207.79V118.51Z" fill="#AFAFAF"/>
<path d="M207.79 111.449H200.81V118.509H207.79V111.449Z" fill="#AFAFAF"/>
<path d="M207.79 104.47H200.81V111.45H207.79V104.47Z" fill="#AFAFAF"/>
<path d="M207.79 97.4102H200.81V104.47H207.79V97.4102Z" fill="#969696"/>
<path d="M207.79 90.4297H200.81V97.4097H207.79V90.4297Z" fill="black"/>
<path d="M200.81 315.189H193.75V322.169H200.81V315.189Z" fill="black"/>
<path d="M200.81 308.13H193.75V315.19H200.81V308.13Z" fill="#724107"/>
<path d="M200.81 301.149H193.75V308.129H200.81V301.149Z" fill="#4C3A1F"/>
<path d="M200.81 294.09H193.75V301.15H200.81V294.09Z" fill="#4C3A1F"/>
<path d="M200.81 287.04H193.75V294.09H200.81V287.04Z" fill="#4C3A1F"/>
<path d="M200.81 280.05H193.75V287.04H200.81V280.05Z" fill="#4C3A1F"/>
<path d="M200.81 273.01H193.75V280.06H200.81V273.01Z" fill="#634D27"/>
<path d="M200.81 266.02H193.75V273H200.81V266.02Z" fill="#634D27"/>
<path d="M200.81 258.96H193.75V266.02H200.81V258.96Z" fill="#634D27"/>
<path d="M200.81 251.979H193.75V258.959H200.81V251.979Z" fill="#634D27"/>
<path d="M200.81 244.92H193.75V251.98H200.81V244.92Z" fill="#4C3A1F"/>
<path d="M200.81 237.87H193.75V244.92H200.81V237.87Z" fill="#8ABC8A"/>
<path d="M200.81 230.88H193.75V237.86H200.81V230.88Z" fill="#9DCF9D"/>
<path d="M200.81 223.83H193.75V230.89H200.81V223.83Z" fill="#9FF5F7"/>
<path d="M200.81 216.85H193.75V223.83H200.81V216.85Z" fill="#9DCF9D"/>
<path d="M200.81 209.79H193.75V216.85H200.81V209.79Z" fill="#9DCF9D"/>
<path d="M200.81 202.81H193.75V209.79H200.81V202.81Z" fill="#9FF5F7"/>
<path d="M200.81 195.75H193.75V202.81H200.81V195.75Z" fill="#9DCF9D"/>
<path d="M200.81 188.77H193.75V195.75H200.81V188.77Z" fill="#9DCF9D"/>
<path d="M200.81 181.71H193.75V188.77H200.81V181.71Z" fill="#73C6C6"/>
<path d="M200.81 174.66H193.75V181.72H200.81V174.66Z" fill="#9FF5F7"/>
<path d="M200.81 167.68H193.75V174.66H200.81V167.68Z" fill="#9FF5F7"/>
<path d="M200.81 160.62H193.75V167.68H200.81V160.62Z" fill="#73C6C6"/>
<path d="M200.81 153.64H193.75V160.62H200.81V153.64Z" fill="#FFD8AE"/>
<path d="M200.81 146.58H193.75V153.64H200.81V146.58Z" fill="#FFD8AE"/>
<path d="M200.81 139.6H193.75V146.58H200.81V139.6Z" fill="black"/>
<path d="M200.81 132.54H193.75V139.6H200.81V132.54Z" fill="#FFD8AE"/>
<path d="M200.81 125.489H193.75V132.549H200.81V125.489Z" fill="#AFAFAF"/>
<path d="M200.81 118.51H193.75V125.49H200.81V118.51Z" fill="#AFAFAF"/>
<path d="M200.81 111.449H193.75V118.509H200.81V111.449Z" fill="#AFAFAF"/>
<path d="M200.81 104.47H193.75V111.45H200.81V104.47Z" fill="#AFAFAF"/>
<path d="M200.81 97.4102H193.75V104.47H200.81V97.4102Z" fill="#969696"/>
<path d="M200.81 90.4297H193.75V97.4097H200.81V90.4297Z" fill="black"/>
<path d="M193.75 315.189H186.77V322.169H193.75V315.189Z" fill="black"/>
<path d="M193.75 308.13H186.77V315.19H193.75V308.13Z" fill="#724107"/>
<path d="M193.75 301.149H186.77V308.129H193.75V301.149Z" fill="#4C3A1F"/>
<path d="M193.75 294.09H186.77V301.15H193.75V294.09Z" fill="#4C3A1F"/>
<path d="M193.75 287.04H186.77V294.09H193.75V287.04Z" fill="#4C3A1F"/>
<path d="M193.75 280.05H186.77V287.04H193.75V280.05Z" fill="#4C3A1F"/>
<path d="M193.75 273.01H186.77V280.06H193.75V273.01Z" fill="#4C3A1F"/>
<path d="M193.75 266.02H186.77V273H193.75V266.02Z" fill="#634D27"/>
<path d="M193.75 258.96H186.77V266.02H193.75V258.96Z" fill="#634D27"/>
<path d="M193.75 251.979H186.77V258.959H193.75V251.979Z" fill="#634D27"/>
<path d="M193.75 244.92H186.77V251.98H193.75V244.92Z" fill="#4C3A1F"/>
<path d="M193.75 237.87H186.77V244.92H193.75V237.87Z" fill="#668466"/>
<path d="M193.75 230.88H186.77V237.86H193.75V230.88Z" fill="#668466"/>
<path d="M193.75 223.83H186.77V230.89H193.75V223.83Z" fill="#668466"/>
<path d="M193.75 216.85H186.77V223.83H193.75V216.85Z" fill="#668466"/>
<path d="M193.75 209.79H186.77V216.85H193.75V209.79Z" fill="#668466"/>
<path d="M193.75 202.81H186.77V209.79H193.75V202.81Z" fill="#668466"/>
<path d="M193.75 195.75H186.77V202.81H193.75V195.75Z" fill="#668466"/>
<path d="M193.75 188.77H186.77V195.75H193.75V188.77Z" fill="#668466"/>
<path d="M193.75 181.71H186.77V188.77H193.75V181.71Z" fill="#73C6C6"/>
<path d="M193.75 174.66H186.77V181.72H193.75V174.66Z" fill="#9FF5F7"/>
<path d="M193.75 167.68H186.77V174.66H193.75V167.68Z" fill="#73C6C6"/>
<path d="M193.75 160.62H186.77V167.68H193.75V160.62Z" fill="#73C6C6"/>
<path d="M193.75 153.64H186.77V160.62H193.75V153.64Z" fill="#FFD8AE"/>
<path d="M193.75 146.58H186.77V153.64H193.75V146.58Z" fill="#FFD8AE"/>
<path d="M193.75 139.6H186.77V146.58H193.75V139.6Z" fill="#FFD8AE"/>
<path d="M193.75 132.54H186.77V139.6H193.75V132.54Z" fill="#AFAFAF"/>
<path d="M193.75 125.489H186.77V132.549H193.75V125.489Z" fill="#AFAFAF"/>
<path d="M193.75 118.51H186.77V125.49H193.75V118.51Z" fill="#AFAFAF"/>
<path d="M193.75 111.449H186.77V118.509H193.75V111.449Z" fill="#AFAFAF"/>
<path d="M193.75 104.47H186.77V111.45H193.75V104.47Z" fill="#AFAFAF"/>
<path d="M193.75 97.4102H186.77V104.47H193.75V97.4102Z" fill="#AFAFAF"/>
<path d="M193.75 90.4297H186.77V97.4097H193.75V90.4297Z" fill="black"/>
<path d="M186.78 315.189H179.72V322.169H186.78V315.189Z" fill="black"/>
<path d="M186.78 308.13H179.72V315.19H186.78V308.13Z" fill="#724107"/>
<path d="M186.78 301.149H179.72V308.129H186.78V301.149Z" fill="#724107"/>
<path d="M186.78 294.09H179.72V301.15H186.78V294.09Z" fill="black"/>
<path d="M186.78 287.04H179.72V294.09H186.78V287.04Z" fill="black"/>
<path d="M186.78 280.05H179.72V287.04H186.78V280.05Z" fill="black"/>
<path d="M186.78 273.01H179.72V280.06H186.78V273.01Z" fill="#4C3A1F"/>
<path d="M186.78 266.02H179.72V273H186.78V266.02Z" fill="#4C3A1F"/>
<path d="M186.78 258.96H179.72V266.02H186.78V258.96Z" fill="#4C3A1F"/>
<path d="M186.78 251.979H179.72V258.959H186.78V251.979Z" fill="#4C3A1F"/>
<path d="M186.78 244.92H179.72V251.98H186.78V244.92Z" fill="#4C3A1F"/>
<path d="M186.78 237.87H179.72V244.92H186.78V237.87Z" fill="#8ABC8A"/>
<path d="M186.78 230.88H179.72V237.86H186.78V230.88Z" fill="#9DCF9D"/>
<path d="M186.78 223.83H179.72V230.89H186.78V223.83Z" fill="#9DCF9D"/>
<path d="M186.78 216.85H179.72V223.83H186.78V216.85Z" fill="#9DCF9D"/>
<path d="M186.78 209.79H179.72V216.85H186.78V209.79Z" fill="#9DCF9D"/>
<path d="M186.78 202.81H179.72V209.79H186.78V202.81Z" fill="#9DCF9D"/>
<path d="M186.78 195.75H179.72V202.81H186.78V195.75Z" fill="#9DCF9D"/>
<path d="M186.78 188.77H179.72V195.75H186.78V188.77Z" fill="#73C6C6"/>
<path d="M186.78 181.71H179.72V188.77H186.78V181.71Z" fill="#9FF5F7"/>
<path d="M186.78 174.66H179.72V181.72H186.78V174.66Z" fill="#9FF5F7"/>
<path d="M186.78 167.68H179.72V174.66H186.78V167.68Z" fill="#73C6C6"/>
<path d="M186.78 160.62H179.72V167.68H186.78V160.62Z" fill="#73C6C6"/>
<path d="M186.78 153.64H179.72V160.62H186.78V153.64Z" fill="#969696"/>
<path d="M186.78 146.58H179.72V153.64H186.78V146.58Z" fill="#FFD8AE"/>
<path d="M186.78 139.6H179.72V146.58H186.78V139.6Z" fill="#AFAFAF"/>
<path d="M186.78 132.54H179.72V139.6H186.78V132.54Z" fill="#AFAFAF"/>
<path d="M186.78 125.489H179.72V132.549H186.78V125.489Z" fill="#AFAFAF"/>
<path d="M186.78 118.51H179.72V125.49H186.78V118.51Z" fill="#AFAFAF"/>
<path d="M186.78 111.449H179.72V118.509H186.78V111.449Z" fill="#AFAFAF"/>
<path d="M186.78 104.47H179.72V111.45H186.78V104.47Z" fill="#AFAFAF"/>
<path d="M186.78 97.4102H179.72V104.47H186.78V97.4102Z" fill="black"/>
<path d="M179.71 315.189H172.73V322.169H179.71V315.189Z" fill="black"/>
<path d="M179.71 308.13H172.73V315.19H179.71V308.13Z" fill="#724107"/>
<path d="M179.71 301.149H172.73V308.129H179.71V301.149Z" fill="black"/>
<path d="M179.71 273.01H172.73V280.06H179.71V273.01Z" fill="black"/>
<path d="M179.71 266.02H172.73V273H179.71V266.02Z" fill="black"/>
<path d="M179.71 258.96H172.73V266.02H179.71V258.96Z" fill="black"/>
<path d="M179.71 251.979H172.73V258.959H179.71V251.979Z" fill="black"/>
<path d="M179.71 244.92H172.73V251.98H179.71V244.92Z" fill="black"/>
<path d="M179.71 237.87H172.73V244.92H179.71V237.87Z" fill="black"/>
<path d="M179.71 230.88H172.73V237.86H179.71V230.88Z" fill="#9DCF9D"/>
<path d="M179.71 223.83H172.73V230.89H179.71V223.83Z" fill="#9DCF9D"/>
<path d="M179.71 216.85H172.73V223.83H179.71V216.85Z" fill="#9DCF9D"/>
<path d="M179.71 209.79H172.73V216.85H179.71V209.79Z" fill="#9DCF9D"/>
<path d="M179.71 202.81H172.73V209.79H179.71V202.81Z" fill="#9DCF9D"/>
<path d="M179.71 195.75H172.73V202.81H179.71V195.75Z" fill="#9DCF9D"/>
<path d="M179.71 188.77H172.73V195.75H179.71V188.77Z" fill="#73C6C6"/>
<path d="M179.71 181.71H172.73V188.77H179.71V181.71Z" fill="#73C6C6"/>
<path d="M179.71 174.66H172.73V181.72H179.71V174.66Z" fill="#73C6C6"/>
<path d="M179.71 167.68H172.73V174.66H179.71V167.68Z" fill="black"/>
<path d="M179.71 160.62H172.73V167.68H179.71V160.62Z" fill="#969696"/>
<path d="M179.71 153.64H172.73V160.62H179.71V153.64Z" fill="#969696"/>
<path d="M179.71 146.58H172.73V153.64H179.71V146.58Z" fill="#969696"/>
<path d="M179.71 139.6H172.73V146.58H179.71V139.6Z" fill="#969696"/>
<path d="M179.71 132.54H172.73V139.6H179.71V132.54Z" fill="black"/>
<path d="M179.71 125.489H172.73V132.549H179.71V125.489Z" fill="#AFAFAF"/>
<path d="M179.71 118.51H172.73V125.49H179.71V118.51Z" fill="#AFAFAF"/>
<path d="M179.71 111.449H172.73V118.509H179.71V111.449Z" fill="#AFAFAF"/>
<path d="M179.71 104.47H172.73V111.45H179.71V104.47Z" fill="#969696"/>
<path d="M179.71 97.4102H172.73V104.47H179.71V97.4102Z" fill="black"/>
<path d="M172.74 315.189H165.68V322.169H172.74V315.189Z" fill="black"/>
<path d="M172.74 308.13H165.68V315.19H172.74V308.13Z" fill="black"/>
<path d="M172.74 230.88H165.68V237.86H172.74V230.88Z" fill="black"/>
<path d="M172.74 223.83H165.68V230.89H172.74V223.83Z" fill="#9DCF9D"/>
<path d="M172.74 216.85H165.68V223.83H172.74V216.85Z" fill="#668466"/>
<path d="M172.74 209.79H165.68V216.85H172.74V209.79Z" fill="#4F704F"/>
<path d="M172.74 202.81H165.68V209.79H172.74V202.81Z" fill="#4F704F"/>
<path d="M172.74 195.75H165.68V202.81H172.74V195.75Z" fill="black"/>
<path d="M172.74 188.77H165.68V195.75H172.74V188.77Z" fill="black"/>
<path d="M172.74 181.71H165.68V188.77H172.74V181.71Z" fill="black"/>
<path d="M172.74 174.66H165.68V181.72H172.74V174.66Z" fill="black"/>
<path d="M172.74 160.62H165.68V167.68H172.74V160.62Z" fill="black"/>
<path d="M172.74 153.64H165.68V160.62H172.74V153.64Z" fill="#969696"/>
<path d="M172.74 146.58H165.68V153.64H172.74V146.58Z" fill="black"/>
<path d="M172.74 139.6H165.68V146.58H172.74V139.6Z" fill="black"/>
<path d="M172.74 118.51H165.68V125.49H172.74V118.51Z" fill="black"/>
<path d="M172.74 111.449H165.68V118.509H172.74V111.449Z" fill="#969696"/>
<path d="M172.74 104.47H165.68V111.45H172.74V104.47Z" fill="black"/>
<path d="M165.68 230.88H158.62V237.86H165.68V230.88Z" fill="black"/>
<path d="M165.68 223.83H158.62V230.89H165.68V223.83Z" fill="#668466"/>
<path d="M165.68 216.85H158.62V223.83H165.68V216.85Z" fill="#668466"/>
<path d="M165.68 209.79H158.62V216.85H165.68V209.79Z" fill="#668466"/>
<path d="M165.68 202.81H158.62V209.79H165.68V202.81Z" fill="#4F704F"/>
<path d="M165.68 195.75H158.62V202.81H165.68V195.75Z" fill="black"/>
<path d="M165.68 160.62H158.62V167.68H165.68V160.62Z" fill="black"/>
<path d="M165.68 153.64H158.62V160.62H165.68V153.64Z" fill="black"/>
<path d="M165.68 146.58H158.62V153.64H165.68V146.58Z" fill="black"/>
<path d="M165.68 125.489H158.62V132.549H165.68V125.489Z" fill="black"/>
<path d="M165.68 118.51H158.62V125.49H165.68V118.51Z" fill="#969696"/>
<path d="M165.68 111.449H158.62V118.509H165.68V111.449Z" fill="black"/>
<path d="M158.62 237.87H151.64V244.92H158.62V237.87Z" fill="black"/>
<path d="M158.62 230.88H151.64V237.86H158.62V230.88Z" fill="#4F704F"/>
<path d="M158.62 223.83H151.64V230.89H158.62V223.83Z" fill="#668466"/>
<path d="M158.62 216.85H151.64V223.83H158.62V216.85Z" fill="#4F704F"/>
<path d="M158.62 209.79H151.64V216.85H158.62V209.79Z" fill="#668466"/>
<path d="M158.62 202.81H151.64V209.79H158.62V202.81Z" fill="#668466"/>
<path d="M158.62 195.75H151.64V202.81H158.62V195.75Z" fill="black"/>
<path d="M158.62 188.77H151.64V195.75H158.62V188.77Z" fill="black"/>
<path d="M158.62 118.51H151.64V125.49H158.62V118.51Z" fill="black"/>
<path d="M151.64 237.87H144.58V244.92H151.64V237.87Z" fill="black"/>
<path d="M151.64 230.88H144.58V237.86H151.64V230.88Z" fill="#4F704F"/>
<path d="M151.64 223.83H144.58V230.89H151.64V223.83Z" fill="#4F704F"/>
<path d="M151.64 216.85H144.58V223.83H151.64V216.85Z" fill="#668466"/>
<path d="M151.64 209.79H144.58V216.85H151.64V209.79Z" fill="#668466"/>
<path d="M151.64 202.81H144.58V209.79H151.64V202.81Z" fill="black"/>
<path d="M144.58 237.87H137.6V244.92H144.58V237.87Z" fill="black"/>
<path d="M144.58 230.88H137.6V237.86H144.58V230.88Z" fill="#4F704F"/>
<path d="M144.58 223.83H137.6V230.89H144.58V223.83Z" fill="#FFD8AE"/>
<path d="M144.58 216.85H137.6V223.83H144.58V216.85Z" fill="#FFD8AE"/>
<path d="M144.58 209.79H137.6V216.85H144.58V209.79Z" fill="black"/>
<path d="M137.61 237.87H130.55V244.92H137.61V237.87Z" fill="black"/>
<path d="M137.61 230.88H130.55V237.86H137.61V230.88Z" fill="#4F704F"/>
<path d="M137.61 223.83H130.55V230.89H137.61V223.83Z" fill="#FFD8AE"/>
<path d="M137.61 216.85H130.55V223.83H137.61V216.85Z" fill="black"/>
<path d="M130.54 230.88H123.56V237.86H130.54V230.88Z" fill="black"/>
<path d="M130.54 223.83H123.56V230.89H130.54V223.83Z" fill="#FFD8AE"/>
<path d="M130.54 216.85H123.56V223.83H130.54V216.85Z" fill="black"/>
<path d="M123.57 230.88H116.51V237.86H123.57V230.88Z" fill="black"/>
<path d="M123.57 223.83H116.51V230.89H123.57V223.83Z" fill="#FFD8AE"/>
<path d="M123.57 216.85H116.51V223.83H123.57V216.85Z" fill="black"/>
<path d="M116.51 223.83H109.45V230.89H116.51V223.83Z" fill="black"/>
<path d="M116.51 216.85H109.45V223.83H116.51V216.85Z" fill="black"/>
<path d="M109.45 216.85H102.47V223.83H109.45V216.85Z" fill="black"/>
<path d="M102.47 216.85H95.4099V223.83H102.47V216.85Z" fill="black"/>
<path d="M95.4099 216.85H88.4299V223.83H95.4099V216.85Z" fill="black"/>
<path d="M248.83 190.21H245.3V193.74H248.83V190.21Z" fill="#594F4F"/>
<path d="M245.3 193.739H241.7V197.339H245.3V193.739Z" fill="#594F4F"/>
<path d="M245.3 190.21H241.7V193.74H245.3V190.21Z" fill="black"/>
<path d="M245.3 186.68H241.7V190.21H245.3V186.68Z" fill="#594F4F"/>
<path d="M241.7 197.34H238.17V200.87H241.7V197.34Z" fill="#594F4F"/>
<path d="M241.7 193.739H238.17V197.339H241.7V193.739Z" fill="black"/>
<path d="M241.7 190.21H238.17V193.74H241.7V190.21Z" fill="#594F4F"/>
<path d="M238.17 200.859H234.65V204.459H238.17V200.859Z" fill="#594F4F"/>
<path d="M238.17 197.34H234.65V200.87H238.17V197.34Z" fill="black"/>
<path d="M238.17 193.739H234.65V197.339H238.17V193.739Z" fill="#594F4F"/>
<path d="M234.65 200.859H231.05V204.459H234.65V200.859Z" fill="black"/>
<path d="M234.65 197.34H231.05V200.87H234.65V197.34Z" fill="#594F4F"/>
<path d="M231.05 204.46H227.52V207.99H231.05V204.46Z" fill="black"/>
<path d="M227.52 207.989H223.92V211.519H227.52V207.989Z" fill="black"/>
<path d="M220.39 218.649H216.86V222.179H220.39V218.649Z" fill="black"/>
<path d="M216.86 222.17H213.26V225.77H216.86V222.17Z" fill="black"/>
<path d="M159.92 186.68H156.39V190.21H159.92V186.68Z" fill="black"/>
<path d="M156.39 200.859H152.86V204.459H156.39V200.859Z" fill="black"/>
<path d="M156.39 186.68H152.86V190.21H156.39V186.68Z" fill="black"/>
<path d="M152.86 200.859H149.26V204.459H152.86V200.859Z" fill="black"/>
<path d="M152.86 197.34H149.26V200.87H152.86V197.34Z" fill="#DDCA6C"/>
<path d="M152.86 193.739H149.26V197.339H152.86V193.739Z" fill="#DDCA6C"/>
<path d="M152.86 190.21H149.26V193.74H152.86V190.21Z" fill="#DDCA6C"/>
<path d="M152.86 186.68H149.26V190.21H152.86V186.68Z" fill="black"/>
<path d="M149.27 207.989H145.74V211.519H149.27V207.989Z" fill="black"/>
<path d="M149.27 204.46H145.74V207.99H149.27V204.46Z" fill="#DDCA6C"/>
<path d="M149.27 200.859H145.74V204.459H149.27V200.859Z" fill="#DDCA6C"/>
<path d="M149.27 197.34H145.74V200.87H149.27V197.34Z" fill="#FCE76B"/>
<path d="M149.27 193.739H145.74V197.339H149.27V193.739Z" fill="#FCE76B"/>
<path d="M149.27 190.21H145.74V193.74H149.27V190.21Z" fill="#DDCA6C"/>
<path d="M149.27 186.68H145.74V190.21H149.27V186.68Z" fill="black"/>
<path d="M145.74 207.989H142.21V211.519H145.74V207.989Z" fill="black"/>
<path d="M145.74 204.46H142.21V207.99H145.74V204.46Z" fill="#DDCA6C"/>
<path d="M145.74 200.859H142.21V204.459H145.74V200.859Z" fill="#FCE76B"/>
<path d="M145.74 197.34H142.21V200.87H145.74V197.34Z" fill="#FCE76B"/>
<path d="M145.74 193.739H142.21V197.339H145.74V193.739Z" fill="#FCE76B"/>
<path d="M145.74 190.21H142.21V193.74H145.74V190.21Z" fill="#DDCA6C"/>
<path d="M145.74 186.68H142.21V190.21H145.74V186.68Z" fill="black"/>
<path d="M142.21 215.12H138.61V218.65H142.21V215.12Z" fill="black"/>
<path d="M142.21 211.52H138.61V215.12H142.21V211.52Z" fill="#DDCA6C"/>
<path d="M142.21 207.989H138.61V211.519H142.21V207.989Z" fill="#DDCA6C"/>
<path d="M142.21 204.46H138.61V207.99H142.21V204.46Z" fill="#FCE76B"/>
<path d="M142.21 200.859H138.61V204.459H142.21V200.859Z" fill="#FCE76B"/>
<path d="M142.21 197.34H138.61V200.87H142.21V197.34Z" fill="#FCE76B"/>
<path d="M142.21 193.739H138.61V197.339H142.21V193.739Z" fill="#FCE76B"/>
<path d="M142.21 190.21H138.61V193.74H142.21V190.21Z" fill="#DDCA6C"/>
<path d="M142.21 186.68H138.61V190.21H142.21V186.68Z" fill="black"/>
<path d="M138.61 215.12H135.08V218.65H138.61V215.12Z" fill="black"/>
<path d="M138.61 211.52H135.08V215.12H138.61V211.52Z" fill="#DDCA6C"/>
<path d="M138.61 207.989H135.08V211.519H138.61V207.989Z" fill="#FCE76B"/>
<path d="M138.61 204.46H135.08V207.99H138.61V204.46Z" fill="#FCE76B"/>
<path d="M138.61 200.859H135.08V204.459H138.61V200.859Z" fill="#FCE76B"/>
<path d="M138.61 197.34H135.08V200.87H138.61V197.34Z" fill="#FCE76B"/>
<path d="M138.61 193.739H135.08V197.339H138.61V193.739Z" fill="#FCE76B"/>
<path d="M138.61 190.21H135.08V193.74H138.61V190.21Z" fill="#DDCA6C"/>
<path d="M138.61 186.68H135.08V190.21H138.61V186.68Z" fill="black"/>
<path d="M135.08 215.12H131.48V218.65H135.08V215.12Z" fill="#DDCA6C"/>
<path d="M135.08 211.52H131.48V215.12H135.08V211.52Z" fill="#FCE76B"/>
<path d="M135.08 207.989H131.48V211.519H135.08V207.989Z" fill="#FCE76B"/>
<path d="M135.08 204.46H131.48V207.99H135.08V204.46Z" fill="#E80F42"/>
<path d="M135.08 200.859H131.48V204.459H135.08V200.859Z" fill="#FCE76B"/>
<path d="M135.08 197.34H131.48V200.87H135.08V197.34Z" fill="#FCE76B"/>
<path d="M135.08 193.739H131.48V197.339H135.08V193.739Z" fill="#FCE76B"/>
<path d="M135.08 190.21H131.48V193.74H135.08V190.21Z" fill="#DDCA6C"/>
<path d="M135.08 186.68H131.48V190.21H135.08V186.68Z" fill="black"/>
<path d="M131.48 215.12H127.95V218.65H131.48V215.12Z" fill="#DDCA6C"/>
<path d="M131.48 211.52H127.95V215.12H131.48V211.52Z" fill="#FCE76B"/>
<path d="M131.48 207.989H127.95V211.519H131.48V207.989Z" fill="#E80F42"/>
<path d="M131.48 204.46H127.95V207.99H131.48V204.46Z" fill="#E80F42"/>
<path d="M131.48 200.859H127.95V204.459H131.48V200.859Z" fill="#E80F42"/>
<path d="M131.48 197.34H127.95V200.87H131.48V197.34Z" fill="#FCE76B"/>
<path d="M131.48 193.739H127.95V197.339H131.48V193.739Z" fill="#FCE76B"/>
<path d="M131.48 190.21H127.95V193.74H131.48V190.21Z" fill="#DDCA6C"/>
<path d="M131.48 186.68H127.95V190.21H131.48V186.68Z" fill="black"/>
<path d="M127.96 215.12H124.43V218.65H127.96V215.12Z" fill="#DDCA6C"/>
<path d="M127.96 211.52H124.43V215.12H127.96V211.52Z" fill="#FCE76B"/>
<path d="M127.96 207.989H124.43V211.519H127.96V207.989Z" fill="#E80F42"/>
<path d="M127.96 204.46H124.43V207.99H127.96V204.46Z" fill="#E80F42"/>
<path d="M127.96 200.859H124.43V204.459H127.96V200.859Z" fill="#E80F42"/>
<path d="M127.96 197.34H124.43V200.87H127.96V197.34Z" fill="#FCE76B"/>
<path d="M127.96 193.739H124.43V197.339H127.96V193.739Z" fill="#FCE76B"/>
<path d="M127.96 190.21H124.43V193.74H127.96V190.21Z" fill="#DDCA6C"/>
<path d="M127.96 186.68H124.43V190.21H127.96V186.68Z" fill="black"/>
<path d="M124.43 215.12H120.83V218.65H124.43V215.12Z" fill="#DDCA6C"/>
<path d="M124.43 211.52H120.83V215.12H124.43V211.52Z" fill="#FCE76B"/>
<path d="M124.43 207.989H120.83V211.519H124.43V207.989Z" fill="#E80F42"/>
<path d="M124.43 204.46H120.83V207.99H124.43V204.46Z" fill="#FCE76B"/>
<path d="M124.43 200.859H120.83V204.459H124.43V200.859Z" fill="#E80F42"/>
<path d="M124.43 197.34H120.83V200.87H124.43V197.34Z" fill="#FCE76B"/>
<path d="M124.43 193.739H120.83V197.339H124.43V193.739Z" fill="#FCE76B"/>
<path d="M124.43 190.21H120.83V193.74H124.43V190.21Z" fill="#DDCA6C"/>
<path d="M124.43 186.68H120.83V190.21H124.43V186.68Z" fill="black"/>
<path d="M120.83 215.12H117.3V218.65H120.83V215.12Z" fill="#DDCA6C"/>
<path d="M120.83 211.52H117.3V215.12H120.83V211.52Z" fill="#E80F42"/>
<path d="M120.83 207.989H117.3V211.519H120.83V207.989Z" fill="#FCE76B"/>
<path d="M120.83 204.46H117.3V207.99H120.83V204.46Z" fill="#FCE76B"/>
<path d="M120.83 200.859H117.3V204.459H120.83V200.859Z" fill="#FCE76B"/>
<path d="M120.83 197.34H117.3V200.87H120.83V197.34Z" fill="#E80F42"/>
<path d="M120.83 193.739H117.3V197.339H120.83V193.739Z" fill="#FCE76B"/>
<path d="M120.83 190.21H117.3V193.74H120.83V190.21Z" fill="#DDCA6C"/>
<path d="M120.83 186.68H117.3V190.21H120.83V186.68Z" fill="black"/>
<path d="M117.3 215.12H113.77V218.65H117.3V215.12Z" fill="#DDCA6C"/>
<path d="M117.3 211.52H113.77V215.12H117.3V211.52Z" fill="#E80F42"/>
<path d="M117.3 207.989H113.77V211.519H117.3V207.989Z" fill="#FCE76B"/>
<path d="M117.3 204.46H113.77V207.99H117.3V204.46Z" fill="#FCE76B"/>
<path d="M117.3 200.859H113.77V204.459H117.3V200.859Z" fill="#FCE76B"/>
<path d="M117.3 197.34H113.77V200.87H117.3V197.34Z" fill="#E80F42"/>
<path d="M117.3 193.739H113.77V197.339H117.3V193.739Z" fill="#FCE76B"/>
<path d="M117.3 190.21H113.77V193.74H117.3V190.21Z" fill="#DDCA6C"/>
<path d="M117.3 186.68H113.77V190.21H117.3V186.68Z" fill="black"/>
<path d="M113.77 215.12H110.17V218.65H113.77V215.12Z" fill="#DDCA6C"/>
<path d="M113.77 211.52H110.17V215.12H113.77V211.52Z" fill="#FCE76B"/>
<path d="M113.77 207.989H110.17V211.519H113.77V207.989Z" fill="#FCE76B"/>
<path d="M113.77 204.46H110.17V207.99H113.77V204.46Z" fill="#FCE76B"/>
<path d="M113.77 200.859H110.17V204.459H113.77V200.859Z" fill="#FCE76B"/>
<path d="M113.77 197.34H110.17V200.87H113.77V197.34Z" fill="#FCE76B"/>
<path d="M113.77 193.739H110.17V197.339H113.77V193.739Z" fill="#DDCA6C"/>
<path d="M113.77 190.21H110.17V193.74H113.77V190.21Z" fill="#DDCA6C"/>
<path d="M113.77 186.68H110.17V190.21H113.77V186.68Z" fill="black"/>
<path d="M110.18 215.12H106.65V218.65H110.18V215.12Z" fill="#DDCA6C"/>
<path d="M110.18 211.52H106.65V215.12H110.18V211.52Z" fill="#FCE76B"/>
<path d="M110.18 207.989H106.65V211.519H110.18V207.989Z" fill="#FCE76B"/>
<path d="M110.18 204.46H106.65V207.99H110.18V204.46Z" fill="#FCE76B"/>
<path d="M110.18 200.859H106.65V204.459H110.18V200.859Z" fill="#FCE76B"/>
<path d="M110.18 197.34H106.65V200.87H110.18V197.34Z" fill="#DDCA6C"/>
<path d="M110.18 193.739H106.65V197.339H110.18V193.739Z" fill="black"/>
<path d="M110.18 190.21H106.65V193.74H110.18V190.21Z" fill="black"/>
<path d="M106.65 215.12H103.05V218.65H106.65V215.12Z" fill="#DDCA6C"/>
<path d="M106.65 211.52H103.05V215.12H106.65V211.52Z" fill="#FCE76B"/>
<path d="M106.65 207.989H103.05V211.519H106.65V207.989Z" fill="#FCE76B"/>
<path d="M106.65 204.46H103.05V207.99H106.65V204.46Z" fill="#DDCA6C"/>
<path d="M106.65 200.859H103.05V204.459H106.65V200.859Z" fill="#DDCA6C"/>
<path d="M106.65 197.34H103.05V200.87H106.65V197.34Z" fill="black"/>
<path d="M106.65 193.739H103.05V197.339H106.65V193.739Z" fill="black"/>
<path d="M103.05 215.12H99.52V218.65H103.05V215.12Z" fill="#DDCA6C"/>
<path d="M103.05 211.52H99.52V215.12H103.05V211.52Z" fill="#FCE76B"/>
<path d="M103.05 207.989H99.52V211.519H103.05V207.989Z" fill="#DDCA6C"/>
<path d="M103.05 204.46H99.52V207.99H103.05V204.46Z" fill="black"/>
<path d="M103.05 200.859H99.52V204.459H103.05V200.859Z" fill="black"/>
<path d="M103.05 197.34H99.52V200.87H103.05V197.34Z" fill="#DDCA6C"/>
<path d="M103.05 193.739H99.52V197.339H103.05V193.739Z" fill="#DDCA6C"/>
<path d="M103.05 190.21H99.52V193.74H103.05V190.21Z" fill="black"/>
<path d="M99.52 215.12H95.99V218.65H99.52V215.12Z" fill="#DDCA6C"/>
<path d="M99.52 211.52H95.99V215.12H99.52V211.52Z" fill="#DDCA6C"/>
<path d="M99.52 207.989H95.99V211.519H99.52V207.989Z" fill="black"/>
<path d="M99.52 204.46H95.99V207.99H99.52V204.46Z" fill="#DDCA6C"/>
<path d="M99.52 200.859H95.99V204.459H99.52V200.859Z" fill="#DDCA6C"/>
<path d="M99.52 197.34H95.99V200.87H99.52V197.34Z" fill="#DDCA6C"/>
<path d="M99.52 193.739H95.99V197.339H99.52V193.739Z" fill="#DDCA6C"/>
<path d="M99.52 190.21H95.99V193.74H99.52V190.21Z" fill="black"/>
<path d="M95.9899 215.12H92.3899V218.65H95.9899V215.12Z" fill="#DDCA6C"/>
<path d="M95.9899 211.52H92.3899V215.12H95.9899V211.52Z" fill="black"/>
<path d="M95.9899 207.989H92.3899V211.519H95.9899V207.989Z" fill="#DDCA6C"/>
<path d="M95.9899 204.46H92.3899V207.99H95.9899V204.46Z" fill="#DDCA6C"/>
<path d="M95.9899 200.859H92.3899V204.459H95.9899V200.859Z" fill="#DDCA6C"/>
<path d="M95.9899 197.34H92.3899V200.87H95.9899V197.34Z" fill="#DDCA6C"/>
<path d="M95.9899 193.739H92.3899V197.339H95.9899V193.739Z" fill="#DDCA6C"/>
<path d="M95.9899 190.21H92.3899V193.74H95.9899V190.21Z" fill="#DDCA6C"/>
<path d="M95.9899 186.68H92.3899V190.21H95.9899V186.68Z" fill="black"/>
<path d="M92.3901 215.12H88.8601V218.65H92.3901V215.12Z" fill="black"/>
<path d="M92.3901 211.52H88.8601V215.12H92.3901V211.52Z" fill="#DDCA6C"/>
<path d="M92.3901 207.989H88.8601V211.519H92.3901V207.989Z" fill="#DDCA6C"/>
<path d="M92.3901 204.46H88.8601V207.99H92.3901V204.46Z" fill="#DDCA6C"/>
<path d="M92.3901 200.859H88.8601V204.459H92.3901V200.859Z" fill="#DDCA6C"/>
<path d="M92.3901 197.34H88.8601V200.87H92.3901V197.34Z" fill="#DDCA6C"/>
<path d="M92.3901 193.739H88.8601V197.339H92.3901V193.739Z" fill="#DDCA6C"/>
<path d="M92.3901 190.21H88.8601V193.74H92.3901V190.21Z" fill="#DDCA6C"/>
<path d="M92.3901 186.68H88.8601V190.21H92.3901V186.68Z" fill="black"/>
<path d="M88.86 218.649H85.26V222.179H88.86V218.649Z" fill="black"/>
<path d="M88.86 215.12H85.26V218.65H88.86V215.12Z" fill="black"/>
<path d="M88.86 211.52H85.26V215.12H88.86V211.52Z" fill="black"/>
<path d="M88.86 207.989H85.26V211.519H88.86V207.989Z" fill="black"/>
<path d="M88.86 204.46H85.26V207.99H88.86V204.46Z" fill="black"/>
<path d="M88.86 200.859H85.26V204.459H88.86V200.859Z" fill="black"/>
<path d="M88.86 197.34H85.26V200.87H88.86V197.34Z" fill="black"/>
<path d="M88.86 193.739H85.26V197.339H88.86V193.739Z" fill="black"/>
<path d="M88.86 190.21H85.26V193.74H88.86V190.21Z" fill="black"/>
<path d="M88.86 186.68H85.26V190.21H88.86V186.68Z" fill="black"/>
</svg>
