<svg width="400" height="400" viewBox="0 0 400 400" fill="none" xmlns="http://www.w3.org/2000/svg">
<path d="M385.78 200C385.78 302.6 302.6 385.78 200 385.78C97.4 385.78 14.22 302.6 14.22 200C14.22 97.3997 97.39 14.2197 200 14.2197C302.61 14.2197 385.78 97.3997 385.78 200Z" fill="black"/>
<path d="M200 392.78C93.7 392.78 7.21997 306.3 7.21997 200C7.21997 93.6997 93.7 7.21973 200 7.21973C306.3 7.21973 392.78 93.6997 392.78 200C392.78 306.3 306.3 392.78 200 392.78ZM200 21.2197C101.42 21.2197 21.22 101.42 21.22 200C21.22 298.58 101.42 378.78 200 378.78C298.58 378.78 378.78 298.58 378.78 200C378.78 101.42 298.58 21.2197 200 21.2197Z" fill="#79B6EE"/>
<path d="M328.11 159.05H321.43V165.79H328.11V159.05Z" fill="black"/>
<path d="M328.11 152.38H321.43V159.06H328.11V152.38Z" fill="black"/>
<path d="M328.11 145.63H321.43V152.37H328.11V145.63Z" fill="black"/>
<path d="M321.42 165.8H314.68V172.48H321.42V165.8Z" fill="black"/>
<path d="M321.42 159.05H314.68V165.79H321.42V159.05Z" fill="#5B271D"/>
<path d="M321.42 152.38H314.68V159.06H321.42V152.38Z" fill="#5B271D"/>
<path d="M321.42 145.63H314.68V152.37H321.42V145.63Z" fill="#5B271D"/>
<path d="M321.42 138.97H314.68V145.65H321.42V138.97Z" fill="black"/>
<path d="M314.7 165.8H308.02V172.48H314.7V165.8Z" fill="black"/>
<path d="M314.7 159.05H308.02V165.79H314.7V159.05Z" fill="#5B271D"/>
<path d="M314.7 152.38H308.02V159.06H314.7V152.38Z" fill="#5B271D"/>
<path d="M314.7 145.63H308.02V152.37H314.7V145.63Z" fill="black"/>
<path d="M308.01 246.36H301.27V253.04H308.01V246.36Z" fill="#B50012"/>
<path d="M308.01 172.46H301.27V179.2H308.01V172.46Z" fill="black"/>
<path d="M308.01 165.8H301.27V172.48H308.01V165.8Z" fill="black"/>
<path d="M308.01 159.05H301.27V165.79H308.01V159.05Z" fill="#5B271D"/>
<path d="M308.01 152.38H301.27V159.06H308.01V152.38Z" fill="black"/>
<path d="M301.28 253.03H294.6V259.77H301.28V253.03Z" fill="#B50012"/>
<path d="M301.28 246.36H294.6V253.04H301.28V246.36Z" fill="#B50012"/>
<path d="M301.28 172.46H294.6V179.2H301.28V172.46Z" fill="black"/>
<path d="M301.28 165.8H294.6V172.48H301.28V165.8Z" fill="#5B271D"/>
<path d="M301.28 159.05H294.6V165.79H301.28V159.05Z" fill="#5B271D"/>
<path d="M301.28 152.38H294.6V159.06H301.28V152.38Z" fill="black"/>
<path d="M301.28 125.48H294.6V132.22H301.28V125.48Z" fill="black"/>
<path d="M301.28 118.8H294.6V125.48H301.28V118.8Z" fill="black"/>
<path d="M301.28 112.07H294.6V118.81H301.28V112.07Z" fill="black"/>
<path d="M294.59 306.76H287.85V313.44H294.59V306.76Z" fill="#B50012"/>
<path d="M294.59 279.86H287.85V286.6H294.59V279.86Z" fill="#B50012"/>
<path d="M294.59 259.78H287.85V266.46H294.59V259.78Z" fill="#B50012"/>
<path d="M294.59 253.03H287.85V259.77H294.59V253.03Z" fill="#727B9B"/>
<path d="M294.59 246.36H287.85V253.04H294.59V246.36Z" fill="#B50012"/>
<path d="M294.59 179.21H287.85V185.95H294.59V179.21Z" fill="black"/>
<path d="M294.59 172.46H287.85V179.2H294.59V172.46Z" fill="black"/>
<path d="M294.59 165.8H287.85V172.48H294.59V165.8Z" fill="#5B271D"/>
<path d="M294.59 159.05H287.85V165.79H294.59V159.05Z" fill="black"/>
<path d="M294.59 138.97H287.85V145.65H294.59V138.97Z" fill="black"/>
<path d="M294.59 132.22H287.85V138.96H294.59V132.22Z" fill="black"/>
<path d="M294.59 125.48H287.85V132.22H294.59V125.48Z" fill="black"/>
<path d="M294.59 118.8H287.85V125.48H294.59V118.8Z" fill="#5B271D"/>
<path d="M294.59 112.07H287.85V118.81H294.59V112.07Z" fill="black"/>
<path d="M287.87 306.76H281.19V313.44H287.87V306.76Z" fill="#B50012"/>
<path d="M287.87 293.35H281.19V300.03H287.87V293.35Z" fill="#B50012"/>
<path d="M287.87 273.19H281.19V279.87H287.87V273.19Z" fill="#B50012"/>
<path d="M287.87 266.44H281.19V273.18H287.87V266.44Z" fill="#B50012"/>
<path d="M287.87 259.78H281.19V266.46H287.87V259.78Z" fill="#727B9B"/>
<path d="M287.87 253.03H281.19V259.77H287.87V253.03Z" fill="#727B9B"/>
<path d="M287.87 246.36H281.19V253.04H287.87V246.36Z" fill="#B50012"/>
<path d="M287.87 179.21H281.19V185.95H287.87V179.21Z" fill="black"/>
<path d="M287.87 172.46H281.19V179.2H287.87V172.46Z" fill="#5B271D"/>
<path d="M287.87 165.8H281.19V172.48H287.87V165.8Z" fill="#5B271D"/>
<path d="M287.87 159.05H281.19V165.79H287.87V159.05Z" fill="black"/>
<path d="M287.87 152.38H281.19V159.06H287.87V152.38Z" fill="black"/>
<path d="M287.87 145.63H281.19V152.37H287.87V145.63Z" fill="black"/>
<path d="M287.87 138.97H281.19V145.65H287.87V138.97Z" fill="#5B271D"/>
<path d="M287.87 132.22H281.19V138.96H287.87V132.22Z" fill="#5B271D"/>
<path d="M287.87 125.48H281.19V132.22H287.87V125.48Z" fill="#5B271D"/>
<path d="M287.87 118.8H281.19V125.48H287.87V118.8Z" fill="black"/>
<path d="M287.87 112.07H281.19V118.81H287.87V112.07Z" fill="black"/>
<path d="M281.18 306.76H274.44V313.44H281.18V306.76Z" fill="#B50012"/>
<path d="M281.18 300.02H274.44V306.76H281.18V300.02Z" fill="#B50012"/>
<path d="M281.18 266.44H274.44V273.18H281.18V266.44Z" fill="#B50012"/>
<path d="M281.18 259.78H274.44V266.46H281.18V259.78Z" fill="#727B9B"/>
<path d="M281.18 253.03H274.44V259.77H281.18V253.03Z" fill="#727B9B"/>
<path d="M281.18 246.36H274.44V253.04H281.18V246.36Z" fill="#B50012"/>
<path d="M281.18 179.21H274.44V185.95H281.18V179.21Z" fill="black"/>
<path d="M281.18 172.46H274.44V179.2H281.18V172.46Z" fill="#5B271D"/>
<path d="M281.18 165.8H274.44V172.48H281.18V165.8Z" fill="black"/>
<path d="M281.18 152.38H274.44V159.06H281.18V152.38Z" fill="black"/>
<path d="M281.18 145.63H274.44V152.37H281.18V145.63Z" fill="#5B271D"/>
<path d="M281.18 138.97H274.44V145.65H281.18V138.97Z" fill="#5B271D"/>
<path d="M281.18 132.22H274.44V138.96H281.18V132.22Z" fill="#5B271D"/>
<path d="M281.18 125.48H274.44V132.22H281.18V125.48Z" fill="black"/>
<path d="M281.18 118.8H274.44V125.48H281.18V118.8Z" fill="black"/>
<path d="M274.44 306.76H267.7V313.44H274.44V306.76Z" fill="#B50012"/>
<path d="M274.44 266.44H267.7V273.18H274.44V266.44Z" fill="#B50012"/>
<path d="M274.44 259.78H267.7V266.46H274.44V259.78Z" fill="#727B9B"/>
<path d="M274.44 253.03H267.7V259.77H274.44V253.03Z" fill="#727B9B"/>
<path d="M274.44 246.36H267.7V253.04H274.44V246.36Z" fill="#B50012"/>
<path d="M274.44 185.95H267.7V192.63H274.44V185.95Z" fill="black"/>
<path d="M274.44 179.21H267.7V185.95H274.44V179.21Z" fill="#5B271D"/>
<path d="M274.44 172.46H267.7V179.2H274.44V172.46Z" fill="#5B271D"/>
<path d="M274.44 165.8H267.7V172.48H274.44V165.8Z" fill="black"/>
<path d="M274.44 159.05H267.7V165.79H274.44V159.05Z" fill="black"/>
<path d="M274.44 152.38H267.7V159.06H274.44V152.38Z" fill="black"/>
<path d="M274.44 145.63H267.7V152.37H274.44V145.63Z" fill="#5B271D"/>
<path d="M274.44 138.97H267.7V145.65H274.44V138.97Z" fill="#5B271D"/>
<path d="M274.44 132.22H267.7V138.96H274.44V132.22Z" fill="#5B271D"/>
<path d="M274.44 125.48H267.7V132.22H274.44V125.48Z" fill="black"/>
<path d="M267.7 266.44H261.02V273.18H267.7V266.44Z" fill="#B50012"/>
<path d="M267.7 259.78H261.02V266.46H267.7V259.78Z" fill="#B50012"/>
<path d="M267.7 253.03H261.02V259.77H267.7V253.03Z" fill="#727B9B"/>
<path d="M267.7 246.36H261.02V253.04H267.7V246.36Z" fill="#B50012"/>
<path d="M267.7 185.95H261.02V192.63H267.7V185.95Z" fill="black"/>
<path d="M267.7 179.21H261.02V185.95H267.7V179.21Z" fill="#5B271D"/>
<path d="M267.7 172.46H261.02V179.2H267.7V172.46Z" fill="black"/>
<path d="M267.7 165.8H261.02V172.48H267.7V165.8Z" fill="black"/>
<path d="M267.7 159.05H261.02V165.79H267.7V159.05Z" fill="black"/>
<path d="M267.7 152.38H261.02V159.06H267.7V152.38Z" fill="#5B271D"/>
<path d="M267.7 145.63H261.02V152.37H267.7V145.63Z" fill="#5B271D"/>
<path d="M267.7 138.97H261.02V145.65H267.7V138.97Z" fill="black"/>
<path d="M267.7 132.22H261.02V138.96H267.7V132.22Z" fill="black"/>
<path d="M267.7 125.48H261.02V132.22H267.7V125.48Z" fill="black"/>
<path d="M261.02 259.78H254.28V266.46H261.02V259.78Z" fill="#B50012"/>
<path d="M261.02 253.03H254.28V259.77H261.02V253.03Z" fill="#727B9B"/>
<path d="M261.02 246.36H254.28V253.04H261.02V246.36Z" fill="#727B9B"/>
<path d="M261.02 239.61H254.28V246.35H261.02V239.61Z" fill="#B50012"/>
<path d="M261.02 192.63H254.28V199.37H261.02V192.63Z" fill="black"/>
<path d="M261.02 185.95H254.28V192.63H261.02V185.95Z" fill="#5B271D"/>
<path d="M261.02 179.21H254.28V185.95H261.02V179.21Z" fill="#5B271D"/>
<path d="M261.02 172.46H254.28V179.2H261.02V172.46Z" fill="black"/>
<path d="M261.02 165.8H254.28V172.48H261.02V165.8Z" fill="#5B271D"/>
<path d="M261.02 159.05H254.28V165.79H261.02V159.05Z" fill="#5B271D"/>
<path d="M261.02 152.38H254.28V159.06H261.02V152.38Z" fill="#5B271D"/>
<path d="M261.02 145.63H254.28V152.37H261.02V145.63Z" fill="#5B271D"/>
<path d="M261.02 138.97H254.28V145.65H261.02V138.97Z" fill="black"/>
<path d="M254.29 253.03H247.61V259.77H254.29V253.03Z" fill="#B50012"/>
<path d="M254.29 246.36H247.61V253.04H254.29V246.36Z" fill="#727B9B"/>
<path d="M254.29 239.61H247.61V246.35H254.29V239.61Z" fill="#727B9B"/>
<path d="M254.29 232.87H247.61V239.61H254.29V232.87Z" fill="black"/>
<path d="M254.29 226.2H247.61V232.88H254.29V226.2Z" fill="black"/>
<path d="M254.29 219.46H247.61V226.2H254.29V219.46Z" fill="black"/>
<path d="M254.29 212.78H247.61V219.46H254.29V212.78Z" fill="black"/>
<path d="M254.29 206.04H247.61V212.78H254.29V206.04Z" fill="black"/>
<path d="M254.29 192.63H247.61V199.37H254.29V192.63Z" fill="black"/>
<path d="M254.29 185.95H247.61V192.63H254.29V185.95Z" fill="#5B271D"/>
<path d="M254.29 179.21H247.61V185.95H254.29V179.21Z" fill="#5B271D"/>
<path d="M254.29 172.46H247.61V179.2H254.29V172.46Z" fill="black"/>
<path d="M254.29 165.8H247.61V172.48H254.29V165.8Z" fill="#5B271D"/>
<path d="M254.29 159.05H247.61V165.79H254.29V159.05Z" fill="black"/>
<path d="M254.29 152.38H247.61V159.06H254.29V152.38Z" fill="black"/>
<path d="M254.29 145.63H247.61V152.37H254.29V145.63Z" fill="black"/>
<path d="M254.29 138.97H247.61V145.65H254.29V138.97Z" fill="black"/>
<path d="M247.61 246.36H240.87V253.04H247.61V246.36Z" fill="#B50012"/>
<path d="M247.61 239.61H240.87V246.35H247.61V239.61Z" fill="#727B9B"/>
<path d="M247.61 232.87H240.87V239.61H247.61V232.87Z" fill="black"/>
<path d="M247.61 226.2H240.87V232.88H247.61V226.2Z" fill="black"/>
<path d="M247.61 219.46H240.87V226.2H247.61V219.46Z" fill="#507993"/>
<path d="M247.61 212.78H240.87V219.46H247.61V212.78Z" fill="#507993"/>
<path d="M247.61 206.04H240.87V212.78H247.61V206.04Z" fill="black"/>
<path d="M247.61 199.37H240.87V206.05H247.61V199.37Z" fill="black"/>
<path d="M247.61 185.95H240.87V192.63H247.61V185.95Z" fill="black"/>
<path d="M247.61 179.21H240.87V185.95H247.61V179.21Z" fill="#5B271D"/>
<path d="M247.61 172.46H240.87V179.2H247.61V172.46Z" fill="black"/>
<path d="M247.61 165.8H240.87V172.48H247.61V165.8Z" fill="#5B271D"/>
<path d="M247.61 159.05H240.87V165.79H247.61V159.05Z" fill="black"/>
<path d="M240.87 239.61H234.19V246.35H240.87V239.61Z" fill="black"/>
<path d="M240.87 232.87H234.19V239.61H240.87V232.87Z" fill="black"/>
<path d="M240.87 226.2H234.19V232.88H240.87V226.2Z" fill="#E0AD86"/>
<path d="M240.87 219.46H234.19V226.2H240.87V219.46Z" fill="#79B6EE"/>
<path d="M240.87 212.78H234.19V219.46H240.87V212.78Z" fill="#507993"/>
<path d="M240.87 206.04H234.19V212.78H240.87V206.04Z" fill="#507993"/>
<path d="M240.87 199.37H234.19V206.05H240.87V199.37Z" fill="black"/>
<path d="M240.87 192.63H234.19V199.37H240.87V192.63Z" fill="black"/>
<path d="M240.87 179.21H234.19V185.95H240.87V179.21Z" fill="black"/>
<path d="M240.87 172.46H234.19V179.2H240.87V172.46Z" fill="black"/>
<path d="M240.87 165.8H234.19V172.48H240.87V165.8Z" fill="black"/>
<path d="M240.87 159.05H234.19V165.79H240.87V159.05Z" fill="black"/>
<path d="M240.87 152.38H234.19V159.06H240.87V152.38Z" fill="black"/>
<path d="M240.87 145.63H234.19V152.37H240.87V145.63Z" fill="black"/>
<path d="M240.87 138.97H234.19V145.65H240.87V138.97Z" fill="black"/>
<path d="M240.87 132.22H234.19V138.96H240.87V132.22Z" fill="black"/>
<path d="M240.87 125.48H234.19V132.22H240.87V125.48Z" fill="black"/>
<path d="M240.87 118.8H234.19V125.48H240.87V118.8Z" fill="black"/>
<path d="M240.87 112.07H234.19V118.81H240.87V112.07Z" fill="black"/>
<path d="M234.19 239.61H227.45V246.35H234.19V239.61Z" fill="black"/>
<path d="M234.19 232.87H227.45V239.61H234.19V232.87Z" fill="#E0AD86"/>
<path d="M234.19 226.2H227.45V232.88H234.19V226.2Z" fill="#E0AD86"/>
<path d="M234.19 219.46H227.45V226.2H234.19V219.46Z" fill="#E0AD86"/>
<path d="M234.19 212.78H227.45V219.46H234.19V212.78Z" fill="#679EC6"/>
<path d="M234.19 206.04H227.45V212.78H234.19V206.04Z" fill="#507993"/>
<path d="M234.19 199.37H227.45V206.05H234.19V199.37Z" fill="#507993"/>
<path d="M234.19 192.63H227.45V199.37H234.19V192.63Z" fill="black"/>
<path d="M234.19 185.95H227.45V192.63H234.19V185.95Z" fill="black"/>
<path d="M234.19 179.21H227.45V185.95H234.19V179.21Z" fill="black"/>
<path d="M234.19 172.46H227.45V179.2H234.19V172.46Z" fill="#60342E"/>
<path d="M234.19 165.8H227.45V172.48H234.19V165.8Z" fill="black"/>
<path d="M234.19 159.05H227.45V165.79H234.19V159.05Z" fill="black"/>
<path d="M234.19 152.38H227.45V159.06H234.19V152.38Z" fill="black"/>
<path d="M234.19 145.63H227.45V152.37H234.19V145.63Z" fill="black"/>
<path d="M234.19 138.97H227.45V145.65H234.19V138.97Z" fill="#507993"/>
<path d="M234.19 132.22H227.45V138.96H234.19V132.22Z" fill="#507993"/>
<path d="M234.19 125.48H227.45V132.22H234.19V125.48Z" fill="#507993"/>
<path d="M234.19 118.8H227.45V125.48H234.19V118.8Z" fill="black"/>
<path d="M234.19 112.07H227.45V118.81H234.19V112.07Z" fill="black"/>
<path d="M234.19 105.39H227.45V112.07H234.19V105.39Z" fill="black"/>
<path d="M227.44 306.76H220.7V313.44H227.44V306.76Z" fill="black"/>
<path d="M227.44 300.02H220.7V306.76H227.44V300.02Z" fill="black"/>
<path d="M227.44 293.35H220.7V300.03H227.44V293.35Z" fill="black"/>
<path d="M227.44 286.61H220.7V293.35H227.44V286.61Z" fill="black"/>
<path d="M227.44 279.86H220.7V286.6H227.44V279.86Z" fill="black"/>
<path d="M227.44 273.19H220.7V279.87H227.44V273.19Z" fill="black"/>
<path d="M227.44 266.44H220.7V273.18H227.44V266.44Z" fill="black"/>
<path d="M227.44 239.61H220.7V246.35H227.44V239.61Z" fill="black"/>
<path d="M227.44 232.87H220.7V239.61H227.44V232.87Z" fill="#E0AD86"/>
<path d="M227.44 226.2H220.7V232.88H227.44V226.2Z" fill="#E0AD86"/>
<path d="M227.44 219.46H220.7V226.2H227.44V219.46Z" fill="#E0AD86"/>
<path d="M227.44 212.78H220.7V219.46H227.44V212.78Z" fill="#679EC6"/>
<path d="M227.44 206.04H220.7V212.78H227.44V206.04Z" fill="#679EC6"/>
<path d="M227.44 199.37H220.7V206.05H227.44V199.37Z" fill="#507993"/>
<path d="M227.44 192.63H220.7V199.37H227.44V192.63Z" fill="#507993"/>
<path d="M227.44 185.95H220.7V192.63H227.44V185.95Z" fill="black"/>
<path d="M227.44 179.21H220.7V185.95H227.44V179.21Z" fill="#60342E"/>
<path d="M227.44 172.46H220.7V179.2H227.44V172.46Z" fill="#60342E"/>
<path d="M227.44 165.8H220.7V172.48H227.44V165.8Z" fill="#60342E"/>
<path d="M227.44 159.05H220.7V165.79H227.44V159.05Z" fill="black"/>
<path d="M227.44 152.38H220.7V159.06H227.44V152.38Z" fill="black"/>
<path d="M227.44 145.63H220.7V152.37H227.44V145.63Z" fill="#507993"/>
<path d="M227.44 138.97H220.7V145.65H227.44V138.97Z" fill="#679EC6"/>
<path d="M227.44 132.22H220.7V138.96H227.44V132.22Z" fill="#679EC6"/>
<path d="M227.44 125.48H220.7V132.22H227.44V125.48Z" fill="#679EC6"/>
<path d="M227.44 118.8H220.7V125.48H227.44V118.8Z" fill="#507993"/>
<path d="M227.44 112.07H220.7V118.81H227.44V112.07Z" fill="#507993"/>
<path d="M227.44 105.39H220.7V112.07H227.44V105.39Z" fill="black"/>
<path d="M227.44 98.6504H220.7V105.39H227.44V98.6504Z" fill="black"/>
<path d="M220.72 306.76H214.04V313.44H220.72V306.76Z" fill="black"/>
<path d="M220.72 300.02H214.04V306.76H220.72V300.02Z" fill="#60401E"/>
<path d="M220.72 293.35H214.04V300.03H220.72V293.35Z" fill="#60401E"/>
<path d="M220.72 286.61H214.04V293.35H220.72V286.61Z" fill="#60401E"/>
<path d="M220.72 279.86H214.04V286.6H220.72V279.86Z" fill="#1C323A"/>
<path d="M220.72 273.19H214.04V279.87H220.72V273.19Z" fill="#1C323A"/>
<path d="M220.72 266.44H214.04V273.18H220.72V266.44Z" fill="black"/>
<path d="M220.72 259.78H214.04V266.46H220.72V259.78Z" fill="black"/>
<path d="M220.72 253.03H214.04V259.77H220.72V253.03Z" fill="black"/>
<path d="M220.72 246.36H214.04V253.04H220.72V246.36Z" fill="black"/>
<path d="M220.72 239.61H214.04V246.35H220.72V239.61Z" fill="black"/>
<path d="M220.72 232.87H214.04V239.61H220.72V232.87Z" fill="black"/>
<path d="M220.72 226.2H214.04V232.88H220.72V226.2Z" fill="black"/>
<path d="M220.72 219.46H214.04V226.2H220.72V219.46Z" fill="black"/>
<path d="M220.72 212.78H214.04V219.46H220.72V212.78Z" fill="#679EC6"/>
<path d="M220.72 206.04H214.04V212.78H220.72V206.04Z" fill="#679EC6"/>
<path d="M220.72 199.37H214.04V206.05H220.72V199.37Z" fill="#679EC6"/>
<path d="M220.72 192.63H214.04V199.37H220.72V192.63Z" fill="#507993"/>
<path d="M220.72 185.95H214.04V192.63H220.72V185.95Z" fill="#507993"/>
<path d="M220.72 179.21H214.04V185.95H220.72V179.21Z" fill="black"/>
<path d="M220.72 172.46H214.04V179.2H220.72V172.46Z" fill="#60342E"/>
<path d="M220.72 165.8H214.04V172.48H220.72V165.8Z" fill="black"/>
<path d="M220.72 159.05H214.04V165.79H220.72V159.05Z" fill="#6D4541"/>
<path d="M220.72 152.38H214.04V159.06H220.72V152.38Z" fill="#6D4541"/>
<path d="M220.72 145.63H214.04V152.37H220.72V145.63Z" fill="#679EC6"/>
<path d="M220.72 138.97H214.04V145.65H220.72V138.97Z" fill="#679EC6"/>
<path d="M220.72 132.22H214.04V138.96H220.72V132.22Z" fill="#679EC6"/>
<path d="M220.72 125.48H214.04V132.22H220.72V125.48Z" fill="#679EC6"/>
<path d="M220.72 118.8H214.04V125.48H220.72V118.8Z" fill="#679EC6"/>
<path d="M220.72 112.07H214.04V118.81H220.72V112.07Z" fill="#507993"/>
<path d="M220.72 105.39H214.04V112.07H220.72V105.39Z" fill="#507993"/>
<path d="M220.72 98.6504H214.04V105.39H220.72V98.6504Z" fill="black"/>
<path d="M220.72 91.9697H214.04V98.6497H220.72V91.9697Z" fill="black"/>
<path d="M214.04 306.76H207.3V313.44H214.04V306.76Z" fill="black"/>
<path d="M214.04 300.02H207.3V306.76H214.04V300.02Z" fill="#60401E"/>
<path d="M214.04 293.35H207.3V300.03H214.04V293.35Z" fill="#60401E"/>
<path d="M214.04 286.61H207.3V293.35H214.04V286.61Z" fill="#354D59"/>
<path d="M214.04 279.86H207.3V286.6H214.04V279.86Z" fill="#354D59"/>
<path d="M214.04 273.19H207.3V279.87H214.04V273.19Z" fill="#1C323A"/>
<path d="M214.04 266.44H207.3V273.18H214.04V266.44Z" fill="#1C323A"/>
<path d="M214.04 259.78H207.3V266.46H214.04V259.78Z" fill="#1C323A"/>
<path d="M214.04 253.03H207.3V259.77H214.04V253.03Z" fill="#1C323A"/>
<path d="M214.04 246.36H207.3V253.04H214.04V246.36Z" fill="#1C323A"/>
<path d="M214.04 239.61H207.3V246.35H214.04V239.61Z" fill="#1C323A"/>
<path d="M214.04 232.87H207.3V239.61H214.04V232.87Z" fill="#1C323A"/>
<path d="M214.04 226.2H207.3V232.88H214.04V226.2Z" fill="#507993"/>
<path d="M214.04 219.46H207.3V226.2H214.04V219.46Z" fill="black"/>
<path d="M214.04 212.78H207.3V219.46H214.04V212.78Z" fill="black"/>
<path d="M214.04 206.04H207.3V212.78H214.04V206.04Z" fill="#679EC6"/>
<path d="M214.04 199.37H207.3V206.05H214.04V199.37Z" fill="#679EC6"/>
<path d="M214.04 192.63H207.3V199.37H214.04V192.63Z" fill="#679EC6"/>
<path d="M214.04 185.95H207.3V192.63H214.04V185.95Z" fill="#507993"/>
<path d="M214.04 179.21H207.3V185.95H214.04V179.21Z" fill="#507993"/>
<path d="M214.04 172.46H207.3V179.2H214.04V172.46Z" fill="black"/>
<path d="M214.04 165.8H207.3V172.48H214.04V165.8Z" fill="#6D4541"/>
<path d="M214.04 159.05H207.3V165.79H214.04V159.05Z" fill="#6D4541"/>
<path d="M214.04 152.38H207.3V159.06H214.04V152.38Z" fill="#79B6EE"/>
<path d="M214.04 145.63H207.3V152.37H214.04V145.63Z" fill="#BA7D54"/>
<path d="M214.04 138.97H207.3V145.65H214.04V138.97Z" fill="#BA7D54"/>
<path d="M214.04 132.22H207.3V138.96H214.04V132.22Z" fill="#BA7D54"/>
<path d="M214.04 125.48H207.3V132.22H214.04V125.48Z" fill="#679EC6"/>
<path d="M214.04 118.8H207.3V125.48H214.04V118.8Z" fill="#679EC6"/>
<path d="M214.04 112.07H207.3V118.81H214.04V112.07Z" fill="#679EC6"/>
<path d="M214.04 105.39H207.3V112.07H214.04V105.39Z" fill="#507993"/>
<path d="M214.04 98.6504H207.3V105.39H214.04V98.6504Z" fill="#507993"/>
<path d="M214.04 91.9697H207.3V98.6497H214.04V91.9697Z" fill="black"/>
<path d="M207.3 306.76H200.62V313.44H207.3V306.76Z" fill="black"/>
<path d="M207.3 300.02H200.62V306.76H207.3V300.02Z" fill="black"/>
<path d="M207.3 293.35H200.62V300.03H207.3V293.35Z" fill="black"/>
<path d="M207.3 286.61H200.62V293.35H207.3V286.61Z" fill="black"/>
<path d="M207.3 279.86H200.62V286.6H207.3V279.86Z" fill="#354D59"/>
<path d="M207.3 273.19H200.62V279.87H207.3V273.19Z" fill="#354D59"/>
<path d="M207.3 266.44H200.62V273.18H207.3V266.44Z" fill="#354D59"/>
<path d="M207.3 259.78H200.62V266.46H207.3V259.78Z" fill="#354D59"/>
<path d="M207.3 253.03H200.62V259.77H207.3V253.03Z" fill="#354D59"/>
<path d="M207.3 246.36H200.62V253.04H207.3V246.36Z" fill="#1C323A"/>
<path d="M207.3 239.61H200.62V246.35H207.3V239.61Z" fill="#1C323A"/>
<path d="M207.3 232.87H200.62V239.61H207.3V232.87Z" fill="#507993"/>
<path d="M207.3 226.2H200.62V232.88H207.3V226.2Z" fill="#507993"/>
<path d="M207.3 219.46H200.62V226.2H207.3V219.46Z" fill="#507993"/>
<path d="M207.3 212.78H200.62V219.46H207.3V212.78Z" fill="#79B6EE"/>
<path d="M207.3 206.04H200.62V212.78H207.3V206.04Z" fill="#679EC6"/>
<path d="M207.3 199.37H200.62V206.05H207.3V199.37Z" fill="#679EC6"/>
<path d="M207.3 192.63H200.62V199.37H207.3V192.63Z" fill="#679EC6"/>
<path d="M207.3 185.95H200.62V192.63H207.3V185.95Z" fill="#79B6EE"/>
<path d="M207.3 179.21H200.62V185.95H207.3V179.21Z" fill="#507993"/>
<path d="M207.3 172.46H200.62V179.2H207.3V172.46Z" fill="#6D4541"/>
<path d="M207.3 165.8H200.62V172.48H207.3V165.8Z" fill="#6D4541"/>
<path d="M207.3 159.05H200.62V165.79H207.3V159.05Z" fill="#BA7D54"/>
<path d="M207.3 152.38H200.62V159.06H207.3V152.38Z" fill="#BA7D54"/>
<path d="M207.3 145.63H200.62V152.37H207.3V145.63Z" fill="#BA7D54"/>
<path d="M207.3 138.97H200.62V145.65H207.3V138.97Z" fill="#BA7D54"/>
<path d="M207.3 132.22H200.62V138.96H207.3V132.22Z" fill="#1C1C1C"/>
<path d="M207.3 125.48H200.62V132.22H207.3V125.48Z" fill="#1C1C1C"/>
<path d="M207.3 118.8H200.62V125.48H207.3V118.8Z" fill="#507993"/>
<path d="M207.3 112.07H200.62V118.81H207.3V112.07Z" fill="#679EC6"/>
<path d="M207.3 105.39H200.62V112.07H207.3V105.39Z" fill="#679EC6"/>
<path d="M207.3 98.6504H200.62V105.39H207.3V98.6504Z" fill="#507993"/>
<path d="M207.3 91.9697H200.62V98.6497H207.3V91.9697Z" fill="#507993"/>
<path d="M207.3 85.2305H200.62V91.9705H207.3V85.2305Z" fill="black"/>
<path d="M200.61 306.76H193.87V313.44H200.61V306.76Z" fill="black"/>
<path d="M200.61 279.86H193.87V286.6H200.61V279.86Z" fill="black"/>
<path d="M200.61 273.19H193.87V279.87H200.61V273.19Z" fill="black"/>
<path d="M200.61 266.44H193.87V273.18H200.61V266.44Z" fill="#354D59"/>
<path d="M200.61 259.78H193.87V266.46H200.61V259.78Z" fill="#354D59"/>
<path d="M200.61 253.03H193.87V259.77H200.61V253.03Z" fill="#354D59"/>
<path d="M200.61 246.36H193.87V253.04H200.61V246.36Z" fill="#354D59"/>
<path d="M200.61 239.61H193.87V246.35H200.61V239.61Z" fill="#1C323A"/>
<path d="M200.61 232.87H193.87V239.61H200.61V232.87Z" fill="#507993"/>
<path d="M200.61 226.2H193.87V232.88H200.61V226.2Z" fill="#507993"/>
<path d="M200.61 219.46H193.87V226.2H200.61V219.46Z" fill="#679EC6"/>
<path d="M200.61 212.78H193.87V219.46H200.61V212.78Z" fill="#679EC6"/>
<path d="M200.61 206.04H193.87V212.78H200.61V206.04Z" fill="#679EC6"/>
<path d="M200.61 199.37H193.87V206.05H200.61V199.37Z" fill="#679EC6"/>
<path d="M200.61 192.63H193.87V199.37H200.61V192.63Z" fill="#679EC6"/>
<path d="M200.61 185.95H193.87V192.63H200.61V185.95Z" fill="#679EC6"/>
<path d="M200.61 179.21H193.87V185.95H200.61V179.21Z" fill="#679EC6"/>
<path d="M200.61 172.46H193.87V179.2H200.61V172.46Z" fill="#6D4541"/>
<path d="M200.61 165.8H193.87V172.48H200.61V165.8Z" fill="#6D4541"/>
<path d="M200.61 159.05H193.87V165.79H200.61V159.05Z" fill="#E0AD86"/>
<path d="M200.61 152.38H193.87V159.06H200.61V152.38Z" fill="#E0AD86"/>
<path d="M200.61 145.63H193.87V152.37H200.61V145.63Z" fill="#E0AD86"/>
<path d="M200.61 138.97H193.87V145.65H200.61V138.97Z" fill="#BA7D54"/>
<path d="M200.61 132.22H193.87V138.96H200.61V132.22Z" fill="#1C1C1C"/>
<path d="M200.61 125.48H193.87V132.22H200.61V125.48Z" fill="#545453"/>
<path d="M200.61 118.8H193.87V125.48H200.61V118.8Z" fill="#507993"/>
<path d="M200.61 112.07H193.87V118.81H200.61V112.07Z" fill="#679EC6"/>
<path d="M200.61 105.39H193.87V112.07H200.61V105.39Z" fill="#679EC6"/>
<path d="M200.61 98.6504H193.87V105.39H200.61V98.6504Z" fill="#679EC6"/>
<path d="M200.61 91.9697H193.87V98.6497H200.61V91.9697Z" fill="#507993"/>
<path d="M200.61 85.2305H193.87V91.9705H200.61V85.2305Z" fill="black"/>
<path d="M200.61 78.5596H193.87V85.2396H200.61V78.5596Z" fill="black"/>
<path d="M193.89 273.19H187.21V279.87H193.89V273.19Z" fill="black"/>
<path d="M193.89 266.44H187.21V273.18H193.89V266.44Z" fill="#1C323A"/>
<path d="M193.89 259.78H187.21V266.46H193.89V259.78Z" fill="#354D59"/>
<path d="M193.89 253.03H187.21V259.77H193.89V253.03Z" fill="#354D59"/>
<path d="M193.89 246.36H187.21V253.04H193.89V246.36Z" fill="#354D59"/>
<path d="M193.89 239.61H187.21V246.35H193.89V239.61Z" fill="#1C323A"/>
<path d="M193.89 232.87H187.21V239.61H193.89V232.87Z" fill="#507993"/>
<path d="M193.89 226.2H187.21V232.88H193.89V226.2Z" fill="#79B6EE"/>
<path d="M193.89 219.46H187.21V226.2H193.89V219.46Z" fill="#679EC6"/>
<path d="M193.89 212.78H187.21V219.46H193.89V212.78Z" fill="#679EC6"/>
<path d="M193.89 206.04H187.21V212.78H193.89V206.04Z" fill="#679EC6"/>
<path d="M193.89 199.37H187.21V206.05H193.89V199.37Z" fill="#679EC6"/>
<path d="M193.89 192.63H187.21V199.37H193.89V192.63Z" fill="#679EC6"/>
<path d="M193.89 185.95H187.21V192.63H193.89V185.95Z" fill="#679EC6"/>
<path d="M193.89 179.21H187.21V185.95H193.89V179.21Z" fill="#679EC6"/>
<path d="M193.89 172.46H187.21V179.2H193.89V172.46Z" fill="#6D4541"/>
<path d="M193.89 165.8H187.21V172.48H193.89V165.8Z" fill="#6D4541"/>
<path d="M193.89 159.05H187.21V165.79H193.89V159.05Z" fill="#E0AD86"/>
<path d="M193.89 152.38H187.21V159.06H193.89V152.38Z" fill="#E0AD86"/>
<path d="M193.89 145.63H187.21V152.37H193.89V145.63Z" fill="#E0AD86"/>
<path d="M193.89 138.97H187.21V145.65H193.89V138.97Z" fill="#BA7D54"/>
<path d="M193.89 132.22H187.21V138.96H193.89V132.22Z" fill="#BA7D54"/>
<path d="M193.89 125.48H187.21V132.22H193.89V125.48Z" fill="#507993"/>
<path d="M193.89 118.8H187.21V125.48H193.89V118.8Z" fill="#679EC6"/>
<path d="M193.89 112.07H187.21V118.81H193.89V112.07Z" fill="#679EC6"/>
<path d="M193.89 105.39H187.21V112.07H193.89V105.39Z" fill="#679EC6"/>
<path d="M193.89 98.6504H187.21V105.39H193.89V98.6504Z" fill="#679EC6"/>
<path d="M193.89 91.9697H187.21V98.6497H193.89V91.9697Z" fill="#679EC6"/>
<path d="M193.89 85.2305H187.21V91.9705H193.89V85.2305Z" fill="#507993"/>
<path d="M193.89 78.5596H187.21V85.2396H193.89V78.5596Z" fill="black"/>
<path d="M187.2 306.76H180.46V313.44H187.2V306.76Z" fill="black"/>
<path d="M187.2 300.02H180.46V306.76H187.2V300.02Z" fill="black"/>
<path d="M187.2 293.35H180.46V300.03H187.2V293.35Z" fill="black"/>
<path d="M187.2 286.61H180.46V293.35H187.2V286.61Z" fill="black"/>
<path d="M187.2 279.86H180.46V286.6H187.2V279.86Z" fill="black"/>
<path d="M187.2 273.19H180.46V279.87H187.2V273.19Z" fill="black"/>
<path d="M187.2 266.44H180.46V273.18H187.2V266.44Z" fill="#1C323A"/>
<path d="M187.2 259.78H180.46V266.46H187.2V259.78Z" fill="#1C323A"/>
<path d="M187.2 253.03H180.46V259.77H187.2V253.03Z" fill="#1C323A"/>
<path d="M187.2 246.36H180.46V253.04H187.2V246.36Z" fill="#354D59"/>
<path d="M187.2 239.61H180.46V246.35H187.2V239.61Z" fill="#354D59"/>
<path d="M187.2 232.87H180.46V239.61H187.2V232.87Z" fill="#507993"/>
<path d="M187.2 226.2H180.46V232.88H187.2V226.2Z" fill="#679EC6"/>
<path d="M187.2 219.46H180.46V226.2H187.2V219.46Z" fill="#79B6EE"/>
<path d="M187.2 212.78H180.46V219.46H187.2V212.78Z" fill="#79B6EE"/>
<path d="M187.2 206.04H180.46V212.78H187.2V206.04Z" fill="#679EC6"/>
<path d="M187.2 199.37H180.46V206.05H187.2V199.37Z" fill="#679EC6"/>
<path d="M187.2 192.63H180.46V199.37H187.2V192.63Z" fill="#679EC6"/>
<path d="M187.2 185.95H180.46V192.63H187.2V185.95Z" fill="#679EC6"/>
<path d="M187.2 179.21H180.46V185.95H187.2V179.21Z" fill="#679EC6"/>
<path d="M187.2 172.46H180.46V179.2H187.2V172.46Z" fill="#6D4541"/>
<path d="M187.2 165.8H180.46V172.48H187.2V165.8Z" fill="#6D4541"/>
<path d="M187.2 159.05H180.46V165.79H187.2V159.05Z" fill="#E0AD86"/>
<path d="M187.2 152.38H180.46V159.06H187.2V152.38Z" fill="#E0AD86"/>
<path d="M187.2 145.63H180.46V152.37H187.2V145.63Z" fill="#E0AD86"/>
<path d="M187.2 138.97H180.46V145.65H187.2V138.97Z" fill="#BA7D54"/>
<path d="M187.2 132.22H180.46V138.96H187.2V132.22Z" fill="#507993"/>
<path d="M187.2 125.48H180.46V132.22H187.2V125.48Z" fill="#679EC6"/>
<path d="M187.2 118.8H180.46V125.48H187.2V118.8Z" fill="#679EC6"/>
<path d="M187.2 112.07H180.46V118.81H187.2V112.07Z" fill="#679EC6"/>
<path d="M187.2 105.39H180.46V112.07H187.2V105.39Z" fill="#679EC6"/>
<path d="M187.2 98.6504H180.46V105.39H187.2V98.6504Z" fill="#79B6EE"/>
<path d="M187.2 91.9697H180.46V98.6497H187.2V91.9697Z" fill="#79B6EE"/>
<path d="M187.2 85.2305H180.46V91.9705H187.2V85.2305Z" fill="black"/>
<path d="M187.2 78.5596H180.46V85.2396H187.2V78.5596Z" fill="black"/>
<path d="M180.47 306.76H173.79V313.44H180.47V306.76Z" fill="black"/>
<path d="M180.47 300.02H173.79V306.76H180.47V300.02Z" fill="#60401E"/>
<path d="M180.47 293.35H173.79V300.03H180.47V293.35Z" fill="#60401E"/>
<path d="M180.47 286.61H173.79V293.35H180.47V286.61Z" fill="#60401E"/>
<path d="M180.47 279.86H173.79V286.6H180.47V279.86Z" fill="#60401E"/>
<path d="M180.47 273.19H173.79V279.87H180.47V273.19Z" fill="#354D59"/>
<path d="M180.47 266.44H173.79V273.18H180.47V266.44Z" fill="#354D59"/>
<path d="M180.47 259.78H173.79V266.46H180.47V259.78Z" fill="#354D59"/>
<path d="M180.47 253.03H173.79V259.77H180.47V253.03Z" fill="#354D59"/>
<path d="M180.47 246.36H173.79V253.04H180.47V246.36Z" fill="#354D59"/>
<path d="M180.47 239.61H173.79V246.35H180.47V239.61Z" fill="#354D59"/>
<path d="M180.47 232.87H173.79V239.61H180.47V232.87Z" fill="#507993"/>
<path d="M180.47 226.2H173.79V232.88H180.47V226.2Z" fill="#507993"/>
<path d="M180.47 219.46H173.79V226.2H180.47V219.46Z" fill="#679EC6"/>
<path d="M180.47 212.78H173.79V219.46H180.47V212.78Z" fill="#79B6EE"/>
<path d="M180.47 206.04H173.79V212.78H180.47V206.04Z" fill="#79B6EE"/>
<path d="M180.47 199.37H173.79V206.05H180.47V199.37Z" fill="#679EC6"/>
<path d="M180.47 192.63H173.79V199.37H180.47V192.63Z" fill="#79B6EE"/>
<path d="M180.47 185.95H173.79V192.63H180.47V185.95Z" fill="#79B6EE"/>
<path d="M180.47 179.21H173.79V185.95H180.47V179.21Z" fill="#79B6EE"/>
<path d="M180.47 172.46H173.79V179.2H180.47V172.46Z" fill="#6D4541"/>
<path d="M180.47 165.8H173.79V172.48H180.47V165.8Z" fill="#6D4541"/>
<path d="M180.47 159.05H173.79V165.79H180.47V159.05Z" fill="#E0AD86"/>
<path d="M180.47 152.38H173.79V159.06H180.47V152.38Z" fill="#E0AD86"/>
<path d="M180.47 145.63H173.79V152.37H180.47V145.63Z" fill="#E0AD86"/>
<path d="M180.47 138.97H173.79V145.65H180.47V138.97Z" fill="#BA7D54"/>
<path d="M180.47 132.22H173.79V138.96H180.47V132.22Z" fill="#79B6EE"/>
<path d="M180.47 125.48H173.79V132.22H180.47V125.48Z" fill="#679EC6"/>
<path d="M180.47 118.8H173.79V125.48H180.47V118.8Z" fill="#679EC6"/>
<path d="M180.47 112.07H173.79V118.81H180.47V112.07Z" fill="#79B6EE"/>
<path d="M180.47 105.39H173.79V112.07H180.47V105.39Z" fill="#79B6EE"/>
<path d="M180.47 98.6504H173.79V105.39H180.47V98.6504Z" fill="#79B6EE"/>
<path d="M180.47 91.9697H173.79V98.6497H180.47V91.9697Z" fill="black"/>
<path d="M180.47 85.2305H173.79V91.9705H180.47V85.2305Z" fill="black"/>
<path d="M173.78 306.76H167.04V313.44H173.78V306.76Z" fill="black"/>
<path d="M173.78 300.02H167.04V306.76H173.78V300.02Z" fill="#60401E"/>
<path d="M173.78 293.35H167.04V300.03H173.78V293.35Z" fill="#60401E"/>
<path d="M173.78 286.61H167.04V293.35H173.78V286.61Z" fill="#60401E"/>
<path d="M173.78 279.86H167.04V286.6H173.78V279.86Z" fill="#354D59"/>
<path d="M173.78 273.19H167.04V279.87H173.78V273.19Z" fill="#354D59"/>
<path d="M173.78 266.44H167.04V273.18H173.78V266.44Z" fill="#354D59"/>
<path d="M173.78 259.78H167.04V266.46H173.78V259.78Z" fill="#354D59"/>
<path d="M173.78 253.03H167.04V259.77H173.78V253.03Z" fill="#354D59"/>
<path d="M173.78 246.36H167.04V253.04H173.78V246.36Z" fill="#354D59"/>
<path d="M173.78 239.61H167.04V246.35H173.78V239.61Z" fill="#354D59"/>
<path d="M173.78 232.87H167.04V239.61H173.78V232.87Z" fill="#507993"/>
<path d="M173.78 226.2H167.04V232.88H173.78V226.2Z" fill="#507993"/>
<path d="M173.78 219.46H167.04V226.2H173.78V219.46Z" fill="#507993"/>
<path d="M173.78 212.78H167.04V219.46H173.78V212.78Z" fill="#79B6EE"/>
<path d="M173.78 206.04H167.04V212.78H173.78V206.04Z" fill="#679EC6"/>
<path d="M173.78 199.37H167.04V206.05H173.78V199.37Z" fill="#79B6EE"/>
<path d="M173.78 192.63H167.04V199.37H173.78V192.63Z" fill="#79B6EE"/>
<path d="M173.78 185.95H167.04V192.63H173.78V185.95Z" fill="#79B6EE"/>
<path d="M173.78 179.21H167.04V185.95H173.78V179.21Z" fill="#79B6EE"/>
<path d="M173.78 172.46H167.04V179.2H173.78V172.46Z" fill="black"/>
<path d="M173.78 165.8H167.04V172.48H173.78V165.8Z" fill="#6D4541"/>
<path d="M173.78 159.05H167.04V165.79H173.78V159.05Z" fill="#E0AD86"/>
<path d="M173.78 152.38H167.04V159.06H173.78V152.38Z" fill="#E0AD86"/>
<path d="M173.78 145.63H167.04V152.37H173.78V145.63Z" fill="#E0AD86"/>
<path d="M173.78 138.97H167.04V145.65H173.78V138.97Z" fill="#BA7D54"/>
<path d="M173.78 132.22H167.04V138.96H173.78V132.22Z" fill="#0C0A08"/>
<path d="M173.78 125.48H167.04V132.22H173.78V125.48Z" fill="#507993"/>
<path d="M173.78 118.8H167.04V125.48H173.78V118.8Z" fill="#79B6EE"/>
<path d="M173.78 112.07H167.04V118.81H173.78V112.07Z" fill="#79B6EE"/>
<path d="M173.78 105.39H167.04V112.07H173.78V105.39Z" fill="#79B6EE"/>
<path d="M173.78 98.6504H167.04V105.39H173.78V98.6504Z" fill="black"/>
<path d="M173.78 91.9697H167.04V98.6497H173.78V91.9697Z" fill="black"/>
<path d="M167.04 306.76H160.3V313.44H167.04V306.76Z" fill="black"/>
<path d="M167.04 300.02H160.3V306.76H167.04V300.02Z" fill="#60401E"/>
<path d="M167.04 293.35H160.3V300.03H167.04V293.35Z" fill="black"/>
<path d="M167.04 286.61H160.3V293.35H167.04V286.61Z" fill="black"/>
<path d="M167.04 279.86H160.3V286.6H167.04V279.86Z" fill="black"/>
<path d="M167.04 273.19H160.3V279.87H167.04V273.19Z" fill="#354D59"/>
<path d="M167.04 266.44H160.3V273.18H167.04V266.44Z" fill="#354D59"/>
<path d="M167.04 259.78H160.3V266.46H167.04V259.78Z" fill="#354D59"/>
<path d="M167.04 253.03H160.3V259.77H167.04V253.03Z" fill="#354D59"/>
<path d="M167.04 246.36H160.3V253.04H167.04V246.36Z" fill="#354D59"/>
<path d="M167.04 239.61H160.3V246.35H167.04V239.61Z" fill="#354D59"/>
<path d="M167.04 232.87H160.3V239.61H167.04V232.87Z" fill="#507993"/>
<path d="M167.04 226.2H160.3V232.88H167.04V226.2Z" fill="black"/>
<path d="M167.04 219.46H160.3V226.2H167.04V219.46Z" fill="#679EC6"/>
<path d="M167.04 212.78H160.3V219.46H167.04V212.78Z" fill="#679EC6"/>
<path d="M167.04 206.04H160.3V212.78H167.04V206.04Z" fill="#79B6EE"/>
<path d="M167.04 199.37H160.3V206.05H167.04V199.37Z" fill="#79B6EE"/>
<path d="M167.04 192.63H160.3V199.37H167.04V192.63Z" fill="#79B6EE"/>
<path d="M167.04 185.95H160.3V192.63H167.04V185.95Z" fill="#679EC6"/>
<path d="M167.04 179.21H160.3V185.95H167.04V179.21Z" fill="black"/>
<path d="M167.04 172.46H160.3V179.2H167.04V172.46Z" fill="black"/>
<path d="M167.04 165.8H160.3V172.48H167.04V165.8Z" fill="black"/>
<path d="M167.04 159.05H160.3V165.79H167.04V159.05Z" fill="black"/>
<path d="M167.04 152.38H160.3V159.06H167.04V152.38Z" fill="#79B6EE"/>
<path d="M167.04 145.63H160.3V152.37H167.04V145.63Z" fill="#79B6EE"/>
<path d="M167.04 138.97H160.3V145.65H167.04V138.97Z" fill="#BA7D54"/>
<path d="M167.04 132.22H160.3V138.96H167.04V132.22Z" fill="#BA7D54"/>
<path d="M167.04 125.48H160.3V132.22H167.04V125.48Z" fill="#BA7D54"/>
<path d="M167.04 118.8H160.3V125.48H167.04V118.8Z" fill="#79B6EE"/>
<path d="M167.04 112.07H160.3V118.81H167.04V112.07Z" fill="#79B6EE"/>
<path d="M167.04 105.39H160.3V112.07H167.04V105.39Z" fill="black"/>
<path d="M167.04 98.6504H160.3V105.39H167.04V98.6504Z" fill="black"/>
<path d="M160.31 306.76H153.63V313.44H160.31V306.76Z" fill="black"/>
<path d="M160.31 300.02H153.63V306.76H160.31V300.02Z" fill="black"/>
<path d="M160.31 293.35H153.63V300.03H160.31V293.35Z" fill="black"/>
<path d="M160.31 279.86H153.63V286.6H160.31V279.86Z" fill="black"/>
<path d="M160.31 273.19H153.63V279.87H160.31V273.19Z" fill="black"/>
<path d="M160.31 266.44H153.63V273.18H160.31V266.44Z" fill="black"/>
<path d="M160.31 259.78H153.63V266.46H160.31V259.78Z" fill="#354D59"/>
<path d="M160.31 253.03H153.63V259.77H160.31V253.03Z" fill="#354D59"/>
<path d="M160.31 246.36H153.63V253.04H160.31V246.36Z" fill="#507993"/>
<path d="M160.31 239.61H153.63V246.35H160.31V239.61Z" fill="#507993"/>
<path d="M160.31 232.87H153.63V239.61H160.31V232.87Z" fill="black"/>
<path d="M160.31 226.2H153.63V232.88H160.31V226.2Z" fill="black"/>
<path d="M160.31 219.46H153.63V226.2H160.31V219.46Z" fill="#79B6EE"/>
<path d="M160.31 212.78H153.63V219.46H160.31V212.78Z" fill="#79B6EE"/>
<path d="M160.31 206.04H153.63V212.78H160.31V206.04Z" fill="#79B6EE"/>
<path d="M160.31 199.37H153.63V206.05H160.31V199.37Z" fill="#79B6EE"/>
<path d="M160.31 192.63H153.63V199.37H160.31V192.63Z" fill="#679EC6"/>
<path d="M160.31 185.95H153.63V192.63H160.31V185.95Z" fill="black"/>
<path d="M160.31 159.05H153.63V165.79H160.31V159.05Z" fill="black"/>
<path d="M160.31 152.38H153.63V159.06H160.31V152.38Z" fill="black"/>
<path d="M160.31 145.63H153.63V152.37H160.31V145.63Z" fill="black"/>
<path d="M160.31 138.97H153.63V145.65H160.31V138.97Z" fill="#79B6EE"/>
<path d="M160.31 132.22H153.63V138.96H160.31V132.22Z" fill="#79B6EE"/>
<path d="M160.31 125.48H153.63V132.22H160.31V125.48Z" fill="#79B6EE"/>
<path d="M160.31 118.8H153.63V125.48H160.31V118.8Z" fill="black"/>
<path d="M160.31 112.07H153.63V118.81H160.31V112.07Z" fill="black"/>
<path d="M160.31 105.39H153.63V112.07H160.31V105.39Z" fill="black"/>
<path d="M153.63 306.76H146.89V313.44H153.63V306.76Z" fill="black"/>
<path d="M153.63 300.02H146.89V306.76H153.63V300.02Z" fill="black"/>
<path d="M153.63 266.44H146.89V273.18H153.63V266.44Z" fill="black"/>
<path d="M153.63 259.78H146.89V266.46H153.63V259.78Z" fill="black"/>
<path d="M153.63 253.03H146.89V259.77H153.63V253.03Z" fill="black"/>
<path d="M153.63 246.36H146.89V253.04H153.63V246.36Z" fill="black"/>
<path d="M153.63 239.61H146.89V246.35H153.63V239.61Z" fill="black"/>
<path d="M153.63 232.87H146.89V239.61H153.63V232.87Z" fill="black"/>
<path d="M153.63 226.2H146.89V232.88H153.63V226.2Z" fill="#E0AD86"/>
<path d="M153.63 219.46H146.89V226.2H153.63V219.46Z" fill="#E0AD86"/>
<path d="M153.63 212.78H146.89V219.46H153.63V212.78Z" fill="#79B6EE"/>
<path d="M153.63 206.04H146.89V212.78H153.63V206.04Z" fill="#79B6EE"/>
<path d="M153.63 199.37H146.89V206.05H153.63V199.37Z" fill="#679EC6"/>
<path d="M153.63 192.63H146.89V199.37H153.63V192.63Z" fill="black"/>
<path d="M153.63 145.63H146.89V152.37H153.63V145.63Z" fill="black"/>
<path d="M153.63 138.97H146.89V145.65H153.63V138.97Z" fill="black"/>
<path d="M153.63 132.22H146.89V138.96H153.63V132.22Z" fill="black"/>
<path d="M153.63 125.48H146.89V132.22H153.63V125.48Z" fill="black"/>
<path d="M153.63 118.8H146.89V125.48H153.63V118.8Z" fill="black"/>
<path d="M146.89 239.61H140.21V246.35H146.89V239.61Z" fill="black"/>
<path d="M146.89 232.87H140.21V239.61H146.89V232.87Z" fill="#E0AD86"/>
<path d="M146.89 226.2H140.21V232.88H146.89V226.2Z" fill="#E0AD86"/>
<path d="M146.89 219.46H140.21V226.2H146.89V219.46Z" fill="#E0AD86"/>
<path d="M146.89 212.78H140.21V219.46H146.89V212.78Z" fill="#E0AD86"/>
<path d="M146.89 206.04H140.21V212.78H146.89V206.04Z" fill="black"/>
<path d="M146.89 199.37H140.21V206.05H146.89V199.37Z" fill="black"/>
<path d="M140.21 232.87H133.47V239.61H140.21V232.87Z" fill="black"/>
<path d="M140.21 226.2H133.47V232.88H140.21V226.2Z" fill="black"/>
<path d="M140.21 219.46H133.47V226.2H140.21V219.46Z" fill="#E0AD86"/>
<path d="M140.21 212.78H133.47V219.46H140.21V212.78Z" fill="black"/>
<path d="M133.48 306.76H126.8V313.44H133.48V306.76Z" fill="#B50012"/>
<path d="M133.48 293.35H126.8V300.03H133.48V293.35Z" fill="#B50012"/>
<path d="M133.48 226.2H126.8V232.88H133.48V226.2Z" fill="#B50012"/>
<path d="M133.48 219.46H126.8V226.2H133.48V219.46Z" fill="#4A4A68"/>
<path d="M133.48 212.78H126.8V219.46H133.48V212.78Z" fill="#B50012"/>
<path d="M133.48 206.04H126.8V212.78H133.48V206.04Z" fill="#B50012"/>
<path d="M126.8 306.76H120.06V313.44H126.8V306.76Z" fill="#B50012"/>
<path d="M126.8 279.86H120.06V286.6H126.8V279.86Z" fill="#B50012"/>
<path d="M126.8 273.19H120.06V279.87H126.8V273.19Z" fill="#B50012"/>
<path d="M126.8 219.46H120.06V226.2H126.8V219.46Z" fill="#B50012"/>
<path d="M126.8 212.78H120.06V219.46H126.8V212.78Z" fill="#727B9B"/>
<path d="M126.8 206.04H120.06V212.78H126.8V206.04Z" fill="#727B9B"/>
<path d="M126.8 199.37H120.06V206.05H126.8V199.37Z" fill="#B50012"/>
<path d="M126.8 192.63H120.06V199.37H126.8V192.63Z" fill="#B50012"/>
<path d="M120.06 306.76H113.32V313.44H120.06V306.76Z" fill="#B50012"/>
<path d="M120.06 300.02H113.32V306.76H120.06V300.02Z" fill="#B50012"/>
<path d="M120.06 226.2H113.32V232.88H120.06V226.2Z" fill="#B50012"/>
<path d="M120.06 219.46H113.32V226.2H120.06V219.46Z" fill="#B50012"/>
<path d="M120.06 212.78H113.32V219.46H120.06V212.78Z" fill="#B50012"/>
<path d="M120.06 206.04H113.32V212.78H120.06V206.04Z" fill="#727B9B"/>
<path d="M120.06 199.37H113.32V206.05H120.06V199.37Z" fill="#727B9B"/>
<path d="M120.06 192.63H113.32V199.37H120.06V192.63Z" fill="#727B9B"/>
<path d="M120.06 185.95H113.32V192.63H120.06V185.95Z" fill="#B50012"/>
<path d="M120.06 179.21H113.32V185.95H120.06V179.21Z" fill="#B50012"/>
<path d="M113.32 306.76H106.64V313.44H113.32V306.76Z" fill="#B50012"/>
<path d="M113.32 286.61H106.64V293.35H113.32V286.61Z" fill="#B50012"/>
<path d="M113.32 246.36H106.64V253.04H113.32V246.36Z" fill="#B50012"/>
<path d="M113.32 239.61H106.64V246.35H113.32V239.61Z" fill="#B50012"/>
<path d="M113.32 212.78H106.64V219.46H113.32V212.78Z" fill="#B50012"/>
<path d="M113.32 206.04H106.64V212.78H113.32V206.04Z" fill="#B50012"/>
<path d="M113.32 199.37H106.64V206.05H113.32V199.37Z" fill="#B50012"/>
<path d="M113.32 192.63H106.64V199.37H113.32V192.63Z" fill="#727B9B"/>
<path d="M113.32 185.95H106.64V192.63H113.32V185.95Z" fill="#727B9B"/>
<path d="M113.32 179.21H106.64V185.95H113.32V179.21Z" fill="#727B9B"/>
<path d="M113.32 172.46H106.64V179.2H113.32V172.46Z" fill="#B50012"/>
<path d="M106.63 199.37H99.89V206.05H106.63V199.37Z" fill="#B50012"/>
<path d="M106.63 192.63H99.89V199.37H106.63V192.63Z" fill="#B50012"/>
<path d="M106.63 185.95H99.89V192.63H106.63V185.95Z" fill="#B50012"/>
<path d="M106.63 179.21H99.89V185.95H106.63V179.21Z" fill="#B50012"/>
</svg>
