<svg width="400" height="400" viewBox="0 0 400 400" fill="none" xmlns="http://www.w3.org/2000/svg">
<path d="M200 385.78C302.603 385.78 385.78 302.603 385.78 200C385.78 97.3963 302.603 14.2197 200 14.2197C97.3965 14.2197 14.22 97.3963 14.22 200C14.22 302.603 97.3965 385.78 200 385.78Z" fill="black"/>
<path d="M200 392.78C93.7 392.78 7.21997 306.3 7.21997 200C7.21997 93.6997 93.7 7.21973 200 7.21973C306.3 7.21973 392.78 93.6997 392.78 200C392.78 306.3 306.3 392.78 200 392.78ZM200 21.2197C101.42 21.2197 21.22 101.42 21.22 200C21.22 298.58 101.42 378.78 200 378.78C298.58 378.78 378.78 298.58 378.78 200C378.78 101.42 298.58 21.2197 200 21.2197Z" fill="#EF0012"/>
<path d="M221.83 234.12H214.34V241.53H221.83V234.12Z" fill="#544B56"/>
<path d="M281.42 323.59H274.01V331H281.42V323.59Z" fill="black"/>
<path d="M177.05 323.59H169.64V331H177.05V323.59Z" fill="black"/>
<path d="M274.01 323.59H266.52V331H274.01V323.59Z" fill="black"/>
<path d="M266.52 323.59H259.04V331H266.52V323.59Z" fill="black"/>
<path d="M244.13 323.59H236.72V331H244.13V323.59Z" fill="black"/>
<path d="M251.62 323.59H244.13V331H251.62V323.59Z" fill="black"/>
<path d="M259.03 323.59H251.62V331H259.03V323.59Z" fill="black"/>
<path d="M199.44 323.59H191.95V331H199.44V323.59Z" fill="black"/>
<path d="M191.95 323.59H184.54V331H191.95V323.59Z" fill="black"/>
<path d="M184.54 323.59H177.05V331H184.54V323.59Z" fill="black"/>
<path d="M214.34 323.59H206.93V331H214.34V323.59Z" fill="black"/>
<path d="M206.93 323.59H199.44V331H206.93V323.59Z" fill="black"/>
<path d="M229.23 167.04H221.82V174.45H229.23V167.04Z" fill="#9087B5"/>
<path d="M221.83 167.04H214.34V174.45H221.83V167.04Z" fill="#9087B5"/>
<path d="M214.34 167.04H206.93V174.45H214.34V167.04Z" fill="#9087B5"/>
<path d="M236.72 167.04H229.23V174.45H236.72V167.04Z" fill="#9087B5"/>
<path d="M266.52 316.1H259.04V323.59H266.52V316.1Z" fill="#544B56"/>
<path d="M221.83 107.37H214.34V114.86H221.83V107.37Z" fill="black"/>
<path d="M214.34 107.37H206.93V114.86H214.34V107.37Z" fill="black"/>
<path d="M244.13 144.649H236.72V152.139H244.13V144.649Z" fill="#F49364"/>
<path d="M244.13 137.17H236.72V144.66H244.13V137.17Z" fill="#F49364"/>
<path d="M221.83 152.14H214.34V159.55H221.83V152.14Z" fill="#FFEFD3"/>
<path d="M221.83 137.17H214.34V144.66H221.83V137.17Z" fill="#FFEFD3"/>
<path d="M229.23 152.14H221.82V159.55H229.23V152.14Z" fill="#FFEFD3"/>
<path d="M229.23 144.649H221.82V152.139H229.23V144.649Z" fill="#FFEFD3"/>
<path d="M221.83 144.649H214.34V152.139H221.83V144.649Z" fill="#FFEFD3"/>
<path d="M229.23 137.17H221.82V144.66H229.23V137.17Z" fill="#FFEFD3"/>
<path d="M214.34 144.649H206.93V152.139H214.34V144.649Z" fill="#FFEFD3"/>
<path d="M214.34 137.17H206.93V144.66H214.34V137.17Z" fill="#FFEFD3"/>
<path d="M214.34 152.14H206.93V159.55H214.34V152.14Z" fill="#FFEFD3"/>
<path d="M236.72 144.649H229.23V152.139H236.72V144.649Z" fill="#FFEFD3"/>
<path d="M236.72 137.17H229.23V144.66H236.72V137.17Z" fill="#FFEFD3"/>
<path d="M236.72 152.14H229.23V159.55H236.72V152.14Z" fill="#FFEFD3"/>
<path d="M147.26 241.529H139.77V249.019H147.26V241.529Z" fill="#F49364"/>
<path d="M139.77 211.739H132.36V219.229H139.77V211.739Z" fill="#F49364"/>
<path d="M147.26 204.33H139.77V211.74H147.26V204.33Z" fill="#F49364"/>
<path d="M139.77 204.33H132.36V211.74H139.77V204.33Z" fill="#F49364"/>
<path d="M221.83 159.55H214.34V167.04H221.83V159.55Z" fill="#7A3124"/>
<path d="M229.23 159.55H221.82V167.04H229.23V159.55Z" fill="#7A3124"/>
<path d="M236.72 159.55H229.23V167.04H236.72V159.55Z" fill="#7A3124"/>
<path d="M244.13 152.14H236.72V159.55H244.13V152.14Z" fill="#7A3124"/>
<path d="M147.26 234.12H139.77V241.53H147.26V234.12Z" fill="#7A3124"/>
<path d="M147.26 219.22H139.77V226.63H147.26V219.22Z" fill="#7A3124"/>
<path d="M147.26 211.739H139.77V219.229H147.26V211.739Z" fill="#7A3124"/>
<path d="M139.77 219.22H132.36V226.63H139.77V219.22Z" fill="#7A3124"/>
<path d="M177.05 219.22H169.64V226.63H177.05V219.22Z" fill="#7A3124"/>
<path d="M177.05 211.739H169.64V219.229H177.05V211.739Z" fill="#7A3124"/>
<path d="M177.05 204.33H169.64V211.74H177.05V204.33Z" fill="#7A3124"/>
<path d="M184.54 204.33H177.05V211.74H184.54V204.33Z" fill="#7A3124"/>
<path d="M184.54 211.739H177.05V219.229H184.54V211.739Z" fill="#7A3124"/>
<path d="M184.54 219.22H177.05V226.63H184.54V219.22Z" fill="#7A3124"/>
<path d="M169.64 211.739H162.15V219.229H169.64V211.739Z" fill="#9087B5"/>
<path d="M169.64 204.33H162.15V211.74H169.64V204.33Z" fill="#9087B5"/>
<path d="M169.64 219.22H162.15V226.63H169.64V219.22Z" fill="#9087B5"/>
<path d="M139.77 189.35H132.36V196.84H139.77V189.35Z" fill="#544B56"/>
<path d="M191.95 286.3H184.54V293.71H191.95V286.3Z" fill="#E7DACE"/>
<path d="M259.03 286.3H251.62V293.71H259.03V286.3Z" fill="#E7DACE"/>
<path d="M251.62 286.3H244.13V293.71H251.62V286.3Z" fill="#E7DACE"/>
<path d="M266.52 181.939H259.04V189.349H266.52V181.939Z" fill="#E7DACE"/>
<path d="M251.62 189.35H244.13V196.84H251.62V189.35Z" fill="#E7DACE"/>
<path d="M251.62 181.939H244.13V189.349H251.62V181.939Z" fill="#E7DACE"/>
<path d="M251.62 204.33H244.13V211.74H251.62V204.33Z" fill="#E7DACE"/>
<path d="M251.62 196.84H244.13V204.33H251.62V196.84Z" fill="#E7DACE"/>
<path d="M259.03 181.939H251.62V189.349H259.03V181.939Z" fill="#E7DACE"/>
<path d="M251.62 167.04H244.13V174.45H251.62V167.04Z" fill="#E7DACE"/>
<path d="M259.03 167.04H251.62V174.45H259.03V167.04Z" fill="#E7DACE"/>
<path d="M229.23 99.96H221.82V107.37H229.23V99.96Z" fill="#E7DACE"/>
<path d="M221.83 99.96H214.34V107.37H221.83V99.96Z" fill="#E7DACE"/>
<path d="M236.72 99.96H229.23V107.37H236.72V99.96Z" fill="#E7DACE"/>
<path d="M221.83 181.939H214.34V189.349H221.83V181.939Z" fill="#E7DACE"/>
<path d="M229.23 189.35H221.82V196.84H229.23V189.35Z" fill="#E7DACE"/>
<path d="M229.23 174.45H221.82V181.94H229.23V174.45Z" fill="#E7DACE"/>
<path d="M221.83 196.84H214.34V204.33H221.83V196.84Z" fill="#E7DACE"/>
<path d="M221.83 189.35H214.34V196.84H221.83V189.35Z" fill="#E7DACE"/>
<path d="M229.23 181.939H221.82V189.349H229.23V181.939Z" fill="#E7DACE"/>
<path d="M169.64 226.63H162.15V234.12H169.64V226.63Z" fill="#544B56"/>
<path d="M162.15 219.22H154.74V226.63H162.15V219.22Z" fill="#544B56"/>
<path d="M162.15 211.739H154.74V219.229H162.15V211.739Z" fill="#544B56"/>
<path d="M154.74 211.739H147.25V219.229H154.74V211.739Z" fill="#544B56"/>
<path d="M154.74 219.22H147.25V226.63H154.74V219.22Z" fill="#544B56"/>
<path d="M274.01 316.1H266.52V323.59H274.01V316.1Z" fill="#544B56"/>
<path d="M266.52 308.62H259.04V316.1H266.52V308.62Z" fill="#544B56"/>
<path d="M244.13 293.72H236.72V301.2H244.13V293.72Z" fill="#544B56"/>
<path d="M259.03 316.1H251.62V323.59H259.03V316.1Z" fill="#544B56"/>
<path d="M259.03 308.62H251.62V316.1H259.03V308.62Z" fill="#544B56"/>
<path d="M259.03 301.2H251.62V308.62H259.03V301.2Z" fill="#544B56"/>
<path d="M259.03 293.72H251.62V301.2H259.03V293.72Z" fill="#544B56"/>
<path d="M251.62 316.1H244.13V323.59H251.62V316.1Z" fill="#544B56"/>
<path d="M251.62 301.2H244.13V308.62H251.62V301.2Z" fill="#544B56"/>
<path d="M251.62 308.62H244.13V316.1H251.62V308.62Z" fill="#544B56"/>
<path d="M251.62 293.72H244.13V301.2H251.62V293.72Z" fill="#544B56"/>
<path d="M244.13 278.819H236.72V286.309H244.13V278.819Z" fill="#544B56"/>
<path d="M251.62 278.819H244.13V286.309H251.62V278.819Z" fill="#544B56"/>
<path d="M236.72 271.41H229.23V278.82H236.72V271.41Z" fill="#544B56"/>
<path d="M236.72 263.92H229.23V271.41H236.72V263.92Z" fill="#544B56"/>
<path d="M244.13 263.92H236.72V271.41H244.13V263.92Z" fill="#544B56"/>
<path d="M244.13 271.41H236.72V278.82H244.13V271.41Z" fill="#544B56"/>
<path d="M244.13 256.439H236.72V263.919H244.13V256.439Z" fill="#544B56"/>
<path d="M251.62 263.92H244.13V271.41H251.62V263.92Z" fill="#544B56"/>
<path d="M251.62 271.41H244.13V278.82H251.62V271.41Z" fill="#544B56"/>
<path d="M259.03 271.41H251.62V278.82H259.03V271.41Z" fill="#544B56"/>
<path d="M199.44 301.2H191.95V308.62H199.44V301.2Z" fill="#544B56"/>
<path d="M199.44 308.62H191.95V316.1H199.44V308.62Z" fill="#544B56"/>
<path d="M199.44 316.1H191.95V323.59H199.44V316.1Z" fill="#544B56"/>
<path d="M199.44 293.72H191.95V301.2H199.44V293.72Z" fill="#544B56"/>
<path d="M191.95 293.72H184.54V301.2H191.95V293.72Z" fill="#544B56"/>
<path d="M191.95 316.1H184.54V323.59H191.95V316.1Z" fill="#544B56"/>
<path d="M184.54 316.1H177.05V323.59H184.54V316.1Z" fill="#544B56"/>
<path d="M206.93 286.3H199.44V293.71H206.93V286.3Z" fill="#544B56"/>
<path d="M206.93 301.2H199.44V308.62H206.93V301.2Z" fill="#544B56"/>
<path d="M206.93 316.1H199.44V323.59H206.93V316.1Z" fill="#544B56"/>
<path d="M206.93 308.62H199.44V316.1H206.93V308.62Z" fill="#544B56"/>
<path d="M206.93 293.72H199.44V301.2H206.93V293.72Z" fill="#544B56"/>
<path d="M311.22 234.12H303.8V241.53H311.22V234.12Z" fill="black"/>
<path d="M311.22 226.63H303.8V234.12H311.22V226.63Z" fill="black"/>
<path d="M311.22 219.22H303.8V226.63H311.22V219.22Z" fill="black"/>
<path d="M311.22 211.739H303.8V219.229H311.22V211.739Z" fill="black"/>
<path d="M311.22 204.33H303.8V211.74H311.22V204.33Z" fill="black"/>
<path d="M311.22 196.84H303.8V204.33H311.22V196.84Z" fill="black"/>
<path d="M311.22 189.35H303.8V196.84H311.22V189.35Z" fill="black"/>
<path d="M311.22 181.939H303.8V189.349H311.22V181.939Z" fill="black"/>
<path d="M311.22 174.45H303.8V181.94H311.22V174.45Z" fill="black"/>
<path d="M303.8 241.529H296.32V249.019H303.8V241.529Z" fill="black"/>
<path d="M303.8 234.12H296.32V241.53H303.8V234.12Z" fill="#544B56"/>
<path d="M303.8 226.63H296.32V234.12H303.8V226.63Z" fill="#544B56"/>
<path d="M303.8 219.22H296.32V226.63H303.8V219.22Z" fill="#544B56"/>
<path d="M303.8 211.739H296.32V219.229H303.8V211.739Z" fill="#544B56"/>
<path d="M303.8 204.33H296.32V211.74H303.8V204.33Z" fill="#544B56"/>
<path d="M303.8 196.84H296.32V204.33H303.8V196.84Z" fill="#544B56"/>
<path d="M303.8 189.35H296.32V196.84H303.8V189.35Z" fill="#544B56"/>
<path d="M303.8 181.939H296.32V189.349H303.8V181.939Z" fill="#544B56"/>
<path d="M303.8 174.45H296.32V181.94H303.8V174.45Z" fill="#544B56"/>
<path d="M303.8 167.04H296.32V174.45H303.8V167.04Z" fill="black"/>
<path d="M296.32 249.02H288.91V256.43H296.32V249.02Z" fill="black"/>
<path d="M296.32 241.529H288.91V249.019H296.32V241.529Z" fill="#544B56"/>
<path d="M296.32 234.12H288.91V241.53H296.32V234.12Z" fill="#89031A"/>
<path d="M296.32 226.63H288.91V234.12H296.32V226.63Z" fill="#89031A"/>
<path d="M296.32 219.22H288.91V226.63H296.32V219.22Z" fill="#89031A"/>
<path d="M296.32 211.739H288.91V219.229H296.32V211.739Z" fill="#89031A"/>
<path d="M296.32 204.33H288.91V211.74H296.32V204.33Z" fill="#89031A"/>
<path d="M296.32 196.84H288.91V204.33H296.32V196.84Z" fill="#89031A"/>
<path d="M296.32 189.35H288.91V196.84H296.32V189.35Z" fill="#89031A"/>
<path d="M296.32 181.939H288.91V189.349H296.32V181.939Z" fill="#89031A"/>
<path d="M296.32 174.45H288.91V181.94H296.32V174.45Z" fill="#544B56"/>
<path d="M296.32 167.04H288.91V174.45H296.32V167.04Z" fill="black"/>
<path d="M288.91 256.439H281.42V263.919H288.91V256.439Z" fill="black"/>
<path d="M288.91 249.02H281.42V256.43H288.91V249.02Z" fill="#544B56"/>
<path d="M288.91 241.529H281.42V249.019H288.91V241.529Z" fill="#89031A"/>
<path d="M288.91 234.12H281.42V241.53H288.91V234.12Z" fill="#89031A"/>
<path d="M288.91 226.63H281.42V234.12H288.91V226.63Z" fill="#89031A"/>
<path d="M288.91 219.22H281.42V226.63H288.91V219.22Z" fill="#89031A"/>
<path d="M288.91 211.739H281.42V219.229H288.91V211.739Z" fill="#89031A"/>
<path d="M288.91 204.33H281.42V211.74H288.91V204.33Z" fill="#89031A"/>
<path d="M288.91 196.84H281.42V204.33H288.91V196.84Z" fill="#89031A"/>
<path d="M288.91 189.35H281.42V196.84H288.91V189.35Z" fill="#89031A"/>
<path d="M288.91 181.939H281.42V189.349H288.91V181.939Z" fill="#544B56"/>
<path d="M288.91 174.45H281.42V181.94H288.91V174.45Z" fill="black"/>
<path d="M281.42 316.1H274.01V323.59H281.42V316.1Z" fill="black"/>
<path d="M281.42 263.92H274.01V271.41H281.42V263.92Z" fill="black"/>
<path d="M281.42 256.439H274.01V263.919H281.42V256.439Z" fill="#544B56"/>
<path d="M281.42 249.02H274.01V256.43H281.42V249.02Z" fill="#89031A"/>
<path d="M281.42 241.529H274.01V249.019H281.42V241.529Z" fill="#89031A"/>
<path d="M281.42 234.12H274.01V241.53H281.42V234.12Z" fill="#89031A"/>
<path d="M281.42 226.63H274.01V234.12H281.42V226.63Z" fill="#89031A"/>
<path d="M281.42 219.22H274.01V226.63H281.42V219.22Z" fill="#89031A"/>
<path d="M281.42 211.739H274.01V219.229H281.42V211.739Z" fill="#89031A"/>
<path d="M281.42 204.33H274.01V211.74H281.42V204.33Z" fill="#89031A"/>
<path d="M281.42 196.84H274.01V204.33H281.42V196.84Z" fill="#89031A"/>
<path d="M281.42 189.35H274.01V196.84H281.42V189.35Z" fill="#89031A"/>
<path d="M281.42 181.939H274.01V189.349H281.42V181.939Z" fill="#544B56"/>
<path d="M281.42 174.45H274.01V181.94H281.42V174.45Z" fill="black"/>
<path d="M274.01 308.62H266.52V316.1H274.01V308.62Z" fill="black"/>
<path d="M274.01 286.3H266.52V293.71H274.01V286.3Z" fill="black"/>
<path d="M274.01 263.92H266.52V271.41H274.01V263.92Z" fill="black"/>
<path d="M274.01 256.439H266.52V263.919H274.01V256.439Z" fill="#9087B5"/>
<path d="M274.01 249.02H266.52V256.43H274.01V249.02Z" fill="#544B56"/>
<path d="M274.01 241.529H266.52V249.019H274.01V241.529Z" fill="#A30417"/>
<path d="M274.01 234.12H266.52V241.53H274.01V234.12Z" fill="#A30417"/>
<path d="M274.01 226.63H266.52V234.12H274.01V226.63Z" fill="#A30417"/>
<path d="M274.01 219.22H266.52V226.63H274.01V219.22Z" fill="#A30417"/>
<path d="M274.01 211.739H266.52V219.229H274.01V211.739Z" fill="#EF0012"/>
<path d="M274.01 204.33H266.52V211.74H274.01V204.33Z" fill="#EF0012"/>
<path d="M274.01 196.84H266.52V204.33H274.01V196.84Z" fill="#EF0012"/>
<path d="M274.01 189.35H266.52V196.84H274.01V189.35Z" fill="#EF0012"/>
<path d="M274.01 181.939H266.52V189.349H274.01V181.939Z" fill="#9087B5"/>
<path d="M274.01 174.45H266.52V181.94H274.01V174.45Z" fill="black"/>
<path d="M274.01 167.04H266.52V174.45H274.01V167.04Z" fill="black"/>
<path d="M266.52 301.2H259.04V308.62H266.52V301.2Z" fill="black"/>
<path d="M266.52 293.72H259.04V301.2H266.52V293.72Z" fill="black"/>
<path d="M266.52 286.3H259.04V293.71H266.52V286.3Z" fill="#9087B5"/>
<path d="M266.52 278.819H259.04V286.309H266.52V278.819Z" fill="black"/>
<path d="M266.52 271.41H259.04V278.82H266.52V271.41Z" fill="black"/>
<path d="M266.52 263.92H259.04V271.41H266.52V263.92Z" fill="black"/>
<path d="M266.52 256.439H259.04V263.919H266.52V256.439Z" fill="black"/>
<path d="M266.52 249.02H259.04V256.43H266.52V249.02Z" fill="#9087B5"/>
<path d="M266.52 241.529H259.04V249.019H266.52V241.529Z" fill="#544B56"/>
<path d="M266.52 234.12H259.04V241.53H266.52V234.12Z" fill="#A30417"/>
<path d="M266.52 226.63H259.04V234.12H266.52V226.63Z" fill="#A30417"/>
<path d="M266.52 219.22H259.04V226.63H266.52V219.22Z" fill="#A30417"/>
<path d="M266.52 211.739H259.04V219.229H266.52V211.739Z" fill="#A30417"/>
<path d="M266.52 204.33H259.04V211.74H266.52V204.33Z" fill="#EF0012"/>
<path d="M266.52 196.84H259.04V204.33H266.52V196.84Z" fill="#EF0012"/>
<path d="M266.52 189.35H259.04V196.84H266.52V189.35Z" fill="#EF0012"/>
<path d="M266.52 174.45H259.04V181.94H266.52V174.45Z" fill="black"/>
<path d="M266.52 167.04H259.04V174.45H266.52V167.04Z" fill="#9087B5"/>
<path d="M266.52 159.55H259.04V167.04H266.52V159.55Z" fill="black"/>
<path d="M266.52 137.17H259.04V144.66H266.52V137.17Z" fill="black"/>
<path d="M266.52 129.76H259.04V137.17H266.52V129.76Z" fill="black"/>
<path d="M266.52 122.27H259.04V129.76H266.52V122.27Z" fill="black"/>
<path d="M259.03 278.819H251.62V286.309H259.03V278.819Z" fill="black"/>
<path d="M259.03 263.92H251.62V271.41H259.03V263.92Z" fill="black"/>
<path d="M259.03 256.439H251.62V263.919H259.03V256.439Z" fill="black"/>
<path d="M259.03 249.02H251.62V256.43H259.03V249.02Z" fill="black"/>
<path d="M259.03 241.529H251.62V249.019H259.03V241.529Z" fill="#9087B5"/>
<path d="M259.03 234.12H251.62V241.53H259.03V234.12Z" fill="#A30417"/>
<path d="M259.03 226.63H251.62V234.12H259.03V226.63Z" fill="#A30417"/>
<path d="M259.03 219.22H251.62V226.63H259.03V219.22Z" fill="#A30417"/>
<path d="M259.03 211.739H251.62V219.229H259.03V211.739Z" fill="#A30417"/>
<path d="M259.03 204.33H251.62V211.74H259.03V204.33Z" fill="#A30417"/>
<path d="M259.03 196.84H251.62V204.33H259.03V196.84Z" fill="#EF0012"/>
<path d="M259.03 189.35H251.62V196.84H259.03V189.35Z" fill="#EF0012"/>
<path d="M259.03 174.45H251.62V181.94H259.03V174.45Z" fill="black"/>
<path d="M259.03 159.55H251.62V167.04H259.03V159.55Z" fill="black"/>
<path d="M259.03 144.649H251.62V152.139H259.03V144.649Z" fill="black"/>
<path d="M259.03 137.17H251.62V144.66H259.03V137.17Z" fill="#544B56"/>
<path d="M259.03 129.76H251.62V137.17H259.03V129.76Z" fill="black"/>
<path d="M259.03 122.27H251.62V129.76H259.03V122.27Z" fill="#544B56"/>
<path d="M259.03 114.859H251.62V122.269H259.03V114.859Z" fill="black"/>
<path d="M259.03 107.37H251.62V114.86H259.03V107.37Z" fill="black"/>
<path d="M251.62 256.439H244.13V263.919H251.62V256.439Z" fill="black"/>
<path d="M251.62 249.02H244.13V256.43H251.62V249.02Z" fill="black"/>
<path d="M251.62 241.529H244.13V249.019H251.62V241.529Z" fill="black"/>
<path d="M251.62 234.12H244.13V241.53H251.62V234.12Z" fill="#9087B5"/>
<path d="M251.62 226.63H244.13V234.12H251.62V226.63Z" fill="#9087B5"/>
<path d="M251.62 219.22H244.13V226.63H251.62V219.22Z" fill="#9087B5"/>
<path d="M251.62 211.739H244.13V219.229H251.62V211.739Z" fill="#9087B5"/>
<path d="M251.62 174.45H244.13V181.94H251.62V174.45Z" fill="black"/>
<path d="M251.62 159.55H244.13V167.04H251.62V159.55Z" fill="black"/>
<path d="M251.62 152.14H244.13V159.55H251.62V152.14Z" fill="black"/>
<path d="M251.62 144.649H244.13V152.139H251.62V144.649Z" fill="#544B56"/>
<path d="M251.62 137.17H244.13V144.66H251.62V137.17Z" fill="#544B56"/>
<path d="M251.62 129.76H244.13V137.17H251.62V129.76Z" fill="black"/>
<path d="M251.62 122.27H244.13V129.76H251.62V122.27Z" fill="#9087B5"/>
<path d="M251.62 114.859H244.13V122.269H251.62V114.859Z" fill="#544B56"/>
<path d="M251.62 107.37H244.13V114.86H251.62V107.37Z" fill="#9087B5"/>
<path d="M251.62 99.96H244.13V107.37H251.62V99.96Z" fill="black"/>
<path d="M244.13 316.1H236.72V323.59H244.13V316.1Z" fill="black"/>
<path d="M244.13 308.62H236.72V316.1H244.13V308.62Z" fill="black"/>
<path d="M244.13 301.2H236.72V308.62H244.13V301.2Z" fill="black"/>
<path d="M244.13 286.3H236.72V293.71H244.13V286.3Z" fill="#9087B5"/>
<path d="M244.13 249.02H236.72V256.43H244.13V249.02Z" fill="black"/>
<path d="M244.13 241.529H236.72V249.019H244.13V241.529Z" fill="black"/>
<path d="M244.13 234.12H236.72V241.53H244.13V234.12Z" fill="black"/>
<path d="M244.13 226.63H236.72V234.12H244.13V226.63Z" fill="black"/>
<path d="M244.13 219.22H236.72V226.63H244.13V219.22Z" fill="black"/>
<path d="M244.13 211.739H236.72V219.229H244.13V211.739Z" fill="black"/>
<path d="M244.13 204.33H236.72V211.74H244.13V204.33Z" fill="black"/>
<path d="M244.13 196.84H236.72V204.33H244.13V196.84Z" fill="black"/>
<path d="M244.13 189.35H236.72V196.84H244.13V189.35Z" fill="black"/>
<path d="M244.13 181.939H236.72V189.349H244.13V181.939Z" fill="black"/>
<path d="M244.13 174.45H236.72V181.94H244.13V174.45Z" fill="black"/>
<path d="M244.13 167.04H236.72V174.45H244.13V167.04Z" fill="#9087B5"/>
<path d="M244.13 159.55H236.72V167.04H244.13V159.55Z" fill="black"/>
<path d="M244.13 129.76H236.72V137.17H244.13V129.76Z" fill="black"/>
<path d="M244.13 122.27H236.72V129.76H244.13V122.27Z" fill="#9087B5"/>
<path d="M244.13 114.859H236.72V122.269H244.13V114.859Z" fill="#9087B5"/>
<path d="M244.13 107.37H236.72V114.86H244.13V107.37Z" fill="#544B56"/>
<path d="M244.13 99.96H236.72V107.37H244.13V99.96Z" fill="#9087B5"/>
<path d="M244.13 92.4697H236.72V99.9597H244.13V92.4697Z" fill="black"/>
<path d="M236.72 293.72H229.23V301.2H236.72V293.72Z" fill="black"/>
<path d="M236.72 286.3H229.23V293.71H236.72V286.3Z" fill="black"/>
<path d="M236.72 278.819H229.23V286.309H236.72V278.819Z" fill="black"/>
<path d="M236.72 256.439H229.23V263.919H236.72V256.439Z" fill="black"/>
<path d="M236.72 249.02H229.23V256.43H236.72V249.02Z" fill="black"/>
<path d="M236.72 241.529H229.23V249.019H236.72V241.529Z" fill="black"/>
<path d="M236.72 234.12H229.23V241.53H236.72V234.12Z" fill="black"/>
<path d="M236.72 226.63H229.23V234.12H236.72V226.63Z" fill="black"/>
<path d="M236.72 219.22H229.23V226.63H236.72V219.22Z" fill="black"/>
<path d="M236.72 211.739H229.23V219.229H236.72V211.739Z" fill="#544B56"/>
<path d="M236.72 204.33H229.23V211.74H236.72V204.33Z" fill="#9087B5"/>
<path d="M236.72 196.84H229.23V204.33H236.72V196.84Z" fill="#9087B5"/>
<path d="M236.72 189.35H229.23V196.84H236.72V189.35Z" fill="#9087B5"/>
<path d="M236.72 181.939H229.23V189.349H236.72V181.939Z" fill="#9087B5"/>
<path d="M236.72 174.45H229.23V181.94H236.72V174.45Z" fill="#9087B5"/>
<path d="M236.72 129.76H229.23V137.17H236.72V129.76Z" fill="black"/>
<path d="M236.72 122.27H229.23V129.76H236.72V122.27Z" fill="#9087B5"/>
<path d="M236.72 114.859H229.23V122.269H236.72V114.859Z" fill="#9087B5"/>
<path d="M236.72 107.37H229.23V114.86H236.72V107.37Z" fill="#544B56"/>
<path d="M236.72 92.4697H229.23V99.9597H236.72V92.4697Z" fill="black"/>
<path d="M229.23 271.41H221.82V278.82H229.23V271.41Z" fill="black"/>
<path d="M229.23 263.92H221.82V271.41H229.23V263.92Z" fill="black"/>
<path d="M229.23 256.439H221.82V263.919H229.23V256.439Z" fill="#544B56"/>
<path d="M229.23 249.02H221.82V256.43H229.23V249.02Z" fill="#9087B5"/>
<path d="M229.23 241.529H221.82V249.019H229.23V241.529Z" fill="#9087B5"/>
<path d="M229.23 234.12H221.82V241.53H229.23V234.12Z" fill="#9087B5"/>
<path d="M229.23 226.63H221.82V234.12H229.23V226.63Z" fill="black"/>
<path d="M229.23 219.22H221.82V226.63H229.23V219.22Z" fill="#544B56"/>
<path d="M229.23 211.739H221.82V219.229H229.23V211.739Z" fill="#9087B5"/>
<path d="M229.23 204.33H221.82V211.74H229.23V204.33Z" fill="#9087B5"/>
<path d="M229.23 196.84H221.82V204.33H229.23V196.84Z" fill="#9087B5"/>
<path d="M229.23 129.76H221.82V137.17H229.23V129.76Z" fill="black"/>
<path d="M229.23 122.27H221.82V129.76H229.23V122.27Z" fill="#9087B5"/>
<path d="M229.23 114.859H221.82V122.269H229.23V114.859Z" fill="#9087B5"/>
<path d="M229.23 107.37H221.82V114.86H229.23V107.37Z" fill="#544B56"/>
<path d="M229.23 92.4697H221.82V99.9597H229.23V92.4697Z" fill="black"/>
<path d="M221.83 271.41H214.34V278.82H221.83V271.41Z" fill="black"/>
<path d="M221.83 263.92H214.34V271.41H221.83V263.92Z" fill="black"/>
<path d="M221.83 256.439H214.34V263.919H221.83V256.439Z" fill="#9087B5"/>
<path d="M221.83 249.02H214.34V256.43H221.83V249.02Z" fill="#9087B5"/>
<path d="M221.83 241.529H214.34V249.019H221.83V241.529Z" fill="#9087B5"/>
<path d="M221.83 226.63H214.34V234.12H221.83V226.63Z" fill="#544B56"/>
<path d="M221.83 219.22H214.34V226.63H221.83V219.22Z" fill="#9087B5"/>
<path d="M221.83 211.739H214.34V219.229H221.83V211.739Z" fill="#9087B5"/>
<path d="M221.83 204.33H214.34V211.74H221.83V204.33Z" fill="#9087B5"/>
<path d="M221.83 174.45H214.34V181.94H221.83V174.45Z" fill="#9087B5"/>
<path d="M221.83 129.76H214.34V137.17H221.83V129.76Z" fill="black"/>
<path d="M221.83 122.27H214.34V129.76H221.83V122.27Z" fill="#9087B5"/>
<path d="M221.83 114.859H214.34V122.269H221.83V114.859Z" fill="#9087B5"/>
<path d="M221.83 92.4697H214.34V99.9597H221.83V92.4697Z" fill="black"/>
<path d="M214.34 316.1H206.93V323.59H214.34V316.1Z" fill="black"/>
<path d="M214.34 308.62H206.93V316.1H214.34V308.62Z" fill="black"/>
<path d="M214.34 301.2H206.93V308.62H214.34V301.2Z" fill="black"/>
<path d="M214.34 293.72H206.93V301.2H214.34V293.72Z" fill="black"/>
<path d="M214.34 286.3H206.93V293.71H214.34V286.3Z" fill="black"/>
<path d="M214.34 278.819H206.93V286.309H214.34V278.819Z" fill="black"/>
<path d="M214.34 271.41H206.93V278.82H214.34V271.41Z" fill="#544B56"/>
<path d="M214.34 263.92H206.93V271.41H214.34V263.92Z" fill="black"/>
<path d="M214.34 256.439H206.93V263.919H214.34V256.439Z" fill="#544B56"/>
<path d="M214.34 249.02H206.93V256.43H214.34V249.02Z" fill="#544B56"/>
<path d="M214.34 241.529H206.93V249.019H214.34V241.529Z" fill="#544B56"/>
<path d="M214.34 234.12H206.93V241.53H214.34V234.12Z" fill="#544B56"/>
<path d="M214.34 226.63H206.93V234.12H214.34V226.63Z" fill="#544B56"/>
<path d="M214.34 219.22H206.93V226.63H214.34V219.22Z" fill="#544B56"/>
<path d="M214.34 211.739H206.93V219.229H214.34V211.739Z" fill="#544B56"/>
<path d="M214.34 204.33H206.93V211.74H214.34V204.33Z" fill="#544B56"/>
<path d="M214.34 196.84H206.93V204.33H214.34V196.84Z" fill="#544B56"/>
<path d="M214.34 189.35H206.93V196.84H214.34V189.35Z" fill="#9087B5"/>
<path d="M214.34 181.939H206.93V189.349H214.34V181.939Z" fill="#9087B5"/>
<path d="M214.34 174.45H206.93V181.94H214.34V174.45Z" fill="#9087B5"/>
<path d="M214.34 159.55H206.93V167.04H214.34V159.55Z" fill="black"/>
<path d="M214.34 129.76H206.93V137.17H214.34V129.76Z" fill="black"/>
<path d="M214.34 122.27H206.93V129.76H214.34V122.27Z" fill="#544B56"/>
<path d="M214.34 114.859H206.93V122.269H214.34V114.859Z" fill="#544B56"/>
<path d="M214.34 99.96H206.93V107.37H214.34V99.96Z" fill="#9087B5"/>
<path d="M214.34 92.4697H206.93V99.9597H214.34V92.4697Z" fill="black"/>
<path d="M206.93 278.819H199.44V286.309H206.93V278.819Z" fill="black"/>
<path d="M206.93 271.41H199.44V278.82H206.93V271.41Z" fill="#544B56"/>
<path d="M206.93 263.92H199.44V271.41H206.93V263.92Z" fill="#544B56"/>
<path d="M206.93 256.439H199.44V263.919H206.93V256.439Z" fill="black"/>
<path d="M206.93 249.02H199.44V256.43H206.93V249.02Z" fill="black"/>
<path d="M206.93 241.529H199.44V249.019H206.93V241.529Z" fill="black"/>
<path d="M206.93 234.12H199.44V241.53H206.93V234.12Z" fill="black"/>
<path d="M206.93 226.63H199.44V234.12H206.93V226.63Z" fill="black"/>
<path d="M206.93 219.22H199.44V226.63H206.93V219.22Z" fill="black"/>
<path d="M206.93 211.739H199.44V219.229H206.93V211.739Z" fill="#544B56"/>
<path d="M206.93 204.33H199.44V211.74H206.93V204.33Z" fill="#544B56"/>
<path d="M206.93 196.84H199.44V204.33H206.93V196.84Z" fill="#544B56"/>
<path d="M206.93 189.35H199.44V196.84H206.93V189.35Z" fill="#9087B5"/>
<path d="M206.93 181.939H199.44V189.349H206.93V181.939Z" fill="#9087B5"/>
<path d="M206.93 174.45H199.44V181.94H206.93V174.45Z" fill="#544B56"/>
<path d="M206.93 167.04H199.44V174.45H206.93V167.04Z" fill="#544B56"/>
<path d="M206.93 159.55H199.44V167.04H206.93V159.55Z" fill="black"/>
<path d="M206.93 152.14H199.44V159.55H206.93V152.14Z" fill="black"/>
<path d="M206.93 144.649H199.44V152.139H206.93V144.649Z" fill="#544B56"/>
<path d="M206.93 137.17H199.44V144.66H206.93V137.17Z" fill="#544B56"/>
<path d="M206.93 129.76H199.44V137.17H206.93V129.76Z" fill="black"/>
<path d="M206.93 122.27H199.44V129.76H206.93V122.27Z" fill="#544B56"/>
<path d="M206.93 114.859H199.44V122.269H206.93V114.859Z" fill="#544B56"/>
<path d="M206.93 107.37H199.44V114.86H206.93V107.37Z" fill="black"/>
<path d="M206.93 99.96H199.44V107.37H206.93V99.96Z" fill="black"/>
<path d="M199.44 286.3H191.95V293.71H199.44V286.3Z" fill="#9087B5"/>
<path d="M199.44 278.819H191.95V286.309H199.44V278.819Z" fill="#544B56"/>
<path d="M199.44 271.41H191.95V278.82H199.44V271.41Z" fill="#544B56"/>
<path d="M199.44 263.92H191.95V271.41H199.44V263.92Z" fill="#544B56"/>
<path d="M199.44 256.439H191.95V263.919H199.44V256.439Z" fill="#544B56"/>
<path d="M199.44 249.02H191.95V256.43H199.44V249.02Z" fill="black"/>
<path d="M199.44 241.529H191.95V249.019H199.44V241.529Z" fill="#9087B5"/>
<path d="M199.44 234.12H191.95V241.53H199.44V234.12Z" fill="#9087B5"/>
<path d="M199.44 226.63H191.95V234.12H199.44V226.63Z" fill="black"/>
<path d="M199.44 219.22H191.95V226.63H199.44V219.22Z" fill="black"/>
<path d="M199.44 211.739H191.95V219.229H199.44V211.739Z" fill="black"/>
<path d="M199.44 204.33H191.95V211.74H199.44V204.33Z" fill="#544B56"/>
<path d="M199.44 196.84H191.95V204.33H199.44V196.84Z" fill="#544B56"/>
<path d="M199.44 189.35H191.95V196.84H199.44V189.35Z" fill="black"/>
<path d="M199.44 181.939H191.95V189.349H199.44V181.939Z" fill="black"/>
<path d="M199.44 174.45H191.95V181.94H199.44V174.45Z" fill="#544B56"/>
<path d="M199.44 167.04H191.95V174.45H199.44V167.04Z" fill="#9087B5"/>
<path d="M199.44 159.55H191.95V167.04H199.44V159.55Z" fill="black"/>
<path d="M199.44 144.649H191.95V152.139H199.44V144.649Z" fill="black"/>
<path d="M199.44 137.17H191.95V144.66H199.44V137.17Z" fill="black"/>
<path d="M199.44 129.76H191.95V137.17H199.44V129.76Z" fill="black"/>
<path d="M199.44 122.27H191.95V129.76H199.44V122.27Z" fill="#9087B5"/>
<path d="M199.44 114.859H191.95V122.269H199.44V114.859Z" fill="#9087B5"/>
<path d="M199.44 107.37H191.95V114.86H199.44V107.37Z" fill="black"/>
<path d="M191.95 308.62H184.54V316.1H191.95V308.62Z" fill="black"/>
<path d="M191.95 301.2H184.54V308.62H191.95V301.2Z" fill="black"/>
<path d="M191.95 278.819H184.54V286.309H191.95V278.819Z" fill="#544B56"/>
<path d="M191.95 271.41H184.54V278.82H191.95V271.41Z" fill="#544B56"/>
<path d="M191.95 263.92H184.54V271.41H191.95V263.92Z" fill="#544B56"/>
<path d="M191.95 256.439H184.54V263.919H191.95V256.439Z" fill="black"/>
<path d="M191.95 249.02H184.54V256.43H191.95V249.02Z" fill="#9087B5"/>
<path d="M191.95 241.529H184.54V249.019H191.95V241.529Z" fill="#9087B5"/>
<path d="M191.95 234.12H184.54V241.53H191.95V234.12Z" fill="#544B56"/>
<path d="M191.95 226.63H184.54V234.12H191.95V226.63Z" fill="black"/>
<path d="M191.95 219.22H184.54V226.63H191.95V219.22Z" fill="black"/>
<path d="M191.95 211.739H184.54V219.229H191.95V211.739Z" fill="black"/>
<path d="M191.95 204.33H184.54V211.74H191.95V204.33Z" fill="black"/>
<path d="M191.95 196.84H184.54V204.33H191.95V196.84Z" fill="black"/>
<path d="M191.95 189.35H184.54V196.84H191.95V189.35Z" fill="#544B56"/>
<path d="M191.95 181.939H184.54V189.349H191.95V181.939Z" fill="#544B56"/>
<path d="M191.95 174.45H184.54V181.94H191.95V174.45Z" fill="#9087B5"/>
<path d="M191.95 167.04H184.54V174.45H191.95V167.04Z" fill="#9087B5"/>
<path d="M191.95 159.55H184.54V167.04H191.95V159.55Z" fill="black"/>
<path d="M191.95 129.76H184.54V137.17H191.95V129.76Z" fill="black"/>
<path d="M191.95 122.27H184.54V129.76H191.95V122.27Z" fill="black"/>
<path d="M191.95 114.859H184.54V122.269H191.95V114.859Z" fill="black"/>
<path d="M184.54 308.62H177.05V316.1H184.54V308.62Z" fill="black"/>
<path d="M184.54 293.72H177.05V301.2H184.54V293.72Z" fill="black"/>
<path d="M184.54 286.3H177.05V293.71H184.54V286.3Z" fill="#9087B5"/>
<path d="M184.54 278.819H177.05V286.309H184.54V278.819Z" fill="black"/>
<path d="M184.54 271.41H177.05V278.82H184.54V271.41Z" fill="black"/>
<path d="M184.54 263.92H177.05V271.41H184.54V263.92Z" fill="black"/>
<path d="M184.54 256.439H177.05V263.919H184.54V256.439Z" fill="black"/>
<path d="M184.54 249.02H177.05V256.43H184.54V249.02Z" fill="black"/>
<path d="M184.54 241.529H177.05V249.019H184.54V241.529Z" fill="black"/>
<path d="M184.54 234.12H177.05V241.53H184.54V234.12Z" fill="black"/>
<path d="M184.54 226.63H177.05V234.12H184.54V226.63Z" fill="black"/>
<path d="M184.54 196.84H177.05V204.33H184.54V196.84Z" fill="black"/>
<path d="M184.54 189.35H177.05V196.84H184.54V189.35Z" fill="#544B56"/>
<path d="M184.54 181.939H177.05V189.349H184.54V181.939Z" fill="#9087B5"/>
<path d="M184.54 174.45H177.05V181.94H184.54V174.45Z" fill="#9087B5"/>
<path d="M184.54 167.04H177.05V174.45H184.54V167.04Z" fill="black"/>
<path d="M177.05 316.1H169.64V323.59H177.05V316.1Z" fill="black"/>
<path d="M177.05 286.3H169.64V293.71H177.05V286.3Z" fill="black"/>
<path d="M177.05 226.63H169.64V234.12H177.05V226.63Z" fill="black"/>
<path d="M177.05 196.84H169.64V204.33H177.05V196.84Z" fill="black"/>
<path d="M177.05 189.35H169.64V196.84H177.05V189.35Z" fill="black"/>
<path d="M177.05 181.939H169.64V189.349H177.05V181.939Z" fill="black"/>
<path d="M177.05 174.45H169.64V181.94H177.05V174.45Z" fill="black"/>
<path d="M169.64 234.12H162.15V241.53H169.64V234.12Z" fill="black"/>
<path d="M169.64 196.84H162.15V204.33H169.64V196.84Z" fill="black"/>
<path d="M162.15 226.63H154.74V234.12H162.15V226.63Z" fill="black"/>
<path d="M162.15 204.33H154.74V211.74H162.15V204.33Z" fill="black"/>
<path d="M154.74 249.02H147.25V256.43H154.74V249.02Z" fill="black"/>
<path d="M154.74 241.529H147.25V249.019H154.74V241.529Z" fill="black"/>
<path d="M154.74 234.12H147.25V241.53H154.74V234.12Z" fill="black"/>
<path d="M154.74 226.63H147.25V234.12H154.74V226.63Z" fill="black"/>
<path d="M154.74 204.33H147.25V211.74H154.74V204.33Z" fill="black"/>
<path d="M154.74 196.84H147.25V204.33H154.74V196.84Z" fill="black"/>
<path d="M154.74 189.35H147.25V196.84H154.74V189.35Z" fill="black"/>
<path d="M147.26 249.02H139.77V256.43H147.26V249.02Z" fill="black"/>
<path d="M147.26 226.63H139.77V234.12H147.26V226.63Z" fill="black"/>
<path d="M147.26 196.84H139.77V204.33H147.26V196.84Z" fill="#9087B5"/>
<path d="M147.26 189.35H139.77V196.84H147.26V189.35Z" fill="#E7DACE"/>
<path d="M147.26 181.939H139.77V189.349H147.26V181.939Z" fill="black"/>
<path d="M139.77 249.02H132.36V256.43H139.77V249.02Z" fill="black"/>
<path d="M139.77 241.529H132.36V249.019H139.77V241.529Z" fill="black"/>
<path d="M139.77 234.12H132.36V241.53H139.77V234.12Z" fill="black"/>
<path d="M139.77 226.63H132.36V234.12H139.77V226.63Z" fill="black"/>
<path d="M139.77 196.84H132.36V204.33H139.77V196.84Z" fill="#9087B5"/>
<path d="M139.77 181.939H132.36V189.349H139.77V181.939Z" fill="black"/>
<path d="M139.77 174.45H132.36V181.94H139.77V174.45Z" fill="black"/>
<path d="M139.77 167.04H132.36V174.45H139.77V167.04Z" fill="black"/>
<path d="M132.36 226.63H124.87V234.12H132.36V226.63Z" fill="black"/>
<path d="M132.36 219.22H124.87V226.63H132.36V219.22Z" fill="black"/>
<path d="M132.36 211.739H124.87V219.229H132.36V211.739Z" fill="black"/>
<path d="M132.36 204.33H124.87V211.74H132.36V204.33Z" fill="#9087B5"/>
<path d="M132.36 196.84H124.87V204.33H132.36V196.84Z" fill="#544B56"/>
<path d="M132.36 189.35H124.87V196.84H132.36V189.35Z" fill="#E7DACE"/>
<path d="M132.36 181.939H124.87V189.349H132.36V181.939Z" fill="#E7DACE"/>
<path d="M132.36 174.45H124.87V181.94H132.36V174.45Z" fill="#E7DACE"/>
<path d="M132.36 167.04H124.87V174.45H132.36V167.04Z" fill="#E7DACE"/>
<path d="M132.36 159.55H124.87V167.04H132.36V159.55Z" fill="black"/>
<path d="M132.36 152.14H124.87V159.55H132.36V152.14Z" fill="black"/>
<path d="M132.36 144.649H124.87V152.139H132.36V144.649Z" fill="black"/>
<path d="M124.87 211.739H117.46V219.229H124.87V211.739Z" fill="black"/>
<path d="M124.87 204.33H117.46V211.74H124.87V204.33Z" fill="#9087B5"/>
<path d="M124.87 196.84H117.46V204.33H124.87V196.84Z" fill="#544B56"/>
<path d="M124.87 189.35H117.46V196.84H124.87V189.35Z" fill="#E7DACE"/>
<path d="M124.87 181.939H117.46V189.349H124.87V181.939Z" fill="#E7DACE"/>
<path d="M124.87 174.45H117.46V181.94H124.87V174.45Z" fill="#E7DACE"/>
<path d="M124.87 167.04H117.46V174.45H124.87V167.04Z" fill="#E7DACE"/>
<path d="M124.87 159.55H117.46V167.04H124.87V159.55Z" fill="#E7DACE"/>
<path d="M124.87 152.14H117.46V159.55H124.87V152.14Z" fill="#E7DACE"/>
<path d="M124.87 144.649H117.46V152.139H124.87V144.649Z" fill="#E7DACE"/>
<path d="M124.87 137.17H117.46V144.66H124.87V137.17Z" fill="black"/>
<path d="M124.87 129.76H117.46V137.17H124.87V129.76Z" fill="black"/>
<path d="M124.87 122.27H117.46V129.76H124.87V122.27Z" fill="black"/>
<path d="M117.46 211.739H109.97V219.229H117.46V211.739Z" fill="black"/>
<path d="M117.46 204.33H109.97V211.74H117.46V204.33Z" fill="#E7DACE"/>
<path d="M117.46 196.84H109.97V204.33H117.46V196.84Z" fill="black"/>
<path d="M117.46 189.35H109.97V196.84H117.46V189.35Z" fill="black"/>
<path d="M117.46 181.939H109.97V189.349H117.46V181.939Z" fill="black"/>
<path d="M117.46 174.45H109.97V181.94H117.46V174.45Z" fill="black"/>
<path d="M117.46 167.04H109.97V174.45H117.46V167.04Z" fill="#E7DACE"/>
<path d="M117.46 159.55H109.97V167.04H117.46V159.55Z" fill="#E7DACE"/>
<path d="M117.46 152.14H109.97V159.55H117.46V152.14Z" fill="#E7DACE"/>
<path d="M117.46 144.649H109.97V152.139H117.46V144.649Z" fill="#E7DACE"/>
<path d="M117.46 137.17H109.97V144.66H117.46V137.17Z" fill="#E7DACE"/>
<path d="M117.46 129.76H109.97V137.17H117.46V129.76Z" fill="#E7DACE"/>
<path d="M117.46 122.27H109.97V129.76H117.46V122.27Z" fill="#E7DACE"/>
<path d="M117.46 114.859H109.97V122.269H117.46V114.859Z" fill="black"/>
<path d="M117.46 107.37H109.97V114.86H117.46V107.37Z" fill="black"/>
<path d="M109.97 204.33H102.56V211.74H109.97V204.33Z" fill="black"/>
<path d="M109.97 167.04H102.56V174.45H109.97V167.04Z" fill="black"/>
<path d="M109.97 159.55H102.56V167.04H109.97V159.55Z" fill="black"/>
<path d="M109.97 152.14H102.56V159.55H109.97V152.14Z" fill="black"/>
<path d="M109.97 144.649H102.56V152.139H109.97V144.649Z" fill="#E7DACE"/>
<path d="M109.97 137.17H102.56V144.66H109.97V137.17Z" fill="#E7DACE"/>
<path d="M109.97 129.76H102.56V137.17H109.97V129.76Z" fill="#E7DACE"/>
<path d="M109.97 122.27H102.56V129.76H109.97V122.27Z" fill="#E7DACE"/>
<path d="M109.97 114.859H102.56V122.269H109.97V114.859Z" fill="#E7DACE"/>
<path d="M109.97 107.37H102.56V114.86H109.97V107.37Z" fill="#E7DACE"/>
<path d="M109.97 99.96H102.56V107.37H109.97V99.96Z" fill="black"/>
<path d="M102.56 144.649H95.0698V152.139H102.56V144.649Z" fill="black"/>
<path d="M102.56 137.17H95.0698V144.66H102.56V137.17Z" fill="black"/>
<path d="M102.56 129.76H95.0698V137.17H102.56V129.76Z" fill="black"/>
<path d="M102.56 122.27H95.0698V129.76H102.56V122.27Z" fill="#E7DACE"/>
<path d="M102.56 114.859H95.0698V122.269H102.56V114.859Z" fill="#E7DACE"/>
<path d="M102.56 107.37H95.0698V114.86H102.56V107.37Z" fill="#E7DACE"/>
<path d="M102.56 99.96H95.0698V107.37H102.56V99.96Z" fill="black"/>
<path d="M95.0699 122.27H87.6599V129.76H95.0699V122.27Z" fill="black"/>
<path d="M95.0699 114.859H87.6599V122.269H95.0699V114.859Z" fill="black"/>
<path d="M95.0699 107.37H87.6599V114.86H95.0699V107.37Z" fill="black"/>
</svg>
