<svg width="96" height="96" viewBox="0 0 96 96" fill="none" xmlns="http://www.w3.org/2000/svg">
<path d="M76 46C76 53.73 70.63 60 64 60C57.37 60 52 53.73 52 46" stroke="#FF3864" stroke-width="2"/>
<path d="M52.1801 37.9098C52.6673 35.1286 54.1196 32.6083 56.2815 30.7922C58.4434 28.9761 61.1765 27.9805 64.0001 27.9805C66.8236 27.9805 69.5567 28.9761 71.7186 30.7922C73.8805 32.6083 75.3328 35.1286 75.8201 37.9098" stroke="#FF3864" stroke-width="2"/>
<path d="M80 44L64 52L48 44V40L64 32L80 40V44Z" stroke="#FF3864" stroke-width="2"/>
<path d="M64 28V52" stroke="#FF3864" stroke-width="2"/>
<path d="M74 40V44" stroke="#FF3864" stroke-width="2"/>
<path d="M54 40V44" stroke="#FF3864" stroke-width="2"/>
<path d="M59 38.5V45.5" stroke="#FF3864" stroke-width="2"/>
<path d="M69 38.5V45.5" stroke="#FF3864" stroke-width="2"/>
<path d="M72 56C72 56 72 60 80 64C72 72 64 88 64 88C64 88 56 72 48 64C56 60 56 56 56 56" stroke="#FF3864" stroke-width="2"/>
<path d="M64 71C65.6569 71 67 69.6569 67 68C67 66.3431 65.6569 65 64 65C62.3431 65 61 66.3431 61 68C61 69.6569 62.3431 71 64 71Z" stroke="#FF3864" stroke-width="2"/>
<path d="M64 88V71" stroke="#FF3864" stroke-width="2"/>
<path d="M60.0001 28.6801V20.4001C59.9611 17.2059 61.1705 14.1226 63.3707 11.8066C65.5708 9.49066 68.5881 8.12489 71.7801 8.00006C73.3743 7.97083 74.9585 8.25963 76.4398 8.84958C77.9212 9.43954 79.2702 10.3188 80.4079 11.436C81.5456 12.5533 82.4493 13.886 83.066 15.3565C83.6828 16.8269 84.0003 18.4055 84.0001 20.0001" stroke="#FF3864" stroke-width="2"/>
<path d="M84 20V24C84 25.0609 84.4214 26.0783 85.1716 26.8284C85.9217 27.5786 86.9391 28 88 28C88 30.1217 87.1571 32.1566 85.6569 33.6569C84.1566 35.1571 82.1217 36 80 36" stroke="#FF3864" stroke-width="2"/>
<path d="M68 28.68V24C68 23.4696 68.2107 22.9609 68.5858 22.5858C68.9609 22.2107 69.4696 22 70 22C70.5304 22 71.0391 22.2107 71.4142 22.5858C71.7893 22.9609 72 23.4696 72 24V31.05" stroke="#FF3864" stroke-width="2"/>
<path d="M56 88H8" stroke="#FF3864" stroke-width="2"/>
<path d="M88 88H72" stroke="#FF3864" stroke-width="2"/>
<path d="M20 32L16 16L24 8L32 16L28 32" stroke="#FF3864" stroke-width="2"/>
<path d="M18 32H30V36H18V32Z" stroke="#FF3864" stroke-width="2"/>
<path d="M24 36V68" stroke="#FF3864" stroke-width="2"/>
<path d="M24 80V88" stroke="#FF3864" stroke-width="2"/>
<path d="M24 8V32" stroke="#FF3864" stroke-width="2"/>
<path d="M22 80H26C27.1046 80 28 79.1046 28 78V70C28 68.8954 27.1046 68 26 68H22C20.8954 68 20 68.8954 20 70V78C20 79.1046 20.8954 80 22 80Z" stroke="#FF3864" stroke-width="2"/>
<path d="M24 68H30C30.5304 68 31.0391 68.2107 31.4142 68.5858C31.7893 68.9609 32 69.4696 32 70V74C32 74.5304 31.7893 75.0391 31.4142 75.4142C31.0391 75.7893 30.5304 76 30 76H28" stroke="#FF3864" stroke-width="2"/>
<path d="M48 64.0001C36 52.0001 24 60.0001 24 68.0001" stroke="#FF3864" stroke-width="2"/>
<path d="M48 88C40 72 32 72 32 72" stroke="#FF3864" stroke-width="2"/>
</svg>
