<svg width="96" height="96" viewBox="0 0 96 96" fill="none" xmlns="http://www.w3.org/2000/svg">
<path d="M24 88C28.4183 88 32 84.4183 32 80C32 75.5817 28.4183 72 24 72C19.5817 72 16 75.5817 16 80C16 84.4183 19.5817 88 24 88Z" stroke="#FF3864" stroke-width="2"/>
<path d="M72 88C76.4183 88 80 84.4183 80 80C80 75.5817 76.4183 72 72 72C67.5817 72 64 75.5817 64 80C64 84.4183 67.5817 88 72 88Z" stroke="#FF3864" stroke-width="2"/>
<path d="M23 80H25" stroke="#FF3864" stroke-width="2"/>
<path d="M71 80H73" stroke="#FF3864" stroke-width="2"/>
<path d="M16 80H8V20H88V80H80" stroke="#FF3864" stroke-width="2"/>
<path d="M60 64H88" stroke="#FF3864" stroke-width="2"/>
<path d="M8 64H36" stroke="#FF3864" stroke-width="2"/>
<path d="M8 44H16C17.0609 44 18.0783 44.4214 18.8284 45.1716C19.5786 45.9217 20 46.9391 20 48C20 49.0609 19.5786 50.0783 18.8284 50.8284C18.0783 51.5786 17.0609 52 16 52H8" stroke="#FF3864" stroke-width="2"/>
<path d="M88 52H80C78.9391 52 77.9217 51.5786 77.1716 50.8284C76.4214 50.0783 76 49.0609 76 48C76 46.9391 76.4214 45.9217 77.1716 45.1716C77.9217 44.4214 78.9391 44 80 44H88" stroke="#FF3864" stroke-width="2"/>
<path d="M20.0001 20L17.1001 44.15" stroke="#FF3864" stroke-width="2"/>
<path d="M72 20L78.42 44.32" stroke="#FF3864" stroke-width="2"/>
<path d="M17.79 51.5801L20 64.0001" stroke="#FF3864" stroke-width="2"/>
<path d="M78.21 51.5801L76 64.0001" stroke="#FF3864" stroke-width="2"/>
<path d="M18.5801 56H77.4201" stroke="#FF3864" stroke-width="2"/>
<path d="M32 80H64" stroke="#FF3864" stroke-width="2"/>
<path d="M52.48 41.3799C53.5629 42.1118 54.4499 43.0979 55.0635 44.252C55.6772 45.406 55.9987 46.6928 56 47.9999V55.9999" stroke="#FF3864" stroke-width="2"/>
<path d="M40 55.9999V47.9999C40.0013 46.6928 40.3228 45.406 40.9365 44.252C41.5501 43.0979 42.4371 42.1118 43.52 41.3799" stroke="#FF3864" stroke-width="2"/>
<path d="M48 43C51.866 43 55 39.866 55 36C55 32.134 51.866 29 48 29C44.134 29 41 32.134 41 36C41 39.866 44.134 43 48 43Z" stroke="#FF3864" stroke-width="2"/>
<path d="M71.9999 48L63.9999 40L54.3999 43.2" stroke="#FF3864" stroke-width="2"/>
<path d="M24 44L32 36L42.02 42.68" stroke="#FF3864" stroke-width="2"/>
<path d="M36 38.67V20" stroke="#FF3864" stroke-width="2"/>
<path d="M68 44V20" stroke="#FF3864" stroke-width="2"/>
<path d="M28 40V20" stroke="#FF3864" stroke-width="2"/>
<path d="M60 20V41.33" stroke="#FF3864" stroke-width="2"/>
<path d="M48 20V29" stroke="#FF3864" stroke-width="2"/>
<path d="M56 60L40 76" stroke="#FF3864" stroke-width="2"/>
<path d="M56 76L40 60" stroke="#FF3864" stroke-width="2"/>
<path d="M54 68C54 69.5913 53.3679 71.1174 52.2426 72.2426C51.1174 73.3679 49.5913 74 48 74C46.4087 74 44.8826 73.3679 43.7574 72.2426C42.6321 71.1174 42 69.5913 42 68" stroke="#FF3864" stroke-width="2"/>
<path d="M8.00001 19.9998V13.7998C7.99873 13.2155 8.15355 12.6415 8.44844 12.1371C8.74333 11.6327 9.1676 11.2163 9.67738 10.9308C10.1872 10.6453 10.7639 10.5012 11.3481 10.5133C11.9322 10.5254 12.5025 10.6934 13 10.9998V10.9998C13.5111 11.3045 14.095 11.4654 14.69 11.4654C15.285 11.4654 15.8689 11.3045 16.38 10.9998L19.67 8.99977C20.1752 8.70453 20.7499 8.54894 21.335 8.54894C21.9202 8.54894 22.4948 8.70453 23 8.99977L26.29 10.9998C26.8011 11.3045 27.385 11.4654 27.98 11.4654C28.575 11.4654 29.1589 11.3045 29.67 10.9998L33 8.99977C33.5111 8.69505 34.095 8.53418 34.69 8.53418C35.285 8.53418 35.869 8.69505 36.38 8.99977L39.66 10.9998C40.1664 11.2969 40.7429 11.4535 41.33 11.4535C41.9171 11.4535 42.4936 11.2969 43 10.9998L46.3 8.99977C46.8111 8.69505 47.395 8.53418 47.99 8.53418C48.585 8.53418 49.1689 8.69505 49.68 8.99977L53 10.9998C53.5111 11.3045 54.095 11.4654 54.69 11.4654C55.285 11.4654 55.869 11.3045 56.38 10.9998L59.67 8.99977C60.1752 8.70453 60.7499 8.54894 61.335 8.54894C61.9202 8.54894 62.4948 8.70453 63 8.99977L66.28 10.9998C66.7911 11.3045 67.375 11.4654 67.97 11.4654C68.565 11.4654 69.149 11.3045 69.66 10.9998L73 8.99977C73.5111 8.69505 74.095 8.53418 74.69 8.53418C75.285 8.53418 75.8689 8.69505 76.38 8.99977L79.68 10.9998C80.1837 11.2941 80.7566 11.4493 81.34 11.4493C81.9234 11.4493 82.4963 11.2941 83 10.9998C83.4989 10.6925 84.0711 10.5244 84.657 10.5132C85.2428 10.5019 85.821 10.6477 86.3314 10.9356C86.8418 11.2235 87.2658 11.6428 87.5592 12.15C87.8527 12.6572 88.0049 13.2338 88 13.8198V19.9998" stroke="#FF3864" stroke-width="2"/>
</svg>
