<svg width="96" height="96" viewBox="0 0 96 96" fill="none" xmlns="http://www.w3.org/2000/svg">
<path d="M44 20L28 28V32C20 32 8 36 8 40C8 40 27.76 40 41.19 45C47.6718 47.5048 54.7524 48.0235 61.53 46.49C75.12 43.33 88 36 88 36C88 32 75.55 32.81 68 32V28L60 24L56 12L48 8L40 12L36 24" stroke="#FF3864" stroke-width="2"/>
<path d="M46 46.4902V48.0002C46 50.2102 46 52.0002 48 52.0002C50 52.0002 50 50.2102 50 48.0002V47.1802" stroke="#FF3864" stroke-width="2"/>
<path d="M38 43.9902V50.0002L40 53.0002V58.0002L43 65.0002L48 66.0002L53 65.0002L56 58.0002V53.0002L58 50.0002V47.1502" stroke="#FF3864" stroke-width="2"/>
<path d="M32.3799 42.3198L31.3799 50.5198C30.8799 53.9998 27.2799 58.7198 27.2799 58.7198C27.2799 58.7198 19.9999 67.9998 27.9999 75.9998" stroke="#FF3864" stroke-width="2"/>
<path d="M64.19 45.8198L64.91 50.4098L68.3499 56.4098C68.3499 56.4098 64.67 60.4098 68 67.9998L61.2 66.1498" stroke="#FF3864" stroke-width="2"/>
<path d="M52.0001 58.1099C50.8425 58.93 49.4588 59.3705 48.0401 59.3705C46.6214 59.3705 45.2377 58.93 44.0801 58.1099" stroke="#FF3864" stroke-width="2"/>
<path d="M54 26L40 40" stroke="#FF3864" stroke-width="2"/>
<path d="M56 40L42 26" stroke="#FF3864" stroke-width="2"/>
<path d="M54 32C54 33.5913 53.3679 35.1174 52.2426 36.2426C51.1174 37.3679 49.5913 38 48 38C46.4087 38 44.8826 37.3679 43.7574 36.2426C42.6321 35.1174 42 33.5913 42 32" stroke="#FF3864" stroke-width="2"/>
<path d="M86 68H82C80.8954 68 80 68.8954 80 70V78C80 79.1046 80.8954 80 82 80H86C87.1046 80 88 79.1046 88 78V70C88 68.8954 87.1046 68 86 68Z" stroke="#FF3864" stroke-width="2"/>
<path d="M84 68H78C77.4696 68 76.9609 68.2107 76.5858 68.5858C76.2107 68.9609 76 69.4696 76 70V74C76 74.5304 76.2107 75.0391 76.5858 75.4142C76.9609 75.7893 77.4696 76 78 76H80" stroke="#FF3864" stroke-width="2"/>
<path d="M84 80V88" stroke="#FF3864" stroke-width="2"/>
<path d="M84 68.0001V38.1001" stroke="#FF3864" stroke-width="2"/>
<path d="M84 33.26V12C84 10.9391 83.5786 9.92172 82.8284 9.17157C82.0783 8.42143 81.0609 8 80 8H76C74.9391 8 73.9217 8.42143 73.1716 9.17157C72.4214 9.92172 72 10.9391 72 12V16C72 17.0609 72.4214 18.0783 73.1716 18.8284C73.9217 19.5786 74.9391 20 76 20H78C78.5304 20 79.0391 19.7893 79.4142 19.4142C79.7893 19.0391 80 18.5304 80 18V14C80 13.4696 79.7893 12.9609 79.4142 12.5858C79.0391 12.2107 78.5304 12 78 12C77.4696 12 76.9609 12.2107 76.5858 12.5858C76.2107 12.9609 76 13.4696 76 14V16" stroke="#FF3864" stroke-width="2"/>
<path d="M8 88C8 83.3426 9.08435 78.7493 11.1672 74.5836C13.25 70.4179 16.2741 66.7944 20 64" stroke="#FF3864" stroke-width="2"/>
<path d="M20 88C20 80 28 76 28 76C30.44 70 32.5 64.27 32.5 64.27C34.82 74.9 39.14 75.73 38.7 83.6L43.63 78.6C44.0452 80.7771 45.0428 82.8009 46.5167 84.4561C47.9905 86.1113 49.8855 87.3361 52 88C51.89 79.23 55.82 75.9 55.82 75.9C58.141 78.0187 61.0687 79.3549 64.19 79.72C61 71.3 64 67.49 64 67.49" stroke="#FF3864" stroke-width="2"/>
<path d="M75.9999 88.0002C75.9999 80.0002 64.1899 79.7202 64.1899 79.7202" stroke="#FF3864" stroke-width="2"/>
<path d="M80.37 68C79.0745 66.5006 77.6078 65.1582 76 64" stroke="#FF3864" stroke-width="2"/>
<path d="M12 8V16" stroke="#FF3864" stroke-width="2"/>
<path d="M8 12H16" stroke="#FF3864" stroke-width="2"/>
<path d="M16 48V56" stroke="#FF3864" stroke-width="2"/>
<path d="M12 52H20" stroke="#FF3864" stroke-width="2"/>
<path d="M20 27C21.6569 27 23 25.6569 23 24C23 22.3431 21.6569 21 20 21C18.3431 21 17 22.3431 17 24C17 25.6569 18.3431 27 20 27Z" stroke="#FF3864" stroke-width="2"/>
</svg>
