<svg width="96" height="96" viewBox="0 0 96 96" fill="none" xmlns="http://www.w3.org/2000/svg">
<path d="M72.87 60.8701C70.5101 65.4298 66.942 69.2528 62.5558 71.9212C58.1696 74.5896 53.1341 76.0007 48 76.0001C46.7457 76.0028 45.4928 75.9193 44.25 75.7501" stroke="#FF3864" stroke-width="2"/>
<path d="M60.8701 23.1299C65.4298 25.4898 69.2528 29.0579 71.9212 33.4441C74.5896 37.8303 76.0007 42.8657 76.0001 47.9999C76.0028 49.2541 75.9193 50.5071 75.7501 51.7499" stroke="#FF3864" stroke-width="2"/>
<path d="M23.1299 35.1301C25.4898 30.5704 29.0579 26.7474 33.4441 24.079C37.8303 21.4106 42.8657 19.9995 47.9999 20.0001C49.2541 19.9973 50.5071 20.0809 51.7499 20.2501" stroke="#FF3864" stroke-width="2"/>
<path d="M35.1299 72.8698C29.8617 70.133 25.5969 65.7964 22.9484 60.4832C20.2999 55.1701 19.4042 49.1541 20.3899 43.2998" stroke="#FF3864" stroke-width="2"/>
<path d="M12.62 19.9302L8 28.2702L21.57 44.7202C21.9192 45.1339 22.3487 45.4725 22.8326 45.7153C23.3165 45.9582 23.8446 46.1002 24.385 46.133C24.9255 46.1657 25.4669 46.0884 25.9765 45.9057C26.4862 45.723 26.9534 45.4388 27.35 45.0702V45.0702C27.7259 44.7026 28.0256 44.2646 28.2321 43.7812C28.4385 43.2977 28.5477 42.7783 28.5532 42.2526C28.5588 41.7269 28.4607 41.2053 28.2645 40.7176C28.0684 40.2299 27.778 39.7856 27.41 39.4102L19.27 31.2702" stroke="#FF3864" stroke-width="2"/>
<path d="M18.349 9.65573C16.1386 7.44536 12.5565 7.44378 10.3481 9.65219C8.13964 11.8606 8.14122 15.4427 10.3516 17.6531L14.3467 21.6483C16.5571 23.8586 20.1392 23.8602 22.3477 21.6518C24.5561 19.4434 24.5545 15.8612 22.3441 13.6509L18.349 9.65573Z" stroke="#FF3864" stroke-width="2"/>
<path d="M76.0701 12.62L67.7301 8L50.7301 21.27C50.3358 21.6638 50.023 22.1314 49.8096 22.6462C49.5962 23.161 49.4863 23.7128 49.4863 24.27C49.4863 24.8272 49.5962 25.379 49.8096 25.8938C50.023 26.4086 50.3358 26.8762 50.7301 27.27V27.27C51.1239 27.6643 51.5915 27.9771 52.1063 28.1905C52.621 28.4039 53.1728 28.5137 53.7301 28.5137C54.2873 28.5137 54.8391 28.4039 55.3539 28.1905C55.8686 27.9771 56.3363 27.6643 56.7301 27.27L64.7301 19.27" stroke="#FF3864" stroke-width="2"/>
<path d="M78.3489 10.3493L74.3538 14.3445C72.1434 16.5548 72.1418 20.137 74.3503 22.3454C76.5587 24.5538 80.1408 24.5522 82.3512 22.3418L86.3463 18.3467C88.5567 16.1363 88.5583 12.5542 86.3499 10.3458C84.1414 8.13735 80.5593 8.13894 78.3489 10.3493Z" stroke="#FF3864" stroke-width="2"/>
<path d="M83.3801 76.0701L88.0001 67.7301L74.7301 50.7301C74.3363 50.3358 73.8686 50.023 73.3539 49.8096C72.8391 49.5962 72.2873 49.4863 71.7301 49.4863C71.1728 49.4863 70.621 49.5962 70.1063 49.8096C69.5915 50.023 69.1239 50.3358 68.7301 50.7301V50.7301C68.3358 51.1239 68.023 51.5915 67.8096 52.1063C67.5962 52.621 67.4863 53.1728 67.4863 53.7301C67.4863 54.2873 67.5962 54.8391 67.8096 55.3539C68.023 55.8686 68.3358 56.3363 68.7301 56.7301L76.7301 64.7301" stroke="#FF3864" stroke-width="2"/>
<path d="M81.6583 74.352C79.4479 72.1416 75.8658 72.1401 73.6574 74.3485C71.449 76.5569 71.4505 80.139 73.6609 82.3494L77.6561 86.3445C79.8664 88.5549 83.4486 88.5565 85.657 86.3481C87.8654 84.1397 87.8638 80.5575 85.6534 78.3472L81.6583 74.352Z" stroke="#FF3864" stroke-width="2"/>
<path d="M19.9299 83.3801L28.2699 88.0001L45.2699 74.7301C45.6642 74.3363 45.977 73.8686 46.1904 73.3539C46.4038 72.8391 46.5137 72.2873 46.5137 71.7301C46.5137 71.1728 46.4038 70.621 46.1904 70.1063C45.977 69.5915 45.6642 69.1239 45.2699 68.7301V68.7301C44.8761 68.3358 44.4085 68.023 43.8937 67.8096C43.379 67.5962 42.8272 67.4863 42.2699 67.4863C41.7127 67.4863 41.1609 67.5962 40.6461 67.8096C40.1314 68.023 39.6637 68.3358 39.2699 68.7301L31.2699 76.7301" stroke="#FF3864" stroke-width="2"/>
<path d="M13.6529 73.6584L9.65774 77.6535C7.44737 79.8639 7.44579 83.446 9.65421 85.6544C11.8626 87.8629 15.4448 87.8613 17.6551 85.6509L21.6503 81.6558C23.8606 79.4454 23.8622 75.8633 21.6538 73.6548C19.4454 71.4464 15.8633 71.448 13.6529 73.6584Z" stroke="#FF3864" stroke-width="2"/>
<path d="M20.25 51.75L8 67.73L11.93 75.39" stroke="#FF3864" stroke-width="2"/>
<path d="M19.27 64.7301L23.13 60.8701" stroke="#FF3864" stroke-width="2"/>
<path d="M44.2501 20.25L28.2701 8L20.6101 11.93" stroke="#FF3864" stroke-width="2"/>
<path d="M31.27 19.27L35.13 23.13" stroke="#FF3864" stroke-width="2"/>
<path d="M75.75 44.2499L88 28.2699L84.07 20.6099" stroke="#FF3864" stroke-width="2"/>
<path d="M76.7301 31.27L72.8701 35.13" stroke="#FF3864" stroke-width="2"/>
<path d="M51.75 75.75L67.73 88L75.39 84.07" stroke="#FF3864" stroke-width="2"/>
<path d="M64.7301 76.7301L60.8701 72.8701" stroke="#FF3864" stroke-width="2"/>
<path d="M60.6699 43.43L56.6699 48.43L60.2699 53.72C60.595 54.2013 60.7586 54.7735 60.7374 55.3539C60.7161 55.9342 60.5109 56.4928 60.1515 56.949C59.7921 57.4053 59.297 57.7355 58.7378 57.892C58.1785 58.0486 57.584 58.0234 57.0399 57.82L51.0399 55.57L47.1199 60.57C46.7632 61.0286 46.2699 61.3618 45.7114 61.5217C45.1528 61.6815 44.5579 61.6597 44.0126 61.4594C43.4673 61.2591 42.9997 60.8906 42.6775 60.4072C42.3553 59.9238 42.195 59.3505 42.2199 58.77L42.5199 52.38L36.5199 50.22C35.9723 50.0231 35.5016 49.6568 35.176 49.1744C34.8505 48.692 34.687 48.1184 34.7093 47.5368C34.7316 46.9553 34.9385 46.3959 35.3 45.9398C35.6615 45.4837 36.1588 45.1545 36.7199 45L42.8799 43.31L43.0799 36.92C43.0999 36.3425 43.3026 35.7862 43.6588 35.3311C44.0151 34.8761 44.5066 34.5459 45.0625 34.388C45.6184 34.2302 46.2101 34.2528 46.7523 34.4526C47.2946 34.6524 47.7594 35.0192 48.0799 35.5L51.5999 40.84L57.7399 39.05C58.3082 38.8587 58.9235 38.8598 59.4911 39.0531C60.0586 39.2463 60.5468 39.6211 60.8801 40.1194C61.2135 40.6178 61.3735 41.212 61.3355 41.8103C61.2975 42.4087 61.0636 42.9779 60.6699 43.43V43.43Z" stroke="#FF3864" stroke-width="2"/>
<path d="M51.6301 40.8901L56.68 48.4301L51.07 55.5701L42.55 52.4301L42.89 43.3601L51.6301 40.8901Z" stroke="#FF3864" stroke-width="2"/>
</svg>
