<svg width="250" height="176" viewBox="0 0 250 176" fill="none" xmlns="http://www.w3.org/2000/svg">
<path d="M111.6 82.4005L102.2 95.6005C93.7 95.6005 87.6 90.5005 86.1 80.9005L83.9 66.9005C82.3 56.9005 79.8 54.6005 71.7 53.9005L69.2 55.2005V82.2005C71.2 82.6005 72.7 82.9005 73.4 82.9005C74.7 82.9005 75.7 82.3005 77.9 79.4005L79.8 80.7005C77 84.1005 71.9 90.5005 68.4 95.7005C59.6 92.2005 53.6 90.3005 43 90.3005C37.4 90.3005 34.9 91.7005 31.3 94.8005L29.7 92.9005L39.9 83.5005C44 79.7005 48.6 74.9005 48.6 67.1005V53.7005H46.1C40.6 53.7005 36.8 55.8005 35.4 59.0005L34.2 58.5005C34.7 47.6005 39.4 41.2005 47.9 41.2005H48.5V26.4005C39.3 19.5005 36.9 18.5005 35.2 18.5005C33.7 18.5005 32.3 19.3005 30.4 21.1005L29 19.5005L43.8 7.00049C49.6 11.2005 56.6 16.5005 62 20.5005L66.9 17.3005V14.7005C66.9 11.8005 66.3 8.7005 65.8 7.2005V7.00049L68.5 7.40045C68.9 8.80045 69.1 11.7005 69.1 14.0005V16.0005L83 7.10046C92.3 9.90046 100.6 14.3005 100.6 25.7005C100.6 34.7005 95.7001 41.8005 84.3 46.7005C93.2001 47.8005 96.4 54.7005 97.8 62.8005L99.8 74.3005C101.3 83.0005 103.9 83.7005 106.1 83.7005C107.3 83.7005 108.3 82.8005 109.5 80.9005L111.6 82.4005ZM66.9 19.9005C64.8 21.3005 62.1 23.0005 62.1 23.0005V57.8005C62.1 68.7005 55.6 74.5005 48 79.5005L48.1 79.7005C49.6 79.2005 51.7 78.6005 54.6 78.6005C57.4 78.6005 62.6 80.6005 66.9 81.5005V19.9005ZM73.4 15.8005L69.2 18.5005V52.6005C82.2 46.8005 86.6 40.9005 86.6 31.5005C86.5 22.2005 81.2 18.0005 73.4 15.8005Z" fill="black"/>
<path d="M153.6 86.0004C150.9 88.6004 147 92.3004 144.7 94.7004C140.9 91.8004 136.1 88.4004 133.8 86.7004L124.5 94.7004C121.2 92.0004 115.9 88.1004 111.8 85.4004V84.9004C113.1 84.1004 113.8 83.0004 113.8 79.0004V65.8004C118 63.8004 121.7 61.8004 124.3 60.2004C119.5 58.4004 115.5 54.0004 115.5 47.6004C115.5 39.4004 119.5 35.6004 123.1 31.3004C125 29.0004 126.2 27.4004 127.4 25.4004C133 27.9004 142.9 32.4004 149.4 34.8004V35.3004C148 36.4004 147.4 37.9004 147.4 40.8004V83.0004C148.5 84.1004 152.1 86.2004 153.4 85.7004L153.6 86.0004ZM135.3 41.3004C130.2 38.2004 128 36.8004 125.7 36.8004C123.6 36.8004 118.3 38.3004 118.3 47.6004C118.3 53.8004 123.8 58.9004 131.5 58.9004C132.6 58.9004 134 58.5004 135.4 58.1004V41.3004H135.3ZM135.3 82.2004V60.8004C134 61.3004 132.7 61.6004 131.3 61.6004C129.5 61.6004 127.5 61.1004 126 60.7004C125.4 61.8004 125.2 63.5004 125.2 65.6004V82.2004C127.2 83.5004 128.7 84.8004 131 86.1004L135.3 82.2004Z" fill="black"/>
<path d="M179.1 86.0004L169.9 94.7004C167.3 92.7004 162 88.9004 158.7 86.8004V86.3004C160.2 85.4004 160.7 84.1004 160.7 80.8004V37.1004L159.2 36.2004C156.7 34.7004 155.9 34.7004 154.6 34.7004L154.5 34.2004L163.7 25.4004C166.3 27.4004 171.3 31.0004 174.9 33.4004V33.9004C173.5 34.7004 172.9 35.9004 172.9 39.1004V83.1004C176.5 85.4004 177.8 85.7004 178.9 85.7004L179.1 86.0004ZM164.3 19.5004L160.5 15.4004C163.8 12.1004 171.7 3.70044 173.7 0.700439C174.6 1.90044 177 6.9004 178 9.6004C175.2 12.0004 168.1 17.2004 164.3 19.5004Z" fill="black"/>
<path d="M221.4 36.8004C220 38.0004 219.4 38.9004 219.4 43.3004V81.7004C212.7 85.5004 206.7 89.1004 199.3 94.7004C195.4 92.1004 187.6 87.4004 183.1 85.0004V84.5004C184.3 83.9004 185.1 82.7003 185.1 80.4003V36.9003C187.7 35.5003 194 31.7003 197.9 29.1003L193.7 24.5004C188.1 18.3004 186.9 17.0004 186.9 12.0004C186.9 8.50037 188.9 3.90034 190.7 0.600342L192 1.10034C191.3 4.40034 192.1 6.90033 198.7 13.4003C198.7 13.4003 217.3 32.8004 221.5 36.2004V36.8004H221.4ZM207.3 86.1003V39.1003L199.8 31.1003L197.2 32.7004V80.3004C199.5 81.8004 204.5 84.8004 207.1 86.2004L207.3 86.1003Z" fill="black"/>
<path d="M75.9 143.4C75.9 149.6 71.8 153.9 66.1 157.7L49.2 169.3C38.2 164.2 28.1 161.2 20.4 161.2C11.8 161.2 5.80005 164.6 5.80005 175.6L5.40002 175.7L2.80005 173.5C4.80005 160.5 11.6 153.4 17.8 151.7C18.9 149.6 19.8 146.6 19.8 140.2V126.5H18.4C12.8 126.5 9.00004 127.9 7.10004 131.8L6 131.3C7.2 119.2 12.7 114 19.5 114H20V99.0001C11.4 92.8001 9.30004 91.1001 6.10004 91.1001C4.10004 91.1001 3.40002 92.0001 1.40002 93.7001L0 92.1001L14.8 79.6001C19.5 83.2001 27 88.5001 33.1 92.9001L38.5 89.1001V87.6001C38.5 84.7001 37.9 81.6001 37.4 80.1001V79.9001L39.9 80.3001C40.3 81.7001 40.6 84.6001 40.6 86.9001V87.7001L51.8 79.8001C57 83.7001 66.7 93.9001 72 100.6L55.4 112.4C67.7 114.2 76 122 76 133.4V143.4H75.9ZM38.6 91.8001L33.7 95.3001V134.4C33.7 141 28.3 144.7 21.2 150.6L21.3 150.8C23.3 150.2 27.2 149.3 30.9 149.3C33 149.3 36.2 149.9 38.5 150.4V91.8001H38.6ZM59 106.9C55.1 101.4 47.4 92.8001 42.3 89.2001L40.7 90.3001V119.8L59 106.9ZM62.4 136.6C62.4 127 55.7 121.2 44.2 121.2C42.9 121.2 41.6 121.7 40.7 122.3V151C47.3 152.6 54.4 155.9 60.7 159.1L61.1 158.9C62.3 157 62.5 156 62.5 150.4V136.6H62.4Z" fill="black"/>
<path d="M110.5 120.7H110C107.1 117.5 102.7 111.2 101.3 107.8L98.8 110.4V153.2C104.4 156.7 105.5 157.2 107.3 157.2C108.1 157.2 108.8 156.5 109.5 155.7L110.6 154.5L112.6 156.3C105.7 163.2 101.2 167.8 101.2 167.8C96.3 164.5 90.9 161.6 84.8 158.6V158.1C86.1 156.9 86.8 155.9 86.8 152.2V110.1C84.3 108.2 82.7 107.5 80.9 107.4L80.7 107C83.4 104.5 86.9 101.4 89.6 98.3003C92.9 101 96.4 104.2 99.4 106.5C103.5 103 104.8 101.6 108.2 98.3003C110.4 101.8 114.4 107.5 118.1 111.3C115.6 113.7 112.7 117.6 110.5 120.7Z" fill="black"/>
<path d="M158.7 108.4C157.6 109.2 156.7 110.3 156.7 113.7V154.6C151.3 157.7 142.8 162.9 136.5 167.6C131.3 164.1 125.3 160.3 120.4 157.5V157C121.8 156.4 122.4 154.9 122.4 152.4V111.2C128.4 107.8 136.5 102.6 142.6 98.2002C147.5 101.4 153.6 105.2 158.7 107.9V108.4ZM144.6 159.2V112.7C141.9 110.8 137.9 108.4 134.9 106.6L134.5 106.7V153.2C137.1 155.1 141.7 157.9 144.4 159.4L144.6 159.2Z" fill="black"/>
<path d="M204.1 108.4C203 109.2 202.1 110.3 202.1 113.7V154.6C196.7 157.7 188.2 162.9 181.9 167.6C176.7 164.1 170.7 160.3 165.8 157.5V157C167.2 156.4 167.8 154.9 167.8 152.4V111.2C173.8 107.8 181.9 102.6 188 98.2002C192.9 101.4 199 105.2 204.1 107.9V108.4ZM190 159.2V112.7C187.3 110.8 183.3 108.4 180.3 106.6L179.9 106.7V153.2C182.5 155.1 187.1 157.9 189.8 159.4L190 159.2Z" fill="black"/>
<path d="M249.4 109.7C248 110.9 247.4 111.8 247.4 116.2V154.6C240.7 158.4 234.7 162 227.3 167.6C223.4 165 215.6 160.3 211.1 157.9V157.4C212.3 156.8 213.1 155.6 213.1 153.3V109.8C215.7 108.4 222 104.6 225.9 102L221.7 97.4002C216.1 91.2002 214.9 89.9002 214.9 84.9002C214.9 81.4002 216.9 76.8002 218.7 73.5002L220 74.0002C219.3 77.3002 220.1 79.8002 226.7 86.3002C226.7 86.3002 245.3 105.7 249.5 109.1V109.7H249.4ZM235.3 159.1V112.1L227.8 104.1L225.2 105.7V153.3C227.5 154.8 232.5 157.8 235.1 159.2L235.3 159.1Z" fill="black"/>
</svg>
