<svg width="311" height="385" viewBox="0 0 311 385" fill="none" xmlns="http://www.w3.org/2000/svg">
<path fill-rule="evenodd" clip-rule="evenodd" d="M255.744 1.24733C256.823 1.42265 257.562 2.43245 257.402 3.51425C256.974 6.40247 256.679 11.522 257.234 17.2933C257.619 21.2989 258.408 25.5511 259.808 29.5574L264.109 27.0746C265.976 25.9963 268.386 26.6731 269.49 28.5863L284.49 54.5671C285.595 56.4802 284.976 58.9053 283.109 59.9835L277.107 63.4488C278.826 68.4145 282.139 75.731 287.648 83.0655C295.497 93.515 305.648 102.42 309.695 105.527C310.129 105.86 310.407 106.356 310.465 106.899C310.524 107.442 310.358 107.986 310.005 108.403C306.401 112.674 299.823 118.977 291.681 124.17C283.558 129.35 273.673 133.557 263.512 133.314C244.166 132.85 229.915 129.987 225.081 128.564C224.436 128.375 223.929 127.873 223.733 127.229C223.537 126.586 223.677 125.887 224.107 125.369L233.298 114.289C233.72 113.781 234.365 113.513 235.022 113.574C239.24 113.966 249.614 111.982 255.23 100.159C258.012 94.3026 258.049 88.0368 256.888 82.4837C256.415 80.22 255.748 78.1 255.005 76.2092L213.785 100.007C211.918 101.086 209.508 100.409 208.404 98.4956L206.904 95.8976L177.624 112.802L173.612 110.5L204.904 92.4334L201.904 87.2373L167.593 107.047L165.587 105.895L200.904 85.5053L197.404 79.4431L158.565 101.867L154.553 99.5644L195.404 75.979L193.404 72.5149C192.299 70.6017 192.918 68.1767 194.785 67.0984L239.638 41.2029L239.667 41.0084C238.254 39.0793 234.515 35.9063 228.565 36.4058C221.358 37.0109 209.464 40.6863 204.344 42.4873C203.789 42.6827 203.175 42.6234 202.668 42.3253C202.16 42.0271 201.81 41.5204 201.71 40.9402L199.991 30.9629C199.902 30.4499 200.017 29.9226 200.312 29.4931C204.151 23.8889 211.458 15.8266 221.024 9.6611C230.598 3.49111 242.61 -0.885997 255.744 1.24733ZM132.608 112.234L61.8295 153.098C61.6938 153.176 61.5646 153.262 61.4423 153.354C56.738 151.799 51.4161 152.182 46.7877 154.854C38.1784 159.825 35.2287 170.833 40.1992 179.443C45.1698 188.052 56.1784 191.002 64.7877 186.031C69.8095 183.132 72.9057 178.178 73.6276 172.845L155.783 125.412L151.752 123.12L73.6535 168.211C73.4039 166.206 72.8112 164.215 71.8525 162.322L145.707 119.683L143.692 118.537L70.8525 160.59C69.4818 158.49 67.7361 156.764 65.7558 155.45L136.638 114.526L132.608 112.234ZM257.863 35.299L243.303 43.7057L242.878 46.4928L254.991 67.4724C255.497 68.2194 256.035 69.1035 256.578 70.105L272.203 61.0837C272.079 60.6057 271.976 60.1691 271.894 59.7781C269.739 56.3799 264.402 47.5481 258.518 36.5806C258.292 36.1578 258.073 35.7304 257.863 35.299ZM224.685 54.4544L238.866 46.267L238.818 46.5841C238.75 47.0331 238.836 47.4919 239.063 47.8852L251.008 68.5737L224.685 54.4544ZM275.745 58.6424C275.794 58.8994 275.857 59.1887 275.932 59.5079L281.109 56.5194L266.109 30.5387L261.337 33.2934C261.562 33.7654 261.797 34.2312 262.043 34.6898C268.074 45.932 273.517 54.8932 275.466 57.9403C275.603 58.1545 275.698 58.3928 275.745 58.6424ZM224.412 56.5384L252.98 71.8623C253.102 72.0838 253.224 72.3125 253.346 72.5481L228.762 86.7419L224.412 56.5384ZM253.203 4.93567C242.086 3.69815 231.765 7.49782 223.191 13.0233C214.499 18.6253 207.764 25.903 204.072 31.0941L205.254 37.9524C206.535 37.5287 208.023 37.0548 209.637 36.5667L209.658 31.9537C212.661 28.488 221.737 20.4762 234.023 16.1547C243.776 12.7238 249.941 12.2379 252.948 12.5415C252.882 9.62865 253 7.01799 253.203 4.93567ZM276.447 114.636C267.946 116.764 253.707 116.803 243.212 116.356C240.386 117.319 237.758 117.651 235.736 117.615L229.203 125.49C235.432 126.91 247.728 128.934 263.608 129.315C272.649 129.532 281.737 125.768 289.53 120.797C296.354 116.445 302.027 111.268 305.588 107.369C303.745 105.858 301.325 103.749 298.639 101.198C294.176 105.686 285.887 112.273 276.447 114.636ZM222.329 55.815L197.636 70.0712L226.603 85.4928L222.329 55.815ZM197.855 72.4145L211.785 96.5432L226.845 87.8487L197.855 72.4145ZM60.2877 178.237C55.9831 180.722 50.4787 179.247 47.9934 174.943C45.5082 170.638 46.9831 165.134 51.2877 162.648C55.5923 160.163 61.0966 161.638 63.5819 165.943C66.0672 170.247 64.5923 175.752 60.2877 178.237Z" fill="#2B2C34"/>
<path fill-rule="evenodd" clip-rule="evenodd" d="M53.0754 3.51425C52.9153 2.43245 53.6538 1.42265 54.7332 1.24733C67.8675 -0.885997 79.8793 3.49111 89.4529 9.6611C99.0195 15.8266 106.326 23.8889 110.165 29.4931C110.46 29.9226 110.575 30.4499 110.486 30.9629L108.767 40.9402C108.667 41.5204 108.317 42.0271 107.809 42.3253C107.301 42.6234 106.688 42.6827 106.133 42.4873C101.013 40.6863 89.119 37.0109 81.9115 36.4058C75.9619 35.9063 72.2232 39.0793 70.8097 41.0084L70.8394 41.2029L115.692 67.0984C117.559 68.1767 118.178 70.6017 117.073 72.5149L115.073 75.979L248.647 153.098C248.783 153.176 248.912 153.262 249.035 153.354C253.739 151.799 259.061 152.182 263.689 154.854C272.299 159.825 275.248 170.833 270.278 179.443C265.307 188.052 254.299 191.002 245.689 186.031C240.668 183.132 237.571 178.178 236.849 172.845L103.573 95.8976L102.073 98.4956C100.969 100.409 98.5593 101.086 96.6917 100.007L55.4721 76.2092C54.7295 78.1 54.0621 80.22 53.589 82.4837C52.4283 88.0368 52.4651 94.3026 55.2466 100.159C60.863 111.982 71.2366 113.966 75.4546 113.574C76.1121 113.513 76.7574 113.781 77.1791 114.289L86.3704 125.369C86.7999 125.887 86.9404 126.586 86.7441 127.229C86.5478 127.873 86.0411 128.375 85.3957 128.564C80.5624 129.987 66.3106 132.85 46.9652 133.314C36.8037 133.557 26.9185 129.35 18.7963 124.17C10.6545 118.977 4.07606 112.674 0.471693 108.403C0.119208 107.986 -0.0470573 107.442 0.0115391 106.899C0.0701359 106.356 0.348502 105.86 0.781918 105.527C4.82869 102.42 14.9801 93.515 22.8291 83.0655C28.3382 75.731 31.6512 68.4145 33.3705 63.4488L27.3684 59.9835C25.5008 58.9053 24.8822 56.4802 25.9868 54.5671L40.9868 28.5863C42.0914 26.6731 44.5008 25.9963 46.3684 27.0746L50.6689 29.5574C52.0685 25.5511 52.8575 21.2989 53.243 17.2933C53.7983 11.522 53.5028 6.40247 53.0754 3.51425ZM67.1744 43.7057L52.6135 35.299C52.4036 35.7304 52.1854 36.1578 51.9586 36.5806C46.0754 47.5481 40.7379 56.3799 38.5832 59.7781C38.5007 60.1691 38.398 60.6057 38.2739 61.0837L53.8993 70.105C54.442 69.1035 54.9804 68.2194 55.4863 67.4724L67.5989 46.4928L67.1744 43.7057ZM71.6106 46.267L85.7916 54.4544L59.4693 68.5737L71.4138 47.8852C71.6409 47.4919 71.7273 47.0331 71.6589 46.5841L71.6106 46.267ZM34.5447 59.5079C34.6204 59.1887 34.6826 58.8994 34.7317 58.6424C34.7795 58.3927 34.8743 58.1545 35.0113 57.9403C36.9602 54.8932 42.4032 45.932 48.4337 34.6898C48.6798 34.2312 48.9149 33.7654 49.1397 33.2934L44.3684 30.5387L29.3684 56.5194L34.5447 59.5079ZM57.4969 71.8623L86.0649 56.5384L81.7153 86.7419L57.131 72.5481C57.2533 72.3125 57.3755 72.0838 57.4969 71.8623ZM87.286 13.0233C78.7124 7.49782 68.3913 3.69815 57.2744 4.93567C57.4765 7.01799 57.5952 9.62865 57.5285 12.5415C60.5362 12.2379 66.7012 12.7238 76.4544 16.1547C88.7395 20.4762 97.8163 28.488 100.819 31.9537L100.84 36.5667C102.454 37.0548 103.942 37.5287 105.223 37.9524L106.405 31.0941C102.713 25.903 95.9781 18.6253 87.286 13.0233ZM67.2647 116.356C56.7702 116.803 42.5309 116.764 34.0297 114.636C24.5905 112.273 16.3011 105.686 11.8376 101.198C9.15229 103.749 6.7319 105.858 4.88884 107.369C8.45033 111.268 14.1229 116.445 20.9473 120.797C28.7402 125.768 37.8281 129.532 46.8694 129.315C62.7491 128.934 75.0447 126.91 81.2737 125.49L74.7413 117.615C72.7185 117.651 70.0906 117.319 67.2647 116.356ZM112.841 70.0712L88.1483 55.815L83.8744 85.4928L112.841 70.0712ZM98.6917 96.5432L112.622 72.4145L83.6324 87.8487L98.6917 96.5432ZM244.721 155.45C242.741 156.764 240.995 158.49 239.625 160.59L109.573 85.5053L113.073 79.4431L244.721 155.45ZM238.625 162.322C237.666 164.215 237.073 166.206 236.824 168.211L105.573 92.4335L108.573 87.2373L238.625 162.322ZM262.484 174.943C259.998 179.247 254.494 180.722 250.189 178.237C245.885 175.752 244.41 170.247 246.895 165.943C249.38 161.638 254.885 160.163 259.189 162.648C263.494 165.134 264.969 170.638 262.484 174.943Z" fill="#2B2C34"/>
<path d="M141.6 286.246L132.2 299.446C123.7 299.446 117.6 294.346 116.1 284.746L113.9 270.746C112.3 260.746 109.8 258.446 101.7 257.746L99.2 259.046V286.046C101.2 286.446 102.7 286.746 103.4 286.746C104.7 286.746 105.7 286.146 107.9 283.246L109.8 284.546C107 287.946 101.9 294.346 98.4 299.546C89.6 296.046 83.6 294.146 73 294.146C67.4 294.146 64.9 295.546 61.3 298.646L59.7 296.746L69.9 287.346C74 283.546 78.6 278.746 78.6 270.946V257.546H76.1C70.6 257.546 66.8 259.646 65.4 262.846L64.2 262.346C64.7 251.446 69.4 245.046 77.9 245.046H78.5V230.246C69.3 223.346 66.9 222.346 65.2 222.346C63.7 222.346 62.3 223.146 60.4 224.946L59 223.346L73.8 210.846C79.6 215.046 86.6 220.346 92 224.346L96.9 221.146V218.546C96.9 215.646 96.3 212.546 95.8 211.046V210.846L98.5 211.246C98.9 212.646 99.1 215.546 99.1 217.846V219.846L113 210.946C122.3 213.746 130.6 218.146 130.6 229.546C130.6 238.546 125.7 245.646 114.3 250.546C123.2 251.646 126.4 258.546 127.8 266.646L129.8 278.146C131.3 286.846 133.9 287.546 136.1 287.546C137.3 287.546 138.3 286.646 139.5 284.746L141.6 286.246ZM96.9 223.746C94.8 225.146 92.1 226.846 92.1 226.846V261.646C92.1 272.546 85.6 278.346 78 283.346L78.1 283.546C79.6 283.046 81.7 282.446 84.6 282.446C87.4 282.446 92.6 284.446 96.9 285.346V223.746ZM103.4 219.646L99.2 222.346V256.446C112.2 250.646 116.6 244.746 116.6 235.346C116.5 226.046 111.2 221.846 103.4 219.646Z" fill="black"/>
<path d="M183.6 289.846C180.9 292.446 177 296.146 174.7 298.546C170.9 295.646 166.1 292.246 163.8 290.546L154.5 298.546C151.2 295.846 145.9 291.946 141.8 289.246V288.746C143.1 287.946 143.8 286.846 143.8 282.846V269.646C148 267.646 151.7 265.646 154.3 264.046C149.5 262.246 145.5 257.846 145.5 251.446C145.5 243.246 149.5 239.446 153.1 235.146C155 232.846 156.2 231.246 157.4 229.246C163 231.746 172.9 236.246 179.4 238.646V239.146C178 240.246 177.4 241.746 177.4 244.646V286.846C178.5 287.946 182.1 290.046 183.4 289.546L183.6 289.846ZM165.3 245.146C160.2 242.046 158 240.646 155.7 240.646C153.6 240.646 148.3 242.146 148.3 251.446C148.3 257.646 153.8 262.746 161.5 262.746C162.6 262.746 164 262.346 165.4 261.946V245.146H165.3ZM165.3 286.046V264.646C164 265.146 162.7 265.446 161.3 265.446C159.5 265.446 157.5 264.946 156 264.546C155.4 265.646 155.2 267.346 155.2 269.446V286.046C157.2 287.346 158.7 288.646 161 289.946L165.3 286.046Z" fill="black"/>
<path d="M209.1 289.846L199.9 298.546C197.3 296.546 192 292.746 188.7 290.646V290.146C190.2 289.246 190.7 287.946 190.7 284.646V240.946L189.2 240.046C186.7 238.546 185.9 238.546 184.6 238.546L184.5 238.046L193.7 229.246C196.3 231.246 201.3 234.846 204.9 237.246V237.746C203.5 238.546 202.9 239.746 202.9 242.946V286.946C206.5 289.246 207.8 289.546 208.9 289.546L209.1 289.846ZM194.3 223.346L190.5 219.246C193.8 215.946 201.7 207.546 203.7 204.546C204.6 205.746 207 210.746 208 213.446C205.2 215.846 198.1 221.046 194.3 223.346Z" fill="black"/>
<path d="M251.4 240.646C250 241.846 249.4 242.746 249.4 247.146V285.546C242.7 289.346 236.7 292.946 229.3 298.546C225.4 295.946 217.6 291.246 213.1 288.846V288.346C214.3 287.746 215.1 286.546 215.1 284.246V240.746C217.7 239.346 224 235.546 227.9 232.946L223.7 228.346C218.1 222.146 216.9 220.846 216.9 215.846C216.9 212.346 218.9 207.746 220.7 204.446L222 204.946C221.3 208.246 222.1 210.746 228.7 217.246C228.7 217.246 247.3 236.646 251.5 240.046V240.646H251.4ZM237.3 289.946V242.946L229.8 234.946L227.2 236.546V284.146C229.5 285.646 234.5 288.646 237.1 290.046L237.3 289.946Z" fill="black"/>
<path d="M105.9 347.246C105.9 353.446 101.8 357.746 96.1 361.546L79.2 373.146C68.2 368.046 58.1 365.046 50.4 365.046C41.8 365.046 35.8 368.446 35.8 379.446L35.4 379.546L32.8 377.346C34.8 364.346 41.6 357.246 47.8 355.546C48.9 353.446 49.8 350.446 49.8 344.046V330.346H48.4C42.8 330.346 39 331.746 37.1 335.646L36 335.146C37.2 323.046 42.7 317.846 49.5 317.846H50V302.846C41.4 296.646 39.3 294.946 36.1 294.946C34.1 294.946 33.4 295.846 31.4 297.546L30 295.946L44.8 283.446C49.5 287.046 57 292.346 63.1 296.746L68.5 292.946V291.446C68.5 288.546 67.9 285.446 67.4 283.946V283.746L69.9 284.146C70.3 285.546 70.6 288.446 70.6 290.746V291.546L81.8 283.646C87 287.546 96.7 297.746 102 304.446L85.4 316.246C97.7 318.046 106 325.846 106 337.246V347.246H105.9ZM68.6 295.646L63.7 299.146V338.246C63.7 344.846 58.3 348.546 51.2 354.446L51.3 354.646C53.3 354.046 57.2 353.146 60.9 353.146C63 353.146 66.2 353.746 68.5 354.246V295.646H68.6ZM89 310.746C85.1 305.246 77.4 296.646 72.3 293.046L70.7 294.146V323.646L89 310.746ZM92.4 340.446C92.4 330.846 85.7 325.046 74.2 325.046C72.9 325.046 71.6 325.546 70.7 326.146V354.846C77.3 356.446 84.4 359.746 90.7 362.946L91.1 362.746C92.3 360.846 92.5 359.846 92.5 354.246V340.446H92.4Z" fill="black"/>
<path d="M140.5 324.546H140C137.1 321.346 132.7 315.046 131.3 311.646L128.8 314.246V357.046C134.4 360.546 135.5 361.046 137.3 361.046C138.1 361.046 138.8 360.346 139.5 359.546L140.6 358.346L142.6 360.146C135.7 367.046 131.2 371.646 131.2 371.646C126.3 368.346 120.9 365.446 114.8 362.446V361.946C116.1 360.746 116.8 359.746 116.8 356.046V313.946C114.3 312.046 112.7 311.346 110.9 311.246L110.7 310.846C113.4 308.346 116.9 305.246 119.6 302.146C122.9 304.846 126.4 308.046 129.4 310.346C133.5 306.846 134.8 305.446 138.2 302.146C140.4 305.646 144.4 311.346 148.1 315.146C145.6 317.546 142.7 321.446 140.5 324.546Z" fill="black"/>
<path d="M188.7 312.246C187.6 313.046 186.7 314.146 186.7 317.546V358.446C181.3 361.546 172.8 366.746 166.5 371.446C161.3 367.946 155.3 364.146 150.4 361.346V360.846C151.8 360.246 152.4 358.746 152.4 356.246V315.046C158.4 311.646 166.5 306.446 172.6 302.046C177.5 305.246 183.6 309.046 188.7 311.746V312.246ZM174.6 363.046V316.546C171.9 314.646 167.9 312.246 164.9 310.446L164.5 310.546V357.046C167.1 358.946 171.7 361.746 174.4 363.246L174.6 363.046Z" fill="black"/>
<path d="M234.1 312.246C233 313.046 232.1 314.146 232.1 317.546V358.446C226.7 361.546 218.2 366.746 211.9 371.446C206.7 367.946 200.7 364.146 195.8 361.346V360.846C197.2 360.246 197.8 358.746 197.8 356.246V315.046C203.8 311.646 211.9 306.446 218 302.046C222.9 305.246 229 309.046 234.1 311.746V312.246ZM220 363.046V316.546C217.3 314.646 213.3 312.246 210.3 310.446L209.9 310.546V357.046C212.5 358.946 217.1 361.746 219.8 363.246L220 363.046Z" fill="black"/>
<path d="M279.4 313.546C278 314.746 277.4 315.646 277.4 320.046V358.446C270.7 362.246 264.7 365.846 257.3 371.446C253.4 368.846 245.6 364.146 241.1 361.746V361.246C242.3 360.646 243.1 359.446 243.1 357.146V313.646C245.7 312.246 252 308.446 255.9 305.846L251.7 301.246C246.1 295.046 244.9 293.746 244.9 288.746C244.9 285.246 246.9 280.646 248.7 277.346L250 277.846C249.3 281.146 250.1 283.646 256.7 290.146C256.7 290.146 275.3 309.546 279.5 312.946V313.546H279.4ZM265.3 362.946V315.946L257.8 307.946L255.2 309.546V357.146C257.5 358.646 262.5 361.646 265.1 363.046L265.3 362.946Z" fill="black"/>
</svg>
